<svg width="410" height="351" viewBox="0 0 410 351" fill="none" xmlns="http://www.w3.org/2000/svg">
<g clip-path="url(#clip0_88_498)">
<path d="M95.416 57.4619C95.416 57.4619 95.4395 57.4807 95.4488 57.4947V57.4666L95.416 57.4619Z" fill="#E7C81D"/>
<path d="M7.84985 173.737L73.3747 183.282C78.4462 184.006 83.2893 179.828 84.1646 173.97L88.1276 146.767L97.4999 148.132C101.349 148.694 105.021 145.53 105.668 141.076L111.23 102.876C111.877 98.4266 109.27 94.344 105.416 93.7825L96.0441 92.4168L100.002 65.2419C100.83 59.3843 97.3857 53.9931 92.3285 53.227L26.7894 43.677C21.6941 42.9347 16.8415 47.1173 15.9661 53.0034L0.123695 161.713C-0.71838 167.608 2.74507 173 7.84509 173.737H7.84985ZM98.0708 139.177L89.4122 137.916L94.731 101.372L103.39 102.633L98.0708 139.177ZM95.4542 57.4667V57.4953C95.4542 57.4953 95.4256 57.4667 95.4161 57.462H95.4542V57.4667Z" fill="#E7C81D"/>
<path d="M95.416 57.4619C95.416 57.4619 95.4395 57.4807 95.4488 57.4947V57.4666L95.416 57.4619Z" fill="#E7C81D"/>
<path d="M114.303 110.594L109.498 143.25C123.861 153.119 138.052 157.597 151.454 157.111H151.554C163.947 156.664 174.761 152.044 183.353 146.01C188.52 142.389 192.982 138.263 196.879 134.01C201.898 151.568 209.134 171.277 215.038 183.002C216.713 184.21 218.397 185.385 220.091 186.537C216.632 188.326 213.178 190.344 209.781 192.642C200.152 199.223 190.651 208.573 185.175 221.739C182.069 229.2 180.489 237.723 180.832 246.492C181.279 258.45 185.028 270.636 191.641 283.07C198.287 295.532 207.845 308.446 220.866 322.469C225.476 327.427 231.808 329.825 238.079 329.592C243.259 329.402 248.398 327.422 252.489 323.616C261.542 315.193 262.056 301.033 253.636 291.982C242.546 280.072 235.362 269.984 231.147 262.038C226.908 254.068 225.681 248.438 225.557 244.86C225.481 242.272 225.852 240.606 226.466 239.012C227.103 237.437 228.083 235.857 229.701 234.102C232.86 230.595 238.887 226.726 245.952 223.838C248.088 222.934 250.301 222.134 252.508 221.406C256.181 231.189 261.585 243.252 269.43 256.366C288.341 288.056 322.234 325.909 379.067 349.311C382.126 350.576 385.304 351.109 388.41 351C396.898 350.691 404.838 345.533 408.292 337.167C413.011 325.743 407.573 312.652 396.146 307.937C350.764 289.137 324.76 260.529 309.27 235.729C303.385 226.279 299.122 217.395 296.091 209.962C305.088 202.435 311.039 191.034 305.877 171.758C294.702 139.924 283.96 120.724 264.839 99.245C257.375 100.482 251.005 102.947 246.571 105.064C243.198 106.663 240.633 108.195 239.049 109.214C238.24 109.728 237.641 110.142 237.313 110.375L236.994 110.598C234.006 112.92 230.433 114.22 226.665 114.358C220.933 114.567 215.409 111.997 211.889 107.482C205.813 99.697 207.207 88.4245 214.991 82.3481L215.119 82.2529L215.2 82.191L215.528 81.9531C218.473 79.8071 223.473 76.5096 230.153 73.2406C217.455 70.0525 205.476 73.2977 197.959 79.6073C194.414 82.5812 192.226 86.6068 191.175 91.1368C190.028 93.5588 188.401 96.7564 186.289 100.301C181.702 108.076 174.737 117.155 166.926 122.542C161.688 126.177 156.412 128.252 150.498 128.485C142.387 128.752 131.283 125.621 115.944 111.874C115.421 111.398 114.864 110.989 114.294 110.608L114.303 110.594ZM206.318 131.745C216.608 145.168 229.135 161.38 238.906 178.752C236.247 179.614 233.526 180.589 230.762 181.683C230.405 179.209 230.081 176.744 229.82 174.289C220.371 161.075 212.488 146.795 206.313 131.745H206.318Z" fill="#897D4A"/>
<path d="M95.1592 113.591C95.3448 113.358 95.5255 113.12 95.7254 112.897C96.9623 111.526 98.4086 110.465 99.9643 109.69L96.5436 132.92C94.9737 131.44 93.8176 129.689 93.0659 127.805L95.1545 113.596L95.1592 113.591Z" fill="#897D4A"/>
<path d="M195.727 14.8747C209.757 32.138 207.131 57.5096 189.876 71.5372C172.616 85.5696 147.249 82.9477 133.224 65.6844C119.194 48.4164 121.82 23.0496 139.08 9.02195C156.34 -5.01044 181.707 -2.38859 195.732 14.8747H195.727Z" fill="#897D4A"/>
<path d="M237.137 106.173C236.247 106.739 235.591 107.191 235.201 107.472C235.001 107.615 234.867 107.71 234.806 107.758C228.573 112.606 219.582 111.498 214.72 105.264C209.853 99.0261 210.966 90.0233 217.203 85.1555C218.435 84.3514 239.42 67.6115 271.143 66.2506C283.132 65.7986 296.639 67.8066 310.331 74.002C324.032 80.1783 337.786 90.4563 350.731 105.807C355.841 111.85 355.075 120.886 349.028 125.992C346.483 128.143 343.405 129.251 340.317 129.365C336.073 129.522 331.801 127.79 328.842 124.293C318.209 111.712 307.971 104.384 298.542 100.116C289.098 95.8666 280.33 94.6009 272.185 94.8816C261.49 95.2575 251.875 98.5455 245.034 101.81C241.618 103.432 238.911 105.031 237.137 106.168V106.173Z" fill="#897D4A"/>
</g>
<defs>
<clipPath id="clip0_88_498">
<rect width="410" height="351" fill="white"/>
</clipPath>
</defs>
</svg>
