<svg width="149" height="51" viewBox="0 0 149 51" fill="none" xmlns="http://www.w3.org/2000/svg">
<path d="M58.8714 16.6134C57.6249 16.6134 56.4793 16.4094 55.4333 16.0021C54.388 15.5949 53.476 15.0132 52.6999 14.2598C51.9231 13.5064 51.3194 12.6293 50.8881 11.6287C50.4575 10.6294 50.2418 9.52163 50.2418 8.30671C50.2418 7.09178 50.4575 5.98399 50.8881 4.98472C51.3187 3.98407 51.9265 3.10842 52.7116 2.35364C53.4959 1.60024 54.4107 1.0199 55.4567 0.611266C56.502 0.204002 57.6489 2.67029e-05 58.8941 2.67029e-05C60.2169 2.67029e-05 61.425 0.227353 62.517 0.680632C63.6083 1.1346 64.5314 1.80834 65.2855 2.69978L63.3466 4.5232C62.747 3.89204 62.0857 3.41885 61.3631 3.10361C60.6393 2.78907 59.8632 2.63042 59.0322 2.63042C58.2011 2.63042 57.4134 2.76915 56.7128 3.04592C56.0123 3.3227 55.4052 3.71554 54.8908 4.22308C54.375 4.73061 53.9711 5.33086 53.6793 6.02314C53.386 6.71542 53.2404 7.47569 53.2404 8.30671C53.2404 9.13772 53.3867 9.89868 53.6793 10.5903C53.9711 11.2826 54.375 11.8828 54.8908 12.3903C55.4052 12.8979 56.013 13.2907 56.7128 13.5675C57.4134 13.8443 58.1853 13.983 59.0322 13.983C59.879 13.983 60.6393 13.825 61.3631 13.5098C62.0857 13.1946 62.7477 12.7138 63.3466 12.0675L65.2855 13.8896C64.5314 14.7817 63.6083 15.4589 62.517 15.9204C61.4243 16.3819 60.2093 16.6127 58.8714 16.6127V16.6134Z" fill="white"/>
<path d="M75.7605 0.232166H72.8066L65.5389 16.3826H68.6082L70.2133 12.6458H78.2914L79.8902 16.3826H83.0509L75.7605 0.232166ZM71.2242 10.2929L74.2599 3.22449L77.2839 10.2929H71.2242Z" fill="white"/>
<path d="M95.1894 11.0861C95.2711 11.0559 95.3514 11.0202 95.4297 10.9852C96.4531 10.5237 97.2415 9.86846 97.7958 9.02302C98.35 8.17759 98.6254 7.16183 98.6254 5.97644C98.6254 4.79105 98.35 3.74645 97.7958 2.88522C97.2415 2.02536 96.4538 1.36673 95.4297 0.913454C94.4078 0.460175 93.1805 0.232849 91.7506 0.232849H85.1044V16.3833H88.1043V11.6775H91.7499C91.9648 11.6775 92.1757 11.6726 92.381 11.6617L95.6729 16.384H98.9022L95.1894 11.0868V11.0861ZM94.5994 8.35341C93.9298 8.92344 92.9332 9.20708 91.6118 9.20708H88.1037V2.76915H91.6118C92.9332 2.76915 93.9298 3.05073 94.5994 3.61184C95.2677 4.17431 95.6021 4.96206 95.6021 5.97575C95.6021 6.98945 95.2677 7.78406 94.5994 8.35272V8.35341Z" fill="white"/>
<path d="M113.835 13.8456V14.0888C112.862 14.7488 111.949 15.5145 111.111 16.3826H101.97V0.232166H113.761V2.76915H104.97V6.94688H112.769V9.41519H104.97V13.8456H113.835Z" fill="white"/>
<path d="M120.198 6.94687V9.41518H128.229V6.94687H120.198ZM117.429 0.232166V12.2104C118.402 11.8375 119.407 11.5518 120.429 11.3567V2.76915H129.22V0.232166H117.429Z" fill="white"/>
<path d="M142.973 11.0861C143.054 11.0559 143.135 11.0202 143.213 10.9852C144.236 10.5237 145.025 9.86846 145.579 9.02303C146.133 8.17759 146.41 7.16183 146.41 5.97644C146.41 4.79105 146.133 3.74645 145.579 2.88522C145.025 2.02536 144.237 1.36673 143.213 0.913454C142.191 0.460175 140.964 0.232849 139.534 0.232849H132.888V13.6176C133.232 13.8278 133.57 14.0503 133.904 14.2872C134.615 14.792 135.276 15.3394 135.888 15.9245V11.6781H139.534C139.749 11.6781 139.958 11.6733 140.165 11.6623L143.457 16.3847H146.686L142.973 11.0875L142.973 11.0861ZM142.383 8.35341C141.714 8.92344 140.717 9.20708 139.396 9.20708H135.888V2.76915H139.396C140.717 2.76915 141.714 3.05073 142.383 3.61184C143.053 4.17431 143.386 4.96206 143.386 5.97575C143.386 6.98945 143.053 7.78406 142.383 8.35272V8.35341Z" fill="white"/>
<path d="M51.9163 43.1474V23.12H60.699C62.835 23.12 64.7285 23.5348 66.3789 24.3645C68.0286 25.1948 69.3108 26.3623 70.2263 27.8698C71.1418 29.3766 71.5999 31.1314 71.5999 33.134C71.5999 35.1367 71.1418 36.8914 70.2263 38.3976C69.3108 39.905 68.0279 41.0733 66.3789 41.9029C64.7285 42.7332 62.835 43.1474 60.699 43.1474H51.9163ZM55.636 39.9998H60.4703C61.9772 39.9998 63.2787 39.7141 64.3755 39.142C65.4723 38.5699 66.3301 37.7685 66.9503 36.7383C67.5705 35.7088 67.8802 34.5069 67.8802 33.134C67.8802 31.7611 67.5705 30.5112 66.9503 29.5002C66.3301 28.49 65.4723 27.6974 64.3755 27.1253C63.2787 26.5532 61.9772 26.2675 60.4703 26.2675H55.636V40.0005V39.9998Z" fill="white"/>
<path d="M85.1044 23.12H81.4424L72.4289 43.1474H76.2351L78.2261 38.5116H88.2424L90.2252 43.1474H94.1448L85.1044 23.12ZM79.4789 35.5948L83.2446 26.83L86.9945 35.5948H79.4789Z" fill="white"/>
<path d="M106.402 31.5675L104.102 35.9148V43.1467H100.411V36.07L92.5431 23.1193H96.4915L102.412 32.8662L106.283 26.4653C106.074 28.1699 106.116 29.8883 106.402 31.5668V31.5675Z" fill="white"/>
<path d="M148.545 47.5153C148.521 47.4927 148.497 47.4707 148.472 47.4494L138.167 38.7835L138.065 38.7931C143.179 31.5867 142.094 21.8494 135.888 15.9232C135.276 15.3387 134.614 14.7907 133.903 14.2859C133.57 14.0489 133.232 13.8264 132.887 13.6162C129.041 11.2633 124.595 10.56 120.428 11.356C119.406 11.5518 118.402 11.8368 117.428 12.2097C116.17 12.6918 114.963 13.3182 113.833 14.0888C112.861 14.7488 111.948 15.5145 111.11 16.3826C110.495 17.0172 109.921 17.7054 109.394 18.4471C107.646 20.9092 106.623 23.666 106.282 26.4653C106.072 28.1699 106.115 29.8883 106.401 31.5668C107.155 36.0007 109.6 40.1461 113.556 42.9537C120.57 47.9301 130.155 47.1026 136.21 40.9963C136.21 40.9963 136.216 41.0685 136.219 41.0973L146.524 49.7632C147.141 50.2872 148.065 50.2117 148.589 49.5935C148.592 49.5922 148.593 49.5887 148.597 49.5853C149.155 48.9988 149.131 48.0716 148.544 47.514L148.545 47.5153ZM125.005 43.1714C116.945 43.8685 109.848 37.8983 109.151 29.8381C108.453 21.7794 114.424 14.6808 122.483 13.9851C130.543 13.288 137.64 19.2568 138.337 27.3169C139.035 35.3771 133.066 42.4743 125.005 43.1714Z" fill="#EAC31B"/>
<path d="M38.5958 18.4121L41.8148 14.6828C42.2372 15.8957 42.5476 17.1381 42.744 18.4121H38.5951H38.5958ZM42.9755 20.8447V21.7196C42.9755 26.9454 41.0717 31.9953 37.6185 35.9169C34.1659 39.8384 29.4009 42.3706 24.217 43.0382C19.033 43.6982 13.7845 42.4475 9.45492 39.5239C5.12465 36.6002 2.00933 32.1952 0.693429 27.1377C-0.623851 22.0726 -0.0517478 16.7082 2.30191 12.0428C4.65488 7.3768 8.6287 3.73134 13.4789 1.78224C18.329 -0.166863 23.7225 -0.282243 28.6503 1.46013C33.578 3.20182 37.7009 6.68589 40.2489 11.2448H34.5292V13.6849H38.8423L34.3651 18.8729V20.8605L42.9755 20.8454V20.8447ZM22.7507 11.2448H14.1039V13.7392H16.8304V20.8454H20.0083V13.7392H22.75V11.2448H22.7507ZM33.8823 11.2448H30.6378L28.6654 17.5454L26.6785 11.2448H23.2795L26.925 20.8447H30.2113L33.883 11.2448H33.8823Z" fill="white"/>
<path d="M131.608 23.2484H127.796V21.2897C127.796 20.732 127.286 20.2774 126.663 20.2774H121.302C120.677 20.2774 120.17 20.732 120.17 21.2897V23.2484H116.352C115.531 23.2519 114.859 23.8507 114.857 24.5856V34.0667C114.857 34.805 115.528 35.4073 116.354 35.4087H131.608C132.066 35.4073 132.476 35.2225 132.75 34.9313C132.973 34.6972 133.106 34.3963 133.106 34.0681V24.5842C133.101 23.8507 132.43 23.2519 131.608 23.2484ZM126.538 23.2484H121.411V21.392H126.538V23.2484Z" fill="white"/>
</svg>
