<svg width="16" height="17" viewBox="0 0 16 17" fill="none" xmlns="http://www.w3.org/2000/svg">
<g opacity="0.1">
<path d="M7.95626 16.0389C7.95626 10.6211 5.37423 8.01812 0 8.01812C5.37423 8.01812 7.95626 5.41514 7.95626 -0.00268555C7.95626 5.41514 10.5383 8.01812 15.9125 8.01812C10.5383 8.01812 7.95626 10.6211 7.95626 16.0389Z" fill="#EAC11D"/>
</g>
<g opacity="0.1">
<path d="M7.95626 16.0389C7.95626 10.6211 5.37423 8.01812 0 8.01812C5.37423 8.01812 7.95626 5.41514 7.95626 -0.00268555C7.95626 5.41514 10.5383 8.01812 15.9125 8.01812C10.5383 8.01812 7.95626 10.6211 7.95626 16.0389Z" fill="#EAC11D"/>
</g>
<path d="M7.95627 16.0389C7.95627 10.6211 5.37423 8.01812 0 8.01812C5.37423 8.01812 7.95627 5.41514 7.95627 -0.00268555C7.95627 5.41514 10.5383 8.01812 15.9125 8.01812C10.5383 8.01812 7.95627 10.6211 7.95627 16.0389Z" fill="#EAC11D"/>
</svg>
