<?xml version="1.0" encoding="UTF-8"?>
<svg id="Layer_2" data-name="Layer 2" xmlns="http://www.w3.org/2000/svg" xmlns:xlink="http://www.w3.org/1999/xlink" viewBox="0 0 381.58 391.08">
  <defs>
    <style>
      .cls-1 {
        fill: #eb140a;
      }

      .cls-1, .cls-2, .cls-3, .cls-4, .cls-5, .cls-6, .cls-7, .cls-8, .cls-9, .cls-10 {
        stroke-width: 0px;
      }

      .cls-2 {
        fill: #a7a7a7;
      }

      .cls-3 {
        fill: #ff3f36;
      }

      .cls-4 {
        fill: none;
      }

      .cls-5 {
        fill: #dfdfdf;
      }

      .cls-6 {
        fill: #7b7b7b;
      }

      .cls-7 {
        fill: #820000;
      }

      .cls-8 {
        fill: #fff;
      }

      .cls-11 {
        clip-path: url(#clippath);
      }

      .cls-9 {
        fill: #fdc9c4;
      }

      .cls-10 {
        fill: #b80000;
      }
    </style>
    <clipPath id="clippath">
      <rect class="cls-4" width="381.58" height="391.08"/>
    </clipPath>
  </defs>
  <g id="SVG">
    <g class="cls-11">
      <g>
        <path class="cls-6" d="M265.7,118.91s27.75-9.1,50.07-30.95l.05,18.2c-12.01,10.04-28.11,15.4-28.11,15.4l-22-2.66Z"/>
        <path class="cls-2" d="M367.95,0l-.05,11.3c1.93,69,1.8,138.45-.45,207.45v-1.49l-.09,32.43,14.17-9.73V14.05l-13.58-14.05Z"/>
        <path class="cls-5" d="M367.95,11.21V0l-44.22,6.4c-3.91,11.67-9.18,37.29-58.03,62.02v50.49s27.75-9.1,50.06-30.94v157.73l51.59,4.01.09-32.43c-1.93-68.55-1.75-137.55.49-206.06Z"/>
        <path class="cls-8" d="M367.95,11.21c1.98,69.05,1.8,138.54-.49,207.54-1.98-69.05-1.8-138.54.49-207.54Z"/>
        <path class="cls-7" d="M242.32,367.84l-17.54-61.16-22.77,1.02,14.76,51.14,25.55,9.01Z"/>
        <path class="cls-7" d="M187.62,249.93l-21.82-78.82,12.41-40.9,34.1,119.72h-24.7Z"/>
        <path class="cls-3" d="M212.31,56.98l-71.52-13.56-20.87,60.17c-24.6,75.8-50.6,151.83-77.68,227.09,49.53-14.91,82.41-45.58,107.6-80.76h-7.92l36.3-119.72,11.52,40.45c23.26-64.32,22.58-113.68,22.58-113.73v.05Z"/>
        <path class="cls-1" d="M213.44,57.16l-1.12-.18s.68,49.32-22.58,113.68l22.58,79.27h-62.48c-25.19,35.18-58.07,65.85-107.6,80.76-7.29,20.18-14.57,40.36-22,60.4l85.96-9.01,20.2-70.98,98.38-4.41,17.54,61.16,61.54-6.71L213.44,57.16Z"/>
        <path class="cls-10" d="M122.03,97.12c-.45,1.44-.94,2.84-1.39,4.28l20.15-57.96-30.72,15.81L0,374.29l20.25,16.79c31.8-98.32,65.94-197.04,101.74-293.97h.05Z"/>
        <path class="cls-9" d="M122.04,97.11c-31.8,98.32-65.99,197.05-101.79,293.98,31.8-98.32,65.99-197.05,101.79-293.98h0Z"/>
      </g>
    </g>
  </g>
</svg>