<svg width="173" height="59" viewBox="0 0 173 59" fill="none" xmlns="http://www.w3.org/2000/svg">
<g clip-path="url(#clip0_89_1235)">
<path d="M0.203104 46.8108C0.700532 46.8108 1.21197 46.8108 1.72341 46.8108C1.90557 46.8108 1.93359 46.9572 1.99665 47.0688C2.62719 48.2054 3.25073 49.349 3.87427 50.4856C3.93031 50.5902 3.99337 50.7018 4.07043 50.8413C4.63092 49.8162 5.25445 48.8539 5.70985 47.8149C6.07416 46.9921 6.57159 46.6504 7.44034 46.8178C7.57345 46.8457 7.70657 46.8178 7.83968 46.8178C7.89573 46.9433 7.79764 47.006 7.75561 47.0827C6.8168 48.7493 5.87799 50.4159 4.93218 52.0755C4.8411 52.2429 4.79206 52.4033 4.79906 52.5985C4.80607 53.5957 4.79906 54.5859 4.80607 55.583C4.80607 55.8341 4.729 55.8968 4.4908 55.8829C4.16151 55.862 3.82522 55.8689 3.49594 55.8829C3.28576 55.8968 3.2227 55.8201 3.22971 55.6109C3.23672 54.6138 3.22971 53.6236 3.23672 52.6264C3.23672 52.3963 3.18767 52.201 3.07558 51.9988C2.12976 50.3392 1.19095 48.6726 0.24514 47.006C0.217116 46.9572 0.161068 46.9154 0.203104 46.8038V46.8108Z" fill="#20201E"/>
<path d="M25.4316 0.202148C25.7749 0.683297 25.9921 1.2272 26.2583 1.75019C29.0467 7.21716 31.8211 12.6841 34.6025 18.1511C37.559 23.9597 40.5086 29.7614 43.4651 35.5701C43.5212 35.6747 43.5702 35.7862 43.6473 35.9536C43.4861 35.9536 43.353 35.9536 43.2269 35.9536C40.7748 35.9536 38.3157 35.9466 35.8636 35.9606C35.5343 35.9606 35.3731 35.8629 35.219 35.5701C32.3395 30.0055 29.446 24.4409 26.5526 18.8763C24.9762 15.836 23.3998 12.8027 21.8165 9.76237C21.7955 9.72053 21.7674 9.67869 21.7114 9.58106C21.3821 10.2086 21.0668 10.7944 20.7656 11.3871C16.583 19.4411 12.3934 27.5021 8.21776 35.5561C8.07063 35.842 7.9165 35.9536 7.58021 35.9536C5.19816 35.9327 2.81611 35.9466 0.441062 35.9466C0.307947 35.9466 0.174833 35.9466 -0.00732422 35.9466C0.251899 35.4306 0.483098 34.9634 0.721303 34.4962C3.94408 28.1576 7.17386 21.812 10.3966 15.4734C12.9328 10.4876 15.469 5.50176 18.0122 0.522914C18.0542 0.439236 18.1103 0.355558 18.1593 0.27188C18.3345 0.195175 18.5236 0.216095 18.7058 0.216095C20.9477 0.209122 23.1897 0.230041 25.4316 0.202148Z" fill="#E53313"/>
<path d="M107.367 0.216357C107.809 0.920647 108.152 1.68072 108.523 2.41988C111.879 9.00953 115.228 15.6061 118.584 22.2028C120.861 26.6865 123.145 31.1703 125.422 35.654C125.464 35.7377 125.548 35.8074 125.52 35.9399C125.45 35.9399 125.38 35.9469 125.31 35.9469C122.76 35.9469 120.203 35.9469 117.652 35.9469C117.421 35.9469 117.309 35.8702 117.204 35.668C112.755 27.084 108.292 18.507 103.836 9.92998C103.78 9.82539 103.717 9.72079 103.64 9.58133C102.919 10.976 102.218 12.3218 101.517 13.6676C97.7061 21.0034 93.8878 28.3461 90.0766 35.6819C89.9925 35.8423 89.9154 35.9469 89.6982 35.9469C87.155 35.9399 84.6189 35.9469 82.0757 35.9469C82.0406 35.9469 82.0056 35.9329 81.9355 35.919C82.2999 35.1938 82.6572 34.4895 83.0145 33.7782C85.6487 28.5972 88.29 23.4091 90.9243 18.2281C93.9229 12.3357 96.9215 6.43643 99.92 0.544096C99.9551 0.481337 99.9971 0.418579 100.039 0.362794C100.193 0.209384 100.389 0.216357 100.593 0.216357C102.856 0.216357 105.112 0.216357 107.374 0.216357H107.367Z" fill="#E53313"/>
<path d="M132.68 22.8371C132.463 22.5582 132.428 22.2096 132.33 21.8888C131.447 19.0925 130.579 16.2963 129.71 13.5001C129.689 13.4303 129.64 13.3676 129.696 13.263C130.06 13.263 130.439 13.2699 130.824 13.263C131.041 13.256 131.048 13.4094 131.09 13.5489C131.819 15.9058 132.54 18.2558 133.269 20.6127C133.297 20.7033 133.297 20.8079 133.395 20.8916C133.773 19.6713 134.152 18.465 134.537 17.2586C134.929 16.0174 135.329 14.7831 135.707 13.5419C135.77 13.3257 135.868 13.2142 136.092 13.2699C136.352 13.3327 136.695 13.0747 136.842 13.5558C137.564 15.9267 138.313 18.2837 139.056 20.6476C139.084 20.7243 139.112 20.8079 139.161 20.9404C139.602 19.5109 140.03 18.1372 140.45 16.7565C140.779 15.6896 141.116 14.6297 141.431 13.5558C141.501 13.3257 141.606 13.2351 141.844 13.263C142.16 13.2978 142.573 13.1375 142.748 13.3397C142.86 13.4722 142.629 13.8975 142.538 14.1904C141.669 16.9866 140.793 19.7829 139.918 22.5791C139.89 22.6628 139.904 22.7814 139.799 22.8302C139.35 22.8092 138.902 22.879 138.46 22.7744C137.753 20.536 137.038 18.2976 136.331 16.0592C136.31 15.9965 136.289 15.9337 136.247 15.7942C135.861 17.0285 135.504 18.193 135.14 19.3506C134.775 20.4942 134.404 21.6308 134.04 22.7674C133.598 22.879 133.143 22.7883 132.694 22.8302L132.68 22.8371Z" fill="#E53413"/>
<path d="M136.31 0.216283C136.653 0.0907657 137.01 0.195363 137.36 0.160497C137.473 0.153524 137.508 0.223256 137.501 0.327854C137.501 0.390612 137.501 0.453371 137.501 0.509156C137.501 3.47973 137.501 6.4503 137.501 9.42087C137.501 9.68585 137.445 9.74861 137.164 9.78347C136.513 9.86018 136.127 9.60914 135.742 9.08616C134.075 6.80593 132.344 4.56754 130.628 2.30126C130.551 2.41283 130.586 2.54532 130.586 2.66387C130.586 4.90923 130.586 7.15459 130.614 9.39995C130.614 9.71374 130.523 9.78347 130.221 9.7765C129.353 9.75558 129.353 9.7765 129.353 8.92577C129.353 6.14348 129.353 3.35421 129.353 0.571915C129.353 0.272068 129.395 0.174444 129.745 0.146551C130.354 0.0977389 130.719 0.306934 131.076 0.802029C132.722 3.05436 134.418 5.26486 136.099 7.4893C136.141 7.54509 136.148 7.74731 136.31 7.58693C136.38 7.18248 136.317 6.78501 136.31 6.38057C136.296 4.44202 136.31 2.51046 136.303 0.571915C136.303 0.3418 136.38 0.230229 136.625 0.251149C136.758 0.265095 136.891 0.251149 137.017 0.251149C136.786 0.223256 136.541 0.292988 136.303 0.20931L136.31 0.216283Z" fill="#E53413"/>
<path d="M171.69 35.9326C171.347 35.9326 170.996 35.9326 170.653 35.9326C170.548 35.8071 170.583 35.6537 170.583 35.5073C170.583 33.6315 170.583 31.7557 170.583 29.8799C170.583 29.4894 170.688 29.1059 170.583 28.7154C170.576 28.6526 170.569 28.5969 170.555 28.4783C169.413 30.11 168.299 31.7069 167.164 33.3386C167.003 33.1225 166.87 32.9411 166.744 32.7529C165.805 31.4071 164.873 30.0543 163.927 28.7084C163.885 28.6526 163.892 28.4435 163.717 28.569C163.717 29.3988 163.717 30.2286 163.717 31.0584C163.717 32.5088 163.717 33.9523 163.717 35.4027C163.717 35.835 163.696 35.8629 163.262 35.8559C163.066 35.8559 162.869 35.8978 162.68 35.8071C162.575 35.6746 162.617 35.5282 162.617 35.3818C162.617 32.5367 162.617 29.6986 162.617 26.8536C162.617 26.3933 162.617 26.3864 163.087 26.4003C163.353 26.4003 163.633 26.3376 163.878 26.4979C164.908 27.9484 165.931 29.4057 166.961 30.8562C167.031 30.9538 167.101 31.0514 167.171 31.156C167.311 31.1072 167.353 30.9817 167.423 30.8841C168.397 29.4964 169.371 28.1087 170.345 26.7211C170.429 26.6025 170.527 26.491 170.618 26.3794C170.912 26.4143 171.207 26.4003 171.501 26.3933C171.704 26.3933 171.802 26.4631 171.795 26.6653C171.795 26.742 171.795 26.8117 171.795 26.8884C171.795 29.7474 171.795 32.6064 171.795 35.4654C171.795 35.6188 171.837 35.7862 171.725 35.9257L171.69 35.9326Z" fill="#E53413"/>
<path d="M52.9235 49.7258C53.47 49.7258 53.9604 49.7398 54.4508 49.7258C54.647 49.7258 54.696 49.8304 54.7591 49.9699C55.3406 51.2251 55.9221 52.4802 56.5036 53.7354C56.5666 53.8679 56.6297 54.0004 56.7138 54.1817C57.0501 53.2473 57.3723 52.3687 57.6946 51.4831C57.8768 50.974 58.0729 50.472 58.2411 49.9629C58.3041 49.7746 58.3952 49.7188 58.5844 49.7258C58.9627 49.7398 59.348 49.7467 59.7334 49.7258C59.9996 49.7119 60.0136 49.7816 59.9225 50.0117C59.1659 51.8945 58.4162 53.7912 57.6596 55.6739C57.4284 56.2527 57.2112 56.8385 56.959 57.4103C56.2724 58.9792 54.71 59.4464 53.3088 58.5399C53.0987 58.4004 53.0636 58.2889 53.2108 58.0797C53.4139 57.7868 53.5821 57.473 53.7642 57.1801C53.7993 57.1801 53.8273 57.1662 53.8413 57.1801C54.703 57.8077 55.2075 57.6473 55.6489 56.685C55.859 56.2248 55.845 55.8483 55.6208 55.388C54.7311 53.6099 53.8973 51.8108 53.0356 50.0257C53.0006 49.949 52.9726 49.8723 52.9165 49.7398L52.9235 49.7258Z" fill="#20201E"/>
<path d="M163.472 2.07815C162.701 1.58306 161.916 1.29716 161.055 1.20651C160.62 1.16467 160.193 1.17861 159.78 1.32505C159.226 1.5203 158.897 1.89685 158.848 2.4826C158.799 3.08229 159.044 3.52857 159.583 3.81447C160.053 4.06551 160.578 4.17708 161.083 4.32351C161.524 4.44903 161.958 4.58152 162.372 4.77677C163.472 5.29278 163.969 6.10864 163.913 7.30106C163.857 8.43071 163.227 9.3163 162.127 9.67891C160.676 10.1601 159.282 9.89508 157.937 9.24657C157.832 9.19776 157.769 9.12803 157.769 8.99554C157.776 8.60504 157.769 8.22151 157.769 7.77523C158.266 8.096 158.736 8.354 159.254 8.50741C159.948 8.71661 160.648 8.82818 161.37 8.67477C162.316 8.47255 162.806 7.72642 162.603 6.82688C162.505 6.40849 162.239 6.14351 161.874 5.94826C161.412 5.7042 160.908 5.58566 160.41 5.44619C159.878 5.29278 159.345 5.1324 158.855 4.86742C157.937 4.37232 157.531 3.59133 157.58 2.5593C157.629 1.55516 158.063 0.767195 159.002 0.369724C160.473 -0.257861 161.916 -0.0277463 163.318 0.641678C163.451 0.704437 163.479 0.802061 163.479 0.934551C163.472 1.29018 163.479 1.64581 163.479 2.07118L163.472 2.07815Z" fill="#E53413"/>
<path d="M171.395 22.83C170.723 22.2024 170.148 21.4842 169.525 20.8148C168.74 19.964 167.977 19.1063 167.199 18.2556C167.122 18.165 167.024 18.0883 166.877 17.9488V22.7603C166.708 22.7254 166.772 22.586 166.772 22.4953C166.772 21.0867 166.772 19.6712 166.772 18.2626C166.772 19.6572 166.764 21.0449 166.772 22.4395C166.772 22.7394 166.687 22.844 166.379 22.844C165.7 22.844 165.7 22.8509 165.7 22.1536C165.7 19.4062 165.7 16.6588 165.7 13.9044C165.7 13.7231 165.602 13.4581 165.826 13.3744C166.085 13.2768 166.386 13.2977 166.659 13.3744C166.814 13.4162 166.757 13.5766 166.765 13.6952C166.765 14.8527 166.765 16.0103 166.765 17.1678C166.765 16.0312 166.765 14.8876 166.765 13.7509C166.765 13.6394 166.666 13.472 166.863 13.4093V17.5513C167.052 17.5304 167.122 17.3909 167.213 17.2933C168.439 16.0312 169.658 14.7621 170.87 13.4929C171.031 13.3256 171.185 13.2559 171.417 13.2698C171.809 13.2907 172.201 13.2698 172.685 13.2698C172.201 13.7649 171.774 14.2112 171.346 14.6575C170.422 15.6128 169.497 16.5681 168.565 17.5095C168.39 17.6908 168.397 17.7954 168.565 17.9767C169.945 19.469 171.304 20.9682 172.678 22.4674C172.741 22.5371 172.797 22.6208 172.86 22.6975C172.783 22.8649 172.622 22.837 172.481 22.844C172.117 22.844 171.753 22.844 171.388 22.844L171.395 22.83Z" fill="#E53413"/>
<path d="M143.042 9.7276C142.79 9.37895 142.692 8.95358 142.538 8.56308C141.501 5.90631 140.471 3.23558 139.441 0.57183C139.334 0.297552 139.434 0.160413 139.742 0.160413C140.354 0.160413 140.768 0.446313 140.982 1.01811C141.844 3.29834 142.706 5.57857 143.568 7.86577C143.589 7.92155 143.624 7.97037 143.659 8.04707C144.219 6.58968 144.766 5.16018 145.319 3.73765C145.739 2.64286 146.174 1.54807 146.58 0.43934C146.664 0.216199 146.776 0.139494 147.008 0.15344C147.323 0.17436 147.638 0.15344 148.002 0.15344C147.694 0.948382 147.407 1.69451 147.113 2.44761C146.216 4.76968 145.326 7.09175 144.429 9.41381C144.394 9.51144 144.387 9.62998 144.282 9.69971C143.862 9.7276 143.441 9.69971 143.028 9.72063L143.042 9.7276Z" fill="#E53413"/>
<path d="M155.338 0.209259C155.443 0.530025 155.38 0.857764 155.38 1.1855C155.38 1.40864 155.177 1.31799 155.064 1.31799C153.866 1.31799 152.668 1.33891 151.477 1.31799C151.134 1.31102 151.071 1.41562 151.085 1.72941C151.106 2.44067 151.106 3.15194 151.085 3.8632C151.078 4.14213 151.141 4.23975 151.442 4.23278C152.451 4.21186 153.467 4.23278 154.476 4.21883C154.749 4.21883 154.868 4.2537 154.854 4.57446C154.833 5.32757 154.854 5.32757 154.077 5.32757C153.18 5.32757 152.276 5.32757 151.379 5.32757C151.155 5.32757 151.078 5.38335 151.085 5.61347C151.099 6.51998 151.099 7.42649 151.085 8.33998C151.085 8.57009 151.148 8.62588 151.372 8.62588C152.633 8.61193 153.887 8.62588 155.148 8.61193C155.415 8.61193 155.534 8.66074 155.499 8.94664C155.471 9.17676 155.485 9.41385 155.478 9.64396C155.373 9.73461 155.247 9.71369 155.127 9.71369C153.502 9.71369 151.877 9.71369 150.251 9.71369C150.139 9.71369 150.027 9.72764 149.929 9.66488C149.831 9.54634 149.866 9.40687 149.866 9.27438C149.866 6.41538 149.866 3.56335 149.866 0.704354C149.866 0.230178 149.88 0.216232 150.37 0.209259C151.877 0.209259 153.376 0.209259 154.882 0.209259C155.31 0.209259 155.31 0.209259 155.31 0.641595C155.31 1.2901 155.394 1.19248 154.735 1.19945C153.684 1.19945 152.626 1.19945 151.575 1.19945C152.675 1.19945 153.768 1.19945 154.868 1.19945C155.373 1.19945 155.303 1.24826 155.317 0.73922C155.317 0.557917 155.268 0.369642 155.352 0.195312L155.338 0.209259Z" fill="#E53413"/>
<path d="M140.366 55.0674C139.217 56.5457 137.389 56.0855 136.73 55.1092C136.471 54.7257 136.317 54.3073 136.31 53.8401C136.31 52.564 136.31 51.2879 136.31 50.0118C136.31 49.7817 136.366 49.712 136.597 49.7259C136.919 49.7468 137.241 49.7468 137.557 49.7259C137.816 49.705 137.886 49.7887 137.886 50.0467C137.872 51.1136 137.879 52.1805 137.886 53.2474C137.886 53.9377 138.089 54.3073 138.559 54.4747C139.126 54.6838 139.715 54.5235 140.135 54.0563C140.275 53.9028 140.331 53.7355 140.324 53.5263C140.317 52.3618 140.324 51.1973 140.317 50.0327C140.317 49.7957 140.373 49.705 140.618 49.7259C141.032 49.7678 141.585 49.5516 141.823 49.8096C142.026 50.0397 141.886 50.5766 141.886 50.9811C141.886 52.4873 141.879 54.0005 141.893 55.5067C141.893 55.8205 141.802 55.9251 141.501 55.8763C141.431 55.8623 141.354 55.8763 141.277 55.8763C141.011 55.8763 140.681 55.953 140.485 55.8344C140.282 55.7159 140.471 55.3602 140.38 55.0743L140.366 55.0674Z" fill="#20201E"/>
<path d="M19.5821 55.0603C19.0146 55.7436 18.377 56.0993 17.5223 56.0086C16.4013 55.8831 15.5676 55.0812 15.5256 53.9585C15.4765 52.6196 15.5116 51.2808 15.4976 49.9489C15.4976 49.7537 15.5816 49.7328 15.7428 49.7328C16.0861 49.7397 16.4364 49.7537 16.7797 49.7328C17.0249 49.7188 17.0879 49.7955 17.0879 50.0396C17.0739 51.1065 17.0879 52.1734 17.0879 53.2403C17.0879 53.7702 17.172 54.2514 17.7465 54.4745C18.314 54.6977 18.8815 54.5373 19.3229 54.0701C19.463 53.9167 19.519 53.7493 19.512 53.5401C19.505 52.3756 19.512 51.2111 19.505 50.0396C19.505 49.8025 19.5541 49.7049 19.8063 49.7328C20.2196 49.7746 20.7731 49.5584 21.0113 49.8164C21.2145 50.0396 21.0744 50.5835 21.0744 50.9879C21.0744 52.4872 21.0603 53.9864 21.0884 55.4786C21.0884 55.8343 20.9833 55.9319 20.661 55.8831C20.5769 55.8691 20.4859 55.8831 20.4018 55.8831C19.888 55.8831 19.6218 55.6111 19.6031 55.0672L19.5821 55.0603Z" fill="#20201E"/>
<path d="M144.478 53.777C144.815 54.0629 145.158 54.3209 145.557 54.4883C146.048 54.6905 146.545 54.6975 147.043 54.5511C147.274 54.4883 147.498 54.3767 147.498 54.0908C147.498 53.8049 147.295 53.6934 147.057 53.6236C146.65 53.519 146.244 53.4214 145.838 53.3168C145.466 53.2192 145.109 53.0867 144.787 52.8705C143.785 52.1941 143.715 50.9599 144.654 50.1928C145.375 49.6001 146.237 49.4955 147.134 49.5931C147.701 49.6559 148.227 49.8581 148.724 50.151C148.913 50.2626 148.997 50.3532 148.822 50.5554C148.64 50.7716 148.486 51.0087 148.346 51.2527C148.234 51.448 148.135 51.455 147.946 51.3364C147.484 51.0296 146.958 50.9041 146.398 50.9599C146.202 50.9808 146.006 51.0226 145.831 51.1133C145.655 51.2039 145.529 51.3295 145.543 51.5456C145.557 51.7478 145.697 51.8524 145.866 51.9013C146.265 52.0198 146.678 52.1035 147.078 52.215C147.337 52.2848 147.603 52.3475 147.855 52.4382C148.584 52.6962 149.032 53.1913 149.067 53.9793C149.109 54.7254 148.738 55.2554 148.1 55.5901C146.895 56.2176 145.683 56.1409 144.485 55.5622C144.205 55.4297 143.96 55.2484 143.729 55.0462C143.61 54.9485 143.603 54.8649 143.708 54.7463C143.967 54.4325 144.205 54.1117 144.464 53.784L144.478 53.777Z" fill="#20201E"/>
<path d="M47.1435 53.7773C47.774 54.3212 48.4186 54.7326 49.2663 54.642C49.4625 54.621 49.6586 54.5862 49.8408 54.5095C50.037 54.4258 50.1771 54.3003 50.1631 54.0702C50.1491 53.861 50.023 53.7355 49.8268 53.6797C49.4975 53.582 49.1612 53.5053 48.8249 53.4217C48.3485 53.3031 47.8721 53.1706 47.4587 52.8917C46.4429 52.2083 46.3728 50.9462 47.3467 50.1931C48.2084 49.5237 49.2032 49.4679 50.2331 49.691C50.6815 49.7886 51.0949 49.9769 51.4872 50.221C51.6273 50.3046 51.6343 50.3744 51.5433 50.5069C51.3611 50.7509 51.179 51.002 51.0248 51.2669C50.9127 51.4482 50.8216 51.4831 50.6255 51.3576C50.079 51.002 49.4765 50.8764 48.8249 51.0229C48.7268 51.0438 48.6358 51.0787 48.5447 51.1135C48.3555 51.1972 48.2084 51.3227 48.2224 51.5598C48.2364 51.783 48.3976 51.8806 48.5797 51.9364C48.972 52.0479 49.3644 52.1386 49.7567 52.2362C50.065 52.3129 50.3803 52.3827 50.6745 52.5082C51.3401 52.7871 51.7184 53.2752 51.7534 53.9935C51.7955 54.6699 51.4872 55.1928 50.9197 55.5276C49.6937 56.2528 48.4326 56.1761 47.1785 55.5764C46.8983 55.4439 46.6531 55.2626 46.4148 55.0604C46.3028 54.9627 46.2817 54.886 46.3868 54.7605C46.646 54.4467 46.8843 54.1259 47.1505 53.7912L47.1435 53.7773Z" fill="#20201E"/>
<path d="M102.4 56.0157C101.615 56.0087 100.796 55.6949 100.067 55.1162C99.8919 54.9767 99.8288 54.8721 100.011 54.6769C100.221 54.4537 100.403 54.2027 100.571 53.9517C100.684 53.7843 100.761 53.7982 100.901 53.9168C101.454 54.3979 102.078 54.7187 102.848 54.635C103.059 54.6141 103.262 54.5723 103.451 54.4816C103.612 54.4049 103.738 54.2864 103.731 54.0841C103.731 53.8749 103.619 53.7285 103.423 53.6727C103.066 53.5681 102.708 53.4845 102.351 53.3938C101.826 53.2543 101.307 53.1079 100.873 52.7662C100.018 52.0828 99.997 50.9323 100.859 50.228C101.713 49.5237 102.722 49.4609 103.766 49.6701C104.18 49.7538 104.558 49.9281 104.929 50.1304C105.153 50.2559 105.251 50.3535 105.041 50.5906C104.866 50.7928 104.712 51.0229 104.586 51.26C104.474 51.4692 104.369 51.4553 104.187 51.3367C103.598 50.9671 102.961 50.8416 102.281 51.0369C102.036 51.1066 101.798 51.2112 101.791 51.511C101.791 51.8109 102.029 51.8876 102.26 51.9434C102.82 52.0898 103.388 52.2084 103.941 52.3687C104.901 52.6546 105.336 53.2404 105.322 54.1608C105.315 54.7257 105.02 55.1301 104.586 55.4509C104.074 55.8274 103.248 56.0506 102.407 56.0087L102.4 56.0157Z" fill="#20201E"/>
<path d="M93.86 53.7773C94.1963 54.0632 94.5396 54.3212 94.9389 54.4886C95.4503 54.7048 95.9688 54.7048 96.4872 54.5304C96.6974 54.4607 96.8726 54.3491 96.8796 54.0981C96.8796 53.8261 96.7044 53.7006 96.4802 53.6379C95.9968 53.5054 95.5064 53.3868 95.016 53.2543C94.6937 53.1637 94.3924 53.0312 94.1192 52.8359C93.1804 52.1665 93.1173 50.9602 94.0071 50.228C94.8688 49.5237 95.8707 49.4609 96.9146 49.6701C97.335 49.7538 97.7343 49.9351 98.1056 50.1513C98.2878 50.2559 98.3859 50.3465 98.2107 50.5557C98.0216 50.7789 97.8674 51.0369 97.7133 51.2809C97.6152 51.4343 97.5381 51.4622 97.377 51.3507C96.9006 51.0369 96.3751 50.8974 95.7936 50.9532C95.5975 50.9741 95.4083 51.0229 95.2261 51.1066C95.051 51.1973 94.9249 51.3228 94.9389 51.5389C94.9529 51.7412 95.093 51.8527 95.2612 51.9015C95.6605 52.0131 96.0669 52.1107 96.4802 52.2084C96.7955 52.2851 97.1038 52.3618 97.398 52.4873C98.0286 52.7523 98.4139 53.2125 98.4699 53.9028C98.533 54.5932 98.2317 55.1162 97.6713 55.4927C96.4102 56.3435 94.2033 56.1133 93.1313 55.0395C93.0263 54.9349 93.0052 54.8651 93.1033 54.7396C93.3625 54.4258 93.6008 54.1051 93.86 53.7704V53.7773Z" fill="#20201E"/>
<path d="M147.554 26.4424C147.554 26.7632 147.554 27.084 147.554 27.3978C147.386 27.4675 147.218 27.4326 147.05 27.4326C145.887 27.4326 144.717 27.4326 143.554 27.4326C143.435 27.4326 143.308 27.3838 143.203 27.4745C143.14 27.5442 143.147 27.6279 143.147 27.7185C143.147 28.5762 143.154 29.4339 143.147 30.2986C143.147 30.5287 143.217 30.5845 143.442 30.5845C144.527 30.5705 145.613 30.5915 146.699 30.5705C147.001 30.5705 147.099 30.6542 147.05 30.9401C147.008 31.1842 147.134 31.4422 146.973 31.6723C146.903 31.4561 146.931 31.233 146.945 31.0168C146.966 30.7449 146.882 30.6612 146.601 30.6682C145.592 30.6891 144.584 30.6751 143.575 30.6682C143.477 30.6682 143.379 30.6891 143.343 30.6682C143.96 30.6682 144.633 30.6682 145.312 30.6682C145.768 30.6682 146.223 30.6751 146.678 30.6682C146.896 30.6682 146.966 30.7379 146.945 30.9471C146.917 31.1912 146.987 31.4352 146.91 31.6723C145.803 31.6723 144.696 31.7002 143.589 31.6862C143.266 31.6862 143.147 31.749 143.154 32.1046C143.182 33.2831 143.154 34.4546 143.168 35.6331C143.168 35.898 143.091 35.9748 142.839 35.9538C142.538 35.919 142.145 36.0793 141.949 35.8911C141.753 35.7028 141.893 35.3123 141.886 35.0055C141.886 32.2441 141.886 29.4897 141.886 26.7283C141.886 26.6098 141.802 26.4633 141.949 26.3657C142.082 26.4215 142.215 26.3936 142.349 26.3936C143.953 26.3936 145.564 26.3936 147.169 26.3936C147.302 26.3936 147.442 26.3587 147.568 26.4285L147.554 26.4424Z" fill="#E53413"/>
<path d="M172.587 1.24832C172.503 1.39476 172.37 1.31805 172.257 1.31805C171.459 1.32502 170.653 1.34594 169.854 1.31805C169.448 1.29713 169.385 1.4366 169.385 1.80617C169.399 4.32349 169.385 6.8408 169.399 9.35812C169.399 9.67888 169.35 9.8044 168.986 9.79045C168.117 9.76256 168.117 9.78348 168.117 8.89789C168.117 6.49214 168.117 4.0864 168.117 1.68066C168.117 1.41568 168.061 1.31805 167.774 1.32502C166.926 1.34594 166.071 1.32502 165.223 1.33897C164.964 1.33897 164.859 1.3041 164.866 1.00426C164.88 0.167478 164.866 0.167478 165.714 0.167478C167.886 0.167478 170.058 0.167478 172.229 0.167478C172.341 0.167478 172.475 0.104719 172.573 0.223263C172.447 0.292995 172.306 0.258129 172.173 0.258129C169.931 0.258129 167.689 0.258129 165.448 0.258129C164.992 0.258129 164.992 0.258129 164.985 0.711385C164.985 0.815983 165.013 0.927554 164.971 1.03215C165.02 1.00426 164.992 0.948473 164.992 0.906634C164.992 0.478946 165.205 0.265102 165.63 0.265102C167.809 0.265102 169.994 0.265102 172.173 0.265102C172.454 0.265102 172.559 0.327861 172.552 0.627707C172.531 1.2274 172.552 1.2274 171.935 1.2274C171.221 1.2274 170.513 1.2274 169.735 1.2274C169.749 1.2274 169.819 1.29016 169.798 1.24832C169.798 1.23437 169.798 1.2274 169.826 1.23437C170.744 1.26227 171.669 1.18556 172.594 1.27621L172.587 1.24832Z" fill="#E53413"/>
<path d="M81.8794 49.5724C82.7832 49.5724 83.5539 49.8932 84.2194 50.5068C84.3736 50.6532 84.4366 50.7578 84.2194 50.8973C84.1564 50.9391 84.1073 50.9949 84.0513 51.0437C83.8411 51.232 83.659 51.49 83.4067 51.5877C83.1195 51.6992 82.9654 51.3366 82.7201 51.225C81.8934 50.8415 80.9266 51.0647 80.4502 51.7829C79.9528 52.543 80.0999 53.6308 80.7795 54.1886C81.4591 54.7395 82.538 54.6977 83.1685 54.0422C83.3787 53.8191 83.4698 53.8609 83.6379 54.0492C83.8201 54.2584 84.0233 54.4676 84.2335 54.6489C84.3946 54.7883 84.4226 54.879 84.2545 55.0463C83.2316 56.0853 81.5011 56.3224 80.198 55.5833C78.9159 54.8581 78.2923 53.3867 78.6566 51.9642C79.021 50.5626 80.3521 49.5724 81.8724 49.5654L81.8794 49.5724Z" fill="#20201E"/>
<path d="M75.2938 49.5721C75.8473 49.5791 76.6179 49.8998 77.2765 50.5135C77.4516 50.6808 77.4446 50.7715 77.2555 50.897C77.1714 50.9528 77.1083 51.0295 77.0383 51.0922C76.8421 51.2666 76.674 51.4967 76.4498 51.5873C76.1765 51.6919 76.0434 51.3503 75.8262 51.2387C74.9925 50.8273 74.0047 51.0295 73.5213 51.7547C73.0168 52.5217 73.1499 53.5817 73.8365 54.1604C74.4951 54.7183 75.595 54.6765 76.2256 54.0279C76.4288 53.8257 76.5198 53.8188 76.695 54.0279C76.8491 54.2162 77.0243 54.3975 77.2134 54.5509C77.5147 54.788 77.4236 54.9484 77.1784 55.1646C76.0785 56.1338 74.418 56.2873 73.1569 55.5132C71.9169 54.7532 71.3354 53.2818 71.7277 51.9081C72.127 50.5065 73.4302 49.5512 75.2938 49.5581V49.5721Z" fill="#20201E"/>
<path d="M111.312 52.6684C111.312 52.236 111.305 51.8107 111.312 51.3783C111.312 51.19 111.27 51.0924 111.067 51.1273C111.046 51.1273 111.018 51.1273 110.99 51.1273C110.702 51.0994 110.219 51.2458 110.156 51.0715C110.023 50.7019 110.107 50.2556 110.1 49.8373C110.1 49.7675 110.149 49.7327 110.219 49.7257C110.296 49.7257 110.366 49.7257 110.443 49.7257C111.305 49.7257 111.298 49.7257 111.305 48.8819C111.305 48.5681 111.165 48.1497 111.375 47.9684C111.557 47.815 111.963 47.9196 112.272 47.9127C112.874 47.9127 112.874 47.9127 112.874 48.4984C112.874 48.8331 112.881 49.1609 112.874 49.4956C112.874 49.6699 112.923 49.7327 113.105 49.7257C113.547 49.7117 113.995 49.7396 114.437 49.7187C114.689 49.7048 114.759 49.7884 114.738 50.0325C114.717 50.2905 114.717 50.5485 114.738 50.8065C114.759 51.0576 114.696 51.1482 114.423 51.1343C113.995 51.1064 113.561 51.1343 113.126 51.1273C112.937 51.1273 112.867 51.1691 112.867 51.3713C112.881 52.1314 112.853 52.8915 112.881 53.6516C112.909 54.4395 113.407 54.7394 114.135 54.4326C114.297 54.3628 114.36 54.3698 114.43 54.5441C114.549 54.851 114.696 55.1508 114.843 55.4437C114.92 55.5971 114.871 55.6529 114.731 55.7156C113.014 56.5245 111.263 55.6738 111.305 53.7353C111.312 53.3796 111.305 53.024 111.305 52.6684H111.312Z" fill="#20201E"/>
<path d="M151.639 52.7663C151.639 52.2502 151.625 51.8319 151.639 51.4204C151.653 51.1624 151.555 51.0927 151.323 51.1276C151.309 51.1276 151.295 51.1276 151.288 51.1276C151.008 51.1066 150.63 51.2531 150.483 51.0648C150.343 50.8905 150.441 50.5279 150.434 50.2489C150.434 50.1513 150.441 50.0537 150.434 49.9561C150.413 49.7817 150.483 49.712 150.665 49.726C150.91 49.7399 151.155 49.719 151.4 49.7329C151.604 49.7469 151.646 49.6702 151.646 49.4819C151.632 49.0496 151.646 48.6242 151.639 48.1919C151.639 47.9966 151.667 47.899 151.898 47.9129C152.255 47.9269 152.613 47.9269 152.97 47.9129C153.166 47.906 153.222 47.9687 153.215 48.164C153.201 48.5963 153.222 49.0217 153.208 49.454C153.194 49.6911 153.285 49.7469 153.502 49.7399C153.93 49.726 154.364 49.7399 154.798 49.7329C155.002 49.7329 155.086 49.7748 155.072 49.9979C155.051 50.3605 155.198 50.8417 155.016 51.0648C154.826 51.2949 154.322 51.1276 153.958 51.1345C153.215 51.1485 153.215 51.1345 153.215 51.8807C153.215 52.4664 153.201 53.0591 153.215 53.6449C153.229 54.4328 153.726 54.7536 154.455 54.4468C154.637 54.3701 154.7 54.391 154.77 54.5723C154.882 54.8722 155.023 55.1581 155.163 55.444C155.212 55.5555 155.247 55.6392 155.1 55.7089C153.944 56.2947 152.199 56.1831 151.73 54.5165C151.562 53.9168 151.681 53.2962 151.646 52.7802L151.639 52.7663Z" fill="#20201E"/>
<path d="M155.779 26.3726C155.94 26.4632 155.849 26.6166 155.849 26.7282C155.849 29.2943 155.863 31.8535 155.849 34.4196C155.849 34.7334 155.94 34.8031 156.241 34.7962C157.51 34.7822 158.778 34.7962 160.046 34.7822C160.312 34.7822 160.438 34.8171 160.431 35.1309C160.41 35.9467 160.431 35.9467 159.597 35.9467C158.021 35.9467 156.445 35.9467 154.868 35.9467C154.644 35.9467 154.574 35.8979 154.581 35.6678C154.588 32.6275 154.581 29.5872 154.581 26.5469C154.581 26.512 154.588 26.4772 154.595 26.4353C154.707 26.4353 154.7 26.512 154.7 26.5887C154.7 29.4965 154.7 32.4044 154.7 35.3122C154.7 35.3331 154.686 35.354 154.665 35.3749C154.672 35.3749 154.679 35.3749 154.707 35.3749C154.707 32.5229 154.707 29.6778 154.707 26.8258C154.707 26.5422 154.845 26.4005 155.121 26.4005C155.536 26.4005 155.744 26.6073 155.744 27.0211C155.744 29.4408 155.744 31.8535 155.744 34.2732C155.744 34.3917 155.779 34.5172 155.716 34.6288C155.8 34.5591 155.751 34.4684 155.751 34.3917C155.751 31.8535 155.751 29.3083 155.751 26.77C155.751 26.6375 155.716 26.4981 155.786 26.3726H155.779Z" fill="#E53413"/>
<path d="M158.4 50.5487C159.051 49.6143 159.878 49.4051 160.873 49.691C161.083 49.7538 161.139 49.8235 161.027 50.0118C160.964 50.1164 160.936 50.2349 160.887 50.3535C160.789 50.5906 160.747 50.8765 160.592 51.0578C160.403 51.2809 160.137 51.0159 159.892 51.0229C159.31 51.0369 158.883 51.2949 158.533 51.7272C158.442 51.8458 158.449 51.9782 158.449 52.1107C158.449 53.2613 158.449 54.4189 158.449 55.5694C158.449 55.8065 158.393 55.9041 158.14 55.8762C157.727 55.8344 157.174 56.0506 156.935 55.7926C156.732 55.5694 156.872 55.0255 156.872 54.6211C156.872 53.1009 156.879 51.5808 156.865 50.0606C156.865 49.7747 156.942 49.6841 157.216 49.7259C157.335 49.7399 157.461 49.7259 157.587 49.7259C158.091 49.7259 158.358 49.9979 158.386 50.5418L158.4 50.5487Z" fill="#20201E"/>
<path d="M24.7732 50.5766C25.4388 49.6283 26.2515 49.4121 27.2393 49.684C27.4495 49.7398 27.5266 49.8026 27.4215 50.0257C27.2814 50.3116 27.1693 50.6115 27.0712 50.9113C27.0081 51.1066 26.9381 51.1693 26.7069 51.1066C26.2935 50.9811 25.8802 51.0089 25.4948 51.2321C25.0675 51.4831 24.8082 51.7899 24.8293 52.3478C24.8713 53.4147 24.8293 54.4816 24.8503 55.5485C24.8503 55.7925 24.8082 55.9041 24.535 55.8832C24.2197 55.8553 23.8975 55.8692 23.5752 55.8832C23.365 55.8902 23.2739 55.8553 23.2739 55.6112C23.2879 53.7355 23.2809 51.8597 23.2739 49.9839C23.2739 49.7956 23.323 49.7189 23.5191 49.7329C23.8484 49.7468 24.1847 49.7538 24.514 49.7329C24.7452 49.7189 24.7872 49.8165 24.7732 50.0118C24.7592 50.1652 24.7732 50.3186 24.7732 50.5836V50.5766Z" fill="#20201E"/>
<path d="M162.68 52.8147C162.68 51.8943 162.687 50.9738 162.68 50.0603C162.68 49.8163 162.722 49.7047 162.995 49.7256C163.339 49.7535 163.682 49.7396 164.032 49.7256C164.215 49.7256 164.264 49.7814 164.264 49.9557C164.264 51.8524 164.264 53.7561 164.264 55.6528C164.264 55.8411 164.193 55.8829 164.025 55.876C163.668 55.869 163.311 55.862 162.953 55.876C162.743 55.8829 162.68 55.8132 162.687 55.604C162.701 54.6696 162.687 53.7422 162.687 52.8078L162.68 52.8147Z" fill="#20201E"/>
<path d="M65.9688 14.6436C66.0248 14.6505 66.0879 14.6575 66.1439 14.6645C65.7516 14.8179 65.3452 14.8737 64.9319 14.8737C59.8595 14.8737 54.7941 14.8737 49.7218 14.8737C49.3504 14.8737 49.2524 14.9643 49.2524 15.3409C49.2664 22.0072 49.2594 28.6666 49.2594 35.333C49.2594 35.6444 49.4228 35.8002 49.7498 35.8002C55.5928 35.8002 61.4429 35.8002 67.2859 35.8002C67.8814 35.8002 68.4839 35.7025 69.0794 35.6607C69.2055 35.6537 69.3527 35.6119 69.4648 35.7234C69.4017 35.7234 69.3387 35.7304 69.2756 35.7374C69.1005 35.8071 68.8973 35.7095 68.7221 35.8071C67.9304 35.9396 67.1248 35.9536 66.3261 35.9536C60.7142 35.9536 55.1024 35.9536 49.4906 35.9675C49.1473 35.9675 49.0982 35.8699 49.0982 35.5561C49.1052 28.7573 49.1052 21.9514 49.0982 15.1526C49.0982 14.9364 49.0702 14.776 49.4065 14.776C54.3387 14.79 59.278 14.783 64.2102 14.783C64.2733 14.783 64.3293 14.79 64.3924 14.797C64.6937 14.7133 65.0159 14.8318 65.3172 14.7342C65.3522 14.7342 65.3873 14.7342 65.4293 14.7272C65.5624 14.6645 65.7095 14.7342 65.8356 14.6645C65.8777 14.6645 65.9197 14.6505 65.9618 14.6436H65.9688Z" fill="#E42D14"/>
<path d="M163.479 48.7776C162.883 48.7776 162.449 48.3592 162.442 47.7735C162.435 47.1807 162.883 46.7275 163.486 46.7345C164.067 46.7345 164.509 47.1807 164.509 47.7595C164.509 48.3383 164.067 48.7776 163.486 48.7776H163.479Z" fill="#20201E"/>
<path d="M151.498 31.1633C151.498 32.6486 151.491 34.1269 151.505 35.6122C151.505 35.8911 151.435 35.9887 151.162 35.9469C150.861 35.9051 150.461 36.0794 150.279 35.8772C150.132 35.7028 150.223 35.3193 150.223 35.0264C150.223 32.2581 150.223 29.4897 150.216 26.7144C150.216 26.4006 150.3 26.3309 150.602 26.3379C151.498 26.3588 151.498 26.3379 151.498 27.2235C151.498 28.5344 151.498 29.8454 151.498 31.1563V31.1633Z" fill="#E42E16"/>
<path d="M155.338 0.209453C155.31 0.537192 155.478 0.962555 155.268 1.17175C155.044 1.40186 154.609 1.24148 154.273 1.24846C153.25 1.2624 152.227 1.24846 151.204 1.17872C151.386 1.17872 151.569 1.17872 151.751 1.17872C152.802 1.17872 153.846 1.1578 154.896 1.1857C155.289 1.19267 155.254 0.983475 155.261 0.725467C155.261 0.453514 155.261 0.272211 154.882 0.279184C153.355 0.300104 151.821 0.293131 150.294 0.279184C149.999 0.279184 149.922 0.362862 149.922 0.655736C149.929 3.6542 149.922 6.64569 149.922 9.64415C149.915 9.68599 149.887 9.71388 149.845 9.72086C149.726 9.62323 149.796 9.49074 149.789 9.37917C149.789 6.43649 149.789 3.48684 149.782 0.544165C149.782 0.244319 149.852 0.153667 150.167 0.153667C151.786 0.167614 153.397 0.153667 155.016 0.160641C155.121 0.160641 155.24 0.111828 155.331 0.209453H155.338Z" fill="#E42614"/>
<path d="M126.557 5.00688C126.557 6.47822 126.55 7.94956 126.557 9.42787C126.557 9.69982 126.501 9.81139 126.214 9.77653C125.913 9.73469 125.506 9.90902 125.331 9.69982C125.184 9.52549 125.282 9.14197 125.282 8.8491C125.282 6.07377 125.282 3.29845 125.275 0.530104C125.275 0.244204 125.338 0.153552 125.639 0.160525C126.557 0.181445 126.557 0.160525 126.557 1.07401C126.557 2.38497 126.557 3.7029 126.557 5.01385V5.00688Z" fill="#E42818"/>
<path d="M166.876 13.4023C166.757 13.5138 166.806 13.6603 166.806 13.7858C166.806 14.9154 166.806 16.0451 166.806 17.1747V17.5234C166.806 17.5234 166.757 17.5234 166.729 17.5234V16.8331C166.729 15.801 166.729 14.769 166.729 13.7439C166.729 13.4999 166.673 13.3883 166.4 13.4023C165.636 13.4232 165.763 13.3395 165.763 14.0159C165.763 16.7773 165.763 19.5386 165.763 22.2931C165.763 22.4395 165.671 22.6696 165.854 22.7254C166.106 22.8021 166.393 22.8021 166.652 22.7254C166.778 22.6835 166.722 22.5022 166.722 22.3907C166.722 21.0379 166.722 19.6921 166.722 18.3393V17.886C166.834 18.1301 166.792 18.2905 166.792 18.4439C166.792 19.7548 166.792 21.0658 166.792 22.3837C166.792 22.5162 166.743 22.6557 166.862 22.7672C166.806 22.9973 166.617 22.8718 166.498 22.8718C166.204 22.8718 165.819 23.0113 165.65 22.816C165.51 22.6557 165.601 22.2791 165.601 22.0002C165.601 19.2458 165.608 16.4914 165.587 13.737C165.587 13.3325 165.706 13.2279 166.078 13.2767C166.281 13.3046 166.498 13.2767 166.701 13.2767C166.792 13.2767 166.876 13.2767 166.855 13.4092L166.876 13.4023Z" fill="#E42E15"/>
<path d="M163.85 26.5053C163.563 26.4216 163.262 26.4565 162.967 26.4356C162.715 26.4216 162.652 26.5262 162.659 26.7563C162.673 27.3909 162.659 28.0324 162.659 28.667C162.659 31.0448 162.659 33.4157 162.659 35.7935C162.68 35.8145 162.694 35.8354 162.701 35.8633C162.701 35.8912 162.68 35.9191 162.659 35.933C162.414 35.926 162.526 35.7378 162.526 35.6332C162.519 34.0363 162.526 32.4464 162.526 30.8496C162.526 29.4549 162.526 28.0533 162.526 26.6587C162.526 26.4286 162.568 26.324 162.827 26.3449C163.073 26.3658 163.318 26.3449 163.563 26.3449C163.689 26.3449 163.815 26.331 163.857 26.4983L163.85 26.5053Z" fill="#E31F14"/>
<path d="M171.69 35.9329C171.69 32.9135 171.69 29.8871 171.69 26.8678C171.69 26.54 171.62 26.4006 171.27 26.4285C171.045 26.4494 170.807 26.4912 170.583 26.3866C170.863 26.3169 171.143 26.3866 171.424 26.3517C171.725 26.3169 171.816 26.4075 171.816 26.7213C171.802 28.2763 171.809 29.8314 171.809 31.3864C171.809 32.795 171.809 34.2035 171.809 35.6121C171.809 35.7167 171.914 35.891 171.697 35.9329H171.69Z" fill="#E20A14"/>
<path d="M155.779 26.3725V34.7543C155.667 34.566 155.709 34.4335 155.709 34.308C155.709 31.8186 155.695 29.3222 155.716 26.8327C155.716 26.3865 155.485 26.4492 155.212 26.4422C154.938 26.4422 154.728 26.4144 154.735 26.8258C154.756 29.5871 154.749 32.3485 154.742 35.1099C154.742 35.2424 154.777 35.3749 154.707 35.5143C154.637 35.3818 154.672 35.2424 154.672 35.1099C154.672 32.3625 154.672 29.615 154.672 26.8606C154.672 26.7212 154.728 26.5608 154.602 26.4422C154.987 26.254 155.394 26.3934 155.786 26.3725H155.779Z" fill="#E32014"/>
<path d="M162.659 35.8702V35.7935C163.299 35.7935 163.619 35.4751 163.619 34.8382C163.619 32.8857 163.619 30.9402 163.619 28.9877C163.619 28.8483 163.563 28.6879 163.696 28.5693C163.801 28.9529 163.752 29.3434 163.752 29.7339C163.766 31.6863 163.759 33.6458 163.752 35.5983C163.752 35.7029 163.892 35.9121 163.619 35.926C163.304 35.8354 162.974 35.9609 162.659 35.8563V35.8702Z" fill="#E42316"/>
<path d="M107.368 0.216293C107.248 0.348783 107.087 0.292998 106.947 0.292998C104.831 0.292998 102.723 0.299971 100.607 0.292998C100.404 0.292998 100.228 0.376676 100.032 0.369702C100.046 0.216293 100.13 0.16748 100.284 0.16748C102.617 0.16748 104.943 0.16748 107.276 0.16748C107.304 0.16748 107.34 0.202346 107.368 0.216293Z" fill="#E32214"/>
<path d="M136.31 0.216309C136.653 0.216309 136.996 0.216309 137.396 0.216309C137.234 0.327879 137.115 0.28604 137.003 0.28604C136.303 0.299987 136.387 0.195389 136.387 0.885733C136.387 2.97768 136.387 5.06964 136.387 7.16159C136.387 7.30105 136.443 7.45446 136.317 7.57998C136.303 7.18948 136.275 6.79898 136.268 6.40848C136.268 4.38626 136.268 2.36405 136.268 0.348799C136.268 0.30696 136.296 0.258148 136.31 0.216309Z" fill="#E20D14"/>
<path d="M25.4318 0.202319C25.3197 0.341783 25.1585 0.285997 25.0184 0.285997C22.9026 0.285997 20.7798 0.285997 18.6639 0.285997C18.5028 0.285997 18.3276 0.362702 18.1665 0.272051C18.1945 0.132587 18.3066 0.16048 18.4047 0.16048C20.7027 0.16048 23.0077 0.16048 25.3057 0.16048C25.3477 0.16048 25.3967 0.188373 25.4388 0.202319H25.4318Z" fill="#E32014"/>
<path d="M170.576 28.7228C170.702 28.8274 170.653 28.9738 170.653 29.0993C170.653 31.3796 170.653 33.6528 170.653 35.9331C170.548 35.947 170.527 35.8912 170.527 35.8006C170.548 33.4367 170.471 31.0797 170.576 28.7158V28.7228Z" fill="#E20D14"/>
<path d="M172.586 1.24834H169.49C169.49 1.24834 169.49 1.19953 169.49 1.17163C169.945 1.17163 170.394 1.17163 170.849 1.17163C171.29 1.17163 171.739 1.15769 172.18 1.17163C172.446 1.18558 172.537 1.08098 172.509 0.829948C172.502 0.767189 172.502 0.704431 172.509 0.648645C172.551 0.355772 172.432 0.272094 172.138 0.279067C170.155 0.293013 168.173 0.279067 166.183 0.279067C166.12 0.279067 166.057 0.279067 166.001 0.279067C165.707 0.279067 165.356 0.195389 165.132 0.327879C164.873 0.481289 165.111 0.871787 164.964 1.15071C164.964 0.899679 164.964 0.641672 164.964 0.390638C164.964 0.237228 165.062 0.216309 165.188 0.216309C165.363 0.216309 165.531 0.216309 165.707 0.216309C167.997 0.216309 170.288 0.216309 172.586 0.216309C172.649 0.557994 172.628 0.906653 172.6 1.24834H172.586Z" fill="#E32014"/>
<path d="M149.859 9.72075C149.859 9.72075 149.908 9.67194 149.936 9.64404C151.786 9.64404 153.635 9.64404 155.485 9.64404C155.499 9.74864 155.429 9.76259 155.345 9.76259C153.537 9.76259 151.73 9.76259 149.922 9.76259C149.901 9.76259 149.88 9.74167 149.859 9.72772V9.72075Z" fill="#E21014"/>
<path d="M147.554 26.4426C145.809 26.4426 144.065 26.4426 142.32 26.4426C142.187 26.4426 142.047 26.4914 141.935 26.3798C143.764 26.3798 145.592 26.3659 147.421 26.3589C147.484 26.3589 147.547 26.3589 147.554 26.4426Z" fill="#E31514"/>
<path d="M146.896 31.679C146.896 31.0375 146.566 30.7167 145.908 30.7167H143.21C143.21 30.7167 143.21 30.6679 143.21 30.647C143.33 30.647 143.449 30.647 143.568 30.647C144.577 30.647 145.592 30.6609 146.601 30.647C146.903 30.647 146.994 30.7376 146.973 31.0235C146.952 31.2397 146.973 31.4628 146.973 31.686C146.945 31.686 146.924 31.686 146.896 31.686V31.679Z" fill="#E31B15"/>
<path d="M143.203 27.4744C143.259 27.314 143.399 27.4047 143.49 27.3977C144.85 27.3977 146.202 27.3977 147.561 27.3977C147.54 27.5302 147.428 27.4814 147.358 27.4814C145.978 27.4814 144.59 27.4814 143.21 27.4744H143.203Z" fill="#E20A14"/>
<path d="M171.396 22.8304C171.62 22.6909 171.872 22.7885 172.11 22.7606C172.363 22.7328 172.629 22.8164 172.867 22.6909C172.909 22.7328 172.979 22.7676 172.993 22.8164C173.007 22.8792 172.937 22.8792 172.888 22.8792C172.391 22.8513 171.886 22.928 171.389 22.8374L171.396 22.8304Z" fill="#E31916"/>
<path d="M138.453 22.7745C138.495 22.5444 138.586 22.7536 138.649 22.7536C138.979 22.7466 139.308 22.7536 139.644 22.7396C139.728 22.7396 139.784 22.7257 139.798 22.8303C139.35 22.8651 138.895 22.9628 138.46 22.7745H138.453Z" fill="#E4261A"/>
<path d="M132.68 22.8371C132.911 22.6698 133.178 22.7744 133.423 22.7604C133.619 22.7534 133.829 22.7046 134.025 22.7744C133.885 22.9557 133.689 22.858 133.521 22.865C133.241 22.872 132.96 22.9068 132.68 22.8371Z" fill="#E42319"/>
<path d="M161.776 22.8231C162.001 22.6836 162.253 22.7812 162.484 22.7533C162.708 22.7254 162.946 22.8091 163.164 22.6836C163.227 22.7533 163.353 22.8579 163.15 22.8579C162.694 22.8579 162.232 22.9067 161.776 22.8231Z" fill="#E31314"/>
<path d="M143.042 9.72779C143.455 9.58135 143.876 9.62319 144.296 9.70687C143.876 9.81147 143.455 9.7766 143.042 9.72779Z" fill="#E20D14"/>
<path d="M162.519 16.4217C162.393 16.1289 162.4 15.836 162.519 15.5361C162.596 15.829 162.603 16.1219 162.519 16.4217Z" fill="#E20D14"/>
<path d="M79.3852 26.7351C79.2661 26.3655 79.2661 26.0029 79.3852 25.6333C79.4273 26.0029 79.4273 26.3655 79.3852 26.7351Z" fill="#E20A14"/>
<path d="M162.659 35.87C162.981 35.9049 163.311 35.7933 163.619 35.9398C163.297 35.9398 162.981 35.9398 162.659 35.9398C162.659 35.9188 162.659 35.8979 162.659 35.87Z" fill="#E53413"/>
<path d="M65.3242 14.7272C65.023 14.8807 64.7077 14.7691 64.3994 14.79C64.7007 14.7203 65.0159 14.7272 65.3242 14.7272Z" fill="#E53313"/>
<path d="M68.729 35.8002C68.8971 35.6538 69.1003 35.7514 69.2825 35.7305C69.1073 35.8142 68.9182 35.8002 68.729 35.8002Z" fill="#E53313"/>
<path d="M65.8429 14.6579C65.7238 14.7765 65.5766 14.7067 65.4365 14.7207C65.5626 14.6509 65.7028 14.6579 65.8429 14.6579Z" fill="#E53313"/>
<path d="M79.3856 25.6336C79.3575 23.7229 78.8251 21.9796 77.592 20.4944C76.408 19.0718 74.8386 18.2141 73.1642 17.5238C73.0521 17.475 72.905 17.468 72.8279 17.3495C72.8489 17.3285 72.8559 17.3146 72.8699 17.3076C72.968 17.2518 73.0591 17.196 73.1572 17.1403C75.5042 15.7247 77.0315 13.7513 77.3608 10.9829C77.8442 6.94548 76.2118 3.66112 72.5266 1.8202C70.4178 0.767253 68.1549 0.418594 65.8219 0.418594C60.3712 0.411621 54.9205 0.418594 49.4698 0.411621C49.1755 0.411621 49.1055 0.488326 49.1055 0.774226C49.1195 2.79645 49.1195 4.82564 49.1055 6.84786C49.1055 7.19652 49.1755 7.29414 49.5398 7.29414C54.5492 7.28019 59.5515 7.28019 64.5608 7.28717C65.6187 7.28717 66.6556 7.41268 67.6224 7.85897C68.8835 8.43077 69.5701 9.40004 69.6191 10.7877C69.6682 12.273 69.0867 13.4026 67.7205 14.086C67.167 14.3649 66.5645 14.4974 65.969 14.6508C65.92 14.7415 65.8219 14.7275 65.7378 14.7345C65.0022 14.8321 64.2665 14.8461 63.5309 14.8461C58.9419 14.8461 54.353 14.8461 49.764 14.8461C49.666 14.8461 49.5679 14.8461 49.4698 14.8461C49.2806 14.8321 49.1966 14.9158 49.1966 15.0971C49.1966 15.1947 49.1966 15.2924 49.1966 15.39C49.1966 22.0215 49.1966 28.646 49.1966 35.2775C49.1966 35.3612 49.1966 35.4518 49.1966 35.5355C49.1895 35.7656 49.2806 35.8841 49.5188 35.8772C49.6029 35.8772 49.694 35.8772 49.7781 35.8772C55.6001 35.8772 61.4221 35.8772 67.2441 35.8772C67.4263 35.8772 67.6154 35.8353 67.7906 35.8353C68.3511 35.8284 68.9045 35.6819 69.472 35.7238C69.8153 35.6749 70.1586 35.6401 70.4949 35.5773C72.5757 35.1799 74.5444 34.5174 76.2188 33.1786C78.2926 31.5329 79.3155 29.3642 79.3856 26.7423C79.3295 26.3727 79.3295 26.0101 79.3856 25.6406V25.6336ZM69.7523 28.3531C68.6523 28.9319 67.4543 29.0644 66.2352 29.0783C64.778 29.0992 63.3277 29.0783 61.8705 29.0783C60.2521 29.0783 58.6407 29.0783 57.0223 29.0783C56.7561 29.0783 56.665 29.0225 56.665 28.7366C56.679 26.3588 56.672 23.974 56.665 21.5961C56.665 21.3869 56.672 21.2614 56.9522 21.2684C60.133 21.2823 63.3137 21.2684 66.5015 21.2963C67.6154 21.3032 68.7084 21.5055 69.7242 22.0145C70.9923 22.663 71.6089 23.709 71.6089 25.1106C71.6089 26.5331 71.0554 27.6628 69.7523 28.3461V28.3531Z" fill="#E53313"/>
<path d="M56.763 21.1426H66.2632C66.2632 21.1426 66.2632 21.1635 66.2632 21.1774H56.749C56.749 21.1774 56.756 21.1565 56.763 21.1426Z" fill="#E32014"/>
<path d="M148.808 13.1168C146.048 13.1029 143.876 15.2367 143.869 17.9632C143.862 20.8431 145.936 23.0048 148.71 23.0118C151.541 23.0118 153.664 20.9059 153.678 18.0748C153.685 15.2855 151.569 13.1238 148.808 13.1099V13.1168ZM150.448 21.4219C149.208 22.0704 147.947 22.0076 146.763 21.2336C145.081 20.1388 144.626 17.6703 145.754 15.934C146.819 14.2953 148.984 13.8072 150.665 14.8322C151.737 15.4877 152.388 16.701 152.388 18.3258C152.346 19.5252 151.786 20.7246 150.448 21.4219Z" fill="#E53413"/>
<path d="M160.263 18.6671C161.671 18.2766 162.442 17.5025 162.519 16.4217C162.519 16.1288 162.484 15.8359 162.519 15.5361C162.47 14.9364 162.176 14.4692 161.734 14.0857C161.167 13.5906 160.473 13.3814 159.737 13.3186C158.602 13.221 157.467 13.2977 156.339 13.2559C156.024 13.2489 155.926 13.3117 155.926 13.6533C155.94 16.4147 155.926 19.1761 155.94 21.9375C155.94 22.2373 155.8 22.6208 156.003 22.8161C156.185 22.9904 156.571 22.844 156.865 22.8719C157.131 22.8998 157.222 22.8231 157.222 22.5372C157.201 21.3866 157.222 20.229 157.208 19.0785C157.208 18.8484 157.243 18.7438 157.51 18.7647C157.867 18.7856 158.224 18.7856 158.581 18.7647C158.778 18.7577 158.897 18.8274 159.002 18.9878C159.233 19.3365 159.478 19.6712 159.73 20.0059C160.424 20.9403 161.048 21.9235 161.79 22.8231C161.993 22.7952 162.197 22.8091 162.407 22.8091C162.666 22.8091 162.967 22.9625 163.184 22.6836C162.218 21.3447 161.251 20.0059 160.284 18.6601L160.263 18.6671ZM159.093 17.7187C158.455 17.7117 157.818 17.7884 157.187 17.6699C157.096 17.2585 157.159 16.8471 157.152 16.4356C157.138 15.8848 157.152 15.3339 157.152 14.79C157.152 14.6714 157.103 14.5459 157.208 14.4413C158.07 14.4413 158.932 14.3716 159.786 14.511C160.578 14.6366 161.118 15.0898 161.251 15.7174C161.44 16.603 161.006 17.3143 160.116 17.5862C159.779 17.6908 159.436 17.7257 159.093 17.7187Z" fill="#E53313"/>
<path d="M157.201 14.4414C157.201 15.5153 157.187 16.5961 157.187 17.67C157.11 17.7049 157.11 17.6491 157.11 17.6003C157.11 16.6101 157.11 15.6129 157.11 14.6227C157.11 14.546 157.124 14.4763 157.201 14.4414Z" fill="#E20A14"/>
<path d="M134.803 55.5204C133.752 52.8706 132.722 50.2068 131.685 47.5501C131.494 47.0573 131.139 46.8109 130.62 46.8109C130.508 46.8109 130.396 46.8318 130.291 46.8109C129.899 46.7342 129.745 46.9225 129.611 47.2781C129.268 48.2474 128.869 49.1957 128.497 50.158C127.79 51.9711 127.089 53.7841 126.375 55.5971C126.291 55.8133 126.284 55.9039 126.557 55.883C126.9 55.8621 127.25 55.8621 127.594 55.883C127.811 55.8969 127.895 55.7993 127.958 55.618C128.161 55.0671 128.392 54.5232 128.589 53.9724C128.659 53.7771 128.75 53.7143 128.96 53.7143C129.773 53.7283 130.585 53.7143 131.398 53.7213C131.762 53.7213 132.225 53.5749 132.477 53.7771C132.729 53.9793 132.778 54.4256 132.918 54.7673C133.065 55.1299 133.121 55.625 133.395 55.8133C133.668 55.9946 134.151 55.8551 134.544 55.883C134.859 55.9109 134.943 55.8551 134.81 55.5204H134.803ZM129.254 52.2849C129.695 51.1343 130.13 50.0116 130.599 48.7983C131.062 49.9907 131.496 51.1203 131.951 52.2849H129.254Z" fill="#20201E"/>
<path d="M90.9803 50.6534C90.0415 49.5377 88.3671 49.2448 87.092 49.97C85.7959 50.7091 85.1793 52.3967 85.6908 53.8401C86.5035 56.1343 89.2919 56.6503 91.1765 55.2487C91.2956 55.158 91.2956 55.0953 91.2185 54.9837C91.0364 54.7257 90.8402 54.4677 90.6861 54.1888C90.567 53.9796 90.4759 53.9935 90.3007 54.126C90.0135 54.3491 89.6772 54.4677 89.3269 54.5444C88.4722 54.7257 87.5964 54.3491 87.2321 53.6588C87.12 53.4496 87.127 53.3589 87.4002 53.3659C88.0798 53.3799 88.7524 53.3659 89.432 53.3659C90.1116 53.3659 90.7912 53.3589 91.4637 53.3659C91.6599 53.3659 91.723 53.3032 91.73 53.1219C91.758 52.2153 91.5828 51.3646 90.9803 50.6464V50.6534ZM89.9434 52.2223C89.5091 52.2084 89.0817 52.2223 88.6473 52.2223C88.227 52.2223 87.8066 52.2153 87.3932 52.2223C87.176 52.2293 87.106 52.1805 87.176 51.9573C87.3512 51.3716 87.9397 50.9881 88.6753 51.002C89.3829 51.016 89.9785 51.4344 90.1116 51.9992C90.1466 52.1526 90.1256 52.2223 89.9434 52.2153V52.2223Z" fill="#20201E"/>
<path d="M171.9 51.8734C171.893 50.7647 171.283 49.9976 170.204 49.7117C169.14 49.4328 168.103 49.5932 167.087 49.9488C166.638 50.1092 166.645 50.1162 166.814 50.5415C166.898 50.7438 166.996 50.946 167.052 51.1552C167.122 51.4062 167.234 51.3992 167.444 51.3155C168.103 51.0575 168.775 50.8623 169.497 51.0366C170.127 51.19 170.415 51.6572 170.288 52.3057C169.539 51.9222 168.747 51.8176 167.927 51.9989C166.863 52.236 166.204 53.0379 166.218 54.049C166.232 54.9974 166.905 55.7784 167.899 55.9597C168.859 56.134 169.707 55.9039 170.457 55.1229C170.457 55.3182 170.471 55.4367 170.457 55.5552C170.422 55.8202 170.527 55.8969 170.786 55.876C171.066 55.8551 171.353 55.8551 171.634 55.876C171.858 55.8899 171.928 55.8202 171.921 55.5901C171.907 54.3489 171.921 53.1146 171.914 51.8734H171.9ZM170.127 54.2164C169.665 54.6418 169.118 54.8021 168.495 54.6696C168.068 54.579 167.815 54.3349 167.794 53.9793C167.773 53.6028 167.998 53.3099 168.404 53.1634C168.607 53.0937 168.81 53.0798 169.02 53.0798C169.329 53.0798 169.63 53.1216 169.924 53.2192C170.422 53.3866 170.52 53.8468 170.127 54.2094V54.2164Z" fill="#20201E"/>
<path d="M36.6206 50.5418C35.5697 49.4261 33.8182 49.2448 32.5781 50.1234C31.303 51.0229 30.8687 52.8848 31.6113 54.2724C32.6762 56.2598 35.2194 56.4969 36.9149 55.2417C37.034 55.1511 37.027 55.0883 36.9499 54.9767C36.7537 54.6978 36.5576 54.4119 36.3754 54.119C36.2843 53.9796 36.2283 53.9726 36.0952 54.0772C35.7939 54.3213 35.4366 54.4537 35.0583 54.5374C34.2246 54.7187 33.3628 54.3631 32.9845 53.6867C32.8584 53.4705 32.8234 53.345 33.1596 53.359C33.8252 53.3799 34.4908 53.359 35.1564 53.359C35.8359 53.359 36.5155 53.359 37.1881 53.359C37.3072 53.359 37.4333 53.3938 37.4473 53.1916C37.5034 52.2014 37.3212 51.2879 36.6206 50.5348V50.5418ZM35.6818 52.2223C34.75 52.2154 33.8182 52.2223 32.8794 52.2223C32.9845 51.518 33.4679 51.0648 34.1685 51.009C34.9812 50.9462 35.6118 51.3019 35.8289 51.9434C35.878 52.0829 35.9621 52.2223 35.6888 52.2223H35.6818Z" fill="#20201E"/>
<path d="M69.8361 51.9016C69.8361 50.7929 69.2406 50.0049 68.1686 49.719C66.9986 49.4122 65.8777 49.6144 64.7777 50.0537C64.6306 50.1165 64.6026 50.1792 64.6656 50.3257C64.7917 50.6185 64.9178 50.9114 65.0159 51.2113C65.079 51.4065 65.163 51.4135 65.3312 51.3368C65.8777 51.0997 66.4521 50.9532 67.0547 50.9742C67.9024 51.009 68.3298 51.4902 68.2527 52.2851C68.2387 52.2851 68.2247 52.2991 68.2177 52.2921C68.1406 52.2572 68.0635 52.2224 67.9865 52.1945C67.1247 51.8528 66.263 51.797 65.4012 52.1596C64.5955 52.4943 64.1261 53.2195 64.1472 54.0284C64.1682 54.8791 64.6726 55.5974 65.4993 55.8624C66.4662 56.1762 67.3699 56.0367 68.1616 55.3603C68.2247 55.3045 68.2527 55.186 68.3788 55.1999C68.3928 55.6462 68.631 55.8693 69.0934 55.8693C69.2265 55.8693 69.3667 55.8554 69.4998 55.8693C69.766 55.9042 69.8571 55.8205 69.8501 55.5346C69.8291 54.3213 69.8431 53.108 69.8431 51.8877L69.8361 51.9016ZM68.1546 54.126C67.8043 54.4956 67.3769 54.7118 66.8515 54.7188C66.6133 54.7188 66.3821 54.6909 66.1719 54.5932C65.6535 54.3492 65.5834 53.6867 66.0388 53.3311C66.4662 53.0034 67.7763 53.0243 68.1896 53.359C68.3228 53.4706 68.3017 53.9657 68.1546 54.126Z" fill="#20201E"/>
<path d="M44.5933 51.7826C44.5723 50.7227 43.9558 49.9905 42.9259 49.7116C41.938 49.4466 40.9712 49.5652 40.0184 49.872C39.3388 50.0881 39.3388 50.1021 39.612 50.7715C39.6681 50.911 39.7382 51.0435 39.7732 51.1829C39.8222 51.3921 39.9063 51.42 40.1095 51.3363C40.6559 51.0993 41.2304 50.9528 41.833 50.9807C42.6807 51.0226 43.1151 51.5176 43.01 52.3196C42.2533 51.936 41.4616 51.8314 40.6419 52.0058C39.563 52.2429 38.8554 53.0936 38.9184 54.0838C38.9815 55.1507 39.7452 55.8968 40.8871 56.0084C41.7559 56.092 42.5055 55.8271 43.1431 55.1507C43.1431 55.332 43.1571 55.4505 43.1431 55.5691C43.1081 55.8271 43.2061 55.9107 43.4654 55.8898C43.7736 55.8689 44.0819 55.8759 44.3902 55.8898C44.5723 55.8968 44.6214 55.834 44.6214 55.6597C44.6144 54.3697 44.6284 53.0866 44.6003 51.7966L44.5933 51.7826ZM42.9189 54.1326C42.5616 54.5022 42.1342 54.7183 41.5877 54.7183C41.3776 54.7183 41.1394 54.6904 40.9292 54.5858C40.4247 54.3348 40.3617 53.6863 40.7961 53.3376C41.2164 53.0029 42.5406 53.0169 42.9609 53.3586C43.094 53.4701 43.073 53.9792 42.9259 54.1326H42.9189Z" fill="#20201E"/>
<path d="M10.7193 49.5791C8.86269 49.4466 7.28633 50.7437 7.15321 52.5009C7.01309 54.4046 8.33723 55.8829 10.3129 56.0154C12.0434 56.1339 13.5988 54.7741 13.7179 53.0378C13.844 51.2527 12.5058 49.7046 10.7193 49.5791ZM10.439 54.558C9.47221 54.558 8.75059 53.8258 8.73658 52.8147C8.72257 51.7966 9.4652 51.0296 10.439 51.0365C11.4129 51.0435 12.1205 51.7896 12.1205 52.8007C12.1205 53.8049 11.3989 54.558 10.439 54.558Z" fill="#20201E"/>
<path d="M119.334 49.5723C117.477 49.5653 116.02 50.9809 116.027 52.8078C116.027 54.6 117.491 56.0294 119.32 56.0294C121.141 56.0294 122.606 54.593 122.613 52.8009C122.613 51.0018 121.176 49.5793 119.341 49.5723H119.334ZM119.327 54.5581C118.36 54.5581 117.638 53.8259 117.624 52.8148C117.61 51.7967 118.346 51.0297 119.327 51.0297C120.294 51.0297 121.008 51.7758 121.015 52.7869C121.015 53.7911 120.301 54.5442 119.334 54.5511L119.327 54.5581Z" fill="#20201E"/>
<path d="M151.337 31.135C151.337 32.5436 151.323 33.9522 151.344 35.3678C151.344 35.7304 151.232 35.8559 150.889 35.8001C150.791 35.7861 150.693 35.8001 150.594 35.8001C150.433 35.8001 150.37 35.7304 150.377 35.5769C150.377 35.5142 150.377 35.4514 150.377 35.3956C150.377 32.5506 150.377 29.7055 150.377 26.8605C150.377 26.728 150.293 26.5118 150.475 26.477C150.735 26.4212 151.022 26.3933 151.274 26.4979C151.393 26.5467 151.337 26.721 151.337 26.8396C151.337 28.276 151.337 29.7055 151.337 31.142V31.135Z" fill="#E53413"/>
<path d="M125.429 4.95087C125.429 3.52834 125.436 2.10582 125.429 0.68329C125.429 0.383444 125.499 0.271873 125.815 0.28582C126.578 0.313712 126.466 0.202142 126.466 0.927351C126.466 3.68873 126.466 6.44313 126.473 9.20451C126.473 9.55316 126.396 9.67868 126.032 9.65776C125.352 9.6229 125.436 9.72749 125.436 9.07202C125.436 7.6983 125.436 6.32459 125.436 4.95087H125.429Z" fill="#E53413"/>
</g>
<defs>
<clipPath id="clip0_89_1235">
<rect width="173" height="59" fill="white"/>
</clipPath>
</defs>
</svg>
