<svg width="138" height="52" viewBox="0 0 138 52" fill="none" xmlns="http://www.w3.org/2000/svg">
<g clip-path="url(#clip0_89_1232)">
<path fill-rule="evenodd" clip-rule="evenodd" d="M27.1731 26.7503V41.4827H35.6967L39.4266 52.0068H52.7438L43.7022 26.7503H27.1662H27.1731ZM123.405 0H117.748V25.1679H134.602C132.972 23.0058 130.865 21.2256 128.385 20.032C131.293 18.0336 133.199 14.7188 133.199 10.9607C133.199 5.32686 128.924 0.675236 123.405 0ZM116.152 0H100.701V25.1679H116.152V0ZM79.7166 0H74.0596V25.1679H90.9133C89.2831 23.0058 87.1764 21.2256 84.6967 20.032C87.6047 18.0336 89.5111 14.7188 89.5111 10.9607C89.5111 5.32686 85.2355 0.675236 79.7166 0ZM72.464 0H57.0125V25.1679H72.464V0ZM34.1287 0H27.1731V25.1679H43.1427L34.1287 0ZM25.5776 0H18.622L9.60799 25.1679H25.5776V0ZM25.5776 26.7503H9.04159L0 52H13.3172L17.0471 41.4759H25.5707V26.7434L25.5776 26.7503ZM74.0596 26.7503V52.0068H78.3213V51.9523C87.2386 51.4066 94.3047 44.1154 94.3047 35.1737C94.3047 32.0976 93.4413 29.2329 91.977 26.7571H74.0596V26.7503ZM57.0125 26.7503V52.0068H72.464V26.7503H57.0125ZM117.748 26.7503V52.0068H122.01V51.9523C130.927 51.4066 137.993 44.1154 137.993 35.1737C137.993 32.0976 137.13 29.2329 135.665 26.7571H117.748V26.7503ZM100.701 26.7503V52.0068H116.152V26.7503H100.701Z" fill="#E2000F"/>
</g>
<defs>
<clipPath id="clip0_89_1232">
<rect width="138" height="52" fill="white"/>
</clipPath>
</defs>
</svg>
