<?xml version="1.0" encoding="UTF-8"?>
<svg id="Layer_2" data-name="Layer 2" xmlns="http://www.w3.org/2000/svg" xmlns:xlink="http://www.w3.org/1999/xlink" viewBox="0 0 1147.38 124.52">
  <defs>
    <style>
      .cls-1 {
        fill: url(#linear-gradient);
      }

      .cls-1, .cls-2 {
        stroke-width: 0px;
      }

      .cls-2 {
        fill: #005981;
      }
    </style>
    <linearGradient id="linear-gradient" x1="1.29" y1="128.06" x2="346.26" y2="2.51" gradientUnits="userSpaceOnUse">
      <stop offset="0" stop-color="#fff"/>
      <stop offset=".5" stop-color="#0094c7"/>
      <stop offset="1" stop-color="#005982"/>
    </linearGradient>
  </defs>
  <g id="SVG">
    <g>
      <path class="cls-2" d="M423.9,4.65h63.37l10.65,119.88h-48.25l-1.03-25.93h-38.82l-14.25,25.93h-45.85L423.9,4.65ZM423.9,69.74h26.62l-2.41-39.33h-.34l-23.87,39.33Z"/>
      <path class="cls-2" d="M536.04,4.65h46.03l-22.67,84.5h56.51l-9.45,35.38h-102.53l32.12-119.88Z"/>
      <path class="cls-2" d="M742.29,40.03h-40.53l-22.68,84.5h-46.02l22.67-84.5h-40.53l9.45-35.38h127.09l-9.44,35.38Z"/>
      <path class="cls-2" d="M762.03,4.65h79.17c18.72,0,41.56,8.93,32.97,41.22-8.42,31.26-31.95,44.13-55.99,44.13h-32.97l-9.28,34.53h-46.03l32.11-119.88ZM791.4,62.18h10.13c10.99,0,22.67-2.06,26.27-15.45,3.44-12.71-7.21-14.26-18.37-14.26h-9.96l-8.07,29.71Z"/>
      <path class="cls-2" d="M897.19,4.65h74.36c28.68,0,43.97,8.93,37.78,31.94-4.81,18.38-18.89,27.65-37.1,31.78l-.17.35c9.45,1.71,14.26,6.53,16.83,12.88,3.61,12.7-1.89,31.26-.17,42.93h-47.91c.17-8.58,4.81-27.31,2.92-34.53-1.38-5.5-5.67-6.18-11.34-6.18h-10.3l-11,40.7h-46.02l32.12-119.88ZM927.08,57.02h12.02c9.45,0,19.07-1.03,22.32-13.22,2.93-10.82-5.5-12.37-14.76-12.37h-12.71l-6.87,25.58Z"/>
      <path class="cls-2" d="M1060.86,124.52c-41.9,0-60.79-21.12-49.8-62,10.65-40.18,41.05-61.99,82.95-61.99s61.14,21.81,50.5,61.99c-10.99,40.88-41.73,62-83.64,62ZM1068.59,95.67c18.2,0,24.04-20.27,27.82-33.15,2.75-11.16,7.39-33.14-10.13-33.14s-24.21,21.98-27.14,33.14c-3.61,12.88-7.04,33.15,9.45,33.15Z"/>
      <path class="cls-1" d="M194.68,0h-28.49l-28.62,21.44h48.92S194.68,0,194.68,0ZM341.87,4.11c-4.02-2.74-9.27-4.11-15.77-4.11h-120.27l-7.69,21.45h62.86c17.89,0,38.14,10.29,51.84,19.16,10.74,10.58,4.93,19.15-12.97,19.15h-115.46l-23.21,64.76h36.76l13.7-38.23h83.57c.25,0,1.31-.17,3.17-.49,1.87-.33,3.28-.63,4.24-.89,4.92-1.17,9.2-2.67,12.83-4.51,6.8-3.65,11.13-8.1,13.01-13.32l3.44-9.61,6.82-19.03,7.17-19.99c2.25-6.3.89-11.06-4.05-14.34ZM86.43,59.76L0,124.52h36.55l50.9-38.23h37.67l-15.08,38.23h37.11l24.72-64.76h-85.44ZM96.67,30.71l-25.01,12.57h225.7l-19.15-12.57H96.67Z"/>
    </g>
  </g>
</svg>