<svg width="231" height="50" viewBox="0 0 231 50" fill="none" xmlns="http://www.w3.org/2000/svg">
<g clip-path="url(#clip0_89_1204)">
<path d="M99.3236 27.0754H95.5365C95.112 27.0754 94.7647 26.9755 94.4891 26.7758C94.2135 26.576 94.0261 26.3208 93.9158 26.0101L92.67 22.315H84.6604L83.4146 26.0101C83.3154 26.282 83.1279 26.5261 82.8523 26.7425C82.5712 26.9588 82.2294 27.0698 81.827 27.0698H78.0068L86.1653 5.86475H91.1706L99.3291 27.0698L99.3236 27.0754ZM85.7849 18.9695H91.54L89.5996 13.1606C89.4728 12.7888 89.3295 12.3561 89.1586 11.8568C88.9877 11.3574 88.8223 10.8137 88.6569 10.2311C88.5026 10.8248 88.3427 11.3741 88.1773 11.8789C88.012 12.3838 87.8576 12.8221 87.7143 13.1883L85.7739 18.9639L85.7849 18.9695Z" fill="#221F1F"/>
<path d="M112.763 18.531C112.939 18.9304 113.11 19.3355 113.275 19.7571C113.441 19.3299 113.612 18.9138 113.794 18.5088C113.976 18.1038 114.163 17.7154 114.356 17.3381L119.764 6.61353C119.857 6.43044 119.957 6.28619 120.061 6.18632C120.161 6.08645 120.276 6.00878 120.403 5.95884C120.53 5.90891 120.673 5.88672 120.828 5.88672H125.116V27.0807H120.806V14.8858C120.806 14.2922 120.833 13.6541 120.894 12.9662L115.31 23.8683C115.139 24.2067 114.902 24.4675 114.61 24.6395C114.317 24.817 113.981 24.9003 113.606 24.9003H112.939C112.564 24.9003 112.228 24.8115 111.936 24.6395C111.644 24.4675 111.407 24.2067 111.236 23.8683L105.624 12.9495C105.663 13.288 105.69 13.6264 105.712 13.9593C105.734 14.2922 105.74 14.6029 105.74 14.8858V27.0807H101.429V5.88672H105.718C105.878 5.88672 106.021 5.91446 106.142 5.95884C106.269 6.00878 106.379 6.0809 106.484 6.18632C106.583 6.28619 106.683 6.43044 106.782 6.61353L112.206 17.3825C112.399 17.7542 112.586 18.1371 112.763 18.531Z" fill="#221F1F"/>
<path d="M142.558 5.87012V9.65396H133.909V14.6029H140.535V18.2425H133.909V23.2913H142.558V27.0752H128.992V5.87012H142.558Z" fill="#221F1F"/>
<path d="M150.628 23.1471H158.439V27.0752H145.744V5.87012H150.628V23.1471Z" fill="#221F1F"/>
<path d="M166.509 27.0752H161.592V5.87012H166.509V27.0752Z" fill="#221F1F"/>
<path d="M184.971 21.5935C185.086 21.5935 185.202 21.6157 185.318 21.6601C185.434 21.7045 185.544 21.7766 185.649 21.8876L187.589 23.9404C186.74 25.0556 185.676 25.8989 184.403 26.4648C183.124 27.0307 181.614 27.3137 179.872 27.3137C178.268 27.3137 176.834 27.0418 175.572 26.4926C174.304 25.9433 173.229 25.1887 172.347 24.2234C171.465 23.258 170.787 22.1151 170.313 20.789C169.839 19.463 169.607 18.0261 169.607 16.4726C169.607 14.9191 169.878 13.4377 170.418 12.1117C170.958 10.7857 171.713 9.6428 172.683 8.68297C173.654 7.72314 174.811 6.97414 176.162 6.44151C177.512 5.90889 179.001 5.64258 180.627 5.64258C181.421 5.64258 182.165 5.7147 182.859 5.85341C183.559 5.99211 184.21 6.1863 184.816 6.43596C185.423 6.68563 185.985 6.97968 186.492 7.32367C187.005 7.66766 187.457 8.05048 187.854 8.46659L186.205 10.6914C186.095 10.8246 185.974 10.9522 185.831 11.0631C185.687 11.1741 185.483 11.2296 185.224 11.2296C185.053 11.2296 184.888 11.1907 184.734 11.1131C184.579 11.0354 184.414 10.9411 184.243 10.8301C184.072 10.7191 183.879 10.5971 183.67 10.4639C183.46 10.3308 183.218 10.2143 182.931 10.0977C182.644 9.98679 182.314 9.89247 181.933 9.81479C181.553 9.73712 181.106 9.69828 180.594 9.69828C179.706 9.69828 178.896 9.85918 178.163 10.1699C177.43 10.4861 176.801 10.9355 176.278 11.5236C175.754 12.1117 175.346 12.8219 175.048 13.6541C174.756 14.4863 174.607 15.424 174.607 16.4615C174.607 17.499 174.756 18.5143 175.048 19.3576C175.346 20.2009 175.743 20.9111 176.25 21.4881C176.757 22.0651 177.347 22.5034 178.019 22.803C178.697 23.1026 179.42 23.2524 180.191 23.2524C180.632 23.2524 181.04 23.2302 181.404 23.1859C181.768 23.1415 182.11 23.0693 182.424 22.9584C182.738 22.853 183.036 22.7143 183.322 22.5423C183.609 22.3703 183.896 22.1594 184.182 21.9098C184.298 21.8155 184.425 21.7322 184.557 21.6712C184.69 21.6102 184.833 21.5769 184.976 21.5769L184.971 21.5935Z" fill="#221F1F"/>
<path d="M211.017 16.467C211.017 17.9983 210.753 19.4242 210.229 20.7447C209.705 22.0651 208.961 23.2136 208.007 24.1901C207.054 25.1665 205.902 25.9266 204.556 26.4815C203.211 27.0363 201.718 27.3081 200.08 27.3081C198.443 27.3081 196.949 27.0307 195.599 26.4815C194.248 25.9266 193.096 25.1665 192.137 24.1901C191.178 23.2136 190.434 22.0651 189.91 20.7447C189.386 19.4242 189.122 17.9983 189.122 16.467C189.122 14.9357 189.381 13.5099 189.91 12.1894C190.434 10.8689 191.178 9.72602 192.137 8.75509C193.096 7.78417 194.248 7.02407 195.599 6.46925C196.949 5.91444 198.443 5.64258 200.08 5.64258C201.718 5.64258 203.211 5.91999 204.556 6.48035C205.902 7.04071 207.054 7.80081 208.007 8.77174C208.961 9.74267 209.7 10.8856 210.229 12.206C210.753 13.5265 211.017 14.9468 211.017 16.4726V16.467ZM206.012 16.467C206.012 15.4184 205.879 14.4752 205.609 13.6375C205.339 12.7997 204.953 12.0895 204.446 11.507C203.939 10.9244 203.322 10.4806 202.589 10.1699C201.855 9.85918 201.023 9.70383 200.086 9.70383C199.149 9.70383 198.3 9.85918 197.561 10.1699C196.823 10.4806 196.2 10.9244 195.692 11.507C195.185 12.0895 194.799 12.7997 194.529 13.6375C194.259 14.4752 194.127 15.4184 194.127 16.467C194.127 17.5156 194.259 18.4755 194.529 19.3132C194.799 20.151 195.185 20.8612 195.692 21.4437C196.2 22.0263 196.823 22.4701 197.561 22.7753C198.3 23.0804 199.138 23.2358 200.086 23.2358C201.034 23.2358 201.855 23.0804 202.589 22.7753C203.322 22.4701 203.939 22.0263 204.446 21.4437C204.953 20.8612 205.339 20.151 205.609 19.3132C205.879 18.4755 206.012 17.5267 206.012 16.467Z" fill="#221F1F"/>
<path d="M218.652 19.2301V27.0752H213.762V5.87012H220.614C222.141 5.87012 223.437 6.03101 224.512 6.34171C225.587 6.65796 226.463 7.09626 227.141 7.65662C227.819 8.21699 228.315 8.88277 228.624 9.64841C228.933 10.4141 229.087 11.2518 229.087 12.1506C229.087 12.8386 228.993 13.4877 228.811 14.1036C228.63 14.7139 228.354 15.2798 227.996 15.8013C227.632 16.3228 227.191 16.7833 226.667 17.1939C226.143 17.5989 225.537 17.9374 224.854 18.1981C225.179 18.3646 225.487 18.5699 225.774 18.8084C226.061 19.0525 226.309 19.3466 226.518 19.6961L231 27.0752H226.573C225.752 27.0752 225.168 26.7645 224.809 26.1431L221.309 19.9846C221.155 19.7128 220.973 19.5186 220.769 19.4021C220.559 19.2856 220.267 19.2301 219.892 19.2301H218.647H218.652ZM218.652 15.8402H220.62C221.287 15.8402 221.855 15.7569 222.318 15.5849C222.786 15.4129 223.167 15.1799 223.47 14.8803C223.768 14.5807 223.983 14.2256 224.12 13.8262C224.253 13.4212 224.324 12.9884 224.324 12.5224C224.324 11.5903 224.021 10.8635 223.42 10.3364C222.819 9.81486 221.882 9.54855 220.62 9.54855H218.652V15.8346V15.8402Z" fill="#221F1F"/>
<path d="M86.6616 33.3667V34.6761H81.0114V38.6097H85.5867V39.8691H81.0114V43.9137H86.6616V45.2231H79.4072V33.3722H86.6616V33.3667Z" fill="#221F1F"/>
<path d="M88.9548 45.2174V36.8397H89.8258C90.0353 36.8397 90.1676 36.9396 90.2227 37.1448L90.3385 38.0547C90.7023 37.6553 91.1047 37.3279 91.5512 37.0783C91.9977 36.8286 92.5159 36.7065 93.1002 36.7065C93.5522 36.7065 93.9546 36.7842 94.3019 36.934C94.6492 37.0838 94.9414 37.3002 95.1729 37.5776C95.4044 37.855 95.5808 38.1934 95.7021 38.5818C95.8234 38.9702 95.884 39.4029 95.884 39.8801V45.2119H94.4232V39.8801C94.4232 39.2476 94.2799 38.7538 93.9932 38.4043C93.7066 38.0547 93.2656 37.8772 92.6758 37.8772C92.2403 37.8772 91.8379 37.9826 91.463 38.1934C91.0882 38.4043 90.7409 38.6872 90.4267 39.0479V45.2174H88.9659H88.9548Z" fill="#221F1F"/>
<path d="M101.121 36.701C101.485 36.701 101.821 36.7399 102.135 36.8231C102.449 36.9008 102.736 37.0228 102.995 37.1726H105.255V37.7164C105.255 37.8994 105.14 38.016 104.908 38.0659L103.965 38.199C104.153 38.5597 104.247 38.9591 104.247 39.3974C104.247 39.808 104.169 40.1742 104.015 40.5071C103.861 40.84 103.64 41.1285 103.365 41.3615C103.089 41.6001 102.758 41.7832 102.378 41.9052C101.997 42.0328 101.578 42.0939 101.126 42.0939C100.735 42.0939 100.371 42.0495 100.024 41.9551C99.8476 42.0717 99.7153 42.1937 99.6271 42.3213C99.5389 42.4545 99.4893 42.5821 99.4893 42.7041C99.4893 42.9094 99.5664 43.0648 99.7263 43.1702C99.8862 43.2756 100.096 43.3533 100.36 43.3977C100.625 43.4421 100.922 43.4642 101.253 43.4642H102.279C102.626 43.4642 102.968 43.4975 103.304 43.5586C103.64 43.6196 103.938 43.7195 104.197 43.8582C104.462 43.9969 104.671 44.1911 104.831 44.4352C104.991 44.6793 105.068 45.0011 105.068 45.3895C105.068 45.7501 104.98 46.1052 104.803 46.4436C104.627 46.782 104.368 47.0872 104.037 47.3535C103.701 47.6198 103.293 47.8306 102.813 47.9915C102.334 48.1524 101.788 48.2301 101.176 48.2301C100.564 48.2301 100.035 48.1691 99.5775 48.047C99.1199 47.925 98.7396 47.7641 98.4419 47.5588C98.1387 47.3535 97.9127 47.1205 97.7639 46.8486C97.615 46.5823 97.5378 46.2994 97.5378 46.0053C97.5378 45.5892 97.6701 45.2397 97.9292 44.9511C98.1883 44.6626 98.5466 44.4296 98.9986 44.2576C98.7616 44.1467 98.5742 44.0024 98.4364 43.8138C98.2986 43.6307 98.2269 43.381 98.2269 43.0759C98.2269 42.9538 98.2489 42.8318 98.293 42.6986C98.3371 42.571 98.4033 42.4434 98.497 42.3158C98.5852 42.1882 98.701 42.0661 98.8278 41.9551C98.9601 41.8386 99.1144 41.7388 99.2853 41.65C98.8719 41.417 98.5521 41.1118 98.3206 40.729C98.0891 40.3462 97.9733 39.8968 97.9733 39.3863C97.9733 38.9758 98.0505 38.6096 98.2048 38.2767C98.3592 37.9438 98.5797 37.6609 98.8553 37.4223C99.1365 37.1893 99.4672 37.0062 99.8531 36.8786C100.239 36.751 100.663 36.6899 101.121 36.6899V36.701ZM103.717 45.6447C103.717 45.4338 103.662 45.2618 103.546 45.1287C103.431 45.0011 103.276 44.9012 103.078 44.8291C102.879 44.757 102.653 44.707 102.394 44.6737C102.135 44.6405 101.865 44.6238 101.578 44.6238H100.708C100.41 44.6238 100.129 44.585 99.8586 44.5128C99.5444 44.6626 99.2908 44.8457 99.0979 45.0621C98.9049 45.2785 98.8057 45.5337 98.8057 45.8333C98.8057 46.0219 98.8553 46.1995 98.949 46.3604C99.0427 46.5213 99.1916 46.6655 99.39 46.782C99.5885 46.8986 99.8365 46.9929 100.134 47.065C100.432 47.1371 100.785 47.1704 101.193 47.1704C101.601 47.1704 101.942 47.1316 102.251 47.0595C102.565 46.9873 102.83 46.8819 103.045 46.7488C103.26 46.6156 103.425 46.4547 103.541 46.2661C103.657 46.083 103.712 45.8777 103.712 45.6502L103.717 45.6447ZM101.121 41.1229C101.419 41.1229 101.678 41.0841 101.904 41.0009C102.13 40.9176 102.323 40.8011 102.477 40.6513C102.631 40.5015 102.747 40.324 102.824 40.1187C102.901 39.9134 102.94 39.6859 102.94 39.4363C102.94 38.9259 102.786 38.5153 102.477 38.2101C102.168 37.905 101.716 37.7552 101.126 37.7552C100.537 37.7552 100.09 37.905 99.7814 38.2101C99.4727 38.5153 99.3184 38.9203 99.3184 39.4363C99.3184 39.6859 99.357 39.9134 99.4396 40.1187C99.5168 40.324 99.6381 40.5015 99.7869 40.6513C99.9413 40.8011 100.129 40.9176 100.355 41.0009C100.581 41.0841 100.834 41.1229 101.126 41.1229H101.121Z" fill="#221F1F"/>
<path d="M108.904 34.2101C108.904 34.3543 108.877 34.4875 108.816 34.6096C108.761 34.7316 108.684 34.8426 108.585 34.9424C108.491 35.0368 108.375 35.1144 108.254 35.1699C108.127 35.2254 107.995 35.2531 107.852 35.2531C107.708 35.2531 107.576 35.2254 107.455 35.1699C107.333 35.1144 107.223 35.0368 107.124 34.9424C107.03 34.8481 106.953 34.7372 106.898 34.6096C106.843 34.4875 106.815 34.3543 106.815 34.2101C106.815 34.0658 106.843 33.9271 106.898 33.7995C106.953 33.6719 107.03 33.5554 107.124 33.4611C107.218 33.3668 107.328 33.2891 107.455 33.2336C107.576 33.1781 107.708 33.1504 107.852 33.1504C107.995 33.1504 108.127 33.1781 108.254 33.2336C108.381 33.2891 108.491 33.3668 108.585 33.4611C108.678 33.5554 108.756 33.6719 108.816 33.7995C108.871 33.9271 108.904 34.0658 108.904 34.2101ZM108.574 36.8399V45.2176H107.113V36.8399H108.574Z" fill="#221F1F"/>
<path d="M111.385 45.2174V36.8397H112.256C112.465 36.8397 112.598 36.9396 112.653 37.1448L112.769 38.0547C113.132 37.6553 113.535 37.3279 113.981 37.0783C114.428 36.8286 114.946 36.7065 115.53 36.7065C115.982 36.7065 116.385 36.7842 116.732 36.934C117.079 37.0838 117.372 37.3002 117.603 37.5776C117.835 37.855 118.011 38.1934 118.132 38.5818C118.254 38.9702 118.314 39.4029 118.314 39.8801V45.2119H116.853V39.8801C116.853 39.2476 116.71 38.7538 116.423 38.4043C116.137 38.0547 115.696 37.8772 115.106 37.8772C114.67 37.8772 114.268 37.9826 113.893 38.1934C113.518 38.4043 113.171 38.6872 112.851 39.0479V45.2174H111.391H111.385Z" fill="#221F1F"/>
<path d="M124.047 36.7065C124.549 36.7065 125.006 36.7898 125.425 36.9562C125.85 37.1227 126.214 37.3668 126.517 37.683C126.825 37.9993 127.062 38.3932 127.233 38.8592C127.404 39.3253 127.492 39.8523 127.492 40.4515C127.492 40.6846 127.465 40.8399 127.421 40.912C127.371 40.9897 127.277 41.0286 127.14 41.0286H121.6C121.611 41.5556 121.682 42.0161 121.815 42.41C121.947 42.7984 122.129 43.1258 122.355 43.3921C122.586 43.6528 122.856 43.8526 123.176 43.9802C123.496 44.1078 123.849 44.1744 124.246 44.1744C124.615 44.1744 124.929 44.13 125.194 44.0468C125.458 43.9635 125.69 43.8692 125.877 43.7693C126.07 43.6695 126.23 43.5807 126.357 43.4919C126.484 43.4087 126.599 43.3643 126.688 43.3643C126.809 43.3643 126.903 43.4087 126.969 43.503L127.382 44.0412C127.2 44.2631 126.985 44.4518 126.732 44.6182C126.478 44.7791 126.208 44.9123 125.921 45.0177C125.635 45.1231 125.337 45.2008 125.028 45.2563C124.72 45.3062 124.416 45.3339 124.113 45.3339C123.54 45.3339 123.011 45.2341 122.526 45.0399C122.041 44.8457 121.622 44.5572 121.269 44.1799C120.916 43.8026 120.64 43.3366 120.442 42.7762C120.244 42.2214 120.144 41.5778 120.144 40.8566C120.144 40.274 120.232 39.7247 120.409 39.2199C120.585 38.715 120.844 38.2711 121.175 37.8994C121.511 37.5277 121.919 37.2336 122.399 37.0228C122.878 36.812 123.424 36.7065 124.025 36.7065H124.047ZM124.08 37.7884C123.375 37.7884 122.818 37.9937 122.41 38.4043C122.002 38.8148 121.754 39.3863 121.655 40.1131H126.18C126.18 39.7691 126.136 39.4584 126.043 39.1755C125.949 38.8925 125.811 38.6484 125.629 38.4376C125.447 38.2323 125.227 38.0714 124.968 37.9604C124.709 37.8495 124.411 37.7884 124.075 37.7884H124.08Z" fill="#221F1F"/>
<path d="M132.889 36.7065C133.385 36.7065 133.848 36.7898 134.267 36.9562C134.692 37.1227 135.056 37.3668 135.359 37.683C135.668 37.9993 135.905 38.3932 136.075 38.8592C136.246 39.3253 136.335 39.8523 136.335 40.4515C136.335 40.6846 136.312 40.8399 136.263 40.912C136.213 40.9897 136.12 41.0286 135.982 41.0286H130.442C130.453 41.5556 130.524 42.0161 130.657 42.41C130.789 42.7984 130.971 43.1258 131.197 43.3921C131.428 43.6528 131.699 43.8526 132.018 43.9802C132.338 44.1078 132.691 44.1744 133.088 44.1744C133.457 44.1744 133.771 44.13 134.036 44.0468C134.3 43.9635 134.532 43.8692 134.725 43.7693C134.918 43.6695 135.078 43.5807 135.204 43.4919C135.331 43.4087 135.447 43.3643 135.541 43.3643C135.662 43.3643 135.756 43.4087 135.822 43.503L136.235 44.0412C136.053 44.2631 135.838 44.4518 135.585 44.6182C135.331 44.7791 135.061 44.9123 134.774 45.0177C134.488 45.1231 134.19 45.2008 133.881 45.2563C133.573 45.3062 133.27 45.3339 132.972 45.3339C132.399 45.3339 131.864 45.2341 131.384 45.0399C130.899 44.8457 130.48 44.5572 130.127 44.1799C129.775 43.8026 129.499 43.3366 129.301 42.7762C129.102 42.2214 129.003 41.5778 129.003 40.8566C129.003 40.274 129.091 39.7247 129.273 39.2199C129.449 38.715 129.709 38.2711 130.039 37.8994C130.376 37.5277 130.783 37.2336 131.263 37.0228C131.743 36.812 132.288 36.7065 132.889 36.7065ZM132.917 37.7884C132.211 37.7884 131.654 37.9937 131.252 38.4043C130.844 38.8148 130.596 39.3863 130.497 40.1131H135.023C135.023 39.7691 134.978 39.4584 134.885 39.1755C134.791 38.8925 134.653 38.6484 134.471 38.4376C134.289 38.2323 134.069 38.0714 133.81 37.9604C133.551 37.8495 133.253 37.7884 132.917 37.7884Z" fill="#221F1F"/>
<path d="M138.435 45.2175V36.8397H139.273C139.433 36.8397 139.543 36.8675 139.603 36.9285C139.664 36.9895 139.703 37.095 139.725 37.2448L139.824 38.5541C140.111 37.9716 140.463 37.5111 140.882 37.1837C141.301 36.8564 141.792 36.6899 142.36 36.6899C142.591 36.6899 142.795 36.7177 142.983 36.7676C143.17 36.8175 143.341 36.8952 143.501 36.984L143.313 38.0825C143.275 38.2212 143.192 38.2878 143.06 38.2878C142.983 38.2878 142.867 38.2601 142.707 38.2101C142.547 38.1602 142.327 38.1325 142.04 38.1325C141.533 38.1325 141.103 38.2823 140.761 38.5763C140.419 38.8759 140.133 39.3087 139.901 39.8746V45.2064H138.44L138.435 45.2175Z" fill="#221F1F"/>
<path d="M147.238 34.2101C147.238 34.3543 147.211 34.4875 147.156 34.6096C147.1 34.7316 147.023 34.8426 146.924 34.9424C146.83 35.0368 146.715 35.1144 146.593 35.1699C146.467 35.2254 146.334 35.2531 146.191 35.2531C146.048 35.2531 145.915 35.2254 145.794 35.1699C145.673 35.1144 145.562 35.0368 145.463 34.9424C145.37 34.8481 145.292 34.7372 145.237 34.6096C145.182 34.4875 145.155 34.3543 145.155 34.2101C145.155 34.0658 145.182 33.9271 145.237 33.7995C145.292 33.6719 145.37 33.5554 145.463 33.4611C145.557 33.3668 145.667 33.2891 145.794 33.2336C145.915 33.1781 146.048 33.1504 146.191 33.1504C146.334 33.1504 146.467 33.1781 146.593 33.2336C146.72 33.2891 146.83 33.3668 146.924 33.4611C147.018 33.5554 147.095 33.6719 147.156 33.7995C147.211 33.9271 147.238 34.0658 147.238 34.2101ZM146.913 36.8399V45.2176H145.452V36.8399H146.913Z" fill="#221F1F"/>
<path d="M149.719 45.2174V36.8397H150.59C150.799 36.8397 150.931 36.9396 150.987 37.1448L151.102 38.0547C151.466 37.6553 151.869 37.3279 152.315 37.0783C152.762 36.8286 153.274 36.7065 153.864 36.7065C154.316 36.7065 154.719 36.7842 155.066 36.934C155.413 37.0838 155.705 37.3002 155.937 37.5776C156.168 37.855 156.345 38.1934 156.466 38.5818C156.587 38.9702 156.648 39.4029 156.648 39.8801V45.2119H155.187V39.8801C155.187 39.2476 155.044 38.7538 154.757 38.4043C154.47 38.0547 154.03 37.8772 153.44 37.8772C153.004 37.8772 152.602 37.9826 152.227 38.1934C151.852 38.4043 151.505 38.6872 151.191 39.0479V45.2174H149.73H149.719Z" fill="#221F1F"/>
<path d="M161.89 36.701C162.254 36.701 162.59 36.7399 162.905 36.8231C163.219 36.9008 163.505 37.0228 163.765 37.1726H166.025V37.7164C166.025 37.8994 165.909 38.016 165.677 38.0659L164.735 38.199C164.922 38.5597 165.016 38.9591 165.016 39.3974C165.016 39.808 164.939 40.1742 164.784 40.5071C164.63 40.84 164.409 41.1285 164.134 41.3615C163.858 41.6001 163.527 41.7832 163.147 41.9052C162.767 42.0328 162.348 42.0939 161.896 42.0939C161.51 42.0939 161.141 42.0495 160.793 41.9551C160.617 42.0717 160.485 42.1937 160.396 42.3213C160.303 42.4545 160.259 42.5821 160.259 42.7041C160.259 42.9094 160.341 43.0648 160.496 43.1702C160.655 43.2756 160.865 43.3533 161.13 43.3977C161.394 43.4421 161.692 43.4642 162.023 43.4642H163.048C163.395 43.4642 163.737 43.4975 164.068 43.5586C164.404 43.6196 164.702 43.7195 164.961 43.8582C165.225 43.9969 165.435 44.1911 165.595 44.4352C165.755 44.6793 165.832 45.0011 165.832 45.3895C165.832 45.7501 165.743 46.1052 165.562 46.4436C165.385 46.782 165.126 47.0872 164.795 47.3535C164.459 47.6198 164.051 47.8306 163.572 47.9915C163.086 48.1524 162.546 48.2301 161.934 48.2301C161.322 48.2301 160.793 48.1691 160.336 48.047C159.878 47.925 159.498 47.7641 159.2 47.5588C158.897 47.3535 158.671 47.1205 158.522 46.8486C158.373 46.5823 158.296 46.2994 158.296 46.0053C158.296 45.5892 158.428 45.2397 158.688 44.9511C158.947 44.6626 159.305 44.4296 159.757 44.2576C159.52 44.1467 159.332 44.0024 159.195 43.8138C159.057 43.6307 158.985 43.381 158.985 43.0759C158.985 42.9538 159.007 42.8318 159.051 42.6986C159.095 42.571 159.162 42.4434 159.25 42.3158C159.344 42.1882 159.454 42.0661 159.586 41.9551C159.718 41.8386 159.873 41.7388 160.044 41.65C159.63 41.417 159.31 41.1118 159.079 40.729C158.847 40.3462 158.732 39.8968 158.732 39.3863C158.732 38.9758 158.809 38.6096 158.963 38.2767C159.117 37.9438 159.338 37.6609 159.614 37.4223C159.895 37.1893 160.225 37.0062 160.611 36.8786C160.997 36.751 161.422 36.6899 161.879 36.6899L161.89 36.701ZM164.487 45.6447C164.487 45.4338 164.432 45.2618 164.316 45.1287C164.2 45.0011 164.046 44.9012 163.847 44.8291C163.649 44.757 163.423 44.707 163.164 44.6737C162.905 44.6405 162.634 44.6238 162.348 44.6238H161.477C161.179 44.6238 160.898 44.585 160.633 44.5128C160.319 44.6626 160.066 44.8457 159.873 45.0621C159.68 45.2785 159.581 45.5337 159.581 45.8333C159.581 46.0219 159.63 46.1995 159.724 46.3604C159.818 46.5213 159.966 46.6655 160.165 46.782C160.363 46.8986 160.611 46.9929 160.909 47.065C161.207 47.1371 161.56 47.1704 161.967 47.1704C162.375 47.1704 162.717 47.1316 163.026 47.0595C163.335 46.9873 163.605 46.8819 163.82 46.7488C164.035 46.6156 164.2 46.4547 164.316 46.2661C164.432 46.083 164.487 45.8777 164.487 45.6502V45.6447ZM161.89 41.1229C162.188 41.1229 162.447 41.0841 162.673 41.0009C162.899 40.9176 163.092 40.8011 163.246 40.6513C163.401 40.5015 163.516 40.324 163.594 40.1187C163.671 39.9134 163.709 39.6859 163.709 39.4363C163.709 38.9259 163.555 38.5153 163.246 38.2101C162.938 37.905 162.486 37.7552 161.896 37.7552C161.306 37.7552 160.865 37.905 160.551 38.2101C160.242 38.5153 160.088 38.9203 160.088 39.4363C160.088 39.6859 160.126 39.9134 160.209 40.1187C160.292 40.324 160.407 40.5015 160.556 40.6513C160.711 40.8011 160.898 40.9176 161.124 41.0009C161.35 41.0841 161.604 41.1229 161.896 41.1229H161.89Z" fill="#221F1F"/>
<path fill-rule="evenodd" clip-rule="evenodd" d="M69.6556 31.5912C69.6556 31.5912 27.1875 11.2905 0 50C0 50 24.6793 27.1749 59.259 42.055L69.6556 31.5856V31.5912Z" fill="#2077BD"/>
<path fill-rule="evenodd" clip-rule="evenodd" d="M51.3155 18.9194L60.0528 10.1255C55.6648 9.7871 50.8359 9.87588 45.8306 10.7469C35.0317 12.6222 23.3893 18.126 13.4834 30.798L11.8352 33.2503C14.5859 30.9256 28.8301 19.8459 49.5019 20.7447L51.31 18.9194H51.3155Z" fill="#2077BD"/>
<path fill-rule="evenodd" clip-rule="evenodd" d="M24.5139 16.5945C26.107 15.2186 33.8906 8.91034 45.8858 5.73125L42.0381 0C36.3712 3.3178 30.8202 8.07812 25.7432 14.7636L24.5139 16.5945Z" fill="#12A991"/>
</g>
<defs>
<clipPath id="clip0_89_1204">
<rect width="231" height="50" fill="white"/>
</clipPath>
</defs>
</svg>
