<svg width="225" height="35" viewBox="0 0 225 35" fill="none" xmlns="http://www.w3.org/2000/svg">
<g clip-path="url(#clip0_89_948)">
<path d="M179.853 0H174.438V34.983H179.853V0ZM225 0H190.326V5.46808H204.953V34.9872H210.368V5.46808H224.996V0H225Z" fill="#D56528"/>
<path d="M91.0148 34.983H96.4304V0H91.0148V34.983ZM5.41981 0L0 5.46809V34.9872H5.41981V5.46809H29.2585V27.2468L18.3599 16.2511L14.5301 20.1191L29.2585 34.9787V34.9872H29.2754L34.6783 29.5362V5.46809L29.2585 0H5.41981ZM74.768 14.7745H50.9251V5.48511H74.768V14.7787V14.7745ZM74.768 0.0170213H50.9251L45.5095 5.48085V35H50.9251V20.2426H74.8439L80.1836 14.8553V5.47234L74.7764 0.0170213H74.768ZM112.681 14.7617V5.46809H141.931V0H113.166L107.262 5.95745V14.7574L112.677 20.2213H136.52V29.5149H107.266V34.983H136.52L141.94 29.5149V20.217L136.529 14.7574H112.681V14.7617Z" fill="#434345"/>
</g>
<defs>
<clipPath id="clip0_89_948">
<rect width="225" height="35" fill="white"/>
</clipPath>
</defs>
</svg>
