<svg width="194" height="41" viewBox="0 0 194 41" fill="none" xmlns="http://www.w3.org/2000/svg">
<g clip-path="url(#clip0_89_1020)">
<path fill-rule="evenodd" clip-rule="evenodd" d="M29.1893 1.2793H20.1743V16.6843H20.0764C18.9363 15.1606 17.6217 14.0703 16.1284 13.4136C14.6351 12.8556 12.9674 12.5766 11.1337 12.5766C7.54303 12.6625 4.79895 14.1004 2.89724 16.8947C0.965746 19.6332 0 22.7579 0 26.2605C0 30.3596 1.02956 33.7934 3.09294 36.5705C5.0925 39.3992 8.02377 40.8543 11.891 40.9401C14.0182 40.9058 15.8944 40.3692 17.5196 39.3219C19.1277 38.2875 20.2254 37.0084 20.8082 35.4846H20.9316V40.3134H29.1936V1.2793H29.1893ZM9.27882 26.4665C9.27882 24.6036 9.76382 23.0241 10.7423 21.7364C11.6357 20.4487 12.9716 19.7877 14.7414 19.7533C16.4304 19.7877 17.7578 20.4487 18.715 21.7364C19.6893 23.0241 20.1956 24.7281 20.2254 26.8485C20.1913 28.8487 19.6553 30.4755 18.6172 31.7288C17.5919 33.0509 16.3028 33.729 14.7414 33.7634C13.0354 33.7634 11.7166 33.068 10.7934 31.6773C9.78509 30.3896 9.28307 28.6513 9.28307 26.4665" fill="#D91F3D"/>
<path fill-rule="evenodd" clip-rule="evenodd" d="M32.7928 39.2831C36.5792 40.4291 40.438 41 44.369 41C48.8957 41.0386 52.8395 40.1244 56.1877 38.2572C59.5912 36.3729 61.3525 32.9348 61.4589 27.9428C61.4589 26.11 61.2121 24.5777 60.7186 23.3415C60.2039 22.0839 59.5019 21.0408 58.6 20.2081C57.7406 19.3797 56.7578 18.6758 55.6602 18.1006C54.5796 17.5469 53.4351 17.0919 52.2226 16.74C51.1037 16.3708 49.9976 16.0103 48.8957 15.6583C47.7768 15.3235 46.7685 15.0016 45.8708 14.6882C44.9732 14.3577 44.2584 13.9414 43.7266 13.4392C43.1608 12.9584 42.8757 12.3189 42.8757 11.5248C42.9481 9.82506 43.8117 8.76057 45.4709 8.33564C46.2239 8.11244 46.9982 7.9665 47.7896 7.88924C48.5809 7.85061 49.2956 7.83344 49.9423 7.83344C52.9969 7.83344 55.9239 8.43436 58.7191 9.6362L59.3828 1.46796C56.6046 0.527952 53.2692 0.0386307 49.3679 0C47.3896 0 45.4241 0.167399 43.4628 0.497906C41.4846 0.884213 39.6637 1.53235 37.996 2.43802C36.3623 3.3437 35.0392 4.59276 34.0224 6.1809C32.9503 7.76905 32.4185 9.75639 32.4185 12.1429C32.4525 15.6368 33.4523 18.1993 35.4135 19.8261C36.3112 20.6588 37.3195 21.3499 38.4342 21.9079C39.5318 22.483 40.6422 22.9595 41.7611 23.3501C42.9693 23.7192 44.1138 24.0798 45.1944 24.4317C46.275 24.7665 47.245 25.1271 48.1086 25.5134C49.0233 25.8825 49.7381 26.3719 50.2486 26.9857C50.7421 27.5952 50.9889 28.3721 50.9889 29.3121C50.9548 30.8659 50.2911 31.9003 49.0063 32.4197C47.7768 32.9562 46.2707 33.2052 44.4882 33.1666C40.0636 33.0936 36.4559 32.2223 33.665 30.5568L32.7843 39.2788L32.7928 39.2831Z" fill="#034EA1"/>
<path fill-rule="evenodd" clip-rule="evenodd" d="M64.6753 40.3174H74.805V26.4576H78.8509C89.104 26.346 94.3028 22.0923 94.4475 13.6966C94.4858 4.98321 88.6785 0.647993 77.0215 0.682331H64.6753V40.3174ZM74.805 8.17239H77.6086C79.5146 8.17239 81.1185 8.53294 82.4118 9.25404C83.6499 10.0867 84.288 11.5032 84.3263 13.5034C84.288 15.5208 83.6499 16.9458 82.4118 17.7785C81.1142 18.6112 79.5146 19.0061 77.6086 18.9718H74.805V8.17239Z" fill="#034EA1"/>
<path fill-rule="evenodd" clip-rule="evenodd" d="M90.0825 40.3177H100.378L103.386 31.8618H117.672L120.493 40.3177H131.614L116.949 0.682617H104.526L90.0825 40.3177ZM116.064 24.3675H106.224L111.282 8.85515H111.418L116.064 24.3675Z" fill="#034EA1"/>
<path fill-rule="evenodd" clip-rule="evenodd" d="M162.432 31.1149C159.556 32.4456 156.383 33.128 152.924 33.1667C149.142 33.1667 146.104 32.0464 143.811 29.8101C141.45 27.6081 140.25 24.5563 140.216 20.6546C140.25 16.8817 141.343 13.817 143.492 11.4691C145.606 9.0826 148.474 7.87217 152.098 7.83354C155.523 7.83354 158.837 8.76068 162.032 10.6235L162.858 2.05611C159.216 0.759838 155.455 0.0773636 151.567 0.00439453C145.177 0.00439453 139.973 1.70414 135.962 5.10364C131.894 8.55894 129.827 13.744 129.754 20.6546C129.895 28.046 132.277 33.2954 136.889 36.3988C139.037 37.9869 141.399 39.1415 143.973 39.8626C146.529 40.6224 149.078 41.0001 151.613 41.0001C154.187 40.9615 156.37 40.7683 158.165 40.4164C159.939 40.1202 161.522 39.7811 162.905 39.3948L162.424 31.1149H162.432Z" fill="#034EA1"/>
<path fill-rule="evenodd" clip-rule="evenodd" d="M166.589 40.3177H194V32.8276H176.71V23.8438H192.485V16.3581H176.71V8.17267H193.387V0.682617H166.589V40.3177Z" fill="#034EA1"/>
</g>
<defs>
<clipPath id="clip0_89_1020">
<rect width="194" height="41" fill="white"/>
</clipPath>
</defs>
</svg>
