<svg width="209" height="54" viewBox="0 0 209 54" fill="none" xmlns="http://www.w3.org/2000/svg">
<g clip-path="url(#clip0_89_1193)">
<path d="M39.8369 24.666L25.8289 32.6642C23.2078 34.1599 21.5803 36.9426 21.5803 39.9341V47.1816L17.6571 43.9473C17.2974 43.6143 16.8519 43.3998 16.3608 43.3208L8.52598 42.0903L9.74233 34.4929C9.86225 33.7253 9.60528 32.9464 9.05135 32.3989L3.58637 26.9915L9.05135 21.5898C9.60528 21.0423 9.86225 20.2578 9.74233 19.4958L8.52598 11.8984L16.3608 10.6679C16.8519 10.5889 17.2974 10.3744 17.6571 10.0414L21.5803 6.80715L24.8067 4.14864V0L15.6356 7.55221L7.25253 8.86736C5.91627 9.0762 4.99687 10.3236 5.20816 11.6444L6.48161 19.6143L0.719677 25.3208C0.285676 25.7498 0.0287015 26.3255 0.00585938 26.9351V27.0028V27.0706C0.0344121 27.6801 0.285676 28.2502 0.719677 28.6849L6.48732 34.3913L5.21387 42.3556C5.00258 43.6764 5.91627 44.9238 7.25824 45.1326L15.6413 46.4478L24.8124 54V39.9341C24.8124 38.0771 25.8232 36.35 27.445 35.4243L42.2067 27.0028L39.8483 24.666H39.8369Z" fill="#EC1C24"/>
<path d="M37.6497 22.5043L35.2913 20.1675L15.293 31.5805L17.6571 33.9172L37.6497 22.5043Z" fill="#EC1C24"/>
<path d="M52.8569 26.9294C52.8283 26.3198 52.5771 25.7498 52.1431 25.3208L46.3754 19.6143L47.6489 11.65C47.8602 10.3293 46.9465 9.08184 45.6045 8.873L37.2214 7.55786L28.0503 0V14.0659C28.0503 15.9229 27.0395 17.6444 25.4177 18.5757L10.656 26.9972L13.0145 29.334L27.0224 21.3358C29.6435 19.8401 31.271 17.0517 31.271 14.0659V6.81279L35.1942 10.047C35.554 10.3801 35.9994 10.5945 36.4905 10.6736L44.3253 11.904L43.109 19.5014C42.9834 20.269 43.246 21.048 43.8 21.5955L49.265 26.9972L43.8 32.3989C43.246 32.9464 42.9891 33.7309 43.109 34.4929L44.3253 42.0903L36.4905 43.3208C35.9994 43.3942 35.554 43.6087 35.1942 43.9473L31.271 47.1816L28.0446 49.8401V53.9944L37.2157 46.4421L45.5988 45.127C46.9351 44.9182 47.8545 43.6707 47.6432 42.35L46.3697 34.3801L52.1374 28.6736C52.5714 28.2446 52.8283 27.6689 52.8512 27.0649V26.9972V26.9294H52.8569Z" fill="#EC1C24"/>
<path d="M89.1986 38.1054H73.8944C72.7351 38.1054 71.7586 37.8514 70.9934 37.349C70.194 36.8241 69.7942 35.9549 69.7942 34.7752V29.6444H85.2641C85.4811 29.6444 85.6581 29.4694 85.6581 29.2549V24.762C85.6581 24.5475 85.4811 24.3669 85.2641 24.3669H69.7942V19.2361C69.7942 18.0565 70.1997 17.1872 70.9934 16.6623C71.7586 16.1599 72.7351 15.9059 73.8944 15.9059H88.7989C89.0159 15.9059 89.1929 15.731 89.1929 15.5108V11.0179C89.1929 10.8034 89.0159 10.6284 88.7989 10.6284H73.8944C70.6851 10.6284 68.2638 11.4638 66.6877 13.1176C65.1059 14.7714 64.3064 16.8655 64.3064 19.3377V34.6905C64.3064 37.1628 65.1059 39.2568 66.6877 40.9106C68.2638 42.5588 70.6851 43.3942 73.8944 43.3942H89.1986C89.4156 43.3942 89.5927 43.2192 89.5927 43.0047V38.5061C89.5927 38.2916 89.4156 38.1167 89.1986 38.1167" fill="#EC1C24"/>
<path d="M117.066 10.6851H105.622C103.812 10.6851 102.11 10.9447 100.568 11.464C99.0322 11.9776 97.6788 12.7678 96.5424 13.8177C95.406 14.8676 94.5094 16.1827 93.8699 17.718C93.2303 19.2646 92.9048 21.0708 92.9048 23.0858V31.2025C92.9048 33.2232 93.2189 35.0181 93.8356 36.5364C94.4466 38.0491 95.3318 39.3248 96.4682 40.3238C97.6046 41.3285 98.9694 42.0962 100.534 42.6098C102.104 43.1291 103.869 43.3887 105.771 43.3887H117.072C117.289 43.3887 117.472 43.2137 117.472 42.9993V38.5007C117.472 38.2862 117.294 38.1112 117.072 38.1112H105.845C103.709 38.1112 101.916 37.5129 100.517 36.3276C99.1064 35.131 98.3926 33.3304 98.3926 30.9654V23.2664C98.3926 20.9014 99.1064 19.0726 100.511 17.8365C101.91 16.6004 103.703 15.9739 105.839 15.9739H117.066C117.283 15.9739 117.466 15.7989 117.466 15.5844V11.0915C117.466 10.877 117.289 10.6963 117.066 10.6963" fill="#EC1C24"/>
<path d="M145.111 10.6851H133.661C131.851 10.6851 130.155 10.9447 128.607 11.464C127.071 11.9776 125.718 12.7678 124.581 13.8177C123.445 14.8676 122.548 16.1827 121.909 17.718C121.269 19.2646 120.944 21.0708 120.944 23.0858V31.2025C120.944 33.2232 121.258 35.0181 121.869 36.5364C122.48 38.0491 123.365 39.3248 124.501 40.3238C125.638 41.3285 127.002 42.0962 128.567 42.6098C130.138 43.1291 131.902 43.3887 133.804 43.3887H145.105C145.322 43.3887 145.499 43.2137 145.499 42.9993V38.5007C145.499 38.2862 145.322 38.1112 145.105 38.1112H133.878C131.742 38.1112 129.949 37.5129 128.55 36.3276C127.14 35.131 126.426 33.3304 126.426 30.9654V23.2664C126.426 20.9014 127.14 19.0783 128.544 17.8365C129.943 16.6004 131.737 15.9739 133.872 15.9739H145.099C145.316 15.9739 145.493 15.7989 145.493 15.5844V11.0915C145.493 10.877 145.316 10.6963 145.099 10.6963" fill="#EC1C24"/>
<path d="M208.361 30.6548C207.938 29.6613 207.327 28.8034 206.556 28.1148C205.779 27.4149 204.843 26.8279 203.769 26.3594C202.69 25.8852 201.485 25.4563 200.183 25.0781L191.566 22.7018C190.23 22.3123 189.185 21.8664 188.465 21.3754C187.694 20.8504 187.3 20.1336 187.3 19.2361C187.3 18.0565 187.706 17.1872 188.499 16.6623C189.265 16.1599 190.241 15.9059 191.4 15.9059H206.39C206.607 15.9059 206.784 15.731 206.784 15.5108V11.0179C206.784 10.8034 206.607 10.6284 206.39 10.6284H191.4C188.191 10.6284 185.764 11.4638 184.194 13.1176C182.612 14.7714 181.812 16.8655 181.812 19.3377C181.812 20.7375 182.041 21.9342 182.48 22.8824C182.926 23.8307 183.537 24.6378 184.308 25.2869C185.09 25.9417 186.009 26.4892 187.049 26.9069C188.1 27.3358 189.27 27.7197 190.515 28.0527L199.109 30.5757C200.537 30.9652 201.634 31.4563 202.359 32.0264C203.124 32.6247 203.507 33.4318 203.507 34.4139C203.507 35.5936 203.095 36.5136 202.29 37.1628C201.496 37.7949 200.474 38.1167 199.258 38.1167H182.64C182.423 38.1167 182.246 38.2916 182.246 38.5061V43.0047C182.246 43.2192 182.423 43.3942 182.64 43.3942H199.258C200.868 43.3942 202.307 43.1458 203.535 42.6548C204.757 42.1637 205.785 41.4977 206.579 40.6623C207.378 39.8269 207.984 38.8504 208.383 37.7611C208.789 36.666 208.989 35.492 208.989 34.2785C208.989 32.8787 208.772 31.6651 208.349 30.666" fill="#EC1C24"/>
<path d="M174.468 13.7498C173.361 12.7 172.007 11.9098 170.442 11.3961C168.872 10.8825 167.136 10.6172 165.28 10.6172H162.002C160.095 10.6172 158.325 10.8938 156.731 11.43C155.144 11.9662 153.768 12.7733 152.631 13.8232C151.501 14.8731 150.604 16.1769 149.959 17.7009C149.319 19.2249 148.994 21.0198 148.994 23.0462V31.1797C148.994 33.2004 149.331 34.9954 149.993 36.5194C150.655 38.0377 151.563 39.319 152.7 40.3237C153.836 41.3284 155.167 42.1017 156.657 42.6153C158.153 43.1289 159.781 43.3942 161.488 43.3942H165.349C167.062 43.3942 168.718 43.1346 170.26 42.6153C171.796 42.1017 173.166 41.3284 174.331 40.3237C175.485 39.319 176.404 38.0433 177.072 36.525C177.735 35.001 178.072 33.2061 178.072 31.1854V23.0518C178.072 21.0311 177.746 19.2193 177.107 17.6727C176.467 16.1261 175.582 14.811 174.468 13.7611M172.584 31.2475C172.584 33.6633 171.859 35.4808 170.42 36.6492C169.003 37.8063 167.222 38.3933 165.132 38.3933H161.854C159.712 38.3933 157.936 37.8063 156.56 36.6435C155.178 35.4751 154.476 33.6576 154.476 31.2418V23.0405C154.476 20.5344 155.178 18.6435 156.56 17.43C157.931 16.2221 159.712 15.6068 161.854 15.6068H165.132C167.267 15.6068 169.06 16.2051 170.46 17.3905C171.87 18.5871 172.584 20.4836 172.584 23.0405V31.2418V31.2475Z" fill="#EC1C24"/>
</g>
<defs>
<clipPath id="clip0_89_1193">
<rect width="209" height="54" fill="white"/>
</clipPath>
</defs>
</svg>
