<svg width="167" height="53" viewBox="0 0 167 53" fill="none" xmlns="http://www.w3.org/2000/svg">
<g clip-path="url(#clip0_89_812)">
<path d="M66.4031 0H50.0149V22.6164L59.8818 22.1595V6.1681L69.8054 21.6455L79.9559 21.1315L66.4031 0ZM0 0V52.8858H42.7565V47.6315H7.71205V28.3276H36.4054V23.2446H7.71205V5.25431H42.7565V0H0ZM95.947 20.389L105.984 19.875V0H95.947V20.389ZM95.947 46.0894L86.1368 30.7834L75.3059 30.2694L89.8795 52.9429H106.097V31.7543L96.0604 31.2974V46.1466L95.947 46.0894ZM49.9582 52.9429H59.8251V29.5269L49.9582 29.07V53V52.9429ZM113.526 0V9.70905H133.033V18.5614L147.493 17.8761V9.70905H167V0H113.526ZM133.09 52.9429H147.55V33.7532L133.09 33.0679V53V52.9429Z" fill="#211646"/>
</g>
<defs>
<clipPath id="clip0_89_812">
<rect width="167" height="53" fill="white"/>
</clipPath>
</defs>
</svg>
