<svg width="171" height="123" viewBox="0 0 171 123" fill="none" xmlns="http://www.w3.org/2000/svg">
<g clip-path="url(#clip0_89_972)">
<path d="M162.003 92.6454C159.575 92.6454 158.267 91.8108 158.267 90.3237C158.267 88.8366 159.428 88.0678 161.786 87.9261L167.118 87.6328V92.2458C164.76 92.5696 163.058 92.6454 162.003 92.6454ZM163.528 77.6074C160.918 77.6074 158.918 77.8907 156.056 78.4066L156.495 81.9271C158.6 81.5933 160.923 81.2594 163.205 81.2594C165.744 81.2594 167.123 82.2154 167.123 84.2792V84.5068L162.084 84.7951C156.823 85.0126 154.319 86.7931 154.319 90.2125C154.319 93.9555 156.682 96.0243 160.993 96.0243C163.205 96.0243 164.911 96.0243 171.005 95.1138V84.173C171.005 79.6762 168.612 77.6024 163.533 77.6024M144.312 77.744C141.808 77.744 138.799 78.2144 137.021 78.877C135.789 78.0728 134.154 77.744 132.235 77.744C128.898 77.744 124.616 78.3257 123.278 78.6494V95.478H127.449V81.8209C128.792 81.6236 130.059 81.5579 131.331 81.5579C134.017 81.5579 135.32 82.7617 135.32 85.5539V95.478H139.531V84.3955C139.531 83.5255 139.42 82.7617 139.238 82.0991C140.616 81.6995 142.03 81.5579 143.408 81.5579C146.094 81.5579 147.402 82.8983 147.402 85.6297V95.478H151.572V84.436C151.572 79.6358 148.669 77.744 144.317 77.744M110.52 92.6454C108.091 92.6454 106.784 91.8108 106.784 90.3237C106.784 88.8366 107.945 88.0678 110.303 87.9261L115.634 87.6328V92.2458C113.276 92.5696 111.57 92.6454 110.52 92.6454ZM112.045 77.6074C109.434 77.6074 107.435 77.8907 104.572 78.4066L105.006 81.9271C107.112 81.5933 109.429 81.2594 111.716 81.2594C114.256 81.2594 115.634 82.2154 115.634 84.2792V84.5068L110.59 84.7951C105.33 85.0126 102.83 86.7931 102.83 90.2125C102.83 93.9555 105.188 96.0243 109.505 96.0243C111.716 96.0243 113.423 96.0243 119.517 95.1138V84.173C119.517 79.6762 117.124 77.6024 112.045 77.6024M91.8945 92.1396C90.5162 92.1396 89.2843 92.175 86.9265 91.7754V81.568C88.3401 81.396 89.7892 81.2696 91.5714 81.2696C95.2722 81.2696 96.6859 83.6773 96.6859 86.9095C96.6859 89.8533 94.7976 92.1396 91.8996 92.1396M92.152 77.744C88.5219 77.744 84.8968 78.2144 82.7561 78.5837V102.317H86.9265V95.3718C89.2489 95.6601 90.6626 95.6601 92.4752 95.6601C97.4433 95.6601 100.781 91.9929 100.781 86.7931C100.675 81.3303 97.6603 77.744 92.147 77.744M78.616 78.2903H74.4103V92.0992C72.7795 92.3167 71.1437 92.4279 69.6593 92.4279C67.0491 92.4279 65.7414 91.0825 65.7414 88.3561V78.2852H61.5357V89.3374C61.5357 94.1325 64.4742 96.0243 68.7505 96.0243C72.0879 96.0243 76.7328 95.5185 78.616 95.1138V78.2852V78.2903ZM49.1913 92.3217C45.965 92.3217 43.7839 90.1062 43.7839 86.7577C43.7839 83.4092 45.96 81.3353 49.1913 81.3353C52.4225 81.3353 54.5229 83.4901 54.5229 86.7577C54.5229 90.0253 52.3821 92.3217 49.1913 92.3217ZM49.1913 77.5366C43.4608 77.5366 39.5782 81.2342 39.5782 86.7577C39.5782 92.2812 43.4608 96.1356 49.1913 96.1356C54.9217 96.1356 58.769 92.3925 58.769 86.7577C58.769 81.1229 54.8864 77.5366 49.1913 77.5366ZM38.7401 77.744C35.4735 77.744 31.1567 78.2498 28.188 78.8062V95.4831H32.3583V82.1042C34.4637 81.9322 36.5287 81.8614 38.7401 81.8614V77.744ZM24.5578 81.2645H11.5368V85.3111H20.4228V90.6879C18.1357 91.3404 15.3437 91.7754 13.1676 91.7754C8.01776 91.7754 4.56939 88.2903 4.56939 83.0096C4.56939 77.7288 8.38128 74.441 14.1067 74.441C15.5608 74.441 18.0246 74.7647 21.3973 75.3869L22.2657 71.3201C19.2565 70.5563 16.1717 70.2275 13.7785 70.2275C5.50848 70.2275 -0.00488281 75.3515 -0.00488281 83.0096C-0.00488281 90.6677 5.25603 96.0294 13.1626 96.0294C16.7523 96.0294 20.5995 95.0481 24.5528 93.3384V81.2645H24.5578Z" fill="black"/>
<path d="M63.7118 117.243V117.223C63.7118 115.432 62.4092 113.966 60.6068 113.966C58.8043 113.966 57.5219 115.407 57.5219 117.203V117.223C57.5219 119.014 58.8245 120.481 60.627 120.481C62.4294 120.481 63.7118 119.039 63.7118 117.243ZM56.603 117.243V117.223C56.603 115.048 58.2338 113.141 60.632 113.141C63.0302 113.141 64.6358 115.023 64.6358 117.198C64.6358 117.198 64.6358 117.205 64.6358 117.218C64.6358 119.393 63.005 121.3 60.6068 121.3C58.2086 121.3 56.603 119.418 56.603 117.243Z" fill="black"/>
<path d="M65.883 120.42L66.3222 119.798C66.9533 120.273 67.6501 120.541 68.3367 120.541C69.0234 120.541 69.5384 120.182 69.5384 119.616V119.596C69.5384 119.009 68.8517 118.786 68.0893 118.569C67.1805 118.311 66.1657 117.992 66.1657 116.925V116.905C66.1657 115.903 66.9988 115.235 68.1449 115.235C68.8517 115.235 69.6393 115.483 70.2351 115.878L69.8413 116.53C69.3011 116.181 68.6801 115.969 68.1196 115.969C67.433 115.969 66.9937 116.328 66.9937 116.814V116.839C66.9937 117.39 67.7157 117.608 68.4882 117.84C69.3869 118.113 70.3563 118.462 70.3563 119.51V119.53C70.3563 120.632 69.4475 121.275 68.2862 121.275C67.4532 121.275 66.5292 120.946 65.8779 120.42" fill="black"/>
<path d="M72.0526 115.337H72.921V121.164H72.0526V115.337ZM71.9971 113.106H72.9866V114.062H71.9971V113.106Z" fill="black"/>
<path d="M79.6309 117.977V117.951C79.6309 116.758 78.5959 115.979 77.4952 115.979C76.3946 115.979 75.4807 116.742 75.4807 117.941V117.961C75.4807 119.135 76.4148 119.944 77.4952 119.944C78.5757 119.944 79.6309 119.145 79.6309 117.972M74.8648 122.18L75.2586 121.502C75.92 121.988 76.6672 122.246 77.5003 122.246C78.7827 122.246 79.6157 121.538 79.6157 120.172V119.484C79.1109 120.162 78.399 120.713 77.3337 120.713C75.9402 120.713 74.5972 119.666 74.5972 117.987V117.967C74.5972 116.262 75.9452 115.215 77.3337 115.215C78.4242 115.215 79.1361 115.756 79.6056 116.388V115.341H80.474V120.157C80.474 121.057 80.2014 121.745 79.7319 122.22C79.2118 122.736 78.4394 122.999 77.5154 122.999C76.5915 122.999 75.6473 122.726 74.8698 122.19" fill="black"/>
<path d="M82.312 118.953V115.336H83.1804V118.741C83.1804 119.823 83.7661 120.501 84.791 120.501C85.8159 120.501 86.5329 119.767 86.5329 118.675V115.336H87.3861V121.163H86.5329V120.147C86.1391 120.779 85.5433 121.285 84.5436 121.285C83.14 121.285 82.3171 120.339 82.3171 118.953" fill="black"/>
<path d="M89.335 115.337H90.2034V116.859C90.6325 115.888 91.4757 115.19 92.5763 115.236V116.171H92.5107C91.2384 116.171 90.2034 117.087 90.2034 118.842V121.164H89.335V115.337Z" fill="black"/>
<path d="M97.4434 119.024V118.483C97.0142 118.356 96.4538 118.235 95.7419 118.235C94.6615 118.235 94.0404 118.71 94.0404 119.409V119.434C94.0404 120.167 94.717 120.597 95.5046 120.597C96.575 120.597 97.4383 119.955 97.4383 119.029M93.167 119.474V119.454C93.167 118.205 94.1818 117.547 95.6561 117.547C96.3983 117.547 96.9183 117.648 97.4333 117.795V117.613C97.4333 116.576 96.8022 116.035 95.7116 116.035C95.025 116.035 94.4848 116.207 93.9445 116.449L93.687 115.741C94.3282 115.448 94.9492 115.246 95.8025 115.246C96.6558 115.246 97.2667 115.473 97.6807 115.888C98.0846 116.293 98.2865 116.859 98.2865 117.603V121.164H97.4333V120.294C97.0294 120.815 96.3629 121.285 95.338 121.285C94.2475 121.285 93.167 120.663 93.167 119.469" fill="black"/>
<path d="M100.124 115.336H100.993V116.353C101.376 115.721 101.982 115.215 102.982 115.215C104.39 115.215 105.208 116.161 105.208 117.547V121.163H104.34V117.759C104.34 116.677 103.754 115.999 102.729 115.999C101.704 115.999 100.988 116.732 100.988 117.825V121.163H100.119V115.336H100.124Z" fill="black"/>
<path d="M107.077 113.106H108.066V114.062H107.077V113.106ZM106.042 122.944V122.236C106.178 122.256 106.344 122.271 106.471 122.271C106.864 122.271 107.137 122.034 107.137 121.492V115.337H108.006V121.503C108.006 122.529 107.465 123 106.587 123C106.385 123 106.238 122.99 106.047 122.944" fill="black"/>
<path d="M114.276 117.906C114.175 116.849 113.569 115.943 112.418 115.943C111.418 115.943 110.651 116.778 110.53 117.906H114.276ZM112.58 120.546C113.377 120.546 113.943 120.218 114.412 119.722L114.953 120.207C114.367 120.86 113.66 121.3 112.554 121.3C110.959 121.3 109.651 120.071 109.651 118.255C109.651 116.566 110.833 115.21 112.443 115.21C114.165 115.21 115.155 116.586 115.155 118.301C115.155 118.381 115.155 118.467 115.145 118.604H110.53C110.656 119.833 111.555 120.541 112.58 120.541" fill="black"/>
<path d="M114.306 0.3387C110.242 -0.000199015 106.925 -0.101363 102.174 0.111081C91.1776 0.692773 81.0597 4.74944 72.6482 11.7196C64.8074 18.3813 59.2789 26.5907 57.2139 35.9635H57.6329C61.3337 23.4091 72.0676 13.4951 87.5525 10.885C92.4347 10.1465 98.9175 10.3741 103.502 11.2492L114.306 0.3387Z" fill="#F05A2A"/>
<path d="M83.1602 32.5039L86.2602 22.7012L89.2592 32.5039H83.1602Z" fill="black"/>
<path d="M88.5928 33.9606L91.4151 30.5059H97.5747L100.215 33.9606H88.5928Z" fill="black"/>
<path d="M75.2334 36.0089L76.9248 32.5542H82.9632L84.8414 36.0089H75.2334Z" fill="black"/>
<path d="M87.1484 39.5752L90.7735 62.0032C93.298 61.3608 95.7315 60.4655 98.0287 59.3375L87.1484 39.5752Z" fill="#BED630"/>
<path d="M109.894 49.9797L90.0718 39.5801L103.815 55.8169C106.112 54.1021 108.162 52.1396 109.894 49.9797Z" fill="#BED630"/>
<path d="M95.7012 39.5752L112.716 45.7664C113.801 43.7937 114.624 41.7199 115.154 39.5752H95.7012Z" fill="#BED630"/>
<path d="M83.8368 63.0553L85.2353 39.5752L75.3345 62.418C77.4398 62.8631 79.6765 63.1059 82.0141 63.1059C82.6301 63.1059 83.2359 63.0907 83.8418 63.0553" fill="#BED630"/>
<path d="M68.2707 59.9091L82.4631 39.5752L60.7378 53.6623C62.6766 56.1913 65.2313 58.3208 68.2707 59.9091Z" fill="#BED630"/>
<path d="M56.6837 39.5752C56.4414 42.3926 56.7494 45.0785 57.5471 47.5671L78.3585 39.5752H56.6837Z" fill="#BED630"/>
</g>
<defs>
<clipPath id="clip0_89_972">
<rect width="171" height="123" fill="white"/>
</clipPath>
</defs>
</svg>
