<svg width="175" height="53" viewBox="0 0 175 53" fill="none" xmlns="http://www.w3.org/2000/svg">
<g clip-path="url(#clip0_89_1187)">
<path d="M61.3105 52.9717V0.00537109H73.7699V20.0037H83.7498V0.00537109H95.9386V52.9717H83.7498V30.9276H73.7699V52.9717H61.3105ZM104.594 52.9717V0.00537109H133.548V10.2848H116.986V20.0037H132.274V30.6586H116.986V42.1879H133.548V52.9773H104.594V52.9717ZM141.279 52.9717V0.00537109H153.519C157.013 0.00537109 159.971 0.167913 162.394 0.498603C164.812 0.829292 166.959 1.50749 168.835 2.53879C170.706 3.57009 172.177 5.15628 173.259 7.25812C174.335 9.37117 174.915 12.1624 174.994 15.6431C174.994 20.0373 174.025 23.7253 172.098 26.7072C170.171 29.6946 167.269 31.5218 163.375 32.1888C161.245 32.5194 158.055 32.6708 153.806 32.6708V52.9717H141.274H141.279ZM153.812 22.8286C155.547 22.8286 156.967 22.7221 158.072 22.5259C159.193 22.3129 160.134 21.8197 160.901 21.0294C161.684 20.2447 162.169 19.0565 162.383 17.4759C162.484 16.5511 162.535 15.8673 162.535 15.4301C162.535 13.048 161.848 11.4842 160.478 10.75C159.098 10.0101 156.877 9.62339 153.812 9.58416V22.8286Z" fill="#3C4682"/>
<path fill-rule="evenodd" clip-rule="evenodd" d="M39.3446 0L36.3354 0.00560491L25.5779 30.3001L32.7007 28.3104L23.9888 53H53.4269L53.4494 0H39.3446Z" fill="#3C4682"/>
<path fill-rule="evenodd" clip-rule="evenodd" d="M0.0619868 0.0112305L0 53H16.0377L25.8147 24.7065L19.4188 27.0493L28.9084 0.0112305H0.0619868Z" fill="#C80014"/>
</g>
<defs>
<clipPath id="clip0_89_1187">
<rect width="175" height="53" fill="white"/>
</clipPath>
</defs>
</svg>
