<?xml version="1.0" encoding="UTF-8"?>
<svg id="Layer_2" data-name="Layer 2" xmlns="http://www.w3.org/2000/svg" viewBox="0 0 500.9 199.85">
  <defs>
    <style>
      .cls-1 {
        stroke-width: 0px;
      }
    </style>
  </defs>
  <g id="SVG">
    <g>
      <rect class="cls-1" y="185.94" width="97.4" height="13.91"/>
      <rect class="cls-1" y="159.38" width="97.4" height="13.91"/>
      <rect class="cls-1" x="27.83" y="132.81" width="41.74" height="13.91"/>
      <rect class="cls-1" x="27.83" y="106.25" width="41.74" height="13.91"/>
      <rect class="cls-1" x="27.83" y="79.69" width="41.74" height="13.91"/>
      <rect class="cls-1" x="27.83" y="53.13" width="41.74" height="13.91"/>
      <rect class="cls-1" y="26.56" width="97.4" height="13.91"/>
      <rect class="cls-1" y="0" width="97.4" height="13.91"/>
      <path class="cls-1" d="M111.31,173.29h148.46c2.52-4.35,4.4-9.03,5.6-13.91H111.31v13.91Z"/>
      <path class="cls-1" d="M248.14,106.25h-109.01v13.91h120.61c-3.05-5.27-6.97-9.97-11.61-13.91Z"/>
      <path class="cls-1" d="M139.14,79.69v13.91h109.01c4.63-3.94,8.56-8.65,11.61-13.91h-120.61Z"/>
      <path class="cls-1" d="M259.77,26.56H111.31v13.91h154.05c-1.19-4.88-3.08-9.57-5.6-13.91Z"/>
      <path class="cls-1" d="M213.77,0h-102.46v13.91h138.29C239.82,4.95,227.03-.02,213.77,0Z"/>
      <rect class="cls-1" x="139.14" y="53.13" width="41.74" height="13.91"/>
      <path class="cls-1" d="M220.09,67.04h44.94c1.23-4.54,1.86-9.21,1.86-13.91h-46.8v13.91Z"/>
      <rect class="cls-1" x="139.14" y="132.81" width="41.74" height="13.91"/>
      <path class="cls-1" d="M220.09,132.81v13.91h46.8c0-4.7-.63-9.38-1.86-13.91h-44.94Z"/>
      <path class="cls-1" d="M111.31,199.71l102.46.14c13.27.04,26.07-4.93,35.84-13.91H111.31v13.78Z"/>
      <polygon class="cls-1" points="389.56 199.85 394.42 185.94 384.75 185.94 389.56 199.85"/>
      <polygon class="cls-1" points="380.31 173.29 398.86 173.29 403.75 159.38 375.42 159.38 380.31 173.29"/>
      <polygon class="cls-1" points="370.98 146.73 408.19 146.73 413.07 132.81 366.1 132.81 370.98 146.73"/>
      <polygon class="cls-1" points="361.66 120.16 417.51 120.16 422.4 106.25 356.77 106.25 361.66 120.16"/>
      <polygon class="cls-1" points="306.1 67.04 381.28 67.04 376.44 53.13 306.1 53.13 306.1 67.04"/>
      <polygon class="cls-1" points="407.13 40.48 500.9 40.48 500.9 26.56 411.97 26.56 407.13 40.48"/>
      <polygon class="cls-1" points="421.21 0 416.37 13.91 500.9 13.91 500.9 0 421.21 0"/>
      <rect class="cls-1" x="278.28" y="185.94" width="69.57" height="13.91"/>
      <rect class="cls-1" x="278.28" y="159.38" width="69.57" height="13.91"/>
      <rect class="cls-1" x="306.1" y="132.81" width="41.74" height="13.91"/>
      <rect class="cls-1" x="306.1" y="106.25" width="41.74" height="13.91"/>
      <polygon class="cls-1" points="473.07 53.13 402.73 53.13 397.9 67.04 473.07 67.04 473.07 53.13"/>
      <polygon class="cls-1" points="431.33 93.6 473.07 93.6 473.07 79.69 431.33 79.69 431.33 79.69 393.5 79.69 389.59 90.94 385.67 79.69 347.84 79.69 306.1 79.69 306.1 93.6 347.84 93.6 347.84 80.82 352.33 93.6 426.84 93.6 431.33 80.82 431.33 93.6"/>
      <rect class="cls-1" x="431.33" y="106.25" width="41.74" height="13.91"/>
      <rect class="cls-1" x="431.33" y="132.81" width="41.74" height="13.91"/>
      <rect class="cls-1" x="431.33" y="159.38" width="69.57" height="13.91"/>
      <rect class="cls-1" x="431.33" y="185.94" width="69.57" height="13.91"/>
      <polygon class="cls-1" points="372.04 40.48 367.2 26.56 278.28 26.56 278.28 40.48 372.04 40.48"/>
      <polygon class="cls-1" points="362.8 13.91 357.96 0 278.28 0 278.28 13.91 362.8 13.91"/>
    </g>
  </g>
</svg>