<svg width="172" height="52" viewBox="0 0 172 52" fill="none" xmlns="http://www.w3.org/2000/svg">
<g clip-path="url(#clip0_89_938)">
<path d="M49.8745 51.0509C46.8877 51.0509 44.1607 50.5236 41.6893 49.4771C39.2219 48.4225 37.0955 46.9948 35.3302 45.1898C33.5608 43.3807 32.177 41.2715 31.1828 38.8581C30.1885 36.4447 29.6853 33.8731 29.6853 31.1473V31.0338C29.6853 28.308 30.1885 25.7364 31.1828 23.323C32.177 20.9096 33.5811 18.7882 35.387 16.9629C37.1929 15.1377 39.3315 13.6937 41.807 12.6228C44.2784 11.5561 47.0054 11.0166 49.9922 11.0166C52.979 11.0166 55.7061 11.5439 58.1815 12.5904C60.6489 13.6409 62.7713 15.0687 64.5447 16.8778C66.314 18.6827 67.6979 20.796 68.688 23.2094C69.6863 25.6228 70.1855 28.1985 70.1855 30.9242V31.0338C70.1855 33.7595 69.6863 36.3311 68.688 38.7445C67.6938 41.162 66.2937 43.2793 64.4879 45.1046C62.6779 46.9299 60.5393 48.3739 58.0679 49.4447C55.5965 50.5115 52.8694 51.0509 49.8786 51.0509M49.9882 44.8044C51.8995 44.8044 53.6486 44.4434 55.2516 43.7255C56.8464 43.0076 58.214 42.03 59.3543 40.7969C60.4947 39.5598 61.3834 38.1158 62.0286 36.4569C62.6698 34.7979 62.9904 33.0294 62.9904 31.1473V31.0338C62.9904 29.1558 62.6698 27.3751 62.0286 25.6999C61.3834 24.0247 60.4825 22.5645 59.3259 21.3314C58.1694 20.0983 56.7855 19.1086 55.1663 18.3704C53.5512 17.6363 51.79 17.2631 49.8786 17.2631C47.9672 17.2631 46.2141 17.6241 44.6192 18.342C43.0203 19.064 41.6527 20.0416 40.5165 21.2746C39.3802 22.5118 38.4874 23.9558 37.8462 25.6147C37.201 27.2737 36.8804 29.0422 36.8804 30.9202V31.0297C36.8804 32.9118 37.201 34.6884 37.8462 36.3636C38.4874 38.0428 39.3924 39.503 40.5449 40.7361C41.7014 41.9692 43.0893 42.9548 44.7085 43.693C46.3196 44.4313 48.0808 44.8004 49.9922 44.8004" fill="#231F20"/>
<path d="M111.331 52.0001C108.344 52.0001 105.613 51.4728 103.142 50.4263C100.666 49.3717 98.5519 47.944 96.7785 46.139C95.0092 44.3299 93.6253 42.2207 92.6311 39.8073C91.6368 37.3939 91.1377 34.8223 91.1377 32.0966V31.983C91.1377 29.2572 91.6328 26.6856 92.6311 24.2722C93.6253 21.8588 95.0294 19.7374 96.8353 17.9122C98.6412 16.0869 100.78 14.6429 103.251 13.5721C105.723 12.5053 108.454 11.9658 111.441 11.9658C114.427 11.9658 117.158 12.4931 119.63 13.5396C122.101 14.5902 124.224 16.0179 125.993 17.827C127.762 19.632 129.142 21.7452 130.14 24.1586C131.135 26.5721 131.634 29.1477 131.634 31.8735V31.983C131.634 34.7087 131.139 37.2803 130.14 39.6937C129.142 42.1112 127.742 44.2285 125.94 46.0538C124.13 47.8791 121.992 49.3231 119.52 50.3939C117.049 51.4607 114.322 52.0001 111.335 52.0001M111.441 45.7537C113.352 45.7537 115.105 45.3927 116.7 44.6747C118.295 43.9568 119.666 42.9792 120.803 41.7462C121.943 40.509 122.828 39.065 123.473 37.4061C124.118 35.7471 124.439 33.9786 124.439 32.0966V31.983C124.439 30.105 124.118 28.3243 123.473 26.6491C122.828 24.9739 121.931 23.5137 120.774 22.2806C119.618 21.0476 118.234 20.0579 116.615 19.3196C115 18.5855 113.238 18.2123 111.327 18.2123C109.416 18.2123 107.666 18.5733 106.068 19.2912C104.473 20.0132 103.101 20.9908 101.965 22.2239C100.829 23.461 99.9357 24.905 99.2945 26.5639C98.6534 28.2229 98.3328 29.9914 98.3328 31.8694V31.9789C98.3328 33.861 98.6534 35.6376 99.2945 37.3128C99.9398 38.992 100.837 40.4522 101.997 41.6853C103.154 42.9184 104.538 43.904 106.157 44.6423C107.772 45.3805 109.533 45.7496 111.445 45.7496" fill="#231F20"/>
<path d="M172 38.9595C172 41.4743 169.959 43.5227 167.439 43.5227C164.918 43.5227 162.877 41.4784 162.877 38.9595C162.877 36.4406 164.923 34.4004 167.439 34.4004C169.955 34.4004 172 36.4406 172 38.9595Z" fill="#231F20"/>
<path d="M85.8173 4.56318C85.8173 7.08206 83.776 9.12231 81.2559 9.12231C78.7358 9.12231 76.6946 7.08206 76.6946 4.56318C76.6946 2.04431 78.7399 0 81.2559 0C83.772 0 85.8173 2.04431 85.8173 4.56318Z" fill="#00ADEE"/>
<path d="M0 12.5659H6.44838V31.6704L21.5081 12.5659H29.2876L15.7253 29.2854L29.8963 51.4442H22.2305L11.2816 34.3921L6.44838 40.2249V51.4442H0V12.5659Z" fill="#231F20"/>
<path d="M84.0481 12.5659H77.6038V51.4442H84.0481V12.5659Z" fill="#231F20"/>
<path d="M149.145 51.9471C141.864 51.9471 136.532 47.5583 136.532 40.7277V40.6182C136.532 34.9518 139.864 31.9543 147.091 29.1758C153.702 26.6204 155.147 25.1764 155.147 22.4547V22.3979C155.147 19.8426 152.98 17.8956 149.481 17.8956C146.369 17.8956 143.423 19.3964 140.757 21.5624L137.088 16.6179C140.643 13.5068 144.815 12.0669 149.315 12.0669C156.539 12.0669 161.652 16.5652 161.652 22.9536V23.0632C161.652 29.2853 157.817 32.007 150.427 34.7814C144.259 37.0569 142.98 38.6713 142.98 41.1131V41.1699C142.98 44.0538 145.371 46.1103 149.096 46.1103C153.207 46.1103 156.433 44.1106 159.322 41.5025L163.21 46.3334C158.99 50.2232 154.152 51.943 149.149 51.943" fill="#00ADEE"/>
</g>
<defs>
<clipPath id="clip0_89_938">
<rect width="172" height="52" fill="white"/>
</clipPath>
</defs>
</svg>
