<svg width="537" height="84" viewBox="0 0 537 84" fill="none" xmlns="http://www.w3.org/2000/svg">
<g clip-path="url(#clip0_89_741)">
<path d="M115.524 66.4246C116.267 67.0362 117.508 67.2439 121.232 67.2439H132.278C136.002 67.2439 137.243 67.0362 137.986 66.4246C138.856 65.7091 140.341 63.7473 140.341 48.0297C140.341 32.3122 138.856 30.3504 137.986 29.6349C137.243 29.0117 136.002 28.8155 132.278 28.8155H121.232C117.508 28.8155 116.278 29.0233 115.524 29.6349C114.654 30.3504 113.169 32.3006 113.169 48.0297C113.169 63.7588 114.654 65.7091 115.524 66.4246ZM141.2 12.0479C150.25 12.0479 154.972 13.3865 158.313 16.1561C163.407 20.2644 167.746 28.1808 167.746 48.0182C167.746 67.8555 163.407 75.772 158.313 79.8802C154.972 82.6499 150.25 83.9885 141.2 83.9885H112.299C103.237 83.9885 98.5267 82.6499 95.1852 79.8802C90.1034 75.772 85.7642 67.8555 85.7642 48.0182C85.7642 28.1808 90.1034 20.2644 95.1852 16.1561C98.5383 13.3865 103.249 12.0479 112.299 12.0479H141.2Z" fill="#0085CA"/>
<path d="M263.093 84H244.611C238.903 84 236.176 82.6614 233.194 78.7609L206.405 42.8944H205.79V84.0116H180.613V12.0479H203.318C209.027 12.0479 211.881 13.3865 214.724 17.287L237.29 48.8375H237.916V12.0479H263.093V84Z" fill="#0085CA"/>
<path d="M26.6388 12.0479H0V84H26.6388V12.0479Z" fill="#0085CA"/>
<path d="M396.612 53.0609H412.856L405.418 31.8849H404.049L396.612 53.0609ZM418.065 68.4784H391.403L386.066 83.9998H359.404L385.695 18.5331C387.922 13.0862 388.92 11.7476 394.872 11.7476H416.209C422.161 11.7476 423.274 13.1901 425.386 18.5331L451.677 83.9998H423.518L418.065 68.4784Z" fill="#0085CA"/>
<path d="M348.579 79.892C345.226 82.6731 340.643 84.0002 331.582 84.0002H302.553C293.503 84.0002 288.781 82.6616 285.439 79.892C280.346 75.7837 276.007 67.8672 276.007 48.0299C276.007 28.1926 280.346 20.2761 285.439 16.1678C288.781 13.3982 293.503 12.0596 302.553 12.0596H331.582C340.643 12.0596 345.226 13.3982 348.579 16.1678C352.918 19.7683 355.03 26.0346 355.273 40.5289H330.34C329.969 31.5853 328.971 30.2467 328.228 29.6351C327.486 29.0234 326.244 28.8042 322.52 28.8042H311.486C307.762 28.8042 306.521 29.0119 305.778 29.6351C304.908 30.3505 303.423 32.3008 303.423 48.0299C303.423 63.759 304.908 65.7092 305.778 66.4247C306.521 67.0364 307.762 67.2441 311.486 67.2441H322.52C326.244 67.2441 327.486 67.0364 328.228 66.4247C328.971 65.8131 329.969 64.4745 330.34 55.2193H355.273C355.03 69.9214 353.046 76.2915 348.579 79.8804" fill="#0085CA"/>
<path d="M341.861 0H289.419V4.77758H341.861V0Z" fill="#0085CA"/>
<path d="M536.884 66.1128C536.954 55.7267 530.793 53.3726 522.114 51.7224V51.5146C532.162 49.8644 537 45.86 537 32.4966C537 22.526 535.144 18.9255 531.292 15.7405C527.939 12.9593 523.1 12.0361 514.422 12.0361H458.975V83.9883H485.59V40.7016V29.8886H485.637V28.3884H500.023C504.862 28.3884 506.103 28.5961 506.973 29.2077C508.215 30.1309 508.957 31.7812 508.957 35.9933C508.957 40.2054 508.342 41.9479 506.973 42.9865C506.231 43.5982 504.862 43.8059 500.023 43.8059H490.533V59.3272H498.666C504.131 59.3272 505.245 59.7427 506.486 60.6659C507.855 61.693 509.619 62.7085 509.595 68.0631C509.572 74.2254 509.595 78.0798 509.572 83.9999H536.884C536.884 79.9378 536.838 73.2445 536.884 66.1128Z" fill="#0085CA"/>
<path d="M48.9035 78.761C52.1522 82.65 55.1339 83.9887 60.8075 84.0002H84.3253L51.3284 45.9758L82.3413 12.0596H53.5676L31.3145 37.6323V57.2388L46.4554 75.7606L48.9151 78.761H48.9035Z" fill="#0085CA"/>
</g>
<defs>
<clipPath id="clip0_89_741">
<rect width="537" height="84" fill="white"/>
</clipPath>
</defs>
</svg>
