<svg width="172" height="83" viewBox="0 0 172 83" fill="none" xmlns="http://www.w3.org/2000/svg">
<g clip-path="url(#clip0_89_1345)">
<mask id="mask0_89_1345" style="mask-type:luminance" maskUnits="userSpaceOnUse" x="48" y="0" width="58" height="57">
<path d="M48.5371 27.9941C48.2715 43.7126 60.8152 56.6698 76.5369 56.9353L77.4133 56.953C80.2194 56.9972 82.521 54.7669 82.5742 51.9613C82.6184 49.1557 80.3876 46.8546 77.5815 46.8015L76.7051 46.7837C66.6046 46.6156 58.5225 38.2607 58.6818 28.1623C58.85 18.0639 67.2066 9.98337 77.307 10.1427C87.4075 10.3108 95.4896 18.6657 95.3214 28.773L95.3037 29.6492C95.2595 32.4548 97.4903 34.7559 100.296 34.809C103.103 34.8533 105.413 32.6229 105.457 29.8173L105.475 28.95C105.741 13.2226 93.2057 0.265515 77.4752 0C77.3159 0 77.1566 0 76.9972 0C61.488 0 48.7938 12.435 48.5371 27.9941Z" fill="white"/>
</mask>
<g mask="url(#mask0_89_1345)">
<path d="M48.2851 -0.96166L47.3242 56.9746L105.715 57.9427L106.676 0.00638519L48.2851 -0.96166Z" fill="url(#paint0_linear_89_1345)"/>
</g>
<path d="M3.62077 66.6979V79.7169H10.9682C11.5524 79.7169 12.0039 79.8586 12.3137 80.1418C12.6235 80.425 12.7829 80.7879 12.7829 81.2127C12.7829 81.6375 12.6324 82.0092 12.3226 82.2836C12.0127 82.558 11.5613 82.6907 10.9682 82.6907H2.22211C1.43425 82.6907 0.867705 82.5137 0.522466 82.1597C0.177227 81.8145 0.0090332 81.2481 0.0090332 80.4692V66.6979C0.0090332 65.9633 0.177227 65.4145 0.504761 65.0517C0.832296 64.6888 1.26606 64.5029 1.80605 64.5029C2.34604 64.5029 2.78865 64.6888 3.13389 65.0517C3.47028 65.4145 3.63847 65.9633 3.63847 66.7067" fill="#03559D"/>
<path d="M18.2711 71.3443V80.9736C18.2711 81.6374 18.1118 82.1419 17.7931 82.4871C17.4744 82.8322 17.0761 83.0004 16.5804 83.0004C16.0846 83.0004 15.6951 82.8234 15.3942 82.4782C15.0843 82.1242 14.9338 81.6286 14.9338 80.9736V71.4417C14.9338 70.7867 15.0843 70.2822 15.3942 69.9548C15.704 69.6184 16.0935 69.4503 16.5804 69.4503C17.0672 69.4503 17.4744 69.6184 17.7931 69.9548C18.1118 70.2822 18.2711 70.7513 18.2711 71.3443ZM16.6246 67.9103C16.1555 67.9103 15.766 67.7687 15.4296 67.4855C15.102 67.2023 14.9338 66.7951 14.9338 66.2818C14.9338 65.8127 15.102 65.4233 15.4384 65.1135C15.7748 64.8126 16.1643 64.6533 16.6158 64.6533C17.0672 64.6533 17.4302 64.7949 17.7666 65.0693C18.103 65.3437 18.2623 65.7508 18.2623 66.2818C18.2623 66.8128 18.103 67.1934 17.7754 67.4855C17.4479 67.7687 17.0584 67.9192 16.6158 67.9192" fill="#03559D"/>
<path d="M24.9458 76.3007C24.9458 77.6282 25.2468 78.646 25.8576 79.3541C26.4684 80.0621 27.2563 80.4161 28.2477 80.4161C29.0887 80.4161 29.8057 80.0533 30.4165 79.3275C31.0274 78.6018 31.3283 77.5574 31.3283 76.1944C31.3283 75.3182 31.2044 74.5571 30.9477 73.9287C30.6998 73.2915 30.3369 72.8047 29.8766 72.4595C29.4162 72.1144 28.8762 71.9462 28.2566 71.9462C27.6369 71.9462 27.0527 72.1144 26.5569 72.4595C26.0612 72.8047 25.6717 73.3092 25.3884 73.9641C25.1052 74.6191 24.9635 75.3979 24.9635 76.3007M24.7865 66.4058V71.4948C25.415 70.8399 26.0524 70.3443 26.6986 69.9991C27.3448 69.6539 28.1504 69.4769 29.1153 69.4769C30.2218 69.4769 31.1955 69.7424 32.0277 70.2646C32.8598 70.7868 33.506 71.5479 33.9663 72.548C34.4266 73.5481 34.6568 74.7253 34.6568 76.0971C34.6568 77.106 34.524 78.0265 34.2673 78.8673C34.0106 79.7081 33.6388 80.4427 33.1519 81.0534C32.665 81.6729 32.0719 82.1508 31.3726 82.4871C30.6733 82.8235 29.912 82.9916 29.071 82.9916C28.5576 82.9916 28.0795 82.9297 27.6281 82.8058C27.1766 82.6819 26.796 82.5226 26.4773 82.3278C26.1586 82.1331 25.893 81.9207 25.6629 81.7172C25.4416 81.5047 25.1406 81.1861 24.7776 80.7613V81.0888C24.7776 81.7172 24.6271 82.1862 24.3262 82.5137C24.0252 82.8323 23.6445 82.9916 23.1754 82.9916C22.7062 82.9916 22.3256 82.8323 22.0511 82.5137C21.7679 82.1951 21.6262 81.7172 21.6262 81.0888V66.5474C21.6262 65.8748 21.7679 65.3614 22.0334 65.0163C22.3078 64.6711 22.6885 64.5029 23.1754 64.5029C23.6888 64.5029 24.0783 64.6711 24.3616 64.9986C24.636 65.326 24.7776 65.7951 24.7776 66.4058" fill="#03559D"/>
<path d="M45.6513 81.1239V80.6991C45.253 81.2036 44.8369 81.6284 44.3943 81.9736C43.9517 82.3099 43.4737 82.5666 42.9514 82.7347C42.4291 82.9029 41.836 82.9825 41.1721 82.9825C40.3665 82.9825 39.6406 82.8144 39.0033 82.4869C38.3659 82.1506 37.8702 81.6904 37.5249 81.1062C37.1089 80.3982 36.9053 79.3804 36.9053 78.0528V71.4503C36.9053 70.7777 37.0558 70.2821 37.3567 69.9546C37.6577 69.6271 38.0561 69.459 38.5518 69.459C39.0475 69.459 39.4636 69.6271 39.7734 69.9635C40.0832 70.2909 40.2337 70.7954 40.2337 71.4503V76.7783C40.2337 77.5483 40.2957 78.1944 40.4285 78.7255C40.5613 79.2476 40.7914 79.6636 41.1278 79.9557C41.4642 80.2566 41.9245 80.3982 42.4999 80.3982C43.0753 80.3982 43.5888 80.23 44.0845 79.9026C44.5802 79.5663 44.9432 79.1326 45.1733 78.6015C45.3592 78.1325 45.4566 77.097 45.4566 75.5039V71.4592C45.4566 70.8043 45.6071 70.2998 45.9169 69.9723C46.2267 69.636 46.6339 69.4678 47.1297 69.4678C47.6254 69.4678 48.0238 69.636 48.3247 69.9635C48.6257 70.2909 48.7762 70.7866 48.7762 71.4592V81.1062C48.7762 81.7435 48.6346 82.2126 48.3424 82.5312C48.0503 82.8498 47.6785 83.0091 47.227 83.0091C46.7756 83.0091 46.3949 82.8498 46.094 82.5135C45.8018 82.186 45.6513 81.7258 45.6513 81.1328" fill="#03559D"/>
<path d="M62.8159 78.6459C62.8159 79.5663 62.5946 80.354 62.1432 81.0089C61.7005 81.6639 61.0366 82.1595 60.1602 82.4958C59.2839 82.8322 58.2216 83.0003 56.9734 83.0003C55.7253 83.0003 54.7515 82.8145 53.9017 82.4516C53.0519 82.0887 52.4145 81.6285 52.0073 81.0798C51.6001 80.531 51.3965 79.9823 51.3965 79.4247C51.3965 79.0618 51.5293 78.7432 51.786 78.4866C52.0427 78.2299 52.3702 78.0971 52.7774 78.0971C53.1315 78.0971 53.3971 78.1856 53.583 78.3538C53.7689 78.522 53.9459 78.7609 54.123 79.0707C54.4594 79.6637 54.8754 80.1062 55.3535 80.3983C55.8315 80.6903 56.4777 80.8408 57.301 80.8408C57.9649 80.8408 58.5137 80.6903 58.9386 80.3983C59.3635 80.0973 59.576 79.761 59.576 79.3805C59.576 78.7963 59.3547 78.3715 58.9121 78.0971C58.4695 77.8316 57.7436 77.575 56.7256 77.3271C55.5748 77.0439 54.6453 76.743 53.9282 76.4332C53.2112 76.1146 52.6358 75.7075 52.202 75.1942C51.7683 74.6808 51.5558 74.0525 51.5558 73.3002C51.5558 72.6364 51.7506 71.9991 52.1489 71.4062C52.5473 70.8132 53.1404 70.3352 53.9105 69.9812C54.6895 69.6272 55.6279 69.4502 56.7256 69.4502C57.5842 69.4502 58.3632 69.5387 59.0537 69.7157C59.7442 69.8927 60.3107 70.1317 60.7711 70.4414C61.2314 70.7424 61.5855 71.0787 61.8245 71.4416C62.0635 71.8044 62.1874 72.1584 62.1874 72.5125C62.1874 72.893 62.0635 73.2028 61.7979 73.4506C61.5412 73.6896 61.1783 73.8135 60.7091 73.8135C60.3727 73.8135 60.0717 73.7161 59.8416 73.5214C59.6026 73.3267 59.3281 73.0346 59.0183 72.6452C58.7616 72.3178 58.4695 72.0611 58.1242 71.8664C57.779 71.6717 57.3187 71.5743 56.7344 71.5743C56.1502 71.5743 55.6279 71.6982 55.2295 71.9549C54.8312 72.2116 54.6276 72.5302 54.6276 72.9107C54.6276 73.2559 54.7781 73.548 55.0702 73.7692C55.3623 73.9905 55.7607 74.1764 56.2564 74.3268C56.7521 74.4773 57.4337 74.6543 58.3101 74.8667C59.3458 75.1145 60.1868 75.4154 60.8419 75.7695C61.4969 76.1235 61.9927 76.5306 62.3291 77.0085C62.6655 77.4865 62.8336 78.0263 62.8336 78.637" fill="#03559D"/>
<path d="M74.7666 76.2297C74.7666 74.8668 74.4656 73.8136 73.8725 73.0524C73.2706 72.3001 72.4739 71.9195 71.4647 71.9195C70.8185 71.9195 70.2431 72.0877 69.7474 72.424C69.2516 72.7603 68.871 73.2648 68.5966 73.9198C68.331 74.5747 68.1982 75.3447 68.1982 76.2297C68.1982 77.1148 68.331 77.8582 68.5966 78.5132C68.8621 79.1681 69.2428 79.6637 69.7297 80.0089C70.2254 80.3541 70.8008 80.5311 71.4647 80.5311C72.4739 80.5311 73.2794 80.1505 73.8725 79.3894C74.4745 78.6282 74.7666 77.5839 74.7666 76.2386M78.1128 76.2297C78.1128 77.221 77.9623 78.1326 77.6525 78.9734C77.3426 79.8053 76.9 80.5311 76.3069 81.1329C75.7227 81.7348 75.0233 82.195 74.2089 82.5136C73.3945 82.8322 72.4827 82.9915 71.4647 82.9915C70.4467 82.9915 69.5526 82.8322 68.7471 82.5047C67.9415 82.1773 67.2422 81.7171 66.6579 81.1064C66.0648 80.4957 65.6222 79.7788 65.3124 78.9557C65.0025 78.1326 64.8521 77.221 64.8521 76.2209C64.8521 75.2208 65.0025 74.2915 65.3124 73.4507C65.6222 72.6099 66.0648 71.893 66.6402 71.3C67.2156 70.707 67.9149 70.2468 68.7382 69.9282C69.5615 69.6007 70.4644 69.4414 71.4559 69.4414C72.4473 69.4414 73.3768 69.6096 74.2001 69.9282C75.0233 70.2557 75.7227 70.7159 76.3158 71.3177C76.9 71.9195 77.3515 72.6364 77.6525 73.4684C77.9623 74.3003 78.1128 75.2119 78.1128 76.212" fill="#03559D"/>
<path d="M80.4675 69.7513H81.2642V68.7512C81.2642 67.7068 81.397 66.8837 81.6626 66.2642C81.9281 65.6446 82.3796 65.2021 83.0081 64.9189C83.6366 64.6357 84.5042 64.5029 85.6018 64.5029C87.5493 64.5029 88.5142 64.9809 88.5142 65.9279C88.5142 66.2376 88.4169 66.5031 88.2044 66.7244C88.0008 66.9457 87.7618 67.0519 87.4874 67.0519C87.3546 67.0519 87.1333 67.0253 86.8146 66.9811C86.4959 66.928 86.2304 66.9103 86.0091 66.9103C85.4071 66.9103 85.0176 67.0873 84.8494 67.4413C84.6812 67.7953 84.5927 68.2998 84.5927 68.9636V69.7513H85.4071C86.673 69.7513 87.3103 70.1319 87.3103 70.9018C87.3103 71.4506 87.1421 71.7869 86.8058 71.9374C86.4694 72.0878 86.0002 72.1586 85.4071 72.1586H84.5927V80.9826C84.5927 81.6375 84.4333 82.142 84.1235 82.4871C83.8137 82.8323 83.4065 83.0093 82.9107 83.0093C82.415 83.0093 82.0432 82.8323 81.7334 82.4871C81.4236 82.142 81.2642 81.6375 81.2642 80.9826V72.1586H80.3524C79.8567 72.1586 79.4761 72.0436 79.2016 71.8223C78.9361 71.601 78.7944 71.309 78.7944 70.9461C78.7944 70.1496 79.3521 69.7513 80.4675 69.7513Z" fill="#03559D"/>
<path d="M89.2399 69.7513H89.6029V67.751C89.6029 67.2112 89.6206 66.7952 89.6471 66.4854C89.6737 66.1845 89.7534 65.919 89.8862 65.6977C90.0189 65.4676 90.2048 65.2906 90.4439 65.1401C90.6917 64.9985 90.9573 64.9277 91.2671 64.9277C91.692 64.9277 92.0727 65.087 92.4179 65.4057C92.6481 65.6181 92.7897 65.8747 92.8517 66.1845C92.9136 66.4854 92.9402 66.9191 92.9402 67.4855V69.7513H94.1618C94.631 69.7513 94.9939 69.8663 95.2418 70.0876C95.4897 70.3088 95.6136 70.6009 95.6136 70.9461C95.6136 71.3975 95.4365 71.7072 95.0825 71.8842C94.7284 72.0612 94.2238 72.1497 93.5599 72.1497H92.9402V78.2743C92.9402 78.7965 92.9579 79.1947 92.9933 79.478C93.0287 79.7612 93.1261 79.9824 93.2854 80.1594C93.4448 80.3365 93.7015 80.425 94.0644 80.425C94.2592 80.425 94.5248 80.3896 94.8611 80.3188C95.1975 80.248 95.4542 80.2125 95.6401 80.2125C95.9057 80.2125 96.1536 80.3188 96.366 80.5312C96.5785 80.7524 96.6847 81.0091 96.6847 81.3277C96.6847 81.8676 96.3926 82.2747 95.8083 82.5668C95.2241 82.85 94.3831 82.9916 93.2854 82.9916C92.2409 82.9916 91.453 82.8146 90.9219 82.4694C90.3819 82.1154 90.0366 81.6375 89.8685 81.0179C89.7003 80.3984 89.6206 79.5753 89.6206 78.5398V72.1497H89.1868C88.7088 72.1497 88.337 72.0347 88.0891 71.8046C87.8324 71.5745 87.7085 71.2912 87.7085 70.9372C87.7085 70.5832 87.8413 70.3 88.1068 70.0787C88.3724 69.8575 88.7531 69.7424 89.2576 69.7424" fill="#03559D"/>
<path d="M113.38 77.0441C113.38 77.6105 113.238 78.2301 112.955 78.8938C112.681 79.5576 112.229 80.2126 111.627 80.841C111.025 81.487 110.255 82.0004 109.326 82.3986C108.387 82.7969 107.299 83.0005 106.059 83.0005C105.112 83.0005 104.253 82.912 103.483 82.735C102.713 82.558 102.005 82.2747 101.376 81.903C100.748 81.5224 100.164 81.0268 99.6324 80.4073C99.1633 79.8497 98.7561 79.2213 98.4285 78.5221C98.0921 77.8318 97.8443 77.0883 97.6761 76.2918C97.5079 75.5041 97.4282 74.6633 97.4282 73.7783C97.4282 72.3356 97.6407 71.0523 98.0567 69.9106C98.4728 68.7689 99.0748 67.8042 99.8538 66.9899C100.633 66.1845 101.553 65.565 102.598 65.1402C103.643 64.7153 104.767 64.5029 105.953 64.5029C107.405 64.5029 108.688 64.795 109.821 65.3703C110.955 65.9456 111.822 66.6625 112.415 67.5121C113.017 68.3617 113.318 69.1671 113.318 69.9194C113.318 70.3354 113.168 70.6983 112.884 71.0169C112.592 71.3355 112.238 71.4948 111.822 71.4948C111.362 71.4948 111.008 71.3886 110.777 71.1674C110.547 70.9461 110.282 70.5655 110.007 70.0345C109.538 69.1494 108.98 68.4857 108.343 68.052C107.706 67.6095 106.918 67.3882 105.98 67.3882C104.492 67.3882 103.306 67.9546 102.421 69.0875C101.536 70.2204 101.093 71.8223 101.093 73.911C101.093 75.3005 101.288 76.46 101.677 77.3804C102.067 78.3097 102.616 79.0001 103.333 79.4514C104.05 79.9117 104.882 80.1329 105.847 80.1329C106.891 80.1329 107.768 79.8763 108.494 79.3629C109.211 78.8496 109.759 78.0885 110.122 77.0883C110.273 76.6193 110.468 76.2387 110.698 75.9378C110.928 75.6457 111.291 75.4953 111.795 75.4953C112.229 75.4953 112.592 75.6457 112.911 75.9466C113.221 76.2475 113.371 76.6193 113.371 77.0706" fill="#F29100"/>
<path d="M119.736 71.3443V80.9736C119.736 81.6374 119.577 82.1419 119.258 82.4871C118.94 82.8322 118.541 83.0004 118.045 83.0004C117.55 83.0004 117.16 82.8234 116.859 82.4782C116.549 82.1242 116.399 81.6286 116.399 80.9736V71.4417C116.399 70.7867 116.549 70.2822 116.859 69.9548C117.169 69.6184 117.559 69.4503 118.045 69.4503C118.532 69.4503 118.94 69.6184 119.258 69.9548C119.577 70.2822 119.736 70.7513 119.736 71.3443ZM118.09 67.9103C117.629 67.9103 117.231 67.7687 116.903 67.4855C116.576 67.2023 116.408 66.7951 116.408 66.2818C116.408 65.8127 116.576 65.4233 116.912 65.1135C117.249 64.8126 117.638 64.6533 118.09 64.6533C118.541 64.6533 118.904 64.7949 119.241 65.0693C119.577 65.3437 119.745 65.7508 119.745 66.2818C119.745 66.8128 119.586 67.1934 119.258 67.4855C118.931 67.7687 118.55 67.9192 118.099 67.9192" fill="#F29100"/>
<path d="M135.122 78.8761C135.122 79.2921 134.998 79.7346 134.75 80.2037C134.502 80.6728 134.121 81.1241 133.617 81.549C133.112 81.9738 132.466 82.3189 131.696 82.5845C130.926 82.8411 130.049 82.9739 129.084 82.9739C127.031 82.9739 125.42 82.3721 124.269 81.1772C123.118 79.9824 122.534 78.3716 122.534 76.3537C122.534 74.9907 122.799 73.7782 123.33 72.725C123.862 71.6806 124.623 70.8664 125.623 70.2911C126.623 69.7158 127.819 69.4326 129.208 69.4326C130.067 69.4326 130.864 69.5565 131.581 69.8132C132.298 70.0699 132.909 70.3885 133.413 70.7956C133.918 71.1939 134.298 71.6187 134.564 72.0701C134.83 72.5214 134.962 72.9463 134.962 73.3357C134.962 73.7251 134.821 74.0703 134.52 74.3446C134.228 74.619 133.865 74.7606 133.44 74.7606C133.165 74.7606 132.935 74.6898 132.749 74.5482C132.563 74.4066 132.36 74.1765 132.13 73.8579C131.722 73.2383 131.297 72.7781 130.855 72.4683C130.412 72.1586 129.846 72.0081 129.164 72.0081C128.181 72.0081 127.385 72.3887 126.783 73.1587C126.181 73.9287 125.88 74.973 125.88 76.3095C125.88 76.9378 125.96 77.5131 126.11 78.0353C126.261 78.5575 126.491 79.0089 126.783 79.3806C127.075 79.7523 127.429 80.0267 127.845 80.2214C128.261 80.4161 128.713 80.5046 129.208 80.5046C129.881 80.5046 130.448 80.3541 130.926 80.0444C131.404 79.7346 131.82 79.2655 132.192 78.6283C132.395 78.2566 132.616 77.9645 132.847 77.7521C133.086 77.5397 133.369 77.4335 133.714 77.4335C134.121 77.4335 134.458 77.5839 134.723 77.8937C134.989 78.2035 135.122 78.5309 135.122 78.885" fill="#F29100"/>
<path d="M147.152 76.2297C147.152 74.8668 146.851 73.8136 146.258 73.0524C145.656 72.3001 144.859 71.9195 143.85 71.9195C143.195 71.9195 142.628 72.0877 142.133 72.424C141.637 72.7603 141.256 73.2648 140.982 73.9198C140.716 74.5747 140.575 75.3447 140.575 76.2297C140.575 77.1148 140.707 77.8582 140.973 78.5132C141.239 79.1681 141.619 79.6637 142.106 80.0089C142.602 80.3541 143.177 80.5311 143.841 80.5311C144.85 80.5311 145.656 80.1505 146.249 79.3894C146.851 78.6282 147.143 77.5839 147.143 76.2386M150.498 76.2297C150.498 77.221 150.348 78.1326 150.038 78.9734C149.728 79.8053 149.285 80.5311 148.692 81.1329C148.108 81.7348 147.409 82.195 146.594 82.5136C145.78 82.8322 144.868 82.9915 143.85 82.9915C142.832 82.9915 141.938 82.8322 141.124 82.5047C140.318 82.1773 139.619 81.7171 139.034 81.1064C138.441 80.4957 137.999 79.7788 137.689 78.9557C137.379 78.1326 137.229 77.221 137.229 76.2209C137.229 75.2208 137.379 74.2915 137.689 73.4507C137.999 72.6099 138.441 71.893 139.017 71.3C139.592 70.707 140.291 70.2468 141.115 69.9282C141.938 69.6007 142.841 69.4414 143.841 69.4414C144.841 69.4414 145.762 69.6096 146.585 69.9282C147.409 70.2557 148.108 70.7159 148.701 71.3177C149.285 71.9195 149.728 72.6364 150.038 73.4684C150.348 74.3003 150.498 75.2119 150.498 76.212" fill="#F29100"/>
<path d="M164.201 76.4685V80.9026C164.201 81.6018 164.042 82.124 163.723 82.478C163.404 82.8232 162.988 83.0002 162.466 83.0002C161.944 83.0002 161.554 82.8232 161.236 82.478C160.926 82.124 160.766 81.6018 160.766 80.9026V75.5923C160.766 74.7515 160.74 74.1054 160.678 73.6452C160.625 73.1761 160.465 72.7956 160.218 72.5035C159.961 72.2114 159.563 72.061 159.023 72.061C157.934 72.061 157.217 72.4327 156.871 73.185C156.526 73.9373 156.349 75.0082 156.349 76.4066V80.9115C156.349 81.6018 156.19 82.124 155.88 82.478C155.57 82.832 155.154 83.009 154.641 83.009C154.127 83.009 153.72 82.832 153.401 82.478C153.083 82.124 152.923 81.6018 152.923 80.9115V71.3795C152.923 70.7599 153.065 70.282 153.357 69.9546C153.649 69.6359 154.03 69.4678 154.499 69.4678C154.968 69.4678 155.331 69.6182 155.641 69.928C155.951 70.2289 156.101 70.6537 156.101 71.1936V71.5122C156.677 70.8219 157.296 70.3086 157.96 69.99C158.624 69.6625 159.35 69.5032 160.156 69.5032C160.961 69.5032 161.714 69.6713 162.316 69.9988C162.918 70.3351 163.413 70.8396 163.803 71.5122C164.36 70.8308 164.962 70.3263 165.609 69.99C166.255 69.6625 166.963 69.4943 167.742 69.4943C168.654 69.4943 169.442 69.6713 170.097 70.0342C170.752 70.3971 171.248 70.9104 171.575 71.5742C171.858 72.176 172 73.123 172 74.4241V80.9292C172 81.6284 171.841 82.1505 171.522 82.5046C171.203 82.8497 170.787 83.0267 170.265 83.0267C169.743 83.0267 169.344 82.8497 169.026 82.4957C168.707 82.1417 168.548 81.6195 168.548 80.9292V75.3268C168.548 74.6099 168.521 74.0346 168.459 73.6098C168.397 73.1761 168.238 72.8133 167.963 72.5212C167.698 72.2291 167.291 72.0875 166.742 72.0875C166.299 72.0875 165.892 72.2203 165.494 72.4769C165.104 72.7336 164.794 73.0876 164.573 73.5302C164.325 74.0877 164.21 75.079 164.21 76.5039" fill="#F29100"/>
<path d="M135.068 22.7544C134.36 21.772 133.44 21.2145 132.307 21.1082C131.173 20.9932 129.934 21.418 128.606 22.3739L127.261 23.3386C126.96 23.5244 126.65 23.728 126.358 23.9316L97.0656 44.9072L84.0527 27.2947C83.1055 25.9849 82.0609 25.206 80.919 24.9582C79.7682 24.7104 78.7148 24.9405 77.7499 25.6397C76.7673 26.3477 76.2184 27.277 76.1034 28.4099C75.9883 29.5428 76.4132 30.773 77.3781 32.1094L91.524 51.7398C92.7988 53.5099 94.1089 54.5012 95.4545 54.7136C96.8 54.926 98.3492 54.395 100.102 53.1382L131.023 30.8703C131.359 30.6314 131.66 30.3836 131.926 30.1358L133.422 29.0648C134.741 28.1178 135.52 27.0735 135.759 25.9318C135.998 24.7901 135.777 23.728 135.077 22.7633" fill="#03559D"/>
</g>
<defs>
<linearGradient id="paint0_linear_89_1345" x1="74.6216" y1="62.211" x2="75.5636" y2="5.39432" gradientUnits="userSpaceOnUse">
<stop stop-color="#EC6E1C"/>
<stop offset="1" stop-color="#FBBE0A"/>
</linearGradient>
<clipPath id="clip0_89_1345">
<rect width="172" height="83" fill="white"/>
</clipPath>
</defs>
</svg>
