<?xml version="1.0" encoding="UTF-8"?>
<svg id="Layer_2" data-name="Layer 2" xmlns="http://www.w3.org/2000/svg" viewBox="0 0 324.41 397.34">
  <defs>
    <style>
      .cls-1, .cls-2, .cls-3, .cls-4, .cls-5, .cls-6, .cls-7, .cls-8, .cls-9, .cls-10, .cls-11, .cls-12 {
        stroke-linecap: round;
      }

      .cls-1, .cls-2, .cls-3, .cls-4, .cls-5, .cls-6, .cls-7, .cls-8, .cls-9, .cls-10, .cls-12 {
        stroke-linejoin: round;
      }

      .cls-1, .cls-13, .cls-3, .cls-4, .cls-5, .cls-14, .cls-6, .cls-7, .cls-15, .cls-8, .cls-9, .cls-16, .cls-11, .cls-12 {
        stroke: #000;
      }

      .cls-1, .cls-4, .cls-9, .cls-12 {
        fill: #f7db17;
      }

      .cls-1, .cls-5 {
        stroke-width: .06px;
      }

      .cls-2 {
        stroke-width: 1.62px;
      }

      .cls-2, .cls-3, .cls-5, .cls-17, .cls-8, .cls-10, .cls-11, .cls-18 {
        fill: none;
      }

      .cls-2, .cls-10, .cls-19, .cls-18, .cls-20 {
        stroke: #231f20;
      }

      .cls-13, .cls-4, .cls-7 {
        stroke-width: .05px;
      }

      .cls-13, .cls-21 {
        fill: #fff;
      }

      .cls-13, .cls-22 {
        isolation: isolate;
      }

      .cls-23, .cls-24, .cls-17, .cls-25, .cls-21, .cls-26, .cls-27, .cls-28, .cls-29, .cls-22 {
        stroke-width: 0px;
      }

      .cls-3, .cls-11 {
        stroke-width: .06px;
      }

      .cls-24, .cls-6, .cls-16 {
        fill: red;
      }

      .cls-25 {
        fill: #0093dd;
      }

      .cls-14 {
        stroke-width: .39px;
      }

      .cls-14, .cls-15, .cls-19 {
        fill: #dfa939;
      }

      .cls-6, .cls-9, .cls-16 {
        stroke-width: .03px;
      }

      .cls-15 {
        stroke-width: .78px;
      }

      .cls-8, .cls-12 {
        stroke-width: .06px;
      }

      .cls-26 {
        fill: #171796;
      }

      .cls-27 {
        fill: #231f20;
      }

      .cls-28 {
        fill: #d0c69f;
      }

      .cls-29 {
        fill: #fbef97;
      }

      .cls-10 {
        stroke-width: .06px;
      }

      .cls-19, .cls-18, .cls-20 {
        stroke-width: 1.22px;
      }

      .cls-20 {
        fill: #ebb337;
      }
    </style>
  </defs>
  <g id="SVG">
    <g>
      <path class="cls-23" d="M158.78,48.04h0c-7.05,1.13-13.09,5.65-16.15,12.11l-.72,1.63s-.06.04-.65-.37c-8.51-6.24-20.57-5.29-28.06,2.21-3.76,3.76-5.99,8.75-6.3,14.05l-.03,1.93s-.03.05-1.34-.21c-9.61-1.85-19.31,3-23.58,11.8-1.43,2.94-2.18,6.21-2.18,9.47,0,1.99.27,3.96.81,5.87l.6,1.85s-.02.07-.51.12c-9.47.95-17.1,7.88-19,17.26-.29,1.41-.43,2.86-.43,4.3,0,3.82,1.02,7.59,2.94,10.89l1.04,1.63s0,.07-1.1.51c-6.72,2.76-11.59,8.65-13.03,15.76-.28,1.4-.43,2.84-.43,4.27,0,5.52,2.07,10.78,5.83,14.81l1.87,1.93s.01.06-1.94,1.51c-5.41,4.08-8.64,10.55-8.64,17.31,0,1.06.08,2.12.23,3.17.8,5.39,3.57,10.24,7.8,13.67l2.39,1.88s.02.06-1.84,1.96c-4.03,4.07-6.25,9.48-6.25,15.24,0,3.26.75,6.53,2.18,9.46,2.32,4.78,6.31,8.53,11.22,10.55l1.79.66s.04.05-.5.96c-1.95,3.31-2.99,7.11-2.99,11,0,4.9,1.65,9.69,4.66,13.48,3.3,4.17,8,6.97,13.23,7.88l1.91.26s.05.04-.36,1.27c-.67,2.12-1.01,4.32-1.01,6.53,0,7.46,3.75,14.3,10.03,18.3,4.49,2.85,9.84,3.95,15.08,3.11l1.9-.38s.06.02.08.89c.04,10.57,7.66,19.5,18.12,21.23,5.24.87,10.6-.21,15.09-3.05l1.4-.96s.07,0,.41.79c3.95,9.06,13.52,14.29,23.28,12.73,7.05-1.12,13.09-5.65,16.15-12.11l.72-1.63s.06-.04.65.38c8.51,6.24,20.57,5.29,28.06-2.21,3.76-3.76,5.99-8.75,6.3-14.05l.03-1.93s.04-.05,1.34.21c9.61,1.85,19.31-3,23.58-11.8,1.43-2.94,2.18-6.21,2.18-9.47,0-1.98-.27-3.95-.81-5.87l-.6-1.85s.02-.07.52-.12c9.47-.95,17.1-7.88,19-17.25.29-1.42.43-2.87.43-4.3,0-3.82-1.02-7.59-2.94-10.89l-1.03-1.63s0-.07,1.1-.51c6.72-2.76,11.59-8.65,13.03-15.75.28-1.4.43-2.84.43-4.27,0-5.52-2.07-10.78-5.83-14.81l-1.87-1.93s-.01-.06,1.94-1.51c5.41-4.08,8.64-10.55,8.64-17.31,0-1.06-.08-2.12-.23-3.17-.8-5.39-3.57-10.25-7.8-13.67l-2.39-1.88s-.02-.06,1.84-1.96c4.03-4.07,6.25-9.48,6.25-15.24,0-3.26-.75-6.53-2.18-9.46-2.33-4.78-6.31-8.53-11.22-10.55l-1.79-.66s-.04-.05.5-.96c1.96-3.31,2.99-7.11,2.99-11,0-4.9-1.65-9.69-4.66-13.48-3.3-4.17-8-6.97-13.23-7.88l-1.91-.26s-.05-.04.36-1.27c.67-2.12,1.01-4.32,1.01-6.53,0-7.46-3.75-14.3-10.03-18.3-4.49-2.85-9.84-3.96-15.08-3.11l-1.9.38s-.06-.03-.07-.89c-.04-10.57-7.67-19.5-18.12-21.23-5.24-.87-10.6.21-15.09,3.05l-1.4.96s-.07,0-.41-.79c-3.95-9.06-13.52-14.29-23.28-12.74Z"/>
      <path class="cls-23" d="M278.25,333.22c-14.7,19.16-32.02,34.2-51.49,44.71-20.31,10.96-42.03,16.51-64.56,16.51s-44.25-5.55-64.56-16.51c-19.47-10.5-36.8-25.54-51.49-44.71C18.26,296.85,2.89,249.06,2.89,198.67s15.36-98.18,43.26-134.55c14.69-19.16,32.02-34.2,51.49-44.71C117.96,8.45,139.68,2.89,162.2,2.89s44.25,5.56,64.56,16.51c19.47,10.5,36.8,25.54,51.49,44.71,27.9,36.38,43.26,84.16,43.26,134.55s-15.36,98.18-43.26,134.56Z"/>
      <path class="cls-28" d="M248.4,87.01c-22.99-29.98-53.6-46.49-86.19-46.49s-63.2,16.51-86.19,46.49c-22.89,29.84-35.49,69.5-35.49,111.66s12.6,81.82,35.49,111.66c22.99,29.98,53.6,46.49,86.19,46.49s63.2-16.51,86.19-46.49c22.89-29.84,35.49-69.5,35.49-111.66s-12.61-81.81-35.49-111.66Z"/>
      <path class="cls-23" d="M278.25,64.11c-14.7-19.16-32.02-34.2-51.49-44.71-20.31-10.96-42.03-16.51-64.56-16.51s-44.24,5.56-64.56,16.51c-19.47,10.5-36.8,25.54-51.49,44.71C18.26,100.49,2.89,148.28,2.89,198.67s15.36,98.18,43.26,134.56c14.69,19.16,32.02,34.2,51.49,44.71,20.31,10.96,42.04,16.51,64.56,16.51s44.25-5.55,64.56-16.51c19.47-10.5,36.8-25.54,51.49-44.71,27.9-36.38,43.26-84.16,43.26-134.56s-15.36-98.18-43.26-134.55ZM248.4,310.33c-22.99,29.98-53.6,46.49-86.19,46.49s-63.2-16.51-86.19-46.49c-22.89-29.84-35.49-69.5-35.49-111.66s12.6-81.81,35.49-111.66c22.99-29.98,53.6-46.49,86.19-46.49s63.2,16.51,86.19,46.49c22.89,29.84,35.49,69.5,35.49,111.66s-12.61,81.82-35.49,111.66Z"/>
      <path class="cls-28" d="M233.38,245.54c-2.07-3.42-3.16-7.33-3.16-11.31,0-1.46.15-2.92.44-4.35,1.18-5.84,4.59-10.83,9.61-14.05l.54-.34-1.93-2c-3.72-4.05-5.77-9.31-5.77-14.81,0-6.37,2.8-12.43,7.68-16.62l.48-.41-2.24-1.76c-5.52-4.4-8.59-11.23-8.22-18.27.19-3.58,1.28-7.11,3.15-10.2l.33-.54c-.82-.3-1.3-.47-1.31-.47-5.12-2.01-9.27-5.84-11.67-10.79-1.47-3.02-2.22-6.24-2.22-9.58,0-2.36.39-4.71,1.16-6.98l.2-.6c-.65-.09-1.35-.18-1.36-.18-5.43-.86-10.31-3.71-13.72-8.02-3.02-3.81-4.7-8.57-4.73-13.42v-.64c-.78.16-1.35.28-1.36.28-5.41.97-10.95-.12-15.6-3.08-3.72-2.37-6.61-5.75-8.33-9.76l-.25-.58-1.14.79c-4.6,3.01-10.13,4.18-15.56,3.28-3.22-.54-6.21-1.74-8.87-3.59l-.53-.37c-.28.62-.58,1.32-.59,1.33l-.04.08c-2.38,4.81-6.42,8.57-11.4,10.58-4.18,1.7-8.7,2.06-13.06,1.06l-.61-.14-.02,1.51c-.22,5.5-2.49,10.67-6.38,14.56-3.45,3.45-8.01,5.67-12.85,6.25l-.64.08c.21.63.43,1.31.44,1.32.61,2.05.92,4.16.92,6.28,0,3.28-.76,6.59-2.21,9.56-2.4,4.94-6.55,8.77-11.7,10.79l-.59.23c.45.7.75,1.17.75,1.17,2.07,3.42,3.16,7.33,3.16,11.31,0,1.46-.15,2.92-.44,4.35-1.18,5.84-4.6,10.83-9.61,14.05l-.54.34,1.93,2c3.72,4.05,5.77,9.31,5.77,14.81,0,6.4-2.79,12.46-7.67,16.63l-.48.41,2.23,1.75c5.52,4.4,8.59,11.23,8.22,18.27-.19,3.58-1.28,7.11-3.15,10.2l-.33.54c.82.3,1.3.47,1.31.47,5.12,2.01,9.26,5.84,11.67,10.79,1.47,3.02,2.22,6.24,2.22,9.58,0,2.36-.39,4.71-1.16,6.99l-.2.6c.65.09,1.35.18,1.36.18,5.44.86,10.31,3.71,13.73,8.02,3.02,3.81,4.7,8.58,4.73,13.43v.64c.78-.16,1.35-.28,1.36-.28,5.41-.97,10.95.12,15.6,3.08,3.73,2.37,6.61,5.75,8.33,9.76l.25.58,1.14-.79c4.6-3.02,10.12-4.18,15.56-3.28,3.22.53,6.21,1.74,8.87,3.59l.54.37c.28-.63.59-1.32.59-1.33l.04-.08c2.38-4.81,6.43-8.57,11.4-10.58,4.18-1.69,8.7-2.06,13.05-1.06l.62.14.02-1.51c.23-5.5,2.49-10.67,6.38-14.56,3.45-3.45,8.01-5.67,12.85-6.25l.63-.08c-.21-.63-.43-1.31-.44-1.32-.61-2.05-.92-4.16-.92-6.28,0-3.29.76-6.59,2.21-9.56,2.4-4.94,6.56-8.77,11.7-10.79l.59-.23c-.45-.7-.75-1.17-.75-1.17Z"/>
      <g>
        <g>
          <g>
            <path class="cls-20" d="M192.09,256.66l-.09,1.26.31-.45,1.93-2.86.31-.46.3-.45,1.77-2.62.3-.45-1.22.33-73.07-49.9c-4.47-3.02-8.86-2.23-9.84-2.01l-.64.12.04.58h0l.02.27h0c.15,1.2,1.01,5.47,5.3,8.59,4.81,3.49,74.17,47.76,74.58,48.04Z"/>
            <path class="cls-20" d="M197.59,245.33s.04-1.04,2.63.71c2.6,1.76,2.01,2.41,2.01,2.41l-9.66,9.14,5.02-12.26Z"/>
            <path class="cls-20" d="M186.96,261.17s-.94.42,1.66,2.18c2.6,1.75,2.98.95,2.98.95l4.85-12.38-9.49,9.25Z"/>
            <path class="cls-29" d="M193.74,253.99c-.86,1.27,1.17,4.12,4.53,6.37,3.37,2.25,6.79,3.05,7.65,1.78.86-1.27-1.17-4.12-4.53-6.37-3.37-2.25-6.79-3.05-7.65-1.78Z"/>
            <path class="cls-20" d="M193.51,253.84c-.23.34-.3.78-.2,1.29.31,1.57,2.19,3.72,4.8,5.47,2.61,1.75,5.33,2.68,6.91,2.37.51-.1.89-.32,1.12-.66.97-1.41-1.06-4.38-4.6-6.75-2.62-1.75-5.33-2.68-6.91-2.37-.52.1-.9.32-1.13.66Z"/>
            <rect class="cls-27" x="191.09" y="251.06" width="7.05" height="7.05" transform="translate(-44.94 41.75) rotate(-10.98)"/>
            <rect class="cls-27" x="191.85" y="251.67" width="6.76" height="6.76" transform="translate(-45.02 41.87) rotate(-10.98)"/>
            <path class="cls-20" d="M208.41,263.83c-.39.58-.24,1.38.35,1.77.59.4,1.39.25,1.78-.34.4-.58.25-1.38-.34-1.77-.59-.39-1.38-.24-1.78.34Z"/>
            <line class="cls-2" x1="117.34" y1="202.81" x2="187.43" y2="249.44"/>
            <path class="cls-27" d="M191.87,258.93l6.92-1.34.22-.05-.05-.22-1.34-6.91-.04-.22-.22.04-6.92,1.34-.22.04.04.22,1.34,6.92.04.22.22-.04Z"/>
            <rect class="cls-20" x="191.24" y="251.2" width="6.76" height="6.76" transform="translate(-45.03 41.84) rotate(-11.01)"/>
          </g>
          <path class="cls-20" d="M203.57,262.43c0-1.68,1.36-3.05,3.05-3.05s3.04,1.37,3.04,3.05-1.37,3.05-3.04,3.05-3.05-1.36-3.05-3.05Z"/>
        </g>
        <line class="cls-18" x1="205.42" y1="264.92" x2="207.96" y2="259.95"/>
      </g>
      <g>
        <path class="cls-19" d="M208.03,197.66s-2.8,2.6-4.26,3.21c-1.46.61-5.23,1.25-7.39,3-2.15,1.75-4.42,3.49-3.97,6.86.44,3.37,1.01,4.5.44,7.35,0,0,8.28,1.26,12.66-4.99,4.38-6.25,3.29-11.76,2.52-15.42Z"/>
        <path class="cls-19" d="M191.28,220.42s.97,3.57,2.84,5.68c1.87,2.11,4.3,1.9,6.57,1.05,2.27-.85,6.45-1.58,9.05-.2,0,0-.73-3.36-3.98-5.68-3.24-2.31-4.79-1.94-6.28-1.18-1.51.78-3.69,2.03-8.2.32Z"/>
        <path class="cls-19" d="M189.25,216.13c1.4,0,2.52-1.13,2.52-2.53s-1.13-2.53-2.52-2.53-2.52,1.13-2.52,2.53,1.13,2.53,2.52,2.53Z"/>
        <path class="cls-19" d="M170.05,232.48c1.39,0,2.52-1.13,2.52-2.53s-1.13-2.53-2.52-2.53-2.53,1.13-2.53,2.53,1.13,2.53,2.53,2.53Z"/>
        <path class="cls-19" d="M149.4,234.86c1.39,0,2.52-1.12,2.52-2.52s-1.13-2.52-2.52-2.52-2.53,1.13-2.53,2.52,1.13,2.52,2.53,2.52Z"/>
        <path class="cls-19" d="M126.69,255.94c1.39,0,2.52-1.13,2.52-2.52s-1.13-2.52-2.52-2.52-2.53,1.13-2.53,2.52,1.13,2.52,2.53,2.52Z"/>
        <path class="cls-19" d="M191.15,229.8c1.4,0,2.53-1.13,2.53-2.52s-1.13-2.52-2.53-2.52-2.52,1.13-2.52,2.52,1.13,2.52,2.52,2.52Z"/>
        <path class="cls-19" d="M211.6,223.35c1.39,0,2.52-1.13,2.52-2.52s-1.13-2.53-2.52-2.53-2.53,1.13-2.53,2.53,1.13,2.52,2.53,2.52Z"/>
        <path class="cls-19" d="M174.24,228.9s1.42,3,2.76,4.94c1.34,1.95,3.61,3.12,6.25,2.68,2.64-.45,3.57-2.36,5.32-2.24,1.74.12,3.45.33,4.46,1.06,0,0-1.22-4.34-5.07-6.29-3.85-1.95-5.63.77-7.38.93-1.75.16-6.33-1.09-6.33-1.09Z"/>
        <path class="cls-19" d="M185.15,212.71s-1.54.81-3.32,1.99c-1.78,1.18-4.7.85-6.97,2.48-2.27,1.62-3.28,3.41-2.72,6.05.56,2.63.12,4.78.12,4.78,0,0,4.63,1.91,10.1-2.43,5.48-4.34,2.8-12.86,2.8-12.86Z"/>
        <path class="cls-19" d="M178.62,239.37s-4.05-6.62-9.61-6.46c-5.56.17-4.66,2.88-7.5,3.09-2.76.2-5.72-.57-5.72-.57,0,0,1.34,3.86,4.5,6.21,3.16,2.35,6.73,2.47,8.92.6,2.2-1.86,4.5-4.34,9.41-2.88Z"/>
        <path class="cls-19" d="M160.94,242.81s-3.61-.65-5.76-3.04c-2.15-2.4-4.58-4.78-8.27-4.43-3.69.36-6.7,4.43-8.36,4.46,0,0,2.35,7.38,10.42,8.15,8.07.78,11.97-5.15,11.97-5.15Z"/>
        <path class="cls-19" d="M126.98,248.66c-1.72,1.78-8.13,8.02-10.46,10.18-2.72,2.52-4.1,4.47-4.58,4.51-.49.04-1.58-.78-2.8-2.44-1.21-1.66-.52-6,1.18-7.14,1.5-.99,13.19-8.04,15.99-9.73,0,0,5.51-.38.68,4.62Z"/>
        <path class="cls-19" d="M127.43,248.21s2.35,4.06,5.52,3.61c3.16-.45,4.34-2.07,5.31-2.64.97-.57,3.04-1.14,3.04-1.14,0,0-1.82-5.07-8.89-5.27,0,0,4.18-1.82,4.71-6.74.53-4.9-3.08-10.3-3.08-10.3,0,0-1.13,2.27-2.39,3.36-1.25,1.1-4.3,2.11-6.16,4.79-1.87,2.68-.94,5.6,1.42,9.78,0,0,3.13,2.6.53,4.54Z"/>
        <path class="cls-19" d="M129.69,245.09s5.65-2.11,7.92-2.07c2.27.04,5.44-1.54,6.25-4.5.81-2.96.37-4.06,1.63-6.21,1.25-2.15,1.58-2.55,1.58-2.55,0,0-7.42-1.75-11.68,2.63-4.26,4.38-6.3,10.42-5.69,12.7Z"/>
        <path class="cls-19" d="M162.6,216.53s-.97,1.38-2.43,1.91c-1.46.53-4.1,1.05-5.43,3-1.34,1.95-1.58,3.73-1.06,5.19.53,1.46.93,3.82.93,4.39,0,0,6.57-.04,8.56-5.48,1.99-5.44-.57-9.01-.57-9.01Z"/>
        <path class="cls-19" d="M199.84,217.17s1.46-.04,3.17.86c1.71.89,4.22,1.78,6.53-.09,2.31-1.87,2.56-3.57,3.81-4.74,1.26-1.18,2.03-1.95,2.03-1.95,0,0-5.59-3.98-10.38-1.3-4.79,2.68-5.15,7.22-5.15,7.22Z"/>
        <path class="cls-19" d="M190.59,218.6s-6.57-2.07-10.14,2.43c-3.57,4.5-2.6,6.86-2.27,8.4,0,0,2.76-.08,5.07,0,2.31.08,3.82-1.17,4.79-2.96.97-1.78.65-3.97,1.26-5.11.61-1.14,1.38-2.35,1.66-2.56l-.37-.2Z"/>
        <path class="cls-19" d="M170.88,223.62s-8.84-4.09-14.81,2.19c-5.96,6.29-3.57,10.1-3.57,10.1,0,0,5.35.57,7.59.44,2.23-.12,5.48-1.58,6.32-4.95.86-3.37,1.46-5.43,4.47-7.79Z"/>
      </g>
      <g>
        <path class="cls-14" d="M36.98,158.72l-2.83-.7.68-2.77-16.9-4.17-.68,2.77-2.8-.69,2.75-11.13c.49-1.96,1.02-3.74,2.63-5.09,1.48-1.27,3.59-1.43,5.39-.99,3.05.75,4.77,3.26,4.35,6.46,1.01-2.58,2.03-2.81,4.56-2.9l4.65-.18.48-1.93,2.83.7-1.43,5.76c-2.29.22-7.79-.25-9.69.82-.83.51-.96,1.47-1.18,2.34l-.54,2.19,6.67,1.65.66-2.67,2.83.7-2.43,9.85ZM19.05,146.68l7.36,1.82.56-2.25c.32-1.29.56-2.66-.08-3.88-.57-1.09-1.56-1.65-2.7-1.93-1.04-.26-2.29-.05-3.16.62-.76.63-1.04,1.79-1.27,2.72l-.71,2.9Z"/>
        <path class="cls-14" d="M42.67,136.2l-2.73-1.03.97-2.57-16.26-6.13-.97,2.57-2.73-1.03,6.92-18.36,6.64,2.5-1.28,3.41-3.92-1.47-3.06,8.13,6.62,2.49,1.23-3.26-2.82-1.06,1.11-2.95,8.28,3.12-1.11,2.95-2.73-1.03-1.23,3.26,6.92,2.61,3.06-8.13-4.19-1.58,1.29-3.41,6.92,2.61-6.92,18.36Z"/>
        <path class="cls-14" d="M50.81,115.05l-2.58-1.35,1.29-2.46-15.43-8.07-1.29,2.47-2.56-1.34,5.19-9.93c1.02-1.94,2.07-3.48,4.29-4.15,1.87-.56,3.85-.23,5.55.66,2.07,1.08,3.49,2.57,4.02,4.91.44,2.02-.65,4.11-1.57,5.87l-1.44,2.76,5.34,2.8,1.61-3.08,2.59,1.35-5.01,9.58ZM36.22,99.16l7.47,3.9,1.06-2.03c.57-1.09,1.2-2.29.77-3.56-.39-1.14-1.38-1.92-2.41-2.46-1-.53-2.35-.89-3.43-.44-1.32.5-1.79,1.39-2.4,2.56l-1.06,2.03Z"/>
        <path class="cls-14" d="M41.46,83.22l5.72-8.05,2.38,1.69-1.71,2.4,8.99,6.38c1.35.96,2.6,1.88,4.28,1.98,1.61.08,2.93-.77,3.87-2.09.48-.68.67-1.23.85-2.04.31-1.28-.39-2.64-1.14-3.61-.7-.86-1.77-1.54-2.64-2.16l-8.72-6.19-1.69,2.38-2.38-1.69,5.47-7.7,2.38,1.69-1.38,1.95,8.41,5.97c1.43,1.02,3.12,2.1,4.05,3.65.9,1.53,1.3,3.32,1.11,5.1-.12,1.46-1.19,3.58-2.06,4.8-.85,1.19-2.41,2.68-3.7,3.31-1.39.72-2.93.88-4.44.71-1.93-.19-3.47-1.33-5-2.42l-8.88-6.31-1.38,1.95-2.38-1.69Z"/>
        <path class="cls-14" d="M65.06,53.38c1.3-1.37,2.65-2.6,4.59-2.91,1.66-.25,3.51.59,4.68,1.71,2.16,2.05,2.41,4.53.66,7.03,2.31-2.29,5.61-1.76,7.77.29,1.65,1.56,2.28,3.81,1.64,6.04-.51,1.76-2.26,3.56-3.5,4.86l-7.23,7.62-2.14-2.03,1.87-1.97-12.58-11.94-1.87,1.97-2.12-2.01,8.22-8.65ZM63.96,58.78l5.05,4.8,1.83-1.92c.75-.79,1.82-1.92,1.9-3.04.05-1.05-.47-2.14-1.22-2.85-.97-.91-2.13-1.43-3.44-.89-.97.45-2.08,1.77-2.81,2.54l-1.3,1.37ZM78.66,68.53c.85-.89,1.73-1.87,1.83-3.15.05-1.28-.4-2.16-1.3-3.01-.9-.85-2.04-1.29-3.26-.99-1.18.3-1.91,1.16-2.73,2.03l-2.08,2.19,5.43,5.16,2.1-2.21Z"/>
        <path class="cls-14" d="M89.4,61.76l-1.77-2.32,2.22-1.68-10.51-13.84-2.22,1.68-1.77-2.32,8.68-6.6,1.77,2.32-2.85,2.16,10.51,13.84,5.65-4.29-3.2-4.21,3.17-2.41,4.96,6.53-14.65,11.13Z"/>
        <path class="cls-14" d="M96.32,31.79l-1.42-2.55,9.02-5.05,1.43,2.55-2.55,1.42,8.48,15.16,2.55-1.42,1.42,2.55-9.02,5.05-1.42-2.55,2.52-1.41-8.48-15.17-2.52,1.41Z"/>
        <path class="cls-14" d="M117.17,43.07l-.99-2.75,2.56-.92-5.89-16.35-2.55.92-.99-2.75,9.36-3.37.99,2.75-2.53.91,2.63,7.29,3.92-9.65-2.09.75-.99-2.75,8.61-3.1.99,2.75-1.68.61-4.14,9.72,10.47,6.47,1.75-.63.99,2.75-8.95,3.22-.99-2.75,2.21-.8-9.93-6.14,3.1,8.6,2.53-.91.99,2.75-9.36,3.37Z"/>
        <path class="cls-14" d="M138.97,35.23l-.31-2.9,1.88-.2,5.57-21.01,5.4-.58,9.85,19.35,1.88-.2.31,2.9-9.55,1.03-.31-2.9,2.83-.31-1.93-4-8.77.94-1.07,4.32,2.87-.31.31,2.9-8.96.96ZM153.12,23.63l-4.24-9.03h-.03s-2.22,9.73-2.22,9.73l6.49-.7Z"/>
        <path class="cls-14" d="M176.67,33.59l.73-2.82,2.63.68,4.36-16.82-2.63-.68.73-2.82,9.82,2.54-.73,2.83-2.79-.72-1.77,6.84,9.3,2.41,1.77-6.84-2.79-.72.73-2.82,9.85,2.55-.73,2.82-2.66-.69-4.36,16.82,2.66.69-.73,2.82-9.85-2.55.73-2.82,2.79.72,1.85-7.16-9.3-2.41-1.85,7.16,2.79.72-.73,2.82-9.82-2.54Z"/>
        <path class="cls-14" d="M201.83,40.56l1.35-2.59,2.53,1.32,8.07-15.42-2.53-1.32,1.34-2.56,10.16,5.32c1.79.94,3.39,1.88,4.32,3.76.88,1.74.54,3.83-.32,5.47-1.46,2.79-4.3,3.86-7.31,2.68,2.27,1.59,2.25,2.64,1.74,5.12l-.93,4.56,1.76.92-1.35,2.58-5.26-2.75c.33-2.28,2.09-7.5,1.51-9.6-.3-.93-1.2-1.29-1.99-1.7l-2-1.05-3.19,6.09,2.44,1.27-1.35,2.58-8.98-4.7ZM217.79,26l-3.52,6.72,2.06,1.08c1.17.61,2.45,1.17,3.78.85,1.2-.29,1.97-1.13,2.51-2.16.5-.95.6-2.21.15-3.22-.43-.89-1.49-1.44-2.34-1.88l-2.64-1.38Z"/>
        <path class="cls-14" d="M233.52,31.12l7.58,5.85-1.78,2.31-2.41-1.86-5.25,15.6.03.02,13.81-9.01-2.28-1.76,1.78-2.31,7.17,5.52-1.78,2.31-1.39-1.07-18.35,11.48-4.02-3.1,6.49-20.63-1.36-1.05,1.78-2.31Z"/>
        <path class="cls-14" d="M236.18,62.22l2.13-1.99,1.29,1.38,20.13-8.19,3.72,3.97-9.53,19.51,1.29,1.38-2.13,2-6.57-7.01,2.13-1.99,1.95,2.08,2.03-3.95-6.03-6.43-4.09,1.75,1.97,2.1-2.13,2-6.16-6.58ZM253.95,66.54l4.66-8.82-.02-.02-9.11,4.08,4.46,4.77Z"/>
        <path class="cls-14" d="M264.28,70.14l6.44-4.59,11.41,16-6.44,4.59-2.23-3.13,3.96-2.82-2.15-3.02-14.04,10.01,1.85,2.59-2.38,1.69-6.35-8.9,2.38-1.7,1.87,2.62,14.04-10.02-2.15-3.02-3.96,2.83-2.23-3.13Z"/>
        <path class="cls-14" d="M283.59,99.84c.23-.12.43-.23.64-.39,2.18-1.35,3.23-3.36,1.89-5.8-.49-.9-1.15-1.75-2.19-1.97-.87-.17-1.69.02-2.49.45-1.71.93-1.39,2.99-1.11,4.65l.45,3.04c.24,1.38.38,2.51.21,3.89-.15,1.48-.81,2.3-1.82,3.3-.43.43-1.03.83-1.57,1.12-1.65.9-3.03,1.02-4.32.74-2.55-.27-4.27-2.46-5.18-4.12-1.08-1.98-1.62-4.1-.43-6.11l-1.91,1.04-1.78-3.26,7.08-3.88,1.88,3.43c-2.44,1.34-4.28,3.59-2.72,6.44,1.02,1.86,2.8,2.89,4.79,1.8,1.99-1.09,1.75-2.88,1.47-4.81l-.47-3.22c-.28-1.66-.44-2.97,0-4.58.43-1.44,1.44-2.56,2.75-3.28,1.85-1.01,3.69-.96,4.57-.84,1.67.22,3.41,1.38,4.72,3.76.99,1.8,1.67,4,.6,5.95l1.71-.93,1.78,3.25-6.71,3.68-1.85-3.37Z"/>
        <path class="cls-14" d="M273,112.92l2.71-1.09,1.02,2.52,16.12-6.49-1.01-2.52,2.71-1.09,3.71,9.22-2.71,1.09-1-2.49-7.19,2.89,9.79,3.56-.83-2.06,2.71-1.09,3.41,8.49-2.71,1.09-.67-1.66-9.87-3.78-6.08,10.69.69,1.72-2.71,1.09-3.55-8.83,2.71-1.09.88,2.18,5.77-10.15-8.48,3.41,1,2.49-2.71,1.09-3.71-9.22Z"/>
        <path class="cls-14" d="M281.82,135.03l2.83-.72.47,1.83,21.59,2.54,1.34,5.27-17.76,12.49.47,1.83-2.83.72-2.37-9.31,2.83-.72.7,2.76,3.68-2.48-2.17-8.54-4.43-.45.71,2.8-2.83.72-2.22-8.74ZM295.3,147.4l8.34-5.48v-.03s-9.95-.82-9.95-.82l1.61,6.33Z"/>
      </g>
      <g>
        <path class="cls-14" d="M18.59,261.26l-1.96-9.31,2.86-.6.52,2.46,16.98-3.57v-.03s-21.08-1.77-21.08-1.77l-.86-4.09,18.63-9.91v-.03s-16.98,3.56-16.98,3.56l.48,2.3-2.85.6-1.83-8.69,2.86-.6.55,2.63,17.01-3.57-.55-2.63,2.85-.6,2.01,9.57-16.59,8.53v.03s18.64,1.17,18.64,1.17l2.05,9.76-2.85.6-.55-2.63-17.01,3.57.55,2.63-2.86.6Z"/>
        <path class="cls-14" d="M39.52,259.03l2.77-.91,3.23,9.82-2.77.91-.91-2.77-16.51,5.43.91,2.77-2.77.91-3.23-9.82,2.77-.91.9,2.74,16.51-5.43-.9-2.74Z"/>
        <path class="cls-14" d="M24.7,279.39l2.66-1.19,1.12,2.51,15.86-7.1-1.12-2.51,2.66-1.19,3.6,8.05-13.06,15.51v.03s14.01-6.26,14.01-6.26l-1.14-2.54,2.66-1.19,3.82,8.53-2.66,1.19-1.05-2.36-18.53,8.29-2.4-5.35,13.42-15.88v-.03s-14.45,6.46-14.45,6.46l1.07,2.39-2.66,1.19-3.82-8.53Z"/>
        <path class="cls-14" d="M54.4,294.86l2.52-1.48,5.23,8.92-2.52,1.48-1.48-2.52-14.99,8.79,1.48,2.51-2.52,1.48-5.23-8.92,2.52-1.48,1.46,2.49,14.99-8.79-1.46-2.49Z"/>
        <path class="cls-14" d="M64.44,318.97c.21-.15.39-.28.58-.46,2-1.61,2.78-3.73,1.14-5.99-.6-.83-1.36-1.59-2.42-1.68-.88-.06-1.67.23-2.41.76-1.58,1.14-1.01,3.14-.52,4.76l.82,2.96c.41,1.34.69,2.44.7,3.83.04,1.49-.52,2.38-1.39,3.5-.37.48-.91.95-1.41,1.31-1.52,1.1-2.88,1.39-4.2,1.28-2.56.06-4.54-1.9-5.65-3.43-1.32-1.83-2.12-3.87-1.19-6.01l-1.76,1.27-2.18-3,6.54-4.74,2.29,3.17c-2.26,1.64-3.79,4.1-1.89,6.73,1.24,1.72,3.14,2.51,4.98,1.18,1.84-1.33,1.37-3.08.85-4.96l-.87-3.14c-.49-1.61-.81-2.89-.57-4.54.24-1.49,1.1-2.73,2.31-3.6,1.71-1.24,3.54-1.42,4.42-1.41,1.69,0,3.56.94,5.16,3.14,1.2,1.66,2.16,3.75,1.34,5.82l1.58-1.14,2.18,3.01-6.2,4.49-2.26-3.11Z"/>
        <path class="cls-14" d="M68.86,325.33l5.72-5.47,13.58,14.2-5.72,5.47-2.66-2.78,3.52-3.36-2.57-2.68-12.47,11.92,2.2,2.3-2.11,2.02-7.56-7.9,2.11-2.02,2.22,2.32,12.47-11.92-2.57-2.68-3.51,3.36-2.66-2.78Z"/>
        <path class="cls-14" d="M72.92,351.79l1.77-2.32,1.5,1.15,18.5-11.41,4.32,3.3-6.17,20.82,1.5,1.15-1.77,2.32-7.64-5.83,1.77-2.32,2.27,1.73,1.35-4.23-7.01-5.35-3.75,2.4,2.29,1.75-1.77,2.32-7.16-5.47ZM91.17,353.12l3.14-9.47-.03-.02-8.3,5.53,5.19,3.96Z"/>
        <path class="cls-14" d="M96.2,368.89l1.29-2.62,2.55,1.26,7.72-15.61-2.56-1.26,1.28-2.59,10.28,5.08c1.81.9,3.43,1.81,4.4,3.66.92,1.72.63,3.82-.19,5.47-1.39,2.82-4.21,3.96-7.25,2.85,2.31,1.54,2.31,2.59,1.85,5.08l-.82,4.58,1.78.88-1.29,2.62-5.32-2.63c.28-2.28,1.92-7.55,1.29-9.64-.32-.92-1.23-1.26-2.03-1.65l-2.02-1-3.04,6.16,2.46,1.22-1.29,2.62-9.09-4.5ZM111.82,353.97l-3.36,6.8,2.08,1.03c1.19.59,2.48,1.12,3.8.76,1.19-.32,1.95-1.17,2.46-2.22.48-.96.55-2.23.08-3.22-.45-.88-1.53-1.4-2.39-1.83l-2.67-1.32Z"/>
        <path class="cls-14" d="M136.86,368.5c.07-.25.13-.47.17-.73.56-2.5-.16-4.65-2.84-5.39-.99-.27-2.05-.4-2.94.2-.72.51-1.16,1.22-1.41,2.1-.52,1.88,1.17,3.08,2.56,4.04l2.49,1.8c1.16.79,2.07,1.48,2.94,2.56.96,1.14,1.08,2.18,1.1,3.6,0,.61-.12,1.31-.29,1.91-.5,1.81-1.38,2.88-2.48,3.62-1.97,1.64-4.74,1.35-6.56.85-2.17-.6-4.07-1.7-4.68-3.95l-.58,2.09-3.58-.99,2.15-7.78,3.77,1.04c-.74,2.69-.41,5.57,2.72,6.44,2.04.56,4.02,0,4.63-2.19.61-2.19-.85-3.26-2.43-4.4l-2.64-1.91c-1.39-.96-2.44-1.75-3.28-3.19-.74-1.31-.84-2.82-.44-4.26.56-2.03,1.88-3.32,2.58-3.86,1.32-1.05,3.37-1.49,5.99-.76,1.98.55,4.03,1.58,4.68,3.72l.52-1.87,3.58.99-2.04,7.37-3.7-1.02Z"/>
        <path class="cls-14" d="M144.12,370.59l.6-7.89,19.59,1.5-.6,7.89-3.83-.29.37-4.85-3.7-.28-1.32,17.2,3.17.24-.22,2.91-10.9-.83.22-2.91,3.21.25,1.32-17.2-3.7-.28-.37,4.85-3.83-.29Z"/>
        <path class="cls-14" d="M166.04,364.36l9.47-1.4.43,2.89-3.02.45,7.59,14.61h.03s3.1-16.19,3.1-16.19l-2.85.42-.43-2.89,8.95-1.32.43,2.88-1.74.26-4.47,21.18-5.02.74-10.35-18.98-1.7.25-.43-2.89Z"/>
        <path class="cls-14" d="M215.62,362.86c.62,1.57,1.19,3.26,1.2,4.9.02,1.49-.1,2.97-.67,4.42-1.23,3-3.6,4.95-6.62,6.15-3.23,1.28-6.05,1.46-9.19.02-2.61-1.19-4.66-4.01-5.66-6.54-1.2-3.01-1.8-6.16-.68-9.36,1.11-2.95,3.64-5.21,6.59-6.38,6.9-2.74,12.54.5,15.03,6.8ZM197.93,363.64c-.27,1.92.39,4.03,1.08,5.78,1.49,3.74,4.56,8.16,9.43,6.23,1.57-.62,2.78-1.8,3.38-3.33.55-1.4.49-2.63.31-4.06-.14-1.17-.65-2.53-1.09-3.65-.61-1.54-2-4.16-3.35-5.12-1.84-1.33-3.78-1.64-5.94-.78-2.19.87-3.53,2.69-3.82,4.94Z"/>
        <path class="cls-14" d="M246.84,340.52c1.06,1.31,2.1,2.76,2.6,4.32.46,1.42.78,2.87.67,4.42-.29,3.23-1.97,5.8-4.5,7.84-2.71,2.19-5.35,3.19-8.77,2.74-2.85-.37-5.64-2.45-7.35-4.57-2.04-2.52-3.55-5.34-3.43-8.73.19-3.15,1.93-6.05,4.4-8.05,5.78-4.66,12.12-3.24,16.37,2.04ZM230.17,346.51c.31,1.92,1.56,3.74,2.74,5.2,2.53,3.13,6.78,6.45,10.85,3.16,1.31-1.06,2.12-2.54,2.24-4.19.11-1.5-.32-2.66-.91-3.98-.48-1.07-1.37-2.23-2.12-3.16-1.04-1.29-3.15-3.38-4.72-3.9-2.16-.72-4.1-.44-5.91,1.02-1.83,1.48-2.58,3.62-2.18,5.84Z"/>
        <path class="cls-14" d="M248.82,321.16c1.25-1.42,2.54-2.7,4.48-3.08,1.65-.31,3.53.45,4.75,1.52,2.24,1.97,2.58,4.43.93,6.99,2.22-2.38,5.53-1.98,7.77-.01,1.71,1.5,2.43,3.72,1.88,5.97-.44,1.78-2.12,3.65-3.3,4.99l-6.93,7.89-2.22-1.95,1.79-2.04-13.04-11.44-1.79,2.04-2.19-1.93,7.87-8.96ZM247.93,326.6l5.24,4.6,1.75-1.99c.72-.82,1.75-1.99,1.78-3.11.01-1.05-.55-2.12-1.33-2.8-1-.88-2.19-1.34-3.48-.76-.95.49-2.01,1.85-2.71,2.65l-1.25,1.42ZM263,335.77c.81-.92,1.66-1.94,1.71-3.22,0-1.28-.49-2.15-1.41-2.96-.92-.81-2.08-1.21-3.3-.86-1.16.34-1.86,1.23-2.65,2.13l-1.99,2.26,5.63,4.94,2.01-2.29Z"/>
        <path class="cls-14" d="M274.87,326.15l-2.44-1.59,1.56-2.39-14.58-9.51-1.56,2.39-2.42-1.58,6.26-9.6c1.1-1.69,2.2-3.19,4.16-3.94,1.82-.71,3.87-.17,5.41.84,2.63,1.72,3.43,4.65,1.97,7.54,1.8-2.11,2.84-1.98,5.26-1.24l4.45,1.36,1.09-1.67,2.44,1.59-3.24,4.97c-2.24-.55-7.27-2.8-9.41-2.42-.95.21-1.4,1.07-1.88,1.82l-1.23,1.89,5.76,3.75,1.5-2.31,2.44,1.59-5.54,8.49ZM261.91,308.87l6.35,4.14,1.27-1.94c.73-1.11,1.41-2.33,1.21-3.68-.17-1.22-.93-2.07-1.91-2.71-.9-.59-2.15-.81-3.19-.46-.92.35-1.58,1.35-2.1,2.15l-1.63,2.5Z"/>
        <path class="cls-14" d="M288.78,304.42l-2.64-1.23.8-1.71-15.1-15.64,2.3-4.92,21.66,1.58.8-1.71,2.64,1.23-4.06,8.71-2.64-1.23,1.2-2.58-4.42-.42-3.73,7.99,3.15,3.15,1.22-2.61,2.64,1.23-3.81,8.17ZM286.17,286.31l-9.92-1.04-.02.03,7.18,6.93,2.76-5.92Z"/>
        <path class="cls-14" d="M300.55,278.46l-2.79-.87.82-2.63-16.59-5.16-.82,2.63-2.79-.87,2.62-8.42,20.05-2.99v-.03s-14.63-4.56-14.63-4.56l-.83,2.66-2.79-.87,2.78-8.92,2.78.87-.77,2.47,19.38,6.03-1.74,5.6-20.57,3.04v.03s15.1,4.7,15.1,4.7l.78-2.5,2.79.87-2.78,8.92Z"/>
        <path class="cls-14" d="M308.71,250.87l-2.87-.52.49-2.71-17.1-3.12-.49,2.71-2.87-.52,3.52-19.3,6.98,1.27-.65,3.59-4.12-.75-1.56,8.54,6.95,1.27.62-3.42-2.97-.54.56-3.1,8.71,1.59-.56,3.1-2.87-.52-.62,3.42,7.27,1.32,1.56-8.54-4.4-.8.65-3.59,7.27,1.33-3.52,19.3Z"/>
      </g>
      <path class="cls-15" d="M74.58,85.91h0c-23.13,30.16-35.87,70.2-35.87,112.76s12.74,82.6,35.87,112.76c23.34,30.44,54.46,47.2,87.63,47.2s64.29-16.76,87.63-47.2c23.13-30.16,35.86-70.2,35.86-112.76s-12.74-82.6-35.86-112.76c-23.34-30.44-54.46-47.2-87.63-47.2s-64.28,16.76-87.63,47.2ZM162.2,43.02c31.79,0,61.7,16.16,84.21,45.51,22.55,29.41,34.97,68.52,34.97,110.13s-12.42,80.73-34.97,110.14c-22.51,29.35-52.41,45.51-84.21,45.51s-61.7-16.16-84.21-45.51c-22.55-29.41-34.98-68.52-34.98-110.14s12.42-80.72,34.98-110.13h0c22.51-29.35,52.41-45.51,84.21-45.51Z"/>
      <path class="cls-21" d="M193.89,113.78s-8.58,3.2-9.29,3.46c-.5-.57-6.51-7.46-6.51-7.46,0,0-7.94,4.57-8.59,4.95-.58-.48-7.66-6.29-7.66-6.29,0,0-7.07,5.81-7.65,6.29-.66-.38-8.59-4.95-8.59-4.95,0,0-6.02,6.89-6.51,7.46-.71-.27-9.29-3.46-9.29-3.46l-5.57,9.06,7.31,16.61,1.55-.67c3.41-1.44,6.97-2.64,10.57-3.55,1.09-.28,2.2-.53,3.3-.76,2.87-.59,5.82-1.01,8.77-1.25,2.03-.17,4.09-.25,6.12-.25,2.03,0,4.09.09,6.12.25,2.95.24,5.9.66,8.77,1.25,1.1.22,2.21.48,3.31.76,3.6.91,7.15,2.11,10.57,3.55l1.55.67.24-.54,7.07-16.07-5.57-9.06ZM191.85,138.67c-.34-.15-.68-.29-1.01-.44-3.45-1.46-7.02-2.65-10.65-3.58-1.1-.28-2.21-.54-3.33-.76-2.91-.59-5.86-1.01-8.84-1.26-2.05-.17-4.11-.25-6.17-.25s-4.12.08-6.17.25h0c-2.98.25-5.93.66-8.84,1.26-1.12.23-2.23.48-3.33.76-3.63.92-7.2,2.12-10.65,3.58-.34.14-.68.29-1.01.44l-6.94-15.78,5.15-8.38,9.22,3.43,6.46-7.4,8.52,4.91,7.59-6.24,7.6,6.24,8.52-4.92,6.46,7.41,9.22-3.43,5.15,8.38-6.94,15.78Z"/>
      <path class="cls-26" d="M184.42,117.94l-6.46-7.41-8.52,4.92-1.43,17.18c2.98.25,5.93.67,8.84,1.26,1.12.23,2.22.49,3.33.76l4.24-16.71Z"/>
      <path class="cls-21" d="M131,140.43v36.77c0,8.24,3.21,15.98,9.03,21.8,5.82,5.83,13.57,9.03,21.81,9.03s15.98-3.21,21.8-9.03c5.82-5.82,9.03-13.57,9.03-21.8v-36.77s-61.68,0-61.68,0Z"/>
      <path class="cls-17" d="M132.19,177.2c0,16.37,13.27,29.65,29.65,29.65s29.65-13.28,29.65-29.65v-35.58s-59.3,0-59.3,0v35.58Z"/>
      <rect class="cls-21" x="144.05" y="141.62" width="11.86" height="13.05"/>
      <rect class="cls-21" x="167.77" y="141.62" width="11.86" height="13.05"/>
      <rect class="cls-21" x="155.91" y="154.66" width="11.86" height="13.05"/>
      <rect class="cls-21" x="132.19" y="154.66" width="11.86" height="13.05"/>
      <rect class="cls-21" x="144.05" y="167.71" width="11.86" height="13.05"/>
      <rect class="cls-21" x="167.77" y="167.71" width="11.86" height="13.05"/>
      <rect class="cls-21" x="179.63" y="154.66" width="11.86" height="13.05"/>
      <rect class="cls-21" x="155.91" y="180.76" width="11.86" height="13.05"/>
      <path class="cls-21" d="M144.05,180.76h-11.65c.57,4.79,2.29,9.24,4.87,13.05h6.78v-13.05Z"/>
      <path class="cls-21" d="M144.05,193.8v7.12c3.45,2.59,7.48,4.45,11.86,5.34v-12.45h-11.86Z"/>
      <path class="cls-21" d="M167.77,193.8v12.45c4.38-.89,8.41-2.75,11.86-5.34v-7.12h-11.86Z"/>
      <path class="cls-21" d="M179.63,193.8h6.78c2.58-3.81,4.3-8.26,4.87-13.05h-11.65v13.05Z"/>
      <rect class="cls-24" x="132.19" y="141.62" width="11.86" height="13.05"/>
      <rect class="cls-24" x="155.91" y="141.62" width="11.86" height="13.05"/>
      <rect class="cls-24" x="179.63" y="141.62" width="11.86" height="13.05"/>
      <rect class="cls-24" x="144.05" y="154.66" width="11.86" height="13.05"/>
      <rect class="cls-24" x="167.77" y="154.66" width="11.86" height="13.05"/>
      <path class="cls-24" d="M144.05,167.71h-11.86v9.49c0,1.2.07,2.39.21,3.56h11.65v-13.05Z"/>
      <rect class="cls-24" x="155.91" y="167.71" width="11.86" height="13.05"/>
      <rect class="cls-24" x="167.77" y="180.76" width="11.86" height="13.05"/>
      <rect class="cls-24" x="144.05" y="180.76" width="11.86" height="13.05"/>
      <path class="cls-24" d="M155.91,193.8v12.45c1.92.39,3.9.59,5.93.59s4.01-.2,5.93-.59v-12.45h-11.86Z"/>
      <path class="cls-24" d="M179.63,200.92c2.63-1.98,4.93-4.39,6.78-7.12h-6.78v7.12Z"/>
      <path class="cls-24" d="M137.27,193.8c1.85,2.73,4.14,5.14,6.78,7.12v-7.12h-6.78Z"/>
      <path class="cls-24" d="M179.63,180.76h11.65c.14-1.17.21-2.36.21-3.56v-9.49h-11.86v13.05Z"/>
      <path class="cls-24" d="M192.68,140.43c0,.58,0,36.77,0,36.77,0,8.24-3.21,15.98-9.03,21.8-5.82,5.83-13.57,9.03-21.8,9.03s-15.98-3.21-21.81-9.03c-5.82-5.82-9.03-13.57-9.03-21.8v-36.77h61.68ZM130.41,139.84v37.36c0,8.4,3.27,16.29,9.21,22.22,5.94,5.94,13.83,9.21,22.22,9.21s16.29-3.27,22.23-9.21c5.93-5.94,9.21-13.83,9.21-22.22v-37.36h-62.86Z"/>
      <path class="cls-25" d="M168.01,132.63c-2.05-.17-4.11-.25-6.17-.25s-4.12.08-6.17.25l-1.43-17.18,7.59-6.24,7.6,6.24-1.43,17.18Z"/>
      <path class="cls-25" d="M131.84,138.66c.34-.15.68-.29,1.01-.44,3.45-1.46,7.02-2.66,10.65-3.58l-4.24-16.71-9.22-3.43-5.15,8.38,6.94,15.78Z"/>
      <path class="cls-26" d="M145.72,110.53l-6.46,7.4h0c4.85-1.23,9.86-2.07,14.99-2.49l-8.52-4.91Z"/>
      <path class="cls-26" d="M146.84,133.89c2.9-.59,5.86-1.01,8.84-1.26l-.36-4.29c-3.16.26-6.29.7-9.36,1.33-1.18.24-2.34.51-3.51.8l1.06,4.18c1.1-.28,2.21-.53,3.33-.76Z"/>
      <path class="cls-26" d="M154.96,124.04l-.36-4.3c-3.5.29-6.97.78-10.38,1.48-1.31.27-2.61.57-3.9.9l1.06,4.17c1.23-.31,2.46-.59,3.7-.85,3.24-.66,6.55-1.13,9.87-1.4Z"/>
      <path class="cls-24" d="M155.32,128.33l-.36-4.29h0c-3.33.27-6.63.74-9.87,1.4-1.24.25-2.48.54-3.7.85l1.06,4.18c1.17-.29,2.33-.56,3.51-.8,3.08-.63,6.21-1.07,9.36-1.33Z"/>
      <path class="cls-24" d="M144.22,121.22c3.41-.7,6.88-1.19,10.38-1.48l-.36-4.3h0,0c-5.13.42-10.13,1.26-14.99,2.49l1.06,4.18c1.29-.33,2.6-.63,3.9-.9Z"/>
      <path class="cls-25" d="M196.27,128.61l2.52-5.72-5.15-8.38-9.22,3.43-1.54,6.06c4.17,1.06,8.26,2.43,12.22,4.11.39.17.78.34,1.17.51Z"/>
      <path class="cls-25" d="M190.83,138.23c.34.15.68.29,1.01.44l1.74-3.95c-.36-.16-.72-.31-1.08-.46-3.65-1.54-7.42-2.81-11.26-3.78l-1.06,4.18c3.64.92,7.2,2.12,10.65,3.58Z"/>
      <path class="cls-21" d="M195.8,129.69l.48-1.09h0c-.39-.17-.78-.34-1.17-.51-3.95-1.67-8.05-3.05-12.22-4.11l-.29,1.15c4.11,1.04,8.15,2.4,12.05,4.05.39.16.77.33,1.15.5Z"/>
      <path class="cls-24" d="M194.06,133.64l1.74-3.94c-.38-.17-.77-.34-1.15-.5-3.9-1.65-7.94-3.01-12.05-4.05l-1.06,4.17c3.9.99,7.73,2.27,11.43,3.84.37.15.73.31,1.1.47Z"/>
      <path class="cls-21" d="M192.97,133.16c-3.7-1.57-7.53-2.85-11.43-3.84l-.29,1.15h0c.48.12.95.25,1.43.38,0,0,0,0,.01,0,.47.13.94.26,1.41.4,0,0,.02,0,.02,0,.46.14.93.28,1.39.42.01,0,.02,0,.03.01.23.07.46.15.69.22,0,0,0,0,0,0,.22.07.45.15.67.22.02,0,.03.01.05.02.22.08.44.15.66.23.02,0,.04.01.06.02.21.07.41.14.62.22.02,0,.04.02.06.02.21.08.43.15.64.23.03.01.07.02.1.04.2.07.39.15.59.22.02,0,.04.01.06.02.21.08.42.16.62.24.04.02.09.03.13.05.19.08.39.15.58.23.01,0,.03.01.04.02.2.08.41.16.61.25.05.02.09.04.14.06.2.08.41.17.61.25.18.07.35.15.53.22.01,0,.03.01.04.02.17.07.34.15.51.22h0l.48-1.08c-.36-.16-.73-.32-1.1-.47Z"/>
      <polygon class="cls-4" points="131.7 119.31 133.01 120.44 134.65 119.88 134.32 121.58 135.62 122.72 133.99 123.28 133.66 124.98 132.35 123.84 130.71 124.41 131.04 122.71 129.73 121.57 131.37 121.01 131.7 119.31"/>
      <polygon class="cls-4" points="192.63 117.43 192.96 119.13 194.6 119.69 193.29 120.83 193.62 122.53 191.98 121.97 190.68 123.1 190.35 121.4 188.71 120.84 190.02 119.7 189.68 118 191.32 118.56 192.63 117.43"/>
      <path class="cls-24" d="M194.02,113.42s-8.96,3.33-9.33,3.48c-.26-.3-6.54-7.5-6.54-7.5,0,0-8.28,4.77-8.62,4.97-.31-.25-7.69-6.31-7.69-6.31,0,0-7.38,6.06-7.68,6.31-.34-.2-8.62-4.97-8.62-4.97,0,0-6.28,7.2-6.54,7.49-.37-.14-9.33-3.48-9.33-3.48l-5.78,9.4,7.49,17.02,1.83-.79c3.39-1.44,6.93-2.62,10.52-3.53,1.09-.28,2.19-.53,3.29-.75,2.86-.59,5.8-1,8.74-1.24,2.02-.17,4.07-.25,6.09-.25s4.08.08,6.09.25c2.94.24,5.88.66,8.74,1.24,1.1.22,2.2.48,3.29.75,3.58.91,7.13,2.1,10.52,3.54l1.82.78.36-.81,7.14-16.21-5.78-9.4ZM192.39,138.91l-.24.54-1.55-.67c-3.41-1.44-6.97-2.64-10.57-3.55-1.09-.28-2.2-.53-3.31-.76-2.87-.59-5.82-1.01-8.77-1.25-2.03-.17-4.09-.25-6.12-.25-2.03,0-4.09.09-6.12.25-2.95.24-5.9.66-8.77,1.25-1.1.23-2.21.48-3.3.76-3.6.91-7.16,2.11-10.57,3.55l-1.55.67-7.31-16.61,5.57-9.06s8.58,3.2,9.29,3.46c.5-.57,6.51-7.46,6.51-7.46,0,0,7.94,4.58,8.59,4.95.58-.48,7.65-6.29,7.65-6.29,0,0,7.07,5.81,7.66,6.29.65-.38,8.59-4.95,8.59-4.95,0,0,6.02,6.89,6.51,7.46.71-.26,9.29-3.46,9.29-3.46l5.57,9.06-7.07,16.07Z"/>
      <path class="cls-6" d="M172.72,119.4c-.09-.14-.37-.08-.37-.08.69-.58,1.41-.85,1.41-.85.18-.08.44-.14.7-.17,0,0,.95-.12,1.46.12.65.31,1.44.76,1.38.72,0,0,.85.4,1.8.23.02,0,.06,0,.03.03-.14.14-.69.54-2,.09,0,0-.48-.17-1-.47,0,0-.34-.19-1.23-.25-.02,0-.68-.07-1.45.22,0,0-.24.09-.45.19-.15.08-.18.1-.22.15l-.05.05Z"/>
      <path class="cls-11" d="M172.81,118.98s.19-.1.36-.05"/>
      <path class="cls-11" d="M175.97,118.44s.4.17.08.5"/>
      <path class="cls-11" d="M177.9,119.33s.24.2-.06.34"/>
      <path class="cls-11" d="M178.41,119.4s.15.19-.13.3"/>
      <path class="cls-11" d="M173.41,118.63s.41-.17.56.21"/>
      <path class="cls-11" d="M174.24,118.34s.45-.05.4.42"/>
      <path class="cls-11" d="M175.01,118.27s.5.02.39.46"/>
      <path class="cls-11" d="M176.74,118.84s.29.27-.17.38"/>
      <path class="cls-11" d="M177.21,119.09s.26.21-.12.36"/>
      <path class="cls-6" d="M172.72,119.41c.06,0,.44-.12.62.17h0s.05,0,.13,0c0,0,.02,0,.03,0h0s.07.01.1.02c.03,0,.11.03.14.04.75-.24,1.41-.16,1.41-.16.28.03.83.18,1.51.77l.24.2c.25.19.83.59,1.2.68,1.19.28,1.7.09,1.9-.07l.03-.05.02-.07h-.07c-1.72.22-2.82-.98-2.82-.98-.92-.92-1.65-1.08-1.65-1.08-1.38-.42-2.67.37-2.67.37,0,0-.07.03-.13.12v.02Z"/>
      <path class="cls-3" d="M173.12,119.14s.48-.16.59.23"/>
      <path class="cls-3" d="M173.73,118.91s.51-.15.62.42"/>
      <path class="cls-3" d="M174.75,119.47c.39-.08.31-.37.31-.37-.13-.37-.61-.32-.61-.32"/>
      <path class="cls-3" d="M175.76,118.98s.24.14.11.4c0,0-.14.25-.41.18"/>
      <path class="cls-3" d="M176.05,119.82s.46.15.57-.15c0,0,.05-.12-.05-.22"/>
      <path class="cls-3" d="M176.78,120.35s.24.08.41,0c0,0,.17-.1.03-.34"/>
      <path class="cls-3" d="M177.48,120.84s.57.06.54-.19c0-.02-.01-.04-.03-.06,0,0-.02-.03-.06-.06"/>
      <path class="cls-3" d="M178.48,120.79s.2.26-.15.34c0,0-.09.02-.22,0"/>
      <path class="cls-3" d="M179.1,120.95s.18.2-.28.32"/>
      <path class="cls-9" d="M172.01,121.2c.06-.02.14-.06.27-.05,0,0,.14-.12.2-.18,0,0-.18.17-.21.38,0,0-.14.1-.24.25,0,0-.04.05-.03.1,0,.02.05.07.09.06.04,0,.07-.05.14-.11,0,0-.24.29-.22.4,0,0,.04.2.23.02h0c.08-.07.27-.29.39-.44,0,0-.08.21-.39.44-.02.02,0,.2.07.23,0,0-.29.19-.08.25,0,0,0,.17.08.17,0,0-.49.33-.38.44,0,0,.08.16-.25.46-.02.02-.09.09-.1.14-.02.05-.01.12.07.14,0,0,.09.04.15.02.05-.02.07-.09.09-.19,0,0,.03-.02,0,.02-.04.08-.1.35.04.44,0,0,.07-.09.04.05,0,0-.2.2-.02.28,0,0,0,.15.06.17,0,0,.06.09-.05.19,0,0-.03.01-.03.04,0,.03.01.09.08.08,0,0,.17-.06.12.18,0,0-.02.09.06.09.01,0-.02,0,0,0,0,0,.12.02.05.11-.02.03-.05.05-.1.09,0,0-.08.13.06.16,0,0,.05.01.05.13,0,.03-.02.14-.04.21-.03.09-.05.19-.07.22-.04.06-.16.2-.18.31,0,0-.07.17-.06.3,0,0,0-.07-.03-.05,0,0-.08-.02-.08.3-.04.12-.1.26-.19.35,0,0-.05,0-.07.04.02.07,0,.12.02.16.07.16.19.17.4.17h0c.02-.19.12-.26.12-.26.18-.03.21-.09.2-.2-.07-.2.09-.41.13-.53.03,0,.18-.17.28-.58v-.08c0,.06.03.07.06.07s.06-.11.07-.15c.08-.26.28-.16.28-.16-.11-.52.01-.65.01-.65-.1.61.1.73.1.73-.05.21.05.34.05.34.08.08.03.29.03.29-.07.07-.07.25-.07.25,0,0-.24.44-.12.57,0,0,0,.07-.03.1-.02.02-.03.05-.04.09-.02.07-.11.24-.13.3-.02.06-.08.17-.11.21-.06.09-.08.21-.08.21-.11.02-.15.1-.18.16.05,0,.12.04.19.12.02.01.04.02.06.03.04.01.11.02.24.02h0c.14-.09.2-.26.2-.26.23-.11.14-.25.09-.33.11-.11.13-.28.13-.28.11-.16.17-.31.2-.41.02-.08.06-.12.08-.13.03-.03.05-.09.05-.09.03-.07.03-.17.03-.27,0-.05.02-.12.04-.18.01-.04.02-.02.02,0,0,.13-.01.11-.01.11,0,0,.06,0,.07,0,.11-.03.13-.28.13-.28.09.06.29-.11.29-.11.08.11.42-.03.42-.03.04.33.36,0,.36,0l.08-.07v.09c-.04.42.32.1.32.1.01,0,.05-.05.11-.1v.02s.02.11.02.15c0,.05-.02.08-.01.13,0,.06-.02.12-.02.16.01.11.05.19.05.19.06.09.05.2.03.28-.02.06-.09.14-.11.15-.24.2-.25.45-.25.45-.12.04-.21.16-.21.16-.22.1-.16.1-.26.18l-.13.15-.17.12s.28-.03.34.16c0,0,.09.02.19.01.04,0,.04-.03.08-.04.03,0,.08,0,.11-.02.03.06.07.03.11.02.04-.01.04-.15.05-.19.05-.24.13-.31.2-.37.07-.06.18-.18.21-.21.11-.13.24-.23.32-.29.05-.04.14-.06.17-.06.17-.01.22-.15.22-.15.05-.06.08-.08.08-.08-.02-.04-.06-.04-.06-.05,0-.04.12.01.12.01.08-.06.16-.15.24-.21.09-.05.18-.1.27-.15h.03c.05.04.12.05.12.05.04.26.23.2.23.2,0,.09.2.21.2.21,0,.13.13.22.13.22,0,.12-.21.38-.21.38-.17.3-.36.48-.46.57-.05.04-.1.06-.12.07-.12.04-.21.11-.27.16-.03.03-.06.09-.07.11-.05.15-.16.32-.16.32.29.16.61.09.61.09,0,0,0-.03-.01-.04-.04-.01-.11-.02-.11-.04,0-.08.17,0,.19,0,.07,0,.16-.14.16-.14.28-.05.27-.35.27-.35.28-.26.64-.73.64-.73.03-.26.08-.29.08-.29.04.08-.01.2-.01.2.15-.14.59-.4.59-.4,0-.07.05-.1.05-.1.21.04.14-.29.14-.29-.17-.18.05-.27.05-.27.12-.03.09-.34.09-.34.5-.19.17-.55.17-.55.4-.16-.03-.33-.03-.33.05-.34.03-.29-.05-.54.45.07.34-.21.34-.21-.17-.23-.11-.28-.11-.28.03-.02.12-.03.18-.06.09-.05.13-.12.13-.12.22.09.2-.15.2-.15.19.1.25-.06.25-.06.03-.15-.06-.29-.06-.29.14,0,.2-.27.2-.27.1-.01.2-.04.27-.05.05-.01.1-.06.11-.07.04-.07.08-.11.14-.14.14-.37-.19-.3-.19-.3,0,0-.19,0-.28.08-.02.01-.06.05-.1.06-.08,0-.24.02-.32.06-.02,0-.07.02-.1,0-.11-.07-.42-.2-.95.07,0,0-.09.03-.3-.09,0,0-.07-.04-.14-.04,0,0-.2-.38-.85-.34,0,0-.52-.03-.76.15,0,0-.35,0-.46.02,0,0-.21-.46-.77-.46,0,0-.68-.07-.75,0,0,0-.01-.12-.22-.19,0,0-.04-.23-.25-.29,0,0,0-.34-.31-.42,0,0-.07-.12-.22-.21,0,0-.06-.07-.09-.22,0,0-.03-.07-.12-.15-.03-.04-.06-.14-.06-.14.02-.18-.08-.26-.08-.26.05-.04.02-.14.02-.14.11-.05.09-.32.09-.32v-.03c.35.46.58.12.58.12.5,0,.53-.23.53-.23.25-.09.21-.18.21-.18-.51-.05-.7-.18-.7-.18-.31-.27-.68-.03-.68-.03-.04-.03-.09-.06-.14-.08-.02-.01-.05-.02-.08-.03-.04,0-.07-.01-.1-.02h0s-.02,0-.03,0c-.08,0-.13,0-.13,0-.17-.31-.57-.19-.63-.18-.08-.15-.34-.09-.34-.09,0,0-.17,0-.33.04,0,0-.06.03-.07.09,0,.04,0,.09,0,.14,0,0-.05.12-.07.25,0,0-.23.21-.31.29-.05.05-.1.12-.14.22-.01.03-.14.27-.28.35,0,0-.09.1.03.18,0,0,.08.03.19.01.04,0,.03.19.11.23.01,0,.11.11.12.13.03.05.1.08.25,0,0,0,0-.17.04-.22,0,0-.04.19,0,.19,0,0,.07,0,.09-.04Z"/>
      <path class="cls-9" d="M172.35,119.32c-.21,0-.31.04-.31.04-.08.02-.07.16-.07.16-.06-.05-.29-.03-.29-.03-.1-.2-.24-.22-.24-.22-.06-.12.12-.12.12-.12-.31,0-.23-.23-.23-.23.48-.1.73-.03.87.07,0,0,.1.09.2.29l-.05.04Z"/>
      <path class="cls-3" d="M172.33,119.95s.28-.27.71-.08c0,0-.19.21-.41.21-.11,0-.19-.04-.24-.07"/>
      <path class="cls-23" d="M172.57,119.95s.04-.09.09-.09.09.04.09.09-.04.09-.09.09-.09-.04-.09-.09Z"/>
      <path class="cls-6" d="M174.89,128.74c0-.05-.05-.16-.26-.18-.09-.01-.16.01-.22.02-.11.02-.16.04-.16.04-.2.06-.17.16-.17.16.11.08.48-.05.48-.05,0,0,.08.03.02.05-.3.07-.42.08-.42.08,0,.03.03.11.05.13.02.03.05.07.1.1.04.03.09.05.13.07.04.02.14.02.17.02.26,0,.42-.11.42-.11,0,0,.29-.22.02-.31-.04-.01-.15,0-.15-.02Z"/>
      <path class="cls-6" d="M176.62,129.22s.19.16.5.09c.05,0,.07,0,.11,0,0,0,.18.27,0,.39-.32.21-.46.19-.46.19-.42.02-.48-.14-.48-.14.05-.11.22-.28.22-.28,0,0,.02-.05-.01-.02-.08.09-.17.16-.22.17-.07,0-.17-.12-.17-.15,0,0,.09-.04.11-.06.06-.06.15-.15.24-.17.05-.01.11-.03.17-.03h0Z"/>
      <path class="cls-16" d="M171.52,127.59s0-.09-.02-.16c0,0-.1.04-.24.12-.09.05-.21.13-.29.15,0,0-.12.07-.06.15,0,0,.11.09.24-.03,0,0,.02-.01.03,0,.01,0,.03.02.03.03,0,0-.08.03-.13.07-.04.04-.05.17.03.23,0,0,.09.09.31.08.11,0,.22-.09.41-.14,0,0,.28-.12.08-.32h0c-.21,0-.33-.01-.4-.17Z"/>
      <path class="cls-16" d="M172.74,128.62c-.05-.02-.06-.03-.06-.03-.07-.09-.13-.12-.19-.12-.08,0-.14.05-.2.11,0,0-.09.08-.19.19-.03.03-.07.03-.11.07,0,0-.01.12.05.15.05.02.13.03.18,0,.08-.06.14-.16.14-.16.07-.03.03.03.03.03,0,0-.25.24-.11.29.12.05.21.06.27.07.05,0,.11-.02.13-.03.04-.02.08-.05.11-.07.06-.03.11-.07.14-.1.2-.19.02-.37.02-.37h0c-.12,0-.2-.01-.24-.02Z"/>
      <g>
        <g>
          <path class="cls-4" d="M163.48,125.12c.26-.26.2-.52.2-.52l.66-1.08s-.07,0-.07,0c-.2.15-.37.2-.37.2-.5.06-.46.28-.44.34,0,.01-.02.02-.02.02-.42-.34-.67.26-.67.26,0,0-.01.08-.03.08-.02,0-.03-.08-.03-.09.05-.57-.28-.33-.28-.33,0,0-.02,0-.01-.02.05-.06.19-.26-.06-.31,0,0-.15-.11-.55-.62h0c-.39.51-.47.62-.47.62-.24.05-.1.25-.06.31,0,.01-.01.02-.01.02,0,0-.32-.24-.27.33,0,0-.01.1-.03.1-.02,0-.03-.09-.03-.09,0,0-.24-.6-.66-.26,0,0-.03,0-.02-.02.02-.07.06-.28-.44-.34,0,0-.17-.05-.37-.2,0,0-.05-.02-.08,0l.66,1.08s-.06.26.2.52"/>
          <g>
            <path class="cls-8" d="M163.84,124.3c.04-.08.03-.16,0-.19-.05-.02-.12.02-.16.09-.04.08-.04.16.01.19.05.02.12-.02.16-.09Z"/>
            <path class="cls-8" d="M163.35,124.9s.03-.07.07-.07c.04,0,.07.03.07.07,0,.04-.03.07-.07.07-.04,0-.07-.03-.07-.07Z"/>
            <path class="cls-8" d="M162.67,124.86s.03-.07.07-.07c.04,0,.07.03.07.07,0,.04-.03.07-.07.07-.04,0-.07-.03-.07-.07Z"/>
            <path class="cls-8" d="M161.88,124.14c0-.2.16-.26.23-.27h0c-.18-.04-.25-.22-.27-.31h0c0,.09-.04.27-.21.34,0,0-.02,0,0,0,.06,0,.22.03.25.23"/>
            <path class="cls-8" d="M159.85,124.3c-.04-.08-.03-.16.01-.19.05-.02.12.02.16.09.04.08.03.16-.01.19-.04.02-.12-.02-.16-.09Z"/>
            <path class="cls-8" d="M161.94,124.68c.35,0,1.18,0,1.75.07v-.14c-.56-.08-1.4-.07-1.75-.07h-.25c-.38,0-1.15,0-1.67.07v.14c.53-.07,1.29-.07,1.67-.07h.25Z"/>
            <path class="cls-12" d="M161.97,125.22c.31,0,.93.02,1.44.03.09,0,.07-.14.07-.14-.53-.05-1.19-.05-1.52-.05,0,0-.28,0-.3,0-.34,0-.96,0-1.46.05,0,0-.01.14.07.14.48-.01,1.06-.02,1.39-.03h.3Z"/>
            <path class="cls-8" d="M160.35,124.9s-.03-.07-.07-.07-.07.03-.07.07c0,.04.03.07.07.07.04,0,.07-.03.07-.07Z"/>
            <path class="cls-8" d="M161.03,124.86s-.03-.07-.07-.07-.07.03-.07.07c0,.04.03.07.07.07.04,0,.07-.03.07-.07Z"/>
            <path class="cls-8" d="M161.87,124.88s-.03-.07-.07-.07c-.04,0-.07.03-.07.07s.03.07.07.07c.04,0,.07-.03.07-.07Z"/>
          </g>
        </g>
        <g>
          <path class="cls-4" d="M163.52,125.25c.14-.07.34-.13.61-.12.02,0,.22-.04.27-.14,0,0,.02.92-.62,1.31,0,0,.23-.06.76,0,0,0-.11.56-.88.66,0,0,.53-.08.52.54,0,0,.04.19.2.26,0,0-.34.3-.96-.02,0,0,.39.15.38.79,0,0-.33.08-.65-.18,0,0,.19.18.18.27,0,.26.13.47.13.47,0,0-.74.16-.82-.23,0,0,.15.34-.02.81,0,0-.12-.21-.4-.41,0,0-.18.35-.44.49,0,0,.01-.27-.18-.37,0,0-.12-.08-.07-.52v.28c-.02.07-.1.12-.1.12-.27.2-.4.41-.4.41-.17-.48-.02-.81-.02-.81-.08.39-.82.23-.82.23,0,0,.13-.21.13-.47,0-.09.18-.27.18-.27-.32.26-.65.18-.65.18-.01-.64.39-.79.39-.79-.62.32-.96.02-.96.02.15-.07.2-.26.2-.26-.01-.62.52-.54.52-.54-.77-.1-.89-.66-.89-.66.54-.06.77,0,.77,0-.64-.38-.62-1.31-.62-1.31.05.1.26.14.27.14.27,0,.46.05.61.12l.09-.02,1.56-.03,1.66.03.07.02Z"/>
          <path class="cls-10" d="M163.23,125.53s.08-.14.28-.25"/>
          <path class="cls-10" d="M160.47,125.53s-.08-.14-.28-.25"/>
          <path class="cls-5" d="M162.82,126.15c.03.31-.27.41-.27.41-.1.02-.22.1-.28.14-.03.02-.04-.02-.04-.02,0-.06-.02-.2.06-.29h0c.1-.07.33-.21.53-.25h0Z"/>
          <path class="cls-5" d="M161.92,127.56c.08-.04.14-.05.19-.06,0,0,.16-.03.2.08.03.09.03.22-.26.31,0,0-.32.06-.56-.05,0,0-.1-.05-.06-.28"/>
          <path class="cls-5" d="M163.55,126.63c.04-.37,1-.34,1-.34,0,0-.26.16-.42.2,0,0-.32.05-.4.21"/>
          <path class="cls-5" d="M164.18,127.49s-.25-.37-.56-.3"/>
          <path class="cls-5" d="M163.72,127.69s.15,0,.32.09c0,0,.09.05.21.05"/>
          <path class="cls-5" d="M163.29,127.85s.37.1.51.68c0,0-.28-.48-.63-.44"/>
          <path class="cls-5" d="M162.79,128.42s.22.06.35.36c0,0,.03.25.33.31,0,0-.49.05-.6-.28"/>
          <path class="cls-5" d="M162.45,128.89s-.07.33.07.63c0,0-.32-.35-.21-.6"/>
          <path class="cls-5" d="M162.65,128.86s-.11-.22-.22-.22"/>
          <path class="cls-5" d="M161.75,128.96s.21.44.05.79c0,0,.48-.32.35-.64"/>
          <path class="cls-5" d="M162.01,125.61s-.22.19-.07.72c0,0,.07.18.28.1,0,0,.31-.24.59-.28,0,0,.3-.12.34-.27"/>
          <path class="cls-1" d="M162.67,126.42c0-.08-.06-.15-.14-.15-.08,0-.15.06-.15.14,0,.08.06.15.14.15.08,0,.15-.06.15-.14Z"/>
          <path class="cls-5" d="M160.12,126.63c-.04-.37-1-.34-1-.34,0,0,.26.16.42.2,0,0,.32.05.4.21"/>
          <path class="cls-5" d="M159.49,127.49s.25-.37.56-.3"/>
          <path class="cls-5" d="M159.95,127.69s-.15,0-.32.09c0,0-.09.05-.2.05"/>
          <path class="cls-5" d="M160.38,127.85s-.37.1-.51.68c0,0,.28-.48.64-.44"/>
          <path class="cls-5" d="M160.88,128.42s-.22.06-.35.36c0,0-.03.25-.33.31,0,0,.49.05.6-.28"/>
          <path class="cls-5" d="M161.22,128.89s.06.33-.07.63c0,0,.31-.35.21-.6"/>
          <path class="cls-5" d="M161.02,128.86s.12-.22.22-.22"/>
          <path class="cls-5" d="M161.69,125.61s.22.19.07.72c0,0-.07.18-.28.1,0,0-.31-.24-.58-.28,0,0-.3-.12-.34-.27"/>
          <path class="cls-5" d="M160.88,126.15c-.03.31.27.41.27.41.1.02.22.1.28.14.02.02.04-.02.04-.02,0-.06.02-.2-.06-.29h0c-.1-.07-.34-.21-.53-.25h0Z"/>
          <path class="cls-1" d="M161.03,126.42c0-.08.06-.15.14-.15.08,0,.15.06.15.14,0,.08-.06.15-.14.15-.08,0-.15-.06-.15-.14Z"/>
          <path class="cls-5" d="M162.69,125.8s-.2,0-.61.32"/>
          <path class="cls-5" d="M161.85,128.33s-.03.06-.05.09c-.02.03-.06.06-.08.06-.03,0-.09.01-.14,0"/>
          <line class="cls-5" x1="161.7" y1="128.14" x2="161.09" y2="127.94"/>
          <line class="cls-5" x1="161.72" y1="128.28" x2="161.19" y2="128.18"/>
          <line class="cls-5" x1="161.97" y1="128.14" x2="162.58" y2="127.94"/>
          <line class="cls-5" x1="161.96" y1="128.28" x2="162.48" y2="128.18"/>
          <line class="cls-5" x1="161.64" y1="128.63" x2="161.99" y2="128.62"/>
          <path class="cls-5" d="M161.7,126.68s-.22.16-.26.31"/>
          <path class="cls-5" d="M159.75,125.32s-.04.43.27.57l.02.04c-.41-.12-.43-.5-.43-.5-.18,0-.34-.44-.34-.44"/>
          <path class="cls-5" d="M163.92,125.32s.04.43-.27.57l-.02.04c.41-.12.43-.5.43-.5.18,0,.34-.44.34-.44"/>
          <path class="cls-5" d="M160.39,125.43s1-.32,1.16-.05"/>
          <path class="cls-5" d="M163.31,125.43s-.99-.32-1.16-.05"/>
          <path class="cls-5" d="M160.01,126.95s.34.06.45.06"/>
          <path class="cls-5" d="M160.51,128.35s.12-.16.16-.16"/>
          <path class="cls-5" d="M161.01,125.8c.05-.02.21,0,.61.32"/>
          <path class="cls-5" d="M162.13,128.49c-.05,0-.1,0-.13,0-.02,0-.06-.02-.08-.05-.03-.04-.05-.09-.06-.1v-.42"/>
          <path class="cls-23" d="M162.46,126.42s.03.07.07.07.07-.03.07-.07c0-.04-.03-.07-.07-.07s-.07.03-.07.07Z"/>
          <path class="cls-23" d="M161.24,126.42s-.03.07-.06.07-.07-.03-.07-.07c0-.04.03-.07.07-.07.04,0,.07.03.07.07Z"/>
        </g>
      </g>
      <g>
        <g>
          <path class="cls-4" d="M160.08,117.34c.25-.27.18-.53.18-.53l.61-1.11s-.08,0-.08,0c-.19.16-.36.22-.36.22-.5.08-.44.3-.43.36,0,.02-.02.02-.02.02-.44-.32-.65.29-.65.29,0,0-.01.09-.03.09-.02,0-.03-.08-.03-.09.03-.58-.29-.32-.29-.32,0,0-.02,0-.01-.02.04-.06.18-.27-.07-.31,0,0-.16-.1-.58-.59h0c-.37.53-.44.64-.44.64-.24.06-.09.25-.04.31,0,.01-.01.02-.01.02,0,0-.34-.22-.26.35,0,0,0,.1-.03.1-.01,0-.03-.09-.03-.09,0,0-.27-.59-.68-.22,0,0-.03,0-.02-.02.02-.07.04-.29-.46-.32,0,0-.18-.04-.39-.19,0,0-.05-.02-.07,0l.71,1.05s-.05.27.23.51"/>
          <g>
            <path class="cls-8" d="M160.41,116.5c.04-.08.03-.16-.02-.19-.05-.02-.11.02-.15.1-.04.08-.03.16.02.19.05.02.12-.02.15-.1Z"/>
            <path class="cls-8" d="M159.94,117.13s.03-.07.07-.07c.04,0,.07.03.07.07,0,.04-.03.07-.07.07-.04,0-.07-.03-.07-.07Z"/>
            <path class="cls-8" d="M159.26,117.11s.03-.07.07-.08c.04,0,.07.03.07.07,0,.04-.03.07-.07.07-.04,0-.07-.03-.07-.07Z"/>
            <path class="cls-8" d="M158.44,116.43c0-.2.15-.27.22-.28h0c-.18-.03-.26-.21-.28-.29h0c0,.09-.03.27-.2.35,0,0-.02,0,0,0,.06,0,.22.03.27.22"/>
            <path class="cls-8" d="M156.42,116.68c-.04-.07-.04-.16,0-.18.04-.03.12.01.16.09.04.08.04.16,0,.19-.05.03-.12-.01-.16-.09Z"/>
            <path class="cls-8" d="M158.52,116.96c.34-.02,1.18-.06,1.75-.02v-.14c-.57-.05-1.41,0-1.75.01h-.25c-.38.02-1.14.06-1.67.15v.14c.53-.1,1.3-.13,1.68-.15h.25Z"/>
            <path class="cls-12" d="M158.58,117.5c.31,0,.93-.02,1.45-.03.08,0,.06-.14.06-.14-.53-.03-1.19,0-1.52.02,0,0-.28.01-.3.01-.34.02-.96.04-1.45.11,0,0,0,.14.08.13.48-.03,1.06-.07,1.38-.09l.3-.02Z"/>
            <path class="cls-8" d="M156.94,117.27s-.04-.07-.08-.07c-.04,0-.07.04-.07.08,0,.04.04.07.08.07.04,0,.07-.04.07-.08Z"/>
            <path class="cls-8" d="M157.62,117.18s-.03-.07-.07-.07c-.04,0-.07.04-.07.08,0,.04.04.07.08.07.04,0,.07-.03.07-.08Z"/>
            <path class="cls-8" d="M158.46,117.17s-.03-.07-.07-.07c-.04,0-.07.04-.07.08,0,.04.04.07.08.07.04,0,.07-.04.06-.08Z"/>
          </g>
        </g>
        <g>
          <path class="cls-4" d="M160.13,117.47c.14-.08.33-.14.6-.15.02,0,.22-.05.27-.15,0,0,.07.92-.56,1.33,0,0,.23-.07.76-.04,0,0-.09.56-.85.7,0,0,.53-.1.54.51,0,0,.05.19.21.26,0,0-.33.32-.96.03,0,0,.4.13.42.77,0,0-.33.09-.65-.15,0,0,.19.16.19.26,0,.27.15.46.15.46,0,0-.73.19-.83-.19,0,0,.17.33.02.81,0,0-.14-.21-.42-.4,0,0-.16.36-.42.51,0,0,0-.27-.2-.36,0,0-.12-.07-.1-.52v.29c0,.07-.09.12-.09.12-.26.21-.38.43-.38.43-.19-.47-.05-.81-.05-.81-.06.39-.81.27-.81.27,0,0,.12-.21.11-.48,0-.1.17-.28.17-.28-.31.27-.64.21-.64.21-.04-.64.35-.81.35-.81-.61.34-.96.06-.96.06.15-.08.19-.28.19-.28-.04-.61.49-.56.49-.56-.78-.07-.91-.62-.91-.62.53-.08.77-.03.77-.03-.66-.35-.68-1.28-.68-1.28.05.09.26.12.28.12.27-.02.47.03.61.09l.09-.02,1.55-.1,1.65-.05.07.02Z"/>
          <path class="cls-10" d="M159.85,117.76s.07-.14.27-.26"/>
          <path class="cls-10" d="M157.1,117.88s-.08-.13-.29-.24"/>
          <path class="cls-5" d="M159.46,118.4c.04.31-.25.42-.25.42-.1.02-.22.11-.28.15-.02.02-.04-.01-.04-.01,0-.06-.02-.2.05-.3h0c.1-.07.32-.23.52-.27h0Z"/>
          <path class="cls-5" d="M158.63,119.85c.08-.04.13-.06.18-.07,0,0,.15-.04.2.07.03.09.05.22-.25.32,0,0-.31.08-.56-.03,0,0-.1-.04-.08-.28"/>
          <path class="cls-5" d="M160.22,118.84c.02-.37.98-.38.98-.38,0,0-.25.17-.41.22,0,0-.32.06-.39.22"/>
          <path class="cls-5" d="M160.89,119.67s-.27-.36-.57-.28"/>
          <path class="cls-5" d="M160.44,119.89s.15,0,.32.07c0,0,.09.05.21.04"/>
          <path class="cls-5" d="M160.02,120.07s.37.09.54.66c0,0-.3-.47-.65-.41"/>
          <path class="cls-5" d="M159.54,120.67s.22.05.37.35c0,0,.04.25.34.29,0,0-.49.07-.61-.25"/>
          <path class="cls-5" d="M159.22,121.15s-.05.33.1.63c0,0-.33-.33-.24-.59"/>
          <path class="cls-5" d="M159.42,121.12s-.12-.22-.23-.22"/>
          <path class="cls-5" d="M158.52,121.25s.23.43.08.79c0,0,.46-.34.32-.65"/>
          <path class="cls-5" d="M158.64,117.89s-.22.2-.04.72c0,0,.08.18.29.09,0,0,.31-.25.58-.31,0,0,.3-.14.33-.28"/>
          <path class="cls-1" d="M159.33,118.68c0-.08-.07-.15-.15-.14-.08,0-.15.07-.14.15,0,.08.07.14.15.14.08,0,.14-.07.14-.15Z"/>
          <path class="cls-5" d="M156.79,119c-.06-.37-1.01-.29-1.01-.29,0,0,.27.15.43.18,0,0,.32.03.41.19"/>
          <path class="cls-5" d="M156.2,119.88s.23-.38.54-.33"/>
          <path class="cls-5" d="M156.67,120.06s-.15,0-.32.1c0,0-.09.05-.2.06"/>
          <path class="cls-5" d="M157.11,120.2s-.36.12-.48.71c0,0,.26-.49.61-.47"/>
          <path class="cls-5" d="M157.63,120.75s-.22.07-.33.38c0,0-.02.25-.31.32,0,0,.49.02.59-.31"/>
          <path class="cls-5" d="M158,121.2s.08.33-.04.63c0,0,.3-.36.18-.61"/>
          <path class="cls-5" d="M157.8,121.19s.1-.23.21-.24"/>
          <path class="cls-5" d="M158.31,117.91s.23.18.1.72c0,0-.07.18-.27.12,0,0-.32-.23-.6-.26,0,0-.31-.11-.35-.25"/>
          <path class="cls-5" d="M157.53,118.48c0,.31.29.4.29.4.1.01.23.09.29.13.03.02.04-.02.04-.02,0-.06,0-.2-.07-.29h0c-.1-.07-.34-.2-.54-.22h0Z"/>
          <path class="cls-1" d="M157.69,118.75c0-.08.06-.15.14-.15.08,0,.15.05.15.14,0,.08-.06.15-.14.15-.08,0-.15-.05-.15-.14Z"/>
          <path class="cls-5" d="M159.32,118.05c-.05-.01-.21,0-.59.34"/>
          <path class="cls-5" d="M158.6,120.62s-.02.06-.04.09c-.02.03-.06.06-.08.07-.03.01-.09.02-.14.01"/>
          <line class="cls-5" x1="158.44" y1="120.44" x2="157.82" y2="120.26"/>
          <line class="cls-5" x1="158.46" y1="120.58" x2="157.93" y2="120.5"/>
          <line class="cls-5" x1="158.71" y1="120.42" x2="159.32" y2="120.19"/>
          <line class="cls-5" x1="158.7" y1="120.56" x2="159.22" y2="120.44"/>
          <line class="cls-5" x1="158.41" y1="120.93" x2="158.75" y2="120.91"/>
          <path class="cls-5" d="M158.37,118.98s-.21.17-.24.32"/>
          <path class="cls-5" d="M156.36,117.71s-.02.43.3.56l.02.05c-.42-.1-.45-.49-.45-.49-.18.01-.36-.43-.36-.43"/>
          <path class="cls-5" d="M160.54,117.52s.06.43-.24.58l-.02.04c.41-.14.4-.52.4-.52.18,0,.32-.46.32-.46"/>
          <path class="cls-5" d="M157.01,117.79s.98-.36,1.16-.1"/>
          <path class="cls-5" d="M159.92,117.66s-1.01-.28-1.16,0"/>
          <path class="cls-5" d="M156.7,119.32s.34.04.46.04"/>
          <path class="cls-5" d="M157.26,120.7s.11-.16.15-.17"/>
          <path class="cls-5" d="M157.64,118.13c.05-.02.21-.02.62.29"/>
          <path class="cls-5" d="M158.88,120.77c-.05,0-.1,0-.13,0-.02,0-.06-.02-.09-.05-.03-.04-.05-.09-.07-.1l-.03-.42"/>
          <path class="cls-23" d="M159.12,118.68s.03.07.07.07c.04,0,.07-.03.07-.07,0-.03-.03-.07-.07-.06-.04,0-.07.03-.07.07Z"/>
          <path class="cls-23" d="M157.9,118.74s-.02.07-.06.07c-.04,0-.07-.03-.07-.06,0-.04.03-.07.07-.07.04,0,.07.03.07.06Z"/>
        </g>
      </g>
      <g>
        <g>
          <path class="cls-4" d="M163.61,117.34c-.25-.27-.18-.53-.18-.53l-.61-1.11s.07,0,.07,0c.19.16.36.22.36.22.5.08.45.3.43.36,0,.02.02.02.02.02.44-.32.65.29.65.29,0,0,.01.09.03.09.02,0,.03-.08.03-.09-.02-.58.29-.32.29-.32,0,0,.02,0,.01-.02-.04-.06-.18-.27.07-.31,0,0,.16-.1.58-.59h0c.37.53.44.64.44.64.24.06.09.25.04.31-.01.01.01.02.01.02,0,0,.33-.22.26.35,0,0,.01.1.03.1.02,0,.04-.09.04-.09,0,0,.27-.59.68-.22,0,0,.02,0,.02-.02-.02-.07-.05-.29.46-.32,0,0,.17-.04.38-.19,0,0,.05-.02.07,0l-.71,1.05s.05.27-.23.51"/>
          <g>
            <path class="cls-8" d="M163.28,116.5c-.04-.08-.03-.16.02-.19.05-.02.12.02.15.1.04.08.03.16-.02.19-.05.02-.12-.02-.15-.1Z"/>
            <path class="cls-8" d="M163.74,117.13s-.03-.07-.07-.07c-.04,0-.07.03-.07.07,0,.04.03.07.07.07.04,0,.07-.03.07-.07Z"/>
            <path class="cls-8" d="M164.43,117.11s-.03-.07-.07-.08c-.04,0-.07.03-.07.07,0,.04.03.07.07.07.04,0,.07-.03.07-.07Z"/>
            <path class="cls-8" d="M165.25,116.43c0-.2-.15-.27-.22-.28h0c.18-.03.26-.21.28-.29h0c0,.09.03.27.2.35,0,0,.02,0,0,0-.06,0-.22.03-.26.22"/>
            <path class="cls-8" d="M167.26,116.68c.04-.07.04-.16,0-.18-.05-.03-.12.01-.16.09-.04.08-.04.16,0,.19.05.03.12-.01.16-.09Z"/>
            <path class="cls-8" d="M165.16,116.96c-.34-.02-1.18-.06-1.74-.02v-.14c.57-.05,1.41,0,1.75.01h.25c.38.02,1.15.06,1.67.15v.14c-.53-.1-1.3-.13-1.68-.15h-.25Z"/>
            <path class="cls-12" d="M165.11,117.5c-.31,0-.93-.02-1.44-.03-.08,0-.06-.14-.06-.14.53-.03,1.19,0,1.51.02,0,0,.28.01.3.01.34.02.96.04,1.46.11,0,0,0,.14-.08.13-.48-.03-1.06-.07-1.38-.09l-.3-.02Z"/>
            <path class="cls-8" d="M166.75,117.27s.03-.07.07-.07c.04,0,.07.04.07.08,0,.04-.04.07-.08.07-.04,0-.07-.04-.06-.08Z"/>
            <path class="cls-8" d="M166.06,117.18s.04-.07.08-.07c.04,0,.07.04.07.08,0,.04-.04.07-.08.07-.04,0-.07-.03-.07-.08Z"/>
            <path class="cls-8" d="M165.22,117.17s.04-.07.08-.07c.04,0,.07.04.07.08,0,.04-.04.07-.08.07-.04,0-.07-.04-.07-.08Z"/>
          </g>
        </g>
        <g>
          <path class="cls-4" d="M163.56,117.47c-.14-.08-.33-.14-.6-.15-.02,0-.22-.05-.27-.15,0,0-.06.92.56,1.33,0,0-.23-.07-.76-.04,0,0,.09.56.85.7,0,0-.52-.1-.54.51,0,0-.05.19-.21.26,0,0,.33.32.96.03,0,0-.4.13-.42.77,0,0,.33.09.66-.15,0,0-.19.16-.19.26,0,.27-.15.46-.15.46,0,0,.73.19.83-.19,0,0-.17.33-.02.81,0,0,.14-.21.42-.4,0,0,.16.36.42.51,0,0,0-.27.2-.36,0,0,.13-.07.1-.52v.29c0,.07.09.12.09.12.26.21.38.43.38.43.19-.47.05-.81.05-.81.06.39.81.27.81.27,0,0-.12-.21-.11-.48,0-.1-.17-.28-.17-.28.31.27.64.21.64.21.04-.64-.35-.81-.35-.81.6.34.96.06.96.06-.15-.08-.19-.28-.19-.28.04-.61-.49-.56-.49-.56.77-.07.91-.62.91-.62-.53-.08-.76-.03-.76-.03.65-.35.68-1.28.68-1.28-.05.09-.26.12-.28.12-.27-.02-.46.03-.61.09l-.09-.02-1.55-.1-1.65-.05-.07.02Z"/>
          <path class="cls-10" d="M163.84,117.76s-.07-.14-.27-.26"/>
          <path class="cls-10" d="M166.59,117.88s.08-.13.29-.24"/>
          <path class="cls-5" d="M164.22,118.4c-.04.31.25.42.25.42.1.02.22.11.27.15.02.02.04-.01.04-.01,0-.06.02-.2-.04-.3h0c-.1-.07-.33-.23-.52-.27h0Z"/>
          <path class="cls-5" d="M165.05,119.85c-.08-.04-.14-.06-.18-.07,0,0-.16-.04-.2.07-.03.09-.05.22.25.32,0,0,.32.08.56-.03,0,0,.1-.04.08-.28"/>
          <path class="cls-5" d="M163.47,118.84c-.02-.37-.98-.38-.98-.38,0,0,.25.17.41.22,0,0,.32.06.39.22"/>
          <path class="cls-5" d="M162.8,119.67s.27-.36.57-.28"/>
          <path class="cls-5" d="M163.24,119.89s-.15,0-.32.07c0,0-.09.05-.21.04"/>
          <path class="cls-5" d="M163.67,120.07s-.37.09-.54.66c0,0,.3-.47.66-.41"/>
          <path class="cls-5" d="M164.15,120.67s-.22.05-.37.35c0,0-.05.25-.34.29,0,0,.49.07.61-.25"/>
          <path class="cls-5" d="M164.46,121.15s.05.33-.09.63c0,0,.33-.33.23-.59"/>
          <path class="cls-5" d="M164.26,121.12s.12-.22.23-.22"/>
          <path class="cls-5" d="M165.16,121.25s-.24.43-.08.79c0,0-.46-.34-.32-.65"/>
          <path class="cls-5" d="M165.05,117.89s.22.2.04.72c0,0-.08.18-.29.09,0,0-.3-.25-.57-.31,0,0-.3-.14-.33-.28"/>
          <path class="cls-1" d="M164.35,118.68c0-.08.07-.15.15-.14.08,0,.14.07.14.15,0,.08-.07.14-.15.14-.08,0-.14-.07-.14-.15Z"/>
          <path class="cls-5" d="M166.89,119c.06-.37,1.01-.29,1.01-.29,0,0-.27.15-.43.18,0,0-.32.03-.41.19"/>
          <path class="cls-5" d="M167.48,119.88s-.24-.38-.54-.33"/>
          <path class="cls-5" d="M167.02,120.06s.15,0,.32.1c0,0,.09.05.2.06"/>
          <path class="cls-5" d="M166.58,120.2s.36.12.48.71c0,0-.26-.49-.62-.47"/>
          <path class="cls-5" d="M166.05,120.75s.22.07.33.38c0,0,.02.25.31.32,0,0-.49.02-.59-.31"/>
          <path class="cls-5" d="M165.69,121.2s-.08.33.04.63c0,0-.3-.36-.18-.61"/>
          <path class="cls-5" d="M165.89,121.19s-.1-.23-.21-.24"/>
          <path class="cls-5" d="M165.37,117.91s-.23.18-.1.72c0,0,.07.18.28.12,0,0,.32-.23.6-.26,0,0,.31-.11.35-.25"/>
          <path class="cls-5" d="M166.15,118.48c.02.31-.28.4-.28.4-.1.01-.23.09-.29.13-.02.02-.04-.02-.04-.02,0-.06,0-.2.07-.29h0c.1-.07.34-.2.54-.22h0Z"/>
          <path class="cls-1" d="M165.99,118.75c0-.08-.05-.15-.14-.15-.08,0-.15.05-.15.14,0,.08.06.15.14.15.08,0,.15-.05.15-.14Z"/>
          <path class="cls-5" d="M164.36,118.05c.05-.01.21,0,.59.34"/>
          <path class="cls-5" d="M165.09,120.62s.02.06.05.09c.02.03.06.06.08.07.03.01.08.02.14.01"/>
          <line class="cls-5" x1="165.24" y1="120.44" x2="165.87" y2="120.26"/>
          <line class="cls-5" x1="165.22" y1="120.58" x2="165.75" y2="120.5"/>
          <line class="cls-5" x1="164.97" y1="120.42" x2="164.37" y2="120.19"/>
          <line class="cls-5" x1="164.98" y1="120.56" x2="164.46" y2="120.44"/>
          <line class="cls-5" x1="165.28" y1="120.93" x2="164.94" y2="120.91"/>
          <path class="cls-5" d="M165.31,118.98s.21.17.24.32"/>
          <path class="cls-5" d="M167.32,117.71s.02.43-.3.56l-.02.05c.42-.1.45-.49.45-.49.18.01.36-.43.36-.43"/>
          <path class="cls-5" d="M163.15,117.52s-.06.43.25.58l.02.04c-.41-.14-.4-.52-.4-.52-.18,0-.32-.46-.32-.46"/>
          <path class="cls-5" d="M166.67,117.79s-.98-.36-1.16-.1"/>
          <path class="cls-5" d="M163.76,117.66s1-.28,1.16,0"/>
          <path class="cls-5" d="M166.99,119.32s-.34.04-.46.04"/>
          <path class="cls-5" d="M166.42,120.7s-.12-.16-.15-.17"/>
          <path class="cls-5" d="M166.04,118.13c-.05-.02-.2-.02-.62.29"/>
          <path class="cls-5" d="M164.8,120.77c.05,0,.1,0,.13,0,.02,0,.06-.02.08-.05.03-.04.05-.09.07-.1l.03-.42"/>
          <path class="cls-23" d="M164.57,118.68s-.03.07-.07.07-.07-.03-.07-.07c0-.03.03-.07.07-.06.04,0,.07.03.07.07Z"/>
          <path class="cls-23" d="M165.78,118.74s.03.07.06.07c.04,0,.07-.03.07-.06,0-.04-.03-.07-.06-.07-.04,0-.07.03-.07.06Z"/>
        </g>
      </g>
      <path class="cls-13" d="M138.79,126.17c.02.19.03.38.03.57-.04,1.97-1.33,3.62-3.1,4.22-.49.17-1.02.25-1.57.24-1.59-.04-2.98-.89-3.77-2.15.44,1.97,2.17,3.46,4.27,3.5.54.01,1.05-.07,1.53-.24,1.73-.59,2.99-2.21,3.04-4.14.02-.72-.14-1.41-.43-2.02Z"/>
      <g>
        <path class="cls-23" d="M184.59,126.54s-.1-.17-.29-.17c0,0,.01.19-.16.31"/>
        <path class="cls-7" d="M190.1,130.35c-.13.03-.21.03-.26.01,0,0,0,0,0,0-.05-.02-.14.04-.14.05-.05.04-.12.07-.26.07,0,0-.34-.05-.46,0h0c-.06.03-.35.03-.35.03-.12.02-.2.11-.2.11,0,0-.02.03-.13-.01,0,0-.04-.05-.05-.05-.04-.02-.11-.02-.17-.06-.01,0,.03-.03.02-.04,0,0-.03,0-.05,0-.01,0-.08,0-.08,0-.01,0-.04,0-.05-.02-.02-.02-.02-.05-.01-.06.01-.03.11-.05.11-.05-.03,0-.06,0-.08,0-.05,0-.08,0-.09-.02-.02-.01.03-.08.08-.09.07-.01.18,0,.28,0,.12.01.22.05.22.05.11,0,.46-.05.48-.09.05-.08.14-.17.3-.19.24-.02.55.05.55.05"/>
        <path class="cls-21" d="M189.75,130.04c-.51-.02-.62-.15-.62-.15-.58.03-.69-.05-.81-.1-.52-.34-.64-.3-.75-.3,0,0,.12-.19.46-.2,0,0,.27-.02.5.03,0,0,.12.02.19.05,0,0,.24.05.36.11,0,0,.24.09.31.24,0,0,.13.07.2.16l.15.16Z"/>
        <path class="cls-23" d="M184.9,128.19s-.09.03-.23.08c-.27.01-.26.01-.34.04,0,0-.26-.04-.34.05,0,0-.13-.01-.19-.03,0,0-.21-.12-.38-.01,0,0,0-.02-.01.07,0,0,.02.03.09.02.07-.02.04-.02-.02.06,0,0,.07.06.12.04v.03c.11.03.22.11.26.15.02.02.08.04.1.03.12-.02.19-.12.19-.12.15.03.27,0,.27,0,.24.1.47,0,.47,0,.1.04.27.02.27.02.11.11.33.08.33.08.19.21.5.17.53.21.13.21.34.25.34.25.05.07.06.1,0,.1-.07,0-.17,0-.24.04-.03.01-.1.05-.14.05-.04,0-.09,0-.13,0-.04,0-.11.05-.15.05-.05,0-.13,0-.17.01-.04-.02-.22-.16-.35-.16-.09,0-.19.02-.19.1,0,0,0,.02.01.02.02,0,.09-.01.11-.01,0,0,0,.02,0,.02l-.08.02s.03.09.06.1c.03,0,.06-.01.06-.01,0,0,.05-.01.03.03-.02.03.03.05.1.05,0,0,.11.07.19.1.03.02.05.03.05.04.09.09.21,0,.21,0,.05-.09.19-.05.19-.05.27.06.6-.02.6-.02.18.08.34.07.44.05.02,0,.15,0,.16.01.08.03.15-.02.21-.07.01-.01.1-.06.14-.06.03,0,.05-.01.08-.05.14-.19.41-.2.41-.2,0,0,.38-.05.75.07,0,0,.55.09.67.35,0,0,.11.05.28.25.13.24.34.39.89.59.07,0,.16-.03.83.41.25.22.24.21.52.34.07.03.12.1.12.1,0,0-.06.16,0,.31,0,0-.09.02-.09.1-.09-.02-.19-.08-.39,0,0,0,.02-.01.05-.02.05-.02.12-.03.21-.02,0,0-.3,0-.27.15,0,0,.02.03.13,0,0,0,.01,0,.01.01-.02.02-.03.04-.03.07,0,0,.02.05.12-.01,0,0,.04,0,.02,0-.01,0-.02.02-.03.04,0,.06.05.08.13.07.05,0,.1-.05.21-.09.11-.05.26-.2.26-.2.17-.03.17-.13.14-.19-.03-.05-.11-.09-.11-.09-.12-.05-.24-.71-.24-.71-.07-.1-.36-.1-.36-.1-.26-.11-.35-.48-.35-.48.04-.4-.09-.54-.17-.59-.03-.02-.01-.08.02-.1.04-.02.12-.04.15-.04.48,0,.61.2.61.2.68.49.79.46.79.46.37.29.52.32.58.3.03,0,.09,0,.11,0,.4.16.47,0,.52-.08.01-.02.02-.03.03-.04.32-.13-.03-.4-.05-.42-.32-.23-.68-.28-.72-.3-.3-.13-.84-.22-1.06-.24-.05,0-.24-.06-.27-.07-.39-.19-.78-.23-.78-.23-.93-.7-1.75-.58-2.22-.52-.08,0-.3-.03-.35-.05-.65-.26-1.34-.36-1.34-.36,0,0-.24-.31-1.03-.51-.09-.02-.2-.09-.26-.11-.16-.04-.29-.04-.29-.04-.11-.11-.29-.19-.36-.21-.02,0-.03,0-.03,0,0-.04-.09-.14-.1-.14-.04-.03-.03-.11-.03-.11.1-.03.17-.13.17-.13,0-.13-.22-.19-.4-.17,0,0-.05-.32-.68-.25,0,0-.13.18-.31.19-.24,0-.49.09-.44.06h0s-.23-.04-.13.13c0,0,.01,0,.05.05.04.05.07.11.14.18,0,0,.02.01.05.01,0,0,.02.01.04.02,0,0,.08-.06.08-.06,0,0-.06.08-.06.08.02.01.03.02.04.03.03.04.1.08.29.08,0,0,.02-.01.03-.01.03,0,.07.01.09.01.02,0,.06,0,.11-.02.01,0,.02-.02.02-.03v.04s.02.09.19.14c0,0,.08.32.36.48,0,0,0,.04.06.13,0,0,.05.1-.01.13Z"/>
      </g>
      <path class="cls-21" d="M184.33,126.85s.03-.07.07-.07c.04,0,.06.03.06.07s-.03.06-.06.06-.07-.03-.07-.06Z"/>
      <g>
        <path class="cls-15" d="M92.1,98.24c-.21.8-.31,1.61-.31,2.42,0,1.09.19,2.17.55,3.21l7,21.3c.48,1.58.71,3.22.71,4.86,0,2.57-.58,5.14-1.74,7.51-1.68,3.45-4.38,6.17-7.81,7.87-.12.05-1.4.56-2.62,1.06l2.44,3.8,2.03-.82.07-.04c4.34-2.14,7.75-5.57,9.87-9.93,2.38-4.89,2.83-10.44,1.27-15.64l-7.04-21.41c-.36-1.03-.41-2.07-.15-3.08.7-2.7,3.38-4.36,6.1-3.79l3.65.74.06-4.51-2.82-.57c-5.03-1.06-9.99,2.03-11.28,7.02Z"/>
        <path class="cls-15" d="M87.38,93.83c-1.04,2.14-1.57,4.47-1.57,6.81,0,1.44.2,2.89.6,4.3,1,3.49,6.81,20.83,7.22,22.05.29,1.01.43,2.04.43,3.07,0,1.68-.38,3.34-1.12,4.88-1.17,2.42-3.18,4.33-5.66,5.38l-2.66,1.07,2.44,3.8,1.92-.77c3.5-1.49,6.31-4.17,7.95-7.54,1.69-3.47,2.03-7.42.96-11.13v-.05s-.03-.05-.03-.05c-.06-.18-6.2-18.48-7.19-21.93-.76-2.65-.51-5.48.69-7.95,2.23-4.59,7.28-7.08,12.27-6.07l2.58.52.07-4.51-1.76-.36c-6.98-1.41-14.03,2.07-17.14,8.48Z"/>
        <path class="cls-15" d="M117.48,67.89c-2.72,2.72-4.33,6.34-4.53,10.19v.08s-.37,22.96-.37,23.1c-.15,2.76-1.3,5.35-3.25,7.29-1.79,1.79-4.07,2.9-6.58,3.2l-2.48.32,1.41,4.29,1.61-.21c3.5-.41,6.68-1.96,9.18-4.46,2.72-2.73,4.34-6.35,4.54-10.21v-.08s.37-22.96.37-23.1c.15-2.75,1.3-5.33,3.24-7.28,3.8-3.81,9.78-4.37,14.22-1.34l2.36,1.64,1.82-4.13-1.67-1.16c-6.21-4.25-14.56-3.46-19.87,1.86Z"/>
        <path class="cls-15" d="M128.98,334.04c2.98,0,5.88-.85,8.38-2.44l.07-.05s18.89-13.08,19-13.15c2.32-1.48,5.1-2.05,7.82-1.6,1.6.26,3.08.85,4.41,1.75l2.13,1.48,1.83-4.13-1.45-1.01c-1.88-1.27-3.96-2.09-6.18-2.46-3.8-.63-7.69.17-10.94,2.24l-.07.05s-18.88,13.08-19,13.15c-1.79,1.14-3.86,1.74-5.99,1.74-6.06,0-10.97-4.74-11.18-10.78l-.04-2.83-4.42.91.03,2.02c.3,8.5,7.15,15.11,15.61,15.11Z"/>
        <path class="cls-15" d="M256.82,270.4c.21-1.03.31-2.06.31-3.1,0-2.76-.74-5.49-2.16-7.9-1.84-3.13-11.82-18.47-12.51-19.54-1.02-1.73-1.54-3.68-1.54-5.65,0-.74.07-1.48.22-2.21.54-2.65,2.02-5.02,4.17-6.66l2.72-2.03-3.11-3.21-2.28,1.7c-3.03,2.31-5.1,5.62-5.85,9.33-.77,3.78-.11,7.69,1.85,11.01l.02.04.03.04c.11.16,10.63,16.34,12.45,19.43,1.4,2.38,1.87,5.17,1.32,7.87-.95,4.68-4.77,8.25-9.51,8.87,0,0-1.32.17-2.58.33l1.41,4.29,1.74-.22c6.63-.87,11.97-5.85,13.29-12.39Z"/>
        <path class="cls-15" d="M232.31,299.1c.21-.8.31-1.61.31-2.42,0-1.09-.19-2.17-.55-3.21l-7-21.3c-.47-1.58-.71-3.22-.71-4.86,0-2.57.58-5.14,1.73-7.52,1.68-3.45,4.38-6.17,7.81-7.87.11-.05,1.4-.56,2.62-1.06l-2.44-3.8-2.03.82-.07.04c-4.34,2.14-7.75,5.57-9.87,9.93-2.38,4.89-2.83,10.44-1.27,15.64l7.04,21.41c.36,1.03.41,2.08.15,3.08-.7,2.7-3.37,4.36-6.09,3.79l-3.65-.74-.06,4.51,2.82.57c5.03,1.06,9.99-2.03,11.28-7.02Z"/>
        <path class="cls-15" d="M237.02,303.52c1.04-2.14,1.57-4.47,1.57-6.81,0-1.44-.2-2.89-.6-4.3-1-3.49-6.81-20.83-7.22-22.04-.29-1.01-.43-2.04-.43-3.07,0-1.68.38-3.34,1.12-4.88,1.17-2.42,3.19-4.33,5.66-5.38l2.66-1.07-2.44-3.8-1.92.77c-3.5,1.5-6.31,4.17-7.95,7.54-1.69,3.47-2.03,7.42-.96,11.13v.05s.03.05.03.05c.06.19,6.2,18.48,7.19,21.93.76,2.65.51,5.48-.69,7.95-2.23,4.59-7.28,7.08-12.27,6.07l-2.58-.52-.07,4.51,1.77.36c6.98,1.41,14.03-2.07,17.14-8.48Z"/>
        <path class="cls-15" d="M153.57,332.18c1.14,2.3,3.11,4.03,5.54,4.85,2.44.83,5.05.66,7.35-.48,1.85-.91,3.32-2.36,4.28-4.18l.03-.06s9.44-21.31,9.5-21.44c1.87-3.76,5.04-6.7,8.93-8.28,3.12-1.26,6.51-1.58,9.8-.92l1.79.36.06-4.51-.98-.2c-4.14-.83-8.41-.43-12.33,1.16-4.91,1.99-8.91,5.7-11.25,10.44,0,0-9.46,21.36-9.49,21.42-.51.97-1.3,1.75-2.29,2.24-1.24.61-2.65.71-3.97.26-1.31-.45-2.38-1.38-2.99-2.62l-.16-.35-1.39-3.24-3.72,2.58,1.02,2.37s.27.61.27.61Z"/>
        <path class="cls-15" d="M206.93,329.45c2.72-2.72,4.33-6.34,4.53-10.19v-.08s.37-22.96.37-23.1c.15-2.75,1.3-5.34,3.24-7.29,1.79-1.79,4.07-2.9,6.58-3.2l2.49-.32-1.41-4.29-1.62.21c-3.5.41-6.68,1.96-9.18,4.46-2.72,2.73-4.34,6.35-4.54,10.21v.08s-.36,22.96-.37,23.1c-.15,2.75-1.3,5.34-3.24,7.28-3.8,3.81-9.78,4.37-14.22,1.34l-2.36-1.64-1.83,4.13,1.67,1.16c6.21,4.25,14.56,3.46,19.87-1.86Z"/>
        <path class="cls-15" d="M251.14,267.3c0-1.93-.57-3.79-1.65-5.39l-12.12-18.87c-2.2-3.64-2.96-8-2.1-12.23.85-4.22,3.23-7.93,6.71-10.46l1.85-1.38-3.11-3.21-1.37,1.02c-4.35,3.17-7.35,7.85-8.42,13.15-1.08,5.32-.12,10.81,2.69,15.46l12.26,19.1c.55.86.83,1.82.83,2.81,0,2.6-1.94,4.82-4.51,5.15,0,0-2.02.26-3.72.48l1.41,4.29,2.89-.37c4.77-.63,8.36-4.73,8.36-9.55Z"/>
        <path class="cls-15" d="M73.26,130.04c0,1.93.57,3.79,1.65,5.39l12.11,18.87c2.2,3.64,2.96,8,2.11,12.23-.85,4.21-3.23,7.93-6.71,10.46l-1.86,1.38,3.11,3.21,1.37-1.02c4.35-3.17,7.35-7.85,8.42-13.15,1.08-5.32.12-10.81-2.69-15.46l-3.79-5.91-8.46-13.19c-.55-.87-.83-1.82-.83-2.81,0-2.6,1.94-4.81,4.51-5.15,0,0,2.02-.26,3.72-.48l-1.41-4.29-2.9.37c-4.76.63-8.36,4.73-8.36,9.55Z"/>
        <path class="cls-15" d="M67.84,267.24c0,3.45,1.13,6.9,3.36,9.71,2.39,3.02,5.8,5.04,9.6,5.69,3.58.61,21.71,2.88,22.99,3.04,2.72.47,5.16,1.91,6.87,4.07,1.56,1.97,2.4,4.34,2.41,6.86l.03,2.52,4.42-.91-.02-1.65c-.02-3.5-1.19-6.82-3.37-9.57-2.39-3.02-5.81-5.04-9.61-5.69h-.05s-.05-.02-.05-.02c-.19-.02-19.34-2.42-22.88-3.02-2.72-.47-5.16-1.91-6.87-4.07-2.89-3.64-3.21-8.77-.79-12.75l1.26-2.1-4.25-1.54-.81,1.35c-1.5,2.48-2.24,5.28-2.24,8.08Z"/>
        <path class="cls-15" d="M251.23,202.28c-.94-.97-1.45-2.25-1.45-3.61s.51-2.6,1.42-3.57l2.95-3.01-3.51-2.76-2.64,2.7c-1.72,1.82-2.66,4.17-2.66,6.65s.96,4.88,2.7,6.69l16.62,17.16c3.75,4.02,5.35,9.67,4.25,15.09-1.14,5.63-4.99,10.29-10.31,12.48l-1.45.58,2.44,3.8.68-.27c6.71-2.76,11.56-8.63,12.99-15.71,1.38-6.82-.64-13.93-5.39-19.02l-16.65-17.19Z"/>
        <path class="cls-15" d="M203.91,323.74c1.05-1.58,1.61-3.42,1.61-5.32v-.08l.32-22.42c.17-4.25,1.95-8.31,5-11.36,2.56-2.56,5.8-4.23,9.37-4.81.05,0,1.01-.13,2.03-.26l-1.41-4.29-1.26.16h-.07c-4.49.74-8.57,2.83-11.8,6.06-3.84,3.84-6.07,8.95-6.3,14.37l-.33,22.53c0,1.09-.29,2.1-.87,2.96-1.59,2.39-4.82,3.04-7.21,1.46l-3.33-2.31-1.83,4.13,2.67,1.85c4.46,2.96,10.45,1.75,13.39-2.68Z"/>
        <path class="cls-15" d="M64.11,240.43c1.17,1.53,2.75,2.67,4.58,3.28l21.08,7.65c3.96,1.56,7.21,4.56,9.1,8.44,1.95,4.01,2.27,8.55.9,12.78l-.49,1.46,4.48.59.22-.66c1.73-5.35,1.33-11.06-1.12-16.1-2.37-4.89-6.47-8.67-11.52-10.65l-21.18-7.68c-1.03-.35-1.88-.96-2.52-1.79-1.59-2.08-1.38-5.03.49-6.86,0,0,1.58-1.58,2.85-2.86l-3.51-2.76-2.44,2.45c-3.46,3.39-3.85,8.86-.91,12.72Z"/>
        <path class="cls-15" d="M93.51,309.85c3.25,2.06,7.13,2.85,10.93,2.22,3.58-.6,21.46-4.4,22.72-4.67,2.72-.45,5.5.12,7.82,1.59,1.88,1.19,3.34,2.9,4.23,4.93l1.02,2.39,3.72-2.58-.68-1.57c-1.25-2.86-3.29-5.24-5.92-6.91-3.25-2.07-7.14-2.86-10.94-2.22h-.05s-.05.02-.05.02c-.19.04-19.07,4.06-22.6,4.65-2.72.45-5.5-.11-7.82-1.59-4.33-2.75-6.23-8.08-4.62-12.95l.81-2.44-4.48-.58-.54,1.63c-2.25,6.8.4,14.24,6.44,18.09Z"/>
        <path class="cls-15" d="M247.54,236.7c-.41-.76-.64-1.62-.64-2.49,0-1.63.75-3.14,2.05-4.13l3.29-2.45-3.11-3.21-2.84,2.12c-2.43,1.85-3.82,4.65-3.82,7.67,0,1.63.42,3.25,1.21,4.67l.03.07.04.07c.11.17,11.17,17.21,12.59,19.65,2.12,3.63,2.82,7.91,1.99,12.04-1.5,7.42-7.57,12.92-15.1,13.68l-.96.12,1.41,4.29h.05c9.41-.95,17.05-7.87,18.94-17.21.29-1.42.43-2.86.43-4.29,0-3.79-1-7.54-2.94-10.86-.2-.35-12.46-19.47-12.64-19.73Z"/>
        <path class="cls-15" d="M77.22,274.62c1.47,1.24,3.26,2.01,5.18,2.22l22.24,2.91c4.2.67,8.03,2.9,10.71,6.28,2.3,2.9,3.58,6.38,3.7,10.06l.02,1.8,4.42-.92v-.99c-.17-4.68-1.78-9.06-4.67-12.71-3.37-4.26-8.18-7.07-13.53-7.92l-22.36-2.93c-1.08-.12-2.05-.53-2.84-1.2-1.95-1.65-2.41-4.52-1.08-6.69l1.86-3.11-4.25-1.54-1.41,2.35c-2.46,4-1.6,9.33,2.01,12.37Z"/>
        <path class="cls-15" d="M98.43,305.67c1.8.69,3.75.83,5.62.4l21.96-4.54c4.19-.75,8.53.11,12.17,2.42,2.84,1.8,5.06,4.37,6.44,7.43l.63,1.46,3.72-2.58-.28-.66c-1.74-3.88-4.54-7.11-8.12-9.38-4.58-2.92-10.05-3.99-15.39-3.04l-22.07,4.56c-1.06.24-2.11.17-3.08-.2-2.61-1-3.95-3.87-3.06-6.52l1.17-3.5-4.48-.59-.89,2.68c-1.67,4.9.82,10.21,5.67,12.07Z"/>
        <path class="cls-15" d="M119.35,318.76c.19,5.31,4.66,9.47,9.97,9.29,1.93-.07,3.77-.7,5.33-1.84l18.43-12.78c3.56-2.33,7.89-3.24,12.15-2.54,2.44.4,4.72,1.3,6.76,2.67l1.27.88,1.83-4.13-.6-.41c-2.59-1.74-5.45-2.87-8.53-3.38-5.36-.89-10.83.28-15.37,3.25l-18.5,12.83c-.88.64-1.87.98-2.92,1.02-2.86.1-5.28-2.15-5.38-5.01,0,0-.03-2.07-.05-3.84l-4.42.91.04,2.76s0,.33,0,.33Z"/>
        <path class="cls-15" d="M53.82,198.68c0,.76.05,1.52.17,2.28.56,3.81,2.51,7.26,5.48,9.73,0,0,19.42,15.3,19.53,15.39,2.52,2.15,3.93,5.22,3.93,8.49,0,.2,0,.4-.02.6-.1,1.85-.66,3.65-1.62,5.23l-1.29,2.16,4.24,1.54.84-1.4c1.33-2.18,2.12-4.7,2.25-7.29.26-4.89-1.74-9.52-5.48-12.71l-.07-.05-19.55-15.4c-2.09-1.73-3.48-4.2-3.88-6.93-.59-4.01,1.04-8.04,4.27-10.51l2.73-2.03-3.11-3.21-2.29,1.71c-3.91,3-6.15,7.61-6.15,12.42Z"/>
        <path class="cls-15" d="M57,160.03c-.21,1.05-.31,2.09-.31,3.13,0,3.74,1.34,7.35,3.87,10.25l.04.04s17.06,17.67,17.15,17.77c1.84,2.05,2.86,4.7,2.86,7.46,0,2.93-1.13,5.7-3.19,7.8l-2.44,2.5,3.5,2.76,2.11-2.15c2.87-2.94,4.45-6.81,4.45-10.91,0-3.85-1.42-7.56-4-10.43l-.05-.06s-16.97-17.58-17.1-17.71c-1.81-2.07-2.77-4.66-2.77-7.33,0-.74.07-1.49.22-2.24.75-3.73,3.33-6.79,6.89-8.19l2.31-.93-2.44-3.8-1.51.6c-4.95,1.95-8.54,6.22-9.6,11.43Z"/>
        <path class="cls-15" d="M62.68,163.13c0,2.42.9,4.73,2.53,6.51l16.9,17.46c2.88,3.14,4.49,7.26,4.49,11.58,0,4.56-1.77,8.85-4.98,12.08l-1.9,1.95,3.5,2.76,1.55-1.6c4.02-4.06,6.25-9.45,6.25-15.19,0-5.43-2.02-10.62-5.7-14.62l-16.89-17.46c-.84-.92-1.32-2.16-1.32-3.47,0-2.14,1.34-4.09,3.34-4.86l3.38-1.36-2.44-3.8-2.56,1.03c-3.67,1.4-6.15,5.02-6.15,8.98Z"/>
        <path class="cls-15" d="M67.59,126.94c-.21,1.03-.31,2.06-.31,3.1,0,2.76.73,5.49,2.15,7.91,1.84,3.13,11.81,18.46,12.51,19.53,1.02,1.73,1.54,3.68,1.54,5.65,0,.74-.07,1.48-.22,2.21-.54,2.65-2.02,5.02-4.17,6.66l-2.72,2.03,3.11,3.21,2.28-1.7c3.03-2.31,5.1-5.62,5.85-9.33.76-3.78.1-7.69-1.85-11.01l-.02-.04-.03-.04c-.11-.16-10.63-16.34-12.45-19.43-1.4-2.38-1.87-5.17-1.32-7.87.95-4.68,4.77-8.25,9.51-8.87,0,0,1.32-.17,2.58-.33l-1.41-4.29-1.74.22c-6.63.87-11.97,5.85-13.29,12.39Z"/>
        <path class="cls-15" d="M120.5,73.6c-1.05,1.58-1.6,3.42-1.6,5.31v.09l-.33,22.42c-.17,4.25-1.95,8.31-5,11.36-2.56,2.56-5.8,4.23-9.37,4.81-.05,0-1.01.13-2.03.26l1.41,4.29,1.29-.17h.03c4.49-.74,8.58-2.83,11.8-6.06,3.84-3.84,6.07-8.95,6.3-14.37l.33-22.53c0-1.09.29-2.1.87-2.96,1.58-2.39,4.82-3.04,7.2-1.46l3.34,2.31,1.82-4.13-2.67-1.85c-4.47-2.96-10.45-1.75-13.39,2.68Z"/>
        <path class="cls-15" d="M59.9,200.08c.37,2.48,1.66,4.69,3.65,6.22l18.91,14.86c4.32,3.44,6.73,8.8,6.44,14.32-.15,2.77-.93,5.39-2.32,7.76l-.83,1.38,4.25,1.54.39-.66c1.74-2.97,2.75-6.35,2.93-9.79.37-6.95-2.66-13.69-8.11-18.03l-18.93-14.89c-1.09-.84-1.79-2.03-1.99-3.37-.28-1.9.5-3.78,2.04-4.93l3.24-2.41-3.11-3.21-2.77,2.07c-2.85,2.12-4.3,5.62-3.78,9.14Z"/>
        <path class="cls-15" d="M56.16,234.61c0,2.31.51,4.64,1.56,6.8,1.68,3.46,4.57,6.17,8.14,7.62,3.36,1.37,20.58,7.5,21.79,7.93,2.56,1.04,4.63,2.98,5.83,5.45.75,1.54,1.13,3.2,1.13,4.87,0,1.16-.18,2.33-.55,3.46l-.83,2.5,4.48.59.57-1.7c1.26-3.88.97-8.01-.8-11.66-1.68-3.46-4.58-6.18-8.16-7.63l-.04-.02-.05-.02c-.19-.07-18.37-6.54-21.68-7.89-2.56-1.04-4.63-2.98-5.83-5.46-2.05-4.22-1.23-9.32,2.05-12.69l2.45-2.51-3.51-2.76-2.12,2.17c-2.9,2.98-4.42,6.93-4.42,10.92Z"/>
        <path class="cls-15" d="M270.58,198.66c0-.76-.06-1.52-.17-2.28-.56-3.81-2.51-7.27-5.48-9.73,0,0-19.42-15.3-19.53-15.39-2.52-2.15-3.93-5.22-3.93-8.49,0-.2,0-.4.02-.6.1-1.85.66-3.65,1.62-5.23l1.29-2.15-4.24-1.54-.84,1.4c-1.33,2.18-2.12,4.71-2.25,7.29-.26,4.89,1.74,9.52,5.48,12.71l.07.05,19.55,15.4c2.09,1.73,3.48,4.2,3.89,6.93.59,4.01-1.04,8.04-4.27,10.51l-2.73,2.03,3.11,3.21,2.29-1.71c3.91-3,6.14-7.61,6.14-12.42Z"/>
        <path class="cls-15" d="M195.88,84.09c-.78.07-1.58-.03-2.32-.32-1.32-.51-2.36-1.51-2.92-2.81l-1.46-3.4-3.72,2.58,1.1,2.56c1.03,2.41,2.95,4.27,5.4,5.21,1.53.59,3.18.78,4.79.55h.08s.08-.03.08-.03c.2-.04,20.07-4.25,22.86-4.7,4.15-.67,8.39.2,11.95,2.46,6.56,4.17,9.5,12.25,7.16,19.65l-.53,1.58,4.48.58.27-.8c2.96-9.34-.74-19.51-8.99-24.76-4.48-2.85-9.81-3.95-15.04-3.1-.25.04-23.19,4.73-23.19,4.73Z"/>
        <path class="cls-15" d="M264.5,197.26c-.37-2.48-1.66-4.69-3.65-6.22l-18.9-14.86c-4.32-3.44-6.73-8.8-6.44-14.32.15-2.77.93-5.39,2.32-7.76l.83-1.38-4.25-1.54-.4.66c-1.74,2.97-2.75,6.35-2.93,9.79-.37,6.95,2.67,13.69,8.11,18.03l18.94,14.89c1.09.84,1.79,2.03,1.99,3.37.28,1.9-.5,3.78-2.04,4.93l-3.24,2.41,3.11,3.21,2.77-2.07c2.85-2.12,4.3-5.62,3.78-9.14Z"/>
        <path class="cls-15" d="M236.48,268.57c-.1-.41-.16-.84-.16-1.26s.06-.88.17-1.31c.36-1.4,1.3-2.59,2.58-3.28.17-.07,2.31-.93,4.02-1.62l-2.44-3.8-3.49,1.4-.1.05c-2.41,1.26-4.18,3.49-4.86,6.13-.41,1.58-.41,3.25,0,4.82l.02.07.02.07c.07.19,6.5,19.45,7.27,22.18,1.14,4.05.75,8.36-1.09,12.15-3.39,6.97-11.06,10.82-18.66,9.35l-1.65-.34-.07,4.51.86.17c9.59,1.85,19.25-2.99,23.51-11.76,1.45-2.97,2.18-6.2,2.18-9.44,0-1.96-.27-3.93-.81-5.85-.1-.36-7.15-21.85-7.29-22.27Z"/>
        <path class="cls-15" d="M221.48,105.75c-.85-.17-1.65-.56-2.32-1.12-1.17-.99-1.85-2.44-1.85-3.97,0,0-.02-1.95-.05-3.67l-4.42.91.04,2.73c-.02,2.83,1.22,5.54,3.42,7.39,1.24,1.05,2.74,1.77,4.34,2.09l.08.02h.08c.2.04,20.35,2.58,23.14,3.07,4.14.73,7.87,2.94,10.48,6.24,4.38,5.53,4.91,13.32,1.33,19.39l-.75,1.25,4.24,1.54.31-.52c2-3.38,2.98-7.18,2.98-10.97,0-4.78-1.57-9.55-4.64-13.44-3.29-4.15-7.97-6.94-13.19-7.86-.37-.06-22.98-3.04-23.23-3.07Z"/>
        <path class="cls-15" d="M260.3,156.92c-1.17-1.53-2.75-2.67-4.58-3.28l-21.08-7.65c-3.96-1.55-7.21-4.56-9.1-8.44-1.95-4.01-2.27-8.55-.9-12.78l.49-1.46c-1.37-.18-2.86-.37-4.48-.59l-.22.66c-1.73,5.35-1.33,11.06,1.12,16.1,2.37,4.87,6.45,8.65,11.48,10.64l21.22,7.7c1.03.35,1.88.96,2.51,1.79,1.59,2.08,1.38,5.03-.48,6.86l-2.85,2.85,3.51,2.76,2.44-2.45c3.46-3.4,3.85-8.86.91-12.72Z"/>
        <path class="cls-15" d="M159.77,323.36c.75-.44,1.6-.69,2.47-.73,1.13-.04,2.22.28,3.14.92l2.94,2.04,1.83-4.13-2.24-1.55c-1.72-1.19-3.73-1.78-5.83-1.71-1.63.06-3.23.53-4.62,1.37l-.07.04-.07.04c-.17.12-16.8,11.77-19.2,13.29-3.56,2.25-7.81,3.1-11.96,2.41-8.29-1.37-14.33-8.45-14.36-16.83l-.02-1.3-4.42.91v.42c.05,10.53,7.65,19.44,18.07,21.17,5.22.87,10.57-.21,15.05-3.04.31-.2,19.1-13.21,19.27-13.33Z"/>
        <path class="cls-15" d="M102.92,291.6c.85.17,1.65.56,2.32,1.12,1.17.99,1.85,2.44,1.85,3.97,0,0,.03,1.95.05,3.67l4.42-.91-.04-2.73c.02-2.83-1.22-5.54-3.42-7.39-1.24-1.05-2.74-1.78-4.34-2.09l-.08-.02h-.08c-.2-.03-20.35-2.58-23.15-3.07-4.14-.73-7.87-2.95-10.48-6.24-4.38-5.53-4.91-13.32-1.33-19.39l.75-1.25-4.24-1.54-.31.52c-2,3.38-2.98,7.18-2.98,10.97,0,4.79,1.57,9.55,4.64,13.44,3.29,4.15,7.97,6.94,13.19,7.86.37.07,23.01,3.05,23.23,3.07Z"/>
        <path class="cls-15" d="M133.59,80.8c-.42,1.01-1.09,1.82-1.95,2.39-1.17.77-2.56,1.04-3.93.75l-3.91-.79-.07,4.51,3.09.63c2.52.52,5.1.03,7.26-1.4,1.61-1.07,2.85-2.57,3.59-4.35l9.06-20.51c2.41-5.06,7.19-8.65,12.78-9.54,7.73-1.23,15.32,2.91,18.44,10.08l.51,1.19,3.72-2.58-.16-.37c-3.94-9.04-13.48-14.25-23.21-12.7-7.03,1.12-13.05,5.64-16.1,12.07l-9.1,20.62Z"/>
        <path class="cls-15" d="M73.18,195.07c.94.97,1.45,2.25,1.45,3.61s-.51,2.6-1.42,3.57l-2.95,3.02,3.51,2.76,2.64-2.7c1.73-1.82,2.67-4.17,2.67-6.65s-.96-4.88-2.7-6.69l-16.62-17.17c-3.75-4.02-5.35-9.67-4.26-15.09,1.14-5.63,4.99-10.29,10.31-12.48l1.45-.58-2.44-3.8-.68.27c-6.71,2.76-11.56,8.63-12.99,15.71-1.38,6.82.63,13.93,5.39,19.02l16.65,17.19Z"/>
        <path class="cls-15" d="M106.6,101.1c-.07.86-.36,1.7-.84,2.43-.84,1.26-2.18,2.09-3.68,2.29l-3.71.47,1.41,4.29,2.86-.37c2.78-.35,5.27-1.9,6.82-4.23.9-1.36,1.45-2.94,1.57-4.56v-.08s0-.08,0-.08c0-.2.2-20.51.36-23.34.24-4.2,2.02-8.15,4.99-11.13,5.94-5.94,15.51-6.69,22.27-1.73l.99.69,1.82-4.13-.24-.17c-8.46-6.21-20.51-5.28-27.98,2.2-3.75,3.75-5.98,8.72-6.28,14.01,0,.06-.36,23.14-.37,23.43Z"/>
        <path class="cls-15" d="M87.93,128.77c.1.41.16.84.16,1.26s-.05.88-.17,1.31c-.36,1.4-1.3,2.59-2.58,3.28-.18.07-2.31.93-4.02,1.62l2.44,3.8,3.49-1.4.1-.05c2.41-1.26,4.18-3.49,4.86-6.12.41-1.58.41-3.25,0-4.82l-.02-.08-.02-.07c-.07-.19-6.5-19.46-7.27-22.18-1.14-4.05-.75-8.36,1.09-12.15,3.39-6.97,11.06-10.82,18.66-9.35l1.65.33.07-4.51-.86-.17c-9.59-1.85-19.25,2.99-23.51,11.76-1.44,2.97-2.17,6.2-2.17,9.44,0,1.96.27,3.93.81,5.85.1.36,7.15,21.85,7.29,22.27Z"/>
        <path class="cls-15" d="M76.87,160.64c.42.76.64,1.62.64,2.49,0,1.63-.75,3.14-2.05,4.13l-3.29,2.44,3.11,3.21,2.84-2.12c2.43-1.86,3.81-4.65,3.81-7.68,0-1.63-.42-3.25-1.2-4.67l-.04-.07-.04-.06c-.11-.17-11.17-17.21-12.59-19.66-2.12-3.63-2.83-7.91-1.99-12.04,1.5-7.42,7.57-12.92,15.1-13.67l.96-.12-1.41-4.29h-.05c-9.42.95-17.05,7.87-18.94,17.21-.29,1.42-.43,2.86-.43,4.29,0,3.79,1,7.54,2.93,10.86.2.35,12.46,19.45,12.64,19.73Z"/>
        <path class="cls-15" d="M268.25,162.74c0-2.31-.51-4.64-1.56-6.8-1.68-3.46-4.57-6.17-8.14-7.62-3.36-1.37-20.57-7.5-21.79-7.93-2.55-1.04-4.62-2.98-5.83-5.45-.75-1.54-1.13-3.2-1.13-4.87,0-1.16.18-2.33.55-3.47l.83-2.49c-1.31-.17-2.78-.37-4.48-.59l-.56,1.7c-1.26,3.88-.98,8.01.8,11.66,1.68,3.46,4.58,6.17,8.16,7.63l.05.02.05.02c.18.07,18.37,6.54,21.68,7.89,2.56,1.04,4.63,2.98,5.83,5.46,2.05,4.22,1.23,9.32-2.04,12.69l-2.45,2.51,3.5,2.76,2.12-2.17c2.9-2.98,4.42-6.93,4.42-10.92Z"/>
        <path class="cls-15" d="M85.54,262.56c.79.35,1.49.9,2.02,1.59.7.92,1.07,2.03,1.07,3.16,0,.56-.09,1.12-.27,1.66l-1.16,3.49,4.48.59.89-2.67c1.02-3.04.47-6.37-1.48-8.92-.99-1.29-2.29-2.33-3.78-2.98l-.07-.03-.07-.03c-.19-.07-19.32-6.9-21.94-7.98-3.89-1.6-7.04-4.57-8.89-8.36-3.18-6.54-1.88-14.41,3.23-19.58l1.92-1.95-3.5-2.76-1.57,1.6c-4.08,4.12-6.23,9.62-6.23,15.19,0,3.2.71,6.43,2.17,9.43,2.32,4.77,6.29,8.5,11.18,10.52.36.15,21.66,7.88,22.02,8.01Z"/>
        <path class="cls-15" d="M164.63,73.99c-.74.44-1.6.7-2.47.73-1.13.04-2.22-.28-3.14-.92l-2.94-2.04-1.83,4.13,2.24,1.55c1.72,1.19,3.73,1.78,5.83,1.71,1.63-.06,3.22-.53,4.62-1.37l.07-.04.07-.04c.17-.12,16.8-11.77,19.2-13.29,3.56-2.24,7.8-3.1,11.96-2.41,8.29,1.37,14.33,8.45,14.36,16.83l.02,1.3,4.42-.91v-.42c-.05-10.53-7.65-19.44-18.07-21.17-5.22-.87-10.57.21-15.05,3.04-.31.2-19.09,13.2-19.27,13.33Z"/>
        <path class="cls-15" d="M75.07,230.57c.99.8,1.65,1.96,1.84,3.25.17,1.17-.05,2.34-.64,3.36l-1.97,3.3,4.24,1.54,1.55-2.59c1.1-1.9,1.52-4.11,1.21-6.26-.35-2.39-1.58-4.54-3.46-6.07l-19.22-15.12c-3.33-2.69-5.52-6.54-6.15-10.81-.92-6.22,1.63-12.44,6.65-16.22l2.06-1.53-3.11-3.21-1.61,1.2c-6.33,4.77-9.54,12.6-8.38,20.42.79,5.37,3.56,10.21,7.78,13.63l19.22,15.11Z"/>
        <path class="cls-15" d="M128.3,313.27c.85-.11,1.73-.01,2.54.3,1.32.51,2.36,1.51,2.92,2.82l1.46,3.4,3.72-2.58-1.1-2.56c-1.03-2.41-2.95-4.26-5.4-5.21-1.53-.59-3.18-.78-4.79-.55h-.08s-.07.03-.07.03c-.2.04-20.07,4.25-22.87,4.7-4.15.67-8.39-.2-11.95-2.46-6.56-4.17-9.5-12.25-7.16-19.65l.53-1.58-4.48-.59-.27.8c-2.96,9.34.74,19.51,8.99,24.75,4.47,2.85,9.81,3.95,15.04,3.1.25-.04,22.68-4.66,22.97-4.72Z"/>
        <path class="cls-15" d="M195.43,63.3c-2.98,0-5.88.84-8.38,2.44l-.07.05s-18.89,13.08-19,13.15c-2.32,1.48-5.1,2.05-7.82,1.6-1.59-.26-3.08-.85-4.41-1.75l-2.13-1.48-1.83,4.13,1.45,1.01c1.89,1.27,3.96,2.09,6.18,2.46,3.8.63,7.69-.17,10.94-2.25l.07-.04s18.88-13.08,19-13.15c1.79-1.14,3.86-1.74,5.99-1.74,6.06,0,10.97,4.74,11.18,10.79l.04,2.83,4.42-.91-.03-2.03c-.3-8.49-7.15-15.11-15.61-15.11Z"/>
        <path class="cls-15" d="M170.84,65.16c-1.14-2.3-3.11-4.03-5.54-4.85-2.44-.83-5.05-.66-7.35.48-1.85.91-3.33,2.36-4.27,4.18l-.03.06s-9.44,21.31-9.5,21.44c-1.87,3.76-5.04,6.7-8.93,8.28-3.12,1.27-6.51,1.58-9.8.92l-1.79-.36-.07,4.51.98.2c4.15.83,8.41.43,12.33-1.16,4.91-1.99,8.91-5.7,11.25-10.44,0,0,9.46-21.36,9.49-21.42.51-.97,1.3-1.75,2.29-2.24,1.24-.61,2.65-.7,3.97-.26,1.32.45,2.38,1.38,2.99,2.62l.16.35,1.39,3.24,3.72-2.58-1.02-2.36s-.28-.61-.28-.61Z"/>
        <path class="cls-15" d="M160.44,343.43c6.54.74,12.89-2.73,15.79-8.66l.02-.04s9.3-21.04,9.36-21.17c1.21-2.47,3.28-4.4,5.83-5.44,2.03-.82,4.23-1.03,6.37-.6l2.89.58.07-4.51-2.08-.42c-3-.6-6.07-.31-8.91.84-3.56,1.44-6.46,4.14-8.16,7.61l-.03.08s-9.29,21-9.35,21.13c-2.08,4.24-6.62,6.72-11.3,6.19-3.93-.45-7.37-2.98-8.97-6.62l-.99-2.3-3.72,2.58.64,1.49c2.24,5.09,7.04,8.63,12.54,9.26Z"/>
        <path class="cls-15" d="M205.05,78.58c-.19-5.31-4.66-9.48-9.97-9.29-1.93.07-3.77.7-5.32,1.83l-18.43,12.78c-3.56,2.33-7.89,3.24-12.15,2.54-2.44-.4-4.72-1.3-6.75-2.67l-1.27-.88-1.83,4.13.6.42c2.59,1.74,5.45,2.87,8.53,3.38,5.35.88,10.8-.26,15.34-3.23l18.54-12.85c.88-.64,1.87-.98,2.91-1.02,2.87-.1,5.28,2.15,5.38,5.01,0,0,0,.2,0,.2l.05,3.64,4.42-.91-.04-2.76s0-.33,0-.33Z"/>
        <path class="cls-15" d="M217.8,296.25c.07-.86.36-1.7.84-2.43.84-1.26,2.18-2.09,3.68-2.29l3.71-.48-1.41-4.29-2.86.37c-2.78.35-5.27,1.9-6.82,4.23-.9,1.36-1.44,2.94-1.58,4.55v.08s0,.08,0,.08c0,.2-.2,20.51-.36,23.34-.24,4.2-2.02,8.15-4.99,11.13-5.94,5.94-15.51,6.69-22.27,1.73l-1-.69-1.82,4.13.24.17c8.46,6.21,20.51,5.28,27.98-2.2,3.75-3.75,5.98-8.72,6.28-14.01.02-.35.36-23.16.37-23.43Z"/>
        <path class="cls-15" d="M261.73,234.21c0-2.42-.9-4.73-2.53-6.51l-16.9-17.46c-2.88-3.13-4.49-7.26-4.49-11.58,0-4.55,1.77-8.85,4.98-12.08l1.9-1.95-3.5-2.76-1.55,1.6c-4.02,4.06-6.25,9.46-6.25,15.19,0,5.43,2.02,10.62,5.7,14.62l16.89,17.46c.84.92,1.32,2.16,1.32,3.47,0,2.14-1.34,4.09-3.34,4.86l-3.39,1.36,2.44,3.8,2.57-1.03c3.66-1.4,6.15-5.02,6.15-8.98Z"/>
        <path class="cls-15" d="M163.97,53.92c-6.55-.75-12.89,2.73-15.79,8.65,0,0-9.33,21.08-9.38,21.21-1.21,2.47-3.28,4.4-5.83,5.43-2.03.82-4.23,1.03-6.37.6l-2.89-.58-.07,4.51,2.08.42c2.99.6,6.07.31,8.9-.84,3.57-1.44,6.46-4.15,8.16-7.61l.04-.08s9.29-21,9.35-21.13c2.08-4.23,6.62-6.72,11.3-6.19,3.93.45,7.37,2.98,8.97,6.62l.98,2.3,3.72-2.58-.64-1.49c-2.24-5.09-7.04-8.63-12.54-9.26Z"/>
        <path class="cls-15" d="M267.4,237.31c.21-1.04.31-2.09.31-3.13,0-3.73-1.34-7.35-3.88-10.25l-.03-.04s-17.06-17.67-17.15-17.77c-1.84-2.05-2.86-4.7-2.86-7.46,0-2.93,1.13-5.7,3.19-7.81l2.44-2.5-3.51-2.76-2.11,2.15c-2.87,2.94-4.45,6.81-4.45,10.91,0,3.85,1.42,7.56,4,10.43l.05.06s16.97,17.58,17.1,17.71c1.81,2.07,2.77,4.66,2.77,7.33,0,.74-.07,1.49-.22,2.24-.75,3.73-3.33,6.79-6.89,8.19l-2.31.93,2.44,3.8,1.51-.6c4.95-1.95,8.54-6.22,9.6-11.43Z"/>
        <path class="cls-15" d="M184.31,331.28l.63-1.43h0l1.82-4.13h0s.64-1.45.64-1.45h0s1.82-4.13,1.82-4.13h0s1.59-3.59,1.59-3.59c.41-1,1.09-1.82,1.95-2.39,1.16-.77,2.56-1.04,3.93-.75l3.91.79.07-4.51-3.09-.62c-2.52-.52-5.11-.03-7.26,1.4-1.61,1.07-2.85,2.57-3.59,4.34l-9.06,20.52c-2.4,5.06-7.19,8.65-12.77,9.54-7.73,1.24-15.32-2.91-18.44-10.08l-.51-1.19-3.72,2.58.16.37c3.94,9.04,13.48,14.25,23.21,12.7,7.03-1.12,13.05-5.64,16.1-12.07l.77-1.75h0l1.82-4.13h0Z"/>
        <path class="cls-15" d="M247.19,122.73c-1.47-1.24-3.26-2.01-5.18-2.22l-22.23-2.92c-4.2-.67-8.03-2.9-10.71-6.28-2.3-2.9-3.58-6.38-3.7-10.06l-.03-1.8-4.42.92v.99c.17,4.68,1.78,9.06,4.67,12.71,3.37,4.26,8.18,7.07,13.54,7.92l22.35,2.93c1.08.12,2.05.53,2.84,1.2,1.95,1.65,2.41,4.52,1.08,6.69l-1.86,3.11,4.25,1.54,1.41-2.35c2.46-4,1.6-9.33-2.01-12.37Z"/>
        <path class="cls-15" d="M238.86,134.79c-.79-.35-1.49-.9-2.02-1.59-.7-.92-1.07-2.03-1.07-3.16,0-.56.09-1.12.27-1.66l1.16-3.49c-1.09-.14-2.54-.33-4.48-.59l-.89,2.67c-1.02,3.04-.47,6.37,1.48,8.92.99,1.29,2.3,2.32,3.79,2.98l.07.03.07.03c.19.07,19.32,6.9,21.94,7.98,3.89,1.6,7.04,4.57,8.89,8.36,3.18,6.54,1.88,14.41-3.23,19.58l-1.92,1.95,3.5,2.76,1.57-1.6c4.08-4.12,6.23-9.62,6.23-15.19,0-3.2-.71-6.43-2.17-9.43-2.32-4.77-6.29-8.5-11.18-10.52-.36-.15-21.75-7.92-22.02-8.01Z"/>
        <path class="cls-15" d="M249.34,166.77c-.99-.8-1.65-1.96-1.84-3.25-.17-1.17.05-2.33.64-3.36l1.97-3.29-4.25-1.54-1.55,2.59c-1.1,1.9-1.52,4.11-1.2,6.26.35,2.39,1.58,4.55,3.46,6.07l19.22,15.11c3.33,2.69,5.53,6.54,6.16,10.81.92,6.22-1.63,12.43-6.65,16.22l-2.06,1.53,3.11,3.21,1.61-1.2c6.33-4.77,9.54-12.6,8.38-20.42-.79-5.38-3.56-10.22-7.78-13.63l-19.22-15.11Z"/>
        <path class="cls-15" d="M256.57,130.1c0-3.45-1.13-6.9-3.36-9.71-2.39-3.01-5.8-5.04-9.6-5.68-3.58-.61-21.71-2.88-22.99-3.04-2.71-.47-5.15-1.91-6.86-4.07-1.56-1.97-2.4-4.34-2.41-6.86l-.03-2.52-4.42.92.02,1.65c.02,3.5,1.18,6.81,3.37,9.57,2.39,3.02,5.81,5.04,9.61,5.69h.05s.05.02.05.02c.19.02,19.34,2.42,22.87,3.02,2.72.46,5.16,1.91,6.87,4.07,2.88,3.65,3.2,8.77.79,12.75l-1.26,2.1,4.24,1.54.81-1.35c1.5-2.48,2.24-5.28,2.24-8.08Z"/>
        <path class="cls-15" d="M225.97,91.68c-1.8-.69-3.75-.83-5.62-.39l-21.96,4.54c-4.19.75-8.53-.11-12.17-2.42-2.84-1.81-5.06-4.37-6.44-7.43l-.63-1.46-3.72,2.58.28.66c1.74,3.88,4.55,7.11,8.12,9.38,4.58,2.92,10.05,3.99,15.39,3.04l22.07-4.56c1.06-.24,2.11-.17,3.08.2,2.61,1,3.95,3.87,3.06,6.52l-1.17,3.5,4.48.59.89-2.68c1.66-4.9-.82-10.21-5.67-12.07Z"/>
        <path class="cls-15" d="M230.9,87.49c-3.25-2.06-7.13-2.85-10.93-2.22-3.58.59-21.46,4.4-22.72,4.67-2.72.45-5.5-.12-7.82-1.59-1.88-1.19-3.34-2.9-4.23-4.93l-1.02-2.38-3.72,2.58.68,1.57c1.25,2.86,3.29,5.24,5.92,6.91,3.25,2.07,7.14,2.86,10.94,2.22h.05s.05-.02.05-.02c.19-.04,19.07-4.06,22.6-4.65,2.72-.45,5.5.11,7.83,1.59,4.33,2.75,6.23,8.08,4.61,12.95l-.81,2.45,4.48.59.54-1.63c2.25-6.8-.4-14.24-6.44-18.09Z"/>
      </g>
      <g>
        <g>
          <path class="cls-15" d="M126.6,316.91c.83-1.31,2.58-1.7,3.89-.87,1.32.83,1.7,2.58.87,3.89-.84,1.31-2.58,1.7-3.89.87-1.31-.83-1.7-2.58-.86-3.89Z"/>
          <path class="cls-15" d="M100.13,294.47c1.22-.97,2.99-.77,3.96.45.97,1.22.77,2.99-.45,3.96-1.22.97-2.99.77-3.96-.45-.97-1.22-.77-2.99.45-3.96Z"/>
          <path class="cls-15" d="M82.2,264.77c1.4-.68,3.09-.1,3.77,1.3.68,1.4.1,3.09-1.3,3.77-1.4.68-3.09.1-3.77-1.3-.68-1.4-.1-3.09,1.31-3.77Z"/>
          <path class="cls-15" d="M71.2,231.82c1.53-.31,3.01.68,3.32,2.2.31,1.52-.68,3.01-2.21,3.32-1.53.31-3.02-.68-3.32-2.2-.31-1.53.68-3.01,2.21-3.32Z"/>
          <g>
            <path class="cls-15" d="M69.43,195.85c1.56,0,2.82,1.26,2.82,2.82s-1.26,2.82-2.82,2.82-2.82-1.26-2.82-2.82,1.26-2.82,2.82-2.82Z"/>
            <path class="cls-15" d="M72.87,160.36c1.53.31,2.51,1.8,2.2,3.32-.31,1.53-1.8,2.51-3.32,2.2-1.52-.31-2.51-1.8-2.21-3.32.31-1.53,1.8-2.51,3.32-2.2Z"/>
            <path class="cls-15" d="M84.18,127.38c1.47.71,2.08,2.49,1.37,3.96-.71,1.47-2.49,2.08-3.96,1.37-1.47-.72-2.08-2.49-1.37-3.96.72-1.47,2.49-2.08,3.96-1.37Z"/>
            <path class="cls-15" d="M103.41,98.66c1.1,1.1,1.1,2.88,0,3.99-1.1,1.1-2.88,1.1-3.99,0-1.1-1.1-1.1-2.88,0-3.99,1.1-1.1,2.88-1.1,3.99,0Z"/>
            <path class="cls-15" d="M130.52,76.92c1.1,1.1,1.1,2.89,0,3.99-1.1,1.1-2.89,1.1-3.99,0s-1.1-2.89,0-3.99c1.1-1.1,2.88-1.1,3.99,0Z"/>
          </g>
        </g>
        <g>
          <path class="cls-15" d="M164.82,68.39c.58,1.44-.13,3.08-1.58,3.66-1.45.58-3.09-.13-3.66-1.58-.58-1.45.13-3.09,1.58-3.66,1.45-.58,3.08.13,3.66,1.58Z"/>
          <g>
            <path class="cls-15" d="M197.81,80.43c-.84,1.31-2.58,1.7-3.89.86-1.31-.84-1.7-2.58-.87-3.89.84-1.31,2.58-1.7,3.89-.87,1.31.84,1.7,2.58.87,3.89Z"/>
            <path class="cls-15" d="M224.27,102.87c-1.22.97-2.99.77-3.96-.45-.97-1.22-.77-2.99.45-3.96,1.22-.97,2.99-.77,3.96.45.97,1.22.77,2.99-.45,3.96Z"/>
            <path class="cls-15" d="M242.2,132.57c-1.4.68-3.09.1-3.77-1.3-.68-1.4-.1-3.09,1.3-3.77s3.09-.1,3.77,1.3c.68,1.4.1,3.09-1.3,3.77Z"/>
            <path class="cls-15" d="M253.2,165.52c-1.52.31-3.01-.68-3.32-2.2-.31-1.53.68-3.01,2.21-3.32,1.53-.31,3.02.68,3.32,2.21.31,1.53-.68,3.01-2.21,3.32Z"/>
            <g>
              <path class="cls-15" d="M254.97,201.49c-1.56,0-2.82-1.26-2.82-2.82s1.26-2.82,2.82-2.82,2.82,1.26,2.82,2.82-1.26,2.82-2.82,2.82Z"/>
              <path class="cls-15" d="M251.54,236.98c-1.52-.31-2.51-1.8-2.2-3.32.31-1.53,1.8-2.51,3.32-2.21,1.53.31,2.51,1.8,2.2,3.32-.31,1.53-1.8,2.51-3.32,2.21Z"/>
              <path class="cls-15" d="M240.28,269.84c-1.4-.68-1.99-2.37-1.3-3.77.68-1.4,2.37-1.98,3.77-1.3,1.4.68,1.98,2.37,1.3,3.77-.68,1.4-2.37,1.98-3.77,1.3Z"/>
              <path class="cls-15" d="M220.99,298.68c-1.1-1.1-1.1-2.88,0-3.99,1.1-1.1,2.88-1.1,3.99,0,1.1,1.1,1.1,2.88,0,3.98-1.1,1.1-2.89,1.1-3.99,0Z"/>
              <path class="cls-15" d="M193.67,320.64c-1.23-1.22-1.23-3.21,0-4.43,1.22-1.22,3.21-1.22,4.43,0,1.22,1.22,1.22,3.21,0,4.43-1.22,1.22-3.2,1.23-4.43,0Z"/>
              <path class="cls-15" d="M159.58,328.95c-.58-1.44.13-3.08,1.58-3.66,1.45-.57,3.09.13,3.66,1.58.58,1.45-.14,3.09-1.58,3.66-1.45.57-3.09-.13-3.66-1.58Z"/>
            </g>
          </g>
        </g>
      </g>
      <path class="cls-15" d="M96.45,17.2h0c-19.78,10.67-37.38,25.94-52.29,45.39C15.93,99.4.39,147.73.39,198.67s15.54,99.27,43.77,136.08c14.91,19.45,32.51,34.72,52.29,45.39,20.68,11.16,42.8,16.81,65.75,16.81s45.07-5.66,65.75-16.81c19.78-10.67,37.38-25.94,52.29-45.39,28.23-36.81,43.78-85.14,43.78-136.08s-15.55-99.26-43.78-136.08c-14.91-19.45-32.51-34.72-52.29-45.39C207.27,6.05,185.14.39,162.2.39s-45.06,5.66-65.75,16.81ZM162.2,4.7c22.22,0,43.65,5.48,63.7,16.3,19.24,10.38,36.37,25.26,50.92,44.22,27.65,36.06,42.89,83.46,42.89,133.45s-15.23,97.4-42.89,133.46c-14.54,18.96-31.67,33.84-50.92,44.22-20.05,10.81-41.48,16.3-63.7,16.3s-43.65-5.48-63.7-16.3c-19.25-10.38-36.38-25.26-50.92-44.22C19.93,296.06,4.7,248.67,4.7,198.67s15.23-97.39,42.89-133.45c14.54-18.96,31.67-33.84,50.92-44.22,20.05-10.81,41.48-16.3,63.7-16.3Z"/>
      <g>
        <g>
          <path class="cls-22" d="M141.06,268.47s-3.18,10.17-3.93,12.6c-.74-2.43-3.81-12.6-3.81-12.6h-6.6v2.46h2.32v12.17h-2.32v2.47h7.1v-2.47h-2.09v-10.06c1.12,3.4,4.11,12.52,4.11,12.52h2.48s2.99-9.12,4.11-12.53v10.06h-2.08v2.47h7.24v-2.47h-2.3v-12.17h2.3v-2.46h-6.52Z"/>
          <path class="cls-14" d="M140.63,267.88s-2.67,8.54-3.5,11.2c-.81-2.66-3.39-11.2-3.39-11.2h-7.61v3.63h2.32v11.01h-2.32v3.63h8.27v-3.07c.29.9,1.01,3.07,1.01,3.07h3.32s.72-2.2,1.03-3.14v3.14h8.4v-3.63h-2.3v-11.01h2.3v-3.63h-7.53ZM146.99,269.05v1.3h-2.3v13.34h2.3v1.3h-6.07v-1.3h2.08v-10.64l-1.14-.18s-3.73,11.37-3.98,12.13h-1.63c-.25-.75-3.97-12.12-3.97-12.12l-1.14.18v10.64h2.09v1.3h-5.94v-1.3h2.32v-13.34h-2.32v-1.3h5.58c.23.77,4.24,14,4.24,14,0,0,4.13-13.23,4.37-14h5.51ZM132.31,276.7c.76,2.33,1.18,3.6,1.91,5.82h-1.91v-5.82ZM141.83,276.69v5.83h-1.91c.73-2.23,1.15-3.5,1.91-5.83Z"/>
        </g>
        <g>
          <path class="cls-23" d="M155.76,268.21c-2.59,0-4.68.89-6.06,2.59-1.38,1.68-1.99,3.67-1.99,6.45,0,5.22,3.19,8.6,8.12,8.6,2.48,0,4.57-.89,5.9-2.51.56-.71,1.03-1.65,1.43-2.87.39-1.26.47-2.17.47-3.33,0-1.85-.21-4.23-1.83-6.24-1.42-1.75-3.51-2.68-6.04-2.68ZM155.69,270.65c4.5,0,4.85,4.89,4.85,6.39,0,1.73-.37,3.26-1.03,4.31-.89,1.38-2.11,2.05-3.71,2.05s-2.94-.65-3.88-1.94c-.72-.95-1.08-2.45-1.08-4.46,0-1.49.35-6.35,4.85-6.35Z"/>
          <path class="cls-14" d="M149.25,270.43c-1.46,1.79-2.12,3.89-2.12,6.81,0,5.58,3.42,9.18,8.7,9.18,2.66,0,4.91-.97,6.35-2.72.61-.78,1.11-1.78,1.53-3.06.42-1.34.5-2.3.5-3.51,0-1.95-.22-4.46-1.95-6.6-1.53-1.9-3.78-2.9-6.5-2.9s-5.02.97-6.51,2.8ZM148.3,277.25c0-2.64.57-4.51,1.86-6.08,1.26-1.55,3.2-2.37,5.61-2.37s4.29.85,5.59,2.46c1.5,1.86,1.7,4.12,1.7,5.87,0,1.13-.07,1.97-.44,3.16-.38,1.14-.81,2.03-1.33,2.69-1.21,1.47-3.14,2.29-5.44,2.29-4.58,0-7.53-3.15-7.53-8.02Z"/>
          <path class="cls-14" d="M150.26,277c0,2.14.4,3.76,1.2,4.82,1.05,1.44,2.52,2.17,4.35,2.17s3.2-.78,4.2-2.32c.72-1.15,1.12-2.79,1.12-4.62,0-3.37-1.43-6.98-5.43-6.98s-5.44,3.58-5.44,6.93ZM152.39,281.12c-.64-.85-.97-2.24-.97-4.12,0-1.73.42-5.77,4.27-5.77s4.26,4.06,4.26,5.81c0,1.62-.33,3.04-.94,3.99-.79,1.21-1.81,1.78-3.22,1.78s-2.58-.56-3.41-1.7Z"/>
        </g>
        <g>
          <path class="cls-23" d="M196.45,270.93v-2.46h-7.46v2.46h2.27v4.71h-6.7v-4.71h2.24v-2.46h-7.42v2.46h2.24v12.17h-4.04c-.17-.59-.91-3.24-.91-3.24-.32-1.17-.61-1.91-1.4-2.43,1.49-.69,2.36-2.22,2.36-4.36,0-1.61-.71-3.09-1.85-3.85-1.17-.76-2.77-.76-4.05-.76h-7.44v2.46h2.3v12.17h-2.3v2.47h7.42v-2.47h-2.18v-4.61h1.71c.53,0,1.08,0,1.5.2.57.27.84.91,1.08,1.78,0,0,1.45,5.1,1.45,5.1h11.54v-2.47h-2.24v-4.88h6.7v4.88h-2.27v2.47h7.46v-2.47h-2.25v-12.17h2.25ZM174.67,273.38c0,.71-.22,1.64-.84,2.12-.65.5-1.77.5-2.67.5h-1.64v-5.07h2.27c.72,0,1.62,0,2.11.41.66.56.77,1.52.77,2.04Z"/>
          <path class="cls-14" d="M171.73,267.88h-8.03v3.63h2.3v11.01h-2.3v3.63h8.58v-3.63h-2.18v-3.45h1.12c.47,0,.95,0,1.25.14.32.15.54.56.77,1.41,0,.02,1.57,5.53,1.57,5.53h12.56v-3.63h-2.24v-3.72h5.53v3.72h-2.27v3.63h8.62v-3.63h-2.25v-11.01h2.25v-3.63h-8.62v3.63h2.27v3.55h-5.53v-3.55h2.24v-3.63h-8.59v3.63h2.24v11.01h-3.02c-.18-.64-.79-2.82-.79-2.82-.24-.87-.58-1.56-1.1-2.16,1.32-.91,2.08-2.44,2.08-4.47,0-1.8-.81-3.46-2.11-4.34-1.32-.86-3.02-.86-4.38-.86ZM171.73,269.05c1.21,0,2.71,0,3.73.66.98.66,1.59,1.95,1.59,3.37,0,1.87-.72,3.22-2.02,3.83l-.96.44.89.57c.6.39.84.96,1.15,2.09,0,0,1.03,3.67,1.03,3.67h5.07v-13.34h-2.24v-1.3h6.26v1.3h-2.24v5.88h7.87v-5.88h-2.27v-1.3h6.29v1.3h-2.25v13.34h2.25v1.3h-6.29v-1.3h2.27v-6.05h-7.87v6.05h2.24v1.3h-10.52c-1-3.51-1.28-4.49-1.39-4.77.03.05.06.1.06.1-.24-.89-.58-1.76-1.39-2.15-.54-.26-1.18-.26-1.75-.26h-2.29v5.78h2.18v1.3h-6.25v-1.3h2.3v-13.34h-2.3v-1.3h6.86Z"/>
          <path class="cls-14" d="M168.94,270.35v6.24h2.22c.99,0,2.22,0,3.03-.63.99-.76,1.07-2.17,1.07-2.58,0-.62-.13-1.77-.97-2.49-.66-.54-1.67-.54-2.49-.54h-2.85ZM171.79,271.51c.6,0,1.41,0,1.74.27.5.42.56,1.26.56,1.59,0,.54-.16,1.31-.61,1.66-.5.38-1.55.38-2.31.38h-1.06v-3.91h1.69Z"/>
        </g>
      </g>
    </g>
  </g>
</svg>