<svg width="276" height="45" viewBox="0 0 276 45" fill="none" xmlns="http://www.w3.org/2000/svg">
<g clip-path="url(#clip0_89_1158)">
<path d="M217.421 18.6192C217.421 15.4014 216.995 12.6257 216.136 10.2922C215.277 7.95871 214.092 6.05915 212.573 4.58535C211.055 3.11155 209.261 2.02258 207.184 1.31843C205.106 0.614281 202.837 0.262207 200.359 0.262207C197.881 0.262207 195.611 0.614281 193.534 1.31843C191.456 2.02258 189.662 3.11155 188.144 4.58535C186.625 6.05915 185.441 7.95871 184.581 10.2922C183.722 12.6257 183.296 15.4014 183.296 18.6192V26.5613C183.296 29.8201 183.722 32.6039 184.581 34.9129C185.441 37.23 186.625 39.1214 188.144 40.587C189.662 42.0608 191.456 43.1498 193.534 43.8539C195.611 44.5581 197.881 44.9101 200.359 44.9101C202.837 44.9101 205.106 44.5581 207.184 43.8539C209.261 43.1498 211.055 42.0608 212.573 40.587C214.092 39.1132 215.277 37.2218 216.136 34.9129C216.995 32.5957 217.421 29.8119 217.421 26.5613V18.6192ZM209.086 26.5613C209.086 30.4833 208.377 33.3408 206.95 35.1257C205.523 36.9107 203.329 37.8031 200.359 37.8031C197.388 37.8031 195.194 36.9107 193.767 35.1257C192.341 33.3408 191.631 30.4833 191.631 26.5613V18.6192C191.631 14.6973 192.341 11.8397 193.767 10.0548C195.194 8.26985 197.388 7.37738 200.359 7.37738C203.329 7.37738 205.523 8.26985 206.95 10.0548C208.377 11.8397 209.086 14.6973 209.086 18.6192V26.5613ZM233.607 43.2726V1.85064C233.607 1.5395 233.49 1.2693 233.248 1.05642C233.006 0.843539 232.731 0.72891 232.406 0.72891H226.474C226.156 0.72891 225.873 0.835351 225.631 1.05642C225.389 1.2693 225.272 1.5395 225.272 1.85064V43.2726C225.272 43.5837 225.389 43.8621 225.631 44.0995C225.873 44.337 226.148 44.4516 226.474 44.4516H232.406C232.723 44.4516 233.006 44.337 233.248 44.0995C233.49 43.8621 233.607 43.5919 233.607 43.2726ZM275.7 0.990919C275.499 0.810788 275.241 0.72891 274.924 0.72891H268.566C268.282 0.72891 268.049 0.827163 267.849 1.02367C267.648 1.22018 267.506 1.45762 267.431 1.72782L258.737 37.0908C258.654 37.4429 258.554 37.6885 258.437 37.8277C258.32 37.9669 258.095 38.0324 257.778 38.0324C257.461 38.0324 257.236 37.9669 257.119 37.8277C257.002 37.6885 256.902 37.4429 256.819 37.0908L248.125 1.72782C248.041 1.44943 247.908 1.22018 247.708 1.02367C247.507 0.827163 247.265 0.72891 246.99 0.72891H240.632C240.315 0.72891 240.057 0.818976 239.856 0.990919C239.656 1.17105 239.556 1.41668 239.556 1.72782C239.556 1.8097 239.564 1.85882 239.589 1.8752C239.606 1.89157 239.623 1.9407 239.623 2.02258L249.46 38.9167C249.818 40.2922 250.336 41.3648 251.02 42.1509C251.696 42.9369 252.43 43.5346 253.206 43.944C253.982 44.3534 254.783 44.6236 255.6 44.7382C256.418 44.8528 257.152 44.9183 257.786 44.9183C258.42 44.9183 259.155 44.861 259.972 44.7382C260.79 44.6236 261.591 44.3534 262.367 43.944C263.151 43.5346 263.877 42.9369 264.553 42.1509C265.229 41.3648 265.754 40.284 266.113 38.9167L275.942 2.02258C275.942 1.9407 275.95 1.89157 275.975 1.8752C275.992 1.85882 276.008 1.8097 276.008 1.72782C276.008 1.41668 275.908 1.17105 275.708 0.990919H275.7Z" fill="black"/>
<path d="M93.9218 8.72021H1.38501C0.992866 8.72021 0.667473 8.85941 0.400484 9.14598C0.133495 9.43255 0 9.76825 0 10.1449V17.2355C0 17.6203 0.133495 17.9478 0.400484 18.2344C0.667473 18.521 0.992866 18.6684 1.38501 18.6684H93.9134" fill="#F26F21"/>
<path d="M160.569 0H66.9057C66.7388 0 66.5886 0.0655022 66.4718 0.188319C66.355 0.311135 66.2966 0.466703 66.2966 0.630459V3.75819C66.2966 3.93013 66.355 4.07751 66.4718 4.20033C66.5886 4.32314 66.7388 4.38865 66.9057 4.38865H160.569" fill="#00B8F1"/>
<path d="M160.569 45.0001H141.087C140.228 45.0001 139.502 44.6807 138.909 44.0503C138.317 43.4198 138.025 42.6747 138.025 41.8314V26.1682C138.025 25.3248 138.325 24.5879 138.909 23.9493C139.502 23.3188 140.228 22.9995 141.087 22.9995H160.569V44.9919V45.0001Z" fill="#C22032"/>
<path d="M129.698 45.0001H24.0791C23.2198 45.0001 22.4939 44.6807 21.9015 44.0503C21.3091 43.4198 21.0171 42.6747 21.0171 41.8314V26.1682C21.0171 25.3248 21.3175 24.5879 21.9015 23.9493C22.4939 23.3188 23.2198 22.9995 24.0791 22.9995H129.698V44.9919V45.0001Z" fill="#C22032"/>
</g>
<defs>
<clipPath id="clip0_89_1158">
<rect width="276" height="45" fill="white"/>
</clipPath>
</defs>
</svg>
