<svg width="195" height="45" viewBox="0 0 195 45" fill="none" xmlns="http://www.w3.org/2000/svg">
<g clip-path="url(#clip0_89_923)">
<path fill-rule="evenodd" clip-rule="evenodd" d="M83.0068 34.3778C82.613 33.9406 81.9828 33.8397 81.4708 34.1312L74.6404 38.0606L66.5777 42.7018C66.0657 42.9989 65.835 43.5931 66.0207 44.1536C66.2064 44.7142 66.7465 45.0561 67.3317 44.9944C69.8129 44.7142 72.2829 44.0247 74.6404 42.8924C75.1468 42.6458 75.6531 42.3823 76.1539 42.0965C78.9502 40.4877 81.2795 38.3745 83.0856 35.9361C83.4344 35.4597 83.4063 34.8207 83.0125 34.3835L83.0068 34.3778Z" fill="#0172A6"/>
<path fill-rule="evenodd" clip-rule="evenodd" d="M87.1027 18.0103C87.0127 17.5507 86.9001 17.0854 86.782 16.6258C86.6807 16.2446 86.4275 15.9587 86.0618 15.8074C85.6961 15.656 85.3135 15.6785 84.9703 15.8803L74.6402 21.822L60.5967 29.8993L48.9556 36.5977C48.6124 36.7939 48.3986 37.1134 48.348 37.5058C48.2974 37.8982 48.4211 38.2569 48.7025 38.5372C49.7546 39.5798 50.8911 40.5047 52.1008 41.3063C52.5003 41.5753 52.9898 41.5865 53.4061 41.3511L60.6023 37.2087L64.6983 34.8545C65.1597 34.591 65.441 34.1594 65.5085 33.6325C65.5423 33.3242 65.5029 33.0327 65.3791 32.7693C65.1147 32.1919 65.3285 31.5081 65.8855 31.1942L74.6514 26.1493L86.5232 19.322C86.9902 19.0585 87.2208 18.5428 87.1139 18.0159L87.1027 18.0103Z" fill="#A51E23"/>
<path fill-rule="evenodd" clip-rule="evenodd" d="M60.5911 0.117934C60.0566 0.213226 59.3983 0.364571 58.5937 0.588786C56.8045 1.09327 55.0491 1.81636 53.3668 2.7861C49.8165 4.82645 47.0259 7.67959 45.096 10.9756C44.809 11.4632 44.8878 12.063 45.2873 12.4666C45.6868 12.8702 46.2888 12.9487 46.7783 12.6628L59.1845 5.52713C59.4827 5.35336 59.7415 5.14596 59.8428 4.82085C59.9385 4.50695 60.231 4.09215 60.5855 3.63811C61.9752 1.8556 64.4171 -0.554712 60.5855 0.123539L60.5911 0.117934Z" fill="#0172A6"/>
<path fill-rule="evenodd" clip-rule="evenodd" d="M72.0126 0.930484C71.4162 0.72869 70.8086 0.554923 70.1953 0.403578C69.8746 0.325103 69.5707 0.36434 69.2838 0.532502L60.591 5.5325L43.453 15.3924C43.166 15.5549 42.9747 15.796 42.8847 16.1155C42.3896 17.8139 42.0914 19.5684 42.007 21.3397C41.9845 21.7993 42.1983 22.2085 42.5978 22.4495C42.9916 22.6906 43.4586 22.6962 43.8581 22.4664L56.7482 15.056C57.2433 14.7702 57.5302 14.2993 57.564 13.7332C57.5921 13.1782 57.6428 12.6289 57.7159 12.0796C57.7665 11.6872 57.9804 11.3677 58.3236 11.1659L60.5966 9.85986L72.2377 3.16143C72.6653 2.91479 72.896 2.46636 72.8509 1.97308C72.8003 1.47981 72.4852 1.08743 72.0126 0.930484Z" fill="#0172A6"/>
<path fill-rule="evenodd" clip-rule="evenodd" d="M79.5522 5.17979C79.1809 4.86588 78.7983 4.55759 78.4101 4.27171C78.005 3.96902 77.493 3.941 77.0541 4.19324L74.6404 5.58337L60.5969 13.6607L42.7499 23.9242C42.311 24.1764 42.0804 24.6361 42.1422 25.1349C42.311 26.5475 42.6149 27.9488 43.0537 29.3334C43.1719 29.6977 43.4251 29.9668 43.7852 30.1069C44.1452 30.2471 44.511 30.219 44.8485 30.0228L57.508 22.7414C58.155 22.3715 58.4588 21.6428 58.2732 20.9253C58.2281 20.7515 58.1831 20.5778 58.1437 20.404C58.02 19.8659 58.2506 19.3334 58.7289 19.0587L60.5912 17.9881L74.6347 9.91073L79.3666 7.18651C79.7266 6.97911 79.9404 6.64279 79.9798 6.2336C80.0136 5.8244 79.8673 5.44884 79.5522 5.18539V5.17979Z" fill="#0172A6"/>
<path fill-rule="evenodd" clip-rule="evenodd" d="M84.4131 10.9698C84.1824 10.5775 83.9404 10.1907 83.6872 9.81514C83.3272 9.27702 82.607 9.10886 82.0443 9.43397L74.6344 13.6941L60.5908 21.7714L44.8144 30.8465C44.2518 31.1716 44.038 31.8723 44.3249 32.4553C44.5443 32.9037 44.7806 33.3409 45.0338 33.7781C45.4727 34.5349 45.9509 35.258 46.4573 35.9474C46.8343 36.4519 47.5207 36.5977 48.0665 36.2838L60.2308 29.2882C60.3658 29.2098 60.4839 29.1201 60.5908 29.0136C60.7878 28.8174 60.9228 28.5764 60.996 28.2905C61.0972 27.9149 61.0635 27.5506 60.9059 27.2086C60.6359 26.6313 60.8553 25.9474 61.4123 25.6279L74.6344 18.0214L83.9629 12.6571C84.2611 12.4889 84.4524 12.2367 84.5368 11.9059C84.6269 11.5752 84.5875 11.2613 84.4131 10.9698Z" fill="#0172A6"/>
<path fill-rule="evenodd" clip-rule="evenodd" d="M86.8496 23.6941C86.4502 23.4363 85.9719 23.4195 85.5556 23.6605L74.6347 29.9441L60.5912 38.0215L55.4149 40.9979C55.0042 41.2334 54.7735 41.6538 54.8016 42.1302C54.8298 42.6067 55.0998 42.9991 55.5331 43.1896C57.1535 43.9015 58.8526 44.4228 60.5912 44.7479C60.7037 44.7704 60.8163 44.7872 60.9288 44.8096C61.227 44.86 61.4914 44.8096 61.7559 44.6639L71.152 39.2603C71.6921 38.952 71.9903 38.4026 71.9678 37.786C71.9622 37.5674 71.9115 37.36 71.8271 37.1695C71.5683 36.5921 71.7877 35.9138 72.3335 35.5999L74.6403 34.2771L86.5627 27.4217C86.889 27.2367 87.0916 26.9452 87.1591 26.5809C87.266 26.0147 87.3504 25.443 87.4123 24.8656C87.4629 24.3948 87.2604 23.9632 86.8553 23.7053L86.8496 23.6941Z" fill="#0172A6"/>
<path d="M27.2543 3.41403C30 4.6304 32.1099 6.37368 33.5728 8.64385C35.0413 10.914 35.7727 13.6102 35.7727 16.7324C35.7727 19.8546 35.0413 22.5004 33.5728 24.7874C32.1099 27.08 30.0056 28.8344 27.2543 30.0452C24.5086 31.2616 21.2791 31.8669 17.5769 31.8669H7.93886V44.1483H0V1.59229H17.5769C21.2791 1.59229 24.5086 2.19767 27.2543 3.41403ZM25.0882 22.9992C26.8773 21.5418 27.7719 19.451 27.7719 16.7324C27.7719 14.0138 26.8773 11.9286 25.0882 10.4656C23.299 9.0082 20.6714 8.2739 17.2168 8.2739H7.93886V25.1797H17.2168C20.6714 25.1797 23.299 24.451 25.0882 22.9936V22.9992Z" fill="#0472A6"/>
<path d="M94.833 1.59229H102.772V44.1596H94.833V1.59229Z" fill="#0472A6"/>
<path d="M152.515 1.59229V44.1596H145.983L122.419 15.3367V44.1596H114.542V1.59229H121.075L144.638 30.4152V1.59229H152.509H152.515Z" fill="#0472A6"/>
<path d="M172.899 8.27951H158.738V1.59229H194.994V8.27951H180.833V44.1596H172.899V8.27951Z" fill="#0472A6"/>
</g>
<defs>
<clipPath id="clip0_89_923">
<rect width="195" height="45" fill="white"/>
</clipPath>
</defs>
</svg>
