<svg width="271" height="53" viewBox="0 0 271 53" fill="none" xmlns="http://www.w3.org/2000/svg">
<g clip-path="url(#clip0_89_1527)">
<path d="M0 37.6541H8.938V40.2787H2.90288V43.943H8.4291V46.4026H2.90288V50.404H8.938V52.7345H0V37.647V37.6541Z" fill="black"/>
<path d="M11.6543 44.0581H17.8328V46.1807H11.6543V44.0581Z" fill="black"/>
<path d="M21.0228 37.6541H26.5705C29.6383 37.6541 30.9571 39.074 30.9571 41.72C30.9571 43.563 30.2547 44.4521 29.3229 44.8752C30.8281 45.4489 31.4158 46.8687 31.4158 48.4105C31.4158 51.4007 30.0826 52.7345 27.1153 52.7345H21.0156V37.647L21.0228 37.6541ZM23.9185 40.2859V43.9502H26.377C27.6672 43.9502 28.0255 43.4626 28.0255 42.1073C28.0255 40.838 27.6242 40.2859 26.334 40.2859H23.9185ZM23.9185 46.3668V50.4111H26.7569C27.8392 50.4111 28.4269 49.9235 28.4269 48.3746C28.4269 46.8257 27.832 46.3596 26.7354 46.3596H23.9185V46.3668Z" fill="black"/>
<path d="M34.1753 37.6543H37.0782V52.7418H34.1753V37.6543Z" fill="black"/>
<path d="M40.5545 37.6543H43.4574V44.7104L48.5392 37.6543H51.736L46.9265 44.0938L51.7933 52.7347H48.5536L45.02 46.3598L43.4502 48.4823V52.7418H40.5474V37.6543H40.5545Z" fill="black"/>
<path d="M53.9219 37.6541H62.8599V40.2787H56.8248V43.943H62.351V46.4026H56.8248V50.404H62.8599V52.7345H53.9219V37.647V37.6541Z" fill="black"/>
<path d="M70.5151 37.6543H76.0629C79.2166 37.6543 80.5498 38.9235 80.5498 42.509C80.5498 46.4099 79.1736 47.5071 76.0199 47.5071H73.418V52.7418H70.5151V37.6543ZM73.418 40.286V45.0547H75.6185C77.1882 45.0547 77.5681 44.7176 77.5681 42.6165C77.5681 40.6876 77.1237 40.286 75.6185 40.286H73.418Z" fill="black"/>
<path d="M83.2305 37.6541H92.1685V40.2787H86.1333V43.943H91.6596V46.4026H86.1333V50.404H92.1685V52.7345H83.2305V37.647V37.6541Z" fill="black"/>
<path d="M95.0928 37.6543H100.54C103.694 37.6543 105.135 38.7801 105.135 42.509C105.135 45.3056 104.289 46.5964 102.59 46.998L105.579 52.7418H102.382L99.8019 47.5071H98.0028V52.7418H95.0999V37.6543H95.0928ZM97.9957 40.286V45.0547H100.153C101.615 45.0547 102.146 44.8467 102.146 42.6165C102.146 40.58 101.637 40.286 100.067 40.286H97.9885H97.9957Z" fill="black"/>
<path d="M108.102 37.6541H116.889V40.2787H110.998V43.943H116.373V46.4026H110.998V52.7345H108.095V37.647L108.102 37.6541Z" fill="black"/>
<path d="M118.911 45.155C118.911 38.9881 120.265 37.4033 124.731 37.4033C129.196 37.4033 130.551 38.9953 130.551 45.155C130.551 51.3148 129.404 52.9928 124.731 52.9928C120.057 52.9928 118.911 51.0854 118.911 45.155ZM127.526 45.112C127.526 40.745 127.168 40.0279 124.731 40.0279C122.294 40.0279 121.935 40.7521 121.935 45.112C121.935 50.0886 122.294 50.6623 124.731 50.6623C127.168 50.6623 127.526 50.0886 127.526 45.112Z" fill="black"/>
<path d="M133.461 37.6543H138.908C142.062 37.6543 143.503 38.7801 143.503 42.509C143.503 45.3056 142.657 46.5964 140.958 46.998L143.947 52.7418H140.75L138.163 47.5071H136.364V52.7418H133.461V37.6543ZM136.364 40.286V45.0547H138.521C139.983 45.0547 140.514 44.8467 140.514 42.6165C140.514 40.58 140.005 40.286 138.435 40.286H136.357H136.364Z" fill="black"/>
<path d="M146.155 52.7418L146.836 37.6543H150.247L153.444 47.6935L156.498 37.6543H159.931L160.691 52.7418H157.895L157.429 42.803L154.319 52.7418H152.348L149.194 42.803L148.771 52.7418H146.162H146.155Z" fill="black"/>
<path d="M167.105 37.6543H170.682L175.047 52.7418H172.058L171.256 49.8807H166.195L165.414 52.7418H162.748L167.113 37.6543H167.105ZM166.869 47.4641H170.596L168.733 40.7234L166.869 47.4641Z" fill="black"/>
<path d="M177.298 37.6543H180.365L185.318 47.335V37.6543H188.028V52.7418H185.146L180 42.7026V52.7418H177.291V37.6543H177.298Z" fill="black"/>
<path d="M190.945 45.155C190.945 38.9881 192.299 37.4033 196.765 37.4033C201.23 37.4033 201.868 39.2247 202.04 43.3336H199.223C199.116 40.7306 198.693 40.0279 196.765 40.0279C194.328 40.0279 193.97 40.7521 193.97 45.112C193.97 50.0886 194.328 50.6623 196.765 50.6623C198.693 50.6623 199.116 49.9022 199.223 47.2489H202.04C201.868 51.3148 200.729 52.9928 196.765 52.9928C192.084 52.9928 190.945 51.0854 190.945 45.155Z" fill="black"/>
<path d="M204.778 37.6541H213.716V40.2787H207.681V43.943H213.207V46.4026H207.681V50.404H213.716V52.7345H204.778V37.647V37.6541Z" fill="black"/>
<path d="M271 23.2339H0V28.0384H271V23.2339Z" fill="#C3E300"/>
<path d="M26.7997 11.8033C29.3657 11.8033 30.749 10.4193 30.749 7.85212V3.95116C30.749 1.38398 29.3657 0 26.7997 0H0V16.0269H3.62681V11.8033H26.7997ZM27.1222 4.16628V7.63699C27.1222 8.0529 26.9 8.2752 26.4843 8.2752H3.63398V3.5209H26.4843C26.9 3.5209 27.1222 3.7432 27.1222 4.15911V4.16628ZM39.2928 16.0269C36.7268 16.0269 35.3435 14.6429 35.3435 12.0758V3.95116C35.3435 1.38398 36.7268 0 39.2928 0H61.5554C64.1214 0 65.5047 1.38398 65.5047 3.95116V12.0686C65.5047 14.6358 64.1214 16.0198 61.5554 16.0198H39.2928V16.0269ZM61.24 12.4988C61.6557 12.4988 61.8779 12.2766 61.8779 11.8606V4.16628C61.8779 3.75037 61.6557 3.52807 61.24 3.52807H39.6154C39.1996 3.52807 38.9774 3.75037 38.9774 4.16628V11.8606C38.9774 12.2766 39.1996 12.4988 39.6154 12.4988H61.24ZM97.2787 10.5771C99.4075 11.4734 100.898 13.5745 100.906 16.0269H97.2787C97.2787 13.1442 95.9456 11.8033 93.057 11.8033H73.7833V16.0269H70.1565V0H96.9562C99.5222 0 100.906 1.38398 100.906 3.95116V6.6259C100.906 9.08551 99.6369 10.4623 97.2787 10.5699V10.5771ZM96.6337 8.28237C97.0494 8.28237 97.2716 8.06007 97.2716 7.64416V4.17345C97.2716 3.75754 97.0494 3.53525 96.6337 3.53525H73.7833V8.28954H96.6337V8.28237ZM105.285 3.95116C105.285 1.38398 106.668 0 109.234 0H135.504V2.99026H109.557C109.141 2.99026 108.919 3.21256 108.919 3.62847V5.87295C108.919 6.28886 109.141 6.51116 109.557 6.51116H132.085C134.651 6.51116 136.034 7.89514 136.034 10.4623V12.0686C136.034 14.6358 134.651 16.0198 132.085 16.0198H105.815V13.0295H131.762C132.178 13.0295 132.4 12.8072 132.4 12.3913V10.1468C132.4 9.73089 132.178 9.50859 131.762 9.50859H109.234C106.668 9.50859 105.285 8.12461 105.285 5.55743V3.95116ZM140.571 3.95116C140.571 1.38398 141.954 0 144.52 0H170.145V3.52807H144.843C144.427 3.52807 144.205 3.75037 144.205 4.16628V11.8606C144.205 12.2766 144.427 12.4988 144.843 12.4988H170.145V16.0269H144.52C141.954 16.0269 140.571 14.6429 140.571 12.0758V3.95833V3.95116ZM203.782 0V16.0269H200.155V9.78109H178.43V16.0269H174.804V0H178.43V6.24584H200.155V0H203.782ZM212.111 2.99026V6.51833H240.244V9.50859H212.111V13.0367H240.244V16.0269H208.477V0H240.244V2.99026H212.111Z" fill="black"/>
</g>
<defs>
<clipPath id="clip0_89_1527">
<rect width="271" height="53" fill="white"/>
</clipPath>
</defs>
</svg>
