<svg width="515" height="74" viewBox="0 0 515 74" fill="none" xmlns="http://www.w3.org/2000/svg">
<g clip-path="url(#clip0_155_34)">
<path d="M463.424 65.2656C463.454 64.9624 463.464 64.6559 463.464 64.346V42.5886C463.464 42.2147 463.444 41.8475 463.404 41.4804H484.984V64.3426C484.984 64.6491 485.004 64.9591 485.037 65.2622H463.424V65.2656ZM505.188 0.188836H499.695H494.802L448.039 0.0136719C436.178 0.195573 433.695 5.76713 433.695 12.8208C433.695 19.8779 438.251 24.7151 448.236 24.7151C458.208 24.7151 462.203 20.6224 462.39 12.8208C462.577 11.3757 462.633 10.0519 462.55 8.85945H485.037C485.004 9.16262 484.984 9.46915 484.984 9.77906V32.83C471.033 32.83 456.957 33.0085 443.267 33.0085C437.867 33.0085 433.448 37.3202 433.448 42.5953V64.3527C433.448 69.6211 437.867 73.9328 443.267 73.9328H447.989H453.649H494.802H499.905H505.191C510.591 73.9328 515.003 69.6177 515.003 64.3527V9.77569C515.003 4.5073 510.584 0.188836 505.191 0.188836" fill="#213167"/>
<path d="M311.188 9.59027V32.4492H289.685L289.665 9.59027C289.665 9.28373 289.649 8.97046 289.619 8.67066H311.231C311.205 8.96709 311.191 9.28037 311.191 9.59027M331.382 0.0067865H326.103H321.007H279.847H274.18H269.464C264.061 0.0067865 259.646 4.32525 259.646 9.59364V31.3443C259.646 36.6127 264.068 40.9379 269.464 40.9379C283.151 40.9379 297.225 41.1164 311.188 41.1164V64.1673C311.188 64.4772 311.201 64.7837 311.228 65.0869H288.748C288.824 63.8843 288.771 62.5639 288.587 61.1188C288.401 53.324 284.406 49.2312 274.427 49.2312C264.448 49.2312 259.89 54.0617 259.89 61.1188C259.89 68.1725 262.369 73.744 274.24 73.9259C275.919 73.9563 277.434 73.8923 278.789 73.7474H321.003H325.892H331.379C336.779 73.7474 341.201 69.4323 341.201 64.1673V9.59027C341.201 4.32188 336.779 0.00341797 331.379 0.00341797" fill="#213167"/>
<path d="M414.065 0.0069565C425.933 0.188857 428.409 5.76042 428.409 12.8141C428.409 19.878 423.854 24.7084 413.872 24.7084C405.295 24.7084 401.146 21.6835 400.025 15.8896C399.608 13.7034 399.388 10.8671 399.568 8.6742H376.777C376.814 8.97063 376.83 9.28391 376.83 9.59381V64.1641C376.83 69.4325 372.408 73.7442 367.012 73.7442H356.629C351.23 73.7442 346.811 69.4291 346.811 64.1641V9.59044C346.811 4.32205 351.23 0.00358796 356.629 0.00358796H361.582H367.012H412.654C413.111 -0.00314911 413.575 -0.00314911 414.065 0.00358796" fill="#213167"/>
<path d="M223.95 8.67071C223.923 8.97388 223.91 9.28378 223.91 9.59369V31.3443C223.91 31.7149 223.93 32.0854 223.97 32.4526H202.384V9.59369C202.384 9.28378 202.367 8.97051 202.337 8.67071H223.95ZM202.384 41.1131C216.341 41.1131 230.414 40.9312 244.107 40.9312C249.504 40.9312 253.919 36.6127 253.919 31.3443V9.59369C253.919 4.32193 249.507 0.00683594 244.107 0.00683594H239.385H233.718H192.565H187.469H182.183C176.783 0.00683594 172.371 4.32193 172.371 9.59369V64.1606C172.371 69.4357 176.783 73.7475 182.183 73.7475H187.67H192.562C208.117 73.7475 223.8 74.1652 239.325 73.926C251.186 73.7441 253.676 68.1725 253.676 61.1188C253.676 54.0584 249.12 49.2245 239.141 49.2245C229.156 49.2245 225.165 53.3173 224.978 61.1188C224.798 62.5606 224.741 63.881 224.824 65.0802H202.337C202.367 64.7838 202.384 64.4705 202.384 64.1606V41.1131Z" fill="#213167"/>
<path d="M116.3 32.4492V9.59027C116.3 9.28373 116.28 8.97046 116.247 8.67066H137.673C137.643 8.96709 137.626 9.28037 137.626 9.59027V31.3409C137.626 31.7182 137.653 32.0854 137.693 32.4492H116.297H116.3ZM157.83 0.0067865H152.544H147.444H106.485H100.635H96.1025C90.696 0.0067865 86.2773 4.32525 86.2773 9.59364V64.1639C86.2773 69.4323 90.6993 73.744 96.1025 73.744H106.485C111.878 73.744 116.303 69.4289 116.303 64.1639V41.113C130.204 41.113 144.18 40.9345 157.83 40.9345C163.23 40.9345 167.649 36.6127 167.649 31.3409V9.59027C167.649 4.32188 163.23 0.00341797 157.83 0.00341797" fill="#213167"/>
<path d="M28.8547 65.0802H51.6288C51.5721 64.484 51.5454 63.8574 51.5454 63.1871V43.0129C51.5454 42.346 51.5721 41.7093 51.6288 41.1198C40.9092 41.1198 30.1463 41.3017 19.4534 41.3017H10.5761C4.7624 41.3017 0.00333735 36.5521 0.00333735 30.7447V10.5672C0.0066747 4.75983 4.7624 8.49958e-05 10.5794 8.49958e-05H13.9835H19.4568H65.0917C65.5322 -0.00328354 65.9961 -0.00328354 66.4633 8.49958e-05C78.3276 0.188723 80.814 5.76028 80.814 12.814C80.814 19.8744 76.2518 24.7083 66.2731 24.7083C56.3011 24.7083 52.3063 20.6088 52.1161 12.814C51.9225 11.2914 51.8691 9.91369 51.9659 8.6707H29.9427C29.9994 9.26019 30.0295 9.89348 30.0295 10.5672V30.7413C30.0295 31.3207 29.9828 31.8968 29.896 32.4559H62.1215H65.9027H70.9988C76.8125 32.4559 81.5715 37.2056 81.5715 43.0129V63.1871C81.5715 68.9978 76.8125 73.7475 70.9988 73.7475H65.9027H62.1215C46.229 73.7475 30.2197 74.1685 14.3539 73.926C2.48299 73.7374 0 68.1692 0 61.1121C0 54.0584 4.55882 49.2245 14.5375 49.2245C24.5162 49.2245 28.5077 53.3173 28.6945 61.1121C28.8814 62.5639 28.9382 63.881 28.8547 65.0802Z" fill="#213167"/>
</g>
<defs>
<clipPath id="clip0_155_34">
<rect width="515" height="74" fill="white"/>
</clipPath>
</defs>
</svg>
