<svg width="208" height="58" viewBox="0 0 208 58" fill="none" xmlns="http://www.w3.org/2000/svg">
<g clip-path="url(#clip0_89_1085)">
<path d="M199.378 15.6078C202.035 15.6078 204.692 15.6078 207.343 15.6078C208.012 15.6078 208.012 15.6078 207.994 16.267C207.923 18.8624 207.805 21.4577 206.947 23.9402C204.864 29.9564 200.68 33.5791 194.426 34.6957C190.224 35.444 186.094 35.0758 182.195 33.2406C176.922 30.7641 173.904 26.5415 172.993 20.8103C172.478 17.5617 172.697 14.3428 173.792 11.2189C175.396 6.6459 178.449 3.39728 182.911 1.59183C187.603 -0.302702 192.426 -0.528383 197.254 1.05138C201.302 2.36984 204.136 5.13146 206.03 8.91458C206.172 9.19965 206.101 9.29468 205.834 9.40158C203.278 10.435 200.728 11.4743 198.189 12.5255C197.875 12.6561 197.816 12.5255 197.71 12.282C196.899 10.4231 195.668 8.94428 193.792 8.095C190.248 6.49148 186.094 7.74461 183.828 11.0823C181.236 14.9011 181.23 20.5134 183.828 24.3322C186.775 28.6795 191.952 28.6142 194.834 27.0284C196.514 26.102 197.402 24.6172 197.733 22.7583C197.804 22.3723 197.633 22.3307 197.313 22.3307C195.272 22.3426 193.224 22.3248 191.183 22.3426C190.763 22.3426 190.615 22.2535 190.621 21.7962C190.644 19.9017 190.644 18.0071 190.621 16.1186C190.621 15.6909 190.751 15.5959 191.153 15.6019C193.899 15.6197 196.639 15.6078 199.384 15.6078H199.378Z" fill="#D72622"/>
<path d="M13.0359 0.267299C16.5744 0.356384 19.9355 1.17002 23.1131 2.74979C23.4267 2.9042 23.4977 3.0111 23.3143 3.35556C22.261 5.30949 21.2373 7.28122 20.2136 9.24702C20.0656 9.52616 19.9769 9.57961 19.6929 9.3658C18.1366 8.18989 16.3969 7.47721 14.4264 7.4297C13.2193 7.4 12.1009 7.68508 11.2015 8.54623C10.166 9.54397 10.2488 10.9753 11.3731 11.8839C12.3199 12.6501 13.4619 12.9826 14.598 13.3271C16.3496 13.8557 18.1248 14.3011 19.7875 15.0969C23.1545 16.7064 24.9652 19.2839 24.8824 23.1086C24.8291 25.4188 24.4622 27.646 23.2137 29.6355C21.7462 31.9695 19.5213 33.2761 16.9709 34.0422C12.3376 35.4319 7.8227 34.8677 3.43796 32.9732C2.361 32.51 1.34322 31.9339 0.360945 31.2984C0.100582 31.1321 0.0236571 31.0074 0.19526 30.6986C1.3373 28.6496 2.45568 26.5948 3.56222 24.528C3.74566 24.1895 3.84625 24.2132 4.11845 24.433C5.80489 25.8286 7.63926 26.957 9.82275 27.3846C11.2725 27.6697 12.7045 27.6757 14.0655 26.9749C14.7223 26.6363 15.2371 26.1493 15.5271 25.4604C16.0419 24.2607 15.7342 23.0848 14.6868 22.2771C13.598 21.4338 12.3021 21.0656 11.0062 20.7033C9.3967 20.246 7.78719 19.8006 6.23685 19.1532C3.39062 17.9654 1.72193 15.9106 1.43198 12.7807C1.18345 10.0904 1.54441 7.53066 3.02374 5.2204C4.72793 2.54193 7.25463 1.09282 10.3257 0.504858C11.2192 0.332628 12.1246 0.255421 13.0359 0.267299Z" fill="#D72622"/>
<path d="M32.0837 21.125C32.0837 17.0568 32.0777 12.9886 32.0955 8.92043C32.0955 8.49876 32.0186 8.35623 31.5629 8.36216C29.4859 8.39186 27.403 8.36216 25.3261 8.38592C24.9237 8.38592 24.8349 8.27308 24.8408 7.88705C24.8586 5.78465 24.8586 3.67632 24.8408 1.57392C24.8408 1.18789 24.9592 1.12256 25.3142 1.12256C32.7405 1.13444 40.1667 1.13444 47.593 1.12256C47.9894 1.12256 48.0841 1.22352 48.0841 1.61549C48.0604 3.68226 48.0604 5.75496 48.0841 7.82172C48.0841 8.24339 47.9953 8.39186 47.5397 8.38592C45.4982 8.36216 43.4508 8.38592 41.4094 8.36216C40.9537 8.36216 40.8295 8.46313 40.8295 8.93231C40.8472 17.0331 40.8413 25.1338 40.8413 33.2346C40.8413 34.0363 40.9241 33.9354 40.149 33.9354C37.6341 33.9354 35.1192 33.9235 32.5985 33.9473C32.1843 33.9473 32.0777 33.8404 32.0837 33.4246C32.1014 29.3208 32.0955 25.217 32.0955 21.1131L32.0837 21.125Z" fill="#D72622"/>
<path d="M5.79529e-05 43.8594C0.633212 43.8594 1.28412 43.6813 1.72792 43.9069C2.18355 44.1386 2.17763 44.875 2.36107 45.3917C3.25459 47.9098 4.13035 50.4339 5.01203 52.952C5.04754 53.047 5.08304 53.1361 5.15997 53.3321C6.55646 49.8637 7.91744 46.4904 9.32577 42.9805C10.7282 46.4666 12.0951 49.8519 13.462 53.249C13.6632 53.1242 13.6632 52.9045 13.7283 52.7204C14.7165 49.9053 15.7046 47.0843 16.6751 44.2633C16.7816 43.9545 16.9059 43.8119 17.255 43.8416C17.7047 43.8773 18.1544 43.8535 18.6574 43.8535C16.9473 48.5572 15.2608 53.2074 13.5212 58.0061C12.1069 54.4783 10.7459 51.0753 9.32577 47.5416C7.91744 51.0575 6.55054 54.4605 5.13038 58.0061C3.3966 53.2252 1.70425 48.569 -0.00585938 43.8654L5.79529e-05 43.8594Z" fill="black"/>
<path d="M96.825 57.8873C93.4107 54.3061 90.1148 50.8437 86.7241 47.2863V47.9158C86.7241 50.8081 86.7242 53.7004 86.7301 56.5926C86.7301 56.9668 86.6886 57.139 86.2389 57.1271C85.0259 57.0915 85.0259 57.1212 85.0259 55.9097V43.123C88.4106 46.6864 91.7125 50.1548 95.109 53.7241C95.109 53.439 95.109 53.2609 95.109 53.0827C95.109 50.1726 95.1208 47.2625 95.0972 44.3584C95.0972 43.9307 95.2214 43.812 95.6179 43.8535C95.9966 43.8951 96.5055 43.7348 96.7304 43.9307C96.9907 44.1564 96.8132 44.685 96.8132 45.077C96.8191 49.1095 96.8132 53.1362 96.8132 57.1687V57.8992L96.825 57.8873Z" fill="black"/>
<path d="M158.573 47.7316C158.229 47.304 157.904 46.8705 157.496 46.5141C155.939 45.1719 154.176 44.8393 152.282 45.6114C150.342 46.4072 149.217 47.9157 149.01 50.0003C148.732 52.8094 150.732 55.28 153.513 55.7017C155.72 56.0343 158.075 54.4426 158.478 52.3759C158.549 52.0136 158.478 51.9245 158.111 51.9305C157.099 51.9483 156.087 51.9305 155.069 51.9423C154.75 51.9483 154.655 51.8592 154.655 51.5325C154.649 50.321 154.632 50.321 155.839 50.321C157.182 50.321 158.531 50.3329 159.874 50.3151C160.2 50.3151 160.312 50.3744 160.312 50.7367C160.354 54.3417 158.283 56.8182 154.797 57.2934C151.626 57.7269 148.383 55.5176 147.513 52.3284C146.643 49.1391 148.14 45.843 151.129 44.3583C154.075 42.8913 157.578 43.7109 159.59 46.3241C159.762 46.5498 159.732 46.6566 159.537 46.8229C159.206 47.108 158.898 47.4168 158.567 47.7316H158.573Z" fill="black"/>
<path d="M51.1138 49.9526C52.9896 48.1174 54.8713 46.312 56.7057 44.459C57.1376 44.0255 57.5341 43.782 58.1436 43.8473C58.5874 43.8948 59.043 43.8592 59.6288 43.8592C58.8832 44.6016 58.2146 45.2727 57.5459 45.9438C56.2678 47.2147 54.9956 48.4857 53.6997 49.7447C53.457 49.9823 53.4571 50.1129 53.6878 50.3683C55.6346 52.4945 57.5637 54.6444 59.4986 56.7824C59.5756 56.8655 59.6525 56.9546 59.8004 57.1209C59.0134 57.1209 58.3211 57.1209 57.6347 57.1209C57.398 57.1209 57.3151 56.9309 57.1909 56.7943C55.6287 55.0482 54.0665 53.3022 52.5221 51.5383C52.2795 51.2651 52.173 51.2829 51.889 51.5145C51.2617 52.0253 51.0487 52.6251 51.102 53.4269C51.173 54.5256 51.1079 55.6362 51.1256 56.7408C51.1256 57.0318 51.0605 57.1209 50.7528 57.1269C49.4037 57.1447 49.4037 57.1566 49.4037 55.8322C49.4037 52.0134 49.4096 48.1887 49.3918 44.3699C49.3918 43.9602 49.4924 43.8057 49.9067 43.8592C50.3031 43.9126 50.8298 43.6929 51.0605 43.9542C51.2558 44.174 51.1138 44.6907 51.1138 45.0767C51.1138 46.7218 51.1138 48.3609 51.1138 49.9645V49.9526Z" fill="black"/>
<path d="M176.544 50.4516C176.544 48.4027 176.555 46.3537 176.532 44.2989C176.532 43.9306 176.621 43.8356 176.987 43.8416C179.011 43.8594 181.041 43.8594 183.065 43.8416C183.42 43.8416 183.491 43.9485 183.485 44.281C183.479 45.451 183.485 45.451 182.331 45.451C181.088 45.451 179.851 45.4629 178.609 45.4451C178.277 45.4451 178.2 45.5401 178.206 45.8608C178.224 46.8051 178.224 47.7553 178.206 48.6996C178.2 49.0144 178.313 49.0738 178.597 49.0738C180.029 49.0619 181.461 49.0797 182.893 49.0619C183.26 49.0619 183.366 49.1569 183.36 49.5311C183.349 50.6833 183.36 50.6833 182.23 50.6833C181.023 50.6833 179.822 50.6951 178.615 50.6773C178.295 50.6773 178.2 50.7427 178.206 51.0812C178.23 52.4293 178.224 53.7775 178.206 55.1316C178.206 55.4582 178.295 55.5413 178.621 55.5354C180.106 55.5176 181.591 55.5354 183.07 55.5235C183.378 55.5235 183.485 55.577 183.485 55.9155C183.485 57.1211 183.502 57.1211 182.319 57.1211C180.538 57.1211 178.757 57.1092 176.976 57.133C176.597 57.133 176.526 57.0261 176.526 56.6697C176.544 54.603 176.532 52.5362 176.532 50.4695L176.544 50.4516Z" fill="black"/>
<path d="M190.438 57.3173C188.432 57.3173 186.852 56.0701 186.355 54.1281C186.284 53.849 186.319 53.7005 186.609 53.647C186.627 53.647 186.645 53.647 186.662 53.6352C187.029 53.5342 187.42 53.2966 187.763 53.356C188.171 53.4273 188.047 53.9796 188.213 54.2944C188.816 55.4465 189.976 55.987 191.195 55.6128C192.39 55.2506 193.106 54.1162 192.923 52.9047C192.84 52.3702 192.556 51.9663 192.13 51.6575C191.55 51.2299 190.893 50.9448 190.23 50.6775C189.633 50.44 189.059 50.149 188.514 49.7986C187.437 49.1097 186.881 48.1297 186.97 46.8469C187.065 45.4572 187.828 44.507 189.077 43.9606C190.923 43.1529 192.982 43.8002 194.035 45.4631C194.207 45.7363 194.195 45.8729 193.911 46.0273C193.591 46.2055 193.307 46.5381 192.976 46.5797C192.591 46.6272 192.544 46.0927 192.29 45.8551C191.621 45.2315 190.858 45.0771 190.011 45.3265C189.313 45.5344 188.852 46.0095 188.692 46.7459C188.568 47.3339 188.745 47.8031 189.189 48.201C189.787 48.7355 190.532 48.9968 191.242 49.3235C191.704 49.5313 192.159 49.7451 192.603 49.9827C193.929 50.6894 194.704 51.7644 194.633 53.3144C194.556 54.9536 193.769 56.1592 192.302 56.9016C191.716 57.1985 191.088 57.3351 190.432 57.3114L190.438 57.3173Z" fill="black"/>
<path d="M204.189 46.6921C203.775 45.9735 203.278 45.3915 202.414 45.2549C201.242 45.0708 200.207 45.7359 200.006 46.8168C199.905 47.3632 200.071 47.8086 200.479 48.1828C201.071 48.7292 201.805 49.0083 202.526 49.3171C203.041 49.5369 203.532 49.7863 204.029 50.0476C206.657 51.4314 206.349 54.585 204.745 56.1469C202.396 58.4334 198.491 57.3169 197.674 54.1396C197.603 53.8545 197.651 53.712 197.941 53.6644C197.994 53.6585 198.041 53.6466 198.094 53.6348C198.443 53.5338 198.834 53.2962 199.142 53.3734C199.455 53.4506 199.372 53.9673 199.52 54.2762C200.059 55.4164 201.207 55.9747 202.426 55.6599C203.615 55.3511 204.349 54.3177 204.26 53.0824C204.213 52.4351 203.87 51.9778 203.361 51.6214C202.816 51.2413 202.213 50.9682 201.597 50.7187C200.982 50.4693 200.39 50.1783 199.828 49.8219C198.751 49.1271 198.207 48.1531 198.296 46.8643C198.384 45.5102 199.13 44.5897 200.313 44.0196C202.13 43.1525 204.225 43.7761 205.331 45.4568C205.509 45.724 205.55 45.8903 205.231 46.0626C204.882 46.2526 204.55 46.4842 204.195 46.704L204.189 46.6921Z" fill="black"/>
<path d="M110.695 33.4308C106.583 22.8237 102.476 12.2108 98.3815 1.59192C98.2514 1.2534 98.1034 1.1168 97.7188 1.12274C94.8726 1.14056 92.0204 1.14056 89.1742 1.12274C88.7659 1.12274 88.5765 1.22965 88.4227 1.62162C84.9551 10.441 81.4757 19.2485 78.0023 28.0619C77.4815 29.3744 76.9608 30.6869 76.4164 32.0648C73.369 28.1926 70.363 24.3738 67.3333 20.5254C67.5404 20.4719 67.7061 20.4244 67.8659 20.3888C70.4754 19.7474 72.434 18.2745 73.6234 15.8395C74.7714 13.4936 74.9016 11.0289 74.3513 8.51082C73.7891 5.93331 72.3335 4.00314 70.0375 2.72627C68.1026 1.65131 65.9842 1.19401 63.8007 1.16432C59.3094 1.11087 54.8182 1.14056 50.3269 1.12274C49.9482 1.12274 49.8772 1.24152 49.8772 1.59786C49.889 12.2227 49.889 22.8475 49.8772 33.4783C49.8772 33.8346 49.9541 33.9593 50.3328 33.9534C52.9365 33.9356 55.5401 33.9356 58.1437 33.9534C58.552 33.9534 58.6289 33.8346 58.6289 33.4486C58.6171 29.713 58.623 25.9773 58.623 22.2417V21.2559C58.7709 21.4518 58.8301 21.5172 58.8775 21.5884C61.4811 25.5676 64.0906 29.5467 66.6883 33.5377C66.8658 33.8108 67.0434 33.9474 67.3925 33.9474C73.1264 33.9356 78.8544 33.9356 84.5882 33.9474C84.9019 33.9474 85.038 33.8465 85.1563 33.5555C85.8131 31.8985 86.5055 30.2534 87.1623 28.5964C87.2806 28.3054 87.4286 28.2104 87.7363 28.2104C91.4583 28.2223 95.1803 28.2223 98.9023 28.2104C99.2455 28.2104 99.3875 28.3351 99.4999 28.638C100.109 30.2593 100.748 31.8688 101.346 33.4901C101.476 33.8465 101.654 33.9534 102.021 33.9474C104.796 33.9296 107.577 33.9296 110.352 33.9474C110.832 33.9474 110.849 33.8287 110.695 33.4248V33.4308ZM62.4929 15.5188C61.3331 15.8158 60.1438 15.8336 58.9544 15.8514C58.5934 15.8573 58.623 15.6495 58.623 15.4119C58.623 14.1825 58.623 12.9591 58.623 11.7297C58.623 10.5004 58.6408 9.34228 58.6112 8.15449C58.5993 7.7447 58.7295 7.66155 59.1141 7.66749C60.2325 7.68531 61.3509 7.72094 62.4397 7.98819C64.4634 8.48113 65.5108 9.76395 65.5226 11.7357C65.5285 13.7134 64.4989 15.0081 62.487 15.5188H62.4929ZM96.5057 21.7132C94.3755 21.7013 92.2512 21.7072 90.1209 21.7132C89.8783 21.7132 89.7186 21.725 89.8428 21.3806C91.0026 18.0726 92.1506 14.7527 93.2985 11.4387C93.3104 11.409 93.3341 11.3793 93.3991 11.2903C94.05 13.1789 94.6714 14.9902 95.2927 16.8016C95.8016 18.2864 96.2927 19.783 96.8194 21.2618C96.9495 21.6241 96.8785 21.7132 96.5057 21.7132Z" fill="#D72622"/>
<path d="M137.661 23.0968C137.258 20.0679 135.803 17.8586 132.809 16.8549C132.223 16.6589 131.607 16.5461 130.986 16.4392C131.063 16.2313 131.235 16.2075 131.359 16.1303C132.921 15.2157 133.897 13.8735 134.323 12.1097C134.643 10.7793 134.672 9.43712 134.507 8.08897C134.122 5.01258 132.536 2.88049 129.572 1.85305C128.24 1.38981 126.856 1.17007 125.459 1.15819C121.145 1.12256 116.826 1.14038 112.512 1.12256C112.11 1.12256 112.074 1.27103 112.074 1.60955C112.08 12.2166 112.086 22.8236 112.074 33.4365C112.074 33.8463 112.175 33.9591 112.589 33.9591C117.063 33.9413 121.536 33.977 126.01 33.9413C128.234 33.9235 130.424 33.6028 132.501 32.7179C134.886 31.7023 136.643 30.0869 137.4 27.5272C137.832 26.0781 137.862 24.5934 137.667 23.1027L137.661 23.0968ZM121.181 7.6673C122.264 7.68512 123.347 7.67918 124.394 7.97613C125.797 8.3681 126.513 9.30646 126.542 10.7674C126.572 12.2344 125.891 13.1965 124.524 13.6657C123.406 14.0458 122.258 13.9804 121.104 13.9923C120.82 13.9923 120.861 13.8082 120.861 13.6419C120.861 12.7154 120.861 11.789 120.861 10.8565C120.861 9.93005 120.861 9.00357 120.861 8.07116C120.861 7.84547 120.85 7.6673 121.175 7.6673H121.181ZM128.755 24.9378C128.447 26.0959 127.542 26.6601 126.483 26.9808C124.731 27.5094 122.921 27.3788 121.128 27.3906C120.814 27.3906 120.879 27.1649 120.873 26.9868C120.873 25.9356 120.873 24.8844 120.873 23.8332C120.873 22.782 120.873 21.8021 120.873 20.7806C120.873 20.6083 120.79 20.3826 121.122 20.3886C122.779 20.4064 124.441 20.2579 126.081 20.6024C128.767 21.1606 129.205 23.2274 128.749 24.9378H128.755Z" fill="#D72622"/>
<path d="M172.887 33.3833C168.786 22.7703 164.679 12.1633 160.59 1.55038C160.46 1.20592 160.283 1.12277 159.94 1.12871C158.508 1.14653 157.076 1.13465 155.644 1.13465C154.212 1.13465 152.744 1.14653 151.294 1.12871C150.963 1.12871 150.803 1.22967 150.685 1.5385C146.495 12.1693 142.3 22.8 138.093 33.4308C137.897 33.9178 138.045 33.9593 138.489 33.9593C141.229 33.9415 143.975 33.9415 146.714 33.9593C147.123 33.9593 147.282 33.8109 147.424 33.4545C148.058 31.8451 148.732 30.2475 149.365 28.644C149.484 28.3411 149.632 28.2164 149.969 28.2164C153.691 28.2282 157.413 28.2282 161.129 28.2164C161.478 28.2164 161.602 28.3589 161.715 28.6558C162.312 30.2594 162.946 31.851 163.543 33.4605C163.679 33.8287 163.851 33.9593 164.247 33.9593C166.987 33.9415 169.733 33.9475 172.472 33.9475C173.094 33.9475 173.094 33.9475 172.881 33.3833H172.887ZM158.797 21.7132C156.649 21.7013 154.502 21.7072 152.354 21.7132C152.093 21.7132 151.951 21.6776 152.064 21.3628C153.223 18.0488 154.377 14.7349 155.531 11.415C155.531 11.4031 155.555 11.3972 155.638 11.3378C156.365 13.4758 157.087 15.5664 157.803 17.6628C158.224 18.8862 158.632 20.1097 159.064 21.3272C159.17 21.63 159.129 21.7132 158.797 21.7132Z" fill="#D72622"/>
<path d="M26.776 43.6396C22.9889 43.6396 19.9001 46.716 19.906 50.4932C19.906 54.2704 22.9534 57.3171 26.7346 57.3171C30.5631 57.3171 33.6342 54.2882 33.6401 50.511C33.6401 46.7339 30.5572 43.6396 26.776 43.6396ZM26.7583 55.7433C23.9594 55.7433 21.5688 53.3083 21.5865 50.4754C21.6043 47.6069 23.9594 45.2135 26.7642 45.2194C29.6164 45.2254 31.9951 47.6425 31.9655 50.5051C31.9359 53.3736 29.5749 55.7433 26.7583 55.7373V55.7433Z" fill="black"/>
<path d="M74.588 43.6396C70.7891 43.6396 67.718 46.6982 67.718 50.4873C67.718 54.2585 70.7418 57.3171 74.4756 57.3171C78.3574 57.3171 81.4166 54.3357 81.4521 50.517C81.4876 46.7754 78.3633 43.6396 74.588 43.6396ZM74.5407 55.7433C71.73 55.7255 69.3867 53.3202 69.3926 50.4576C69.3985 47.595 71.7714 45.1957 74.5762 45.2194C77.4579 45.2432 79.7539 47.6009 79.7361 50.5229C79.7243 53.3914 77.3633 55.7551 74.5407 55.7373V55.7433Z" fill="black"/>
<path d="M138.004 43.6396C134.223 43.6396 131.146 46.722 131.146 50.5051C131.146 54.2763 134.199 57.3171 137.986 57.3171C141.814 57.3171 144.88 54.2823 144.88 50.4992C144.88 46.722 141.791 43.6396 138.004 43.6396ZM137.962 55.7433C135.163 55.7195 132.791 53.2727 132.826 50.4398C132.856 47.5712 135.24 45.1838 138.039 45.2194C140.885 45.255 143.217 47.6306 143.205 50.4873C143.193 53.3677 140.803 55.7611 137.968 55.7373L137.962 55.7433Z" fill="black"/>
<path d="M125.3 51.2651C127.317 50.885 128.424 49.5606 128.442 47.6007C128.453 45.6646 127.465 44.465 125.501 44.0433C124.069 43.7345 122.613 43.9008 121.169 43.8414C120.761 43.8236 120.69 43.9602 120.69 44.3402C120.702 48.1946 120.696 52.049 120.696 55.9034C120.696 57.115 120.696 57.0912 121.915 57.1209C122.341 57.1328 122.388 56.9843 122.382 56.6161C122.365 55.0245 122.37 53.4269 122.382 51.8352C122.382 51.6986 122.282 51.5145 122.489 51.4195C122.814 51.271 123.471 51.4551 123.684 51.764C124.832 53.4328 125.974 55.1076 127.128 56.7764C127.229 56.9249 127.282 57.1209 127.542 57.115C128.146 57.0972 128.743 57.115 129.43 57.115C128.033 55.1373 126.684 53.2309 125.3 51.271V51.2651ZM122.589 49.8635C122.341 49.8694 122.376 49.6913 122.376 49.5368C122.376 48.9073 122.376 48.2718 122.376 47.6423C122.376 47.0306 122.376 46.4129 122.376 45.8012C122.376 45.6349 122.329 45.433 122.613 45.439C123.518 45.4568 124.43 45.3677 125.317 45.629C126.27 45.9141 126.708 46.4902 126.743 47.5176C126.779 48.5866 126.353 49.2874 125.442 49.62C124.513 49.9645 123.542 49.8338 122.589 49.8575V49.8635Z" fill="black"/>
<path d="M41.8297 51.2591C43.7706 50.9206 44.9363 49.5843 44.9659 47.7492C44.9955 45.6884 44.0487 44.4768 42.0723 44.0551C40.6226 43.7463 39.1492 43.9126 37.6876 43.8473C37.2793 43.8295 37.2142 43.9601 37.2142 44.3402C37.226 48.1768 37.2142 52.0134 37.226 55.8499C37.226 56.2597 37.0367 56.8121 37.3148 57.0496C37.5456 57.2515 38.084 57.0793 38.4746 57.1209C38.8533 57.1565 38.9302 57.014 38.9243 56.6576C38.9066 55.0482 38.9125 53.4328 38.9243 51.8233C38.9243 51.6867 38.8296 51.5086 39.0545 51.4195C39.4154 51.2829 40.0131 51.461 40.238 51.7877C41.3859 53.4565 42.528 55.1313 43.6818 56.8002C43.7765 56.9368 43.8179 57.1209 44.0487 57.1149C44.6641 57.1031 45.2795 57.1149 45.9659 57.1149C44.5635 55.1254 43.2144 53.219 41.8356 51.2651L41.8297 51.2591ZM39.1018 49.8635C38.8474 49.8635 38.9184 49.6556 38.9184 49.5131C38.9184 48.9014 38.9184 48.2896 38.9184 47.672C38.9184 47.0424 38.9184 46.4129 38.9184 45.7834C38.9184 45.5933 38.9184 45.4389 39.1847 45.4449C40.09 45.4627 41.0013 45.3736 41.8889 45.6468C42.8238 45.9319 43.244 46.5079 43.2913 47.5591C43.3327 48.5272 42.9244 49.228 42.1019 49.5784C41.1374 49.9941 40.1137 49.8397 39.1077 49.8635H39.1018Z" fill="black"/>
<path d="M168.952 51.2711C171.04 50.8197 172.076 49.5488 172.07 47.5236C172.064 45.5756 171.082 44.4234 169.023 44.0137C167.644 43.7345 166.236 43.8949 164.845 43.8414C164.425 43.8236 164.336 43.9543 164.342 44.3581C164.36 48.1947 164.354 52.0372 164.354 55.8738C164.354 57.121 164.354 57.1091 165.585 57.121C165.952 57.121 166.04 57.02 166.034 56.6577C166.011 55.0661 166.023 53.4685 166.034 51.8709C166.034 51.7165 165.928 51.5086 166.165 51.4136C166.514 51.2711 167.129 51.4611 167.348 51.7818C168.484 53.4388 169.62 55.0958 170.762 56.7527C170.857 56.8893 170.898 57.1031 171.111 57.1031C171.745 57.1091 172.372 57.1031 173.076 57.1031C171.668 55.1136 170.33 53.2191 168.958 51.2711H168.952ZM166.224 49.8635C165.969 49.8635 166.028 49.6676 166.028 49.5191C166.028 48.9074 166.028 48.2897 166.028 47.678C166.028 47.0485 166.028 46.413 166.028 45.7835C166.028 45.5994 166.017 45.4331 166.289 45.439C167.194 45.4568 168.105 45.3677 168.993 45.635C169.91 45.9082 170.33 46.4605 170.384 47.4345C170.443 48.5629 170.076 49.2221 169.177 49.5903C168.224 49.9823 167.218 49.8398 166.224 49.8576V49.8635Z" fill="black"/>
<path d="M113.808 43.9485C112.411 43.7941 111.015 43.8951 109.624 43.8476C109.275 43.8357 109.192 43.9426 109.198 44.2811C109.216 46.3479 109.204 48.4146 109.204 50.4873C109.204 52.275 109.198 54.0626 109.204 55.8502C109.204 56.26 109.015 56.8064 109.293 57.044C109.53 57.2459 110.062 57.0855 110.459 57.1212C110.808 57.1568 110.891 57.0261 110.885 56.6876C110.867 55.09 110.891 53.4984 110.867 51.9008C110.861 51.491 110.985 51.4138 111.364 51.4197C112.234 51.4376 113.109 51.4732 113.973 51.3307C115.92 51.0159 117.151 49.5252 117.116 47.506C117.08 45.5877 115.743 44.1623 113.808 43.9485ZM114.151 49.5787C113.157 49.935 112.115 49.8103 111.092 49.834C110.843 49.834 110.873 49.6559 110.873 49.5074C110.873 48.8779 110.873 48.2483 110.873 47.6188C110.873 46.9893 110.873 46.3954 110.873 45.7777C110.873 45.5877 110.885 45.4392 111.145 45.4451C112.104 45.463 113.068 45.3917 114.003 45.6411C114.932 45.8906 115.376 46.4726 115.417 47.4644C115.459 48.5453 115.039 49.258 114.145 49.5787H114.151Z" fill="black"/>
</g>
<defs>
<clipPath id="clip0_89_1085">
<rect width="208" height="58" fill="white"/>
</clipPath>
</defs>
</svg>
