<?xml version="1.0" encoding="UTF-8"?>
<svg id="Layer_2" data-name="Layer 2" xmlns="http://www.w3.org/2000/svg" viewBox="0 0 1000 333.15">
  <defs>
    <style>
      .cls-1 {
        stroke-width: 0px;
      }
    </style>
  </defs>
  <g id="SVG">
    <g>
      <path class="cls-1" d="M271.25,129.92s36.69,8.31,80.19,19.02v125.47c9.72-2.44,19.43-4.93,29.11-7.49v-110.69c29.6,7.54,59.32,15.57,80.68,22.39v-29.18c-64.6-19.88-150.46-39.95-189.98-48.9v29.37Z"/>
      <path class="cls-1" d="M105.1,99.35c55.58,8.12,110.21,17.6,141.77,25.3v-29.32c-47.44-10.2-124.42-23.44-189.61-31.85,20.91,34.37,32.99,74.7,33.08,117.85.02.27.04.53.05.8h-.05c-.01,9.39-.6,18.64-1.71,27.72h142.54v63.26c-71.86,14.5-131.19,23.46-175.09,28.96-6.76,10.88-14.42,21.14-22.86,30.69,47.7-5.26,121.35-15.48,216.21-35.08l11.06-2.28v-113.27H119.48c-1.5-36.2-7.94-63.73-14.39-82.79Z"/>
      <path class="cls-1" d="M537.93,244.5c9.65,2.86,19.36,5.67,29.11,8.43v-36.14h159.91v-116.01s-86.53,18.39-189.02,48.57v95.15ZM567.04,168.11c1.6-.53,3.19-1.02,4.72-1.44,39.73-10.89,84.12-21.27,126.08-30.83v54.61h-130.8v-22.34Z"/>
      <path class="cls-1" d="M944.05,302.47c-41.29-5.16-96.32-13.41-162.68-26.47v-59.2h130.84c-1.4-9.07-2.25-18.33-2.54-27.72h-128.3v-71.13c57.5-10.55,106.7-18.42,145.81-24.14,4.38-10.46,9.51-20.52,15.34-30.12-87.98,10.94-151.91,24.17-191.1,31.98v202.6l11.12,2.25c89.28,18.04,158.82,27.62,204.47,32.65-8.48-9.55-16.16-19.81-22.95-30.69Z"/>
      <path class="cls-1" d="M1000,0c-140.98,15.26-341.04,57.9-500.4,110.91C340.51,57.99,140.9,15.42,0,.09c13.45,10.2,25.72,21.86,36.6,34.74,138.77,15.39,301.71,50.07,449.02,95.69l.12.04v105.49c4.81-1.65,9.55-3.31,14.21-4.98,4.44,1.58,8.94,3.16,13.51,4.74v-105.25l.13-.04c147.52-45.69,310.79-80.42,449.77-95.77,10.89-12.88,23.18-24.54,36.64-34.74Z"/>
    </g>
  </g>
</svg>