<?xml version="1.0" encoding="UTF-8"?>
<svg id="Layer_2" data-name="Layer 2" xmlns="http://www.w3.org/2000/svg" viewBox="0 0 384.94 169.37">
  <defs>
    <style>
      .cls-1 {
        stroke-width: 0px;
      }
    </style>
  </defs>
  <g id="SVG">
    <g>
      <path class="cls-1" d="M325.32,73.67c-7.53,0-13.42,6.17-13.42,14.59s5.89,14.6,13.74,14.6c5.22,0,8.87-2.69,10.83-5.7l-1.59-1.04c-.59-.39-1.38-.26-1.85.28-1.49,1.73-3.78,3.54-7.39,3.54-5.96,0-10.08-4.14-10.8-10.37h23.24l.13-.64c.07-.46.19-.91.19-1.62,0-7.78-5.95-13.62-13.09-13.62h0ZM314.85,86.63c1.04-5.9,5.24-10.05,10.47-10.05s9.42,4.14,10.15,10.05h-20.62Z"/>
      <path class="cls-1" d="M338.62,114.74c-7.53,0-13.42,6.17-13.42,14.59s5.89,14.6,13.74,14.6c5.22,0,8.87-2.69,10.83-5.7l-1.59-1.04c-.59-.39-1.38-.26-1.85.28-1.49,1.73-3.78,3.54-7.39,3.54-5.95,0-10.08-4.14-10.8-10.37h23.24l.13-.64c.07-.46.2-.91.2-1.62,0-7.78-5.96-13.62-13.09-13.62h0ZM328.14,127.71c1.05-5.9,5.24-10.05,10.47-10.05s9.42,4.14,10.15,10.05h-20.62Z"/>
      <path class="cls-1" d="M219.59,30.86c-7.53,0-13.42,6.17-13.42,14.59s5.89,14.6,13.74,14.6c5.22,0,8.87-2.69,10.83-5.7l-1.59-1.04c-.59-.39-1.38-.26-1.85.28-1.49,1.73-3.78,3.54-7.39,3.54-5.95,0-10.08-4.14-10.8-10.37h23.24l.13-.64c.07-.46.2-.91.2-1.62,0-7.78-5.95-13.62-13.09-13.62h0ZM209.12,43.83c1.04-5.9,5.24-10.05,10.47-10.05s9.42,4.14,10.15,10.05h-20.62Z"/>
      <path class="cls-1" d="M260.23,30.86c-7.53,0-13.42,6.17-13.42,14.59s5.89,14.6,13.74,14.6c5.22,0,8.87-2.69,10.83-5.7l-1.59-1.04c-.59-.39-1.38-.26-1.85.28-1.49,1.73-3.78,3.54-7.39,3.54-5.95,0-10.08-4.14-10.8-10.37h23.24l.13-.64c.07-.46.2-.91.2-1.62,0-7.78-5.95-13.62-13.09-13.62h0ZM249.76,43.83c1.05-5.9,5.24-10.05,10.47-10.05s9.42,4.14,10.15,10.05h-20.62Z"/>
      <path class="cls-1" d="M223.08,114.86c-7.53,0-13.42,6.17-13.42,14.59s5.89,14.6,13.74,14.6c5.22,0,8.87-2.69,10.83-5.7l-1.59-1.04c-.59-.39-1.38-.26-1.85.28-1.49,1.73-3.78,3.54-7.39,3.54-5.95,0-10.08-4.14-10.8-10.37h23.24l.13-.64c.07-.46.2-.91.2-1.62,0-7.78-5.95-13.62-13.09-13.62h0ZM212.61,127.83c1.04-5.9,5.24-10.05,10.47-10.05s9.42,4.14,10.15,10.05h-20.62Z"/>
      <path class="cls-1" d="M274.4,65.61c1.31,0,2.29.98,2.29,2.26s-1.03,2.27-2.29,2.27-2.29-.98-2.29-2.26,1.03-2.27,2.29-2.27ZM272.76,74.07h1.55c.77,0,1.4.62,1.4,1.39v27.46h-2.95v-28.85Z"/>
      <path class="cls-1" d="M290.6,106.63c1.31,0,2.29.98,2.29,2.26s-1.03,2.27-2.29,2.27-2.29-.98-2.29-2.26,1.03-2.27,2.29-2.27ZM288.96,115.08h1.55c.77,0,1.4.62,1.4,1.39v27.46h-2.95v-28.85Z"/>
      <path class="cls-1" d="M238.53,22.59h1.55c.77,0,1.4.62,1.4,1.39v35.99h-2.95V22.59Z"/>
      <path class="cls-1" d="M279.18,22.66h1.55c.77,0,1.4.62,1.4,1.39v36.01h-2.95V22.66Z"/>
      <path class="cls-1" d="M291.28,22.74c1.31,0,2.29.98,2.29,2.26s-1.03,2.27-2.29,2.27-2.29-.98-2.29-2.26,1.03-2.27,2.29-2.27ZM289.64,31.2h1.55c.77,0,1.4.62,1.4,1.39v27.46h-2.95v-28.85Z"/>
      <path class="cls-1" d="M241.51,115.4h1.52c.77,0,1.38.61,1.4,1.37l.03,2.85h.33c.53-.84,1.24-1.56,2.1-2.27,1.5-1.1,3.73-2.27,7.07-2.27h1.31v2.92h-1.64c-5.56,0-9.16,3.5-9.16,9.41v16.53h-2.95v-28.53h0Z"/>
      <path class="cls-1" d="M257.8,115.4h2.33c.57,0,1.08.34,1.29.87l9.46,23.45,9.46-23.45c.21-.52.72-.87,1.29-.87h2.33l-11.78,28.53h-2.62l-11.78-28.53Z"/>
      <path class="cls-1" d="M300.44,31.22h1.55c.77,0,1.39.62,1.4,1.38v2.84h.33c.53-.84,1.24-1.56,2.1-2.27,1.5-1.1,3.73-2.27,7.07-2.27,6.55,0,11.46,4.93,11.46,12v17.16h-2.95v-17.16c0-5.44-4.32-9.45-9.56-9.05-4.83.37-8.44,4.57-8.44,9.36v16.85h-2.95v-28.83Z"/>
      <path class="cls-1" d="M331.2,22.98h1.55c.77,0,1.4.62,1.4,1.39v20.77l13.09-13.62h3.93l-13.09,13.62,14.41,14.92h-3.93l-14.4-14.92v14.92h-2.95V22.98Z"/>
      <path class="cls-1" d="M309.75,141.01c-5.56,0-10.47-4.92-10.47-11.67s4.91-11.67,10.47-11.67c4.1,0,7.07,2.52,8.62,5.79.32.67,1.1.99,1.8.71l1.62-.65c-1.87-5.22-5.96-8.76-12.03-8.76-7.53,0-13.42,6.17-13.42,14.59s5.89,14.59,13.42,14.59c6.05,0,10.15-3.55,12.02-8.75l-1.58-.66c-.7-.29-1.49.03-1.81.71-1.55,3.26-4.53,5.79-8.62,5.79h-.02Z"/>
      <path class="cls-1" d="M217.39,73.98h1.55c.77,0,1.4.62,1.4,1.39v15.47c0,5.44,4.32,9.46,9.56,9.05,4.83-.37,8.44-4.57,8.44-9.36v-16.55h1.55c.77,0,1.4.62,1.4,1.39v27.46h-1.94l-1.01-4.54h-.33c-.59.84-1.31,1.62-2.16,2.27-1.5,1.23-3.67,2.27-7.01,2.27-6.55,0-11.46-4.93-11.46-12v-16.86Z"/>
      <path class="cls-1" d="M283.56,74.31h1.55c.77,0,1.39.62,1.4,1.38v2.84h.33c.53-.84,1.24-1.56,2.1-2.27,1.5-1.1,3.73-2.27,7.07-2.27,6.55,0,11.46,4.93,11.46,12v16.86h-2.95v-16.86c0-5.44-4.32-9.45-9.56-9.05-4.83.37-8.44,4.57-8.44,9.36v16.55h-2.95v-28.53Z"/>
      <path class="cls-1" d="M368.24,81.45c0-2.59,2.29-4.86,6.55-4.86,3.92,0,6.15,2.27,6.87,5.19h2.96c-.33-4.21-4.26-8.1-9.83-8.1-5.96,0-9.49,3.57-9.49,7.78,0,10.37,16.7,5.06,16.7,12.97,0,2.92-2.61,5.51-6.88,5.51-3.29,0-5.34-1.1-6.5-3.05-.38-.64-1.23-.84-1.88-.47l-1.35.77c1.46,3.32,4.9,5.67,9.73,5.67,5.89,0,9.83-3.96,9.83-8.44,0-10.89-16.7-5.44-16.7-12.97Z"/>
      <path class="cls-1" d="M358.09,122.52c0-2.59,2.29-4.86,6.55-4.86,3.92,0,6.15,2.27,6.87,5.19h2.96c-.33-4.21-4.26-8.1-9.83-8.1-5.96,0-9.49,3.57-9.49,7.78,0,10.37,16.7,5.06,16.7,12.97,0,2.92-2.61,5.51-6.88,5.51-3.29,0-5.34-1.1-6.5-3.05-.38-.64-1.23-.84-1.88-.47l-1.35.77c1.46,3.32,4.9,5.67,9.73,5.67,5.89,0,9.83-3.96,9.83-8.44,0-10.89-16.7-5.44-16.7-12.97Z"/>
      <path class="cls-1" d="M344.79,81.45c0-2.59,2.29-4.86,6.55-4.86,3.92,0,6.15,2.27,6.87,5.19h2.96c-.33-4.21-4.26-8.1-9.83-8.1-5.96,0-9.49,3.57-9.49,7.78,0,10.37,16.7,5.06,16.7,12.97,0,2.92-2.62,5.51-6.88,5.51-3.29,0-5.34-1.1-6.5-3.05-.38-.64-1.23-.84-1.88-.47l-1.35.77c1.46,3.32,4.9,5.67,9.73,5.67,5.89,0,9.83-3.96,9.83-8.44,0-10.89-16.7-5.44-16.7-12.97Z"/>
      <path class="cls-1" d="M250.07,81.45c0-2.59,2.29-4.86,6.55-4.86,3.92,0,6.15,2.27,6.87,5.19h2.95c-.33-4.21-4.26-8.1-9.83-8.1-5.95,0-9.49,3.57-9.49,7.78,0,10.37,16.7,5.06,16.7,12.97,0,2.92-2.62,5.51-6.88,5.51-3.29,0-5.34-1.1-6.5-3.05-.38-.64-1.23-.84-1.88-.47l-1.35.77c1.46,3.32,4.9,5.67,9.73,5.67,5.89,0,9.83-3.96,9.83-8.44,0-10.89-16.7-5.44-16.7-12.97Z"/>
      <path class="cls-1" d="M202.58,59.54c-1.18.36-2.41.51-3.74.51-7.13,0-10.89-3.87-10.89-10.22v-12.09h-4.93v-6.87h5.03v-8.13h5.77c1.18,0,2.13.95,2.13,2.11v6.02h6.77v6.87h-6.77v11.3c0,2.2,1.75,4.01,3.97,4.12.98.04,1.86.03,2.65-.19v6.56h0Z"/>
      <path class="cls-1" d="M191.47,78.43h.11c2-2.49,4.77-3.76,8.31-3.76,3.85,0,6.98,1.42,9.4,4.27,2.41,2.84,3.65,6.11,3.65,9.76s-1.23,6.97-3.75,9.87c-2.52,2.84-5.65,4.27-9.5,4.27-3.65,0-6.42-1.27-8.31-3.76h-.11v3.75h-7.8v-36.92h5.88c1.18,0,2.13.95,2.13,2.11v10.41h0ZM193.22,93.74c1.29,1.27,2.92,1.93,4.83,1.93s3.54-.66,4.83-1.93c1.29-1.33,1.95-3,1.95-5.03s-.67-3.66-2-4.93c-1.29-1.27-2.92-1.93-4.83-1.93s-3.49.66-4.77,1.93c-1.29,1.27-1.95,2.95-1.95,4.93s.67,3.72,1.95,5.03Z"/>
      <path class="cls-1" d="M194.56,143.93c-5.86,0-9.95-2.23-12.2-6.71l4.11-2.53c.98-.6,2.21-.41,3.01.44,1.22,1.28,2.94,1.94,5.18,1.94,2.04,0,3.41-.98,3.41-2.13s-.89-2.02-4.45-2.84c-6.65-1.53-9.95-4.69-9.95-9.44,0-2.67,1.04-4.91,3.14-6.6,2.15-1.74,4.66-2.62,7.59-2.62,5.19,0,8.95,2.35,10.79,5.89l-5.92,3.66c-1.04-1.85-2.72-2.78-5.08-2.78-1.68,0-2.93.98-2.93,2.13,0,1.25,1.2,2.13,3.67,2.67,7.07,1.53,10.79,4.42,10.79,9.49,0,5.62-4.24,9.44-11.16,9.44h0Z"/>
      <path class="cls-1" d="M84.26,0C37.72,0,0,37.91,0,84.68s37.72,84.68,84.26,84.68,84.26-37.91,84.26-84.68S130.79,0,84.26,0ZM82.56,37.01h.02c3.31-6.7,9.5-11.91,17.35-13.66.39-.09.78-.16,1.17-.23,4.68,6.64,6.35,15.07,1.93,23.27-.25.46-.5.9-.75,1.32-4.91,8.14-11.94,10.9-20.08,11.22-6.27.25-13.2-.95-20.32-2.25,9.15-3.99,16.38-11.06,20.68-19.68h0ZM25.25,65.49c10.09-8.44,18.15-7.37,33.3-4.25,9.06,1.87,18.77,3.73,27.57,2.49,2.85-.4,5.61-1.14,8.21-2.31-1.4,1.95-12.88,19-34.09,18.83-17.94-.14-31.47.11-41.23,14.58-4.31-9.83-2.43-22.09,6.24-29.34h0ZM43.82,110.28v-.03c-7.45.43-15.02-2.4-20.41-8.39-.27-.3-.53-.6-.78-.91,3.42-7.37,9.88-13,19.17-13.21.52-.01,1.02,0,1.52,0,9.46.26,15.33,5.04,19.64,11.98,3.32,5.35,5.71,12,8.11,18.86-7.98-6.02-17.67-8.83-27.25-8.32h0ZM97.43,145.52c-12.35-4.47-15.51-12-20.5-26.72-2.98-8.8-6.3-18.16-11.82-25.15-1.79-2.27-3.81-4.29-6.15-5.95,2.38.22,22.83,1.54,33.42,20.02,8.96,15.63,16.03,27.22,33.37,28.35-6.26,8.71-17.72,13.28-28.33,9.44h0ZM129.58,128.7c-.12.38-.25.76-.38,1.13-8.06.76-16.16-1.99-21.04-9.93-.27-.44-.53-.88-.76-1.32-4.57-8.33-3.44-15.84.34-23.09,2.92-5.59,7.4-11.02,12.07-16.57-1.13,9.96,1.36,19.78,6.65,27.83h-.02c4.14,6.25,5.54,14.24,3.13,21.95h0ZM117.67,74.14c-6.1,6.99-12.51,14.55-15.79,22.84-1.07,2.69-1.79,5.46-2.07,8.32-1-2.18-10.06-20.65.59-39.09,9-15.6,15.48-27.54,7.8-43.22,10.63,1.11,20.3,8.81,22.28,19.96,2.31,12.99-2.61,19.49-12.8,31.19h0Z"/>
    </g>
  </g>
</svg>