<svg width="229" height="57" viewBox="0 0 229 57" fill="none" xmlns="http://www.w3.org/2000/svg">
<g clip-path="url(#clip0_89_768)">
<path d="M30.0562 28.2804L41.7316 16.5864H56.9028C51.9635 6.75289 41.7986 0 30.0562 0C18.3139 0 8.14899 6.75289 3.20356 16.5864H18.3748L30.0502 28.2804H30.0562ZM0 30.1043C0 41.8655 6.7421 52.0467 16.5599 57L30.0562 43.482L3.20356 16.5864C1.15718 20.6491 0 25.2425 0 30.1043ZM56.9089 16.5864L30.0562 43.482L43.5526 57C53.3704 52.0467 60.1125 41.8655 60.1125 30.1043C60.1125 25.2425 58.9553 20.6552 56.9089 16.5864ZM90.0591 34.71L83.6094 16.5864H76.6358L86.8129 43.5735H93.1226L103.3 16.5864H96.5089L90.0591 34.71ZM107.776 43.5735H127.771V37.8638H114.025V32.5993H125.347V27.1519H114.025V22.3266H127.771V16.5803H107.776V43.5674V43.5735ZM155.781 25.6756C155.781 20.6552 151.719 16.5864 146.706 16.5864H134.251V43.5796H140.5V34.9662H143.332L149.234 43.5796H156.567L149.861 34.2037C153.29 32.947 155.781 29.5553 155.781 25.6817V25.6756ZM145.689 29.5126H140.5V22.3266H145.689C147.668 22.3266 149.276 23.9371 149.276 25.9196C149.276 27.9022 147.668 29.5126 145.689 29.5126ZM159.393 22.3266H167.651V43.5735H173.9V22.3266H182.159V16.5803H159.399V22.3266H159.393ZM217.775 16.5864L211.326 34.71L204.876 16.5864H197.902L208.079 43.5735H214.389L224.566 16.5864H217.775ZM187.25 43.5735H193.499V16.5864H187.25V43.5735ZM221.137 39.4376H224.56V40.0537H223.196V43.5491H222.501V40.0537H221.137V39.4376ZM226.734 43.5491L225.608 40.6942V43.5491H224.944V39.4376H225.736L226.984 42.5975L228.22 39.4376H228.994V43.5491H228.324V40.6942L227.222 43.5491H226.728H226.734Z" fill="#080001"/>
</g>
<defs>
<clipPath id="clip0_89_768">
<rect width="229" height="57" fill="white"/>
</clipPath>
</defs>
</svg>
