<svg width="277" height="51" viewBox="0 0 277 51" fill="none" xmlns="http://www.w3.org/2000/svg">
<g clip-path="url(#clip0_89_889)">
<path d="M15.2008 7.62339C15.2008 7.62339 15.2183 7.59678 15.2271 7.58348C15.4508 7.25087 15.3587 7.00696 15.2096 6.87391C15.1131 6.78965 12.8501 5.40157 12.8501 5.40157C12.6878 5.2907 12.5782 5.1 12.5782 4.88713C12.5782 4.54565 12.7799 4.29287 13.236 4.16426C14.6921 3.7607 19.8102 3.54783 21.5469 3.54783C22.1521 3.54783 23.1915 3.54783 24.1213 3.57L24.0818 3.53009C21.5293 1.33043 18.2181 0 14.6 0C6.53468 0 0 6.60783 0 14.7634C0 18.3467 1.26308 21.6329 3.36382 24.1917C5.19704 21.5264 9.72746 14.9497 10.7186 13.6059C11.8633 12.0582 14.4684 8.61678 14.9113 8.03139L14.9333 8.00478L15.2008 7.62339Z" fill="#EC1C24"/>
<path d="M5.6969 26.4667C8.16165 28.3869 11.2492 29.5267 14.5998 29.5267C22.6651 29.5267 29.1998 22.9188 29.1998 14.7633C29.1998 12.2975 28.6033 9.96928 27.542 7.92484C28.0464 7.43701 28.6253 6.66093 28.2437 5.68971C28.1253 5.40145 27.5552 4.7451 27.4104 4.58545L27.4324 4.6431C27.7876 5.72519 27.0859 6.40814 26.5815 6.86936C26.3052 7.12214 22.5993 10.6567 18.2487 14.5016C14.4156 17.8898 10.1308 21.3401 7.64414 23.2204C4.15313 25.8635 3.47335 26.2494 3.47335 26.2494C3.38125 26.2981 3.22775 26.3425 3.11373 26.3425C2.89883 26.3425 2.71463 26.2449 2.59621 26.0897C2.57867 26.1296 2.5699 26.1695 2.58744 26.1961C2.96023 26.8081 3.58299 27.5221 3.94262 27.5221C4.05665 27.5221 4.21015 27.4778 4.30225 27.429C4.30225 27.429 4.57855 27.2738 5.69251 26.4667" fill="#EC1C24"/>
<path d="M40.6642 24.2803H51.4837V24.3158C51.4837 26.3159 49.7733 27.9745 47.6331 27.9745H34.1997L44.1157 5.72074H34.8707V5.55222C34.8707 3.82266 36.3443 2.43457 38.1863 2.43457H50.2118L40.6642 24.2847V24.2803Z" fill="#231F20"/>
<path d="M62.917 18.1115C58.9962 18.484 56.6192 19.3 56.6192 22.4487C56.6192 24.7859 58.027 25.8369 60.4391 25.8369C61.3776 25.8369 62.4828 25.7704 62.917 25.6684V18.1115ZM62.917 16.0139V14.7588C62.917 12.3552 61.4434 11.7121 59.2988 11.7121C57.5226 11.7121 55.7464 12.3862 53.7728 13.4373V10.4216C54.9438 9.84509 57.1542 8.99805 60.0356 8.99805C63.8204 8.99805 66.9694 10.9316 66.9694 15.6724V27.7306C65.7282 27.9656 62.8512 28.2361 61.1057 28.2361H60.1672C55.207 28.2361 52.6282 26.1385 52.6282 22.5818C52.6282 17.7035 57.3165 16.5505 62.9126 16.0094" fill="#231F20"/>
<path d="M78.7363 12.1511C78.267 11.9471 77.596 11.8451 76.8943 11.8451C73.9471 11.8451 72.6402 14.2842 72.6402 18.6214C72.6402 22.9587 73.912 25.1583 76.6925 25.1583C77.5609 25.1583 78.2012 24.9898 78.7363 24.6838V12.1511ZM83.0956 28.0054C83.0956 32.9502 80.1134 35.4958 75.5917 35.4958C73.048 35.4958 70.671 34.9548 69.2632 34.0722V30.347C71.0745 31.7661 73.6182 32.2761 74.89 32.2761C77.7012 32.2761 78.7406 30.6131 78.7406 28.3824V27.4644C78.0389 27.8369 77.0346 27.9744 75.6575 27.9744C71.3025 27.9744 68.2896 24.3822 68.2896 18.8299C68.2896 12.9006 71.2367 9.00684 77.1004 9.00684C79.4117 9.00684 81.5212 9.61884 83.1 10.3949V28.0099L83.0956 28.0054Z" fill="#231F20"/>
<path d="M91.5512 9.00248C92.288 9.00248 93.2266 9.069 94.0642 9.20648V12.8297C92.5249 11.7121 90.4811 12.0847 89.5733 12.5592V23.7038C89.5733 26.0409 87.6655 27.97 85.3543 27.97H85.1218V10.4571C86.8629 9.61005 88.6391 8.99805 91.5556 8.99805" fill="#231F20"/>
<path d="M105.756 16.1158C105.62 12.3551 103.309 11.9516 102.072 11.9516H101.906C99.3928 12.0181 98.2218 13.8142 98.2218 17.1669L105.761 16.1158H105.756ZM109.642 18.688L98.485 20.2446C98.8534 23.3268 100.393 24.9544 103.208 24.9544C106.327 24.9544 107.901 23.9388 109.037 23.1228V26.8835C107.897 27.4911 105.787 28.2405 102.774 28.2405C97.314 28.2405 94.0642 24.5153 94.0642 18.555C94.0642 12.5946 97.0816 9.00244 102.037 9.00244C106.993 9.00244 109.642 12.2886 109.642 17.9784V18.688Z" fill="#231F20"/>
<path d="M115.638 25.3624C116.072 25.4644 117.111 25.531 117.747 25.531C120.8 25.531 122.304 23.1938 122.304 18.9941C122.304 15.1314 121.032 12.0847 117.444 12.0847C116.809 12.0847 116.203 12.2177 115.638 12.3863V25.3624ZM115.638 2.43018V10.1511C116.445 9.91165 117.379 9.74313 118.387 9.74313C123.111 9.74313 126.361 13.2333 126.361 19.2602C126.361 25.287 123.343 28.2362 118.05 28.2362H117.278C115.87 28.2362 112.519 28.0011 111.212 27.7306V6.73191C111.212 4.35931 113.089 2.43018 115.431 2.43018H115.633H115.638Z" fill="#231F20"/>
<path d="M202.961 25.3624C203.395 25.4644 204.434 25.531 205.07 25.531C208.118 25.531 209.627 23.1938 209.627 18.9941C209.627 15.1314 208.355 12.0847 204.768 12.0847C204.132 12.0847 203.531 12.2177 202.961 12.3863V25.3624ZM202.961 2.43018V10.1511C203.768 9.91165 204.702 9.74313 205.711 9.74313C210.434 9.74313 213.684 13.2333 213.684 19.2602C213.684 25.287 210.666 28.2362 205.377 28.2362H204.61C203.202 28.2362 199.851 28.0011 198.544 27.7306V6.73191C198.544 4.35931 200.422 2.43018 202.763 2.43018H202.965H202.961Z" fill="#231F20"/>
<path d="M137.711 18.1115C133.79 18.484 131.413 19.3 131.413 22.4487C131.413 24.7859 132.821 25.8369 135.233 25.8369C136.171 25.8369 137.277 25.7704 137.711 25.6684V18.1115ZM137.711 16.0139V14.7588C137.711 12.3552 136.237 11.7121 134.093 11.7121C132.316 11.7121 130.54 12.3862 128.567 13.4373V10.4216C129.738 9.84509 131.952 8.99805 134.834 8.99805C138.619 8.99805 141.767 10.9316 141.767 15.6724V27.7306C140.526 27.9656 137.649 28.2361 135.904 28.2361H134.965C130.009 28.2361 127.426 26.1385 127.426 22.5818C127.426 17.7035 132.115 16.5505 137.711 16.0094" fill="#231F20"/>
<path d="M156.161 1.9557L152.745 5.44587C152.376 5.85387 151.876 6.02239 151.407 6.02239C150.907 6.02239 150.438 5.85387 150.065 5.44587L146.648 1.9557L147.083 1.5477C147.284 1.3437 147.587 1.2417 147.92 1.2417C148.188 1.2417 148.455 1.30822 148.657 1.48118L151.403 3.61431L154.047 1.5477C154.28 1.37918 154.551 1.2417 154.885 1.2417C155.152 1.2417 155.42 1.30822 155.622 1.48118L156.157 1.9557H156.161ZM147.284 18.4886C147.284 22.5508 149.762 25.1274 152.411 25.1274C152.981 25.1274 154.788 24.9234 155.863 23.1983V26.9945C155.126 27.704 153.784 28.2451 151.609 28.2451C147.284 28.2451 143.267 24.6219 143.267 18.5595C143.267 12.4972 147.521 9.007 151.644 9.007C153.854 9.007 155.161 9.65005 155.863 10.262V13.3132C154.723 12.1601 153.718 11.9251 152.547 11.9251C149.565 11.9251 147.289 14.5017 147.289 18.4974" fill="#231F20"/>
<path d="M161.744 23.5664C161.744 26.0055 159.867 27.9701 157.354 27.9701H157.323V6.83392C157.323 4.39478 159.2 2.43018 161.713 2.43018H161.744V17.81L167.305 9.47705H171.493L165.766 17.9475L172.467 27.9745H167.774L161.744 18.5905V23.5708V23.5664Z" fill="#231F20"/>
<path d="M182.212 18.1115C178.291 18.484 175.914 19.3 175.914 22.4487C175.914 24.7859 177.322 25.8369 179.734 25.8369C180.673 25.8369 181.778 25.7704 182.212 25.6684V18.1115ZM182.212 16.0139V14.7588C182.212 12.3552 180.739 11.7121 178.594 11.7121C176.818 11.7121 175.042 12.3862 173.068 13.4373V10.4216C174.239 9.84509 176.449 8.99805 179.331 8.99805C183.116 8.99805 186.265 10.9316 186.265 15.6724V27.7306C185.023 27.9656 182.146 28.2361 180.405 28.2361H179.467C174.511 28.2361 171.932 26.1385 171.932 22.5818C171.932 17.7035 176.62 16.5505 182.217 16.0094" fill="#231F20"/>
<path d="M224.959 18.1115C221.043 18.484 218.661 19.3 218.661 22.4487C218.661 24.7859 220.065 25.8369 222.481 25.8369C223.42 25.8369 224.525 25.7704 224.959 25.6684V18.1115ZM224.959 16.0139V14.7588C224.959 12.3552 223.486 11.7121 221.341 11.7121C219.565 11.7121 217.789 12.3862 215.815 13.4373V10.4216C216.99 9.84509 219.201 8.99805 222.082 8.99805C225.867 8.99805 229.016 10.9316 229.016 15.6724V27.7306C227.779 27.9656 224.893 28.2361 223.157 28.2361H222.218C217.262 28.2361 214.684 26.1385 214.684 22.5818C214.684 17.7035 219.372 16.5505 224.968 16.0094" fill="#231F20"/>
<path d="M238.459 9.00244C244.721 9.00244 245.726 12.5591 245.726 14.6923V27.97H245.524C243.213 27.97 241.235 26.0054 241.235 23.6683V14.7588C241.235 13.5037 240.735 12.0137 238.288 12.0137C237.147 12.0137 236.476 12.1511 235.739 12.4217V27.97H231.249V10.3905C233.156 9.54349 236.239 9.00244 238.454 9.00244" fill="#231F20"/>
<path d="M252.475 23.5664C252.475 26.0055 250.598 27.9701 248.085 27.9701H248.05V6.83392C248.05 4.39478 249.927 2.43018 252.44 2.43018H252.475V17.81L258.032 9.47705H262.22L256.493 17.9475L263.194 27.9745H258.506L252.475 18.5905V23.5708V23.5664Z" fill="#231F20"/>
<path d="M272.943 18.1115C269.022 18.484 266.645 19.3 266.645 22.4487C266.645 24.7859 268.053 25.8369 270.465 25.8369C271.404 25.8369 272.509 25.7704 272.943 25.6684V18.1115ZM272.943 16.0139V14.7588C272.943 12.3552 271.47 11.7121 269.325 11.7121C267.553 11.7121 265.777 12.3862 263.799 13.4373V10.4216C264.974 9.84509 267.185 8.99805 270.066 8.99805C273.851 8.99805 277 10.9316 277 15.6724V27.7306C275.759 27.9656 272.877 28.2361 271.136 28.2361H270.198C265.242 28.2361 262.659 26.1385 262.659 22.5818C262.659 17.7035 267.351 16.5505 272.943 16.0094" fill="#231F20"/>
<path d="M37.5853 48.0418C35.6117 48.0418 34.3574 46.7379 34.3574 45.0394V37.8994H35.7433V45.0217C35.7433 46.2812 36.6336 46.9907 37.6598 46.9907C38.6861 46.9907 39.5588 46.2812 39.5588 45.0217V37.8994H40.8263V45.0394C40.8263 46.7379 39.572 48.0418 37.5853 48.0418Z" fill="#EC1C24"/>
<path d="M46.6461 47.8824V42.268C46.6461 41.5451 46.3303 40.7424 44.9444 40.7424C44.1901 40.7424 43.8261 40.8444 43.405 41.0173V47.878H42.0762V40.463C42.7998 40.1304 43.7515 39.9131 45.0497 39.9131C47.3127 39.9131 47.9749 41.1193 47.9749 42.2325V47.8735H46.6461V47.8824Z" fill="#EC1C24"/>
<path d="M49.2248 40.0592H50.5537V47.8777H49.2248V40.0592ZM49.8871 38.5513C49.4485 38.5513 49.1021 38.232 49.1021 37.8551C49.1021 37.4781 49.4485 37.1455 49.8871 37.1455C50.3257 37.1455 50.6546 37.4648 50.6546 37.8551C50.6546 38.2453 50.3081 38.5513 49.8871 38.5513Z" fill="#EC1C24"/>
<path d="M55.4218 48.0244C52.9352 48.0244 51.5317 45.7183 51.5317 42.8889C51.5317 40.0595 52.9176 37.7534 55.4218 37.7534C56.3428 37.7534 56.9919 37.984 57.4436 38.3033L57.1103 39.0883C56.7946 38.8976 56.3121 38.6936 55.6631 38.6936C53.672 38.6936 52.979 40.7691 52.979 42.8845C52.979 44.9999 53.7465 47.0221 55.6499 47.0221C56.2858 47.0221 56.7069 46.8625 57.0972 46.6274L57.4568 47.47C57.0051 47.8026 56.2639 48.0199 55.4218 48.0199" fill="#EC1C24"/>
<path d="M61.1979 40.902C60.5357 40.7157 59.7813 40.7734 59.3428 41.0484V47.8779H58.0139V40.4807C58.8121 40.0904 59.584 39.8864 61.5137 39.9308L61.1979 40.902Z" fill="#EC1C24"/>
<path d="M64.6056 40.7423C63.4302 40.7423 62.553 41.6559 62.5837 43.7757L66.4739 43.2125C66.4739 41.443 65.7634 40.7467 64.6012 40.7467M62.632 44.4542C62.7811 46.2237 63.6407 47.0974 65.1011 47.0974C66.0221 47.0974 66.6844 46.8801 67.1054 46.6494L67.4519 47.492C66.9519 47.7803 66.0923 48.0287 64.9959 48.0287C62.8688 48.0287 61.3777 46.7381 61.3777 43.9531C61.3777 41.1681 62.7329 39.9219 64.6494 39.9219C66.566 39.9219 67.772 41.1414 67.7413 43.7535L62.632 44.4631V44.4542Z" fill="#EC1C24"/>
<path d="M73.0831 40.8752C72.7498 40.7865 72.4208 40.7289 72.0744 40.7289C70.1885 40.7289 69.5833 42.2943 69.5833 43.9929C69.5833 45.8333 70.2455 47.1815 71.9033 47.1815C72.4471 47.1815 72.8243 47.1238 73.0787 46.9642V40.8708L73.0831 40.8752ZM71.8419 48.0241C69.5219 48.0241 68.272 46.4586 68.272 44.0949C68.272 41.5005 69.7061 39.9883 71.7981 39.9883C72.2498 39.9883 72.6445 40.0459 73.0787 40.1657V36.4937H74.39V47.4742C73.8462 47.7935 72.9734 48.0241 71.8419 48.0241Z" fill="#EC1C24"/>
<path d="M75.6443 40.0592H76.9688V47.8777H75.6443V40.0592ZM76.3065 38.5513C75.868 38.5513 75.5259 38.232 75.5259 37.8551C75.5259 37.4781 75.8723 37.1455 76.3065 37.1455C76.7407 37.1455 77.0784 37.4648 77.0784 37.8551C77.0784 38.2453 76.7319 38.5513 76.3065 38.5513Z" fill="#EC1C24"/>
<path d="M80.6791 47.9533C79.2011 47.9533 78.6573 46.9378 78.6573 45.9799V40.8577H77.7231V40.0594H78.6573V38.2633L79.9862 37.8687V40.0594H81.4027V40.8577H79.9862V45.9488C79.9862 46.5741 80.2712 47.0841 81.008 47.0841C81.144 47.0841 81.2668 47.0531 81.4027 47.0265V47.838C81.2536 47.8824 81.008 47.9533 80.6791 47.9533Z" fill="#EC1C24"/>
<path d="M89.354 48.0243C86.9419 48.0243 84.9946 46.3436 84.9946 42.8179C84.9946 39.4962 86.9857 37.7578 89.354 37.7578C90.4855 37.7578 91.2837 37.9751 91.7793 38.2811L91.3714 39.106C91.0249 38.902 90.4241 38.698 89.5031 38.698C87.5866 38.698 86.4244 40.0329 86.4244 42.9332C86.4244 45.6473 87.705 47.0975 89.3365 47.0975C90.0469 47.0975 90.4241 46.9822 90.6302 46.8624V43.1195H88.8672V42.2813H91.9766V47.4744C91.3451 47.8248 90.6478 48.0243 89.354 48.0243Z" fill="#EC1C24"/>
<path d="M96.3185 40.902C95.6563 40.7157 94.902 40.7734 94.4634 41.0484V47.8779H93.1345V40.4807C93.9327 40.0904 94.7002 39.8864 96.6343 39.9308L96.3185 40.902Z" fill="#EC1C24"/>
<path d="M99.6823 40.729C98.1298 40.729 97.8272 42.3965 97.8272 43.9797C97.8272 45.563 98.1605 47.1417 99.6823 47.1417C101.204 47.1417 101.52 45.5452 101.52 43.9797C101.52 42.4143 101.235 40.729 99.6823 40.729ZM99.6823 48.0243C97.4675 48.0243 96.4983 46.2681 96.4983 43.9797C96.4983 41.6914 97.4763 39.9175 99.6648 39.9175C101.853 39.9175 102.844 41.6426 102.844 43.9797C102.844 46.3169 101.88 48.0243 99.6779 48.0243" fill="#EC1C24"/>
<path d="M106.572 48.0422C104.537 48.0422 103.691 47.0533 103.691 45.4878V40.0596H105.015V45.5277C105.015 46.4413 105.529 47.1375 106.647 47.1375C107.278 47.1375 107.73 47.0355 108.107 46.8182V40.0552H109.436V47.4125C108.835 47.7451 107.884 48.0378 106.572 48.0378" fill="#EC1C24"/>
<path d="M113.072 40.6847C112.572 40.6847 112.225 40.7734 111.909 40.902V47.0397C112.168 47.1417 112.497 47.2127 112.905 47.2127C114.55 47.2127 115.392 45.9798 115.392 43.9043C115.392 41.8289 114.786 40.6847 113.072 40.6847ZM113.177 47.9977C112.708 47.9977 112.212 47.9134 111.909 47.807V51H110.598V40.4674C111.142 40.1658 111.971 39.9175 113.133 39.9175C115.422 39.9175 116.725 41.4519 116.725 43.8467C116.725 46.4455 115.322 47.9977 113.181 47.9977" fill="#EC1C24"/>
</g>
<defs>
<clipPath id="clip0_89_889">
<rect width="277" height="51" fill="white"/>
</clipPath>
</defs>
</svg>
