<?xml version="1.0" encoding="UTF-8"?>
<svg id="Layer_2" data-name="Layer 2" xmlns="http://www.w3.org/2000/svg" xmlns:xlink="http://www.w3.org/1999/xlink" viewBox="0 0 1111.48 584.4">
  <defs>
    <style>
      .cls-1 {
        filter: url(#drop-shadow-1);
      }

      .cls-2 {
        fill: #e7c81d;
      }

      .cls-3 {
        fill: #fff;
      }

      .cls-4 {
        fill: #eac31b;
      }
    </style>
    <filter id="drop-shadow-1" x="734.1" y="24.46" width="435" height="407" filterUnits="userSpaceOnUse">
      <feOffset dx="0" dy="0"/>
      <feGaussianBlur result="blur" stdDeviation="19"/>
      <feFlood flood-color="#e5cc13" flood-opacity=".25"/>
      <feComposite in2="blur" operator="in"/>
      <feComposite in="SourceGraphic"/>
    </filter>
  </defs>
  <g id="Layer_1-2" data-name="Layer 1">
    <g id="CareerDayLogo">
      <g>
        <path class="cls-3" d="M439.15,123.92c-9.3,0-17.84-1.52-25.65-4.56-7.8-3.04-14.6-7.38-20.39-13-5.8-5.62-10.3-12.16-13.51-19.63-3.21-7.46-4.82-15.72-4.82-24.78s1.61-17.33,4.82-24.78c3.21-7.46,7.75-14,13.6-19.63,5.85-5.62,12.67-9.95,20.48-13,7.8-3.04,16.35-4.56,25.64-4.56,9.87,0,18.88,1.69,27.03,5.08,8.14,3.39,15.03,8.41,20.65,15.06l-14.46,13.6c-4.47-4.71-9.41-8.24-14.8-10.59-5.4-2.35-11.19-3.53-17.39-3.53s-12.07,1.04-17.3,3.1c-5.22,2.06-9.76,5-13.59,8.78-3.85,3.79-6.86,8.26-9.04,13.43-2.19,5.16-3.27,10.84-3.27,17.04s1.09,11.87,3.27,17.04c2.18,5.16,5.19,9.64,9.04,13.43,3.84,3.79,8.37,6.72,13.59,8.78,5.22,2.06,10.99,3.1,17.3,3.1s11.99-1.18,17.39-3.53c5.39-2.35,10.33-5.94,14.8-10.76l14.46,13.59c-5.63,6.66-12.51,11.71-20.65,15.15-8.15,3.44-17.21,5.16-27.2,5.16Z"/>
        <path class="cls-3" d="M565.14,1.72h-22.03l-54.21,120.48h22.89l11.97-27.88h60.26l11.92,27.88h23.57L565.14,1.72ZM531.3,76.77l22.64-52.73,22.56,52.73h-45.2Z"/>
        <path class="cls-3" d="M710.07,82.69c.61-.23,1.21-.49,1.79-.75,7.64-3.44,13.51-8.33,17.65-14.64,4.13-6.31,6.19-13.88,6.19-22.73s-2.06-16.63-6.19-23.06c-4.13-6.42-10.01-11.33-17.65-14.71-7.62-3.38-16.78-5.08-27.45-5.08h-49.58v120.48h22.38v-35.11h27.2c1.6,0,3.18-.04,4.71-.12l24.55,35.22h24.09l-27.7-39.51ZM705.67,62.3c-4.99,4.25-12.43,6.37-22.28,6.37h-26.17V20.65h26.17c9.86,0,17.29,2.1,22.28,6.29,4.98,4.19,7.48,10.07,7.48,17.64s-2.5,13.49-7.48,17.73Z"/>
        <path class="cls-3" d="M849.15,103.27v1.82c-7.25,4.92-14.06,10.63-20.31,17.11h-68.19V1.72h87.95v18.93h-65.57v31.16h58.18v18.41h-58.18v33.05h66.12Z"/>
        <path class="cls-3" d="M896.62,51.81v18.41h59.9v-18.41h-59.9ZM875.96,1.72v89.35c7.26-2.78,14.76-4.91,22.38-6.37V20.65h65.57V1.72h-87.95Z"/>
        <path class="cls-3" d="M1066.51,82.69c.61-.23,1.21-.49,1.79-.75,7.64-3.44,13.51-8.33,17.65-14.64,4.13-6.31,6.2-13.88,6.2-22.73s-2.07-16.63-6.2-23.06c-4.13-6.42-10.01-11.33-17.65-14.71-7.62-3.38-16.78-5.08-27.45-5.08h-49.58v99.84c2.57,1.57,5.09,3.23,7.58,4.99,5.31,3.76,10.24,7.85,14.8,12.21v-31.68h27.2c1.6,0,3.17-.04,4.71-.12l24.55,35.22h24.09l-27.7-39.51ZM1062.11,62.3c-4.99,4.25-12.43,6.37-22.28,6.37h-26.17V20.65h26.17c9.86,0,17.29,2.1,22.28,6.29,4.99,4.19,7.48,10.07,7.48,17.64s-2.49,13.49-7.48,17.73Z"/>
        <path class="cls-3" d="M387.27,321.85v-149.4h65.52c15.93,0,30.06,3.09,42.37,9.28,12.3,6.19,21.87,14.91,28.7,26.15s10.25,24.33,10.25,39.27-3.42,28.03-10.25,39.26c-6.83,11.25-16.4,19.96-28.7,26.15-12.31,6.19-26.44,9.28-42.37,9.28h-65.52ZM415.02,298.38h36.06c11.24,0,20.95-2.13,29.13-6.4,8.18-4.27,14.58-10.25,19.21-17.93,4.63-7.68,6.94-16.65,6.94-26.89s-2.31-19.56-6.94-27.11c-4.63-7.54-11.03-13.45-19.21-17.72-8.18-4.27-17.89-6.4-29.13-6.4h-36.06v102.44Z"/>
        <path class="cls-3" d="M634.84,172.46h-27.31l-67.24,149.39h28.39l14.85-34.58h74.72l14.79,34.58h29.24l-67.44-149.39ZM592.87,265.51l28.09-65.38,27.97,65.38h-56.06Z"/>
        <path class="cls-3" d="M793.71,235.47l-17.16,32.43v53.95h-27.53v-52.79l-58.69-96.61h29.45l44.16,72.71,28.88-47.75c-1.57,12.71-1.24,25.53.88,38.06Z"/>
      </g>
      <g id="search" class="cls-1">
        <path class="cls-4" d="M1108.08,354.44c-.18-.17-.36-.33-.55-.49l-76.87-64.64-.76.07c38.15-53.76,30.05-126.39-16.24-170.6-4.56-4.36-9.5-8.45-14.8-12.21-2.49-1.77-5.01-3.43-7.58-4.99-28.69-17.55-61.86-22.8-92.94-16.86-7.62,1.46-15.12,3.58-22.38,6.37-9.38,3.6-18.39,8.27-26.81,14.02-7.25,4.92-14.06,10.63-20.31,17.11-4.59,4.73-8.87,9.87-12.8,15.4-13.04,18.37-20.67,38.93-23.22,59.82-1.57,12.71-1.24,25.53.88,38.06,5.63,33.07,23.86,64,53.38,84.94,52.32,37.12,123.82,30.95,168.99-14.6,0,0,.05.54.07.75l76.87,64.64c4.6,3.91,11.49,3.35,15.4-1.27.02-.01.04-.04.06-.06,4.16-4.37,3.98-11.29-.39-15.45ZM932.48,322.03c-60.13,5.2-113.07-39.34-118.27-99.46-5.2-60.11,39.34-113.07,99.45-118.26,60.13-5.2,113.07,39.32,118.27,99.45,5.2,60.13-39.32,113.07-99.45,118.27Z"/>
      </g>
      <path class="cls-3" d="M287.91,137.34l24.01-27.82c3.15,9.05,5.47,18.32,6.93,27.82h-30.95ZM320.58,155.48v6.53c0,38.98-14.2,76.65-39.96,105.9-25.75,29.25-61.3,48.14-99.97,53.12-38.67,4.93-77.82-4.41-110.12-26.22-32.3-21.81-55.54-54.67-65.36-92.4C-4.65,164.64-.38,124.63,17.17,89.82,34.73,55.02,64.37,27.83,100.55,13.29c36.18-14.54,76.41-15.4,113.17-2.4,36.76,12.99,67.52,38.98,86.52,72.99h-42.67v18.2h32.17l-33.4,38.7v14.83l64.23-.11ZM169.71,83.87h-64.5v18.6h20.34v53.01h23.71v-53.01h20.45v-18.6ZM252.75,83.87h-24.2l-14.71,47-14.82-47h-25.35l27.19,71.61h24.51l27.39-71.61Z"/>
      <path class="cls-3" d="M981.73,173.41h-28.44v-14.61c0-4.16-3.8-7.55-8.45-7.55h-39.99c-4.66,0-8.45,3.39-8.45,7.55v14.61h-28.47c-6.13.02-11.14,4.49-11.16,9.98v70.72c0,5.51,5.01,10,11.17,10.01h113.79c3.42-.01,6.48-1.39,8.52-3.56,1.66-1.74,2.65-3.99,2.65-6.44v-70.75c-.04-5.47-5.04-9.94-11.17-9.97ZM943.91,173.41h-38.25v-13.85h38.25v13.85Z"/>
    </g>
    <g>
      <g>
        <path class="cls-2" d="M659.09,474.44h-11.57v-57.78h11.57v23.06h24.24v-23.06h11.57v57.78h-11.57v-23.53h-24.24v23.53Z"/>
        <path class="cls-2" d="M702.57,453.1c0-6.31,2.14-11.6,6.41-15.87,4.33-4.38,9.8-6.57,16.42-6.57s12.09,2.19,16.42,6.57c4.27,4.27,6.41,9.57,6.41,15.87s-2.14,11.68-6.41,15.95c-4.33,4.33-9.8,6.49-16.42,6.49s-12.09-2.16-16.42-6.49c-4.27-4.27-6.41-9.59-6.41-15.95ZM716.96,461.78c2.24,2.35,5.06,3.52,8.44,3.52s6.07-1.17,8.37-3.52c2.29-2.45,3.44-5.34,3.44-8.68s-1.15-6.2-3.44-8.6c-2.29-2.35-5.08-3.52-8.37-3.52s-6.2,1.17-8.44,3.52c-2.24,2.29-3.36,5.16-3.36,8.6s1.12,6.28,3.36,8.68Z"/>
        <path class="cls-2" d="M789.6,442.78c3.49.89,6.19,2.67,8.09,5.36,1.9,2.69,2.85,5.85,2.85,9.5,0,4.8-1.67,8.78-5,11.96-3.34,3.23-7.77,4.85-13.29,4.85h-26.35v-57.78h25.18c5.16,0,9.17,1.43,12.04,4.3,2.92,2.92,4.38,6.28,4.38,10.09,0,2.55-.73,4.94-2.19,7.15-1.46,2.22-3.36,3.74-5.71,4.57ZM779.13,426.75h-11.81v12.59h11.34c2.29,0,4.09-.62,5.39-1.88,1.3-1.25,1.95-2.79,1.95-4.61,0-1.72-.63-3.17-1.88-4.34s-2.92-1.76-5-1.76ZM767.32,464.28h12.67c2.66,0,4.76-.73,6.29-2.19,1.54-1.46,2.31-3.26,2.31-5.39s-.76-4.01-2.27-5.47c-1.51-1.46-3.62-2.19-6.33-2.19h-12.67v15.25Z"/>
      </g>
      <g>
        <path class="cls-3" d="M657.86,536.25h-12.57v-34.39h12.98c4.99,0,8.9,1.55,11.73,4.65,2.89,3.1,4.33,7.31,4.33,12.61s-1.47,9.42-4.42,12.52c-2.95,3.07-6.97,4.61-12.05,4.61ZM650.64,506.98v24.15h7.45c3.35,0,5.96-1.13,7.82-3.4,1.89-2.26,2.84-5.18,2.84-8.75s-.95-6.34-2.84-8.61c-1.86-2.26-4.45-3.4-7.77-3.4h-7.49Z"/>
        <path class="cls-3" d="M689.47,529.08l7.17-17.92h5.63l-10.98,25.04h-3.72l-10.98-25.04h5.68l7.21,17.92Z"/>
        <path class="cls-3" d="M702.82,523.68c0-3.63,1.24-6.73,3.72-9.31,2.51-2.57,5.69-3.86,9.54-3.86s7.01,1.29,9.49,3.86c2.51,2.54,3.77,5.65,3.77,9.31s-1.26,6.86-3.77,9.4c-2.45,2.54-5.62,3.82-9.49,3.82s-7.03-1.27-9.54-3.82c-2.48-2.57-3.72-5.71-3.72-9.4ZM724.18,523.68c0-2.3-.79-4.27-2.37-5.91-1.52-1.68-3.43-2.51-5.72-2.51s-4.19.84-5.77,2.51c-1.55,1.65-2.33,3.61-2.33,5.91s.78,4.31,2.33,5.96c1.58,1.64,3.51,2.47,5.77,2.47s4.17-.82,5.72-2.47c1.58-1.64,2.37-3.63,2.37-5.96Z"/>
        <path class="cls-3" d="M739.13,536.25h-5.12v-25.08h4.89v3.58c1.49-2.82,3.86-4.23,7.12-4.23,1.05,0,2.05.14,2.98.42l-.47,4.98c-.84-.31-1.75-.47-2.75-.47-2.02,0-3.63.68-4.84,2.05-1.21,1.37-1.81,3.34-1.81,5.91v12.84Z"/>
        <path class="cls-3" d="M771.38,514.66v-3.49h4.93v25.08h-4.93v-3.44c-2.27,2.7-5.12,4.05-8.56,4.05-3.63,0-6.62-1.27-8.98-3.82-2.36-2.54-3.54-5.71-3.54-9.49s1.18-6.86,3.54-9.31c2.36-2.45,5.35-3.68,8.98-3.68s6.3,1.37,8.56,4.09ZM763.51,532.15c2.33,0,4.27-.82,5.82-2.47,1.52-1.61,2.28-3.61,2.28-6s-.76-4.34-2.28-5.96c-1.55-1.64-3.49-2.47-5.82-2.47s-4.33.82-5.82,2.47c-1.49,1.61-2.23,3.61-2.23,6s.74,4.39,2.23,6c1.49,1.61,3.43,2.42,5.82,2.42Z"/>
        <path class="cls-3" d="M787.52,536.25h-5.12v-25.08h5.03v3.54c.74-1.3,1.81-2.33,3.21-3.07,1.4-.75,2.98-1.12,4.75-1.12,2.76,0,5.09.9,6.98,2.7,1.92,1.83,2.89,4.42,2.89,7.77v15.26h-5.17v-13.82c0-2.26-.54-4.03-1.63-5.28-1.09-1.26-2.54-1.88-4.37-1.88-1.92,0-3.5.67-4.72,2.02-1.23,1.35-1.84,3.09-1.84,5.24v13.73Z"/>
        <path class="cls-3" d="M830.78,514.66v-3.49h4.93v25.08h-4.93v-3.44c-2.27,2.7-5.12,4.05-8.56,4.05-3.63,0-6.62-1.27-8.98-3.82-2.36-2.54-3.54-5.71-3.54-9.49s1.18-6.86,3.54-9.31c2.36-2.45,5.35-3.68,8.98-3.68s6.3,1.37,8.56,4.09ZM822.92,532.15c2.33,0,4.27-.82,5.82-2.47,1.52-1.61,2.28-3.61,2.28-6s-.76-4.34-2.28-5.96c-1.55-1.64-3.49-2.47-5.82-2.47s-4.33.82-5.82,2.47c-1.49,1.61-2.23,3.61-2.23,6s.74,4.39,2.23,6c1.49,1.61,3.43,2.42,5.82,2.42Z"/>
        <path class="cls-3" d="M882.48,536.25h-6.61l-11.26-14.61-4.56,5.44v9.17h-5.35v-34.39h5.35v17.92l14.89-17.92h6.42l-13.26,16.01,14.38,18.38Z"/>
        <path class="cls-3" d="M881.77,523.68c0-3.63,1.24-6.73,3.72-9.31,2.51-2.57,5.69-3.86,9.54-3.86s7.01,1.29,9.49,3.86c2.51,2.54,3.77,5.65,3.77,9.31s-1.26,6.86-3.77,9.4c-2.45,2.54-5.62,3.82-9.49,3.82s-7.03-1.27-9.54-3.82c-2.48-2.57-3.72-5.71-3.72-9.4ZM903.13,523.68c0-2.3-.79-4.27-2.37-5.91-1.52-1.68-3.43-2.51-5.72-2.51s-4.19.84-5.77,2.51c-1.55,1.65-2.33,3.61-2.33,5.91s.78,4.31,2.33,5.96c1.58,1.64,3.51,2.47,5.77,2.47s4.17-.82,5.72-2.47c1.58-1.64,2.37-3.63,2.37-5.96Z"/>
        <path class="cls-3" d="M918.07,536.25h-5.12v-25.08h4.89v3.58c1.49-2.82,3.86-4.23,7.12-4.23,1.05,0,2.05.14,2.98.42l-.47,4.98c-.84-.31-1.75-.47-2.75-.47-2.02,0-3.63.68-4.84,2.05-1.21,1.37-1.81,3.34-1.81,5.91v12.84Z"/>
        <path class="cls-3" d="M936.17,536.25h-5.12v-25.08h5.03v3.54c.74-1.3,1.81-2.33,3.21-3.07,1.4-.75,2.98-1.12,4.75-1.12,2.76,0,5.09.9,6.98,2.7,1.92,1.83,2.89,4.42,2.89,7.77v15.26h-5.17v-13.82c0-2.26-.54-4.03-1.63-5.28-1.09-1.26-2.54-1.88-4.37-1.88-1.92,0-3.5.67-4.72,2.02-1.23,1.35-1.84,3.09-1.84,5.24v13.73Z"/>
        <path class="cls-3" d="M979.43,514.66v-3.49h4.93v25.08h-4.93v-3.44c-2.27,2.7-5.12,4.05-8.56,4.05-3.63,0-6.62-1.27-8.98-3.82-2.36-2.54-3.54-5.71-3.54-9.49s1.18-6.86,3.54-9.31c2.36-2.45,5.35-3.68,8.98-3.68s6.3,1.37,8.56,4.09ZM971.56,532.15c2.33,0,4.27-.82,5.82-2.47,1.52-1.61,2.28-3.61,2.28-6s-.76-4.34-2.28-5.96c-1.55-1.64-3.49-2.47-5.82-2.47s-4.33.82-5.82,2.47c-1.49,1.61-2.23,3.61-2.23,6s.74,4.39,2.23,6c1.49,1.61,3.43,2.42,5.82,2.42Z"/>
        <path class="cls-3" d="M1005.45,530.76l1.77,4c-1.86,1.4-4.17,2.09-6.93,2.09s-4.75-.82-6.14-2.47c-1.4-1.64-2.09-4.02-2.09-7.12v-11.73h-4.33v-4.38h4.37v-8.89h5.07v8.89h8.66v4.38h-8.66v11.82c0,3.2,1.29,4.79,3.86,4.79,1.36,0,2.84-.47,4.42-1.4Z"/>
        <path class="cls-3" d="M1012.96,507.86c-.99,0-1.83-.33-2.51-1-.68-.67-1.02-1.5-1.02-2.49s.34-1.77,1.02-2.42c.68-.65,1.52-.98,2.51-.98s1.77.33,2.42.98c.65.65.98,1.46.98,2.42s-.33,1.82-.98,2.49c-.65.67-1.46,1-2.42,1ZM1015.43,511.17v25.08h-5.12v-25.08h5.12Z"/>
      </g>
      <g>
        <path class="cls-3" d="M651.64,578.63c-2.35,0-4.27-.9-5.76-2.71l1.14-1.19c1.18,1.53,2.72,2.3,4.63,2.3,1.37,0,2.47-.45,3.32-1.36.85-.9,1.27-2.12,1.27-3.66v-14.18h1.72v14.07c0,2.18-.59,3.85-1.77,5.01-1.2,1.15-2.71,1.72-4.54,1.72Z"/>
        <path class="cls-3" d="M661.52,570.88c0-2.2.73-4.03,2.19-5.51,1.48-1.5,3.31-2.24,5.51-2.24s4.03.75,5.51,2.24c1.46,1.48,2.19,3.32,2.19,5.51s-.73,4.06-2.19,5.54c-1.48,1.5-3.31,2.24-5.51,2.24s-4.04-.75-5.51-2.24c-1.46-1.48-2.19-3.32-2.19-5.54ZM669.22,577.14c1.74,0,3.18-.6,4.32-1.8,1.14-1.24,1.72-2.72,1.72-4.46s-.57-3.23-1.72-4.43c-1.15-1.2-2.59-1.8-4.32-1.8s-3.16.61-4.32,1.83c-1.15,1.2-1.72,2.67-1.72,4.4s.57,3.22,1.72,4.46c1.16,1.2,2.6,1.8,4.32,1.8Z"/>
        <path class="cls-3" d="M683.85,578.63c-1.13,0-2.15-.27-3.07-.82-.92-.54-1.64-1.35-2.16-2.42l1.33-.83c.87,1.72,2.17,2.58,3.91,2.58.98,0,1.79-.27,2.42-.82.64-.54.96-1.21.96-1.98,0-.96-.63-1.76-1.88-2.41-.37-.18-.96-.43-1.77-.75-.94-.39-1.53-.66-1.77-.8-1.57-.79-2.35-1.95-2.35-3.46,0-1.15.42-2.09,1.25-2.83s1.93-1.11,3.3-1.11c2.03,0,3.52.78,4.46,2.33l-1.16.94c-.7-1.2-1.81-1.8-3.32-1.8-.91,0-1.62.22-2.13.67-.52.44-.78,1.02-.78,1.75,0,.98.54,1.73,1.61,2.24l1.66.72c1.03.42,1.69.71,1.97.86,1.74.83,2.6,2.01,2.6,3.55,0,1.24-.47,2.28-1.41,3.13-.92.85-2.13,1.27-3.63,1.27Z"/>
        <path class="cls-3" d="M692.63,561.16c-.41,0-.75-.13-1.02-.4-.28-.27-.42-.6-.42-1.01s.14-.74.42-1.01c.28-.27.62-.4,1.02-.4s.72.13,1,.4.42.6.42,1.01-.14.74-.42,1.01c-.28.27-.61.4-1,.4ZM693.41,563.48v14.82h-1.66v-14.82h1.66Z"/>
        <path class="cls-3" d="M705.22,563.09c2.11,0,3.86.76,5.26,2.27,1.4,1.48,2.11,3.32,2.11,5.51s-.7,4.04-2.11,5.51c-1.4,1.5-3.16,2.24-5.26,2.24-1.27,0-2.42-.29-3.45-.86s-1.85-1.38-2.48-2.44v9.06h-1.66v-20.91h1.66v3.02c.63-1.07,1.46-1.91,2.49-2.51,1.03-.6,2.18-.9,3.43-.9ZM705.14,577.11c1.68,0,3.07-.6,4.16-1.8,1.09-1.2,1.63-2.68,1.63-4.43s-.54-3.23-1.63-4.43c-1.09-1.2-2.47-1.8-4.16-1.8s-3.13.61-4.24,1.83c-1.11,1.22-1.66,2.71-1.66,4.46s.55,3.19,1.66,4.38c1.11,1.2,2.52,1.8,4.24,1.8Z"/>
        <path class="cls-3" d="M728.17,566.34v-2.85h1.61v14.82h-1.61v-2.88c-.63,1.02-1.45,1.81-2.48,2.38-1.03.57-2.15.86-3.37.86-2.09,0-3.84-.75-5.26-2.24-1.4-1.51-2.11-3.38-2.11-5.6s.69-4.01,2.08-5.48c1.42-1.48,3.19-2.22,5.29-2.22,1.24,0,2.36.28,3.38.84,1.02.56,1.84,1.35,2.47,2.37ZM722.41,577.14c1.72,0,3.13-.61,4.24-1.83,1.11-1.22,1.66-2.71,1.66-4.49s-.55-3.18-1.66-4.38c-1.11-1.2-2.52-1.8-4.24-1.8s-3.09.6-4.18,1.8c-1.07,1.18-1.61,2.66-1.61,4.43s.54,3.28,1.61,4.46c1.09,1.2,2.48,1.8,4.18,1.8Z"/>
        <path class="cls-3" d="M743.38,578.3h-1.69v-20.47h.75l9,13.24,8.92-13.24h.78v20.47h-1.69v-16.29l-7.81,11.58h-.42l-7.84-11.55v16.26Z"/>
        <path class="cls-3" d="M778.12,566.34v-2.85h1.61v14.82h-1.61v-2.88c-.63,1.02-1.45,1.81-2.48,2.38-1.03.57-2.15.86-3.37.86-2.09,0-3.84-.75-5.26-2.24-1.4-1.51-2.11-3.38-2.11-5.6s.69-4.01,2.08-5.48c1.42-1.48,3.19-2.22,5.29-2.22,1.24,0,2.36.28,3.38.84,1.02.56,1.84,1.35,2.47,2.37ZM772.36,577.14c1.72,0,3.13-.61,4.24-1.83,1.11-1.22,1.66-2.71,1.66-4.49s-.55-3.18-1.66-4.38c-1.11-1.2-2.52-1.8-4.24-1.8s-3.09.6-4.18,1.8c-1.07,1.18-1.61,2.66-1.61,4.43s.54,3.28,1.61,4.46c1.09,1.2,2.48,1.8,4.18,1.8Z"/>
        <path class="cls-3" d="M785.55,578.3h-1.66v-14.82h1.58v2.38c.79-1.85,2.23-2.77,4.29-2.77.57,0,1.18.08,1.83.25l-.19,1.58c-.52-.17-1.04-.25-1.58-.25-1.33,0-2.37.48-3.13,1.43-.76.95-1.14,2.2-1.14,3.75v8.45Z"/>
        <path class="cls-3" d="M792.19,570.88c0-2.2.73-4.03,2.19-5.51,1.48-1.5,3.31-2.24,5.51-2.24s4.03.75,5.51,2.24c1.46,1.48,2.19,3.32,2.19,5.51s-.73,4.06-2.19,5.54c-1.48,1.5-3.31,2.24-5.51,2.24s-4.04-.75-5.51-2.24c-1.46-1.48-2.19-3.32-2.19-5.54ZM799.89,577.14c1.74,0,3.18-.6,4.32-1.8,1.14-1.24,1.72-2.72,1.72-4.46s-.57-3.23-1.72-4.43c-1.15-1.2-2.59-1.8-4.32-1.8s-3.16.61-4.32,1.83c-1.15,1.2-1.72,2.67-1.72,4.4s.57,3.22,1.72,4.46c1.16,1.2,2.6,1.8,4.32,1.8Z"/>
        <path class="cls-3" d="M812.5,578.3h-1.66v-20.91h1.61v8.59c.44-.92,1.11-1.63,2.01-2.13.9-.5,1.93-.75,3.12-.75,1.66,0,3.06.54,4.18,1.63,1.13,1.07,1.69,2.61,1.69,4.63v8.95h-1.66v-8.67c0-1.55-.39-2.77-1.18-3.66-.79-.89-1.86-1.33-3.23-1.33s-2.45.44-3.41,1.33c-.98.89-1.47,2.22-1.47,3.99v8.34Z"/>
        <path class="cls-3" d="M829.12,578.3h-1.66v-14.82h1.61v2.6c.9-1.99,2.62-2.99,5.15-2.99,1.64,0,3.04.54,4.18,1.63,1.13,1.07,1.69,2.61,1.69,4.63v8.95h-1.66v-8.64c0-1.55-.39-2.77-1.18-3.67-.79-.9-1.86-1.34-3.23-1.34s-2.46.45-3.43,1.36c-.98.89-1.47,2.22-1.47,3.99v8.31Z"/>
        <path class="cls-3" d="M844.9,561.16c-.41,0-.75-.13-1.02-.4-.28-.27-.42-.6-.42-1.01s.14-.74.42-1.01c.28-.27.62-.4,1.02-.4s.72.13,1,.4.42.6.42,1.01-.14.74-.42,1.01c-.28.27-.61.4-1,.4ZM845.68,563.48v14.82h-1.66v-14.82h1.66Z"/>
        <path class="cls-3" d="M856.56,578.63c-2.2,0-4.01-.72-5.43-2.16-1.42-1.48-2.13-3.33-2.13-5.57s.72-4.14,2.16-5.6c1.46-1.46,3.31-2.19,5.57-2.19,1.46,0,2.78.34,3.98,1.02,1.19.68,2.07,1.62,2.65,2.8l-1.36.78c-.5-.94-1.22-1.69-2.16-2.24-.94-.55-1.98-.83-3.1-.83-1.77,0-3.22.59-4.35,1.77-1.15,1.18-1.72,2.68-1.72,4.49s.55,3.3,1.66,4.46c1.11,1.16,2.52,1.75,4.24,1.75,1.11,0,2.16-.29,3.14-.86.99-.57,1.72-1.31,2.2-2.22l1.36.83c-.57,1.13-1.48,2.04-2.71,2.74-1.2.68-2.53,1.02-3.99,1.02ZM857.25,561.1h-1.41l1.63-4.43h2.13l-2.35,4.43Z"/>
        <path class="cls-3" d="M878.45,566.34v-2.85h1.61v14.82h-1.61v-2.88c-.63,1.02-1.45,1.81-2.48,2.38-1.03.57-2.15.86-3.37.86-2.09,0-3.84-.75-5.26-2.24-1.4-1.51-2.11-3.38-2.11-5.6s.69-4.01,2.08-5.48c1.42-1.48,3.19-2.22,5.29-2.22,1.24,0,2.36.28,3.38.84,1.02.56,1.84,1.35,2.47,2.37ZM872.69,577.14c1.72,0,3.13-.61,4.24-1.83,1.11-1.22,1.66-2.71,1.66-4.49s-.55-3.18-1.66-4.38c-1.11-1.2-2.52-1.8-4.24-1.8s-3.09.6-4.18,1.8c-1.07,1.18-1.61,2.66-1.61,4.43s.54,3.28,1.61,4.46c1.09,1.2,2.48,1.8,4.18,1.8Z"/>
        <path class="cls-3" d="M889.42,562.79l5.84-4.96h1.33v20.47h-1.72v-18.09l-4.46,3.77-1-1.19Z"/>
      </g>
      <g>
        <path class="cls-2" d="M176.55,452.94l-10.16,10.87h21.5v10.63h-37.68v-9.62l17.98-18.84c2.19-2.29,3.41-3.6,3.67-3.91.68-.78,1.46-2.01,2.35-3.67.89-1.61,1.33-3.1,1.33-4.46,0-2.19-.76-3.97-2.27-5.36-1.51-1.38-3.41-2.07-5.71-2.07-4.07,0-8.39,2.14-12.98,6.41l-6.33-8.29c5.99-5.99,12.74-8.99,20.25-8.99,5.52,0,10.03,1.67,13.53,5,3.54,3.28,5.32,7.51,5.32,12.67,0,5.58-3.6,12.12-10.79,19.62Z"/>
        <path class="cls-2" d="M193.28,427.3v-10.63h37.68v7.97l-20.64,49.8h-12.12l19.86-47.14h-24.78Z"/>
        <path class="cls-2" d="M237.14,475.69c-1.83,0-3.36-.61-4.61-1.84s-1.88-2.75-1.88-4.57.63-3.26,1.88-4.46c1.25-1.2,2.79-1.8,4.61-1.8,1.72,0,3.19.6,4.42,1.8,1.22,1.2,1.84,2.68,1.84,4.46s-.61,3.35-1.84,4.57c-1.23,1.22-2.7,1.84-4.42,1.84Z"/>
        <path class="cls-2" d="M272.64,475.38c-5.16,0-9.54-1.41-13.13-4.22-6.83-5.37-10.24-13.92-10.24-25.64,0-5.58.81-10.53,2.42-14.85,1.67-4.53,4.33-8.17,7.97-10.91,3.65-2.74,7.97-4.1,12.98-4.1,3.13,0,5.99.52,8.6,1.56,2.61,1.04,4.81,2.49,6.61,4.34,1.8,1.85,3.32,4.04,4.57,6.57,1.25,2.53,2.16,5.25,2.74,8.17.57,2.92.86,5.99.86,9.23s-.29,6.31-.86,9.23c-.57,2.92-1.49,5.64-2.74,8.17-1.25,2.53-2.78,4.72-4.57,6.57-1.8,1.85-4,3.3-6.61,4.34-2.61,1.04-5.47,1.56-8.6,1.56ZM284.52,445.52c0-5.58-.99-10.14-2.97-13.68-1.98-3.54-4.95-5.32-8.91-5.32s-6.85,1.77-8.83,5.32c-1.98,3.55-2.97,8.11-2.97,13.68s1,10.4,3.01,13.84c2.01,3.44,4.94,5.16,8.8,5.16s6.8-1.72,8.83-5.16,3.05-8.05,3.05-13.84Z"/>
        <path class="cls-2" d="M323.22,437.23c5.47,0,10.09,1.72,13.84,5.16,3.75,3.44,5.63,7.92,5.63,13.45s-1.98,10.35-5.94,13.99c-4.01,3.7-9.23,5.55-15.64,5.55-7.04,0-13.5-2.14-19.39-6.41l4.61-9.23c4.9,3.34,9.64,5,14.23,5,3.18,0,5.72-.85,7.62-2.54,1.9-1.69,2.85-3.82,2.85-6.37s-.93-4.57-2.78-6.22c-1.85-1.64-4.18-2.46-7-2.46-3.65,0-6.83,1.28-9.54,3.83l-6.72-5.39,3.13-28.93h30.57v10.63h-21.97l-1.25,11.34c2.4-.94,4.98-1.41,7.74-1.41Z"/>
        <path class="cls-2" d="M355.28,475.69c-1.83,0-3.36-.61-4.61-1.84s-1.88-2.75-1.88-4.57.63-3.26,1.88-4.46c1.25-1.2,2.79-1.8,4.61-1.8,1.72,0,3.19.6,4.42,1.8,1.22,1.2,1.84,2.68,1.84,4.46s-.61,3.35-1.84,4.57c-1.23,1.22-2.7,1.84-4.42,1.84Z"/>
        <path class="cls-2" d="M395.15,452.94l-10.16,10.87h21.5v10.63h-37.68v-9.62l17.98-18.84c2.19-2.29,3.41-3.6,3.67-3.91.68-.78,1.46-2.01,2.35-3.67.89-1.61,1.33-3.1,1.33-4.46,0-2.19-.76-3.97-2.27-5.36-1.51-1.38-3.41-2.07-5.71-2.07-4.07,0-8.39,2.14-12.98,6.41l-6.33-8.29c5.99-5.99,12.74-8.99,20.25-8.99,5.52,0,10.03,1.67,13.53,5,3.54,3.28,5.32,7.51,5.32,12.67,0,5.58-3.6,12.12-10.79,19.62Z"/>
        <path class="cls-2" d="M437.13,475.38c-5.16,0-9.54-1.41-13.13-4.22-6.83-5.37-10.24-13.92-10.24-25.64,0-5.58.81-10.53,2.42-14.85,1.67-4.53,4.33-8.17,7.97-10.91,3.65-2.74,7.97-4.1,12.98-4.1,3.13,0,5.99.52,8.6,1.56,2.61,1.04,4.81,2.49,6.61,4.34,1.8,1.85,3.32,4.04,4.57,6.57,1.25,2.53,2.16,5.25,2.74,8.17.57,2.92.86,5.99.86,9.23s-.29,6.31-.86,9.23c-.57,2.92-1.49,5.64-2.74,8.17-1.25,2.53-2.78,4.72-4.57,6.57-1.8,1.85-4,3.3-6.61,4.34-2.61,1.04-5.47,1.56-8.6,1.56ZM449.02,445.52c0-5.58-.99-10.14-2.97-13.68-1.98-3.54-4.95-5.32-8.91-5.32s-6.85,1.77-8.83,5.32c-1.98,3.55-2.97,8.11-2.97,13.68s1,10.4,3.01,13.84c2.01,3.44,4.94,5.16,8.8,5.16s6.8-1.72,8.83-5.16,3.05-8.05,3.05-13.84Z"/>
        <path class="cls-2" d="M493.81,452.94l-10.16,10.87h21.5v10.63h-37.68v-9.62l17.98-18.84c2.19-2.29,3.41-3.6,3.67-3.91.68-.78,1.46-2.01,2.35-3.67.89-1.61,1.33-3.1,1.33-4.46,0-2.19-.76-3.97-2.27-5.36-1.51-1.38-3.41-2.07-5.71-2.07-4.07,0-8.39,2.14-12.98,6.41l-6.33-8.29c5.99-5.99,12.74-8.99,20.25-8.99,5.52,0,10.03,1.67,13.53,5,3.54,3.28,5.32,7.51,5.32,12.67,0,5.58-3.6,12.12-10.79,19.62Z"/>
        <path class="cls-2" d="M536.58,437.15c5.47,0,9.95,1.75,13.45,5.24,3.6,3.55,5.39,7.97,5.39,13.29,0,5.63-1.95,10.27-5.86,13.92-3.86,3.7-8.83,5.55-14.93,5.55-7.19,0-12.69-2.61-16.5-7.82-3.81-5.21-5.71-11.88-5.71-20.02,0-4.12.51-8.03,1.52-11.73,1.02-3.7,2.53-7.06,4.53-10.09,2.01-3.02,4.64-5.42,7.9-7.19,3.26-1.77,6.97-2.66,11.14-2.66,5.99,0,11.31,1.69,15.95,5.08l-5,8.68c-3.39-2.29-6.83-3.44-10.32-3.44-4.38,0-7.87,1.72-10.48,5.16-2.55,3.44-3.96,7.56-4.22,12.35,2.81-4.22,7.19-6.33,13.14-6.33ZM534.62,465.22c2.61,0,4.82-.91,6.65-2.74,1.82-1.82,2.74-4.04,2.74-6.65s-.89-4.77-2.66-6.49c-1.77-1.72-3.99-2.58-6.65-2.58s-4.89.86-6.68,2.58c-1.8,1.72-2.7,3.91-2.7,6.57s.89,4.87,2.66,6.65c1.77,1.77,3.99,2.66,6.65,2.66Z"/>
        <path class="cls-2" d="M568.17,475.69c-1.83,0-3.36-.61-4.61-1.84s-1.88-2.75-1.88-4.57.63-3.26,1.88-4.46c1.25-1.2,2.79-1.8,4.61-1.8,1.72,0,3.19.6,4.42,1.8,1.22,1.2,1.84,2.68,1.84,4.46s-.61,3.35-1.84,4.57c-1.23,1.22-2.7,1.84-4.42,1.84Z"/>
      </g>
      <g>
        <path class="cls-3" d="M264.38,536.81c-2.54,0-4.86-.61-6.96-1.84-2.09-1.23-3.68-2.97-4.77-5.24l3.44-2.84c1.86,3.66,4.61,5.49,8.24,5.49,1.92,0,3.46-.5,4.61-1.49,1.15-.99,1.72-2.23,1.72-3.72,0-1.83-1.19-3.43-3.58-4.79-.43-.22-1.61-.78-3.54-1.68-1.58-.71-2.87-1.36-3.86-1.95-3.44-2.17-5.17-4.9-5.17-8.19,0-2.64.95-4.84,2.84-6.61,1.89-1.8,4.41-2.7,7.54-2.7,4.28,0,7.65,1.69,10.1,5.07l-3.12,2.98c-1.86-2.45-4.17-3.68-6.93-3.68-1.58,0-2.89.43-3.91,1.28s-1.54,1.98-1.54,3.37c0,1.8.98,3.27,2.93,4.42.81.5,2.14,1.18,4,2.05,1.95.93,3.4,1.66,4.33,2.19,3.32,2.02,4.98,4.69,4.98,8,0,2.95-1.09,5.32-3.26,7.12-2.17,1.83-4.87,2.75-8.1,2.75Z"/>
        <path class="cls-3" d="M285.02,536.25h-4.47v-24.94h4.23v3.68c1.46-2.89,3.85-4.33,7.17-4.33.9,0,1.88.12,2.93.37l-.42,4.33c-.9-.28-1.77-.42-2.61-.42-2.05,0-3.7.7-4.96,2.09-1.26,1.4-1.88,3.4-1.88,6v13.22Z"/>
        <path class="cls-3" d="M300.5,507.77c-.93,0-1.71-.3-2.33-.91-.62-.6-.93-1.37-.93-2.3s.31-1.64.93-2.23c.62-.59,1.4-.88,2.33-.88.87,0,1.61.3,2.23.91.62.6.93,1.34.93,2.21,0,.93-.31,1.7-.93,2.3-.62.61-1.37.91-2.23.91ZM302.64,511.31v24.94h-4.47v-24.94h4.47Z"/>
        <path class="cls-3" d="M305.8,546.91c-1.86,0-3.33-.34-4.42-1.02l.88-3.72c1.21.43,2.22.65,3.02.65,2.85,0,4.28-1.71,4.28-5.12v-26.39h4.47v26.11c0,3.04-.73,5.38-2.19,7.03-1.46,1.64-3.48,2.47-6.05,2.47ZM311.85,507.77c-.93,0-1.71-.3-2.33-.91-.62-.6-.93-1.37-.93-2.3s.31-1.64.93-2.23c.62-.59,1.4-.88,2.33-.88.87,0,1.61.3,2.23.91.62.6.93,1.34.93,2.21,0,.93-.31,1.7-.93,2.3-.62.61-1.37.91-2.23.91Z"/>
        <path class="cls-3" d="M343.51,523.31c0,.31-.05,1.07-.14,2.28h-19.87c.4,2.2,1.33,3.94,2.79,5.21,1.46,1.27,3.44,1.91,5.96,1.91,1.49,0,3.02-.26,4.61-.77s2.95-1.19,4.1-2.02l1.91,3.4c-1.3.99-2.92,1.82-4.84,2.49-1.92.67-3.88,1-5.86,1-2.27,0-4.27-.37-6.03-1.12-1.75-.74-3.14-1.75-4.17-3.02-1.02-1.27-1.8-2.67-2.33-4.19-.53-1.52-.79-3.12-.79-4.79,0-3.72,1.16-6.82,3.49-9.31,2.36-2.45,5.4-3.68,9.12-3.68s6.42,1.13,8.66,3.4c2.26,2.27,3.4,5.34,3.4,9.21ZM323.5,521.73h15.4c-.12-2.14-.88-3.85-2.26-5.14-1.38-1.29-3.11-1.93-5.19-1.93s-3.75.66-5.21,1.98c-1.46,1.32-2.37,3.02-2.75,5.1Z"/>
        <path class="cls-3" d="M368.21,514.93v-13.91h4.47v35.23h-4.47v-3.49c-2.17,2.73-5.06,4.1-8.66,4.1s-6.64-1.26-9.03-3.77c-2.36-2.54-3.54-5.66-3.54-9.35s1.18-6.73,3.54-9.21c2.36-2.54,5.34-3.82,8.94-3.82s6.48,1.41,8.75,4.23ZM368.54,523.73c0-2.51-.79-4.62-2.37-6.33-1.55-1.74-3.6-2.61-6.14-2.61s-4.61.87-6.19,2.61c-1.55,1.74-2.33,3.85-2.33,6.33s.78,4.69,2.33,6.42c1.58,1.74,3.65,2.61,6.19,2.61s4.59-.87,6.14-2.61c1.58-1.71,2.37-3.85,2.37-6.42Z"/>
        <path class="cls-3" d="M398.89,514.93v-3.63h4.28v24.94h-4.28v-3.54c-2.23,2.76-5.17,4.14-8.8,4.14s-6.58-1.27-8.94-3.82c-2.36-2.54-3.54-5.69-3.54-9.45s1.18-6.83,3.54-9.21c2.36-2.45,5.34-3.68,8.94-3.68s6.47,1.41,8.8,4.23ZM399.17,523.73c0-2.51-.79-4.62-2.37-6.33-1.58-1.74-3.65-2.61-6.19-2.61s-4.59.87-6.14,2.61c-1.55,1.74-2.33,3.86-2.33,6.38s.78,4.64,2.33,6.38c1.55,1.74,3.6,2.61,6.14,2.61s4.61-.87,6.19-2.61c1.58-1.71,2.37-3.85,2.37-6.42Z"/>
        <path class="cls-3" d="M410.52,532.57c.71,0,1.3.26,1.77.79.47.53.7,1.18.7,1.95,0,2.36-1.63,4.56-4.89,6.61l-.88-1.26c2.02-1.43,3.24-2.73,3.68-3.91-.25.12-.51.19-.79.19-.53,0-.99-.21-1.4-.63-.4-.42-.6-.91-.6-1.47,0-.62.23-1.16.7-1.61.47-.45,1.04-.67,1.72-.67Z"/>
        <path class="cls-3" d="M427.13,510.14l10.01-8.28h4.14v34.39h-5.31v-27.18l-5.96,4.84-2.89-3.77Z"/>
        <path class="cls-3" d="M467.16,535.27c-1.83,1.02-3.91,1.54-6.24,1.54s-4.41-.51-6.24-1.54c-3.16-1.83-5.37-5.09-6.61-9.77-.47-2.14-.7-4.3-.7-6.49s.23-4.32.7-6.4c.47-2.08,1.26-3.99,2.4-5.72,1.13-1.74,2.54-3.1,4.21-4.1,1.8-1.02,3.88-1.54,6.24-1.54s4.41.51,6.24,1.54c3.26,1.8,5.44,5.06,6.56,9.77,1.12,4.31,1.12,8.62,0,12.94-1.12,4.72-3.3,7.97-6.56,9.77ZM460.93,531.78c2.76,0,4.81-1.18,6.14-3.54,1.36-2.39,2.05-5.46,2.05-9.21s-.68-6.78-2.05-9.17c-1.37-2.39-3.41-3.58-6.14-3.58s-4.78,1.19-6.14,3.58c-1.33,2.36-2,5.41-2,9.17-.06,3.72.6,6.77,1.98,9.14,1.38,2.37,3.44,3.58,6.17,3.61Z"/>
        <path class="cls-3" d="M498.51,525.78h-18.34v-4.84h18.34v4.84Z"/>
        <path class="cls-3" d="M499.04,510.14l10.01-8.28h4.14v34.39h-5.31v-27.18l-5.96,4.84-2.89-3.77Z"/>
        <path class="cls-3" d="M531.47,536.81c-3.69,0-6.7-.93-9.03-2.79-2.33-1.86-3.49-4.22-3.49-7.07,0-1.92.6-3.7,1.82-5.33,1.21-1.63,2.82-2.82,4.84-3.56v-.09c-1.61-.78-2.89-1.83-3.82-3.17-.93-1.33-1.4-2.82-1.4-4.47,0-2.64,1.02-4.81,3.07-6.52,2.02-1.71,4.68-2.56,8-2.56s5.93.85,7.91,2.56c2.05,1.71,3.07,3.88,3.07,6.52,0,1.65-.47,3.14-1.4,4.49-.93,1.35-2.22,2.4-3.86,3.14v.14c2.05.71,3.68,1.88,4.89,3.49s1.81,3.4,1.81,5.35c0,2.85-1.16,5.21-3.49,7.07-2.27,1.86-5.24,2.79-8.94,2.79ZM531.47,532.11c2.08,0,3.78-.55,5.12-1.65,1.33-1.1,2-2.5,2-4.21s-.66-3.04-1.98-4.09c-1.32-1.05-3.05-1.58-5.19-1.58s-3.87.53-5.19,1.58c-1.32,1.05-1.98,2.42-1.98,4.09s.67,3.11,2,4.21c1.33,1.1,3.07,1.65,5.21,1.65ZM535.75,514.52c1.09-.96,1.63-2.19,1.63-3.68s-.55-2.71-1.65-3.68c-1.1-.96-2.54-1.44-4.3-1.44s-3.26.48-4.37,1.44c-1.12.96-1.68,2.19-1.68,3.68s.56,2.72,1.68,3.68c1.12.96,2.57,1.44,4.37,1.44s3.24-.48,4.33-1.44Z"/>
        <path class="cls-3" d="M554.08,536.25h-5.12v-35.28h4.98v13.36c.74-1.18,1.82-2.11,3.23-2.79,1.41-.68,2.99-1.02,4.72-1.02,2.76,0,5.09.9,6.98,2.7,1.89,1.8,2.84,4.39,2.84,7.77v15.26h-5.12v-13.82c0-2.26-.54-4.03-1.63-5.28-1.09-1.26-2.54-1.88-4.37-1.88-1.92,0-3.49.67-4.7,2s-1.81,3.07-1.81,5.21v13.78Z"/>
      </g>
      <rect class="cls-2" x="614.37" y="416.66" width="3.4" height="161.64"/>
    </g>
  </g>
</svg>