<svg width="398" height="358" viewBox="0 0 398 358" fill="none" xmlns="http://www.w3.org/2000/svg">
<path d="M305.463 58.2906V58.3171C305.463 58.3171 305.49 58.2906 305.499 58.2861H305.463V58.2906Z" fill="#E7C81D"/>
<path d="M397.132 158.593L381.903 53.9913C381.061 48.3278 376.395 44.3034 371.495 45.0177L308.474 54.2065C303.611 54.9436 300.299 60.1309 301.095 65.7668L304.901 91.9139L295.889 93.2279C292.188 93.7682 289.677 97.6964 290.299 101.977L295.647 138.732C296.269 143.018 299.8 146.067 303.501 145.522L312.514 144.208L316.324 170.383C317.166 176.019 321.818 180.038 326.7 179.342L389.707 170.158C394.611 169.449 397.942 164.261 397.132 158.589V158.593ZM297.833 101.748L306.159 100.535L311.274 135.697L302.948 136.91L297.833 101.748ZM305.5 58.2858C305.5 58.2858 305.478 58.3041 305.468 58.3178V58.2904L305.5 58.2858Z" fill="#E7C81D"/>
<path d="M305.5 58.2861C305.5 58.2861 305.477 58.3041 305.468 58.3176V58.2906L305.5 58.2861Z" fill="#E7C81D"/>
<g filter="url(#filter0_d_88_427)">
<path d="M285.751 110.63C271.002 123.857 260.325 126.87 252.525 126.614C246.839 126.389 241.766 124.393 236.729 120.895C229.222 115.708 222.524 106.972 218.11 99.4958C216.074 96.0895 214.509 93.0083 213.411 90.6779C212.4 86.3193 210.301 82.446 206.888 79.5845C199.66 73.5136 188.141 70.3911 175.931 73.4586C182.354 76.604 187.162 79.7768 189.994 81.8416L190.309 82.0705L190.387 82.1301L190.511 82.2216C197.995 88.0682 199.331 98.9144 193.493 106.405C190.108 110.749 184.792 113.222 179.284 113.02C175.661 112.888 172.225 111.638 169.353 109.403L169.046 109.188C168.735 108.959 168.159 108.566 167.376 108.071C165.853 107.091 163.392 105.617 160.144 104.079C155.875 102.037 149.75 99.6652 142.577 98.4794C124.191 119.146 113.866 137.624 103.115 168.249C98.1518 186.796 103.875 197.766 112.526 205.009C109.607 212.16 105.512 220.708 99.8536 229.801C84.9583 253.663 59.953 281.188 16.3149 299.278C5.32644 303.815 0.0975478 316.41 4.63566 327.402C7.95689 335.451 15.5921 340.414 23.7534 340.712C26.7406 340.822 29.7965 340.304 32.7381 339.087C87.3921 316.575 119.978 280.149 138.162 249.657C145.706 237.044 150.903 225.438 154.434 216.02C156.557 216.72 158.684 217.49 160.738 218.359C167.532 221.139 173.328 224.861 176.366 228.235C177.921 229.924 178.863 231.444 179.476 232.96C180.066 234.498 180.423 236.096 180.35 238.587C180.231 242.025 179.051 247.446 174.975 255.115C170.922 262.761 164.014 272.467 153.35 283.926C145.258 292.634 145.747 306.264 154.453 314.363C158.387 318.026 163.328 319.931 168.309 320.114C174.339 320.334 180.432 318.031 184.861 313.26C197.382 299.772 206.572 287.346 212.963 275.351C219.322 263.383 222.927 251.663 223.357 240.157C223.682 231.724 222.167 223.524 219.18 216.34C213.915 203.667 204.779 194.676 195.52 188.344C192.253 186.132 188.932 184.196 185.606 182.47C187.235 181.362 188.854 180.231 190.465 179.068C196.142 167.782 203.105 148.819 207.926 131.929C211.673 136.022 215.969 139.992 220.932 143.476C229.194 149.281 239.593 153.727 251.51 154.152H251.606C264.497 154.629 278.139 150.316 291.95 140.82L287.33 109.399C286.781 109.77 286.245 110.163 285.742 110.617L285.751 110.63ZM176.26 170.699C176.013 173.057 175.698 175.433 175.355 177.813C172.697 176.76 170.08 175.826 167.523 174.993C176.919 158.278 188.969 142.684 198.859 129.763C192.921 144.249 185.341 157.985 176.256 170.699H176.26Z" fill="#897D4A"/>
</g>
<g filter="url(#filter1_d_88_427)">
<path d="M305.747 112.292C305.569 112.068 305.395 111.839 305.203 111.624C304.014 110.305 302.623 109.284 301.127 108.538L304.416 130.89C305.926 129.466 307.037 127.781 307.76 125.968L305.752 112.297L305.747 112.292Z" fill="#897D4A"/>
</g>
<g filter="url(#filter2_d_88_427)">
<path d="M209.042 17.3141C195.552 33.9244 198.077 58.3363 214.669 71.8333C231.266 85.3349 255.659 82.8122 269.145 66.2019C282.636 49.587 280.111 25.1797 263.513 11.6827C246.916 -1.81892 222.524 0.703758 209.038 17.3141H209.042Z" fill="#897D4A"/>
</g>
<path d="M169.225 105.155C170.08 105.7 170.711 106.135 171.087 106.405C171.279 106.542 171.407 106.634 171.466 106.679C177.459 111.345 186.105 110.278 190.781 104.28C195.461 98.2781 194.39 89.6158 188.393 84.9322C187.208 84.1584 167.029 68.0517 136.525 66.7423C124.996 66.3074 112.009 68.2394 98.8428 74.2005C85.6676 80.1432 72.4422 90.0325 59.9944 104.802C55.0812 110.617 55.8177 119.311 61.6321 124.224C64.0796 126.293 67.0394 127.36 70.0084 127.47C74.0891 127.621 78.1971 125.954 81.0426 122.589C91.2671 110.484 101.112 103.433 110.179 99.3266C119.26 95.2381 127.691 94.0202 135.523 94.2904C145.807 94.6521 155.052 97.8157 161.631 100.956C164.915 102.518 167.518 104.056 169.225 105.15V105.155Z" fill="#897D4A"/>
<defs>
<filter id="filter0_d_88_427" x="0" y="69.2637" width="308.95" height="288.462" filterUnits="userSpaceOnUse" color-interpolation-filters="sRGB">
<feFlood flood-opacity="0" result="BackgroundImageFix"/>
<feColorMatrix in="SourceAlpha" type="matrix" values="0 0 0 0 0 0 0 0 0 0 0 0 0 0 0 0 0 0 127 0" result="hardAlpha"/>
<feOffset dx="7" dy="7"/>
<feGaussianBlur stdDeviation="5"/>
<feColorMatrix type="matrix" values="0 0 0 0 0 0 0 0 0 0 0 0 0 0 0 0 0 0 0.75 0"/>
<feBlend mode="normal" in2="BackgroundImageFix" result="effect1_dropShadow_88_427"/>
<feBlend mode="normal" in="SourceGraphic" in2="effect1_dropShadow_88_427" result="shape"/>
</filter>
<filter id="filter1_d_88_427" x="298.127" y="105.538" width="26.6333" height="42.3516" filterUnits="userSpaceOnUse" color-interpolation-filters="sRGB">
<feFlood flood-opacity="0" result="BackgroundImageFix"/>
<feColorMatrix in="SourceAlpha" type="matrix" values="0 0 0 0 0 0 0 0 0 0 0 0 0 0 0 0 0 0 127 0" result="hardAlpha"/>
<feOffset dx="7" dy="7"/>
<feGaussianBlur stdDeviation="5"/>
<feColorMatrix type="matrix" values="0 0 0 0 0 0 0 0 0 0 0 0 0 0 0 0 0 0 0.75 0"/>
<feBlend mode="normal" in2="BackgroundImageFix" result="effect1_dropShadow_88_427"/>
<feBlend mode="normal" in="SourceGraphic" in2="effect1_dropShadow_88_427" result="shape"/>
</filter>
<filter id="filter2_d_88_427" x="197.368" y="0" width="97.4507" height="97.5161" filterUnits="userSpaceOnUse" color-interpolation-filters="sRGB">
<feFlood flood-opacity="0" result="BackgroundImageFix"/>
<feColorMatrix in="SourceAlpha" type="matrix" values="0 0 0 0 0 0 0 0 0 0 0 0 0 0 0 0 0 0 127 0" result="hardAlpha"/>
<feOffset dx="7" dy="7"/>
<feGaussianBlur stdDeviation="5"/>
<feColorMatrix type="matrix" values="0 0 0 0 0 0 0 0 0 0 0 0 0 0 0 0 0 0 0.75 0"/>
<feBlend mode="normal" in2="BackgroundImageFix" result="effect1_dropShadow_88_427"/>
<feBlend mode="normal" in="SourceGraphic" in2="effect1_dropShadow_88_427" result="shape"/>
</filter>
</defs>
</svg>
