<svg width="740" height="249" viewBox="0 0 740 249" fill="none" xmlns="http://www.w3.org/2000/svg">
<path d="M292.385 82.5103C286.194 82.5103 280.504 81.4972 275.309 79.4745C270.118 77.4519 265.588 74.5628 261.734 70.821C257.876 67.0793 254.877 62.7235 252.735 57.7538C250.597 52.7909 249.526 47.2891 249.526 41.2552C249.526 35.2213 250.597 29.7195 252.735 24.7566C254.874 19.7869 257.893 15.438 261.792 11.6894C265.687 7.94758 270.23 5.06535 275.425 3.03585C280.617 1.01318 286.313 0.000137329 292.497 0.000137329C299.067 0.000137329 305.067 1.12915 310.49 3.38036C315.91 5.63497 320.494 8.98109 324.24 13.4085L314.611 22.4644C311.633 19.3298 308.348 16.9797 304.76 15.4141C301.164 13.8519 297.31 13.064 293.183 13.064C289.055 13.064 285.143 13.753 281.664 15.1276C278.185 16.5022 275.169 18.4532 272.615 20.9739C270.053 23.4945 268.047 26.4757 266.598 29.9139C265.141 33.3521 264.418 37.128 264.418 41.2552C264.418 45.3824 265.145 49.1617 266.598 52.5965C268.047 56.0347 270.053 59.0159 272.615 61.5365C275.169 64.0572 278.188 66.0082 281.664 67.3828C285.143 68.7574 288.977 69.4464 293.183 69.4464C297.389 69.4464 301.164 68.6619 304.76 67.0963C308.348 65.5307 311.636 63.1431 314.611 59.9334L324.24 68.9826C320.494 73.4133 315.91 76.7765 310.49 79.0686C305.063 81.3608 299.029 82.5068 292.385 82.5068V82.5103Z" fill="white"/>
<path d="M376.264 1.15303H361.593L325.498 81.3642H340.742L348.714 62.8054H388.833L396.774 81.3642H412.472L376.264 1.15303ZM353.735 51.1196L368.811 16.0144L383.83 51.1196H353.735Z" fill="white"/>
<path d="M472.757 55.0592C473.163 54.9091 473.562 54.7317 473.951 54.5578C479.033 52.2656 482.949 49.0116 485.702 44.8128C488.455 40.6139 489.822 35.5692 489.822 29.6819C489.822 23.7947 488.455 18.6067 485.702 14.3294C482.949 10.0589 479.037 6.78786 473.951 4.53665C468.876 2.28545 462.78 1.15643 455.678 1.15643H422.67V81.3676H437.57V57.996H455.675C456.743 57.996 457.79 57.9721 458.81 57.9175L475.159 81.371H491.197L472.757 55.0626V55.0592ZM469.827 41.4871C466.501 44.3182 461.552 45.7269 454.989 45.7269H437.566V13.753H454.989C461.552 13.753 466.501 15.1514 469.827 17.9381C473.146 20.7317 474.807 24.644 474.807 29.6785C474.807 34.713 473.146 38.6595 469.827 41.4837V41.4871Z" fill="white"/>
<path d="M565.359 68.7643V69.9717C560.529 73.2496 555.995 77.0528 551.834 81.3642H506.434V1.15303H564.994V13.753H521.333V34.5016H560.068V46.7604H521.333V68.7643H565.359Z" fill="white"/>
<path d="M596.965 34.5016V46.7604H636.846V34.5016H596.965ZM583.208 1.15303V60.6428C588.045 58.7907 593.032 57.3718 598.107 56.4031V13.753H641.768V1.15303H583.208Z" fill="white"/>
<path d="M710.073 55.0592C710.479 54.9091 710.878 54.7317 711.266 54.5578C716.349 52.2656 720.265 49.0116 723.017 44.8128C725.77 40.6139 727.145 35.5692 727.145 29.6819C727.145 23.7947 725.77 18.6067 723.017 14.3294C720.265 10.0589 716.352 6.78786 711.266 4.53665C706.191 2.28545 700.096 1.15643 692.994 1.15643H659.986V67.6318C661.695 68.6756 663.376 69.7807 665.031 70.9575C668.564 73.4645 671.849 76.183 674.888 79.0891V57.9994H692.994C694.062 57.9994 695.102 57.9755 696.129 57.9209L712.477 81.3744H728.516L710.076 55.066L710.073 55.0592ZM707.146 41.4871C703.82 44.3182 698.871 45.7269 692.308 45.7269H674.885V13.753H692.308C698.871 13.753 703.82 15.1514 707.146 17.9382C710.472 20.7317 712.126 24.644 712.126 29.6785C712.126 34.713 710.472 38.6595 707.146 41.4837V41.4871Z" fill="white"/>
<path d="M257.842 214.291V114.825H301.461C312.069 114.825 321.473 116.885 329.67 121.006C337.863 125.13 344.232 130.928 348.778 138.415C353.325 145.899 355.6 154.614 355.6 164.56C355.6 174.506 353.325 183.221 348.778 190.701C344.232 198.188 337.86 203.99 329.67 208.11C321.473 212.234 312.069 214.291 301.461 214.291H257.842ZM276.315 198.659H300.325C307.809 198.659 314.273 197.24 319.72 194.399C325.168 191.557 329.428 187.577 332.508 182.46C335.588 177.347 337.126 171.378 337.126 164.56C337.126 157.741 335.588 151.534 332.508 146.513C329.428 141.495 325.168 137.559 319.72 134.718C314.273 131.876 307.809 130.457 300.325 130.457H276.315V198.662V198.659Z" fill="white"/>
<path d="M422.67 114.825H404.483L359.717 214.291H378.621L388.509 191.267H438.255L448.103 214.291H467.569L422.67 114.825ZM394.731 176.781L413.433 133.251L432.057 176.781H394.731Z" fill="white"/>
<path d="M528.445 156.78L517.021 178.371V214.288H498.691V179.142L459.615 114.822H479.224L508.627 163.23L527.855 131.44C526.814 139.906 527.026 148.44 528.445 156.776V156.78Z" fill="white"/>
<path d="M737.749 235.984C737.63 235.872 737.511 235.763 737.384 235.657L686.206 192.618L685.698 192.666C711.099 156.875 705.707 108.515 674.885 79.0823C671.846 76.1796 668.561 73.4576 665.027 70.9506C663.373 69.7739 661.695 68.6687 659.982 67.625C640.881 55.9392 618.798 52.4464 598.104 56.3996C593.028 57.3718 588.041 58.7873 583.205 60.6394C576.959 63.0339 570.963 66.1446 565.352 69.9717C560.522 73.2496 555.988 77.0528 551.827 81.3642C548.771 84.5158 545.923 87.9336 543.306 91.6174C534.625 103.846 529.543 117.537 527.848 131.44C526.808 139.906 527.019 148.44 528.438 156.776C532.183 178.797 544.326 199.385 563.974 213.329C598.81 238.045 646.414 233.934 676.485 203.608C676.485 203.608 676.515 203.966 676.532 204.109L727.711 247.148C730.774 249.751 735.365 249.376 737.964 246.306C737.981 246.299 737.988 246.282 738.005 246.265C740.775 243.352 740.656 238.747 737.743 235.978L737.749 235.984ZM620.838 214.41C580.807 217.872 545.558 188.221 542.096 148.191C538.633 108.167 568.285 72.9119 608.309 69.4566C648.341 65.9946 683.59 95.6389 687.052 135.669C690.514 175.7 660.869 210.948 620.838 214.41Z" fill="#EAC31B"/>
<path d="M191.686 91.4434L207.673 72.9221C209.771 78.9458 211.312 85.1162 212.288 91.4434H191.682H191.686ZM213.437 103.525V107.87C213.437 133.824 203.982 158.905 186.832 178.381C169.685 197.857 146.019 210.433 120.273 213.749C94.5273 217.027 68.4606 210.815 46.9578 196.295C25.4516 181.775 9.97939 159.897 3.44395 134.779C-3.09831 109.624 -0.25696 82.9809 11.4325 59.8106C23.1185 36.6368 42.8544 18.5316 66.9427 8.85146C91.0311 -0.828727 117.817 -1.40176 142.291 7.25174C166.765 15.9018 187.241 33.2054 199.896 55.8471H171.489V67.9661H192.91L170.674 93.7322V103.603L213.437 103.528V103.525ZM112.991 55.8471H70.0467V68.2355H83.5883V103.528H99.3709V68.2355H112.988V55.8471H112.991ZM168.276 55.8471H152.163L142.366 87.1388L132.498 55.8471H115.617L133.723 103.525H150.044L168.28 55.8471H168.276Z" fill="white"/>
<path d="M653.631 115.463H634.697V105.735C634.697 102.966 632.166 100.707 629.072 100.707H602.446C599.342 100.707 596.821 102.966 596.821 105.735V115.463H577.863C573.784 115.48 570.448 118.454 570.434 122.104V169.192C570.434 172.859 573.767 175.85 577.873 175.857H653.631C655.906 175.85 657.943 174.932 659.304 173.486C660.409 172.323 661.07 170.829 661.07 169.199V122.097C661.047 118.454 657.714 115.48 653.631 115.463ZM628.451 115.463H602.985V106.243H628.451V115.463Z" fill="white"/>
</svg>
