<svg width="593" height="116" viewBox="0 0 593 116" fill="none" xmlns="http://www.w3.org/2000/svg">
<g clip-path="url(#clip0_1_727)">
<path d="M349.88 40.4147H341.912V0.697327H349.88V16.5505H366.572V0.697327H374.54V40.4147H366.572V24.2367H349.88V40.4147Z" fill="#E7C81D"/>
<path d="M379.825 25.7428C379.825 21.4093 381.295 17.77 384.24 14.8312C387.219 11.8223 390.989 10.3162 395.547 10.3162C400.105 10.3162 403.875 11.8223 406.855 14.8312C409.799 17.77 411.269 21.4061 411.269 25.7428C411.269 30.0794 409.796 33.7697 406.855 36.7053C403.914 39.641 400.105 41.1661 395.547 41.1661C390.989 41.1661 387.219 39.6792 384.24 36.7053C381.295 33.7665 379.825 30.1144 379.825 25.7428ZM389.732 31.7096C391.276 33.3207 393.212 34.1295 395.547 34.1295C397.882 34.1295 399.729 33.3239 401.308 31.7096C402.887 30.0253 403.678 28.0384 403.678 25.7428C403.678 23.4471 402.887 21.4794 401.308 19.8301C399.729 18.2189 397.809 17.4102 395.547 17.4102C393.286 17.4102 391.276 18.2158 389.732 19.8301C388.188 21.4061 387.416 23.377 387.416 25.7428C387.416 28.1085 388.188 30.0603 389.732 31.7096Z" fill="#E7C81D"/>
<path d="M439.76 18.6488C442.165 19.2601 444.021 20.486 445.332 22.3295C446.643 24.1762 447.297 26.3509 447.297 28.8599C447.297 32.1554 446.149 34.8968 443.852 37.0842C441.555 39.3067 438.503 40.4179 434.698 40.4179H416.555V0.697327H433.891C437.444 0.697327 440.206 1.68437 442.184 3.65209C444.193 5.65802 445.198 7.96962 445.198 10.5837C445.198 12.3381 444.694 13.9779 443.689 15.4998C442.685 17.0218 441.374 18.0725 439.76 18.6424V18.6488ZM432.545 7.63211H424.414V16.2863H432.222C433.801 16.2863 435.039 15.8564 435.938 14.9967C436.835 14.1371 437.284 13.08 437.284 11.8255C437.284 10.6442 436.854 9.64759 435.993 8.84204C435.131 8.03648 433.983 7.63211 432.548 7.63211H432.545ZM424.417 33.429H433.138C434.969 33.429 436.414 32.9291 437.473 31.923C438.532 30.92 439.061 29.6846 439.061 28.2136C439.061 26.7426 438.541 25.4562 437.501 24.4501C436.458 23.4471 435.007 22.944 433.141 22.944H424.42V33.4258L424.417 33.429Z" fill="#E7C81D"/>
<path d="M349.035 82.9022H340.381V59.2609H349.322C352.76 59.2609 355.452 60.3275 357.398 62.4608C359.385 64.5941 360.377 67.482 360.377 71.1309C360.377 74.7797 359.363 77.604 357.334 79.7373C355.306 81.8483 352.537 82.9054 349.035 82.9054V82.9022ZM344.065 62.7824V79.387H349.194C351.5 79.387 353.296 78.6101 354.578 77.0531C355.88 75.4962 356.534 73.4902 356.534 71.0385C356.534 68.5868 355.883 66.6764 354.578 65.1195C353.296 63.5625 351.513 62.7856 349.226 62.7856H344.065V62.7824Z" fill="white"/>
<path d="M370.565 77.9765L375.5 65.6607H379.378L371.816 82.8703H369.251L361.688 65.6607H365.599L370.565 77.9765Z" fill="white"/>
<path d="M379.487 74.2671C379.487 71.7708 380.342 69.6407 382.051 67.8704C383.783 66.1001 385.972 65.215 388.622 65.215C391.273 65.215 393.451 66.1001 395.161 67.8704C396.893 69.6185 397.758 71.7517 397.758 74.2671C397.758 76.7825 396.893 78.9795 395.161 80.7307C393.474 82.4787 391.295 83.3543 388.622 83.3543C385.949 83.3543 383.783 82.4787 382.051 80.7307C380.342 78.9604 379.487 76.808 379.487 74.2671ZM394.195 74.2671C394.195 72.6878 393.649 71.3346 392.561 70.2043C391.515 69.0517 390.201 68.4754 388.619 68.4754C387.037 68.4754 385.735 69.0517 384.645 70.2043C383.576 71.3346 383.043 72.6878 383.043 74.2671C383.043 75.8464 383.576 77.2314 384.645 78.3618C385.735 79.4921 387.059 80.0557 388.619 80.0557C390.179 80.0557 391.493 79.4921 392.561 78.3618C393.652 77.2314 394.195 75.8655 394.195 74.2671Z" fill="white"/>
<path d="M404.252 82.9022H400.727V65.6576H404.092V68.122C405.116 66.1829 406.753 65.2118 408.995 65.2118C409.722 65.2118 410.405 65.3073 411.046 65.4984L410.727 68.9212C410.15 68.7078 409.518 68.6028 408.835 68.6028C407.445 68.6028 406.335 69.0708 405.502 70.0101C404.67 70.9494 404.252 72.3026 404.252 74.0729V82.9022Z" fill="white"/>
<path d="M426.216 68.0583V65.6575H429.613V82.9021H426.216V80.5332C424.656 82.3895 422.691 83.3161 420.318 83.3161C417.818 83.3161 415.757 82.4405 414.133 80.6924C412.51 78.9444 411.697 76.7697 411.697 74.1652C411.697 71.5607 412.507 69.4529 414.133 67.7685C415.757 66.0842 417.818 65.2404 420.318 65.2404C422.688 65.2404 424.656 66.1797 426.216 68.0551V68.0583ZM420.8 80.0875C422.401 80.0875 423.738 79.5239 424.806 78.3904C425.853 77.2824 426.376 75.9069 426.376 74.2639C426.376 72.621 425.853 71.2773 424.806 70.1693C423.738 69.0389 422.401 68.4722 420.8 68.4722C419.199 68.4722 417.821 69.0389 416.794 70.1693C415.77 71.2773 415.256 72.6528 415.256 74.2958C415.256 75.9387 415.77 77.3142 416.794 78.4222C417.821 79.5303 419.154 80.0843 420.8 80.0843V80.0875Z" fill="white"/>
<path d="M437.103 82.9022H433.578V65.6576H437.039V68.0901C437.552 67.1954 438.289 66.4918 439.249 65.9791C440.209 65.4665 441.3 65.2118 442.519 65.2118C444.42 65.2118 446.021 65.8295 447.326 67.0681C448.649 68.3258 449.313 70.1056 449.313 72.4108V82.9054H445.756V73.4043C445.756 71.8473 445.383 70.6374 444.634 69.7745C443.884 68.9116 442.882 68.4786 441.623 68.4786C440.299 68.4786 439.214 68.9435 438.369 69.87C437.524 70.7966 437.103 71.9969 437.103 73.4679V82.9054V82.9022Z" fill="white"/>
<path d="M466.662 68.0583V65.6575H470.059V82.9021H466.662V80.5332C465.102 82.3895 463.137 83.3161 460.764 83.3161C458.263 83.3161 456.203 82.4405 454.579 80.6924C452.956 78.9444 452.142 76.7697 452.142 74.1652C452.142 71.5607 452.952 69.4529 454.579 67.7685C456.203 66.0842 458.263 65.2404 460.764 65.2404C463.134 65.2404 465.102 66.1797 466.662 68.0551V68.0583ZM461.246 80.0875C462.847 80.0875 464.183 79.5239 465.252 78.3904C466.298 77.2824 466.821 75.9069 466.821 74.2639C466.821 72.621 466.298 71.2773 465.252 70.1693C464.183 69.0389 462.847 68.4722 461.246 68.4722C459.644 68.4722 458.266 69.0389 457.239 70.1693C456.215 71.2773 455.702 72.6528 455.702 74.2958C455.702 75.9387 456.215 77.3142 457.239 78.4222C458.266 79.5303 459.6 80.0843 461.246 80.0843V80.0875Z" fill="white"/>
<path d="M502.269 82.9022H497.717L489.963 72.8566L486.821 76.601V82.9022H483.137V59.2609H486.821V71.5766L497.076 59.2609H501.5L492.368 70.2648L502.272 82.9022H502.269Z" fill="white"/>
<path d="M501.493 74.2671C501.493 71.7708 502.348 69.6407 504.058 67.8704C505.79 66.1001 507.978 65.215 510.629 65.215C513.279 65.215 515.458 66.1001 517.168 67.8704C518.9 69.6185 519.764 71.7517 519.764 74.2671C519.764 76.7825 518.9 78.9795 517.168 80.7307C515.48 82.4787 513.302 83.3543 510.629 83.3543C507.956 83.3543 505.79 82.4787 504.058 80.7307C502.348 78.9604 501.493 76.808 501.493 74.2671ZM516.204 74.2671C516.204 72.6878 515.659 71.3346 514.571 70.2043C513.525 69.0517 512.211 68.4754 510.629 68.4754C509.047 68.4754 507.745 69.0517 506.654 70.2043C505.586 71.3346 505.053 72.6878 505.053 74.2671C505.053 75.8464 505.586 77.2314 506.654 78.3618C507.745 79.4921 509.069 80.0557 510.629 80.0557C512.189 80.0557 513.503 79.4921 514.571 78.3618C515.662 77.2314 516.204 75.8655 516.204 74.2671Z" fill="white"/>
<path d="M526.262 82.9022H522.737V65.6576H526.102V68.122C527.126 66.1829 528.762 65.2118 531.005 65.2118C531.732 65.2118 532.415 65.3073 533.056 65.4984L532.737 68.9212C532.159 68.7078 531.528 68.6028 530.845 68.6028C529.454 68.6028 528.344 69.0708 527.512 70.0101C526.679 70.9494 526.262 72.3026 526.262 74.0729V82.9022Z" fill="white"/>
<path d="M538.488 82.9022H534.963V65.6576H538.424V68.0901C538.938 67.1954 539.674 66.4918 540.634 65.9791C541.595 65.4665 542.685 65.2118 543.904 65.2118C545.805 65.2118 547.406 65.8295 548.711 67.0681C550.035 68.3258 550.698 70.1056 550.698 72.4108V82.9054H547.141V73.4043C547.141 71.8473 546.768 70.6374 546.019 69.7745C545.269 68.9116 544.268 68.4786 543.008 68.4786C541.684 68.4786 540.599 68.9435 539.754 69.87C538.909 70.7966 538.488 71.9969 538.488 73.4679V82.9054V82.9022Z" fill="white"/>
<path d="M568.044 68.0583V65.6575H571.441V82.9021H568.044V80.5332C566.484 82.3895 564.519 83.3161 562.146 83.3161C559.645 83.3161 557.585 82.4405 555.961 80.6924C554.337 78.9444 553.524 76.7697 553.524 74.1652C553.524 71.5607 554.334 69.4529 555.961 67.7685C557.585 66.0842 559.645 65.2404 562.146 65.2404C564.516 65.2404 566.484 66.1797 568.044 68.0551V68.0583ZM562.628 80.0875C564.229 80.0875 565.565 79.5239 566.634 78.3904C567.68 77.2824 568.203 75.9069 568.203 74.2639C568.203 72.621 567.68 71.2773 566.634 70.1693C565.565 69.0389 564.229 68.4722 562.628 68.4722C561.026 68.4722 559.648 69.0389 558.621 70.1693C557.597 71.2773 557.084 72.6528 557.084 74.2958C557.084 75.9387 557.597 77.3142 558.621 78.4222C559.648 79.5303 560.982 80.0843 562.628 80.0843V80.0875Z" fill="white"/>
<path d="M585.718 79.1291L586.936 81.8801C585.654 82.8385 584.062 83.3193 582.161 83.3193C580.26 83.3193 578.892 82.7557 577.932 81.6222C576.972 80.4919 576.49 78.8616 576.49 76.7284V68.6664H573.511V65.6607H576.522V59.5506H580.015V65.6607H585.976V68.6664H580.015V76.792C580.015 78.989 580.901 80.0875 582.675 80.0875C583.616 80.0875 584.63 79.7691 585.718 79.1291Z" fill="white"/>
<path d="M590.662 63.3905C589.979 63.3905 589.402 63.1613 588.93 62.7028C588.461 62.2443 588.225 61.6743 588.225 60.9898C588.225 60.3052 588.461 59.7735 588.93 59.3277C589.399 58.8788 589.976 58.6559 590.662 58.6559C591.348 58.6559 591.88 58.8788 592.327 59.3277C592.777 59.7767 593 60.3307 593 60.9898C593 61.6489 592.777 62.2443 592.327 62.7028C591.877 63.1613 591.322 63.3905 590.662 63.3905ZM592.359 65.6607V82.9053H588.834V65.6607H592.359Z" fill="white"/>
<path d="M344.748 112.039C343.134 112.039 341.81 111.418 340.78 110.173L341.561 109.355C342.375 110.409 343.437 110.934 344.748 110.934C345.689 110.934 346.451 110.622 347.038 110.001C347.622 109.38 347.915 108.543 347.915 107.489V97.7397H349.098V107.413C349.098 108.912 348.69 110.059 347.877 110.861C347.051 111.647 346.008 112.042 344.748 112.042V112.039Z" fill="white"/>
<path d="M351.35 106.709C351.35 105.197 351.851 103.936 352.856 102.92C353.873 101.892 355.14 101.379 356.652 101.379C358.164 101.379 359.43 101.895 360.447 102.92C361.452 103.936 361.953 105.2 361.953 106.709C361.953 108.218 361.449 109.501 360.447 110.517C359.43 111.546 358.164 112.058 356.652 112.058C355.14 112.058 353.873 111.546 352.856 110.517C351.851 109.501 351.35 108.231 351.35 106.709ZM356.652 111.014C357.848 111.014 358.84 110.603 359.628 109.775C360.416 108.925 360.811 107.903 360.811 106.709C360.811 105.515 360.416 104.487 359.628 103.662C358.84 102.837 357.848 102.423 356.652 102.423C355.456 102.423 354.476 102.844 353.676 103.681C352.888 104.506 352.492 105.515 352.492 106.709C352.492 107.903 352.888 108.925 353.676 109.775C354.476 110.6 355.468 111.014 356.652 111.014Z" fill="white"/>
<path d="M366.527 112.039C365.752 112.039 365.044 111.851 364.409 111.479C363.774 111.106 363.277 110.549 362.919 109.813L363.835 109.244C364.431 110.425 365.328 111.014 366.524 111.014C367.197 111.014 367.755 110.826 368.192 110.453C368.632 110.081 368.849 109.626 368.849 109.091C368.849 108.432 368.415 107.878 367.551 107.435C367.296 107.308 366.891 107.136 366.329 106.919C365.682 106.652 365.273 106.467 365.108 106.368C364.026 105.824 363.487 105.028 363.487 103.987C363.487 103.2 363.774 102.554 364.345 102.044C364.916 101.538 365.675 101.284 366.616 101.284C368.017 101.284 369.041 101.815 369.688 102.882L368.887 103.528C368.403 102.704 367.64 102.29 366.597 102.29C365.975 102.29 365.484 102.442 365.127 102.745C364.77 103.051 364.594 103.449 364.594 103.945C364.594 104.617 364.964 105.133 365.701 105.486L366.846 105.98C367.557 106.273 368.01 106.47 368.202 106.569C369.398 107.139 369.994 107.954 369.994 109.008C369.994 109.858 369.669 110.574 369.021 111.16C368.387 111.743 367.554 112.036 366.524 112.036L366.527 112.039Z" fill="white"/>
<path d="M372.371 100.026C372.09 100.026 371.857 99.9335 371.666 99.7488C371.474 99.5641 371.379 99.3317 371.379 99.0547C371.379 98.7777 371.474 98.5452 371.666 98.3606C371.857 98.1759 372.093 98.0836 372.371 98.0836C372.648 98.0836 372.865 98.1759 373.056 98.3606C373.248 98.5452 373.343 98.7777 373.343 99.0547C373.343 99.3317 373.248 99.5673 373.056 99.7488C372.865 99.9335 372.635 100.026 372.371 100.026ZM372.903 101.624V111.813H371.758V101.624H372.903Z" fill="white"/>
<path d="M380.839 101.357C382.291 101.357 383.496 101.876 384.463 102.917C385.429 103.933 385.911 105.197 385.911 106.706C385.911 108.215 385.426 109.479 384.463 110.495C383.496 111.523 382.287 112.036 380.839 112.036C379.962 112.036 379.171 111.838 378.463 111.447C377.755 111.055 377.187 110.495 376.756 109.772V116H375.611V101.624H376.756V103.7C377.187 102.965 377.761 102.388 378.473 101.978C379.184 101.567 379.972 101.36 380.839 101.36V101.357ZM380.782 110.995C381.94 110.995 382.893 110.581 383.643 109.756C384.393 108.931 384.769 107.916 384.769 106.709C384.769 105.502 384.393 104.487 383.643 103.662C382.893 102.837 381.94 102.423 380.782 102.423C379.624 102.423 378.626 102.844 377.863 103.681C377.101 104.518 376.718 105.54 376.718 106.747C376.718 107.954 377.101 108.944 377.863 109.756C378.626 110.581 379.598 110.995 380.782 110.995Z" fill="white"/>
<path d="M396.443 103.586V101.624H397.55V111.813H396.443V109.833C396.01 110.53 395.442 111.078 394.737 111.469C394.032 111.864 393.257 112.058 392.418 112.058C390.979 112.058 389.774 111.546 388.794 110.517C387.828 109.476 387.346 108.193 387.346 106.671C387.346 105.149 387.825 103.917 388.778 102.901C389.758 101.885 390.973 101.379 392.421 101.379C393.273 101.379 394.048 101.573 394.75 101.959C395.448 102.347 396.016 102.888 396.447 103.586H396.443ZM392.475 111.014C393.659 111.014 394.632 110.594 395.394 109.756C396.156 108.919 396.539 107.89 396.539 106.671C396.539 105.451 396.156 104.487 395.394 103.662C394.632 102.837 393.659 102.423 392.475 102.423C391.292 102.423 390.345 102.837 389.595 103.662C388.858 104.474 388.488 105.49 388.488 106.709C388.488 107.929 388.858 108.963 389.595 109.775C390.345 110.6 391.305 111.014 392.475 111.014Z" fill="white"/>
<path d="M406.915 111.813H405.751V97.7397H406.268L412.468 106.843L418.612 97.7397H419.145V111.813H417.98V100.615L412.599 108.575H412.312L406.915 100.634V111.813Z" fill="white"/>
<path d="M430.64 103.586V101.624H431.747V111.813H430.64V109.833C430.206 110.53 429.639 111.078 428.934 111.469C428.229 111.864 427.454 112.058 426.615 112.058C425.176 112.058 423.971 111.546 422.991 110.517C422.025 109.476 421.543 108.193 421.543 106.671C421.543 105.149 422.022 103.917 422.975 102.901C423.955 101.885 425.17 101.379 426.618 101.379C427.47 101.379 428.245 101.573 428.947 101.959C429.645 102.347 430.213 102.888 430.643 103.586H430.64ZM426.672 111.014C427.856 111.014 428.829 110.594 429.591 109.756C430.353 108.919 430.736 107.89 430.736 106.671C430.736 105.451 430.353 104.487 429.591 103.662C428.829 102.837 427.856 102.423 426.672 102.423C425.489 102.423 424.542 102.837 423.792 103.662C423.055 104.474 422.685 105.49 422.685 106.709C422.685 107.929 423.055 108.963 423.792 109.775C424.542 110.6 425.502 111.014 426.672 111.014Z" fill="white"/>
<path d="M435.556 111.813H434.411V101.624H435.498V103.261C436.044 101.99 437.029 101.357 438.455 101.357C438.851 101.357 439.269 101.414 439.715 101.529L439.581 102.614C439.224 102.5 438.863 102.442 438.493 102.442C437.578 102.442 436.86 102.77 436.337 103.423C435.814 104.076 435.556 104.936 435.556 106.002V111.81V111.813Z" fill="white"/>
<path d="M439.91 106.709C439.91 105.197 440.41 103.936 441.415 102.92C442.433 101.892 443.699 101.379 445.211 101.379C446.723 101.379 447.989 101.895 449.007 102.92C450.012 103.936 450.512 105.2 450.512 106.709C450.512 108.218 450.008 109.501 449.007 110.517C447.989 111.546 446.723 112.058 445.211 112.058C443.699 112.058 442.433 111.546 441.415 110.517C440.41 109.501 439.91 108.231 439.91 106.709ZM445.214 111.014C446.41 111.014 447.402 110.603 448.19 109.775C448.978 108.925 449.374 107.903 449.374 106.709C449.374 105.515 448.978 104.487 448.19 103.662C447.402 102.837 446.41 102.423 445.214 102.423C444.018 102.423 443.039 102.844 442.238 103.681C441.45 104.506 441.055 105.515 441.055 106.709C441.055 107.903 441.45 108.925 442.238 109.775C443.039 110.6 444.031 111.014 445.214 111.014Z" fill="white"/>
<path d="M453.696 111.813H452.55V97.4372H453.657V103.34C453.964 102.707 454.423 102.216 455.042 101.873C455.657 101.529 456.375 101.36 457.188 101.36C458.333 101.36 459.294 101.736 460.069 102.484C460.844 103.219 461.233 104.28 461.233 105.665V111.816H460.088V105.856C460.088 104.789 459.817 103.952 459.278 103.344C458.735 102.735 457.995 102.43 457.054 102.43C456.113 102.43 455.37 102.735 454.707 103.344C454.034 103.952 453.696 104.866 453.696 106.085V111.816V111.813Z" fill="white"/>
<path d="M464.946 111.813H463.801V101.624H464.907V103.414C465.529 102.041 466.713 101.357 468.454 101.357C469.587 101.357 470.547 101.732 471.335 102.481C472.11 103.216 472.499 104.276 472.499 105.661V111.813H471.354V105.872C471.354 104.805 471.083 103.964 470.544 103.35C470.001 102.735 469.261 102.427 468.32 102.427C467.379 102.427 466.63 102.739 465.954 103.359C465.281 103.968 464.943 104.881 464.943 106.101V111.813H464.946Z" fill="white"/>
<path d="M475.612 100.026C475.331 100.026 475.099 99.9335 474.907 99.7488C474.716 99.5641 474.62 99.3317 474.62 99.0547C474.62 98.7777 474.716 98.5452 474.907 98.3606C475.099 98.1759 475.335 98.0836 475.612 98.0836C475.89 98.0836 476.107 98.1759 476.298 98.3606C476.489 98.5452 476.585 98.7777 476.585 99.0547C476.585 99.3317 476.489 99.5673 476.298 99.7488C476.107 99.9335 475.877 100.026 475.612 100.026ZM476.148 101.624V111.813H475.003V101.624H476.148Z" fill="white"/>
<path d="M483.433 112.039C481.918 112.039 480.674 111.546 479.695 110.552C478.716 109.536 478.224 108.26 478.224 106.725C478.224 105.19 478.719 103.882 479.714 102.879C480.719 101.876 481.998 101.376 483.548 101.376C484.553 101.376 485.465 101.611 486.285 102.079C487.105 102.551 487.714 103.191 488.106 104.003L487.172 104.534C486.827 103.888 486.333 103.372 485.682 102.993C485.035 102.611 484.32 102.423 483.545 102.423C482.323 102.423 481.325 102.831 480.55 103.643C479.762 104.455 479.366 105.483 479.366 106.728C479.366 107.973 479.749 108.995 480.511 109.794C481.274 110.594 482.247 110.995 483.43 110.995C484.192 110.995 484.913 110.797 485.596 110.406C486.275 110.011 486.782 109.505 487.111 108.884L488.046 109.454C487.65 110.227 487.028 110.858 486.176 111.339C485.35 111.81 484.435 112.042 483.43 112.042L483.433 112.039ZM483.912 99.9876H482.939L484.065 96.9405H485.532L483.912 99.9876Z" fill="white"/>
<path d="M498.31 103.586V101.624H499.417V111.813H498.31V109.833C497.876 110.53 497.309 111.078 496.604 111.469C495.899 111.864 495.124 112.058 494.285 112.058C492.846 112.058 491.64 111.546 490.661 110.517C489.695 109.476 489.213 108.193 489.213 106.671C489.213 105.149 489.692 103.917 490.645 102.901C491.624 101.885 492.84 101.379 494.288 101.379C495.14 101.379 495.915 101.573 496.616 101.959C497.315 102.347 497.883 102.888 498.313 103.586H498.31ZM494.342 111.014C495.526 111.014 496.498 110.594 497.261 109.756C498.023 108.919 498.406 107.89 498.406 106.671C498.406 105.451 498.023 104.487 497.261 103.662C496.498 102.837 495.526 102.423 494.342 102.423C493.159 102.423 492.211 102.837 491.462 103.662C490.725 104.474 490.355 105.49 490.355 106.709C490.355 107.929 490.725 108.963 491.462 109.775C492.211 110.6 493.172 111.014 494.342 111.014Z" fill="white"/>
<path d="M505.867 101.15L509.892 97.7397H510.807V111.813H509.624V99.3795L506.552 101.968L505.867 101.15Z" fill="white"/>
<path d="M16.0985 41.0611C12.5452 41.0611 9.53087 40.0931 7.05246 38.1604C2.35082 34.4701 0 28.5924 0 20.5305C0 16.697 0.555011 13.2933 1.66822 10.3194C2.81652 7.20224 4.64742 4.70279 7.16091 2.82104C9.67441 0.939284 12.6536 0 16.0985 0C18.2516 0 20.226 0.359794 22.0218 1.0762C23.8176 1.7926 25.3327 2.7892 26.5703 4.05962C27.8079 5.33322 28.8574 6.83608 29.7186 8.57455C30.5798 10.313 31.2082 12.1852 31.6037 14.1912C31.9992 16.1971 32.197 18.3113 32.197 20.5337C32.197 22.7561 31.9992 24.8703 31.6037 26.8763C31.2082 28.8822 30.5798 30.7544 29.7186 32.4929C28.8574 34.2313 27.8079 35.7374 26.5703 37.0078C25.3327 38.2814 23.8144 39.2748 22.0218 39.9912C20.226 40.7076 18.2516 41.0674 16.0985 41.0674V41.0611ZM24.2833 20.5305C24.2833 16.697 23.6007 13.5607 22.2387 11.1249C20.8735 8.68917 18.8289 7.4697 16.1017 7.4697C13.3745 7.4697 11.3809 8.68917 10.0189 11.1249C8.6537 13.5607 7.97429 16.697 7.97429 20.5305C7.97429 24.3641 8.66646 27.6786 10.0476 30.0444C11.4288 32.4101 13.4478 33.5914 16.1049 33.5914C18.7619 33.5914 20.7906 32.4101 22.1877 30.0444C23.5879 27.6786 24.2865 24.5074 24.2865 20.5305H24.2833Z" fill="#E7C81D"/>
<path d="M61.3797 24.5615H65.6858V31.1715H61.3797V40.4147H53.9508V31.1715H36.4521L34.8891 26.0644L55.6701 0.697327H61.3765V24.5615H61.3797ZM53.9477 12.2012L43.9319 24.5615H53.9477V12.2012Z" fill="#E7C81D"/>
<path d="M74.5149 41.2775C73.2582 41.2775 72.1992 40.8573 71.338 40.0135C70.4768 39.1729 70.0461 38.1254 70.0461 36.8709C70.0461 35.6164 70.4768 34.6325 71.338 33.8078C72.1992 32.9832 73.2582 32.5724 74.5149 32.5724C75.6983 32.5724 76.7126 32.9832 77.5579 33.8078C78.4 34.6325 78.8242 35.6546 78.8242 36.8709C78.8242 38.0872 78.4032 39.1729 77.5579 40.0135C76.7126 40.8541 75.7015 41.2775 74.5149 41.2775Z" fill="#E7C81D"/>
<path d="M98.9577 41.0611C95.4044 41.0611 92.3901 40.0931 89.9117 38.1604C85.2101 34.4701 82.8593 28.5924 82.8593 20.5305C82.8593 16.697 83.4143 13.2933 84.5275 10.3194C85.6758 7.20224 87.5067 4.70279 90.0202 2.82104C92.5337 0.939284 95.5129 0 98.9577 0C101.111 0 103.085 0.359794 104.881 1.0762C106.677 1.7926 108.192 2.7892 109.43 4.05962C110.667 5.33322 111.717 6.83608 112.578 8.57455C113.439 10.313 114.067 12.1852 114.463 14.1912C114.858 16.1971 115.056 18.3113 115.056 20.5337C115.056 22.7561 114.858 24.8703 114.463 26.8763C114.067 28.8822 113.439 30.7544 112.578 32.4929C111.717 34.2313 110.667 35.7374 109.43 37.0078C108.192 38.2814 106.674 39.2748 104.881 39.9912C103.085 40.7076 101.111 41.0674 98.9577 41.0674V41.0611ZM107.143 20.5305C107.143 16.697 106.46 13.5607 105.098 11.1249C103.733 8.68917 101.688 7.4697 98.9609 7.4697C96.2337 7.4697 94.2402 8.68917 92.8782 11.1249C91.513 13.5607 90.8335 16.697 90.8335 20.5305C90.8335 24.3641 91.5257 27.6786 92.9069 30.0444C94.288 32.4101 96.3071 33.5914 98.9641 33.5914C101.621 33.5914 103.65 32.4101 105.047 30.0444C106.447 27.6786 107.146 24.5074 107.146 20.5305H107.143Z" fill="#E7C81D"/>
<path d="M136.539 14.7802C140.309 14.7802 143.394 15.9806 145.799 18.3813C148.274 20.8171 149.515 23.8642 149.515 27.5194C149.515 31.388 148.169 34.5784 145.477 37.0874C142.82 39.6314 139.394 40.9018 135.193 40.9018C130.239 40.9018 126.453 39.1092 123.831 35.5272C121.209 31.9452 119.901 27.357 119.901 21.7691C119.901 18.9385 120.252 16.2512 120.951 13.7072C121.649 11.1631 122.692 8.85155 124.074 6.77557C125.455 4.69959 127.266 3.05028 129.512 1.8308C131.754 0.614504 134.313 0.00317383 137.183 0.00317383C141.311 0.00317383 144.973 1.16852 148.166 3.49604L144.721 9.46288C142.386 7.88679 140.019 7.09716 137.614 7.09716C134.6 7.09716 132.195 8.27843 130.399 10.6441C128.641 13.0099 127.672 15.8405 127.493 19.1359C129.432 16.2353 132.447 14.7834 136.539 14.7834V14.7802ZM135.193 34.0753C136.989 34.0753 138.513 33.4481 139.77 32.1936C141.027 30.9391 141.655 29.4171 141.655 27.6245C141.655 25.8319 141.046 24.345 139.824 23.1637C138.603 21.9824 137.078 21.3902 135.247 21.3902C133.416 21.3902 131.882 21.9824 130.644 23.1637C129.407 24.345 128.788 25.851 128.788 27.6786C128.788 29.5062 129.397 31.0282 130.619 32.2477C131.837 33.4672 133.365 34.0753 135.196 34.0753H135.193Z" fill="#E7C81D"/>
<path d="M158.29 41.2775C157.033 41.2775 155.974 40.8573 155.113 40.0135C154.251 39.1729 153.821 38.1254 153.821 36.8709C153.821 35.6164 154.251 34.6325 155.113 33.8078C155.974 32.9832 157.033 32.5724 158.29 32.5724C159.473 32.5724 160.487 32.9832 161.333 33.8078C162.175 34.6325 162.599 35.6546 162.599 36.8709C162.599 38.0872 162.178 39.1729 161.333 40.0135C160.487 40.8541 159.476 41.2775 158.29 41.2775Z" fill="#E7C81D"/>
<path d="M185.75 25.6377L178.752 33.1074H193.558V40.4179H167.607V33.8078L179.989 20.8553C181.498 19.2792 182.34 18.3845 182.519 18.168C182.984 17.6299 183.524 16.7893 184.133 15.643C184.742 14.5318 185.048 13.5129 185.048 12.58C185.048 11.074 184.528 9.84813 183.485 8.8993C182.442 7.95046 181.134 7.47604 179.555 7.47604C176.755 7.47604 173.776 8.94706 170.618 11.8827L166.258 6.18652C170.385 2.0664 175.032 0.00634766 180.203 0.00634766C184.008 0.00634766 187.112 1.15259 189.517 3.44508C191.957 5.70255 193.179 8.60318 193.179 12.1502C193.179 15.9837 190.704 20.4796 185.75 25.6408V25.6377Z" fill="#E7C81D"/>
<path d="M214.661 41.0611C211.108 41.0611 208.094 40.0931 205.615 38.1604C200.914 34.4701 198.563 28.5924 198.563 20.5305C198.563 16.697 199.118 13.2933 200.231 10.3194C201.38 7.20224 203.21 4.70279 205.724 2.82104C208.237 0.939284 211.217 0 214.661 0C216.815 0 218.789 0.359794 220.585 1.0762C222.381 1.7926 223.896 2.7892 225.133 4.05962C226.371 5.33322 227.42 6.83608 228.282 8.57455C229.143 10.313 229.771 12.1852 230.167 14.1912C230.562 16.1971 230.76 18.3113 230.76 20.5337C230.76 22.7561 230.562 24.8703 230.167 26.8763C229.771 28.8822 229.143 30.7544 228.282 32.4929C227.42 34.2313 226.371 35.7374 225.133 37.0078C223.896 38.2814 222.377 39.2748 220.585 39.9912C218.789 40.7076 216.815 41.0674 214.661 41.0674V41.0611ZM222.846 20.5305C222.846 16.697 222.164 13.5607 220.802 11.1249C219.436 8.68917 217.392 7.4697 214.665 7.4697C211.937 7.4697 209.944 8.68917 208.582 11.1249C207.217 13.5607 206.537 16.697 206.537 20.5305C206.537 24.3641 207.229 27.6786 208.611 30.0444C209.992 32.4101 212.011 33.5914 214.668 33.5914C217.325 33.5914 219.354 32.4101 220.751 30.0444C222.151 27.6786 222.849 24.5074 222.849 20.5305H222.846Z" fill="#E7C81D"/>
<path d="M253.694 25.6377L246.696 33.1074H261.502V40.4179H235.551V33.8078L247.933 20.8553C249.442 19.2792 250.284 18.3845 250.463 18.168C250.929 17.6299 251.468 16.7893 252.077 15.643C252.686 14.5318 252.992 13.5129 252.992 12.58C252.992 11.074 252.472 9.84813 251.429 8.8993C250.386 7.95046 249.078 7.47604 247.5 7.47604C244.699 7.47604 241.72 8.94706 238.562 11.8827L234.202 6.18652C238.329 2.0664 242.977 0.00634766 248.147 0.00634766C251.952 0.00634766 255.056 1.15259 257.461 3.44508C259.901 5.70255 261.123 8.60318 261.123 12.1502C261.123 15.9837 258.648 20.4796 253.694 25.6408V25.6377Z" fill="#E7C81D"/>
<path d="M280.398 14.8343C284.169 14.8343 287.342 16.0156 289.929 18.3813C292.513 20.747 293.805 23.8292 293.805 27.6245C293.805 31.4198 292.44 34.7376 289.712 37.2434C286.947 39.7874 283.358 41.0578 278.944 41.0578C274.099 41.0578 269.646 39.59 265.592 36.6512L268.769 30.3086C272.143 32.6011 275.41 33.7474 278.567 33.7474C280.756 33.7474 282.507 33.1647 283.818 31.9993C285.129 30.834 285.783 29.3757 285.783 27.6181C285.783 25.8605 285.145 24.4755 283.872 23.3452C282.596 22.218 280.992 21.6513 279.052 21.6513C276.539 21.6513 274.351 22.5301 272.485 24.2845L267.853 20.5751L270.006 0.690918H291.058V8.00141H275.93L275.068 15.7959C276.717 15.1495 278.494 14.8279 280.398 14.8279V14.8343Z" fill="#E7C81D"/>
<path d="M302.474 41.2775C301.218 41.2775 300.159 40.8573 299.297 40.0135C298.436 39.1729 298.006 38.1254 298.006 36.8709C298.006 35.6164 298.436 34.6325 299.297 33.8078C300.159 32.9832 301.218 32.5724 302.474 32.5724C303.658 32.5724 304.672 32.9832 305.517 33.8078C306.359 34.6325 306.784 35.6546 306.784 36.8709C306.784 38.0872 306.363 39.1729 305.517 40.0135C304.672 40.8541 303.661 41.2775 302.474 41.2775Z" fill="#E7C81D"/>
<path d="M88.0234 83.2874C86.2722 83.2874 84.6742 82.8671 83.2324 82.0234C81.7907 81.1796 80.6966 79.9824 79.947 78.4254L82.3202 76.4736C83.6024 78.989 85.4939 80.2499 87.9915 80.2499C89.3152 80.2499 90.3742 79.9092 91.1652 79.2246C91.9563 78.5432 92.3518 77.6899 92.3518 76.6647C92.3518 75.407 91.5289 74.3085 89.883 73.3692C89.5832 73.2196 88.773 72.8375 87.446 72.2166C86.3552 71.7263 85.4684 71.2773 84.7858 70.873C82.4127 69.3797 81.2293 67.5043 81.2293 65.2436C81.2293 63.4319 81.88 61.9163 83.1846 60.7C84.486 59.4646 86.218 58.8438 88.3774 58.8438C91.3247 58.8438 93.6437 60.0059 95.331 62.3302L93.1843 64.3776C91.9021 62.6932 90.3104 61.8495 88.4093 61.8495C87.3185 61.8495 86.4221 62.1424 85.7172 62.7282C85.0123 63.3141 84.6582 64.0878 84.6582 65.0462C84.6582 66.2848 85.3313 67.2973 86.6773 68.0838C87.2323 68.4244 88.151 68.8957 89.4332 69.4911C90.7793 70.1311 91.7713 70.631 92.4124 70.9939C94.6995 72.379 95.8414 74.213 95.8414 76.4959C95.8414 78.521 95.0918 80.1544 93.599 81.3898C92.103 82.6474 90.2434 83.2779 88.0234 83.2779V83.2874Z" fill="white"/>
<path d="M101.991 82.9022H98.9131V65.7563H101.828V68.2844C102.833 66.3007 104.476 65.3105 106.763 65.3105C107.382 65.3105 108.055 65.3965 108.782 65.5652L108.495 68.5391C107.876 68.348 107.277 68.2525 106.699 68.2525C105.289 68.2525 104.151 68.7333 103.286 69.6917C102.422 70.6501 101.988 72.0256 101.988 73.8182V82.9022H101.991Z" fill="white"/>
<path d="M112.415 63.3237C111.774 63.3237 111.241 63.1167 110.814 62.6996C110.387 62.2825 110.173 61.7571 110.173 61.1171C110.173 60.4772 110.387 59.9868 110.814 59.5825C111.241 59.1781 111.774 58.9743 112.415 58.9743C113.012 58.9743 113.525 59.1813 113.953 59.5984C114.38 60.0155 114.594 60.5217 114.594 61.1171C114.594 61.7571 114.38 62.2857 113.953 62.6996C113.525 63.1167 113.012 63.3237 112.415 63.3237ZM113.889 65.7563V82.9022H110.811V65.7563H113.889Z" fill="white"/>
<path d="M115.806 90.2286C114.524 90.2286 113.509 89.993 112.763 89.5249L113.372 86.965C114.205 87.2643 114.9 87.4139 115.455 87.4139C117.42 87.4139 118.402 86.2422 118.402 83.8956V65.7563H121.48V83.7045C121.48 85.7933 120.98 87.4044 119.975 88.5347C118.97 89.665 117.582 90.2286 115.809 90.2286H115.806ZM119.972 63.3237C119.33 63.3237 118.798 63.1167 118.37 62.6996C117.943 62.2825 117.729 61.7571 117.729 61.1171C117.729 60.4772 117.943 59.9868 118.37 59.5825C118.798 59.1781 119.33 58.9743 119.972 58.9743C120.568 58.9743 121.082 59.1813 121.509 59.5984C121.936 60.0155 122.15 60.5217 122.15 61.1171C122.15 61.7571 121.936 62.2857 121.509 62.6996C121.082 63.1167 120.568 63.3237 119.972 63.3237Z" fill="white"/>
<path d="M141.531 74.0092C141.531 74.2225 141.499 74.7447 141.435 75.5757H127.751C128.029 77.0913 128.67 78.2853 129.675 79.1577C130.679 80.0333 132.048 80.4695 133.777 80.4695C134.804 80.4695 135.86 80.2944 136.95 79.941C138.041 79.5908 138.979 79.1259 139.77 78.5496L141.084 80.8835C140.188 81.5648 139.075 82.138 137.751 82.5965C136.427 83.055 135.081 83.2842 133.713 83.2842C132.153 83.2842 130.769 83.0295 129.563 82.5169C128.357 82.0042 127.4 81.3133 126.696 80.4377C125.991 79.5621 125.455 78.6037 125.094 77.5594C124.731 76.515 124.549 75.4165 124.549 74.2639C124.549 71.704 125.349 69.5738 126.954 67.8672C128.577 66.1829 130.67 65.3391 133.234 65.3391C135.799 65.3391 137.659 66.1192 139.196 67.673C140.756 69.23 141.534 71.341 141.534 74.006L141.531 74.0092ZM127.748 72.9234H138.357C138.271 71.4524 137.754 70.2743 136.804 69.3892C135.853 68.504 134.66 68.0614 133.231 68.0614C131.802 68.0614 130.644 68.5136 129.643 69.421C128.638 70.3285 128.01 71.497 127.751 72.9234H127.748Z" fill="white"/>
<path d="M158.306 68.2525V58.6877H161.384V82.9054H158.306V80.5046C156.81 82.3832 154.822 83.3193 152.344 83.3193C149.866 83.3193 147.773 82.4564 146.127 80.7275C144.504 78.9795 143.69 76.8366 143.69 74.2958C143.69 71.7549 144.5 69.6694 146.127 67.9628C147.751 66.2147 149.802 65.3391 152.28 65.3391C154.759 65.3391 156.746 66.3103 158.306 68.2493V68.2525ZM158.532 74.299C158.532 72.57 157.987 71.1213 156.899 69.9496C155.83 68.7556 154.421 68.157 152.669 68.157C150.918 68.157 149.496 68.7556 148.408 69.9496C147.339 71.1436 146.807 72.5955 146.807 74.299C146.807 76.0024 147.339 77.518 148.408 78.7152C149.499 79.9092 150.918 80.5078 152.669 80.5078C154.421 80.5078 155.83 79.9124 156.899 78.7152C157.99 77.5435 158.532 76.0725 158.532 74.299Z" fill="white"/>
<path d="M179.195 68.2525V65.7562H182.142V82.9021H179.195V80.4696C177.658 82.3672 175.638 83.3161 173.138 83.3161C170.637 83.3161 168.608 82.4405 166.985 80.6924C165.361 78.9444 164.548 76.7793 164.548 74.1971C164.548 71.6148 165.358 69.5038 166.985 67.864C168.608 66.1797 170.659 65.3359 173.138 65.3359C175.616 65.3359 177.594 66.3071 179.195 68.2461V68.2525ZM179.386 74.2989C179.386 72.57 178.841 71.1213 177.753 69.9496C176.662 68.7556 175.243 68.157 173.492 68.157C171.741 68.157 170.331 68.7556 169.262 69.9496C168.194 71.1436 167.661 72.605 167.661 74.334C167.661 76.0629 168.194 77.5212 169.262 78.7152C170.331 79.9092 171.741 80.5078 173.492 80.5078C175.243 80.5078 176.666 79.9124 177.753 78.7152C178.844 77.5434 179.386 76.0724 179.386 74.2989Z" fill="white"/>
<path d="M186.93 80.3772C187.421 80.3772 187.826 80.5587 188.149 80.9217C188.468 81.2847 188.63 81.7336 188.63 82.2653C188.63 83.886 187.507 85.4016 185.265 86.8089L184.656 85.946C186.043 84.9654 186.889 84.0675 187.188 83.2587C187.016 83.3447 186.838 83.3861 186.643 83.3861C186.279 83.3861 185.96 83.2428 185.683 82.9531C185.405 82.6665 185.265 82.329 185.265 81.9437C185.265 81.5171 185.425 81.1509 185.747 80.8389C186.066 80.53 186.461 80.374 186.933 80.374L186.93 80.3772Z" fill="white"/>
<path d="M198.372 64.9571L205.261 59.264H208.113V82.9053H204.461V64.2215L200.359 67.5488L198.372 64.9571Z" fill="white"/>
<path d="M210.359 64.9571L217.248 59.264H220.1V82.9053H216.448V64.2215L212.346 67.5488L210.359 64.9571Z" fill="white"/>
<path d="M237.267 75.7063H224.639V72.379H237.267V75.7063Z" fill="white"/>
<path d="M237.337 64.9571L244.227 59.264H247.079V82.9053H243.426V64.2215L239.324 67.5488L237.337 64.9571Z" fill="white"/>
<path d="M259.423 83.2874C256.881 83.2874 254.807 82.6474 253.206 81.3675C251.605 80.0875 250.801 78.4668 250.801 76.5055C250.801 75.1841 251.219 73.9614 252.051 72.8439C252.884 71.7263 253.994 70.908 255.385 70.3954V70.3317C254.275 69.7999 253.397 69.074 252.756 68.157C252.115 67.24 251.796 66.2179 251.796 65.0844C251.796 63.2727 252.501 61.7794 253.911 60.6045C255.298 59.4328 257.136 58.8438 259.423 58.8438C261.71 58.8438 263.502 59.4296 264.871 60.6045C266.281 61.7762 266.986 63.2695 266.986 65.0844C266.986 66.2147 266.667 67.2432 266.025 68.1729C265.384 69.0995 264.498 69.819 263.365 70.3317V70.4272C264.775 70.9175 265.898 71.7167 266.73 72.8279C267.563 73.936 267.981 75.1618 267.981 76.5055C267.981 78.4668 267.18 80.0875 265.576 81.3675C264.016 82.6474 261.965 83.2874 259.423 83.2874ZM259.423 80.0556C260.855 80.0556 262.029 79.6768 262.947 78.919C263.866 78.1612 264.325 77.1964 264.325 76.0247C264.325 74.853 263.872 73.936 262.963 73.21C262.054 72.4841 260.865 72.1211 259.391 72.1211C257.917 72.1211 256.724 72.4841 255.818 73.21C254.909 73.936 254.456 74.8721 254.456 76.0247C254.456 77.1773 254.916 78.1643 255.834 78.919C256.753 79.6768 257.949 80.0556 259.423 80.0556ZM262.373 67.9628C263.12 67.3005 263.496 66.4599 263.496 65.4347C263.496 64.4094 263.116 63.5688 262.357 62.9066C261.598 62.2443 260.609 61.9163 259.394 61.9163C258.179 61.9163 257.152 62.2475 256.383 62.9066C255.614 63.5688 255.228 64.4094 255.228 65.4347C255.228 66.4599 255.614 67.3005 256.383 67.9628C257.152 68.625 258.156 68.953 259.394 68.953C260.632 68.953 261.627 68.6219 262.373 67.9628Z" fill="white"/>
<path d="M274.762 82.9022H271.237V58.6527H274.666V67.8354C275.18 67.0267 275.92 66.3867 276.893 65.9154C277.866 65.4474 278.95 65.2118 280.146 65.2118C282.047 65.2118 283.649 65.8295 284.953 67.0681C286.255 68.3066 286.909 70.0865 286.909 72.4108V82.9053H283.384V73.4042C283.384 71.8473 283.011 70.6373 282.261 69.7745C281.511 68.9116 280.51 68.4786 279.25 68.4786C277.926 68.4786 276.845 68.9371 276.012 69.8541C275.18 70.7711 274.762 71.9651 274.762 73.4361V82.9053V82.9022Z" fill="white"/>
<path d="M321.428 0.697327H319.086V111.81H321.428V0.697327Z" fill="#E7C81D"/>
</g>
<defs>
<clipPath id="clip0_1_727">
<rect width="593" height="116" fill="white"/>
</clipPath>
</defs>
</svg>
