<svg width="173" height="48" viewBox="0 0 173 48" fill="none" xmlns="http://www.w3.org/2000/svg">
<g clip-path="url(#clip0_89_1008)">
<path d="M53.8623 47.6941H63.2947V27.9773H78.0136V20.1586H63.2947V13.5297C63.2947 10.0215 64.8656 7.96147 68.8886 7.96147H79.0108V0H68.5129C58.7049 0 53.8623 6.45213 53.8623 15.8346V47.6873V47.6941Z" fill="#002856"/>
<path d="M163.882 34.8579C162.372 38.2369 159.422 40.1746 156.212 40.1746H155.337C152.441 40.1746 150.686 38.7332 150.686 34.9802V28.7865C150.686 23.2794 152.701 21.0833 157.284 21.0833H163.882V34.851V34.8579ZM173 47.6941V13.2646H157.093C148.289 13.2646 141.568 17.7655 141.568 28.2222V35.4765C141.568 43.8052 146.848 48.0001 153.2 48.0001H155.59C159.306 48.0001 162.318 46.4363 163.889 44.7502V47.6941H173Z" fill="#002856"/>
<path d="M94.9112 0H85.793V7.94788H94.9112V0Z" fill="#002856"/>
<path d="M94.9112 13.2646H85.793V47.6805H94.9112V13.2646Z" fill="#002856"/>
<path d="M104.016 47.6941H113.134V21.2194H120.743C124.575 21.2194 125.647 22.28 125.647 26.6653V47.6941H134.765V24.5984C134.765 16.5893 130.244 13.2715 122.505 13.2715H104.023V47.6873H104.016V47.6941Z" fill="#002856"/>
<path d="M3.85902 13.0537H0V47.6463H3.85902V13.0537Z" fill="#002856"/>
<path d="M18.3115 13.0537H11.1057V47.6463H18.3115V13.0537Z" fill="#002856"/>
<path d="M35.059 13.0537H25.5583V47.6463H35.059V13.0537Z" fill="#002856"/>
</g>
<defs>
<clipPath id="clip0_89_1008">
<rect width="173" height="48" fill="white"/>
</clipPath>
</defs>
</svg>
