<svg width="235" height="75" viewBox="0 0 235 75" fill="none" xmlns="http://www.w3.org/2000/svg">
<g clip-path="url(#clip0_89_1331)">
<path d="M75.0511 38.0352H38.1792V74.8335H75.0511V38.0352Z" fill="#D71921"/>
<path d="M38.1793 26.6035H26.7139V38.0357H38.1793V26.6035Z" fill="#D71921"/>
<path d="M18.4748 11.4707H11.8047V18.1048H18.4748V11.4707Z" fill="#D71921"/>
<path d="M209.549 66.1633H205.755V61.1933H209.805V59.6845H203.997V74.8332H210.072V73.3244H205.749V67.6499H209.543V66.1689L209.549 66.1633ZM196.342 67.4225H197.132C198.757 67.4502 200.242 68.4487 200.242 70.5232C200.242 72.4813 199.063 73.5463 197.232 73.5463C196.849 73.5463 196.582 73.4853 196.348 73.4631V67.4225H196.342ZM196.342 61.0823C196.576 61.0102 196.876 60.9714 197.266 60.9714C199.118 60.9714 199.791 62.042 199.791 63.4287C199.791 65.0207 198.595 66.1134 197.16 66.1134H196.342V61.0823ZM194.634 74.7444C195.113 74.8554 195.786 74.9164 196.904 74.9164C198.612 74.9164 200.036 74.5114 200.898 73.5463C201.61 72.7974 202.005 71.7824 202.005 70.5232C202.005 68.5596 200.91 67.1451 199.168 66.6681V66.6182C200.687 66.0468 201.527 64.7988 201.527 63.2623C201.527 62.1695 201.165 61.2765 200.515 60.6663C199.736 59.9064 198.556 59.629 197.182 59.629C196.198 59.629 195.358 59.74 194.629 59.9064V74.7444H194.634ZM186.34 61.1267C186.562 61.0546 186.902 61.0213 187.135 61.0213C189.594 61.0213 190.774 63.1181 190.774 66.951C190.774 72.093 188.921 73.4631 186.985 73.4631C186.852 73.4631 186.596 73.4631 186.34 73.4021V61.1212V61.1267ZM184.632 74.7444C185.105 74.8554 185.834 74.9164 186.535 74.9164C188.315 74.9164 189.728 74.4005 190.746 73.2689C191.719 72.2317 192.565 70.3679 192.565 66.8955C192.565 63.7393 191.697 61.7813 190.523 60.7773C189.689 60.0173 188.526 59.6346 186.941 59.6346C186.056 59.6346 185.294 59.7178 184.632 59.9119V74.75V74.7444ZM180.115 74.8332H181.878V59.6845H180.115V74.8332ZM174.908 74.8332L178.424 59.6845H176.588L175.164 66.7291C174.763 68.543 174.346 70.6341 174.123 72.5922H174.079C173.823 70.6674 173.372 68.4819 172.972 66.779L171.52 59.679H169.673L173.15 74.8276H174.913L174.908 74.8332ZM164.444 61.0213C166.474 61.0213 166.947 64.3772 166.947 67.1951C166.947 70.1571 166.474 73.4797 164.472 73.4797C162.597 73.4797 161.951 70.3901 161.951 67.2561C161.951 64.1221 162.597 61.0213 164.444 61.0213ZM164.65 59.5181C161.951 59.5181 160.16 62.225 160.16 67.2283C160.16 72.2317 161.874 74.9996 164.399 74.9996C166.925 74.9996 168.783 72.8196 168.783 67.1451C168.783 62.3082 167.192 59.5181 164.65 59.5181ZM153.996 74.8332H160.027V73.3688H155.715V59.6845H153.996V74.8332ZM146.753 61.1323C146.992 61.0823 147.298 61.0213 147.688 61.0213C149.624 61.0213 150.269 62.4192 150.269 63.9834C150.269 66.1134 149.118 67.2283 147.443 67.2283C147.132 67.2283 146.97 67.2006 146.753 67.1784V61.1378V61.1323ZM144.995 74.8332H146.753V68.6262C146.998 68.6594 147.215 68.6594 147.488 68.6594C148.834 68.6594 150.236 68.0992 151.109 66.9621C151.665 66.1966 152.033 65.2481 152.033 63.8724C152.033 62.4968 151.604 61.4651 150.881 60.744C150.097 59.9619 148.917 59.629 147.515 59.629C146.531 59.629 145.696 59.74 144.995 59.9064V74.8332ZM139.026 66.1633H135.249V61.1933H139.282V59.6845H133.48V74.8332H139.566V73.3244H135.249V67.6499H139.026V66.1689V66.1633ZM124.59 74.8332V69.5913C124.59 66.363 124.534 64.4382 124.423 62.3914H124.484C124.979 64.294 125.636 66.0302 126.276 67.5334L129.129 74.8332H130.787V59.6845H129.252V65.1094C129.252 67.7387 129.313 69.6912 129.447 72.0653H129.385C128.857 70.4123 128.1 68.4043 127.477 66.7846L124.685 59.6845H123.027V74.8332H124.596H124.59ZM119.461 58.8747L121.43 56.667H119.917L118.754 57.9816H118.743L117.564 56.667H116.012L118.009 58.8747H119.455H119.461ZM120.98 73.097C120.59 73.2634 120.028 73.4353 119.383 73.4353C117.536 73.4353 115.789 71.8933 115.789 67.2894C115.789 62.6854 117.697 61.0823 119.327 61.0823C120.134 61.0823 120.507 61.2377 120.841 61.3874L121.269 59.9341C120.924 59.74 120.284 59.5403 119.361 59.5403C116.941 59.5403 113.976 61.4651 113.976 67.4225C113.976 72.5645 116.106 74.9663 119.077 74.9663C120.034 74.9663 120.79 74.7999 121.269 74.5503L120.985 73.097H120.98ZM107.322 68.9035L108.14 65.0484C108.335 64.0444 108.557 62.7298 108.724 61.5816H108.841C109.002 62.7242 109.197 63.9834 109.425 65.0484L110.243 68.9035H107.317H107.322ZM110.471 70.2791L111.445 74.8332H113.186L109.815 59.6845H107.89L104.413 74.8332H106.098L107.072 70.2791H110.471ZM97.6371 61.1101C97.8763 61.0213 98.2156 61.0102 98.555 61.0102C100.396 61.0213 101.125 62.1141 101.125 63.8724C101.125 65.6308 100.035 66.8955 98.3491 66.8955H97.6371V61.1156V61.1101ZM95.9181 74.8332H97.6371V68.2212H98.338C99.8122 68.2212 100.452 69.02 100.825 71.0779C101.092 72.9306 101.381 74.3894 101.604 74.8332H103.384C103.144 74.3561 102.872 73.0693 102.499 70.9725C102.199 69.02 101.576 67.9273 100.452 67.5944V67.5334C102.01 66.8456 102.928 65.5864 102.928 63.6506C102.928 62.4802 102.588 61.4706 101.826 60.6885C101.075 59.9341 99.929 59.629 98.4103 59.629C97.5759 59.629 96.6802 59.7123 95.9181 59.9064V74.8332ZM86.9504 74.8332H94.0711V73.3521H88.9643V73.2634L94.099 60.8549V59.679H87.3677V61.16H92.1352V61.2321L86.9504 73.7903V74.8221V74.8332Z" fill="#231F20"/>
<path d="M229.17 47.4427L229.954 43.6153C230.149 42.5947 230.372 41.2912 230.55 40.1485H230.655C230.822 41.2634 231.017 42.5226 231.239 43.6153L232.057 47.4427H229.164H229.17ZM232.28 48.8405L233.292 53.3668H234.994L231.634 38.2459H229.693L226.216 53.3668H227.902L228.892 48.8405H232.274H232.28ZM219.257 53.3613H225.27V51.908H221.009V38.2404H219.257V53.3613ZM212.881 39.5883C214.906 39.5883 215.401 42.9331 215.401 45.762C215.401 48.5909 214.906 52.0189 212.909 52.0189C210.912 52.0189 210.389 48.9182 210.389 45.7897C210.389 42.6613 211.001 39.5827 212.881 39.5827M213.087 38.0518C210.389 38.0518 208.598 40.7642 208.598 45.7953C208.598 50.8263 210.311 53.5665 212.831 53.5665C215.351 53.5665 217.232 51.3866 217.232 45.6843C217.232 40.8807 215.635 38.0518 213.093 38.0518M201.761 39.6437C201.983 39.5938 202.289 39.5605 202.656 39.5605C204.537 39.5883 205.266 40.6477 205.266 42.4116C205.266 44.1756 204.12 45.4514 202.49 45.4514H201.761V39.6437ZM199.992 53.3613H201.761V46.766H202.434C203.925 46.766 204.576 47.5481 204.898 49.6171C205.21 51.492 205.499 52.912 205.744 53.3613H207.48C207.285 52.8842 206.94 51.6251 206.645 49.5339C206.272 47.5481 205.722 46.4775 204.576 46.1336V46.0948C206.106 45.3959 207.001 44.1367 207.001 42.212C207.001 41.0083 206.679 40.0043 205.95 39.2499C205.149 38.4678 204.031 38.1572 202.54 38.1572C201.644 38.1572 200.748 38.2404 199.992 38.4678V53.3613ZM193.822 53.3613H195.564V39.7824H198.34V38.2459H191.063V39.7824H193.828V53.3613H193.822ZM183.147 53.3613V48.1361C183.147 44.8911 183.091 42.9608 182.986 40.9528H183.013C183.542 42.8221 184.187 44.5528 184.832 46.0948L187.692 53.3613H189.35V38.2404H187.814V43.632C187.814 46.2612 187.87 48.2137 188.009 50.5934H187.948C187.414 48.9737 186.663 46.9324 186.028 45.3293L183.247 38.2348H181.589V53.3557H183.158L183.147 53.3613ZM175.208 39.5883C177.178 39.5883 177.712 42.9331 177.712 45.762C177.712 48.5909 177.172 52.0189 175.208 52.0189C173.245 52.0189 172.694 48.9182 172.694 45.7897C172.694 42.6613 173.306 39.5827 175.208 39.5827M175.353 38.0518C172.694 38.0518 170.864 40.7642 170.864 45.7953C170.864 50.8263 172.577 53.5665 175.103 53.5665C177.628 53.5665 179.503 51.3866 179.503 45.6843C179.503 40.8807 177.962 38.0518 175.353 38.0518ZM162.881 53.3613H164.655V47.5204L165.495 46.0671L168.572 53.3613H170.446L166.669 44.697L170.402 38.2404H168.46L165.595 43.6098C165.351 44.1867 165.011 44.7802 164.655 45.4236V38.2348H162.881V53.3557V53.3613ZM151.61 47.4427L152.428 43.6153C152.622 42.5947 152.845 41.2912 153.012 40.1485H153.129C153.296 41.2634 153.49 42.5226 153.713 43.6153L154.53 47.4427H151.604H151.61ZM154.759 48.8405L155.732 53.3668H157.479L154.102 38.2459H152.183L148.706 53.3668H150.392L151.365 48.8405H154.764H154.759ZM140.322 53.3613H142.025V47.5204L142.865 46.0671L146.008 53.3613H147.888L144.044 44.697L147.771 38.2404H145.841L143.043 43.6098C142.731 44.1867 142.409 44.7802 142.092 45.4236H142.03V38.2348H140.328V53.3557L140.322 53.3613ZM131.433 52.8621C131.85 53.1671 132.985 53.5055 134.014 53.5055C136.439 53.5055 138.275 51.8581 138.275 49.2566C138.275 47.5814 137.463 46.1836 135.644 44.8967C134.181 43.8649 133.435 43.2825 133.435 41.7904C133.435 40.7642 134.136 39.6215 135.583 39.6215C136.406 39.6215 137.018 39.8656 137.38 40.154L137.825 38.673C137.469 38.3901 136.662 38.1128 135.705 38.1128C133.257 38.1128 131.661 39.7879 131.661 42.0788C131.661 44.0369 133.346 45.4569 134.554 46.2668C135.739 47.1709 136.54 48.0307 136.54 49.4285C136.54 50.9428 135.583 51.9745 134.02 51.9745C133.235 51.9745 132.334 51.7194 131.855 51.3866L131.438 52.8676L131.433 52.8621ZM126.276 53.3613H127.978V39.7824H130.754V38.2459H123.5V39.7824H126.276V53.3613ZM118.087 47.4427L118.905 43.6153C119.099 42.5947 119.322 41.2912 119.483 40.1485H119.6C119.767 41.2634 119.962 42.5226 120.184 43.6153L121.002 47.4427H118.081H118.087ZM121.236 48.8405L122.209 53.3668H123.95L120.59 38.2459H118.654L115.177 53.3668H116.863L117.842 48.8405H121.236ZM111.756 53.3613L115.322 38.2404H113.47L112.007 45.285C111.65 47.0711 111.189 49.2011 110.966 51.1536H110.944C110.666 49.2233 110.215 47.0433 109.815 45.3293L108.363 38.2348H106.51L109.987 53.3557H111.751L111.756 53.3613ZM100.007 39.6437C100.23 39.5938 100.602 39.5605 100.903 39.5605C102.783 39.5883 103.512 40.6477 103.512 42.4116C103.512 44.1756 102.421 45.4514 100.736 45.4514H100.001V39.6437H100.007ZM98.3047 53.3613H100.007V46.766H100.68C102.204 46.766 102.844 47.5481 103.15 49.6171C103.456 51.492 103.768 52.912 103.99 53.3613H105.72C105.526 52.8842 105.22 51.6251 104.886 49.5339C104.519 47.5481 103.962 46.4775 102.839 46.1336V46.0948C104.346 45.3959 105.242 44.1367 105.242 42.212C105.242 41.0083 104.975 40.0043 104.213 39.2499C103.395 38.4678 102.271 38.1572 100.791 38.1572C99.9291 38.1572 99.0112 38.2404 98.2992 38.4678V53.3613H98.3047ZM87.8462 38.2459V53.3668H89.6208V46.2945H93.8487V53.3668H95.59V38.2459H93.8487V44.7303H89.6208V38.2459H87.8462Z" fill="#231F20"/>
<path d="M61.8388 3.68911L61.1601 3.00684L40.4934 23.9742C40.7215 24.1906 40.9385 24.4235 41.1443 24.6676L61.8388 3.68911Z" fill="#929497"/>
<path d="M32.4494 43.9208C26.0352 43.9208 20.7781 38.7067 20.7781 32.3222C20.7781 25.9377 26.0352 20.7402 32.4494 20.7402C38.8636 20.7402 44.0483 25.9377 44.0483 32.3222H42.1124C42.1124 26.9916 37.7621 22.6484 32.4494 22.6484C27.1366 22.6484 22.714 26.9916 22.714 32.3222C22.714 37.6528 27.0699 42.0182 32.4494 42.0182V43.9208Z" fill="#58595B"/>
<path d="M32.4493 51.0652C22.1521 51.0652 13.7964 42.6727 13.7964 32.3222C13.7964 21.9716 22.1521 13.5791 32.4493 13.5791C42.7465 13.5791 51.0633 22.0049 51.0633 32.3222H49.6503C49.6503 22.7925 41.8898 15.0158 32.4493 15.0158C23.0088 15.0158 15.2483 22.787 15.2483 32.3222C15.2483 41.8573 22.9365 49.6563 32.4493 49.6563V51.0652Z" fill="#929497"/>
<path d="M32.4493 64.6716C14.5641 64.6716 0 50.1442 0 32.3164C0 14.4886 14.5641 0 32.4493 0C50.3345 0 64.8374 14.4941 64.8374 32.3164H64.3756C64.3756 14.7715 50.0508 0.482583 32.4493 0.482583C14.8478 0.482583 0.483986 14.7715 0.483986 32.3164C0.483986 49.8613 14.8033 64.189 32.4493 64.189V64.6661V64.6716Z" fill="#DBDCDD"/>
<path d="M7.71032 32.3222C7.71032 27.7182 9.05657 23.1864 11.5488 19.2536L11.5822 19.2315L10.7533 18.6768H10.7366C8.13867 22.7926 6.75903 27.4964 6.75903 32.3222C6.75903 46.4336 18.2579 57.9213 32.4436 57.9213V56.9561C18.803 56.9561 7.70475 45.9122 7.70475 32.3222" fill="#BBBDBF"/>
<path d="M32.4492 6.75586C27.6316 6.75586 22.8696 8.11486 18.7697 10.6831L18.7307 10.7219L19.3426 11.4707H19.3538C23.2813 9.00236 27.8152 7.69329 32.4492 7.69329C46.023 7.69329 57.1158 18.7539 57.1158 32.3216H58.0837C58.0837 18.2214 46.5682 6.75586 32.4436 6.75586" fill="#BBBDBF"/>
</g>
<defs>
<clipPath id="clip0_89_1331">
<rect width="235" height="75" fill="white"/>
</clipPath>
</defs>
</svg>
