<svg width="226" height="51" viewBox="0 0 226 51" fill="none" xmlns="http://www.w3.org/2000/svg">
<g clip-path="url(#clip0_89_1173)">
<path d="M120.638 47.6793C120.514 47.842 120.147 47.9205 119.533 47.9205H112.162C111.3 47.9205 110.922 47.5447 111.029 46.7986L113.076 32.6631H101.504L99.4574 46.7986C99.3841 47.2249 99.2882 47.5222 99.1585 47.6793C99.0345 47.842 98.6848 47.9205 98.1096 47.9205H90.6829C89.8596 47.9205 89.4987 47.5447 89.6058 46.7986L94.6134 11.5721C94.7205 10.8204 95.166 10.4502 95.9555 10.4502H103.382C103.957 10.4502 104.296 10.5287 104.403 10.6914C104.51 10.8541 104.527 11.1458 104.454 11.5777L102.677 24.2099H114.249L116.025 11.5777C116.132 10.826 116.6 10.4558 117.424 10.4558H124.794C125.403 10.4558 125.764 10.5343 125.871 10.697C125.978 10.8597 125.995 11.1514 125.928 11.5833L120.92 46.8099C120.847 47.2362 120.751 47.5335 120.621 47.6905L120.638 47.6793Z" fill="#231F20"/>
<path d="M146.984 9.8501C149.46 9.8501 151.603 10.2147 153.413 10.9495C155.223 11.6787 156.723 12.7052 157.907 14.029C159.091 15.3472 159.977 16.9459 160.569 18.8194C161.161 20.6929 161.454 22.774 161.454 25.057C161.454 28.5179 161.054 31.6872 160.242 34.5592C159.435 37.4312 158.223 39.9049 156.61 41.9747C154.997 44.0446 152.984 45.6488 150.582 46.7931C148.18 47.9374 145.394 48.504 142.242 48.504C139.727 48.504 137.578 48.1618 135.779 47.4887C133.986 46.81 132.503 45.8227 131.341 44.5157C130.174 43.2144 129.311 41.6157 128.758 39.7254C128.2 37.835 127.924 35.6923 127.924 33.3027C127.924 29.8025 128.364 26.6108 129.243 23.722C130.123 20.8332 131.386 18.3594 133.039 16.3064C134.691 14.2534 136.687 12.666 139.039 11.5441C141.39 10.4222 144.035 9.85571 146.979 9.85571L146.984 9.8501ZM146.071 18.8475C144.779 18.8475 143.646 19.2569 142.681 20.0815C141.712 20.9005 140.905 21.9831 140.262 23.3181C139.619 24.6587 139.134 26.1564 138.807 27.8168C138.486 29.4771 138.322 31.1655 138.322 32.8764C138.322 34.9462 138.706 36.5617 139.478 37.7228C140.251 38.884 141.565 39.4617 143.437 39.4617C144.762 39.4617 145.901 39.0579 146.854 38.2557C147.802 37.4536 148.591 36.3934 149.223 35.0696C149.849 33.7514 150.306 32.2762 150.593 30.6495C150.881 29.0284 151.022 27.3736 151.022 25.6964C151.022 24.698 150.943 23.7781 150.779 22.9367C150.616 22.1009 150.351 21.3773 149.973 20.7658C149.595 20.16 149.093 19.6889 148.467 19.3467C147.836 19.0101 147.041 18.8362 146.071 18.8362V18.8475Z" fill="#231F20"/>
<path d="M174.921 35.1763L173.251 46.8494C173.178 47.2757 173.082 47.5617 172.952 47.7076C172.828 47.8478 172.479 47.9207 171.904 47.9207H164.477C163.654 47.9207 163.293 47.5617 163.4 46.8494L168.08 13.9787C168.154 13.5131 168.261 13.07 168.402 12.6381C168.543 12.2118 168.757 11.8359 169.045 11.5162C169.332 11.1965 169.71 10.9384 170.172 10.7421C170.64 10.5458 171.233 10.4448 171.949 10.4448H184.975C186.875 10.4448 188.533 10.7141 189.954 11.247C191.37 11.7855 192.548 12.5259 193.479 13.4683C194.409 14.4162 195.109 15.5493 195.577 16.8675C196.045 18.1857 196.276 19.6161 196.276 21.1474C196.276 21.6467 196.22 22.3422 196.112 23.2341C196.005 24.126 195.768 25.0908 195.413 26.1229C195.052 27.1606 194.517 28.2096 193.8 29.2809C193.084 30.3523 192.126 31.3227 190.919 32.1978C189.718 33.0728 188.229 33.7852 186.453 34.3406C184.676 34.8959 182.533 35.1707 180.018 35.1707H174.904L174.921 35.1763ZM177.176 19.1673L176.048 27.2504H181.428C182.793 27.2504 183.892 26.7792 184.738 25.8312C185.579 24.8888 186.001 23.7333 186.001 22.3759C186.001 22.0225 185.956 21.6523 185.866 21.2764C185.776 20.9006 185.612 20.5528 185.381 20.2331C185.15 19.9134 184.823 19.6553 184.411 19.459C184 19.2627 183.469 19.1617 182.821 19.1617H177.171L177.176 19.1673Z" fill="#231F20"/>
<path d="M209.471 48.5093C208.287 48.5093 207.064 48.4364 205.812 48.2962C204.554 48.156 203.319 47.9204 202.095 47.6006C200.877 47.2809 199.716 46.877 198.622 46.3946C197.528 45.9122 196.547 45.3345 195.689 44.6557C195.368 44.4089 195.193 44.1565 195.176 43.9041C195.159 43.6573 195.295 43.259 195.582 42.7261L197.951 37.6385C198.272 37.0327 198.571 36.6905 198.836 36.6232C199.107 36.5503 199.49 36.6232 199.992 36.8363C200.46 37.0495 201.058 37.3019 201.797 37.588C202.53 37.8741 203.336 38.1489 204.216 38.4182C205.095 38.6874 206.02 38.9118 206.99 39.0857C207.96 39.2652 208.93 39.3549 209.894 39.3549C210.859 39.3549 211.676 39.2427 212.235 39.0071C212.793 38.7772 213.205 38.5079 213.475 38.205C213.746 37.9021 213.915 37.588 213.988 37.2683C214.062 36.9485 214.096 36.6961 214.096 36.5166C214.096 36.051 213.87 35.6079 213.424 35.176C212.973 34.7497 211.981 34.1775 210.436 33.4651C208.823 32.6798 207.34 31.8777 205.998 31.0587C204.656 30.2398 203.494 29.3479 202.53 28.3831C201.56 27.4183 200.798 26.3693 200.24 25.225C199.682 24.0807 199.406 22.8186 199.406 21.4219C199.406 19.7447 199.704 18.1909 200.297 16.7662C200.889 15.3414 201.774 14.1186 202.958 13.0977C204.142 12.0824 205.62 11.2858 207.396 10.7137C209.173 10.1415 211.225 9.85547 213.56 9.85547C214.603 9.85547 215.658 9.91156 216.735 10.0181C217.812 10.1247 218.844 10.2762 219.831 10.4725C220.817 10.6688 221.759 10.9212 222.656 11.2241C223.552 11.527 224.342 11.8917 225.024 12.3236C225.566 12.6096 225.876 12.8957 225.966 13.1818C226.056 13.4679 225.955 14.0232 225.673 14.8422L224.218 19.2847C223.964 19.9971 223.682 20.401 223.355 20.4908C223.034 20.5805 222.566 20.5356 221.957 20.3561C220.519 19.9298 219.058 19.5596 217.569 19.2567C216.081 18.9538 214.654 18.8023 213.289 18.8023C211.998 18.8023 211.129 19.0155 210.678 19.4474C210.227 19.8737 210.007 20.3561 210.007 20.8946C210.007 21.1078 210.052 21.3153 210.143 21.5116C210.233 21.708 210.402 21.9324 210.656 22.1792C210.904 22.4316 211.253 22.6784 211.705 22.9308C212.15 23.1832 212.737 23.4637 213.453 23.789C215.28 24.5407 216.921 25.326 218.376 26.145C219.831 26.9639 221.06 27.8782 222.064 28.8767C223.067 29.8752 223.84 30.9858 224.376 32.1974C224.911 33.409 225.182 34.7833 225.182 36.3203C225.182 38.3901 224.804 40.1851 224.054 41.6996C223.299 43.2197 222.244 44.4818 220.879 45.5027C219.515 46.518 217.868 47.2809 215.928 47.7801C213.988 48.2794 211.84 48.5318 209.471 48.5318V48.5093Z" fill="#231F20"/>
<path d="M47.7805 40.7519C51.1584 47.7243 54.7223 50.9833 58.9742 51.0001C63.1415 51.017 66.6604 47.9375 70.0269 41.3072C67.8502 36.7525 65.978 31.216 64.1679 25.8479C62.5269 20.979 60.8295 15.9643 58.9178 11.7236C56.9723 15.9475 55.2355 20.9454 53.5494 25.803C51.7561 30.9692 49.9008 36.3093 47.7805 40.7463V40.7519Z" fill="#0076A2"/>
<path d="M23.301 6.53856e-05C19.0435 -0.0167626 15.4513 3.21421 12.0171 10.1586C14.0979 14.6068 15.9025 19.9581 17.6506 25.1355C19.2972 30.0044 20.989 35.0247 22.9063 39.2654C24.8518 35.0471 26.5886 30.0548 28.2691 25.2028C30.1244 19.8515 32.0473 14.3151 34.2692 9.78273C30.959 3.13007 27.4683 0.0168934 23.301 6.53856e-05Z" fill="#37B34A"/>
<path d="M29.7634 25.7188C27.9081 31.0589 25.9908 36.5841 23.7803 41.1108C27.0848 47.7691 30.5754 50.8822 34.7428 50.8991C39.0003 50.9159 42.5925 47.6905 46.0323 40.7406C43.9515 36.2868 42.1413 30.9299 40.3932 25.7525C38.7522 20.8836 37.0548 15.8632 35.1432 11.6226C33.192 15.852 31.4551 20.8555 29.7634 25.7188Z" fill="#9D0B0F"/>
<path d="M70.8503 0.201729C66.6886 0.184901 63.1698 3.26442 59.7976 9.89465C61.98 14.4494 63.8465 19.9914 65.6567 25.354C67.3033 30.2229 68.9951 35.2376 70.9067 39.4782C72.8579 35.2544 74.5947 30.2565 76.2752 25.4044C78.0684 20.2382 79.9237 14.8982 82.044 10.4668C78.6718 3.48318 75.1079 0.218557 70.8503 0.201729Z" fill="#00ADEE"/>
<path d="M47.0813 0.101143C42.914 0.0843148 39.3951 3.16383 36.0286 9.79406C38.2109 14.3488 40.0775 19.8908 41.8876 25.2534C43.4666 29.9259 45.0907 34.75 46.9121 38.8728C48.7674 34.7612 50.4366 29.954 52.055 25.2926C53.9103 19.9469 55.8276 14.4218 58.0438 9.88942C54.7336 3.23115 51.243 0.117971 47.0813 0.101143Z" fill="#EC1C24"/>
<path d="M5.98313 25.6292C4.12785 30.9693 2.21618 36.4889 0 41.0156C3.31018 47.6683 6.79517 50.7815 10.9681 50.7983C15.1411 50.8151 18.6543 47.73 22.0209 41.1054C19.8385 36.5506 17.9663 31.0086 16.1561 25.6405C14.5828 20.9679 12.9531 16.1551 11.1373 12.0322C9.27639 16.1495 7.60721 20.9623 5.98313 25.6292Z" fill="#187B30"/>
</g>
<defs>
<clipPath id="clip0_89_1173">
<rect width="226" height="51" fill="white"/>
</clipPath>
</defs>
</svg>
