<?xml version="1.0" encoding="UTF-8"?>
<svg id="Layer_2" data-name="Layer 2" xmlns="http://www.w3.org/2000/svg" viewBox="0 0 363.01 134.48">
  <defs>
    <style>
      .cls-1 {
        fill: #232222;
      }

      .cls-1, .cls-2, .cls-3, .cls-4 {
        stroke-width: 0px;
      }

      .cls-2 {
        fill: #0070b8;
      }

      .cls-3 {
        fill: #4d3040;
      }

      .cls-4 {
        fill: #da2128;
      }
    </style>
  </defs>
  <g id="SVG">
    <g>
      <path class="cls-4" d="M63.25,33.5l-1.1,9.74c15.02,6.78,25.45,21.63,25.45,38.86,0,20.53-14.8,37.67-34.54,41.82l-1.19,10.56,60.09-33.49L123.34,0l-60.09,33.5Z"/>
      <path class="cls-2" d="M43.81,39.3C19.61,39.3,0,58.46,0,82.09s19.61,42.79,43.81,42.79c3.18,0,6.28-.34,9.26-.97l9.09-80.68c-5.58-2.52-11.8-3.94-18.35-3.94"/>
      <path class="cls-3" d="M87.61,82.09c0-17.23-10.43-32.07-25.46-38.86l-9.09,80.68c19.74-4.15,34.54-21.3,34.54-41.83"/>
      <path class="cls-1" d="M146.18,94.07c7.82-4.34,9.53-7.16,9.53-14.92v-36.54h11.24v36.41c0,9.33-1.38,18.07-16.76,23.07l-4.01-8.02Z"/>
      <path class="cls-1" d="M191.2,42.62h14.39l15.64,46.46h-11.57l-4.4-13.6h-15.71l-5.06,13.6h-11.17l17.88-46.46ZM202.64,67.39l-4.67-17.88-5.45,17.88h10.12Z"/>
      <polygon class="cls-1" points="227.68 42.62 240.63 42.62 258.9 74.49 258.57 69.3 258.57 42.62 269.74 42.62 269.74 89.08 256.4 89.08 238.59 57.99 238.85 64.17 238.85 89.08 227.68 89.08 227.68 42.62"/>
      <path class="cls-1" d="M294.06,42.62h14.39l15.64,46.46h-11.57l-4.4-13.6h-15.71l-5.06,13.6h-11.17l17.88-46.46ZM305.49,67.39l-4.67-17.88-5.46,17.88h10.12Z"/>
      <polygon class="cls-1" points="330.54 42.62 363.01 42.62 363.01 51.36 341.71 51.36 341.71 62.86 361.56 62.86 361.56 70.94 341.71 70.94 341.71 89.08 330.54 89.08 330.54 42.62"/>
    </g>
  </g>
</svg>