<svg width="277" height="40" viewBox="0 0 277 40" fill="none" xmlns="http://www.w3.org/2000/svg">
<g clip-path="url(#clip0_89_1489)">
<path d="M26.6438 30.1982C26.2612 31.4876 25.9888 32.8455 25.9888 33.8668C25.9888 37.6494 28.9511 39.9943 35.0613 39.9943C43.1774 39.9943 46.2499 37.0789 48.0991 30.9114L53.4035 13.1279H45.8672L40.5628 30.7631C39.9831 32.7314 38.8353 33.5644 36.4468 33.5644C34.2555 33.5644 33.4845 32.5032 34.0236 30.7288L39.2933 13.1336H31.7569L26.6438 30.1982Z" fill="black"/>
<path d="M128.193 39.6179H145.955L147.88 33.3763H137.578L138.767 29.3654H147.804L149.648 23.2721H140.616L141.845 19.1871H152.147L153.955 13.1338H136.152L128.193 39.6179Z" fill="black"/>
<path d="M244.658 12.7518C237.313 12.7518 231.857 13.5848 228.24 26.9409C227.625 29.2116 227.237 31.2542 227.237 33.0342C227.237 37.3075 229.544 39.9947 236.965 39.9947C238.849 39.9947 241.272 39.7323 242.965 39.1617L244.808 33.0342C244.808 33.0342 242.849 33.5249 239.736 33.5249C236.315 33.5249 235.388 32.4637 235.388 30.7635C235.388 29.7422 235.695 28.5327 236.043 27.1691C237.886 20.0888 239.927 19.2958 243.655 19.2958C246.768 19.2958 248.576 19.7865 248.576 19.7865L250.501 13.465C249.423 13.1226 246.542 12.7461 244.658 12.7461V12.7518Z" fill="black"/>
<path d="M1.22894 39.4295C2.26663 39.6919 4.95652 39.9943 7.07248 39.9943C16.6842 39.9943 20.5277 37.4212 22.719 30.1925L27.8727 13.1279H20.3364L15.7972 28.3383C15.6407 28.829 15.374 29.816 14.9508 30.5691C13.7218 32.7656 11.258 33.3704 8.41163 33.3704C5.56522 33.3704 3.18259 33.0281 3.18259 33.0281L1.22314 39.4237L1.22894 39.4295Z" fill="black"/>
<path d="M188.483 39.6177H195.944L198.599 30.7231H200.64L202.872 39.6177H210.947L207.95 29.5535C210.217 28.9088 212.796 28.1158 214.565 22.2108C215.028 20.659 215.22 19.0329 215.22 18.2C215.22 14.9822 213.295 13.1279 208.489 13.1279H196.454L188.495 39.6177H188.483ZM200.251 25.1662L202.02 19.187H205.405C206.715 19.187 207.365 19.8317 207.365 20.8872C207.365 23.3462 206.136 25.1662 203.556 25.1662H200.251Z" fill="black"/>
<path d="M101.468 24.367H91.3923L89.8561 29.2508H93.0445L91.7749 33.4499C91.7749 33.4499 90.6966 33.6382 89.4676 33.6382C86.7372 33.6382 86.314 32.4629 86.314 30.7627C86.314 29.7414 86.5807 28.492 86.9285 27.1284C88.772 20.0538 90.9285 19.1466 94.6561 19.1466C98.3837 19.1466 101.613 19.9054 101.613 19.9054L103.572 13.738C102.494 13.3957 99.033 12.751 95.6532 12.751C88.3082 12.751 82.8125 13.544 79.1951 26.9059C78.5806 29.1766 78.3081 31.1792 78.3081 32.9592C78.3081 37.2325 80.8473 39.9996 88.1517 39.9996C91.688 39.9996 95.4213 39.4348 97.1083 38.8642L101.45 24.3727L101.468 24.367Z" fill="black"/>
<path d="M157.915 13.1338H165.451L157.491 39.6179H149.955L157.915 13.1338Z" fill="black"/>
<path d="M57.7166 13.1338H64.024L67.9486 27.2487H68.0646C68.0646 27.2487 68.6791 24.9381 69.2588 22.9698L72.2211 13.1338H79.6415L71.682 39.6236H65.3747L61.3747 25.6969H61.2587C61.2587 25.6969 60.7196 27.8535 60.0645 30.0501L57.1833 39.6236H49.7629L57.7224 13.1338H57.7166Z" fill="black"/>
<path d="M169.909 13.1338H176.216L180.141 27.2487H180.257C180.257 27.2487 180.871 24.9381 181.451 22.9698L184.413 13.1338H191.834L183.874 39.6236H177.567L173.567 25.6969H173.451C173.451 25.6969 172.912 27.8535 172.257 30.0501L169.37 39.6236H161.949L169.909 13.1338Z" fill="black"/>
<path d="M221.127 13.1338H228.663L220.704 39.6179H213.167L221.127 13.1338Z" fill="black"/>
<path d="M109.01 13.1338H116.546L113.427 23.4205H120.813L123.926 13.1338H131.462L123.503 39.6179H115.966L119.004 29.5138H111.624L108.587 39.6179H101.05L109.01 13.1338Z" fill="black"/>
<path d="M254.542 13.1338H262.078L258.965 23.4205H266.345L269.464 13.1338H277L269.035 39.6179H261.504L264.536 29.5138H257.156L254.119 39.6179H246.582L254.542 13.1338Z" fill="black"/>
<path d="M28.951 10.8629L17.4553 0L0 10.8629H9.88416L3.91888 30.6147C3.91888 30.6147 5.9189 30.9171 8.64937 30.9171C10.8001 30.9171 12.0349 30.2724 12.6088 29.2911C12.9161 28.7605 13.032 28.4981 13.2987 27.5852L18.4118 10.8629H28.9452H28.951Z" fill="black"/>
</g>
<defs>
<clipPath id="clip0_89_1489">
<rect width="277" height="40" fill="white"/>
</clipPath>
</defs>
</svg>
