<svg width="189" height="61" viewBox="0 0 189 61" fill="none" xmlns="http://www.w3.org/2000/svg">
<g clip-path="url(#clip0_89_1310)">
<path fill-rule="evenodd" clip-rule="evenodd" d="M0.190674 47.8313V13.1396H4.72413V30.3352L21.7352 13.1396H27.8787L13.5086 27.1951L28.5071 47.8313H22.5261L10.3309 30.2709L4.72413 35.8072V47.8313H0.190674Z" fill="black"/>
<path fill-rule="evenodd" clip-rule="evenodd" d="M38.8591 47.8313V13.1396H43.5056L61.4911 40.3708V13.1396H65.841V47.8313H61.1875L43.2019 20.5644V47.8313H38.8591Z" fill="black"/>
<path fill-rule="evenodd" clip-rule="evenodd" d="M124.31 47.8313V13.1396H137.225C139.499 13.1396 141.236 13.2541 142.437 13.4687C144.117 13.7548 145.53 14.2984 146.667 15.0995C147.804 15.8864 148.714 17.0022 149.399 18.4328C150.099 19.8705 150.452 21.4442 150.452 23.168C150.452 26.1222 149.527 28.6185 147.669 30.6714C145.812 32.7029 142.465 33.7257 137.621 33.7257H128.836V47.8313H124.31ZM128.836 29.6271H137.692C140.622 29.6271 142.698 29.0763 143.927 27.9676C145.156 26.8661 145.77 25.3067 145.777 23.3039C145.777 21.8519 145.41 20.6144 144.675 19.5844C143.962 18.5401 143.009 17.8606 141.822 17.5244C141.06 17.3241 139.648 17.2168 137.593 17.2168H128.829V29.6199L128.836 29.6271Z" fill="black"/>
<path fill-rule="evenodd" clip-rule="evenodd" d="M162.83 47.8313V13.1396H175.753C178.027 13.1396 179.764 13.2541 180.964 13.4687C182.645 13.7548 184.057 14.2984 185.194 15.0995C186.331 15.8864 187.242 17.0022 187.927 18.4328C188.626 19.8705 188.979 21.4442 188.979 23.168C188.979 26.1222 188.054 28.6185 186.197 30.6714C184.34 32.7029 180.992 33.7257 176.148 33.7257H167.364V47.8313H162.83ZM167.364 29.6271H176.219C179.149 29.6271 181.225 29.0763 182.454 27.9676C183.683 26.8661 184.297 25.3067 184.304 23.3039C184.304 21.8519 183.937 20.6144 183.203 19.5844C182.489 18.5401 181.536 17.8606 180.35 17.5244C179.587 17.3241 178.175 17.2168 176.12 17.2168H167.357V29.6199L167.364 29.6271Z" fill="black"/>
<path d="M92.9853 16.359L75.021 47.8819H114.41L94.7154 13.3262L92.9853 16.3519V16.359ZM94.7083 21.409C97.1375 25.6721 105.068 39.5845 107.497 43.8476H81.92C84.3492 39.5845 92.2792 25.6721 94.7083 21.409Z" fill="black"/>
<path d="M188.993 51.916H0.0212402V61.0002H188.993V51.916Z" fill="black"/>
<path d="M188.979 0H0V9.08419H188.979V0Z" fill="black"/>
</g>
<defs>
<clipPath id="clip0_89_1310">
<rect width="189" height="61" fill="white"/>
</clipPath>
</defs>
</svg>
