<svg width="224" height="71" viewBox="0 0 224 71" fill="none" xmlns="http://www.w3.org/2000/svg">
<g clip-path="url(#clip0_89_1505)">
<path d="M53.6505 0C50.3312 0 47.6667 2.70328 47.6667 6.07104C47.6667 9.43881 50.3312 12.1421 53.6505 12.1421C56.9699 12.1421 59.6343 9.43881 59.6343 6.07104C59.6343 2.70328 56.9699 0 53.6505 0Z" fill="#1E9FCC"/>
<path d="M40.517 25.5372L47.9942 15.5446C48.3614 15.0261 48.3961 14.3213 48.0686 13.8028L44.8932 8.62282C44.6004 8.17982 44.1291 7.88281 43.5783 7.88281L29.899 7.99356H22.387C21.8015 7.99356 21.5485 8.73356 21.9851 9.10608L24.0988 10.8479C24.3915 11.1046 24.7537 11.2556 25.1209 11.3311L38.1453 13.8129L22.0198 31.3917L0.793746 34.4575C0.0643788 34.5682 -0.263092 35.4592 0.247961 36.013L2.3269 38.2682C2.7288 38.7112 3.31428 38.973 3.92953 38.973L24.4312 38.6408C25.1953 38.6408 25.9247 38.4193 26.5846 38.0115L31.5115 34.976L41.8715 43.3023C42.2734 43.6345 42.5661 44.1178 42.6009 44.6363L44.5706 59.3659C44.6798 60.0706 45.2653 60.5891 45.955 60.5891H47.0118C47.7759 60.5891 48.3961 59.9599 48.3961 59.1846L48.4705 42.824C48.4705 41.9733 48.2175 41.1578 47.7064 40.4933L38.6613 28.1297L40.5566 25.5372H40.5219H40.517Z" fill="#1E9FCC"/>
<path d="M92.1333 46.4087L85.058 33.4561H79.4414V46.4087H71.7805V9.91699H88.5957C96.1076 9.91699 100.742 14.9158 100.742 21.6866C100.742 28.4573 96.6931 31.6036 92.828 32.5299L100.96 46.4439H92.1333V46.4087ZM92.8627 21.6161C92.8627 18.6158 90.5257 16.7331 87.5388 16.7331H79.4414V26.5796H87.5388C90.5654 26.5796 92.8627 24.7271 92.8627 21.5808V21.6161Z" fill="#004F5A"/>
<path d="M106.473 46.4087V9.91699H131.936V16.7633H114.133V24.4251H131.569V31.2714H114.133V39.5977H131.936V46.4439H106.473V46.4087Z" fill="#004F5A"/>
<path d="M137.915 46.4087V9.91699H154.73C162.534 9.91699 166.801 15.2833 166.801 21.6866C166.801 28.0899 162.495 33.3806 154.73 33.3806H145.575V46.4087H137.915ZM158.997 21.6513C158.997 18.5806 156.66 16.728 153.673 16.728H145.575V26.5343H153.673C156.699 26.5343 158.997 24.6818 158.997 21.6513Z" fill="#004F5A"/>
<path d="M171.292 46.4087V9.91699H178.988V39.5624H194.2V46.4087H171.292Z" fill="#004F5A"/>
<path d="M202.59 46.4088V31.4577L188.767 9.88184H197.519L206.421 24.5007L215.322 9.88184H224.005L210.251 31.4577V46.4088H202.59Z" fill="#004F5A"/>
<path d="M71.1257 63.102C71.1257 58.4003 74.5542 55.2188 79.0049 55.2188C83.4555 55.2188 83.8921 56.8095 84.9887 58.6218L82.7658 59.8048C82.0365 58.5462 80.5777 57.5847 79.0098 57.5847C76.0527 57.5847 73.8298 59.8803 73.8298 63.0618C73.8298 66.2433 76.0179 68.5388 79.0098 68.5388C82.0017 68.5388 82.0762 67.5773 82.7658 66.3188L85.0284 67.4666C83.8971 69.2788 82.0017 70.9098 79.0098 70.9098C74.5939 70.9098 71.1307 67.7283 71.1307 63.0265V63.102H71.1257Z" fill="#1E9FCC"/>
<path d="M86.4424 63.102C86.4424 58.5513 89.6179 55.2188 94.1032 55.2188C98.5886 55.2188 101.764 58.5513 101.764 63.102C101.764 67.6528 98.5886 70.9853 94.1032 70.9853C89.6179 70.9853 86.4424 67.6528 86.4424 63.102ZM99.0996 63.102C99.0996 59.9558 97.1298 57.625 94.1379 57.625C91.1461 57.625 89.1763 59.9558 89.1763 63.102C89.1763 66.2483 91.1113 68.5791 94.1379 68.5791C97.1646 68.5791 99.0996 66.208 99.0996 63.102Z" fill="#1E9FCC"/>
<path d="M117.23 70.6884V58.9541L112.635 70.6884H111.504L106.909 58.9541V70.6884H104.285V55.4756H108.006L112.089 65.9111L116.138 55.4756H119.859V70.6884H117.235H117.23Z" fill="#1E9FCC"/>
<path d="M122.082 68.5435L123.575 66.4694C124.598 67.582 126.24 68.5787 128.319 68.5787C130.398 68.5787 131.311 67.5065 131.311 66.4694C131.311 63.2879 122.593 65.2462 122.593 59.6584C122.593 54.0706 124.746 55.1781 128.066 55.1781C131.385 55.1781 132.298 55.9534 133.648 57.3226L132.154 59.3211C130.949 58.0978 129.381 57.5793 127.778 57.5793C126.175 57.5793 125.262 58.3546 125.262 59.4671C125.262 62.3164 133.98 60.5796 133.98 66.2026C133.98 71.8257 132.194 70.9397 128.18 70.9397C124.166 70.9397 123.402 69.9379 122.052 68.5334H122.087L122.082 68.5435Z" fill="#1E9FCC"/>
<path d="M140.47 70.6883V64.3605L134.635 55.4805H137.662L141.785 61.9945L145.908 55.4805H148.935L143.135 64.3605V70.6883H140.47Z" fill="#1E9FCC"/>
<path d="M149.079 68.5435L150.572 66.4694C151.594 67.582 153.236 68.5787 155.315 68.5787C157.394 68.5787 158.307 67.5065 158.307 66.4694C158.307 63.2879 149.59 65.2462 149.59 59.6584C149.59 54.0706 151.743 55.1781 155.062 55.1781C158.382 55.1781 159.295 55.9534 160.644 57.3226L159.151 59.3211C157.945 58.0978 156.377 57.5793 154.775 57.5793C153.172 57.5793 152.259 58.3546 152.259 59.4671C152.259 62.3164 160.977 60.5796 160.977 66.2026C160.977 71.8257 159.191 70.9397 155.177 70.9397C151.163 70.9397 150.398 69.9379 149.049 68.5334H149.084L149.079 68.5435Z" fill="#1E9FCC"/>
<path d="M166.733 70.6882V57.8464H162.208V55.5156H173.917V57.8464H169.392V70.6882H166.728H166.733Z" fill="#1E9FCC"/>
<path d="M174.939 63.102C174.939 58.5513 178.114 55.2188 182.6 55.2188C187.085 55.2188 190.261 58.5513 190.261 63.102C190.261 67.6528 187.085 70.9853 182.6 70.9853C178.114 70.9853 174.939 67.6528 174.939 63.102ZM187.561 63.102C187.561 59.9558 185.592 57.625 182.6 57.625C179.608 57.625 177.638 59.9558 177.638 63.102C177.638 66.2483 179.573 68.5791 182.6 68.5791C185.626 68.5791 187.561 66.208 187.561 63.102Z" fill="#1E9FCC"/>
</g>
<defs>
<clipPath id="clip0_89_1505">
<rect width="224" height="71" fill="white"/>
</clipPath>
</defs>
</svg>
