<svg width="210" height="81" viewBox="0 0 210 81" fill="none" xmlns="http://www.w3.org/2000/svg">
<g clip-path="url(#clip0_89_1046)">
<path d="M141.867 78.9395H137.523L136.529 80.8883H132.242L139.304 67.9956H144.01L146.454 80.8883H142.148L141.854 78.9395H141.867ZM141.423 75.8958L140.892 72.3076L139.073 75.8958H141.429H141.423Z" fill="black"/>
<path d="M146.748 74.4421C146.966 73.1677 147.435 72.0356 148.148 71.0396C148.86 70.0435 149.76 69.2764 150.854 68.7258C151.947 68.169 153.16 67.8906 154.497 67.8906C155.635 67.8906 156.603 68.0762 157.403 68.4536C158.21 68.8186 158.816 69.3383 159.203 70.0188C159.609 70.6993 159.791 71.4974 159.753 72.4192H155.447C155.335 72.1655 155.147 71.9675 154.879 71.8376C154.61 71.6891 154.266 71.6211 153.847 71.6211C153.06 71.6211 152.404 71.8747 151.879 72.3882C151.366 72.8955 151.035 73.5822 150.885 74.4483C150.822 74.8133 150.791 75.1103 150.791 75.3392C150.791 76.7497 151.616 77.4488 153.272 77.4488C154.216 77.4488 155.047 77.0714 155.753 76.3228H152.497L152.991 73.4647H159.628L158.91 77.5045C158.172 78.4634 157.247 79.2862 156.135 79.9791C155.016 80.6596 153.704 80.9998 152.179 80.9998C151.004 80.9998 149.998 80.7895 149.16 80.3626C148.329 79.9358 147.691 79.3419 147.248 78.5809C146.816 77.8014 146.604 76.8982 146.604 75.865C146.604 75.3825 146.648 74.9061 146.735 74.4421H146.748Z" fill="black"/>
<path d="M165.234 71.2005L164.959 72.8029H169.003L168.453 75.8404H164.409L164.078 77.6593H168.678L168.109 80.8824H159.428L161.728 67.9897H170.409L169.84 71.1944H165.24L165.234 71.2005Z" fill="black"/>
<path d="M181.764 80.8883H177.683L174.521 74.4048L173.365 80.8883H169.284L171.584 67.9956H175.665L178.808 74.5842L179.983 67.9956H184.064L181.764 80.8883Z" fill="black"/>
<path d="M183.789 74.4421C184.008 73.1677 184.47 72.0356 185.17 71.0396C185.87 70.0435 186.751 69.2764 187.82 68.7258C188.889 68.169 190.076 67.8906 191.389 67.8906C192.52 67.8906 193.489 68.101 194.295 68.5278C195.113 68.9423 195.745 69.5301 196.17 70.291C196.601 71.0581 196.807 71.949 196.795 72.9698H192.489C192.364 72.5429 192.145 72.215 191.826 71.9861C191.507 71.7448 191.114 71.6211 190.651 71.6211C189.964 71.6211 189.376 71.8747 188.883 72.3882C188.395 72.8955 188.076 73.5822 187.926 74.4483C187.876 74.6896 187.851 74.9494 187.851 75.234C187.851 75.865 188.008 76.36 188.314 76.725C188.633 77.09 189.083 77.2694 189.658 77.2694C190.126 77.2694 190.557 77.1518 190.964 76.9229C191.37 76.6817 191.707 76.3476 191.976 75.9207H196.282C195.913 76.9415 195.382 77.8324 194.682 78.5995C193.982 79.3666 193.151 79.9605 192.182 80.3812C191.226 80.7957 190.183 80.9998 189.058 80.9998C187.933 80.9998 186.945 80.7957 186.133 80.3812C185.32 79.9543 184.708 79.3604 184.295 78.5995C183.877 77.82 183.67 76.9229 183.67 75.9022C183.67 75.4072 183.714 74.9185 183.802 74.4483L183.789 74.4421Z" fill="black"/>
<path d="M210 67.9956L203.726 76.9722L203.026 80.8883H198.945L199.644 76.9722L196.576 67.9956H201.251L202.519 72.5674L205.407 67.9956H210.006H210Z" fill="black"/>
<path d="M127.399 67.9956L124.587 72.5674L123.33 67.9956H120.949H118.737H111.95H109.937H107.425L104.613 72.5674L103.357 67.9956H99.4943H98.7693H94.5821L90.5198 75.7102L89.0324 67.9956H84.1202L81.8828 80.8636H85.9013L87.02 74.4419L87.87 80.8636H91.2948L94.3758 74.4172L93.2571 80.8636H97.2569L99.2443 69.4247L101.782 76.9537L101.119 80.8636H105.119L105.781 76.9537L109.737 71.2064H112.768L111.081 80.8883H115.081L116.768 71.2064H119.818L121.755 76.9537L121.093 80.8636H125.086L125.749 76.9537L131.917 67.9956H127.399Z" fill="black"/>
<path d="M72.9958 78.9395H68.6523L67.6586 80.8883H63.3713L70.4334 67.9956H75.1394L77.583 80.8883H73.277L72.9833 78.9395H72.9958ZM72.5583 75.8958L72.0271 72.3076L70.2084 75.8958H72.5645H72.5583Z" fill="black"/>
<path d="M78.8452 21.3431H52.1468V1.35449H45.8159V48.4524H52.1468V27.4801H78.8452V48.4524H85.1698V1.35449H78.8452V21.3431Z" fill="black"/>
<path d="M119.293 28.9278H102.988L111.231 9.37221L119.293 28.9278ZM114.712 1.35449H107.619L88.3823 48.4524H95.2694L100.444 35.071H121.818L127.049 48.4524H133.811L114.806 1.57721L114.712 1.35449Z" fill="black"/>
<path d="M143.441 7.55956H156.916C159.684 7.55956 161.89 8.22771 163.478 9.54543C165.046 10.8446 165.84 12.6511 165.84 14.9153C165.84 17.1796 165.034 19.0108 163.44 20.3471C161.834 21.7019 159.641 22.3886 156.916 22.3886H143.441V7.55956ZM171.265 9.49594C170.54 7.83177 169.496 6.37794 168.152 5.17776C166.815 3.97757 165.184 3.03104 163.297 2.36289C161.415 1.69475 159.291 1.35449 156.978 1.35449H137.048V48.4524H143.441V28.5937H156.978C159.253 28.5937 161.359 28.2411 163.24 27.5544C165.121 26.8677 166.753 25.9088 168.09 24.7086C169.434 23.5084 170.49 22.0484 171.234 20.3595C171.977 18.6767 172.359 16.8455 172.359 14.9091C172.359 12.9728 171.99 11.1601 171.271 9.49594H171.265Z" fill="black"/>
<path d="M182.395 42.1917V27.3626H207.381V21.1575H182.395V7.55956H209.437V1.35449H176.064V48.4524H210V42.1917H182.395Z" fill="black"/>
<path d="M35.4854 24.9129C33.9417 23.9107 32.1543 23.1683 30.167 22.7043C28.1983 22.2527 26.1797 21.8939 24.1798 21.6464C22.1174 21.3928 20.1113 21.1763 18.2177 20.9969C16.3053 20.8174 14.5741 20.4896 13.0867 20.0256C11.6306 19.574 10.4431 18.9058 9.55568 18.0459C8.69948 17.2169 8.26201 16.0105 8.26201 14.4763C8.26201 12.942 8.63699 11.6552 9.38069 10.6097C10.1306 9.55181 11.1118 8.6857 12.2805 8.03612C13.4617 7.38035 14.7804 6.90399 16.1928 6.62559C17.6177 6.34101 18.9801 6.19872 20.2363 6.19872C21.6987 6.19872 23.2174 6.34101 24.7485 6.62559C26.2609 6.90399 27.6484 7.39272 28.8733 8.06705C30.0857 8.73519 31.1106 9.64461 31.9044 10.7644C32.6168 11.7728 33.048 13.041 33.1793 14.5381L33.2105 14.866H39.7351L39.7226 14.4948C39.6226 11.9955 38.6789 9.06308 37.4165 7.3556C36.1478 5.63575 34.5792 4.21285 32.7605 3.13021C30.9544 2.04757 28.9295 1.24333 26.7359 0.74222C24.561 0.247299 22.3924 -0.00634766 20.2988 -0.00634766C19.1239 -0.00634766 17.8364 0.098823 16.474 0.302978C15.0991 0.513319 13.7429 0.816458 12.4368 1.20621C11.1181 1.60215 9.86191 2.09707 8.69948 2.6786C7.52455 3.2725 6.51836 3.97777 5.71216 4.78201C4.48098 6.00076 3.49354 7.41747 2.77483 8.98884C2.04988 10.5664 1.68115 12.2677 1.68115 14.0432C1.68115 16.6849 2.16862 18.8501 3.13106 20.4834C4.09351 22.1104 5.37468 23.4096 6.93084 24.3376C8.4745 25.2594 10.2494 25.9337 12.2118 26.3544C14.1367 26.7627 16.1365 27.0906 18.1677 27.3133C20.1238 27.536 22.1112 27.7649 24.0861 27.9938C25.986 28.2165 27.7046 28.5877 29.1858 29.0888C30.6357 29.5837 31.8231 30.3199 32.7168 31.2727C33.5855 32.213 34.023 33.5555 34.023 35.2568C34.023 36.9581 33.5793 38.3067 32.7043 39.3461C31.8106 40.4101 30.6794 41.2453 29.342 41.8392C27.9921 42.4393 26.5109 42.8538 24.9548 43.0765C23.3799 43.2992 21.8987 43.4106 20.5488 43.4106C18.9989 43.4106 17.3677 43.2374 15.6991 42.8971C14.0367 42.5569 12.5118 41.9815 11.1681 41.1835C9.83067 40.3916 8.71823 39.3522 7.85578 38.084C7.04958 36.8962 6.61836 35.4176 6.58086 33.6854V33.339H0V33.704C0.049997 36.5621 0.956193 39.5997 2.36861 41.6351C3.68103 43.522 5.31843 45.0686 7.24332 46.2378C9.15571 47.4071 11.3118 48.267 13.6429 48.8114C15.974 49.3496 18.2927 49.6219 20.5488 49.6219C21.7612 49.6219 23.1549 49.5291 24.7048 49.3435C26.2547 49.1579 27.7983 48.8547 29.3045 48.4402C30.8107 48.0257 32.2356 47.5123 33.5355 46.906C34.8542 46.2935 35.9416 45.5759 36.7541 44.7716C37.8977 43.6395 38.8477 42.3465 39.5914 40.9174C40.3413 39.4698 40.7226 37.7128 40.7226 35.696C40.7226 32.9801 40.2351 30.7282 39.2727 29.0146C38.3165 27.3071 37.0353 25.9275 35.4791 24.9129" fill="black"/>
</g>
<defs>
<clipPath id="clip0_89_1046">
<rect width="210" height="81" fill="white"/>
</clipPath>
</defs>
</svg>
