<?xml version="1.0" encoding="UTF-8"?>
<svg id="Layer_2" data-name="Layer 2" xmlns="http://www.w3.org/2000/svg" viewBox="0 0 672.19 117.96">
  <defs>
    <style>
      .cls-1 {
        fill: #373535;
        stroke-width: 0px;
      }
    </style>
  </defs>
  <g id="SVG">
    <path class="cls-1" d="M516.08,110.43h25.9v-49.76c0-27.94,8.87-34.77,51.13-34.77s53.17,6.83,53.17,34.77v49.76h25.9v-49.76c.03-44.98-23.83-60.67-79.08-60.67s-77.03,15.69-77.03,60.67v49.76ZM421.65,113.84c29.98,0,55.22-5.45,83.86-18.41v-41.59c0-34.77-27.94-53.84-77.7-53.84-30.69,0-55.92,4.08-74.99,12.95v27.27c17.73-9.54,42.97-14.32,74.99-14.32s51.8,10.24,51.8,27.94v25.23c-16.36,6.83-34.1,10.24-57.96,10.24-30.69,0-51.8-4.78-51.8-11.58,0-5.45,18.41-10.24,48.39-10.24,12.95,0,37.48,2.71,45.68,4.78v-25.9c-10.24-2.04-27.94-4.78-41.59-4.78-51.8,0-78.41,13.65-78.41,36.14,0,23.86,26.6,36.14,77.74,36.14M264.65,114.55c47.05,0,74.32-20.45,74.32-56.59S306.92,0,252.37,0s-82.49,25.23-82.49,70.91v47.05h25.9v-47.05c0-29.98,19.08-45.01,56.59-45.01s59.3,11.58,59.3,32.03-17.03,31.36-47.05,31.36c-12.95,0-37.51-4.78-53.17-12.28v27.27c15.69,6.12,40.22,10.24,53.17,10.24M88.61,113.84c45.01,0,74.32-13.62,74.32-36.14,0-21.15-22.49-31.36-74.99-33.4-36.14-1.37-62.04-3.41-62.04-8.17,0-6.12,18.41-10.24,47.72-10.24,32.73,0,68.87,5.45,87.27,17.73V13.62C139.75,4.78,102.27,0,73.62,0,30.69,0,0,14.99,0,36.14s25.9,31.36,77.7,33.4c35.44,1.37,58.63,3.41,58.63,8.17,0,6.83-22.49,10.24-53.17,10.24-34.1,0-66.13-6.12-81.82-17.03v29.31c16.36,8.17,49.76,13.62,87.27,13.62"/>
  </g>
</svg>