<?xml version="1.0" encoding="UTF-8"?>
<svg id="Layer_2" data-name="Layer 2" xmlns="http://www.w3.org/2000/svg" viewBox="0 0 650.21 176.3">
  <defs>
    <style>
      .cls-1 {
        fill-rule: evenodd;
      }

      .cls-1, .cls-2 {
        fill: #2b323c;
        stroke-width: 0px;
      }
    </style>
  </defs>
  <g id="SVG">
    <g>
      <path class="cls-2" d="M612.62,176.28h-4.17v-20.89h16.7c4.19.03,6.29,2.12,6.29,6.28l.02,14.58h-4.21v-13.97c-.05-1.77-.97-2.68-2.79-2.72h-11.82v16.71ZM573.2,161.68v9.44c0,3.42-2.13,5.15-6.34,5.19h-10.45c-4.16-.04-6.25-1.83-6.26-5.34v-9.28c.04-4.16,2.14-6.25,6.3-6.26h10.43c4.17,0,6.28,2.08,6.32,6.26ZM566.33,159.56h-9.25c-1.81.02-2.73.9-2.76,2.66v7.77c-.02,1.4,1.2,2.12,3.61,2.13h8.23c1.87,0,2.81-.52,2.82-1.57v-8.33c0-1.76-.88-2.65-2.65-2.66ZM514.76,151.35h-4.29v-4.29h4.29v4.29ZM510.52,155.25h4.21v21.03h-4.21v-21.03ZM465.64,155.33v-8.27h4.17v8.27h6.26v4.17h-6.26v16.78h-4.17v-16.76h-6.26v-4.19h6.26ZM423.85,172.09v4.19h-14.57c-4.16-.03-6.25-2.16-6.26-6.42v-8.33c.03-4.06,2.11-6.11,6.24-6.12h14.58v4.04h-13.92c-1.81,0-2.73.99-2.74,2.98v6.48c0,2.11,1.21,3.17,3.62,3.18h13.04ZM348.88,155.44v14.03c.02,1.75.91,2.63,2.71,2.65h11.27v-16.67h4.19v20.84h-16.08c-4.16-.02-6.25-2.1-6.27-6.26v-14.58h4.17ZM295.43,176.28v-14.68c.02-4.1,2.1-6.15,6.26-6.16h8.45v4.11h-7.79c-1.8.01-2.72.88-2.75,2.6v14.13h-4.17ZM251.34,155.33v-8.27h4.17v8.27h6.26v4.17h-6.26v16.78h-4.17v-16.76h-6.26v-4.19h6.26ZM210.58,159.5h-16.54c-1.38.01-2.06.7-2.06,2.05s.69,2.1,2.08,2.11h10.36c4.17,0,6.27,1.79,6.28,5.37v2.04c-.06,3.47-2.19,5.21-6.38,5.21h-16.48v-4.15h15.94c1.75-.01,2.65-.78,2.7-2.31-.01-1.26-.9-1.9-2.68-1.93h-9.74c-4.17,0-6.27-1.71-6.28-5.13v-2.11c0-3.49,2.1-5.24,6.28-5.24h16.52v4.1h0ZM133.51,176.28h-4.17v-20.89h16.7c4.19.03,6.28,2.12,6.28,6.28l.02,14.58h-4.21v-13.97c-.04-1.77-.97-2.68-2.79-2.72h-11.82v16.71ZM94.09,161.68v9.44c0,3.42-2.13,5.15-6.33,5.19h-10.46c-4.16-.04-6.25-1.83-6.26-5.34v-9.28c.04-4.16,2.14-6.25,6.3-6.26h10.43c4.17,0,6.29,2.08,6.32,6.26ZM87.22,159.56h-9.24c-1.81.02-2.73.9-2.76,2.66v7.77c-.01,1.4,1.2,2.12,3.62,2.13h8.23c1.87,0,2.81-.52,2.82-1.57v-8.33c0-1.76-.88-2.65-2.66-2.66ZM35.52,172.09v4.19h-14.57c-4.16-.03-6.25-2.16-6.26-6.42v-8.33c.03-4.06,2.11-6.11,6.24-6.12h14.59v4.04h-13.92c-1.81,0-2.73.99-2.74,2.98v6.48c0,2.11,1.21,3.17,3.62,3.18h13.04Z"/>
      <path class="cls-2" d="M645.91,4.3c-1.31-1.31-3.12-2.12-5.13-2.12s-3.81.81-5.12,2.12c-1.31,1.31-2.13,3.12-2.13,5.13s.81,3.82,2.13,5.13,3.12,2.12,5.12,2.12,3.82-.81,5.13-2.12c1.31-1.31,2.13-3.12,2.13-5.13s-.81-3.82-2.13-5.13M640.79,0c2.6,0,4.96,1.06,6.66,2.76,1.71,1.71,2.76,4.06,2.76,6.66s-1.06,4.96-2.76,6.66c-1.71,1.71-4.06,2.76-6.66,2.76s-4.96-1.06-6.66-2.76c-1.71-1.71-2.76-4.06-2.76-6.66s1.05-4.96,2.76-6.66c1.7-1.71,4.06-2.76,6.66-2.76Z"/>
      <path class="cls-2" d="M640.46,6.19c1.03,0,1.88.19,1.88,1.47s-.86,1.49-1.88,1.49h-1.68v-2.96h1.68ZM642.13,10.7c1.64-.36,2.34-1.71,2.34-3.04,0-1.59-.95-3.15-3.43-3.15h-4.43v9.82h2.17v-3.52h1.06l2.47,3.52h2.64l-2.75-3.63h-.07Z"/>
      <path class="cls-2" d="M19.44,120.68c-.5-.81-.96-1.67-1.36-2.58-1.12-2.67-1.91-6.03-2.36-10.06-.45-4-1.06-10.09-1.07-18.23v-42.92H0v-20.14h14.66V.05h26.57v26.7h19.36v20.14h-19.36v42.92h0c.2,6.48.75,10.64,1.67,12.44,1.18,2.36,3.45,3.53,6.82,3.53.6,0,1.56-.1,2.91-.31.36-.07.66-.1.88-.1v15.31H19.44Z"/>
      <path class="cls-2" d="M338.23,120.63c-.5-.81-.96-1.67-1.35-2.58-1.12-2.67-1.91-6.03-2.36-10.06-.45-4-1.06-10.09-1.07-18.23v-42.92h-14.66v-20.14h14.66V0h26.56v26.7h19.36v20.14h-19.36v42.92c.2,6.48.75,10.64,1.67,12.44,1.18,2.36,3.45,3.53,6.82,3.53.6,0,1.56-.1,2.91-.31.36-.07.66-.1.88-.1v15.31h-34.05Z"/>
      <path class="cls-2" d="M555.55,36.75c1.27-1.1,2.56-2.12,3.87-3.07,2.94-2.14,5.99-3.92,9.14-5.34h.03c.94-.43,1.83-.8,2.64-1.11h0c.91-.34,1.8-.66,2.68-.93,4.64-1.46,9.42-2.19,14.33-2.19,14.21,0,24.94,3.56,32.2,10.69,7.27,7.13,10.91,17.68,10.91,31.63v54.26h-26.76v-53.29c0-4.17-.39-7.73-1.19-10.65-.74-2.75-1.83-4.92-3.25-6.52h-.02c-.4-.44-.81-.84-1.26-1.2-.48-.39-.98-.74-1.51-1.04h-.01c-2.94-1.74-6.96-2.62-12.03-2.62h0s0,0,0,0h0c-4.93,0-9.92,1.32-14.95,3.97-.84.44-1.67.91-2.5,1.42-4.09,2.5-8.22,5.86-12.36,10.09v59.85h-26.37V26.76h26.38v9.99h0Z"/>
      <path class="cls-2" d="M449.97,24.1h.03c4.45,0,8.67.35,12.66,1.01h0c.76.13,1.4.24,1.95.35,3.31.65,6.48,1.54,9.48,2.65,3.6,1.33,6.95,2.97,10.04,4.92,3.09,1.95,5.91,4.2,8.47,6.74h0s0,.01,0,.01c2.59,2.55,4.86,5.38,6.82,8.49,1.95,3.07,3.59,6.43,4.97,10.07h0v.03s.03.03.03.03c.35.93.7,1.97,1.04,3.11.34,1.09.64,2.16.9,3.21,1.39,5.58,2.11,11.66,2.11,18.2,0,4.59-.36,8.95-1.06,13.08-.7,4.14-1.75,8.04-3.14,11.69h0v.03c-.28.71-.58,1.47-.92,2.26-.29.68-.63,1.42-1.01,2.2-1.47,3.06-3.17,5.89-5.09,8.5h-37.69l4.8-2.4h.01v-.02c.49-.24.91-.47,1.27-.67.41-.24.81-.48,1.2-.73,2.03-1.32,3.87-2.94,5.5-4.86h.01c1.37-1.61,2.58-3.39,3.63-5.36,1.07-2,1.99-4.22,2.77-6.65v-.03c.22-.65.42-1.34.61-2.06.18-.7.36-1.42.52-2.17.81-3.82,1.22-8.1,1.22-12.8,0-6.5-.78-12.2-2.35-17.07-.78-2.41-1.7-4.61-2.77-6.61-1.05-1.97-2.26-3.75-3.63-5.34l-.02-.02h0c-.38-.45-.76-.87-1.15-1.27-.42-.44-.83-.83-1.21-1.18-2.12-1.92-4.55-3.44-7.25-4.56h0s-.02,0-.02,0c-.94-.39-1.92-.73-2.94-1.03-1.01-.29-2.04-.54-3.1-.74-2.11-.39-4.35-.59-6.71-.59h-.03c-2.31-.01-4.55.19-6.69.59-.41.08-.76.15-1.03.21-1.72.38-3.39.9-4.99,1.55h0s-.01,0-.01,0h-.02c-.59.25-1.11.49-1.56.71-.42.21-.92.48-1.48.8h0c-2.47,1.42-4.7,3.26-6.64,5.52h0s-.01.02-.01.02c-.37.43-.73.89-1.1,1.38-.37.49-.72.98-1.04,1.47-1.74,2.63-3.17,5.66-4.28,9.1v.03c-.22.65-.42,1.35-.62,2.08-.19.72-.36,1.45-.52,2.17h0c-.81,3.84-1.22,8.11-1.22,12.79h0v.04c0,3.24.2,6.31.6,9.19.06.49.13.95.21,1.38.38,2.3.9,4.46,1.55,6.46.77,2.41,1.7,4.62,2.79,6.64,1.06,1.99,2.29,3.77,3.65,5.36l.04.05h0s0,.01,0,.01c.31.36.63.71.95,1.04.32.34.68.68,1.04,1.02,1.82,1.69,3.83,3.07,6.03,4.16l4.86,2.41h-37.66l-.1-.14c-.43-.58-.88-1.22-1.32-1.88-2.19-3.29-4.06-6.9-5.57-10.82h0c-1.43-3.66-2.51-7.57-3.22-11.73-.71-4.15-1.07-8.54-1.07-13.18v-.03h.01c0-4.58.36-8.9,1.05-12.96.08-.49.21-1.15.38-1.98.68-3.4,1.61-6.62,2.76-9.65v-.02c1.42-3.63,3.1-7,5.08-10.1,1.99-3.12,4.27-5.96,6.84-8.5h.01c2.57-2.57,5.39-4.81,8.48-6.74,3.07-1.92,6.42-3.54,10.04-4.86h0s0,0,0,0h0c.96-.37,1.99-.71,3.07-1.04,1.06-.32,2.11-.62,3.18-.88,5.47-1.37,11.35-2.05,17.59-2.05"/>
      <polygon class="cls-2" points="271.3 120.68 246.57 86.09 236.48 95.27 236.48 120.68 210.1 120.68 210.1 0 236.47 0 236.47 66.25 278.04 27.48 278.82 26.75 279.87 26.75 306.46 26.75 313.56 26.75 308.23 31.46 264.95 69.75 301.46 119.08 302.64 120.68 271.3 120.68"/>
      <path class="cls-1" d="M186.44,105.46c-.2.61-.32.96-.37,1.12-.12.33-.26.7-.41,1.1h0s0,0,0,0v.02c-.27.71-.58,1.47-.92,2.26-.29.68-.63,1.42-1,2.2-1.46,3.06-3.17,5.9-5.09,8.51h-37.63l4.83-2.42h0v-.02c.43-.22.85-.44,1.25-.67.47-.27.87-.51,1.21-.73,2.02-1.32,3.86-2.94,5.48-4.86h.01c.99-1.17,1.92-2.46,2.76-3.86.85-1.41,1.61-2.92,2.29-4.54l.7-1.67h28.06l-1.18,3.54ZM173.48,90.21h-72.81l.13,1.06c.39,3.17,1.01,6.07,1.86,8.7.77,2.41,1.7,4.62,2.78,6.63,1.07,1.99,2.28,3.77,3.64,5.36l.04.04h0s0,.01,0,.01c.36.42.68.77.94,1.04h0c.33.34.68.68,1.04,1.02,1.8,1.68,3.81,3.07,6.01,4.16l4.87,2.43h-37.59l-.12-.15c-.45-.62-.89-1.25-1.32-1.9-2.18-3.27-4.04-6.88-5.55-10.8h0c-1.43-3.66-2.5-7.57-3.21-11.74-.71-4.15-1.06-8.54-1.06-13.17v-.03h0c0-4.58.36-8.9,1.04-12.96h0c.09-.54.22-1.21.37-1.98.68-3.4,1.6-6.61,2.75-9.65v-.02c1.43-3.66,3.1-7.03,5.06-10.1,1.99-3.12,4.26-5.96,6.84-8.51h0c2.55-2.54,5.37-4.78,8.45-6.71,3.08-1.93,6.42-3.56,10.03-4.87h.01c.96-.37,1.98-.71,3.06-1.05,1.08-.33,2.13-.63,3.16-.88,5.46-1.37,11.32-2.05,17.56-2.05h.03c4.44.01,8.65.35,12.62,1.02.71.12,1.36.23,1.94.35,3.31.65,6.46,1.54,9.46,2.65,3.6,1.33,6.93,2.97,10.02,4.92,3.08,1.95,5.9,4.2,8.45,6.74h0s0,0,0,0c2.58,2.55,4.84,5.38,6.8,8.49,1.94,3.08,3.59,6.43,4.95,10.07h0v.02s.03.04.03.04c.36.96.71,2,1.04,3.1.32,1.06.63,2.14.89,3.22,1.39,5.58,2.1,11.65,2.1,18.19,0,.57-.02,1.38-.04,2.4-.02.87-.06,1.65-.1,2.35l-.15,2.55h-2.53s-13.54,0-13.54,0ZM101.6,69.85h59.65c-.04-.2-.08-.4-.13-.59-.28-1.2-.59-2.34-.93-3.42-.78-2.41-1.7-4.62-2.76-6.61-1.05-1.96-2.25-3.75-3.62-5.34l-.02-.02h0c-.38-.45-.76-.88-1.15-1.28-.42-.43-.82-.83-1.2-1.17h0c-2.13-1.92-4.54-3.44-7.22-4.56h-.02c-.45-.19-1-.4-1.63-.61-.59-.2-1.15-.38-1.67-.53-2.91-.81-6.05-1.22-9.4-1.22h-.02c-2.31,0-4.54.19-6.68.6-.41.08-.75.15-1.02.21-1.72.38-3.38.9-4.97,1.55h0s-.02.02-.02.02c-.54.23-1.06.46-1.54.7-.55.27-1.05.54-1.49.79-2.47,1.43-4.69,3.26-6.63,5.53h0s-.01.02-.01.02c-.41.48-.78.93-1.1,1.37-.33.44-.68.93-1.04,1.48-1.74,2.63-3.16,5.66-4.27,9.1v.03h-.02c-.08.28-.18.58-.28.92l-.26.96c-.19.67-.36,1.38-.51,2.09Z"/>
    </g>
  </g>
</svg>