<svg width="306" height="76" viewBox="0 0 306 76" fill="none" xmlns="http://www.w3.org/2000/svg">
<path d="M27.5078 47.6058H46.8883V28.2148H27.5078V47.6058ZM33.071 33.7811H41.3217V42.0362H33.071V33.7811Z" fill="black"/>
<path d="M72.7702 26.8993L62.705 28.8997L56.1422 30.2767C51.0788 25.5223 44.3893 22.7067 37.0732 22.7067C25.8201 22.7067 16.1316 29.4615 11.3798 39.282L4.8785 40.5939L0.188293 41.5325C0.0616232 40.3439 0 39.1553 0 37.9667C0 36.7781 0.0616232 35.5895 0.12667 34.4625L6.93946 35.7127C8.18904 33.2739 9.62691 31.02 11.3798 29.0196L1.62617 27.1425C2.31429 24.827 3.25234 22.6382 4.31363 20.5761L13.5023 26.7075C15.3784 24.8304 17.4394 23.2034 19.6304 21.8298L8.43896 14.3248C9.93846 12.4477 11.6262 10.759 13.4407 9.2587L21.2566 20.8296C23.4442 19.641 25.8201 18.6408 28.3193 17.9523L19.6304 5.12774C21.6948 4.0008 23.8824 3.06224 26.1933 2.37717L29.319 17.7639C31.6949 17.2021 34.1324 16.887 36.6966 16.8253L33.5093 0.873428C34.7589 0.74669 36.0085 0.685059 37.2615 0.685059C38.5145 0.685059 39.5758 0.746713 40.6987 0.811795L37.573 16.7637C40.1373 16.8253 42.5748 17.1405 44.9507 17.7022L47.9531 2.18875C50.329 2.87725 52.5167 3.81581 54.6427 4.93933L45.9538 18.0139C48.3913 18.7024 50.7673 19.641 52.9549 20.8912L60.7708 9.13196C62.6468 10.6323 64.3346 12.321 65.8341 14.1364L54.5194 21.7681C56.7071 23.1451 58.7714 24.7722 60.5825 26.5842L70.0211 20.2678C71.1474 22.395 72.0855 24.6454 72.7702 26.8993Z" fill="black"/>
<path d="M1.62598 48.9173L11.6911 46.9169L18.254 45.5399C23.3174 50.2943 30.0069 53.1099 37.3229 53.1099C48.576 53.1099 58.2646 46.3551 63.0164 36.5346L69.5793 35.2227L74.2695 34.2842C74.3961 35.4728 74.4578 36.723 74.4578 37.9116C74.4578 39.1002 74.3961 40.2888 74.3311 41.4158L67.5183 40.1039C66.2687 42.5427 64.8309 44.7966 63.078 46.797L72.8316 48.7357C72.1435 51.0513 71.2054 53.2401 70.1441 55.3022L60.8904 49.1708C59.0143 51.0479 56.9534 52.6749 54.7623 54.0485L65.9538 61.4918C64.4543 63.3689 62.7665 65.0576 60.952 66.5579L53.1361 54.987C50.9485 56.1756 48.5726 57.1758 46.07 57.8643L54.6973 70.7505C52.6329 71.8775 50.4453 72.816 48.1344 73.5011L45.0703 58.1144C42.6944 58.6761 40.2569 58.9913 37.6927 59.0529L40.88 75.0048C39.692 75.1315 38.4424 75.1932 37.1928 75.1932C35.9433 75.1932 34.8786 75.1316 33.7556 75.0665L36.8813 59.1146C34.3171 59.0529 31.8796 58.7378 29.5036 58.1761L26.5012 73.6895C24.1253 73.001 21.9377 72.0625 19.8733 70.9389L28.5006 57.9294C26.063 57.2409 23.6871 56.3024 21.4995 55.0521L13.6836 66.8114C11.8075 65.3111 10.1197 63.6224 8.62022 61.8069L20 54.1752C17.8123 52.7982 15.748 51.1712 13.9369 49.3592L4.37164 55.4906C3.2453 53.3634 2.30726 51.1746 1.62256 48.9242L1.62598 48.9173Z" fill="black"/>
<path d="M81.9483 65.702L85.9606 61.5436C87.2308 63.2562 88.8467 64.3284 90.9008 64.3284C92.5612 64.3284 93.4479 63.6399 93.4479 62.4205C93.4479 61.2011 92.5201 60.5639 89.189 59.139C85.1287 57.5701 83.0746 55.5115 83.0746 51.9902C83.0746 47.3386 86.9843 44.749 91.6334 44.749C95.1493 44.749 97.9429 45.9685 99.552 47.8318L95.8306 52.093C94.9028 51.1134 93.3349 50.2878 91.8696 50.2878C90.5002 50.2878 89.7162 50.877 89.7162 51.7539C89.7162 52.7336 90.5926 53.2713 94.2113 54.7374C98.4188 56.3473 100.223 58.4094 100.223 62.03C100.223 66.9728 96.4605 70.0042 91.1781 70.0042C86.5358 70.0042 83.506 67.9421 81.9312 65.702H81.9448H81.9483Z" fill="black"/>
<path d="M102.483 57.4811C102.483 50.281 107.67 44.7593 115.342 44.7593C117.981 44.7593 120.58 45.4923 122.137 46.3692V53.5179C120.282 51.7128 118.467 50.7742 115.972 50.7742C112.062 50.7742 109.662 53.559 109.662 57.3783C109.662 61.1976 111.815 63.9824 115.869 63.9824C118.313 63.9824 120.076 63.0987 122.127 61.3928L121.983 68.3429C120.374 69.3225 117.93 70.0042 115.53 70.0042C107.704 70.0042 102.469 64.8661 102.469 57.4811H102.483Z" fill="black"/>
<path d="M167.399 58.8546H150.282C150.528 62.3827 152.384 64.6811 155.663 64.6811C157.964 64.6811 159.529 63.5987 160.85 61.2558L167.057 63.311C164.903 67.7674 160.651 70.0144 155.568 70.0144C148.183 70.0144 143.092 65.1675 143.092 57.4399C143.092 49.7123 148.176 44.7695 155.321 44.7695C162.466 44.7695 167.396 49.6096 167.396 57.5907V58.8615V58.8546H167.399ZM160.213 54.203C159.871 51.6134 158.067 50.096 155.42 50.096C152.774 50.096 151.12 51.7573 150.576 54.203H160.213Z" fill="black"/>
<path d="M194.414 58.8546H177.296C177.543 62.3827 179.398 64.6811 182.678 64.6811C184.979 64.6811 186.543 63.5987 187.865 61.2558L194.072 63.311C191.918 67.7674 187.666 70.0144 182.582 70.0144C175.198 70.0144 170.107 65.1675 170.107 57.4399C170.107 49.7123 175.191 44.7695 182.336 44.7695C189.481 44.7695 194.41 49.6096 194.41 57.5907V58.8615V58.8546H194.414ZM187.228 54.203C186.886 51.6134 185.081 50.096 182.435 50.096C179.789 50.096 178.135 51.7573 177.591 54.203H187.228Z" fill="black"/>
<path d="M224.034 65.702L228.047 61.5436C229.317 63.2562 230.933 64.3284 232.987 64.3284C234.647 64.3284 235.534 63.6399 235.534 62.4205C235.534 61.2011 234.606 60.5639 231.275 59.139C227.215 57.5701 225.161 55.5115 225.161 51.9902C225.161 47.3386 229.07 44.749 233.719 44.749C237.235 44.749 240.029 45.9685 241.638 47.8318L237.917 52.093C236.989 51.1134 235.421 50.2878 233.956 50.2878C232.586 50.2878 231.802 50.877 231.802 51.7539C231.802 52.7336 232.679 53.2713 236.297 54.7374C240.505 56.3473 242.309 58.4094 242.309 62.03C242.309 66.9728 238.546 70.0042 233.264 70.0042C228.622 70.0042 225.585 67.9421 224.024 65.702H224.031H224.034Z" fill="black"/>
<path d="M142.182 45.3862H126.951V69.3021H134.017V51.4594H142.182V45.3862Z" fill="black"/>
<path d="M170.511 29.5371L164.305 27.4819C162.983 29.8248 161.419 30.9072 159.118 30.9072C155.838 30.9072 153.983 28.6054 153.736 25.0807H170.854V23.8099C170.854 15.8356 166.16 10.9888 158.779 10.9888C151.398 10.9888 146.55 15.9829 146.55 23.6592C146.55 31.3354 151.634 36.2336 159.026 36.2336C164.109 36.2336 168.368 33.9764 170.515 29.5302V29.5371H170.511ZM158.872 16.322C161.511 16.322 163.326 17.8395 163.664 20.4359H154.034C154.572 17.9833 156.283 16.322 158.878 16.322H158.872Z" fill="black"/>
<path d="M210.364 10.9956C203.219 10.9956 198.135 15.9898 198.135 23.666C198.135 31.3423 203.219 36.2405 210.611 36.2405C215.694 36.2405 219.953 33.9832 222.1 29.5371L215.893 27.4819C214.572 29.8248 213.007 30.9072 210.706 30.9072C207.427 30.9072 205.571 28.6054 205.325 25.0807H222.442V23.8099C222.442 15.8356 217.749 10.9888 210.367 10.9888V10.9956H210.364ZM205.622 20.4462C206.16 17.9936 207.872 16.3323 210.467 16.3323C213.062 16.3323 214.921 17.8498 215.26 20.4462H205.622Z" fill="black"/>
<path d="M236.366 20.9806C232.747 19.5077 231.871 18.9698 231.871 17.9902C231.871 17.1133 232.655 16.5242 234.024 16.5242C235.49 16.5242 237.058 17.3599 237.985 18.3293L241.707 14.0682C240.091 12.2116 237.304 10.9854 233.788 10.9854C229.139 10.9854 225.229 13.5818 225.229 18.2266C225.229 21.7444 227.283 23.8065 231.344 25.3753C234.665 26.79 235.603 27.386 235.603 28.6568C235.603 29.9276 234.726 30.5647 233.056 30.5647C231.001 30.5647 229.386 29.4823 228.115 27.7696L224.103 31.928C225.671 34.1853 228.701 36.2302 233.35 36.2302C238.629 36.2302 242.395 33.1954 242.395 28.256C242.395 24.6354 240.587 22.5802 236.383 20.9703H236.369V20.9771L236.366 20.9806Z" fill="black"/>
<path d="M82.9448 23.5495C82.9448 16.6406 87.6967 11.0024 94.4547 11.0024C97.4434 11.0024 99.8946 11.9376 102.151 14.2908H102.202L102.151 11.5916H109.207V35.5588H102.151L102.202 32.7637H102.151C99.8022 35.1135 97.4948 36.2473 94.506 36.2473C87.6453 36.2473 82.9448 30.5647 82.9448 23.5495ZM102.49 23.6077C102.49 19.8775 99.9871 17.0345 96.2657 17.0345C92.5443 17.0345 90.0931 19.8775 90.0931 23.5495C90.0931 27.2215 92.3937 30.2187 96.2144 30.2187C100.035 30.2187 102.486 27.3825 102.486 23.6077H102.49Z" fill="black"/>
<path d="M114.595 35.5586V0H121.696V35.5483H114.595V35.5552V35.5586Z" fill="black"/>
<path d="M126.988 35.5586V0H134.088V35.5483H126.988V35.5552V35.5586Z" fill="black"/>
<path d="M265.671 10.9956C257.948 10.9956 252.463 16.3289 252.463 23.4776C252.463 31.1059 257.938 36.2508 265.569 36.2508C273.2 36.2508 278.869 31.1127 278.869 23.6318C278.869 16.1508 273.343 11.0059 265.661 11.0059L265.668 10.999L265.671 10.9956ZM265.671 30.1845C261.95 30.1845 259.557 27.588 259.557 23.5735C259.557 19.559 262.001 17.0653 265.671 17.0653C269.341 17.0653 271.786 19.7577 271.786 23.6249C271.786 27.4921 269.341 30.1776 265.671 30.1776V30.1845Z" fill="black"/>
<path d="M297.216 10.9956C293.843 10.9956 291.741 12.3658 289.882 14.5135H289.78L289.831 11.6259H282.84V35.552H289.934V23.6592C289.934 19.0589 291.55 17.1065 294.583 17.1065C297.274 17.1065 298.397 18.7678 298.397 22.635V35.552H305.483V20.8709C305.483 14.856 302.844 10.9888 297.223 10.9888L297.216 10.9956Z" fill="black"/>
<path d="M212.881 44.79C209.509 44.79 207.407 46.1602 205.548 48.3079H205.445L205.496 45.4203H198.505V69.3464H205.599V57.4536C205.599 52.8533 207.215 50.9009 210.248 50.9009C212.939 50.9009 214.062 52.5622 214.062 56.4294V69.3464H221.148V54.6654C221.148 48.6504 218.509 44.7832 212.888 44.7832L212.881 44.79Z" fill="black"/>
<path d="M190.731 11.6357L184.719 25.2344L178.461 11.6357H170.484L181.1 31.4L175.828 41.5528H183.531L198.505 11.6357H190.731Z" fill="black"/>
</svg>
