<svg width="573" height="93" viewBox="0 0 573 93" fill="none" xmlns="http://www.w3.org/2000/svg">
<path d="M159.002 55.7757H152.938C152.261 55.7757 151.701 55.6182 151.261 55.3031C150.82 54.9844 150.515 54.5834 150.347 54.0893L148.357 48.2175H135.533L133.54 54.0893C133.386 54.5226 133.085 54.9093 132.637 55.2566C132.189 55.6039 131.641 55.7793 130.992 55.7793H124.881L137.938 22.084H145.949L159.006 55.7793L159.002 55.7757ZM137.332 42.897H146.547L143.443 33.6702C143.243 33.083 143.006 32.3956 142.737 31.6007C142.469 30.8059 142.2 29.9466 141.938 29.0228C141.691 29.9645 141.436 30.8345 141.175 31.6365C140.913 32.4386 140.666 33.1332 140.433 33.7168L137.329 42.897H137.332Z" fill="black"/>
<path d="M180.518 42.1994C180.805 42.8332 181.077 43.4812 181.339 44.1436C181.601 43.4633 181.88 42.8045 182.174 42.1636C182.468 41.5227 182.769 40.9033 183.077 40.3018L191.737 23.2626C191.891 22.969 192.049 22.7434 192.21 22.5787C192.371 22.4176 192.554 22.2995 192.755 22.2207C192.955 22.1419 193.185 22.1025 193.439 22.1025H200.303V55.7764H193.403V36.3956C193.403 35.4575 193.45 34.4371 193.543 33.3415L184.608 50.6635C184.332 51.2042 183.955 51.6123 183.486 51.888C183.016 52.1673 182.479 52.3034 181.877 52.3034H180.812C180.21 52.3034 179.672 52.1637 179.203 51.888C178.733 51.6123 178.357 51.2042 178.081 50.6635L169.099 33.32C169.16 33.8606 169.207 34.3941 169.239 34.9276C169.271 35.4575 169.285 35.948 169.285 36.3956V55.7764H162.386V22.1061H169.25C169.504 22.1061 169.73 22.1455 169.934 22.2243C170.135 22.303 170.318 22.4212 170.479 22.5823C170.64 22.747 170.798 22.9726 170.952 23.2662L179.633 40.3734C179.941 40.9606 180.239 41.5693 180.525 42.203L180.518 42.1994Z" fill="black"/>
<path d="M228.221 22.0811V28.0926H214.375V35.9552H224.981V41.7375H214.375V49.7613H228.221V55.7728H206.508V22.0811H228.221Z" fill="black"/>
<path d="M241.138 49.5321H253.64V55.7764H233.317V22.0811H241.142V49.5321H241.138Z" fill="black"/>
<path d="M266.56 55.7764H258.689V22.0811H266.56V55.7764Z" fill="black"/>
<path d="M296.123 47.0577C296.309 47.0577 296.492 47.0935 296.678 47.1615C296.865 47.2296 297.04 47.3513 297.209 47.5196L300.313 50.7813C298.954 52.5536 297.252 53.8927 295.209 54.795C293.162 55.6972 290.743 56.1484 287.951 56.1484C285.388 56.1484 283.094 55.7151 281.062 54.8415C279.033 53.9715 277.309 52.7685 275.897 51.236C274.485 49.7 273.399 47.8812 272.646 45.7759C271.89 43.6706 271.514 41.3863 271.514 38.9194C271.514 36.4525 271.944 34.0966 272.808 31.9913C273.675 29.886 274.879 28.0707 276.431 26.5455C277.98 25.0202 279.836 23.8315 281.997 22.983C284.159 22.1344 286.542 21.7119 289.152 21.7119C290.417 21.7119 291.61 21.8229 292.729 22.0485C293.85 22.274 294.893 22.582 295.865 22.9722C296.84 23.3661 297.732 23.8351 298.553 24.3829C299.37 24.9307 300.094 25.5358 300.728 26.1982L298.091 29.7356C297.919 29.9505 297.718 30.1474 297.488 30.3264C297.255 30.5054 296.933 30.5949 296.517 30.5949C296.241 30.5949 295.976 30.5341 295.729 30.4087C295.481 30.287 295.22 30.1366 294.944 29.9576C294.668 29.7822 294.359 29.5888 294.03 29.3776C293.7 29.1699 293.306 28.9766 292.847 28.8011C292.392 28.6257 291.861 28.4753 291.252 28.35C290.639 28.2283 289.929 28.1638 289.109 28.1638C287.689 28.1638 286.392 28.4145 285.22 28.9157C284.048 29.417 283.04 30.1331 282.198 31.0675C281.359 32.002 280.704 33.1299 280.23 34.4546C279.761 35.783 279.528 37.2688 279.528 38.9194C279.528 40.57 279.761 42.1812 280.23 43.5202C280.704 44.8629 281.342 45.9907 282.152 46.9073C282.965 47.8239 283.908 48.5221 284.987 49.0019C286.069 49.4816 287.223 49.7179 288.46 49.7179C289.169 49.7179 289.815 49.6821 290.406 49.6141C290.99 49.5461 291.535 49.4244 292.037 49.2561C292.539 49.0878 293.019 48.8658 293.474 48.5973C293.929 48.3287 294.388 47.9922 294.85 47.5912C295.037 47.4372 295.237 47.3119 295.453 47.2117C295.668 47.1114 295.893 47.0613 296.126 47.0613L296.123 47.0577Z" fill="black"/>
<path d="M337.815 38.9197C337.815 41.3544 337.392 43.6208 336.553 45.7189C335.711 47.8171 334.524 49.6395 332.997 51.1898C331.47 52.7401 329.628 53.9539 327.478 54.8311C325.324 55.7119 322.937 56.1487 320.313 56.1487C317.689 56.1487 315.299 55.7083 313.137 54.8311C310.976 53.9539 309.127 52.7366 307.593 51.1898C306.055 49.6395 304.865 47.8171 304.026 45.7189C303.184 43.6208 302.765 41.3544 302.765 38.9197C302.765 36.485 303.184 34.2151 304.026 32.1205C304.865 30.0224 306.055 28.2035 307.593 26.664C309.127 25.1208 310.976 23.9106 313.137 23.0334C315.299 22.1562 317.689 21.7158 320.313 21.7158C322.937 21.7158 325.324 22.1598 327.478 23.0442C329.632 23.9321 331.474 25.1459 332.997 26.6854C334.524 28.225 335.711 30.0475 336.553 32.142C337.392 34.2401 337.815 36.4994 337.815 38.9197ZM329.804 38.9197C329.804 37.2548 329.589 35.7546 329.155 34.4191C328.721 33.0872 328.101 31.9558 327.291 31.0321C326.481 30.1083 325.492 29.3994 324.316 28.9053C323.144 28.4112 321.807 28.1642 320.313 28.1642C318.818 28.1642 317.453 28.4112 316.273 28.9053C315.091 29.3994 314.098 30.1083 313.284 31.0321C312.474 31.9558 311.854 33.0872 311.42 34.4191C310.99 35.7546 310.772 37.2513 310.772 38.9197C310.772 40.5882 310.987 42.1063 311.42 43.4418C311.851 44.7737 312.474 45.9051 313.284 46.8289C314.098 47.7526 315.091 48.4615 316.273 48.9449C317.453 49.4318 318.8 49.6753 320.313 49.6753C321.825 49.6753 323.148 49.4318 324.316 48.9449C325.492 48.4615 326.481 47.7526 327.291 46.8289C328.105 45.9051 328.721 44.7737 329.155 43.4418C329.585 42.1099 329.804 40.6025 329.804 38.9197Z" fill="black"/>
<path d="M350.036 43.3129V55.7764H342.212V22.0811H353.183C355.624 22.0811 357.703 22.3317 359.423 22.8329C361.144 23.3342 362.549 24.0324 363.638 24.9275C364.724 25.8226 365.516 26.8788 366.011 28.0962C366.506 29.3135 366.749 30.6418 366.749 32.074C366.749 33.1696 366.602 34.2008 366.309 35.1746C366.015 36.1449 365.577 37.0436 365 37.8707C364.42 38.6942 363.71 39.4318 362.871 40.0798C362.029 40.7279 361.061 41.2578 359.964 41.6731C360.488 41.9345 360.979 42.2603 361.434 42.6434C361.889 43.0301 362.287 43.4991 362.628 44.0541L369.803 55.7799H362.721C361.409 55.7799 360.466 55.2859 359.896 54.3012L354.294 44.5195C354.047 44.0899 353.757 43.7784 353.427 43.5958C353.097 43.4096 352.628 43.3201 352.025 43.3201H350.036V43.3129ZM350.036 37.9244H353.183C354.248 37.9244 355.155 37.7883 355.904 37.5198C356.653 37.2513 357.266 36.8753 357.746 36.3991C358.223 35.923 358.57 35.3608 358.785 34.7235C359 34.0826 359.108 33.3916 359.108 32.654C359.108 31.1717 358.624 30.0188 357.66 29.1846C356.696 28.3504 355.201 27.935 353.18 27.935H350.033V37.9244H350.036Z" fill="black"/>
<path d="M138.734 65.7734V67.8501H129.684V74.1051H137.01V76.1029H129.684V82.5262H138.734V84.6029H127.121V65.7734H138.734Z" fill="black"/>
<path d="M142.404 84.6027V71.2907H143.799C144.132 71.2907 144.343 71.4518 144.429 71.7776L144.612 73.2241C145.189 72.5868 145.838 72.0676 146.551 71.6738C147.264 71.2799 148.092 71.083 149.031 71.083C149.759 71.083 150.401 71.2047 150.96 71.4446C151.515 71.6845 151.981 72.0282 152.354 72.4686C152.727 72.9126 153.01 73.4425 153.204 74.0655C153.397 74.6849 153.494 75.3759 153.494 76.1278V84.6027H151.153V76.1278C151.153 75.1217 150.924 74.3376 150.462 73.7826C150.003 73.2277 149.297 72.9484 148.351 72.9484C147.659 72.9484 147.01 73.1167 146.411 73.4461C145.809 73.7791 145.257 74.2302 144.748 74.7995V84.6027H142.408H142.404Z" fill="black"/>
<path d="M161.884 71.0684C162.462 71.0684 163.006 71.1328 163.508 71.2581C164.014 71.3834 164.469 71.5696 164.881 71.8167H168.497V72.6831C168.497 72.9731 168.315 73.1557 167.945 73.2345L166.433 73.4458C166.73 74.015 166.881 74.6524 166.881 75.3505C166.881 75.9986 166.755 76.5858 166.504 77.1157C166.254 77.6456 165.91 78.1003 165.465 78.4762C165.021 78.8522 164.497 79.1422 163.888 79.3427C163.279 79.5432 162.608 79.647 161.881 79.647C161.257 79.647 160.669 79.5719 160.118 79.4215C159.838 79.6041 159.623 79.7974 159.48 80.0051C159.336 80.2127 159.261 80.4168 159.261 80.6173C159.261 80.9432 159.386 81.1902 159.641 81.3585C159.895 81.5268 160.232 81.6449 160.655 81.7201C161.074 81.7917 161.555 81.8275 162.089 81.8275H163.727C164.282 81.8275 164.831 81.8776 165.365 81.9743C165.899 82.071 166.379 82.2321 166.798 82.4541C167.221 82.6761 167.558 82.9804 167.813 83.3707C168.067 83.7609 168.193 84.2658 168.193 84.8888C168.193 85.4652 168.049 86.0238 167.766 86.5644C167.479 87.105 167.071 87.5848 166.537 88.0073C166.003 88.4298 165.347 88.7664 164.576 89.017C163.806 89.2712 162.931 89.3965 161.96 89.3965C160.988 89.3965 160.132 89.2998 159.401 89.1065C158.669 88.9132 158.06 88.6554 157.58 88.3295C157.096 88.0037 156.738 87.6314 156.494 87.2053C156.254 86.7792 156.132 86.3353 156.132 85.8698C156.132 85.2146 156.34 84.6525 156.755 84.1942C157.171 83.7323 157.745 83.3671 158.472 83.095C158.096 82.9195 157.795 82.6868 157.573 82.3932C157.347 82.0996 157.236 81.7094 157.236 81.2188C157.236 81.0291 157.272 80.8286 157.34 80.6209C157.411 80.4168 157.519 80.2127 157.662 80.0122C157.806 79.8117 157.985 79.6184 158.196 79.4358C158.408 79.2532 158.652 79.0921 158.935 78.9524C158.279 78.5837 157.763 78.0967 157.39 77.488C157.017 76.8794 156.831 76.1669 156.831 75.3541C156.831 74.7061 156.956 74.1189 157.207 73.589C157.458 73.0591 157.806 72.6079 158.254 72.2356C158.702 71.8632 159.232 71.5768 159.852 71.3763C160.469 71.1758 161.146 71.0755 161.884 71.0755V71.0684ZM166.042 85.2755C166.042 84.9353 165.949 84.6632 165.766 84.4591C165.583 84.255 165.332 84.0975 165.017 83.9829C164.702 83.8719 164.336 83.7896 163.924 83.7323C163.512 83.6786 163.078 83.6535 162.623 83.6535H161.229C160.755 83.6535 160.304 83.5962 159.874 83.4745C159.376 83.7108 158.967 84.0008 158.659 84.3445C158.347 84.6883 158.193 85.0964 158.193 85.5691C158.193 85.8698 158.268 86.1455 158.422 86.4033C158.576 86.6611 158.809 86.8866 159.125 87.0728C159.44 87.2626 159.838 87.413 160.315 87.5204C160.791 87.6314 161.358 87.6851 162.006 87.6851C162.655 87.6851 163.204 87.6278 163.702 87.5132C164.2 87.3951 164.626 87.2304 164.97 87.0155C165.318 86.8007 165.583 86.5465 165.766 86.2529C165.949 85.9593 166.042 85.6335 166.042 85.2755ZM161.884 78.0967C162.358 78.0967 162.777 78.0323 163.143 77.8998C163.505 77.7673 163.813 77.5847 164.057 77.3484C164.3 77.1121 164.487 76.8293 164.609 76.4999C164.73 76.1705 164.791 75.8088 164.791 75.415C164.791 74.5987 164.544 73.9506 164.049 73.4708C163.555 72.9875 162.831 72.7476 161.884 72.7476C160.938 72.7476 160.229 72.9875 159.734 73.4708C159.239 73.9506 158.992 74.5987 158.992 75.415C158.992 75.8088 159.057 76.1705 159.182 76.4999C159.307 76.8293 159.494 77.1121 159.741 77.3484C159.985 77.5847 160.29 77.7673 160.648 77.8998C161.006 78.0323 161.419 78.0967 161.884 78.0967Z" fill="black"/>
<path d="M174.343 67.1122C174.343 67.3377 174.296 67.5526 174.203 67.7495C174.11 67.9464 173.988 68.1218 173.834 68.2758C173.68 68.4298 173.504 68.5479 173.3 68.6374C173.099 68.7269 172.884 68.7699 172.655 68.7699C172.425 68.7699 172.214 68.7269 172.017 68.6374C171.82 68.5515 171.644 68.4298 171.49 68.2758C171.336 68.1218 171.217 67.9464 171.128 67.7495C171.042 67.5526 170.995 67.3413 170.995 67.1122C170.995 66.883 171.038 66.6682 171.128 66.4605C171.217 66.2529 171.336 66.0738 171.49 65.9199C171.644 65.7659 171.82 65.6478 172.017 65.5583C172.214 65.4723 172.425 65.4258 172.655 65.4258C172.884 65.4258 173.096 65.4687 173.3 65.5583C173.501 65.6478 173.68 65.7659 173.834 65.9199C173.988 66.0738 174.11 66.2529 174.203 66.4605C174.296 66.6646 174.343 66.883 174.343 67.1122ZM173.816 71.2905V84.6025H171.475V71.2905H173.816Z" fill="black"/>
<path d="M178.314 84.6027V71.2907H179.709C180.042 71.2907 180.253 71.4518 180.339 71.7776L180.522 73.2241C181.099 72.5868 181.748 72.0676 182.461 71.6738C183.175 71.2799 184.003 71.083 184.942 71.083C185.669 71.083 186.311 71.2047 186.87 71.4446C187.425 71.6845 187.891 72.0282 188.264 72.4686C188.637 72.9126 188.92 73.4425 189.114 74.0655C189.307 74.6849 189.404 75.3759 189.404 76.1278V84.6027H187.063V76.1278C187.063 75.1217 186.834 74.3376 186.372 73.7826C185.913 73.2277 185.207 72.9484 184.261 72.9484C183.569 72.9484 182.92 73.1167 182.322 73.4461C181.719 73.7791 181.167 74.2302 180.658 74.7995V84.6027H178.318H178.314Z" fill="black"/>
<path d="M198.583 71.0791C199.382 71.0791 200.117 71.2116 200.791 71.4801C201.468 71.7486 202.049 72.1317 202.54 72.6366C203.031 73.1414 203.414 73.7644 203.69 74.502C203.966 75.2431 204.106 76.0845 204.106 77.0298C204.106 77.3985 204.067 77.642 203.988 77.7637C203.909 77.8855 203.762 77.9499 203.54 77.9499H194.672C194.69 78.7913 194.805 79.5217 195.013 80.1447C195.224 80.7641 195.511 81.2869 195.88 81.7022C196.25 82.1175 196.687 82.429 197.196 82.6367C197.705 82.8444 198.275 82.9446 198.905 82.9446C199.493 82.9446 199.999 82.8766 200.425 82.7405C200.852 82.6045 201.217 82.4577 201.522 82.3001C201.83 82.1426 202.085 81.9958 202.292 81.8597C202.5 81.7237 202.676 81.6557 202.827 81.6557C203.02 81.6557 203.167 81.7308 203.275 81.8776L203.93 82.7334C203.64 83.0842 203.296 83.3886 202.891 83.6464C202.486 83.9042 202.056 84.119 201.594 84.2837C201.135 84.452 200.658 84.5737 200.167 84.6596C199.676 84.742 199.189 84.7849 198.705 84.7849C197.784 84.7849 196.938 84.631 196.16 84.3195C195.386 84.008 194.712 83.5533 194.146 82.9518C193.579 82.3503 193.138 81.6091 192.827 80.7247C192.511 79.8404 192.354 78.8235 192.354 77.6778C192.354 76.7505 192.497 75.8804 192.78 75.0748C193.067 74.2692 193.475 73.5711 194.009 72.9803C194.543 72.3895 195.199 71.9241 195.97 71.5875C196.741 71.251 197.608 71.0827 198.572 71.0827L198.583 71.0791ZM198.637 72.8013C197.504 72.8013 196.615 73.1271 195.966 73.7787C195.318 74.4304 194.916 75.3362 194.755 76.4927H202.002C202.002 75.9485 201.927 75.4508 201.78 75.0032C201.629 74.5521 201.411 74.1618 201.124 73.8324C200.837 73.503 200.482 73.2488 200.067 73.0698C199.651 72.8908 199.174 72.8013 198.64 72.8013H198.637Z" fill="black"/>
<path d="M212.737 71.0791C213.533 71.0791 214.271 71.2116 214.945 71.4801C215.622 71.7486 216.203 72.1317 216.694 72.6366C217.185 73.1414 217.569 73.7644 217.845 74.502C218.121 75.2431 218.257 76.0845 218.257 77.0298C218.257 77.3985 218.217 77.642 218.139 77.7637C218.06 77.8855 217.909 77.9499 217.69 77.9499H208.823C208.841 78.7913 208.956 79.5217 209.164 80.1447C209.375 80.7641 209.666 81.2869 210.031 81.7022C210.4 82.1175 210.838 82.429 211.346 82.6367C211.855 82.8444 212.425 82.9446 213.056 82.9446C213.644 82.9446 214.149 82.8766 214.576 82.7405C215.002 82.6045 215.368 82.4577 215.676 82.3001C215.981 82.1426 216.239 81.9958 216.443 81.8597C216.647 81.7237 216.83 81.6557 216.977 81.6557C217.171 81.6557 217.318 81.7308 217.425 81.8776L218.081 82.7334C217.791 83.0842 217.443 83.3886 217.042 83.6464C216.637 83.9042 216.207 84.119 215.748 84.2837C215.289 84.452 214.812 84.5737 214.318 84.6596C213.827 84.742 213.343 84.7849 212.859 84.7849C211.938 84.7849 211.088 84.631 210.314 84.3195C209.54 84.008 208.866 83.5533 208.303 82.9518C207.737 82.3503 207.296 81.6091 206.981 80.7247C206.669 79.8404 206.508 78.8235 206.508 77.6778C206.508 76.7505 206.651 75.8804 206.938 75.0748C207.221 74.2692 207.633 73.5711 208.167 72.9803C208.701 72.3895 209.357 71.9241 210.128 71.5875C210.898 71.251 211.766 71.0827 212.734 71.0827L212.737 71.0791ZM212.787 72.8013C211.658 72.8013 210.769 73.1271 210.117 73.7787C209.468 74.4304 209.063 75.3362 208.906 76.4927H216.153C216.153 75.9485 216.078 75.4508 215.931 75.0032C215.78 74.5521 215.561 74.1618 215.275 73.8324C214.984 73.503 214.633 73.2488 214.217 73.0698C213.802 72.8908 213.325 72.8013 212.787 72.8013Z" fill="black"/>
<path d="M221.615 84.603V71.291H222.956C223.21 71.291 223.386 71.3375 223.483 71.4342C223.579 71.5309 223.644 71.6956 223.68 71.9319L223.838 74.0085C224.293 73.0812 224.859 72.3544 225.529 71.8352C226.199 71.3125 226.984 71.0547 227.891 71.0547C228.26 71.0547 228.594 71.0941 228.891 71.18C229.189 71.2624 229.468 71.3805 229.723 71.5273L229.418 73.2745C229.357 73.493 229.221 73.6039 229.009 73.6039C228.888 73.6039 228.698 73.5646 228.443 73.4786C228.189 73.3963 227.834 73.3533 227.379 73.3533C226.565 73.3533 225.88 73.5896 225.332 74.0622C224.784 74.5349 224.325 75.2223 223.959 76.1246V84.5994H221.619L221.615 84.603Z" fill="black"/>
<path d="M235.715 67.1122C235.715 67.3377 235.669 67.5526 235.579 67.7495C235.486 67.9464 235.364 68.1218 235.21 68.2758C235.056 68.4298 234.88 68.5479 234.68 68.6374C234.475 68.7269 234.264 68.7699 234.035 68.7699C233.805 68.7699 233.594 68.7269 233.397 68.6374C233.199 68.5515 233.024 68.4298 232.87 68.2758C232.716 68.1218 232.594 67.9464 232.508 67.7495C232.422 67.5526 232.375 67.3413 232.375 67.1122C232.375 66.883 232.418 66.6682 232.508 66.4605C232.594 66.2529 232.716 66.0738 232.87 65.9199C233.024 65.7659 233.199 65.6478 233.397 65.5583C233.59 65.4723 233.805 65.4258 234.035 65.4258C234.264 65.4258 234.475 65.4687 234.68 65.5583C234.88 65.6478 235.056 65.7659 235.21 65.9199C235.364 66.0738 235.486 66.2529 235.579 66.4605C235.669 66.6646 235.715 66.883 235.715 67.1122ZM235.192 71.2905V84.6025H232.848V71.2905H235.192Z" fill="black"/>
<path d="M239.687 84.6027V71.2907H241.081C241.414 71.2907 241.626 71.4518 241.712 71.7776L241.894 73.2241C242.475 72.5868 243.12 72.0676 243.837 71.6738C244.55 71.2799 245.375 71.083 246.317 71.083C247.045 71.083 247.686 71.2047 248.246 71.4446C248.805 71.6845 249.267 72.0282 249.64 72.4686C250.013 72.9126 250.296 73.4425 250.489 74.0655C250.683 74.6849 250.776 75.3759 250.776 76.1278V84.6027H248.436V76.1278C248.436 75.1217 248.203 74.3376 247.744 73.7826C247.285 73.2277 246.579 72.9484 245.636 72.9484C244.941 72.9484 244.296 73.1167 243.694 73.4461C243.091 73.7791 242.539 74.2302 242.031 74.7995V84.6027H239.687Z" fill="black"/>
<path d="M259.166 71.0684C259.743 71.0684 260.288 71.1328 260.793 71.2581C261.295 71.3834 261.754 71.5696 262.166 71.8167H265.782V72.6831C265.782 72.9731 265.596 73.1557 265.231 73.2345L263.718 73.4458C264.015 74.015 264.166 74.6524 264.166 75.3505C264.166 75.9986 264.041 76.5858 263.79 77.1157C263.539 77.6456 263.195 78.1003 262.75 78.4762C262.309 78.8522 261.783 79.1422 261.173 79.3427C260.564 79.5432 259.894 79.647 259.166 79.647C258.546 79.647 257.955 79.5719 257.403 79.4215C257.123 79.6041 256.908 79.7974 256.765 80.0051C256.618 80.2127 256.546 80.4168 256.546 80.6173C256.546 80.9432 256.675 81.1902 256.93 81.3585C257.184 81.5268 257.521 81.6449 257.94 81.7201C258.363 81.7917 258.84 81.8275 259.374 81.8275H261.012C261.568 81.8275 262.116 81.8776 262.65 81.9743C263.184 82.071 263.661 82.2321 264.084 82.4541C264.507 82.6761 264.84 82.9804 265.094 83.3707C265.349 83.7609 265.478 84.2658 265.478 84.8888C265.478 85.4652 265.335 86.0238 265.048 86.5644C264.761 87.105 264.352 87.5848 263.818 88.0073C263.281 88.4298 262.628 88.7664 261.858 89.017C261.084 89.2712 260.213 89.3965 259.241 89.3965C258.27 89.3965 257.413 89.2998 256.682 89.1065C255.951 88.9132 255.345 88.6554 254.861 88.3295C254.378 88.0037 254.016 87.6314 253.779 87.2053C253.539 86.7792 253.417 86.3353 253.417 85.8698C253.417 85.2146 253.625 84.6525 254.041 84.1942C254.456 83.7323 255.03 83.3671 255.757 83.095C255.381 82.9195 255.08 82.6868 254.854 82.3932C254.632 82.0996 254.521 81.7094 254.521 81.2188C254.521 81.0291 254.553 80.8286 254.625 80.6209C254.693 80.4168 254.8 80.2127 254.947 80.0122C255.094 79.8117 255.27 79.6184 255.481 79.4358C255.693 79.2532 255.937 79.0921 256.216 78.9524C255.56 78.5837 255.044 78.0967 254.671 77.488C254.299 76.8794 254.112 76.1669 254.112 75.3541C254.112 74.7061 254.238 74.1189 254.489 73.589C254.74 73.0591 255.087 72.6079 255.535 72.2356C255.983 71.8632 256.517 71.5768 257.134 71.3763C257.754 71.1758 258.428 71.0755 259.166 71.0755V71.0684ZM263.324 85.2755C263.324 84.9353 263.231 84.6632 263.048 84.4591C262.861 84.255 262.614 84.0975 262.299 83.9829C261.983 83.8719 261.618 83.7896 261.205 83.7323C260.793 83.6786 260.356 83.6535 259.904 83.6535H258.51C258.037 83.6535 257.585 83.5962 257.155 83.4745C256.654 83.7108 256.249 84.0008 255.937 84.3445C255.625 84.6883 255.471 85.0964 255.471 85.5691C255.471 85.8698 255.55 86.1455 255.704 86.4033C255.858 86.6611 256.091 86.8866 256.406 87.0728C256.722 87.2626 257.12 87.413 257.596 87.5204C258.073 87.6314 258.639 87.6851 259.288 87.6851C259.937 87.6851 260.485 87.6278 260.987 87.5132C261.485 87.3951 261.908 87.2304 262.256 87.0155C262.603 86.8007 262.869 86.5465 263.051 86.2529C263.234 85.9593 263.327 85.6335 263.327 85.2755H263.324ZM259.166 78.0967C259.643 78.0967 260.059 78.0323 260.424 77.8998C260.79 77.7673 261.091 77.5847 261.338 77.3484C261.585 77.1121 261.768 76.8293 261.89 76.4999C262.012 76.1705 262.076 75.8088 262.076 75.415C262.076 74.5987 261.826 73.9506 261.331 73.4708C260.836 72.9875 260.116 72.7476 259.166 72.7476C258.216 72.7476 257.51 72.9875 257.016 73.4708C256.521 73.9506 256.274 74.5987 256.274 75.415C256.274 75.8088 256.338 76.1705 256.464 76.4999C256.589 76.8293 256.775 77.1121 257.023 77.3484C257.266 77.5847 257.571 77.7673 257.93 77.8998C258.288 78.0323 258.7 78.0967 259.166 78.0967Z" fill="black"/>
<path fill-rule="evenodd" clip-rule="evenodd" d="M111.512 62.9476C111.512 62.9476 43.5229 30.688 0 92.1996C0 92.1996 39.5086 55.9335 94.8702 79.5786L111.515 62.9476H111.512Z" fill="#1575BD"/>
<path fill-rule="evenodd" clip-rule="evenodd" d="M82.1497 42.8118L96.1425 28.8374C89.1174 28.3039 81.3899 28.4436 73.372 29.822C56.0819 32.8045 37.444 41.5515 21.5875 61.677L18.9531 65.5725C23.3581 61.8739 46.1608 44.2762 79.2537 45.7048L82.1533 42.8082L82.1497 42.8118Z" fill="#1575BD"/>
<path fill-rule="evenodd" clip-rule="evenodd" d="M39.2432 39.1201C41.7951 36.936 54.2502 26.9145 73.458 21.8625L67.2967 12.7539C58.2215 18.0243 49.3363 25.5897 41.2109 36.2128L39.2432 39.1165V39.1201Z" fill="#1BA991"/>
<path d="M471.283 62.8442C471.017 63.3097 470.767 63.5854 470.369 63.9434C470.283 64.0294 470.197 64.1117 470.111 64.1976C467.595 66.6037 464.247 68.2471 460.96 69.314C460.828 69.357 460.695 69.4 460.559 69.4465C460.247 69.5432 459.932 69.6327 459.616 69.7186C459.505 69.7509 459.39 69.7831 459.276 69.8189C454.702 71.072 449.469 70.9002 444.968 69.4501C444.874 69.4215 444.78 69.3916 444.684 69.3606C440.767 68.111 437.301 65.995 434.351 63.1378C434.275 63.0662 434.198 62.9934 434.122 62.9194C431.756 60.6602 429.946 58.0501 428.573 55.0819C428.505 54.9351 428.434 54.7883 428.362 54.6343C426.677 50.9143 426.107 47.1047 426.125 43.0553V41.8308C426.731 35.7476 429.366 29.6394 433.853 25.3537C434.039 25.1782 434.229 25.0064 434.412 24.8274C438.903 20.5416 444.419 18.132 450.584 17.5305C450.674 17.5233 450.878 17.4051 451.05 17.3121C451.054 17.3121 451.057 17.3121 451.061 17.3121C451.258 17.3121 451.459 17.3121 451.656 17.3121C451.928 17.3121 452.204 17.3121 452.476 17.3121C455.05 17.2977 457.548 17.5698 460.021 18.3003C460.124 18.3313 460.229 18.3623 460.337 18.3933C463.996 19.4782 467.157 21.272 470.1 23.6709C470.222 23.7676 470.344 23.8606 470.469 23.9573C471.093 24.4765 471.383 25.0601 471.48 25.8514C471.519 26.7751 471.326 27.4876 470.77 28.2359C470.018 28.8732 469.276 29.0952 468.297 29.0773C467.469 28.9914 466.921 28.5689 466.326 28.0175C462.193 24.2223 456.605 22.9297 451.15 23.1338C449.67 23.2162 448.269 23.5062 446.849 23.9394C446.688 23.986 446.523 24.0361 446.355 24.0862C444.993 24.5123 443.72 25.0744 442.516 25.7547C440.989 26.6211 439.577 27.6809 438.244 28.9055C438.143 28.995 438.043 29.0881 437.939 29.1776C436.609 30.4379 435.444 31.981 434.498 33.671C433.021 36.3062 432.086 39.303 431.9 42.1566C431.806 46.3958 432.416 50.2734 434.477 54.0078C434.553 54.151 434.631 54.2954 434.71 54.441C437.197 58.8771 441.645 62.5435 446.57 63.9434C447.247 64.1081 447.928 64.2478 448.613 64.3767C448.952 64.4435 449.211 64.5223 449.39 64.613C455.107 65.4365 460.792 64.0294 465.433 60.6172C465.942 60.227 466.426 59.808 466.906 59.3856C467.652 58.8055 468.362 58.7303 469.279 58.8377C470.164 59.0884 470.788 59.697 471.293 60.4489C471.562 61.2223 471.509 62.0744 471.268 62.8407L471.283 62.8442Z" fill="#34CFFF"/>
<path d="M512.566 23.6669C512.677 23.7635 512.792 23.8638 512.906 23.9641C514.34 25.2315 515.595 26.567 516.731 28.0994C516.785 28.171 516.838 28.2462 516.896 28.3178C519.838 32.3207 521.824 37.3405 521.87 42.3459C521.87 42.4605 521.872 42.5763 521.874 42.6932C521.874 43.062 521.878 43.4344 521.881 43.8031C521.881 43.9285 521.881 44.0538 521.881 44.1863C521.881 48.1844 521.42 50.7086 520.498 51.7588C519.702 52.4928 518.989 52.7399 517.914 52.7148C516.982 52.5895 516.387 51.9701 515.81 51.2755C515.379 50.6489 515.462 49.897 515.523 49.1738C515.584 48.9052 515.648 48.6367 515.716 48.3682C516.957 43.2732 515.888 37.6699 513.265 33.1908C512.559 32.0343 511.745 30.9852 510.82 29.9971C510.587 29.7464 510.376 29.4922 510.164 29.2273C509.612 28.5792 508.939 28.0744 508.265 27.5588C508.132 27.455 507.996 27.3475 507.86 27.2401C503.444 23.8638 497.942 22.5963 492.466 23.1799C487.204 23.9175 482.007 26.7639 478.781 31.0282C478.33 31.6476 477.903 32.2849 477.487 32.9294C477.437 33.0082 477.387 33.087 477.337 33.1657C476.082 35.1457 475.279 37.3548 474.803 39.6427C474.763 39.8074 474.724 39.9721 474.681 40.1404C473.932 43.4487 474.287 47.0506 475.34 50.2479C475.394 50.4126 475.448 50.5737 475.502 50.742C477.308 56.0016 481.129 60.2587 486.093 62.7328C491.265 65.2248 497.104 65.4253 502.509 63.5635C503.537 63.1911 504.494 62.7328 505.444 62.1958C505.591 62.117 505.734 62.0346 505.885 61.9523C506.659 61.5155 507.39 61.0393 508.111 60.5165C508.835 60.0189 509.412 59.9437 510.283 60.0475C511.136 60.3196 511.731 60.8352 512.247 61.5584C512.62 62.2924 512.544 63.1947 512.358 63.986C511.405 66.2631 507.415 67.7705 505.258 68.6548C504.917 68.7873 504.577 68.9162 504.233 69.0415C504.142 69.0749 504.049 69.1095 503.953 69.1453C502.333 69.7433 500.699 70.1228 498.989 70.3842C498.899 70.3985 498.806 70.4128 498.713 70.4271C497.67 70.5668 496.616 70.5453 495.57 70.5453C495.469 70.5453 495.365 70.5453 495.261 70.5453C493.756 70.5453 492.279 70.4987 490.792 70.2517C490.627 70.2254 490.461 70.1992 490.294 70.1729C487.864 69.7361 485.609 68.9162 483.398 67.8349C483.308 67.7919 483.215 67.7454 483.122 67.7024C481.677 67.0007 480.383 66.1091 479.097 65.1496C478.971 65.0565 478.846 64.967 478.717 64.8739C474.545 61.6444 471.728 57.3049 469.957 52.3961C469.925 52.3102 469.892 52.2243 469.86 52.1348C469.24 50.4377 468.989 48.6761 468.749 46.893C468.735 46.7892 468.72 46.6854 468.706 46.5816C468.104 41.7838 469.079 36.8536 471.168 32.5284C471.222 32.4174 471.272 32.31 471.326 32.1954C474.057 26.5778 478.706 22.2669 484.337 19.6389C484.487 19.5673 484.638 19.4957 484.795 19.4205C486.785 18.5218 488.899 17.9454 491.057 17.6231C491.147 17.6088 491.236 17.5945 491.326 17.5802C498.896 16.4344 506.788 18.6077 512.559 23.6633L512.566 23.6669Z" fill="#2A82FF"/>
<path d="M526.913 17.559C527.927 18.0818 528.407 19.1201 528.855 20.1226C528.906 20.23 528.956 20.341 529.006 20.452C529.167 20.8065 529.329 21.1573 529.49 21.5118C529.605 21.7588 529.719 22.0095 529.83 22.2565C530.117 22.8795 530.4 23.5025 530.683 24.1255C530.827 24.4442 530.974 24.7592 531.117 25.0779C531.447 25.7976 531.773 26.5172 532.099 27.2369C532.748 28.6691 533.407 30.0941 534.067 31.5191C534.852 33.2162 535.633 34.9169 536.407 36.6212C537.099 38.1464 537.798 39.6681 538.504 41.1862C539.289 42.8833 540.07 44.584 540.845 46.2883C541.536 47.8135 542.235 49.3316 542.941 50.8533C543.712 52.5146 544.475 54.1795 545.235 55.8444C545.278 55.9375 545.318 56.027 545.361 56.1201C545.762 57.0009 546.16 57.8817 546.558 58.766C546.615 58.8926 546.673 59.0214 546.73 59.1527C546.834 59.3819 546.934 59.6146 547.038 59.8437C547.162 60.1564 547.32 60.4476 547.511 60.7174C548.569 58.4832 549.612 56.2454 550.633 53.9933C551.332 52.4502 552.042 50.9106 552.751 49.3746C553.497 47.767 554.235 46.1558 554.97 44.541C555.755 42.8153 556.547 41.0931 557.343 39.3709C558.035 37.8743 558.723 36.3741 559.404 34.8739C560.135 33.2591 560.877 31.648 561.622 30.0403C562.336 28.5008 563.045 26.9576 563.748 25.4145C563.87 25.1423 563.995 24.8738 564.117 24.6017C564.493 23.7746 564.866 22.9475 565.232 22.1169C565.4 21.7338 565.572 21.3507 565.741 20.9676C565.819 20.7886 565.898 20.6059 565.977 20.4269C566.663 18.8468 567.406 17.8669 568.206 17.4874C569.235 17.1902 570.059 17.3012 570.995 17.8132C571.597 18.2321 571.963 18.7728 572.102 19.4996C572.199 20.4699 572.034 21.1931 571.622 22.0668C571.568 22.1849 571.515 22.3031 571.461 22.4248C571.274 22.8366 571.085 23.2483 570.891 23.66C570.816 23.8176 570.744 23.9751 570.669 24.1362C570.339 24.8452 570.006 25.5541 569.672 26.2594C569.07 27.5376 568.475 28.823 567.895 30.1084C567.153 31.741 566.407 33.3737 565.651 34.9992C564.902 36.614 564.16 38.2288 563.425 39.8507C562.719 41.4082 562.006 42.9621 561.292 44.516C560.525 46.1845 559.755 47.8529 558.991 49.525C558.945 49.6252 558.902 49.7219 558.855 49.8257C558.285 51.0717 557.719 52.3177 557.171 53.5709C556.873 54.244 556.558 54.9064 556.246 55.5723C555.751 56.6285 555.26 57.6883 554.769 58.7481C554.715 58.8663 554.658 58.988 554.601 59.1098C553.888 60.6493 553.178 62.1889 552.475 63.7357C552.35 64.0078 552.228 64.2799 552.103 64.552C551.726 65.3791 551.353 66.2062 550.995 67.0404C550.931 67.1872 550.866 67.3376 550.798 67.4879C550.68 67.7565 550.561 68.0286 550.45 68.3007C550.002 69.3175 549.357 70.0623 548.321 70.5098C547.454 70.6029 546.633 70.6244 545.902 70.1088C545.386 69.6433 545.078 69.2137 544.777 68.5907C544.734 68.5012 544.69 68.4117 544.644 68.3186C544.479 67.9785 544.318 67.6347 544.156 67.291C544.085 67.1442 544.017 66.9938 543.941 66.8435C542.909 64.6701 541.902 62.4825 540.909 60.2913C540.25 58.8412 539.583 57.3947 538.916 55.9482C538.131 54.2511 537.35 52.5504 536.576 50.8462C535.884 49.3209 535.185 47.7992 534.479 46.2811C533.694 44.584 532.913 42.8833 532.139 41.179C531.447 39.6538 530.748 38.1321 530.042 36.614C529.257 34.9169 528.476 33.2162 527.701 31.5119C527.103 30.1907 526.497 28.8767 525.888 27.5627C525.529 26.7893 525.171 26.0124 524.816 25.2354C524.558 24.6733 524.296 24.1112 524.028 23.5526C523.852 23.1803 523.68 22.8079 523.504 22.4355C523.443 22.3102 523.382 22.1849 523.318 22.056C522.891 21.1215 522.791 20.2515 522.917 19.2311C523.239 18.3968 523.78 17.9457 524.529 17.4874C525.322 17.2225 526.135 17.2547 526.916 17.5554L526.913 17.559Z" fill="#39E875"/>
<path d="M502.139 48.8444C502.48 48.9017 502.824 48.9518 503.168 49.0019C510.143 50.0868 516.092 54.1506 521.705 58.1678C526.074 61.2935 530.885 64.5732 536.454 64.7737C536.565 64.7772 536.68 64.7808 536.795 64.788C537.017 64.7951 537.236 64.7987 537.458 64.8023C538.372 64.8274 539.064 65.0816 539.752 65.6938C539.827 65.7833 539.899 65.8728 539.974 65.9659C540.049 66.0554 540.125 66.145 540.203 66.238C540.673 66.9004 540.587 67.7311 540.519 68.508C540.307 69.3136 539.838 69.7612 539.175 70.2374C537.196 71.3545 533.368 70.2947 531.3 69.7576C529.433 69.2313 527.623 68.5259 525.913 67.6022C525.662 67.4697 525.411 67.3372 525.161 67.2083C523.913 66.5639 522.748 65.837 521.587 65.0529C521.408 64.9348 521.232 64.813 521.053 64.6949C519.874 63.9 518.702 63.0909 517.544 62.2638C514.071 59.7825 510.53 57.4123 506.516 55.8906C506.419 55.8548 506.326 55.8154 506.225 55.7796C503.093 54.5838 499.806 54.2508 496.476 54.2472C496.369 54.2472 496.26 54.2472 496.15 54.2472C494.081 54.1661 492.07 54.357 490.118 54.8201C489.91 54.8559 489.698 54.8917 489.487 54.9203C487.785 55.196 486.068 55.5254 484.43 56.0697C483.437 56.3919 482.476 56.4671 481.501 56.0518C480.896 55.6722 480.48 55.1029 480.114 54.5014C479.921 53.6063 479.928 52.7793 480.401 51.9737C481.985 49.761 486.634 49.5068 489.179 49.0699C489.849 48.9625 490.519 48.8659 491.193 48.7763C491.304 48.762 491.412 48.7441 491.526 48.7298C494.967 48.2536 498.713 48.2679 502.136 48.8515L502.139 48.8444Z" fill="#39E875"/>
<path d="M497.766 83.2841C498.128 83.2841 498.49 83.2841 498.852 83.2877H499.196C499.884 83.2913 500.368 83.3665 500.895 82.8724C501.243 82.3138 501.246 81.9021 501.146 81.2612C500.899 80.3052 500.476 79.5605 499.669 78.9805C498.092 78.1283 496.68 78.3396 495.343 79.4889C494.569 80.4234 494.483 81.2648 494.486 82.4356C494.49 82.7256 494.494 83.0156 494.49 83.3092C494.483 83.9286 494.49 84.5409 494.558 85.1567C494.856 86.0625 495.623 86.7428 496.447 87.1868C497.565 87.6236 498.956 87.62 500.067 87.1725C500.494 86.9218 500.684 86.6891 500.873 86.2344C500.784 86.2022 500.694 86.1664 500.605 86.1341C500.337 86.1127 500.128 86.1389 499.977 86.2129C499.694 86.3812 499.433 86.5208 499.124 86.639C498.081 86.75 497.128 86.7142 496.218 86.152C495.702 85.6365 495.408 85.1066 495.311 84.3762C495.3 84.2437 495.289 84.1148 495.282 83.9823C495.264 83.7496 495.246 83.5133 495.228 83.2806C495.831 83.2806 496.429 83.2877 497.031 83.2877C497.275 83.2877 497.519 83.2877 497.766 83.2877V83.2841ZM495.228 82.4678C495.221 82.2351 495.214 82.0023 495.21 81.766C495.207 81.6371 495.203 81.5047 495.2 81.3722C495.253 80.5881 495.73 80.0259 496.3 79.514C497.038 79.0378 498.074 79.0807 498.888 79.3457C499.741 79.7968 500.157 80.5093 500.468 81.3937C500.497 81.6897 500.497 81.9582 500.468 82.1993C500.289 82.3783 500.037 82.4785 499.712 82.5C499.504 82.5 499.293 82.5 499.085 82.4964C498.975 82.4964 498.864 82.4964 498.752 82.4964C498.4 82.4964 498.049 82.4929 497.694 82.4893C497.458 82.4893 497.218 82.4893 496.981 82.4857C496.397 82.4857 495.813 82.4785 495.228 82.4714V82.4678Z" fill="#101010"/>
<path d="M507.684 78.7986C508.168 79.0779 508.516 79.4431 508.806 79.9193V80.1878C508.899 80.0947 508.989 79.9981 509.082 79.9014C509.935 79.0528 510.476 78.5587 511.727 78.5337C512.691 78.5444 513.161 78.6482 513.863 79.3249C514.756 80.2881 514.914 81.1617 514.892 82.4363C514.892 82.5724 514.892 82.7084 514.892 82.8481C514.892 83.2777 514.885 83.711 514.881 84.1406C514.881 84.4342 514.878 84.7278 514.874 85.0214C514.871 85.7375 514.863 86.4536 514.856 87.1696C514.634 87.2126 514.412 87.2591 514.186 87.3021C514.186 87.2281 514.186 87.1529 514.186 87.0765C514.179 86.2924 514.172 85.5083 514.161 84.7242C514.157 84.4306 514.154 84.1406 514.154 83.847C514.154 83.4245 514.143 83.0056 514.139 82.5831C514.139 82.4542 514.139 82.3253 514.139 82.1893C514.121 81.3694 513.992 80.7356 513.519 80.0518C512.831 79.4001 512.25 79.3321 511.333 79.3428C510.645 79.4145 510.29 79.7689 509.849 80.2702C509.537 80.707 509.469 80.9361 509.462 81.466C509.462 81.5913 509.458 81.7202 509.455 81.8491C509.455 81.9852 509.452 82.1236 509.448 82.2645C509.448 82.4041 509.44 82.5437 509.44 82.687C509.433 83.1345 509.423 83.5821 509.415 84.0296C509.408 84.3339 509.405 84.6347 509.397 84.939C509.383 85.6838 509.369 86.4249 509.358 87.1696C509.136 87.2198 508.91 87.2663 508.688 87.3021C508.476 87.0909 508.537 86.8832 508.537 86.5896C508.537 86.4679 508.537 86.3426 508.537 86.2172C508.537 86.0848 508.537 85.9487 508.537 85.8127C508.537 85.5298 508.534 85.247 508.53 84.9677C508.526 84.5201 508.523 84.0762 508.523 83.6286C508.523 83.199 508.519 82.7693 508.512 82.3397C508.512 82.2072 508.512 82.0747 508.512 81.9386C508.498 81.0579 508.319 80.4635 507.749 79.7832C507.125 79.2748 506.53 79.307 505.756 79.3249C505.154 79.4037 504.795 79.6042 504.39 80.0518C503.96 80.639 503.838 81.1581 503.824 81.8742C503.824 81.9959 503.82 82.1177 503.817 82.2394C503.817 82.3683 503.813 82.4972 503.81 82.6297C503.81 82.7621 503.803 82.8946 503.803 83.0343C503.795 83.4603 503.785 83.8864 503.777 84.3089C503.77 84.5989 503.767 84.8853 503.76 85.1753C503.745 85.8807 503.731 86.5896 503.72 87.2949C503.498 87.252 503.276 87.2054 503.05 87.1625V78.7055C503.225 78.6626 503.405 78.616 503.587 78.5731C503.853 78.838 503.81 79.2927 503.856 79.6472C503.945 79.5469 504.034 79.4467 504.125 79.3464C505.193 78.2938 506.369 78.2222 507.709 78.795L507.684 78.7986Z" fill="#121212"/>
<path d="M475.071 78.4404C475.234 78.4906 475.413 78.5801 475.609 78.709C475.77 79.024 475.892 79.3176 476.01 79.647C476.046 79.7473 476.086 79.8475 476.125 79.9514C476.269 80.3416 476.408 80.7319 476.548 81.1222C476.579 81.2105 476.611 81.3 476.645 81.3907C477.154 82.8193 477.659 84.2514 478.161 85.6836C478.408 85.2038 478.602 84.7133 478.792 84.2085C478.828 84.1154 478.86 84.0223 478.896 83.9292C479.136 83.2812 479.369 82.6259 479.595 81.9743C480.001 80.8047 480.315 79.9335 480.537 79.3606C480.584 79.2389 480.634 79.1171 480.681 78.9918C480.874 78.6624 481.032 78.5729 481.383 78.4404C481.429 78.4858 481.473 78.5299 481.516 78.5729C481.455 79.2317 481.301 79.7938 481.064 80.4061C481.032 80.4884 481 80.5744 480.967 80.6603C480.899 80.8393 480.831 81.0183 480.76 81.1974C480.573 81.6771 480.39 82.1569 480.208 82.6367C480.172 82.7334 480.132 82.8336 480.097 82.9339C479.731 83.9077 479.398 84.8888 479.064 85.8734C477.987 89.0409 476.961 90.954 475.989 91.6128C475.57 91.7417 475.344 91.7309 474.932 91.5949V91.0578C475.092 91.0125 475.254 90.9683 475.419 90.9253C476.516 90.4993 476.899 89.4645 477.351 88.4513C477.394 88.3582 477.441 88.2615 477.484 88.1648C477.957 87.037 477.484 86.013 477.071 84.9246C477.032 84.8172 476.993 84.7097 476.95 84.5987C476.824 84.2586 476.695 83.922 476.57 83.5819C476.487 83.3563 476.401 83.1344 476.319 82.9088C476.279 82.7978 476.236 82.6904 476.193 82.5758C476.111 82.3574 476.032 82.139 475.95 81.9206C475.767 81.4229 475.58 80.9252 475.387 80.4311C475.322 80.2629 475.261 80.0946 475.197 79.9299C475.143 79.7867 475.086 79.6434 475.028 79.4967C474.921 79.0849 474.942 78.845 475.064 78.4404H475.071Z" fill="#0C0C0C"/>
<path d="M521.573 78.8452L521.841 79.1137C521.808 79.3047 521.764 79.4837 521.709 79.6508C521.547 79.6078 521.386 79.5613 521.221 79.5183C520.329 79.325 519.171 79.1173 518.322 79.5255C518.039 79.7582 517.841 79.9981 517.676 80.3239C517.619 80.8466 517.711 81.33 517.952 81.774C518.583 82.243 519.207 82.4507 519.952 82.6547C520.73 82.8839 521.436 83.1846 521.935 83.8434C522.279 84.5595 522.232 85.3222 522.11 86.0955C521.784 86.74 521.408 87.0837 520.727 87.3272C519.444 87.6136 518.254 87.5921 517.103 86.9262C516.945 86.8188 516.822 86.7209 516.734 86.6326C516.727 86.4106 516.727 86.185 516.734 85.963C517.272 86.0382 517.619 86.2173 518.078 86.5001C518.881 86.7543 519.856 86.7722 520.641 86.4571C520.923 86.3211 521.144 86.111 521.304 85.827C521.411 85.1646 521.418 84.649 521.028 84.0905C520.35 83.6143 519.659 83.3995 518.877 83.1524C518.11 82.9018 517.569 82.6655 517.021 82.0604C516.748 81.3479 516.73 80.6067 516.974 79.8799C517.906 78.1363 519.96 78.1721 521.573 78.8488V78.8452Z" fill="#0E0E0E"/>
<path d="M473.591 79.113L473.458 79.6501C472.942 79.5713 472.584 79.4818 472.383 79.3816C472.053 79.3601 471.731 79.3493 471.401 79.3493C471.225 79.3493 471.046 79.3422 470.863 79.3386C470.344 79.3851 470.1 79.4675 469.695 79.7861C469.415 80.2051 469.376 80.3554 469.358 80.8424C469.351 80.9569 469.344 81.0679 469.337 81.1861C469.469 81.7017 469.795 81.938 470.233 82.2029C470.605 82.3712 470.985 82.4929 471.376 82.6147C472.265 82.894 472.992 83.1875 473.645 83.8893C474.018 84.6806 473.989 85.4683 473.702 86.2882C473.236 86.947 472.749 87.2227 471.982 87.4375C470.72 87.57 469.681 87.5019 468.623 86.768L468.354 86.4994C468.388 86.3085 468.432 86.1295 468.487 85.9624C468.874 86.0447 469.15 86.1665 469.487 86.3741C470.308 86.7966 471.272 86.768 472.161 86.5603C472.501 86.4314 472.745 86.281 472.982 86.0053C473.157 85.2893 473.172 84.8238 472.813 84.1829C472.301 83.6494 471.591 83.499 470.906 83.2771C470.616 83.1696 470.329 83.0551 470.043 82.9405C469.914 82.8904 469.782 82.839 469.648 82.7865C469.111 82.5108 468.817 82.2423 468.623 81.6659C468.559 80.9283 468.523 80.2731 468.835 79.5928C470.168 78.1893 471.967 78.0282 473.598 79.113H473.591Z" fill="#0D0D0D"/>
<path d="M487.433 78.8445L487.702 79.113C487.668 79.3039 487.624 79.483 487.569 79.65C487.408 79.6071 487.246 79.5605 487.081 79.5176C486.232 79.3314 485.34 79.2598 484.479 79.3851C484.031 79.6858 483.702 79.9365 483.54 80.4592C483.469 81.0142 483.469 81.2899 483.784 81.7589C484.375 82.1886 484.999 82.3783 485.691 82.6075C486.869 83.0323 487.621 83.5324 487.949 84.1077C488.171 84.8166 488.261 85.4145 487.999 86.1234C487.666 86.7464 487.264 87.1045 486.601 87.3551C485.44 87.6129 484.196 87.595 483.135 87.0364C482.911 86.8622 482.731 86.6832 482.598 86.4994V85.9623C483.049 86.0196 483.357 86.1449 483.741 86.3741C484.49 86.7643 485.271 86.7214 486.092 86.6354C486.655 86.4421 487.031 86.2344 487.3 85.6974C487.368 85.1639 487.332 84.8345 487.124 84.3368C486.447 83.6136 485.522 83.3343 484.58 83.0872C483.788 82.8653 483.225 82.4535 482.809 81.7446C482.623 80.9032 482.712 80.273 483.135 79.5212C484.35 78.2143 485.838 78.1785 487.436 78.8516L487.433 78.8445Z" fill="#0C0C0C"/>
<path d="M489.989 74.4121H490.659V78.5726H493.347L493.48 79.1096C493.391 79.1979 493.259 79.2481 493.082 79.26C492.969 79.26 492.856 79.26 492.741 79.26C492.619 79.26 492.501 79.26 492.376 79.26C492.249 79.26 492.121 79.26 491.992 79.26C491.863 79.26 491.738 79.26 491.605 79.26C491.29 79.26 490.974 79.2564 490.655 79.2528C490.662 80.1587 490.67 81.0645 490.684 81.9704C490.687 82.2783 490.691 82.5862 490.691 82.8941C490.691 83.3381 490.702 83.7785 490.705 84.2225C490.705 84.3585 490.705 84.4981 490.705 84.6378C490.716 85.2286 490.731 85.5973 491.032 86.1165C491.437 86.4638 491.756 86.471 492.283 86.5103C492.619 86.5366 492.928 86.5784 493.207 86.6357C493.336 86.8195 493.426 86.9985 493.476 87.1727C493.239 87.409 492.906 87.3374 492.587 87.341C491.791 87.3303 491.189 87.2873 490.587 86.7144C489.992 86.0341 489.963 85.4792 489.967 84.6163C489.967 84.5053 489.967 84.3979 489.967 84.2833C489.967 83.9181 489.967 83.5565 489.967 83.1913C489.967 82.9407 489.967 82.6865 489.967 82.4358C489.967 81.7734 489.967 81.1075 489.967 80.4451C489.967 79.7684 489.967 79.0881 489.967 78.4114C489.967 77.0831 489.971 75.7512 489.974 74.4229L489.989 74.4121Z" fill="#0C0C0C"/>
<path d="M413.371 0.000345691L381.397 87.4443L382.744 87.9357L414.717 0.491702L413.371 0.000345691Z" fill="black"/>
</svg>
