<svg width="237" height="77" viewBox="0 0 237 77" fill="none" xmlns="http://www.w3.org/2000/svg">
<path d="M214.95 37.4204L119.797 0.477838C117.859 -0.159279 115.768 -0.159279 113.827 0.477838L111.529 1.36504L203.488 37.071C204.324 37.3313 204.789 38.2184 204.529 39.0542C204.375 39.5509 203.985 39.9414 203.488 40.0955L111.923 75.4726L114.306 76.4009C116.244 77.0414 118.332 77.0414 120.27 76.4009L214.943 39.8283C215.666 39.5509 216.077 39.1159 216.077 38.6329C216.077 38.1499 215.662 37.7081 214.943 37.4204H214.95Z" fill="#FFEE00"/>
<path d="M235.31 37.516L140.759 0.813287C138.821 0.17617 136.73 0.17617 134.788 0.813287L132.491 1.70391L223.851 37.1666C224.686 37.4269 225.152 38.3141 224.892 39.1499C224.738 39.6466 224.348 40.0371 223.851 40.1912L133.433 75.1402L135.816 76.0718C137.753 76.709 139.842 76.709 141.779 76.0718L235.306 39.9206C236.029 39.6431 236.439 39.2047 236.439 38.7217C236.439 38.2387 236.025 37.7968 235.306 37.5091V37.516H235.31Z" fill="#FFEE00"/>
<path d="M83.3543 42.6815V42.6987C82.2793 43.8222 80.7627 44.4285 79.2084 44.3566C77.6439 44.4388 76.1273 43.8325 75.0557 42.6918C72.9879 40.2153 72.9879 36.6187 75.0557 34.1421C77.3803 31.9225 81.04 31.9259 83.3611 34.1524C84.419 35.3136 84.977 36.8482 84.9154 38.417C84.9667 39.9858 84.4053 41.5169 83.3543 42.6815Z" fill="#161616"/>
<path d="M194.598 37.4513L100.906 0.919838C98.8933 0.292997 96.7399 0.292997 94.7269 0.919838L1.09042 37.1738C-0.354302 37.7321 -0.36801 38.8625 1.07671 39.4208L94.7577 75.9421C95.7471 76.288 96.7878 76.4455 97.8354 76.4181C97.9313 76.4216 98.0271 76.4216 98.1196 76.4216C99.0782 76.4216 100.03 76.2606 100.937 75.9489L194.574 39.6983C196.018 39.14 196.042 38.0062 194.598 37.4513ZM58.3281 49.3784C55.3565 49.4743 52.467 48.4056 50.2691 46.4018C48.1363 44.2952 46.9791 41.387 47.0818 38.3898C47.0031 35.3858 48.1603 32.4845 50.2828 30.3642C52.4842 28.3638 55.3805 27.3053 58.3487 27.4115C61.2586 27.2471 64.0522 28.5693 65.7708 30.9225L61.6318 34.2965C60.7793 33.1011 59.3894 32.4125 57.9241 32.4605C56.4931 32.4708 55.134 33.0599 54.1514 34.1012C53.1415 35.3001 52.5937 36.821 52.6211 38.3932C52.5664 39.9586 53.1038 41.4898 54.1343 42.6749C55.0313 43.7471 56.3665 44.3568 57.7667 44.3363C59.4408 44.3774 60.9916 43.4628 61.7687 41.983L66.2262 45.3227C64.487 47.9705 61.4914 49.5085 58.3281 49.3784ZM87.2602 46.4394C82.6145 50.3957 75.788 50.3922 71.1491 46.4291C69.0129 44.3191 67.8557 41.411 67.9618 38.4069C67.842 35.4029 69.006 32.488 71.1628 30.3951C75.8085 26.4388 82.6385 26.4456 87.2739 30.4087V30.4156C89.4068 32.5256 90.5639 35.4269 90.4646 38.4309C90.5502 41.4281 89.3896 44.3294 87.2602 46.4394ZM107.743 48.9159H94.21V27.9596H99.5986L99.6088 43.8772H107.743V48.9159ZM126.127 48.9331L125.217 46.7237H118.729L120.54 42.0276H123.341L120.8 35.6222L115.627 48.9296H109.722L118.791 27.9802H123.074L132.163 48.9331H126.127ZM141.252 35.8379C142.824 36.2044 144.34 36.7696 145.768 37.5232C147.538 38.4789 148.565 40.3936 148.39 42.394C148.473 44.4766 147.552 46.4668 145.912 47.7479C144.258 48.9502 142.242 49.5531 140.198 49.4537C138.918 49.4435 137.644 49.2311 136.429 48.8269C135.059 48.3233 133.823 47.5218 132.803 46.4805L136.665 42.2433C137.23 43.1545 138.096 43.8395 139.109 44.1923C140.879 44.7815 143.022 44.1479 143.022 42.812C143.022 41.6268 141.571 41.1849 140.913 40.9622C139.332 40.5204 137.795 39.9278 136.323 39.1982C134.614 38.2494 133.584 36.4134 133.659 34.4575C133.649 31.3575 135.768 28.6515 138.777 27.9185C140.876 27.3156 143.105 27.3396 145.189 27.9905C146.46 28.4015 147.62 29.1003 148.575 30.032L144.84 34.1218C144.162 33.0463 142.944 32.4366 141.68 32.5359C139.654 32.5359 139.209 33.5874 139.209 34.0978C139.209 34.9542 139.777 35.3686 141.252 35.8379Z" fill="#161616"/>
<path d="M214.95 37.4204L119.797 0.477838C117.859 -0.159279 115.768 -0.159279 113.827 0.477838L111.529 1.36504L203.488 37.071C204.324 37.3313 204.789 38.2184 204.529 39.0542C204.375 39.5509 203.985 39.9414 203.488 40.0955L111.923 75.4726L114.306 76.4009C116.244 77.0414 118.332 77.0414 120.27 76.4009L214.943 39.8283C215.666 39.5509 216.077 39.1159 216.077 38.6329C216.077 38.1499 215.662 37.7081 214.943 37.4204H214.95Z" fill="#FFEE00"/>
<path d="M235.31 37.516L140.759 0.813287C138.821 0.17617 136.73 0.17617 134.788 0.813287L132.491 1.70391L223.851 37.1666C224.686 37.4269 225.152 38.3141 224.892 39.1499C224.738 39.6466 224.348 40.0371 223.851 40.1912L133.433 75.1402L135.816 76.0718C137.753 76.709 139.842 76.709 141.779 76.0718L235.306 39.9206C236.029 39.6431 236.439 39.2047 236.439 38.7217C236.439 38.2387 236.025 37.7968 235.306 37.5091V37.516H235.31Z" fill="#FFEE00"/>
<path d="M83.3543 42.6815V42.6987C82.2793 43.8222 80.7627 44.4285 79.2084 44.3566C77.6439 44.4388 76.1273 43.8325 75.0557 42.6918C72.9879 40.2153 72.9879 36.6187 75.0557 34.1421C77.3803 31.9225 81.04 31.9259 83.3611 34.1524C84.419 35.3136 84.977 36.8482 84.9154 38.417C84.9667 39.9858 84.4053 41.5169 83.3543 42.6815Z" fill="#FFEE00"/>
<path d="M194.598 37.4513L100.906 0.919838C98.8933 0.292997 96.7399 0.292997 94.7269 0.919838L1.09042 37.1738C-0.354302 37.7321 -0.36801 38.8625 1.07671 39.4208L94.7577 75.9421C95.7471 76.288 96.7878 76.4455 97.8354 76.4181C97.9313 76.4216 98.0271 76.4216 98.1196 76.4216C99.0782 76.4216 100.03 76.2606 100.937 75.9489L194.574 39.6983C196.018 39.14 196.042 38.0062 194.598 37.4513ZM58.3281 49.3784C55.3565 49.4743 52.467 48.4056 50.2691 46.4018C48.1363 44.2952 46.9791 41.387 47.0818 38.3898C47.0031 35.3858 48.1603 32.4845 50.2828 30.3642C52.4842 28.3638 55.3805 27.3053 58.3487 27.4115C61.2586 27.2471 64.0522 28.5693 65.7708 30.9225L61.6318 34.2965C60.7793 33.1011 59.3894 32.4125 57.9241 32.4605C56.4931 32.4708 55.134 33.0599 54.1514 34.1012C53.1415 35.3001 52.5937 36.821 52.6211 38.3932C52.5664 39.9586 53.1038 41.4898 54.1343 42.6749C55.0313 43.7471 56.3665 44.3568 57.7667 44.3363C59.4408 44.3774 60.9916 43.4628 61.7687 41.983L66.2262 45.3227C64.487 47.9705 61.4914 49.5085 58.3281 49.3784ZM87.2602 46.4394C82.6145 50.3957 75.788 50.3922 71.1491 46.4291C69.0129 44.3191 67.8557 41.411 67.9618 38.4069C67.842 35.4029 69.006 32.488 71.1628 30.3951C75.8085 26.4388 82.6385 26.4456 87.2739 30.4087V30.4156C89.4068 32.5256 90.5639 35.4269 90.4646 38.4309C90.5502 41.4281 89.3896 44.3294 87.2602 46.4394ZM107.743 48.9159H94.21V27.9596H99.5986L99.6088 43.8772H107.743V48.9159ZM126.127 48.9331L125.217 46.7237H118.729L120.54 42.0276H123.341L120.8 35.6222L115.627 48.9296H109.722L118.791 27.9802H123.074L132.163 48.9331H126.127ZM141.252 35.8379C142.824 36.2044 144.34 36.7696 145.768 37.5232C147.538 38.4789 148.565 40.3936 148.39 42.394C148.473 44.4766 147.552 46.4668 145.912 47.7479C144.258 48.9502 142.242 49.5531 140.198 49.4537C138.918 49.4435 137.644 49.2311 136.429 48.8269C135.059 48.3233 133.823 47.5218 132.803 46.4805L136.665 42.2433C137.23 43.1545 138.096 43.8395 139.109 44.1923C140.879 44.7815 143.022 44.1479 143.022 42.812C143.022 41.6268 141.571 41.1849 140.913 40.9622C139.332 40.5204 137.795 39.9278 136.323 39.1982C134.614 38.2494 133.584 36.4134 133.659 34.4575C133.649 31.3575 135.768 28.6515 138.777 27.9185C140.876 27.3156 143.105 27.3396 145.189 27.9905C146.46 28.4015 147.62 29.1003 148.575 30.032L144.84 34.1218C144.162 33.0463 142.944 32.4366 141.68 32.5359C139.654 32.5359 139.209 33.5874 139.209 34.0978C139.209 34.9542 139.777 35.3686 141.252 35.8379Z" fill="#FFEE00"/>
<path d="M148.39 42.3938C148.472 44.4764 147.551 46.4666 145.911 47.7477C144.258 48.95 142.241 49.5528 140.197 49.4535C138.917 49.4432 137.644 49.2308 136.428 48.8266C135.059 48.3231 133.823 47.5216 132.803 46.4803L136.664 42.2431C137.229 43.1542 138.095 43.8393 139.109 44.1921C140.879 44.7813 143.022 44.1476 143.022 42.8118C143.022 41.6266 141.57 41.1847 140.913 40.962C139.331 40.5201 137.794 39.9276 136.322 39.198C134.614 38.2492 133.583 36.4131 133.659 34.4573C133.648 31.3573 135.767 28.6512 138.777 27.9182C140.875 27.3154 143.104 27.3394 145.189 27.9902C146.459 28.4013 147.62 29.1 148.575 30.0317L144.84 34.1216C144.162 33.046 142.943 32.4363 141.68 32.5357C139.653 32.5357 139.208 33.5872 139.208 34.0976C139.208 34.9539 139.776 35.3684 141.252 35.8377C142.823 36.2042 144.34 36.7694 145.768 37.5229C147.537 38.4786 148.565 40.3934 148.39 42.3938Z" fill="black"/>
<path d="M132.163 48.9329H126.127L125.216 46.7235H118.729L120.54 42.0274H123.34L120.8 35.622L115.627 48.9294H109.722L118.791 27.98H123.073L132.163 48.9329Z" fill="black"/>
<path d="M107.743 43.8771V48.9158H94.21V27.9595H99.5986L99.6088 43.8771H107.743Z" fill="black"/>
<path d="M87.2736 30.4156V30.4087C82.6382 26.4456 75.8083 26.4388 71.1626 30.3951C69.0057 32.488 67.8417 35.4029 67.9615 38.407C67.8554 41.411 69.0126 44.3191 71.1489 46.4291C75.7877 50.3923 82.6142 50.3957 87.2599 46.4394C89.3893 44.3294 90.5499 41.4282 90.4643 38.431C90.5636 35.4269 89.4065 32.5256 87.2736 30.4156ZM83.3572 42.699C82.2787 43.8225 80.7621 44.4288 79.2078 44.3569C77.6433 44.4391 76.1267 43.8328 75.0551 42.6921C72.9873 40.2156 72.9873 36.619 75.0551 34.1424C77.3797 31.9228 81.0394 31.9262 83.3605 34.1527C84.4184 35.3139 84.9764 36.8485 84.9148 38.4173C84.9661 39.9861 84.4047 41.5172 83.3537 42.6818V42.699H83.3572Z" fill="black"/>
<path d="M66.2258 45.3224C64.4867 47.9702 61.4911 49.5082 58.3278 49.378C55.3562 49.474 52.4667 48.4053 50.2688 46.4014C48.136 44.2948 46.9788 41.3867 47.0815 38.3895C47.0028 35.3854 48.1599 32.4842 50.2825 30.3639C52.4838 28.3635 55.3801 27.305 58.3483 27.4112C61.2583 27.2468 64.0519 28.5689 65.7705 30.9222L61.6314 34.2962C60.779 33.1007 59.3891 32.4122 57.9238 32.4602C56.4928 32.4704 55.1336 33.0596 54.1511 34.1009C53.1412 35.2998 52.5934 36.8207 52.6208 38.3929C52.566 39.9583 53.1035 41.4894 54.134 42.6746C55.0309 43.7467 56.3661 44.3565 57.7663 44.3359C59.4404 44.377 60.9913 43.4624 61.7684 41.9827L66.2258 45.3224Z" fill="black"/>
</svg>
