<svg width="277" height="65" viewBox="0 0 277 65" fill="none" xmlns="http://www.w3.org/2000/svg">
<g clip-path="url(#clip0_89_1029)">
<path d="M57.8015 47.8771C58.5922 47.8771 59.2327 48.5162 59.2327 49.3053C59.2327 50.0944 58.5922 50.7335 57.8015 50.7335H41.8804C40.2753 50.7335 38.8124 50.0786 37.7568 49.0252C36.7012 47.9718 36.0449 46.512 36.0449 44.9102V39.9982C36.0449 38.3964 36.7012 36.9366 37.7568 35.8831C38.8124 34.8297 40.2753 34.1748 41.8804 34.1748H57.8015C58.5922 34.1748 59.2327 34.814 59.2327 35.603C59.2327 36.3921 58.5922 37.0313 57.8015 37.0313H41.8804C41.066 37.0313 40.3227 37.3666 39.7811 37.9032C39.2434 38.4398 38.9073 39.1815 38.9073 39.9982V44.9102C38.9073 45.7229 39.2434 46.4646 39.7811 47.0052C40.3187 47.5417 41.062 47.8771 41.8804 47.8771H57.8015Z" fill="black"/>
<path d="M95.7164 34.1709H106.976C108.581 34.1709 110.044 34.8258 111.1 35.8792C112.155 36.9327 112.812 38.3924 112.812 39.9943V44.9063C112.812 46.5081 112.155 47.9679 111.1 49.0213C110.044 50.0747 108.581 50.7296 106.976 50.7296H95.7164C94.1112 50.7296 92.6484 50.0747 91.5928 49.0213C90.5372 47.9679 89.8809 46.5081 89.8809 44.9063V39.9943C89.8809 38.3924 90.5372 36.9327 91.5928 35.8792C92.6484 34.8258 94.1112 34.1709 95.7164 34.1709ZM106.976 37.0313H95.7164C94.898 37.0313 94.1547 37.3666 93.617 37.9032C93.0793 38.4398 92.7433 39.1815 92.7433 39.9982V44.9102C92.7433 45.7229 93.0793 46.4647 93.617 47.0052C94.1547 47.5418 94.898 47.8771 95.7164 47.8771H106.976C107.791 47.8771 108.534 47.5418 109.076 47.0052C109.613 46.4686 109.949 45.7269 109.949 44.9102V39.9982C109.949 39.1855 109.613 38.4398 109.076 37.9032C108.538 37.3666 107.791 37.0313 106.976 37.0313Z" fill="black"/>
<path d="M137.268 34.1709C138.059 34.1709 138.7 34.81 138.7 35.5991C138.7 36.3882 138.059 37.0273 137.268 37.0273H120.023C119.691 37.0273 119.386 37.1615 119.169 37.3785H119.165C118.948 37.6034 118.813 37.9032 118.813 38.2386V39.722C118.813 40.0534 118.948 40.3572 119.169 40.5782C119.39 40.7952 119.691 40.9333 120.023 40.9333H134.631C135.754 40.9333 136.774 41.3909 137.51 42.1287C137.541 42.1603 137.569 42.1918 137.597 42.2234C138.285 42.9533 138.704 43.9317 138.704 45.0009V46.4844C138.704 47.6009 138.245 48.6149 137.51 49.3487H137.506C136.77 50.0865 135.754 50.5402 134.631 50.5442L117.168 50.5836C116.382 50.5836 115.741 49.9445 115.741 49.1594C115.741 48.3742 116.382 47.7351 117.168 47.7351L134.631 47.6956C134.96 47.6956 135.264 47.5575 135.489 47.3366C135.707 47.1157 135.841 46.8158 135.841 46.4844V45.0009C135.841 44.6932 135.727 44.4091 135.533 44.1961L135.481 44.1487C135.26 43.9278 134.96 43.7937 134.627 43.7937H120.019C118.896 43.7937 117.876 43.336 117.141 42.5982V42.5943C116.401 41.8565 115.947 40.8425 115.947 39.726V38.2425C115.947 37.126 116.405 36.112 117.145 35.3742H117.149C117.888 34.6325 118.904 34.1748 120.023 34.1748H137.268V34.1709Z" fill="black"/>
<path d="M163.204 34.1709C163.995 34.1709 164.635 34.81 164.635 35.5991C164.635 36.3882 163.995 37.0273 163.204 37.0273H145.958C145.626 37.0273 145.326 37.1615 145.105 37.3785H145.101C144.883 37.6034 144.749 37.9032 144.749 38.2386V39.722C144.749 40.0534 144.883 40.3572 145.105 40.5782C145.326 40.7952 145.626 40.9333 145.958 40.9333H160.567C161.69 40.9333 162.71 41.3909 163.445 42.1287C163.477 42.1603 163.504 42.1918 163.532 42.2234C164.22 42.9533 164.639 43.9317 164.639 45.0009V46.4844C164.639 47.6009 164.181 48.6149 163.445 49.3487H163.441C162.706 50.0865 161.69 50.5402 160.567 50.5442L143.104 50.5836C142.317 50.5836 141.677 49.9445 141.677 49.1594C141.677 48.3742 142.313 47.7351 143.104 47.7351L160.567 47.6956C160.895 47.6956 161.2 47.5575 161.425 47.3366C161.642 47.1157 161.777 46.8158 161.777 46.4844V45.0009C161.777 44.6932 161.662 44.4091 161.468 44.1961L161.417 44.1487C161.196 43.9278 160.895 43.7937 160.563 43.7937H145.955C144.832 43.7937 143.816 43.336 143.076 42.5982V42.5943C142.337 41.8565 141.878 40.8425 141.878 39.726V38.2425C141.878 37.126 142.337 36.112 143.076 35.3742H143.08C143.82 34.6325 144.836 34.1748 145.955 34.1748H163.2L163.204 34.1709Z" fill="black"/>
<path d="M85.809 48.173C86.4812 48.5872 86.6907 49.4671 86.2795 50.1378C85.8644 50.8085 84.9827 51.0176 84.3106 50.6073L73.2129 43.7936H66.0807V49.5815C66.0807 50.3706 65.4402 51.0097 64.6495 51.0097C63.8587 51.0097 63.2183 50.3706 63.2183 49.5815V35.824C63.2183 35.3742 63.4041 34.9639 63.7006 34.664H63.7046C64.005 34.3602 64.4162 34.1748 64.8669 34.1748H82.2192C83.342 34.1748 84.362 34.6325 85.0974 35.3703C85.8367 36.108 86.2953 37.1259 86.2953 38.2425V39.7259C86.2953 40.8385 85.8367 41.8525 85.0974 42.5942V42.5982C84.3581 43.336 83.3381 43.7936 82.2231 43.7936H78.6768L85.813 48.1769L85.809 48.173ZM82.2192 37.0313H66.0767V40.9332H82.2192C82.5553 40.9332 82.8557 40.7991 83.0732 40.5821H83.0771C83.2946 40.3611 83.429 40.0574 83.429 39.7259V38.2425C83.429 37.9111 83.2906 37.6112 83.0732 37.3903C82.8518 37.1693 82.5513 37.0352 82.2192 37.0352V37.0313Z" fill="black"/>
<path d="M167.557 36.5024C167.086 35.8711 167.221 34.9795 167.853 34.51C168.486 34.0405 169.38 34.1746 169.85 34.8059L178.9 46.9537L187.95 34.8098C188.42 34.1786 189.314 34.0444 189.946 34.5139C190.579 34.9834 190.713 35.8751 190.243 36.5063L180.058 50.1731C179.975 50.2915 179.872 50.394 179.75 50.4848C179.117 50.9543 178.224 50.8201 177.753 50.1889L167.557 36.5024Z" fill="black"/>
<path d="M193.655 41.1225H198.245L195.948 38.0411L193.655 41.1225ZM200.376 43.9789H191.527L186.902 50.185C186.431 50.8162 185.538 50.9504 184.905 50.4809C184.273 50.0114 184.138 49.1197 184.609 48.4885L194.805 34.802C195.275 34.1707 196.169 34.0366 196.802 34.5061C196.924 34.5968 197.027 34.7033 197.11 34.8178L207.294 48.4845C207.765 49.1158 207.63 50.0074 206.998 50.4769C206.365 50.9464 205.472 50.8123 205.001 50.181L200.376 43.975V43.9789Z" fill="black"/>
<path d="M209.517 35.4175C209.517 34.6284 210.157 33.9893 210.948 33.9893C211.739 33.9893 212.379 34.6284 212.379 35.4175V47.6955H224.888V45.4111C224.888 44.622 225.529 43.9829 226.319 43.9829C227.11 43.9829 227.751 44.622 227.751 45.4111V49.1237C227.751 49.9128 227.11 50.5519 226.319 50.5519H210.948C210.157 50.5519 209.517 49.9128 209.517 49.1237V35.4175Z" fill="black"/>
<path d="M229.696 35.4175C229.696 34.6284 230.336 33.9893 231.127 33.9893C231.918 33.9893 232.558 34.6284 232.558 35.4175V47.6955H245.067V45.4111C245.067 44.622 245.708 43.9829 246.499 43.9829C247.289 43.9829 247.93 44.622 247.93 45.4111V49.1237C247.93 49.9128 247.289 50.5519 246.499 50.5519H231.127C230.336 50.5519 229.696 49.9128 229.696 49.1237V35.4175Z" fill="black"/>
<path d="M249.29 35.4175C249.29 34.6284 249.93 33.9893 250.721 33.9893C251.511 33.9893 252.152 34.6284 252.152 35.4175V49.3841C252.152 50.1732 251.511 50.8123 250.721 50.8123C249.93 50.8123 249.29 50.1732 249.29 49.3841V35.4175Z" fill="black"/>
<path d="M256.327 50.1889C255.857 50.8201 254.963 50.9543 254.331 50.4848C253.698 50.0153 253.564 49.1236 254.034 48.4924L264.23 34.8059C264.701 34.1746 265.594 34.0405 266.227 34.51C266.349 34.6007 266.452 34.7072 266.535 34.8217L276.72 48.4884C277.19 49.1197 277.056 50.0113 276.423 50.4808C275.791 50.9503 274.897 50.8162 274.427 50.1849L269.801 43.9789H260.953L256.327 50.1849V50.1889ZM267.67 41.1224L265.373 38.0411L263.08 41.1224H267.67Z" fill="black"/>
<path fill-rule="evenodd" clip-rule="evenodd" d="M2.25767 60.9674C-1.32823 54.1616 -0.68775 43.2053 4.48354 34.2651C7.42105 29.1874 11.7146 24.6305 17.7794 22.1686C6.51568 19.395 5.22681 0.575589 22.1126 0.0153465C22.4368 0.00351041 22.7728 -0.0122711 22.9824 0.0153465C24.1447 0.161325 23.6584 0.812312 23.0733 0.832038C22.8598 0.832038 22.5396 0.855711 22.2944 0.887274C11.6593 2.1853 11.8333 12.5932 15.7987 16.0257C17.7755 17.734 20.4916 19.032 23.267 19.1228C26.1927 19.2175 28.5016 16.2506 31.6882 18.093C30.4586 19.3437 29.9644 19.9197 28.8811 20.7246C33.9891 20.8903 38.6069 21.3795 45.2845 22.6105C39.2909 23.6757 38.0732 23.0287 27.2799 24.741C21.2942 25.6918 15.9173 32.5292 15.2057 40.6882C14.6324 47.2454 15.7196 56.7616 23.3026 60.7267C14.8854 60.0679 7.23128 50.2912 10.7381 37.1137C7.19965 40.7474 1.92557 45.7264 2.26162 60.9713L2.25767 60.9674Z" fill="black"/>
<path fill-rule="evenodd" clip-rule="evenodd" d="M21.2861 64.9992C23.765 60.0714 27.4102 59.231 31.1108 59.1916C34.3765 59.1561 37.48 58.3867 39.7375 56.0234C34.6018 68.0726 32.3562 62.3439 21.2901 64.9992H21.2861Z" fill="#D91111"/>
<path fill-rule="evenodd" clip-rule="evenodd" d="M26.24 5.16053C25.0064 5.57085 24.4213 6.80575 24.9155 7.97753C25.3741 9.05461 27.0465 10.0173 28.0072 9.13352C30.3082 7.0188 31.2531 5.28284 31.6524 4.65947C32.0478 4.0361 31.684 3.61 30.7984 3.71653C29.9128 3.82305 27.6316 4.70287 26.24 5.16053Z" fill="black"/>
</g>
<defs>
<clipPath id="clip0_89_1029">
<rect width="277" height="65" fill="white"/>
</clipPath>
</defs>
</svg>
