<svg width="172" height="47" viewBox="0 0 172 47" fill="none" xmlns="http://www.w3.org/2000/svg">
<path d="M79.4726 38.0131C76.4834 46.5488 67.0067 47.8306 58.8061 46.1657C54.5588 45.3028 51.5589 42.1878 50.7023 37.8519C49.5123 31.8297 49.8528 25.4959 51.5231 19.5775C52.9388 14.5613 56.6233 10.9021 61.6197 9.78142C70.4297 7.80503 80.0282 9.80654 81.4152 19.4092C82.3113 25.5998 81.5443 32.091 79.469 38.0166L79.4726 38.0131ZM70.5443 34.447C71.6375 30.1075 72.0749 25.5711 71.5946 21.2997C71.2899 18.5929 69.4978 17.1177 66.9208 17.0784C64.2935 17.039 62.1466 18.4067 61.4082 21.1027C60.2075 25.4816 59.781 30.2077 60.0857 34.7297C60.2613 37.3399 62.0785 38.6933 64.4727 38.7828C67.3903 38.8938 69.7594 37.5798 70.5479 34.4434L70.5443 34.447Z" fill="#252122"/>
<path d="M14.161 38.2134C17.1717 38.2993 19.634 37.7407 22.5336 37.2144L21.8563 45.7465C13.2399 47.73 2.36894 48.149 0.659275 38.4747C-0.502006 31.9118 -0.143561 24.9694 1.84925 18.6142C4.98901 8.59256 15.1072 7.85854 24.8957 9.98531L24.2146 18.7037C18.7487 17.472 13.3043 16.183 11.6735 21.1239C10.2613 25.4025 9.72731 29.9962 10.2649 34.461C10.5158 36.5341 11.9424 38.1919 14.1574 38.2169L14.161 38.2134Z" fill="#252122"/>
<path d="M37.236 46.051L27.4297 46.1262L30.5587 9.66675L38.5621 9.6525C38.7127 11.0918 38.512 12.3593 39.1608 13.8667C41.5443 9.84585 45.6696 8.12006 50.2323 9.36605L49.347 19.5201C45.6804 18.2275 42.3614 19.3948 40.5909 22.5097C39.5801 24.2856 38.9886 26.2083 38.727 28.3136L37.236 46.051Z" fill="#252122"/>
<path d="M159.941 46.1481L161.937 22.0518C162.048 20.7271 161.93 19.0085 160.873 18.21C158.916 16.7349 156.217 17.5692 154.69 19.3057C153.227 20.9706 152.421 22.9362 152.156 25.1847L150.342 46.1158H140.554L144.536 0.0250874L154.306 0L153.299 12.1592C156.529 9.43089 160.285 8.65388 164.356 9.14082C171.267 9.96431 172.213 16.0116 171.715 22.7357L169.718 46.1516H159.941V46.1481Z" fill="#252122"/>
<path d="M118.597 35.4749C119.647 40.1402 127.436 38.1996 133.174 37.3797L132.5 45.6003C123.178 47.7092 110.869 48.454 109.063 37.949C107.912 31.2644 108.579 24.1537 111.002 17.802C112.658 13.4626 116.084 10.4657 120.507 9.52047C128.174 7.87705 136.532 9.83556 137.597 17.8593C137.962 20.6126 137.672 23.3981 136.604 25.9617C133.912 32.4208 125.321 32.5784 118.328 32.0378C118.235 33.2873 118.35 34.3829 118.597 35.4821V35.4749ZM126.6 23.6524C128.389 22.6892 128.722 19.431 127.267 18.092C125.041 16.044 121.557 17.247 120.414 19.7855C119.701 21.3716 119.253 22.7251 119.106 24.3291C121.683 24.5153 124.138 24.9807 126.6 23.6524Z" fill="#252122"/>
<path d="M98.8518 9.10511C98.9737 9.10511 99.1637 8.99414 99.2784 8.94043L108.673 8.96901L107.88 18.1134L98.1745 18.1385L96.7085 35.6074C96.5795 37.1541 97.3537 38.3571 98.9594 38.4287C100.716 38.5075 102.343 38.178 104.088 37.7735L103.389 46.0049C99.7228 46.6673 96.1063 47.1757 92.4971 46.5813C87.3537 45.7328 86.4111 41.1534 86.8519 35.9332L88.3645 18.0275L98.1314 17.9631L98.8482 9.10511H98.8518Z" fill="#252122"/>
<path d="M99.2783 8.94068C99.1636 8.99439 98.9736 9.10895 98.8518 9.10537L93.0561 9.05161C90.7945 9.03013 89.4361 7.18626 89.626 4.98072L90.0526 0.0433102L96.1672 0.0253906C97.246 0.0253906 98.1958 0.526698 98.7586 1.14969C100.357 2.922 98.9522 6.0298 99.2783 8.94068Z" fill="#4C8A83"/>
</svg>
