<svg width="283" height="86" viewBox="0 0 283 86" fill="none" xmlns="http://www.w3.org/2000/svg">
<path d="M104.602 75.4982H104.523C103.219 77.7144 100.962 78.6633 98.3126 78.6633C92.1435 78.6633 89.1377 73.4019 89.1377 67.7021C89.1377 62.0023 92.1846 57.0972 98.1929 57.0972C100.606 57.0972 102.979 58.1248 104.246 60.1457H104.324V49.856H109.939V78.1084H104.602V75.4982ZM99.6958 61.3309C96.0189 61.3309 94.7522 64.5336 94.7522 67.8597C94.7522 71.1857 96.2175 74.4295 99.6958 74.4295C103.373 74.4295 104.52 71.1857 104.52 67.822C104.52 64.4583 103.332 61.3343 99.6958 61.3343" fill="#006535"/>
<path d="M123.309 57.0972C129.755 57.0972 133.908 61.3686 133.908 67.9008C133.908 74.4329 129.755 78.6632 123.309 78.6632C116.862 78.6632 112.747 74.3884 112.747 67.9008C112.747 61.4131 116.9 57.0972 123.309 57.0972ZM123.309 74.4294C127.143 74.4294 128.293 71.1857 128.293 67.9008C128.293 64.6158 127.146 61.3309 123.309 61.3309C119.471 61.3309 118.365 64.6124 118.365 67.9008C118.365 71.1891 119.512 74.4294 123.309 74.4294Z" fill="#006535"/>
<path d="M136.913 57.652H142.213V60.4232H142.292C143.754 58.3268 145.849 57.1006 148.54 57.1006C151.231 57.1006 153.405 58.0117 154.51 60.5019C155.736 58.7208 157.835 57.1006 160.679 57.1006C165.031 57.1006 168.153 59.1181 168.153 64.4205V78.1117H162.539V66.5169C162.539 63.7869 162.302 61.533 159.098 61.533C155.894 61.533 155.339 64.1843 155.339 66.7156V78.1117H149.721V66.6367C149.721 64.263 149.882 61.533 146.321 61.533C145.216 61.533 142.525 62.2455 142.525 66.2428V78.1117H136.91V57.6555L136.913 57.652Z" fill="#006535"/>
<path d="M190.977 78.1087H185.636V75.2588H185.52C184.096 77.5949 181.644 78.6635 179.268 78.6635C173.298 78.6635 171.795 75.2998 171.795 70.2337V57.6489H177.413V69.2028C177.413 72.5665 178.361 74.2277 181.011 74.2277C184.054 74.2277 185.359 72.5253 185.359 68.3703V57.6455H190.977V78.1018V78.1087Z" fill="#006535"/>
<path d="M198.807 71.4631C198.807 73.878 200.943 74.9056 203.117 74.9056C204.699 74.9056 206.794 74.2719 206.794 72.2954C206.794 70.593 204.421 69.9593 200.426 69.1304C197.143 68.3768 193.939 67.3081 193.939 63.6704C193.939 58.4467 198.448 57.1006 202.84 57.1006C207.232 57.1006 211.423 58.6043 211.857 63.6293H206.517C206.359 61.4508 204.695 60.8582 202.682 60.8582C201.416 60.8582 199.557 61.0569 199.557 62.7559C199.557 64.7734 202.758 65.0508 205.924 65.8044C209.208 66.558 212.412 67.7431 212.412 71.5419C212.412 76.9265 207.705 78.6632 203.079 78.6632C198.454 78.6632 193.665 76.882 193.47 71.4631H198.81H198.807Z" fill="#006535"/>
<path d="M215.418 57.6523H218.78V60.4235H218.859C219.964 58.1696 222.535 57.1797 225.384 57.1797C231.673 57.1797 234.795 62.1636 234.795 67.9421C234.795 73.7207 231.71 78.5848 225.463 78.5848C223.405 78.5848 220.32 77.7935 218.859 75.3786H218.78V85.9458H215.418V57.6523ZM224.911 60.146C220.365 60.146 218.663 64.0612 218.663 67.8599C218.663 71.8573 220.481 75.615 225.11 75.615C229.739 75.615 231.238 71.6963 231.238 67.699C231.238 63.7016 229.263 60.1426 224.911 60.1426" fill="#231F20"/>
<path d="M241.522 49.856H238.16V78.1084H241.522V49.856Z" fill="#231F20"/>
<path d="M262.087 78.1087H258.921V74.8648H258.842C257.418 77.3961 255.165 78.5847 252.197 78.5847C246.819 78.5847 245.158 75.4985 245.158 71.1072V57.6523H248.52V71.5011C248.52 74.0359 250.102 75.6184 252.673 75.6184C256.747 75.6184 258.726 72.8883 258.726 69.2095V57.6558H262.087V78.112V78.1087Z" fill="#231F20"/>
<path d="M268.414 71.6587C268.534 74.6662 271.184 75.615 273.912 75.615C276.007 75.615 278.856 75.1388 278.856 72.5698C278.856 67.305 265.487 70.8674 265.487 62.9925C265.487 58.8752 269.523 57.1763 273.121 57.1763C277.709 57.1763 281.191 58.6012 281.506 63.5851H278.144C277.945 60.975 275.573 60.1426 273.395 60.1426C271.379 60.1426 269.044 60.6975 269.044 62.7528C269.044 65.1265 272.601 65.6026 275.727 66.3151C279.089 67.0653 282.413 68.2162 282.413 72.1314C282.413 77.0365 277.866 78.5813 273.71 78.5813C269.126 78.5813 265.247 76.7214 265.049 71.6553H268.411L268.414 71.6587Z" fill="#231F20"/>
<path d="M47.4166 30.5371L23.1191 54.8477L28.0188 59.75L52.3163 35.4394L47.4166 30.5371Z" fill="#231F20"/>
<path d="M57.1785 40.1317L32.8955 64.4277L37.7976 69.3325L62.0806 45.0364L57.1785 40.1317Z" fill="#231F20"/>
<path d="M75.5946 37.7954L48.1517 10.3377L43.2937 15.1983L43.2971 15.2051L13.4441 45.0742L18.3021 49.9349L48.1551 20.0657L68.7236 40.6418V79.0367H6.87101V40.6418L42.633 4.86056L37.7751 0L0 37.7954L0.0376954 37.8331H0V85.9114H75.5946V37.8331H75.5569L75.5946 37.7954Z" fill="#006535"/>
</svg>
