<svg width="241" height="67" viewBox="0 0 241 67" fill="none" xmlns="http://www.w3.org/2000/svg">
<g clip-path="url(#clip0_89_771)">
<path d="M114.577 39.895C114.032 40.79 113.487 41.6851 112.948 42.5801C112.628 43.1069 112.32 43.6338 112 44.1543C111.724 44.5987 111.108 44.5987 110.833 44.1543C110.019 42.8403 109.205 41.52 108.397 40.1997C108.358 40.1299 108.307 40.0664 108.262 40.0029C108.102 40.0727 108.172 40.1997 108.172 40.2949C108.172 41.8755 108.172 43.4497 108.172 45.0303C108.172 45.4556 108.172 45.4556 107.756 45.4556C107.429 45.4556 107.102 45.4556 106.781 45.4556C106.602 45.4556 106.506 45.3985 106.518 45.208C106.525 45.1128 106.518 45.0176 106.518 44.916C106.518 42.3389 106.518 39.7617 106.518 37.1845C106.518 37.1211 106.518 37.0576 106.518 36.9941C106.525 36.645 106.525 36.6386 106.865 36.6323C107.204 36.6323 107.576 36.5625 107.884 36.664C108.211 36.7719 108.281 37.1845 108.454 37.4702C109.384 38.9809 110.301 40.5044 111.217 42.0215C111.282 42.1294 111.358 42.2373 111.448 42.3706C111.782 41.9834 111.987 41.5454 112.237 41.1328C113.077 39.7363 113.903 38.3335 114.724 36.9306C114.859 36.7021 115.006 36.6069 115.269 36.6259C115.525 36.645 115.788 36.6386 116.051 36.6259C116.243 36.6196 116.314 36.7085 116.301 36.8862C116.301 36.9687 116.301 37.0449 116.301 37.1274C116.301 39.7363 116.301 42.3452 116.301 44.9541C116.301 45.0366 116.301 45.1128 116.301 45.1953C116.314 45.3794 116.237 45.4556 116.051 45.4556C115.711 45.4493 115.365 45.4429 115.025 45.4556C114.782 45.4683 114.711 45.3413 114.711 45.1382C114.711 45.024 114.711 44.9097 114.711 44.8018C114.711 43.3355 114.711 41.8691 114.711 40.4028V39.9331C114.679 39.9204 114.647 39.9141 114.615 39.9014L114.577 39.895Z" fill="#00AEFF"/>
<path d="M96.1719 39.9078C96.0886 40.1363 96.1142 40.295 96.1142 40.4473C96.1142 41.9454 96.1142 43.4434 96.1142 44.9415C96.1142 45.4874 96.1719 45.4493 95.5822 45.4556C95.3065 45.4556 95.0308 45.4556 94.7488 45.4556C94.5693 45.4556 94.4667 45.3985 94.4859 45.2081C94.4924 45.1129 94.4859 45.0177 94.4859 44.9161C94.4859 42.3389 94.4859 39.7618 94.4859 37.1846C94.4859 37.1211 94.4859 37.0576 94.4859 36.9942C94.4924 36.645 94.4988 36.6323 94.8321 36.6323C95.1911 36.6323 95.595 36.5181 95.8899 36.6831C96.1655 36.8418 96.2681 37.229 96.4412 37.521C97.3707 39.0508 98.3002 40.5806 99.2298 42.1104C99.2811 42.1929 99.3388 42.2691 99.4093 42.3707C99.7555 41.92 99.9991 41.4312 100.281 40.9615C101.095 39.6094 101.903 38.251 102.698 36.8799C102.813 36.6831 102.935 36.6006 103.159 36.6196C103.512 36.6577 103.954 36.4673 104.192 36.7085C104.403 36.918 104.256 37.356 104.256 37.6861C104.256 40.0855 104.256 42.4849 104.256 44.8907C104.256 45.0177 104.256 45.151 104.256 45.2779C104.256 45.3985 104.185 45.4493 104.07 45.4493C103.666 45.4493 103.256 45.4493 102.852 45.4493C102.736 45.4493 102.672 45.3985 102.666 45.2779C102.666 45.1637 102.666 45.0494 102.666 44.9415C102.666 43.4244 102.666 41.9136 102.666 40.3965V39.8697C102.441 40.003 102.384 40.1934 102.294 40.3457C101.525 41.5962 100.762 42.8467 100.012 44.1099C99.8644 44.3638 99.7042 44.4717 99.4029 44.4717C99.1144 44.4717 98.9413 44.3892 98.781 44.129C97.9861 42.8023 97.1656 41.4883 96.3514 40.168C96.3066 40.0982 96.2617 40.0347 96.1783 39.9141L96.1719 39.9078Z" fill="#00AEFF"/>
<path d="M159.053 42.3578C159.053 40.6503 159.053 38.9618 159.053 37.267C159.053 37.14 159.06 37.0067 159.053 36.8798C159.041 36.6957 159.118 36.6195 159.31 36.6195C159.714 36.6195 160.124 36.6195 160.528 36.6195C160.72 36.6195 160.791 36.702 160.778 36.8798C160.778 36.975 160.778 37.0702 160.778 37.1718C160.778 39.7489 160.778 42.3261 160.778 44.9033C160.778 44.9985 160.778 45.1001 160.778 45.1953C160.791 45.3857 160.707 45.4619 160.521 45.4492C160.502 45.4492 160.489 45.4492 160.47 45.4492C160.111 45.4492 159.733 45.5127 159.4 45.4238C159.06 45.3286 158.906 44.935 158.688 44.6684C157.374 43.0942 156.079 41.5073 154.778 39.9267C154.726 39.8632 154.688 39.7934 154.579 39.768C154.483 39.8886 154.528 40.0346 154.528 40.1679C154.528 41.7485 154.528 43.3227 154.528 44.9033C154.528 45.0175 154.528 45.1318 154.528 45.2397C154.528 45.373 154.47 45.4492 154.329 45.4492C153.887 45.4492 153.451 45.4492 153.008 45.4492C152.867 45.4492 152.803 45.3857 152.803 45.246C152.803 45.1508 152.803 45.0556 152.803 44.9541C152.803 42.3451 152.803 39.7362 152.803 37.1273C152.803 37.0448 152.803 36.9686 152.803 36.8861C152.79 36.702 152.867 36.6132 153.06 36.6259C153.079 36.6259 153.092 36.6259 153.111 36.6259C154.181 36.5624 154.175 36.5687 154.855 37.3939C156.182 39.019 157.521 40.6376 158.855 42.2563C158.893 42.3071 158.925 42.3642 159.06 42.3578H159.053Z" fill="#00AEFF"/>
<path d="M168.624 39.7235C168.624 39.8822 168.624 40.0345 168.624 40.1932C168.624 41.8183 168.624 43.4496 168.624 45.0746C168.624 45.4491 168.618 45.4491 168.259 45.4555C167.919 45.4555 167.573 45.4428 167.233 45.4555C166.99 45.4682 166.913 45.3666 166.932 45.1445C166.938 45.0619 166.932 44.9858 166.932 44.9032C166.932 42.3261 166.932 39.7489 166.932 37.1717C166.932 37.0765 166.932 36.975 166.932 36.8797C166.919 36.6957 166.996 36.6068 167.182 36.6258C167.201 36.6258 167.214 36.6258 167.233 36.6258C168.317 36.5687 168.31 36.5751 169.009 37.432C170.317 39.0316 171.631 40.6249 172.945 42.2182C173.003 42.288 173.067 42.3515 173.157 42.453C173.234 42.288 173.214 42.161 173.214 42.0404C173.214 40.4154 173.214 38.7841 173.214 37.159C173.214 36.5814 173.144 36.6258 173.772 36.6258C174.016 36.6258 174.259 36.6258 174.503 36.6258C174.862 36.6258 174.868 36.6322 174.868 37.0067C174.868 39.6981 174.868 42.3895 174.868 45.0746C174.868 45.4428 174.862 45.4428 174.49 45.4491C173.458 45.4745 173.464 45.4682 172.804 44.6557C171.496 43.0561 170.182 41.4628 168.868 39.8695C168.817 39.806 168.759 39.7489 168.708 39.6918C168.676 39.6981 168.65 39.7108 168.618 39.7172L168.624 39.7235Z" fill="#00AEFF"/>
<path d="M152.476 27.2759C152.476 26.7998 152.476 26.3174 152.476 25.8413C152.476 24.54 152.476 23.2324 152.476 21.9311C152.476 21.563 152.483 21.5566 152.848 21.5503C153.175 21.5503 153.502 21.5503 153.822 21.5503C154.156 21.5503 154.156 21.563 154.169 21.9057C154.169 21.9692 154.169 22.0327 154.169 22.0962C154.169 24.6733 154.169 27.2505 154.169 29.8277C154.169 29.9229 154.169 30.0181 154.169 30.1197C154.181 30.2974 154.111 30.3863 153.919 30.3799C153.592 30.3736 153.265 30.3672 152.944 30.3799C152.726 30.3926 152.624 30.2403 152.515 30.107C151.662 29.0723 150.816 28.0376 149.963 27.003C149.348 26.2539 148.739 25.5049 148.123 24.7622C148.085 24.7114 148.046 24.6606 147.918 24.667V25.0669C147.918 26.6919 147.918 28.3169 147.918 29.9483C147.918 30.3736 147.918 30.3736 147.502 30.3799C147.162 30.3799 146.816 30.3799 146.476 30.3799C146.284 30.3799 146.213 30.3038 146.226 30.1197C146.232 30.0245 146.226 29.9292 146.226 29.8277C146.226 27.2505 146.226 24.6733 146.226 22.0962C146.226 22.0137 146.232 21.9375 146.226 21.855C146.2 21.6328 146.277 21.5122 146.521 21.5439C146.553 21.5439 146.585 21.5439 146.617 21.5439C147.316 21.4424 147.79 21.6772 148.245 22.2676C149.47 23.8672 150.784 25.397 152.066 26.9522C152.169 27.0728 152.284 27.187 152.386 27.3013C152.419 27.2886 152.444 27.2822 152.476 27.2696V27.2759Z" fill="#00AEFF"/>
<path d="M176.317 27.2947C176.317 25.657 176.317 24.051 176.317 22.4451C176.317 22.2165 176.317 21.9944 176.317 21.7659C176.317 21.6008 176.388 21.5373 176.554 21.5373C176.958 21.5373 177.369 21.5373 177.772 21.5373C177.933 21.5373 178.016 21.5945 178.01 21.7595C178.01 21.8547 178.01 21.9499 178.01 22.0515C178.01 24.6414 178.01 27.2376 178.01 29.8274C178.01 29.9227 178.003 30.0242 178.01 30.1194C178.022 30.3099 177.933 30.3606 177.753 30.3733C176.657 30.4495 176.638 30.4432 175.952 29.6053C174.638 27.993 173.311 26.387 171.99 24.781C171.939 24.7239 171.9 24.6477 171.759 24.6477V25.1174C171.759 26.7298 171.759 28.3357 171.759 29.948C171.759 30.386 171.779 30.367 171.33 30.367C171.022 30.367 170.708 30.3543 170.4 30.367C170.157 30.3797 170.035 30.3162 170.06 30.0496C170.08 29.8719 170.06 29.6941 170.06 29.5164C170.06 27.0535 170.06 24.5906 170.06 22.1277C170.06 22.0134 170.067 21.8992 170.06 21.7912C170.048 21.6072 170.131 21.5246 170.317 21.5373C170.349 21.5373 170.381 21.5373 170.413 21.5373C171.131 21.4231 171.618 21.6706 172.086 22.2737C173.356 23.9177 174.715 25.4983 176.042 27.0979C176.099 27.1678 176.131 27.2757 176.311 27.2884L176.317 27.2947Z" fill="#00AEFF"/>
<path d="M211.909 24.6353C211.838 24.7813 211.877 24.94 211.877 25.0987C211.877 26.711 211.877 28.3169 211.877 29.9293C211.877 30.3673 211.877 30.3673 211.421 30.3673C211.114 30.3673 210.8 30.3609 210.492 30.3673C210.274 30.3736 210.216 30.2847 210.216 30.0816C210.223 29.4214 210.216 28.7613 210.216 28.1011C210.216 26.1016 210.216 24.1084 210.216 22.1089C210.216 21.9946 210.216 21.8804 210.216 21.7725C210.21 21.6138 210.268 21.5313 210.441 21.5376C210.768 21.5376 211.095 21.5376 211.415 21.5376C211.633 21.5376 211.723 21.7026 211.832 21.8296C212.473 22.5977 213.101 23.3721 213.742 24.1465C214.531 25.105 215.319 26.0699 216.108 27.0284C216.197 27.1363 216.281 27.2505 216.467 27.3394V26.8189C216.467 25.1939 216.467 23.5625 216.467 21.9375C216.467 21.5376 216.467 21.5376 216.858 21.5312C217.185 21.5312 217.512 21.5312 217.832 21.5312C218.031 21.5312 218.146 21.5884 218.121 21.8042C218.121 21.855 218.121 21.8994 218.121 21.9502C218.121 24.6226 218.121 27.295 218.121 29.9737C218.121 30.3546 218.108 30.3228 217.71 30.3736C216.999 30.4625 216.531 30.2149 216.082 29.6373C214.806 27.9932 213.454 26.4126 212.127 24.8067C212.069 24.7368 212.05 24.6289 211.909 24.6289V24.6353Z" fill="#00AEFF"/>
<path d="M90.864 25.9429C90.864 24.6035 90.864 23.2705 90.864 21.9312C90.864 21.5566 90.8704 21.5439 91.2294 21.5439C93.1654 21.5439 95.1014 21.5439 97.0374 21.5439C97.3964 21.5439 97.4028 21.5503 97.4028 21.9248C97.4028 22.166 97.4028 22.4072 97.4028 22.6484C97.3964 22.9849 97.39 22.9912 97.0374 22.9912C95.8963 22.9912 94.7616 22.9912 93.6205 22.9912C93.2872 22.9912 92.8577 22.8452 92.6397 23.0737C92.4474 23.2832 92.5948 23.6895 92.582 24.0069C92.5756 24.2988 92.5884 24.5845 92.582 24.8765C92.5692 25.124 92.6525 25.2193 92.9154 25.2129C93.4859 25.1939 94.0565 25.2129 94.6206 25.2129C95.2745 25.2129 95.9219 25.2129 96.5758 25.2129C96.8002 25.2129 96.9092 25.2764 96.8835 25.5176C96.8451 25.8667 97.031 26.2984 96.7938 26.5396C96.595 26.7427 96.1719 26.5967 95.8514 26.5967C94.877 26.6031 93.8962 26.5967 92.9218 26.5967C92.5948 26.5967 92.5884 26.6094 92.582 26.9585C92.582 27.5044 92.582 28.0503 92.582 28.6026C92.582 28.9708 92.5884 28.9771 92.9602 28.9771C94.2936 28.9771 95.627 28.9771 96.9604 28.9771C97.6848 28.9771 97.5887 28.8819 97.5951 29.5801C97.5951 30.3609 97.5951 30.3609 96.8002 30.3609C95.0244 30.3609 93.2551 30.3609 91.4794 30.3609C91.364 30.3609 91.2486 30.3546 91.1396 30.3609C90.9345 30.3736 90.8447 30.2911 90.8511 30.0816C90.864 29.7134 90.8511 29.3389 90.8511 28.9708C90.8511 27.9551 90.8511 26.9395 90.8511 25.9302L90.864 25.9429Z" fill="#00AEFF"/>
<path d="M74.9463 25.9366C74.9463 24.5972 74.9463 23.2642 74.9463 21.9248C74.9463 21.5503 74.9527 21.5439 75.3181 21.5439C77.2541 21.5439 79.1901 21.5439 81.1261 21.5439C81.4787 21.5439 81.4787 21.5503 81.4851 21.8804C81.4851 22.1025 81.4851 22.3311 81.4851 22.5596C81.4851 22.9912 81.4851 22.9912 81.0171 22.9912C79.8119 22.9912 78.6067 22.9912 77.408 22.9912C76.9165 22.9912 76.6707 23.2388 76.6707 23.7339C76.6707 24.1211 76.6836 24.5083 76.6707 24.8955C76.6579 25.1494 76.7541 25.2256 77.0105 25.2256C78.1324 25.2129 79.2542 25.2256 80.3761 25.2256C80.4915 25.2256 80.6068 25.2256 80.7158 25.2256C80.9017 25.2129 80.9787 25.3018 80.9722 25.4859C80.953 25.835 81.1069 26.2666 80.9081 26.5205C80.7094 26.7681 80.2671 26.6031 79.9337 26.6094C78.9721 26.6221 78.017 26.6094 77.0554 26.6094C76.6836 26.6094 76.6771 26.6158 76.6771 26.9776C76.6771 27.5235 76.6771 28.0694 76.6771 28.6216C76.6771 28.9835 76.6836 28.9898 77.0618 28.9961C78.4144 28.9961 79.7606 28.9961 81.1133 28.9961C81.7672 28.9961 81.6902 28.92 81.6902 29.5547C81.6902 29.8087 81.8056 30.1324 81.6389 30.3038C81.453 30.4942 81.1133 30.3736 80.844 30.3799C79.0683 30.3863 77.299 30.3799 75.5232 30.3799C75.395 30.3799 75.2604 30.3799 75.1322 30.3799C75.0168 30.3799 74.9527 30.3165 74.9527 30.1959C74.9527 30.0816 74.9527 29.9673 74.9527 29.8594C74.9527 28.5582 74.9527 27.2505 74.9527 25.9493L74.9463 25.9366Z" fill="#00AEFF"/>
<path d="M164.105 27.6505C164.105 28.1202 164.092 28.5836 164.105 29.0533C164.118 29.3136 164.009 29.4659 163.804 29.6056C163.188 30.0245 162.502 30.2657 161.784 30.4054C160.483 30.6656 159.22 30.5641 158.06 29.9039C156.637 29.0914 155.842 27.8663 155.797 26.2095C155.778 25.5621 155.816 24.9273 156.053 24.3116C156.778 22.4263 158.624 21.4932 160.207 21.4551C161.092 21.4361 161.957 21.4741 162.784 21.8423C163.252 22.0518 163.656 22.3438 164.034 22.6739C164.182 22.8008 164.207 22.9278 164.041 23.0738C163.823 23.2705 163.631 23.4864 163.413 23.6831C163.15 23.9244 163.15 23.9117 162.868 23.6958C161.688 22.8008 160.406 22.6421 159.073 23.2896C157.874 23.8736 157.278 25.2574 157.54 26.5967C157.816 28.0186 159.06 28.9454 160.329 29.0279C160.97 29.0723 161.592 29.0089 162.188 28.7423C162.4 28.6471 162.477 28.5328 162.477 28.3043C162.464 27.6441 162.477 26.984 162.477 26.3238C162.477 25.7906 162.457 25.835 162.989 25.835C163.252 25.835 163.509 25.8477 163.772 25.835C164.022 25.8223 164.118 25.9048 164.111 26.1651C164.099 26.6666 164.111 27.1617 164.111 27.6632L164.105 27.6505Z" fill="#00AEFF"/>
<path d="M184.811 42.7517C184.811 43.2215 184.798 43.6848 184.811 44.1546C184.818 44.3894 184.741 44.5354 184.542 44.6687C183.869 45.1194 183.125 45.3733 182.33 45.5193C181.42 45.6844 180.523 45.6146 179.638 45.3543C177.792 44.8084 176.529 43.1136 176.497 41.2092C176.477 40.0476 176.772 39.0129 177.529 38.1243C178.356 37.1531 179.439 36.6389 180.702 36.5373C181.497 36.4739 182.298 36.4866 183.068 36.7468C183.689 36.9563 184.247 37.2673 184.728 37.7244C184.895 37.8831 184.907 37.991 184.728 38.1497C184.497 38.3528 184.279 38.5686 184.074 38.7971C183.92 38.9622 183.805 38.9749 183.632 38.8162C182.753 38.0417 181.734 37.8386 180.593 38.0608C178.484 38.4734 177.606 40.8411 178.599 42.5677C179.183 43.5706 180.087 44.0594 181.253 44.0911C181.779 44.1101 182.292 44.0403 182.786 43.8562C183.151 43.7166 183.177 43.6849 183.177 43.2976C183.177 42.6375 183.177 41.9773 183.177 41.3172C183.177 40.9046 183.177 40.9046 183.612 40.9046C183.907 40.9046 184.196 40.9173 184.491 40.9046C184.722 40.8919 184.811 40.968 184.805 41.2029C184.792 41.7171 184.805 42.2312 184.805 42.7517H184.811Z" fill="#00AEFF"/>
<path d="M228.153 22.8769C227.865 23.1689 227.57 23.4482 227.294 23.7402C227.14 23.9052 227.038 23.8608 226.897 23.7402C226.3 23.2197 225.602 22.9277 224.813 22.9086C223.525 22.8833 222.422 23.2959 221.807 24.4892C221.185 25.7016 221.307 26.895 222.172 27.9678C222.602 28.4946 223.179 28.8184 223.864 28.9453C224.647 29.0913 225.416 29.0532 226.153 28.7231C226.358 28.6343 226.442 28.5073 226.435 28.2788C226.422 27.5869 226.429 26.895 226.435 26.2031C226.435 25.8349 226.442 25.8286 226.813 25.8286C227.108 25.8286 227.397 25.8413 227.692 25.8286C227.942 25.8159 228.044 25.8921 228.031 26.1523C228.019 26.6665 228.031 27.1807 228.031 27.7012C228.031 28.1709 228.019 28.6343 228.031 29.104C228.044 29.3643 227.942 29.5166 227.724 29.6499C226.98 30.1069 226.172 30.3609 225.307 30.4815C224.403 30.6084 223.525 30.5132 222.678 30.1958C221.031 29.5801 220.069 28.4058 219.787 26.6792C219.608 25.6064 219.787 24.5908 220.339 23.664C221.089 22.4072 222.236 21.6835 223.679 21.4931C224.781 21.3471 225.89 21.3979 226.916 21.9248C227.377 22.166 227.813 22.4326 228.153 22.8833V22.8769Z" fill="#00AEFF"/>
<path d="M188.651 25.9493C188.651 24.6099 188.651 23.2769 188.651 21.9375C188.651 21.5503 188.651 21.5439 189.061 21.5439C190.985 21.5439 192.901 21.5439 194.825 21.5439C195.19 21.5439 195.196 21.5503 195.196 21.9185C195.196 22.1787 195.184 22.4326 195.196 22.6929C195.216 22.9785 195.055 22.9976 194.837 22.9976C193.812 22.9976 192.786 22.9976 191.76 22.9976C191.369 22.9976 190.978 23.0039 190.587 22.9976C190.376 22.9976 190.299 23.0737 190.305 23.2832C190.312 23.8164 190.305 24.3433 190.305 24.8765C190.305 25.2129 190.318 25.2193 190.664 25.2193C191.741 25.2193 192.812 25.2193 193.889 25.2193C194.367 25.2193 194.604 25.4584 194.6 25.9366C194.596 26.4148 194.374 26.6369 193.934 26.6031C192.844 26.6031 191.754 26.6031 190.664 26.6031C190.312 26.6031 190.305 26.6094 190.305 26.9458C190.305 27.5108 190.305 28.0757 190.305 28.6343C190.305 28.9708 190.318 28.9835 190.664 28.9835C192.049 28.9835 193.433 28.9835 194.812 28.9835C195.427 28.9835 195.35 28.9517 195.35 29.5357C195.35 29.7896 195.466 30.107 195.299 30.2847C195.113 30.4815 194.773 30.3609 194.504 30.3609C192.748 30.3673 190.991 30.3609 189.228 30.3609C189.113 30.3609 188.997 30.3609 188.888 30.3609C188.696 30.3736 188.638 30.272 188.645 30.0943C188.651 29.8721 188.645 29.6436 188.645 29.4151C188.645 28.2535 188.645 27.0982 188.645 25.9366L188.651 25.9493Z" fill="#00AEFF"/>
<path d="M180.253 25.9366C180.253 24.5972 180.253 23.2642 180.253 21.9248C180.253 21.5503 180.26 21.5439 180.625 21.5439C182.542 21.5439 184.465 21.5439 186.382 21.5439C186.754 21.5439 186.76 21.5503 186.766 21.9121C186.766 22.1533 186.766 22.3945 186.766 22.6358C186.76 22.9785 186.754 22.9849 186.414 22.9849C185.555 22.9849 184.689 22.9849 183.83 22.9849C183.292 22.9849 182.753 22.9912 182.221 22.9849C181.984 22.9849 181.907 23.0674 181.914 23.2959C181.926 23.8291 181.926 24.356 181.914 24.8892C181.907 25.1494 182.01 25.2193 182.253 25.2129C183.375 25.2066 184.497 25.2129 185.619 25.2129C185.734 25.2129 185.85 25.2193 185.959 25.2129C186.151 25.2002 186.221 25.2891 186.209 25.4668C186.189 25.8159 186.343 26.2539 186.151 26.5015C185.959 26.7491 185.51 26.584 185.177 26.5904C184.215 26.6031 183.26 26.5904 182.298 26.5904C181.92 26.5904 181.914 26.5967 181.914 26.9585C181.914 27.5044 181.914 28.0503 181.914 28.6026C181.914 28.9708 181.92 28.9771 182.292 28.9771C183.612 28.9771 184.927 28.9771 186.247 28.9771C187.093 28.9771 186.959 28.8628 186.959 29.6944C186.959 30.4498 187.074 30.3546 186.292 30.3609C184.471 30.3609 182.651 30.3609 180.824 30.3609C180.696 30.3609 180.561 30.3609 180.433 30.3609C180.317 30.3609 180.253 30.2974 180.253 30.1832C180.253 30.0689 180.253 29.9547 180.253 29.8467C180.253 28.5455 180.253 27.2378 180.253 25.9366Z" fill="#00AEFF"/>
<path d="M141.129 30.3736C140.155 30.3736 139.181 30.3736 138.2 30.3736C137.834 30.3736 137.828 30.3673 137.828 29.9991C137.828 27.3077 137.828 24.6226 137.828 21.9312C137.828 21.5503 137.834 21.5439 138.238 21.5439C140.142 21.5439 142.046 21.5439 143.95 21.5439C144.367 21.5439 144.367 21.5439 144.373 21.9692C144.373 22.1978 144.373 22.4199 144.373 22.6484C144.367 22.9849 144.36 22.9912 144.008 22.9912C142.918 22.9912 141.828 22.9912 140.738 22.9912C140.443 22.9912 140.155 23.0039 139.86 22.9912C139.623 22.9785 139.501 23.0357 139.514 23.3086C139.533 23.8418 139.533 24.3687 139.514 24.9019C139.507 25.1685 139.629 25.2193 139.866 25.2193C140.975 25.2129 142.078 25.2193 143.187 25.2193C143.303 25.2193 143.418 25.2256 143.527 25.2193C143.726 25.2066 143.835 25.2637 143.822 25.4859C143.796 25.835 143.956 26.273 143.758 26.5142C143.565 26.7491 143.117 26.5967 142.783 26.5967C141.822 26.6094 140.867 26.5967 139.905 26.5967C139.533 26.5967 139.527 26.6031 139.527 26.9712C139.527 27.5171 139.527 28.063 139.527 28.6153C139.527 28.9771 139.533 28.9835 139.911 28.9835C141.245 28.9835 142.578 28.9835 143.912 28.9835C144.585 28.9835 144.501 28.9009 144.508 29.5738C144.508 30.3673 144.508 30.3673 143.726 30.3673C142.867 30.3673 142.001 30.3673 141.142 30.3673L141.129 30.3736Z" fill="#00AEFF"/>
<path d="M127.994 38.5873C127.372 38.2763 126.757 38.0287 126.096 37.9399C125.526 37.8701 124.962 37.8701 124.417 38.0795C124.18 38.1684 123.987 38.308 123.834 38.4985C123.545 38.8603 123.616 39.3999 123.968 39.7045C124.225 39.9204 124.526 40.0283 124.84 40.1171C125.635 40.352 126.449 40.4917 127.231 40.7773C127.571 40.8979 127.885 41.063 128.167 41.2915C128.693 41.7231 128.898 42.2754 128.891 42.9482C128.891 43.8559 128.507 44.5161 127.757 45.0049C127.327 45.2842 126.846 45.4302 126.346 45.519C125.186 45.7222 124.051 45.5889 122.949 45.2017C122.609 45.081 122.295 44.916 121.994 44.7192C121.814 44.605 121.744 44.4907 121.846 44.2876C122.019 43.9448 122.18 43.5893 122.353 43.2212C123.039 43.6909 123.757 44.0083 124.558 44.1416C125.122 44.2368 125.693 44.2241 126.25 44.0908C126.475 44.0337 126.686 43.9512 126.866 43.8052C127.353 43.4243 127.34 42.7832 126.859 42.4023C126.571 42.1738 126.231 42.0786 125.885 41.977C125.167 41.7739 124.43 41.6406 123.725 41.3867C123.635 41.3549 123.539 41.3296 123.449 41.2915C122.616 40.936 122.032 40.3711 121.955 39.4316C121.878 38.5366 122.173 37.7812 122.91 37.2289C123.359 36.8925 123.866 36.683 124.423 36.6069C125.667 36.4355 126.885 36.4736 128.045 37.0131C128.135 37.0512 128.218 37.102 128.308 37.1401C128.513 37.2289 128.558 37.3559 128.462 37.559C128.308 37.8891 128.167 38.2255 128.007 38.5873H127.994Z" fill="#00AEFF"/>
<path d="M130.219 43.2088C130.917 43.723 131.661 43.996 132.456 44.1356C133.007 44.2308 133.552 44.2245 134.097 44.0912C134.68 43.9515 135.059 43.596 135.097 43.1644C135.136 42.7137 134.847 42.3646 134.238 42.1361C133.706 41.9329 133.148 41.8187 132.597 41.679C132.174 41.5711 131.751 41.4569 131.34 41.2918C130.443 40.9237 129.86 40.3079 129.821 39.305C129.783 38.3275 130.174 37.5594 131.046 37.0516C131.629 36.7088 132.27 36.5437 132.95 36.5247C133.847 36.4993 134.732 36.5501 135.591 36.8675C136.475 37.1976 136.482 37.1849 136.123 38.0418C135.886 38.5941 135.892 38.5814 135.334 38.3401C134.437 37.9529 133.507 37.7816 132.533 38.0037C132.206 38.0799 131.924 38.2195 131.712 38.4925C131.373 38.9368 131.449 39.4256 131.905 39.7493C132.142 39.9207 132.411 40.035 132.693 40.1112C133.334 40.2762 133.982 40.4412 134.623 40.619C135.078 40.7459 135.52 40.911 135.905 41.1903C136.931 41.9393 137.091 43.5453 136.232 44.4847C135.68 45.0878 134.988 45.3924 134.193 45.5194C132.911 45.7225 131.674 45.5448 130.481 45.056C130.469 45.056 130.449 45.0497 130.437 45.037C130.167 44.9164 129.853 44.8021 129.712 44.5672C129.565 44.3197 129.853 44.0785 129.937 43.8309C130.007 43.6341 130.103 43.45 130.219 43.2025V43.2088Z" fill="#00AEFF"/>
<path d="M79.1453 36.5306C80.3377 36.4799 81.4018 36.8353 82.3121 37.6224C82.3827 37.6859 82.4532 37.7557 82.5173 37.8256C82.6263 37.9335 82.6391 38.035 82.5173 38.1493C82.2416 38.3969 81.966 38.6508 81.6967 38.9047C81.5493 39.0443 81.466 38.9174 81.3762 38.8349C80.9403 38.454 80.4595 38.181 79.8825 38.0541C78.1773 37.6796 76.2798 38.7015 76.0811 40.6313C75.9464 41.9198 76.4849 43.0878 77.5042 43.6781C78.5876 44.3066 80.2351 44.2558 81.1262 43.4496C81.2095 43.3735 81.3057 43.31 81.3826 43.2338C81.5044 43.1069 81.6134 43.0815 81.748 43.2148C81.9916 43.4496 82.2416 43.6781 82.4981 43.9067C82.6519 44.04 82.6583 44.1415 82.5045 44.3002C81.8762 44.9286 81.1262 45.3095 80.2608 45.4936C79.2735 45.7031 78.2863 45.6523 77.3311 45.3222C75.4015 44.662 74.222 42.8847 74.3245 40.828C74.4463 38.3715 76.3952 36.5306 78.8825 36.5306C78.9658 36.5306 79.0427 36.5306 79.1453 36.5306Z" fill="#00AEFF"/>
<path d="M106.948 29.0406C106.14 29.923 105.16 30.3419 104.012 30.4752C102.839 30.6085 101.749 30.4117 100.743 29.8151C99.4734 29.0597 98.7939 27.9361 98.6464 26.4762C98.5182 25.2384 98.781 24.1148 99.5759 23.1436C100.486 22.0264 101.685 21.4805 103.134 21.4424C104.057 21.417 104.948 21.525 105.775 21.9693C106.121 22.1534 106.435 22.3819 106.717 22.6421C106.935 22.8389 106.929 22.9024 106.737 23.1119C106.66 23.1944 106.576 23.2769 106.493 23.3531C106.301 23.5245 106.134 23.772 105.91 23.8482C105.64 23.9371 105.499 23.607 105.294 23.4674C103.91 22.5215 101.961 22.7564 100.961 24.0577C100.191 25.067 100.095 26.1969 100.627 27.3331C101.147 28.4376 102.095 28.9581 103.32 29.0152C104.211 29.0533 104.986 28.8058 105.621 28.171C105.781 28.0123 105.91 27.9933 106.063 28.171C106.326 28.4757 106.685 28.6852 106.948 29.0406Z" fill="#00AEFF"/>
<path d="M110.961 21.5437C112.083 21.5437 113.205 21.5437 114.327 21.5437C114.692 21.5437 114.692 21.55 114.698 21.9182C114.698 22.1784 114.686 22.4323 114.698 22.6926C114.711 22.9275 114.615 22.9973 114.384 22.9973C113.653 22.9846 112.923 22.9973 112.185 22.9973C111.769 22.9973 111.762 22.9973 111.762 23.4226C111.762 25.5491 111.762 27.6755 111.762 29.7957C111.762 29.9099 111.762 30.0242 111.762 30.1321C111.769 30.2908 111.711 30.367 111.538 30.367C111.115 30.367 110.692 30.367 110.269 30.367C110.121 30.367 110.07 30.2908 110.07 30.1575C110.07 30.0432 110.07 29.929 110.07 29.8211C110.07 27.7581 110.07 25.7014 110.07 23.6384C110.07 23.5432 110.07 23.448 110.07 23.3464C110.064 23.0036 110.057 22.9909 109.717 22.9909C108.999 22.9909 108.288 22.9909 107.57 22.9909C107.14 22.9909 107.127 22.9909 107.14 22.572C107.147 22.2419 106.993 21.823 107.224 21.6008C107.429 21.404 107.845 21.5437 108.166 21.5437C109.096 21.5373 110.019 21.5437 110.948 21.5437H110.961Z" fill="#00AEFF"/>
<path d="M83.3443 25.9112C83.3443 24.5908 83.3443 23.2705 83.3443 21.9502C83.3443 21.5503 83.3443 21.5503 83.7418 21.5439C84.1008 21.5439 84.4598 21.5439 84.8123 21.5439C84.9983 21.5439 85.0816 21.6138 85.0688 21.7979C85.0624 21.9121 85.0688 22.02 85.0688 22.1343C85.0688 24.21 85.0688 26.2857 85.0688 28.3614C85.0688 28.4566 85.0752 28.5582 85.0688 28.6534C85.0495 28.8946 85.1201 29.0152 85.3893 28.9961C85.6137 28.9771 85.8444 28.9961 86.0688 28.9961C87.1586 28.9961 88.2484 28.9961 89.3382 28.9961C89.678 28.9961 89.6908 29.0088 89.6844 29.3453C89.678 29.6754 89.8318 30.0943 89.6011 30.3165C89.3959 30.5132 88.9792 30.3736 88.6587 30.3736C87.0496 30.3736 85.4406 30.3736 83.8315 30.3736C83.2802 30.3736 83.3379 30.3863 83.3379 29.8721C83.3379 28.5518 83.3379 27.2315 83.3379 25.9112H83.3443Z" fill="#00AEFF"/>
<path d="M167.817 26.0064C167.817 27.3267 167.817 28.647 167.817 29.9673C167.817 30.3609 167.817 30.3609 167.413 30.3673C167.073 30.3673 166.727 30.3546 166.387 30.3673C166.15 30.3799 166.06 30.2784 166.086 30.0562C166.092 29.9737 166.086 29.8975 166.086 29.815C166.086 27.2378 166.086 24.6607 166.086 22.0835C166.086 21.9883 166.086 21.8867 166.086 21.7915C166.073 21.6074 166.156 21.5312 166.342 21.5312C166.714 21.5312 167.092 21.5312 167.464 21.5312C167.804 21.5312 167.81 21.5439 167.81 21.8867C167.81 22.8833 167.81 23.8862 167.81 24.8828C167.81 25.251 167.81 25.6255 167.81 25.9937L167.817 26.0064Z" fill="#00AEFF"/>
<path d="M139.975 41.0376C139.975 42.377 139.975 43.71 139.975 45.0494C139.975 45.4429 139.975 45.4493 139.578 45.4493C139.219 45.4493 138.86 45.4493 138.501 45.4493C138.309 45.4493 138.238 45.3731 138.251 45.189C138.257 45.0938 138.251 44.9986 138.251 44.897C138.251 42.3199 138.251 39.7427 138.251 37.1655C138.251 37.0703 138.251 36.9688 138.251 36.8735C138.238 36.6895 138.315 36.6133 138.507 36.6133C138.879 36.6133 139.257 36.6133 139.629 36.6133C139.969 36.6133 139.975 36.626 139.975 36.9688C139.975 37.9844 139.975 39 139.975 40.0157C139.975 40.3521 139.975 40.6949 139.975 41.0313V41.0376Z" fill="#00AEFF"/>
<path d="M164.688 41.0376C164.688 42.377 164.688 43.71 164.688 45.0494C164.688 45.4429 164.688 45.4493 164.291 45.4493C163.932 45.4493 163.573 45.4493 163.214 45.4493C163.022 45.4493 162.951 45.3731 162.964 45.189C162.97 45.0938 162.964 44.9986 162.964 44.897C162.964 42.3199 162.964 39.7427 162.964 37.1655C162.964 37.0703 162.964 36.9688 162.964 36.8735C162.951 36.6895 163.028 36.6133 163.22 36.6133C163.592 36.6133 163.97 36.6133 164.342 36.6133C164.682 36.6133 164.688 36.626 164.688 36.9688C164.688 37.9844 164.688 39 164.688 40.0157C164.688 40.3521 164.688 40.6949 164.688 41.0313V41.0376Z" fill="#00AEFF"/>
<path d="M207.966 25.9555C207.966 27.2948 207.966 28.6278 207.966 29.9672C207.966 30.3608 207.966 30.3671 207.569 30.3671C207.21 30.3671 206.851 30.3671 206.492 30.3671C206.306 30.3671 206.223 30.2909 206.235 30.1068C206.242 30.0116 206.235 29.9164 206.235 29.8149C206.235 27.2377 206.235 24.6605 206.235 22.0834C206.235 21.9881 206.235 21.8866 206.235 21.7914C206.223 21.6073 206.3 21.5248 206.492 21.5311C206.864 21.5311 207.242 21.5311 207.614 21.5311C207.954 21.5311 207.96 21.5438 207.96 21.8866C207.96 22.8705 207.96 23.8544 207.96 24.8319C207.96 25.2001 207.96 25.5746 207.96 25.9428L207.966 25.9555Z" fill="#00AEFF"/>
<path d="M120.237 41.0502C120.237 42.3832 120.237 43.7226 120.237 45.0556C120.237 45.4428 120.237 45.4492 119.833 45.4492C119.494 45.4492 119.154 45.4492 118.808 45.4492C118.641 45.4492 118.571 45.3857 118.577 45.2206C118.577 45.1254 118.577 45.0302 118.577 44.9286C118.577 42.3388 118.577 39.7489 118.577 37.1591C118.577 37.0638 118.583 36.9686 118.577 36.8671C118.564 36.683 118.647 36.6068 118.833 36.6132C119.205 36.6195 119.583 36.6195 119.955 36.6132C120.16 36.6132 120.25 36.683 120.244 36.8925C120.231 37.2479 120.244 37.5971 120.244 37.9525C120.244 38.9809 120.244 40.0092 120.244 41.0439L120.237 41.0502Z" fill="#00AEFF"/>
<path d="M240.263 28.6976C239.981 28.4373 239.968 28.4373 240.141 28.1072C240.385 27.6502 240.564 27.1678 240.692 26.6663C240.744 26.4759 240.692 26.3616 240.487 26.3045C240.237 26.2346 239.994 26.1458 239.744 26.0696C239.429 25.9744 239.429 25.9744 239.34 26.2791C239.231 26.6473 239.16 27.0281 238.904 27.3836C238.256 26.8504 237.699 26.26 237.09 25.6824C237.558 25.4094 237.955 25.1301 238.295 24.781C239.346 23.6892 238.904 22.0007 237.449 21.5754C236.731 21.366 236 21.385 235.288 21.6199C234.25 21.9626 233.705 22.8513 233.878 23.9114C233.948 24.3494 234.166 24.7239 234.442 25.073C234.551 25.2063 234.686 25.3206 234.743 25.4983C234.256 25.803 233.795 26.1013 233.416 26.5013C232.564 27.4026 232.429 29.0784 233.852 29.9608C234.493 30.3543 235.205 30.5193 235.942 30.5257C236.987 30.5384 237.974 30.2908 238.814 29.6434C239 29.5037 239.103 29.5101 239.25 29.6751C239.526 29.9671 239.821 30.2464 240.115 30.532C240.487 30.2591 240.686 29.8782 240.981 29.5862V29.3958C240.737 29.1609 240.494 28.9261 240.244 28.6976H240.263ZM236.166 22.6418C236.263 22.6228 236.359 22.6165 236.429 22.6101C236.647 22.6228 236.846 22.6418 237.019 22.7307C237.461 22.9529 237.609 23.4671 237.327 23.8733C237.064 24.2542 236.679 24.4954 236.275 24.7112C236.173 24.762 236.083 24.762 236.019 24.6731C235.859 24.4509 235.641 24.2732 235.513 24.032C235.173 23.4036 235.461 22.7878 236.166 22.6482V22.6418ZM235.519 29.1038C235.365 29.0657 235.205 29.0213 235.064 28.9451C234.436 28.6214 234.179 27.993 234.609 27.282C234.839 26.9012 235.224 26.6726 235.596 26.4441C235.769 26.3362 235.859 26.4568 235.968 26.5584C236.481 27.0472 236.993 27.5359 237.506 28.0247C237.679 28.1897 237.852 28.3484 238.058 28.5452C237.25 29.1165 236.423 29.3069 235.519 29.1038Z" fill="#00AEFF"/>
<path d="M90.2742 36.9434C89.4472 36.5498 88.5561 36.48 87.6522 36.5244C86.1906 36.6006 84.979 37.1973 84.1136 38.3716C83.402 39.3301 83.1584 40.4219 83.3058 41.6089C83.4661 42.9737 84.1008 44.0401 85.2547 44.7891C86.3124 45.4747 87.4791 45.6715 88.742 45.5572C90.9921 45.3477 92.941 43.5132 92.8897 41.0567C92.8512 39.1651 92.0114 37.7686 90.2742 36.9434ZM88.0433 44.1099C86.2868 44.0655 84.9534 42.7833 84.979 41.0376C85.0047 39.3047 86.2611 37.9971 88.0689 37.9844C90.1203 37.9717 91.2742 39.6475 91.1588 41.063C91.2229 42.7579 89.819 44.148 88.0433 44.1099Z" fill="#00AEFF"/>
<path d="M151.066 39.8886C150.867 39.0189 150.418 38.2762 149.739 37.6923C148.79 36.8734 147.681 36.4862 146.405 36.5243C145.271 36.4735 144.508 36.7401 143.899 37.1019C142.142 38.1366 141.392 39.6791 141.636 41.6913C141.815 43.1513 142.553 44.2494 143.847 44.9604C145.149 45.6713 146.521 45.7792 147.944 45.3793C148.97 45.0937 149.79 44.5287 150.406 43.6654C151.22 42.5102 151.38 41.2406 151.072 39.8949L151.066 39.8886ZM146.36 44.0971C144.848 44.1669 143.296 42.9672 143.296 41.0375C143.296 39.3109 144.63 37.9779 146.38 37.9779C148.348 37.9779 149.508 39.5077 149.495 41.1073C149.482 42.7323 148.13 44.186 146.36 44.0971Z" fill="#00AEFF"/>
<path d="M202.703 27.5106C202.819 27.4472 202.902 27.3964 202.992 27.3519C204.851 26.4061 204.838 24.1019 204.062 22.972C203.543 22.2167 202.793 21.8548 201.928 21.6581C201.319 21.5184 200.703 21.5438 200.088 21.5438C199.19 21.5438 198.299 21.5438 197.402 21.5438C197.062 21.5438 197.062 21.5565 197.049 21.8993C197.049 21.9627 197.049 22.0262 197.049 22.0897C197.049 24.6669 197.049 27.244 197.049 29.8149C197.049 29.8974 197.056 29.9735 197.049 30.0561C197.023 30.2782 197.107 30.3798 197.35 30.3671C197.709 30.3544 198.068 30.3671 198.421 30.3671C198.767 30.3671 198.774 30.3544 198.774 30.018C198.774 29.4086 198.774 28.7929 198.774 28.1835C198.774 27.8344 198.78 27.828 199.12 27.828C199.626 27.828 200.133 27.8471 200.633 27.8153C200.953 27.7963 201.139 27.9105 201.306 28.1645C201.748 28.8183 202.21 29.4594 202.665 30.1068C202.748 30.2211 202.799 30.3671 202.985 30.3671C203.524 30.3671 204.069 30.3671 204.697 30.3671C203.992 29.3642 203.344 28.4438 202.69 27.5106H202.703ZM202.017 26.1332C201.729 26.2919 201.428 26.3998 201.094 26.3998C200.428 26.3998 199.761 26.3934 199.101 26.4061C198.831 26.4125 198.774 26.3046 198.78 26.0697C198.793 25.6063 198.78 25.1366 198.78 24.6732C198.78 24.2098 198.78 23.7401 198.78 23.2767C198.78 23.0799 198.831 22.9847 199.049 22.9847C199.729 22.9974 200.415 22.9847 201.094 22.9974C201.299 22.9974 201.517 23.0482 201.71 23.118C202.338 23.3465 202.742 23.7718 202.806 24.451C202.876 25.162 202.678 25.7523 202.011 26.1268L202.017 26.1332Z" fill="#00AEFF"/>
<path d="M121.475 27.5169C121.628 27.428 121.737 27.3645 121.853 27.3011C123.744 26.2727 123.59 23.6956 122.584 22.6545C121.917 21.9626 121.083 21.6516 120.154 21.5754C118.987 21.4802 117.814 21.5564 116.641 21.5373C116.449 21.5373 116.25 21.5373 116.058 21.5373C115.923 21.5373 115.846 21.5945 115.846 21.7341C115.846 21.8484 115.846 21.9626 115.846 22.0705C115.846 24.6604 115.846 27.2566 115.846 29.8465C115.846 29.9417 115.846 30.0369 115.846 30.1385C115.833 30.3035 115.917 30.367 116.077 30.367C116.436 30.367 116.795 30.367 117.147 30.367C117.487 30.367 117.494 30.3543 117.5 30.0179C117.5 29.4085 117.5 28.7928 117.5 28.1834C117.5 27.8406 117.506 27.8343 117.846 27.8279C118.397 27.8279 118.955 27.8406 119.506 27.8216C119.75 27.8152 119.885 27.9041 120.019 28.1009C120.462 28.7547 120.923 29.3958 121.385 30.0433C121.507 30.2147 121.603 30.386 121.872 30.3797C122.372 30.3606 122.878 30.3797 123.475 30.3797C122.769 29.3768 122.128 28.4627 121.468 27.5296L121.475 27.5169ZM120.545 26.2537C120.301 26.3489 120.051 26.406 119.789 26.406C119.135 26.406 118.487 26.3933 117.833 26.406C117.57 26.406 117.5 26.3172 117.506 26.0696C117.519 25.5999 117.506 25.1365 117.506 24.6668C117.506 24.197 117.513 23.7336 117.506 23.2639C117.506 23.0608 117.57 22.9783 117.782 22.9783C118.468 22.991 119.147 22.9783 119.833 22.9846C119.93 22.9846 120.026 22.9973 120.122 23.0164C121.475 23.2703 121.859 24.4129 121.43 25.4602C121.263 25.8601 120.93 26.0886 120.545 26.241V26.2537Z" fill="#00AEFF"/>
<path d="M132.879 29.1546C131.77 26.7235 130.655 24.2986 129.565 21.8611C129.449 21.6072 129.321 21.5247 129.058 21.5374C128.731 21.5564 128.404 21.5564 128.084 21.5374C127.84 21.5247 127.706 21.6072 127.603 21.8357C126.436 24.4129 125.257 26.9901 124.09 29.5672C123.981 29.8084 123.821 30.0433 123.795 30.3734C124.257 30.3734 124.712 30.3607 125.161 30.3734C125.404 30.3797 125.545 30.3036 125.635 30.0687C125.815 29.6053 126.039 29.1546 126.218 28.6912C126.315 28.431 126.443 28.3231 126.744 28.3294C127.962 28.3485 129.18 28.3421 130.404 28.3294C130.667 28.3294 130.815 28.3929 130.911 28.6532C131.09 29.1356 131.315 29.599 131.514 30.075C131.597 30.2718 131.706 30.3797 131.949 30.3734C132.417 30.3543 132.892 30.3734 133.45 30.3734C133.238 29.91 133.065 29.5355 132.892 29.1546H132.879ZM126.949 27.0218C127.481 25.784 128.001 24.597 128.558 23.2957C129.148 24.5779 129.648 25.7777 130.193 27.0218H126.949Z" fill="#00AEFF"/>
<path d="M67.728 31.948C67.6767 30.3738 67.4844 28.8122 67.1895 27.2634C66.5036 23.6642 65.2599 20.2619 63.4393 17.0753C61.5482 13.7682 59.1635 10.8609 56.2851 8.34723C53.0798 5.54789 49.4642 3.43411 45.4512 1.98683C42.5664 0.945808 39.5919 0.330081 36.5341 0.0888678C36.284 -0.0253908 36.002 0.126954 35.752 0H32.0402C31.7966 0.107911 31.5338 0.0190431 31.2838 0.0507816C30.5337 0.063477 29.7901 0.0952155 29.0529 0.203126C24.8219 0.818854 20.8409 2.15187 17.1164 4.24661C13.6418 6.19536 10.616 8.68366 8.01972 11.6798C5.99397 14.0284 4.32081 16.6119 3.02587 19.4303C1.97453 21.7091 1.1732 24.0641 0.647533 26.5207C0.333414 27.987 0.109043 29.4597 0.0513477 30.9641C0.0128841 31.1799 0.0962219 31.4084 -0.00634766 31.6179V35.3884C0.0962219 35.5979 0.0128841 35.8264 0.0513477 36.0423C0.115454 36.6516 0.0962219 37.261 0.18597 37.8704C0.762924 42.0154 2.0194 45.932 4.05156 49.6136C6.00038 53.1493 8.51334 56.2153 11.5648 58.8686C15.3214 62.1313 19.6101 64.4292 24.3988 65.8193C26.572 66.4478 28.7836 66.9175 31.0658 66.9556C31.2581 66.981 31.4633 66.8984 31.6492 67.0063H36.143C36.361 66.8794 36.611 67.0317 36.8289 66.9111C37.9572 66.7842 39.0791 66.6509 40.1945 66.4478C43.9511 65.7559 47.4834 64.4673 50.7912 62.582C54.1119 60.684 57.0351 58.31 59.5417 55.4281C62.9585 51.4989 65.3433 47.0301 66.6767 42.0218C67.4267 39.1971 67.7729 36.3216 67.7793 33.4016C67.7793 32.9192 67.7408 32.4368 67.7216 31.9607L67.728 31.948ZM56.5287 55.7455C50.1758 62.0424 42.4062 65.1846 33.3929 65.0639C16.0522 64.8354 1.97453 50.7372 2.03863 31.0149C2.16043 24.591 5.34009 16.942 11.834 10.7657C18.2831 4.64017 26.0656 1.68849 34.9827 1.97414C43.5729 2.24709 50.9323 5.50981 56.8877 11.6353C63.0034 17.9259 65.9972 25.5305 65.7984 34.2459C65.6125 42.5994 62.4906 49.8358 56.5287 55.7455Z" fill="#00AEFF"/>
<path d="M56.471 31.1036C56.1377 30.6402 55.8107 30.234 55.3876 29.8912C53.7786 28.5899 51.3169 28.5518 49.6886 29.8404C48.4065 30.856 47.7719 32.1954 47.8937 33.8077C48.0347 35.7438 49.4194 37.5592 51.6182 37.9909C53.4837 38.3527 54.9966 37.7179 56.1954 36.2897C56.2467 36.2262 56.2979 36.1627 56.3428 36.0993C56.4262 35.9596 56.5223 35.9342 56.6634 36.0294C57.6249 36.6325 58.5865 37.2291 59.5545 37.8258C59.7725 37.9591 59.6699 38.0861 59.5738 38.2257C59.0289 38.9938 58.3942 39.6794 57.6249 40.2316C56.1056 41.3234 54.4261 41.9011 52.5349 41.8884C49.4194 41.8566 47.0218 40.5363 45.3486 37.9718C43.278 34.7853 43.7204 30.5387 46.2846 27.8345C48.2462 25.7715 50.6694 24.8702 53.4901 25.1685C55.9902 25.4351 57.9968 26.6285 59.4776 28.6597C59.4968 28.6851 59.5161 28.7105 59.5353 28.7359C59.7469 29.047 59.7469 29.0597 59.4391 29.2564C58.7724 29.6817 58.0929 30.1007 57.4198 30.5196C57.1185 30.7101 56.8108 30.8941 56.471 31.1036Z" fill="#00AEFF"/>
<path d="M23.1936 30.4244C22.8154 29.3961 22.2449 28.482 21.4692 27.7076C19.1742 25.4161 16.4048 24.6353 13.2508 25.3526C9.6865 26.1651 7.11585 29.2374 6.84661 32.862C6.7184 34.5631 7.07739 36.1564 7.91718 37.6418C8.76979 39.1462 9.98139 40.2888 11.5456 41.0378C13.7252 42.0725 15.9881 42.1994 18.2639 41.3742C19.9563 40.7585 21.3346 39.7111 22.3282 38.2067C22.5077 37.9401 22.5077 37.9274 22.2449 37.7624C21.2576 37.1467 20.2704 36.5309 19.2575 35.9025C18.5395 36.9435 17.6228 37.7053 16.3663 37.9846C15.1035 38.2639 13.9303 38.029 12.8213 37.4006C12.8726 37.2927 12.9431 37.2609 13.0136 37.2165C14.7765 36.1247 16.5394 35.0265 18.3023 33.9347C19.8601 32.9699 21.4179 32.005 22.9693 31.0338C23.3283 30.8117 23.3218 30.8053 23.1872 30.4308L23.1936 30.4244ZM10.8212 34.0299C10.6224 33.8585 10.6545 33.6427 10.6609 33.4396C10.7635 31.256 12.1995 29.5358 14.1932 29.0597C15.3599 28.7804 16.4433 28.9772 17.4882 29.504C17.5587 29.5358 17.6164 29.5992 17.7574 29.7008C15.4048 31.1671 13.1162 32.5954 10.8212 34.0299Z" fill="#00AEFF"/>
<path d="M41.8098 30.4309C41.4572 29.3708 40.8738 28.4504 40.0853 27.6633C38.175 25.7463 35.8351 24.8893 33.1426 25.1496C30.0399 25.4479 27.7385 27.0348 26.3602 29.7834C25.1166 32.2653 25.155 34.8108 26.4051 37.3054C28.1296 40.7395 32.0593 42.555 35.9184 41.6663C38.0468 41.1712 39.7327 40.0095 40.9892 38.2385C41.1815 37.9719 41.1815 37.9275 40.9379 37.7751C39.9379 37.1467 38.9378 36.531 37.9185 35.8962C37.1749 36.9372 36.2261 37.6609 34.9889 37.9592C33.7324 38.2639 32.5529 38.0417 31.4374 37.4006C31.5336 37.2356 31.6746 37.1785 31.7964 37.1023C33.258 36.1946 34.7197 35.2932 36.1813 34.3918C37.9891 33.2746 39.7904 32.1574 41.5982 31.0402C41.938 30.8308 41.938 30.8244 41.8098 30.4309ZM29.3796 34.0617C29.0655 32.6335 29.822 30.6022 31.5336 29.593C33.0785 28.6789 35.0594 28.7106 36.3864 29.7199C34.053 31.1672 31.7387 32.6018 29.3796 34.0681V34.0617Z" fill="#00AEFF"/>
</g>
<defs>
<clipPath id="clip0_89_771">
<rect width="241" height="67" fill="white"/>
</clipPath>
</defs>
</svg>
