<svg width="226" height="48" viewBox="0 0 226 48" fill="none" xmlns="http://www.w3.org/2000/svg">
<g clip-path="url(#clip0_89_1481)">
<path d="M110.537 23.9165C110.537 30.2865 110.537 36.662 110.537 43.032C110.537 44.7955 110.487 44.8289 108.743 44.8289C105.787 44.8289 102.836 44.79 99.8802 44.8456C98.7857 44.8679 98.3964 44.484 98.4077 43.4158C98.4472 39.0487 98.4077 34.6815 98.4641 30.3199C98.4754 29.2795 98.2385 28.84 97.0819 28.8567C92.8902 28.9124 88.6984 28.8957 84.5066 28.8567C83.5193 28.8456 83.1752 29.2017 83.1865 30.1697C83.226 34.459 83.2203 38.7427 83.2147 43.032C83.2147 44.7955 83.1583 44.8233 81.4206 44.8178C78.5885 44.8178 75.7507 44.8289 72.9186 44.8289C71.1584 44.8289 71.102 44.7788 71.102 43.0542C71.102 30.9763 71.102 18.904 71.102 6.82613C71.102 5.91931 71.1133 5.01806 71.0907 4.11125C71.0738 3.41584 71.401 3.10429 72.1006 3.10429C75.4517 3.10429 78.8085 3.11542 82.1597 3.09317C83.1583 3.0876 83.2147 3.68287 83.209 4.41166C83.2034 8.62307 83.209 12.8289 83.2034 17.0403C83.2034 17.4353 83.226 17.8303 83.1921 18.2197C83.1188 19.0765 83.4968 19.427 84.3712 19.427C88.6815 19.4103 92.9917 19.3991 97.302 19.427C98.3231 19.4325 98.4698 18.9263 98.4585 18.0973C98.4246 13.6133 98.4585 9.12933 98.3852 4.64532C98.3682 3.45478 98.7688 3.05422 99.9648 3.07091C103 3.12654 106.03 3.12098 109.065 3.06535C110.204 3.0431 110.582 3.43253 110.577 4.56187C110.532 11.0153 110.554 17.4631 110.554 23.9165H110.532H110.537Z" fill="#0067B2"/>
<path d="M117.657 23.9061C117.657 17.4972 117.657 11.0827 117.657 4.67379C117.657 3.13833 117.657 3.07157 119.265 3.07157C128.247 3.04931 137.228 3.04375 146.21 3.07157C147.914 3.07157 147.925 3.14389 147.925 4.82957C147.925 6.95474 147.851 9.07991 147.925 11.1995C147.97 12.34 147.49 12.6126 146.458 12.6015C141.431 12.5681 136.399 12.6126 131.372 12.5458C130.187 12.5291 129.809 12.9186 129.86 14.0368C129.928 15.4109 129.928 16.7906 129.86 18.1648C129.804 19.2718 130.255 19.5723 131.338 19.5611C135.727 19.5111 140.122 19.5723 144.512 19.5166C145.567 19.5055 145.911 19.8282 145.877 20.8574C145.809 23.0604 145.86 25.2635 145.843 27.4666C145.832 28.8685 145.708 28.9798 144.23 28.9798C139.959 28.9798 135.688 29.0076 131.417 28.9464C130.278 28.9297 129.809 29.2579 129.871 30.4095C129.939 31.6223 129.922 32.8518 129.866 34.0646C129.821 35.0883 130.221 35.4276 131.271 35.4165C136.021 35.3664 140.771 35.3775 145.521 35.3887C147.93 35.3887 147.93 35.4109 147.925 37.792C147.919 39.7559 147.874 41.7253 147.902 43.6891C147.914 44.5514 147.575 44.8574 146.701 44.8574C137.719 44.8518 128.743 44.8685 119.762 44.8741C119.564 44.8741 119.361 44.8574 119.164 44.8741C118.069 44.952 117.646 44.5458 117.657 43.3831C117.714 36.8908 117.685 30.404 117.685 23.9116C117.68 23.9116 117.674 23.9116 117.668 23.9116L117.657 23.9061Z" fill="#0067B2"/>
<path d="M154.875 23.7056C154.875 17.4525 154.875 11.1994 154.875 4.94622C154.875 3.13816 154.932 3.06027 156.72 3.04358C159.631 3.02689 162.542 3.09921 165.453 3.04358C166.712 3.02133 167.084 3.48864 167.078 4.70144C167.033 14.1757 167.044 23.6555 167.039 33.1298C167.039 33.4859 167.061 33.8419 167.033 34.1924C166.948 35.1827 167.417 35.4664 168.387 35.4553C173.532 35.3941 178.683 35.3885 183.828 35.3663C185.741 35.3607 185.775 35.3996 185.769 37.2633C185.763 39.3106 185.707 41.3523 185.763 43.3941C185.792 44.4845 185.323 44.8628 184.285 44.8517C181.933 44.8294 179.575 44.885 177.222 44.8405C170.638 44.7181 164.054 44.8127 157.47 44.8461C154.864 44.8628 154.864 44.8461 154.864 42.2035C154.864 36.0283 154.864 29.8586 154.864 23.6834L154.875 23.7056Z" fill="#0067B2"/>
<path d="M220.635 23.1603C219.856 22.6095 219.523 22.1756 220.347 21.4412C225.566 16.7903 223.258 8.41758 218.322 5.60256C215.868 4.20618 213.301 3.36056 210.519 3.21592C204.618 2.89881 198.711 3.04902 192.804 3.09909C191.135 3.11021 191.044 3.19923 191.044 4.84596C191.044 11.2215 191.044 17.5914 191.044 23.967C191.044 30.3425 191.039 36.7124 191.044 43.088C191.044 44.8014 191.078 44.8181 192.771 44.8181C199.196 44.8181 205.628 44.7903 212.054 44.8014C214.361 44.8014 216.607 44.4565 218.717 43.5608C221.024 42.5873 223.055 41.1742 224.308 38.96C227.535 33.2465 226.085 27.0156 220.646 23.1658L220.635 23.1603ZM203.811 12.4065C204.646 12.4231 205.487 12.4065 206.322 12.4065V12.3842C206.841 12.3842 207.36 12.3953 207.873 12.3842C210.051 12.3397 211.405 13.469 211.507 15.4106C211.614 17.4134 210.226 19.0101 208.178 19.1158C206.711 19.1881 205.233 19.0991 203.761 19.1102C203.033 19.1102 202.802 18.7709 202.813 18.0921C202.835 16.5233 202.824 14.9489 202.802 13.38C202.79 12.6679 203.123 12.3898 203.817 12.4009L203.811 12.4065ZM210.903 35.5497C209.639 35.6721 208.353 35.572 207.078 35.572C207.078 35.6053 207.078 35.6387 207.078 35.6777C206 35.6777 204.923 35.6554 203.851 35.6888C203.146 35.711 202.813 35.4329 202.813 34.7375C202.813 32.6957 202.813 30.6485 202.802 28.6067C202.802 28.0727 203.038 27.7722 203.58 27.7889C206.051 27.8668 208.528 27.6165 210.988 27.9225C213.036 28.1784 214.248 29.6193 214.22 31.6332C214.186 33.8585 212.99 35.355 210.903 35.5553V35.5497Z" fill="#0067B2"/>
<path d="M48.5749 23.9668H48.6031C48.6031 18.8542 48.6031 13.7415 48.6031 8.62331C48.6031 6.94876 48.5974 6.93764 46.8767 6.93764C42.606 6.93764 38.3352 6.93764 34.0645 6.97102C33.0828 6.98214 32.6935 6.65391 32.7612 5.66921C32.8402 4.5343 32.8289 3.38826 32.8007 2.24779C32.7387 -0.227872 33.2803 0.0169127 30.5046 0.000222898C27.537 -0.0164669 27.4975 0.0113495 27.5427 2.89313C27.554 3.79994 27.1703 4.15599 26.3579 4.33958C24.9983 4.64556 23.6443 4.97936 22.3016 5.34654C21.5794 5.54125 21.2522 5.39104 21.2691 4.60106C21.2973 3.42164 21.224 2.24223 21.2691 1.06281C21.2973 0.31733 21.0886 -0.0331568 20.2706 0.000222898C19.1535 0.0502924 18.0364 0.0558557 16.9194 0.0169127C16.1296 -0.0109037 15.8475 0.339583 15.8531 1.06837C15.8644 2.60384 15.7967 4.1393 15.87 5.66921C15.9152 6.67616 15.5315 6.95989 14.5555 6.94876C10.1663 6.90982 5.77144 6.95989 1.38221 6.90982C0.327217 6.90426 0 7.26031 0 8.27282C0.0282084 18.6595 0.0451334 29.0406 0.016925 39.4272C0.016925 40.5454 0.344142 40.9404 1.51761 40.9237C6.14943 40.8681 10.7756 40.9237 15.4074 40.8792C16.4681 40.8681 16.925 41.1407 16.8461 42.2812C16.7445 43.7276 16.8799 45.1908 16.8291 46.6428C16.7953 47.6553 17.1507 48.0447 18.217 47.9947C20.011 47.9168 21.8107 47.9557 23.6048 47.9557C25.1619 47.9557 26.719 47.9724 28.231 47.5051C30.6061 46.7763 32.1181 44.6789 31.7457 42.2812C31.5595 41.0795 31.9601 40.857 33.032 40.8681C37.7428 40.9126 42.4536 40.8681 47.1588 40.9349C48.2476 40.946 48.6087 40.6567 48.5974 39.544C48.541 34.3535 48.5749 29.1574 48.5749 23.9668ZM25.0378 43.761C24.6034 43.7944 24.1633 43.7777 23.7233 43.7666C22.0872 43.7221 21.6415 43.149 21.98 41.5579C22.0702 41.1407 22.2959 40.9349 22.7078 40.9293C23.2268 40.9182 23.7458 40.9293 24.2649 40.9293C24.2649 40.907 24.2649 40.8904 24.2649 40.8681C24.4623 40.8681 24.6654 40.8848 24.8629 40.8681C25.8389 40.7735 26.5328 41.0628 26.6118 42.1365C26.6908 43.1546 26.1717 43.6887 25.0378 43.7666V43.761ZM22.0308 34.4258C22.6175 33.6692 23.6443 33.9974 24.4623 34.1532C25.2014 34.2923 25.5681 34.8931 25.4553 35.6609C25.3368 36.4898 24.75 36.7179 23.9884 36.6845C23.8305 36.6789 23.6725 36.6845 23.5145 36.6845C22.1662 36.7123 21.2635 35.4272 22.0308 34.4314V34.4258ZM42.8993 36.6789C39.2266 36.5899 35.5539 36.6066 31.8811 36.64C30.9954 36.6456 30.6061 36.5232 30.64 35.494C30.7471 32.3285 28.7274 30.2534 25.4327 30.1421C22.9221 30.0586 20.406 30.1365 17.8898 30.0976C17.0266 30.0865 16.7896 30.4703 16.8066 31.2436C16.8404 32.6956 16.7953 34.1532 16.8348 35.6108C16.8573 36.4675 16.4681 36.6678 15.6726 36.6567C12.4004 36.6122 9.12824 36.5621 5.85606 36.64C4.59233 36.6678 4.28768 36.1838 4.29332 35.06C4.33281 29.1574 4.33281 23.2603 4.34409 17.3577C4.34409 15.7443 4.34409 14.131 4.31588 12.5176C4.29896 11.6386 4.62053 11.2492 5.57962 11.2603C8.6092 11.3048 11.6444 11.4216 14.6796 11.2325C15.6049 11.1769 15.949 11.5218 15.8926 12.4731C15.8023 13.9251 15.8757 15.3827 15.8475 16.8347C15.8306 17.6915 16.1916 18.0364 17.0661 17.9919C18.1041 17.9418 19.1422 17.9529 20.1803 18.003C21.0435 18.0419 21.2917 17.6525 21.2804 16.8737C21.2522 14.8653 21.2973 12.8625 21.2466 10.8542C21.224 9.98075 21.5343 9.61914 22.4313 9.4578C23.7233 9.22971 24.9926 8.86253 26.2394 8.44529C27.3396 8.07255 27.5709 8.49536 27.554 9.47449C27.5145 11.9112 27.554 14.3535 27.5088 16.7902C27.4919 17.6358 27.7458 18.0253 28.6541 17.9808C29.6865 17.9362 30.7302 17.9529 31.7683 18.003C32.5694 18.0419 32.8176 17.6859 32.8007 16.9515C32.7725 15.4161 32.8233 13.8806 32.7725 12.3507C32.7443 11.5218 33.0659 11.2436 33.8839 11.2492C36.9191 11.2659 39.9487 11.2659 42.984 11.2047C44.0615 11.1824 44.3492 11.6164 44.338 12.6066C44.2985 16.3841 44.321 20.156 44.321 23.9335C44.3267 23.9335 44.3323 23.9335 44.3436 23.9335C44.3436 27.7109 44.321 31.4884 44.3549 35.2603C44.3662 36.3118 44.0502 36.6845 42.8993 36.6567V36.6789Z" fill="#FFDE03"/>
</g>
<defs>
<clipPath id="clip0_89_1481">
<rect width="226" height="48" fill="white"/>
</clipPath>
</defs>
</svg>
