<svg width="252" height="68" viewBox="0 0 252 68" fill="none" xmlns="http://www.w3.org/2000/svg">
<path d="M145.061 39.6929L151.042 45.6427H144.982L142.051 42.7551C140.928 43.9677 139.73 44.8617 138.453 45.4269C137.173 45.9955 135.649 46.2798 133.88 46.2798C132.654 46.2798 131.476 46.1188 130.34 45.7968C129.206 45.4783 128.21 45.0022 127.347 44.3719C126.488 43.7451 125.797 42.9744 125.276 42.0598C124.756 41.1487 124.492 40.0833 124.492 38.8708C124.492 38.0179 124.653 37.23 124.961 36.5004C125.276 35.7777 125.701 35.1132 126.235 34.5069C126.769 33.904 127.399 33.3696 128.131 32.9072C128.861 32.4448 129.645 32.0715 130.473 31.7837C130.032 31.335 129.621 30.8931 129.244 30.4649C128.867 30.0368 128.535 29.5983 128.248 29.1496C127.96 28.6975 127.734 28.211 127.563 27.6904C127.392 27.1663 127.31 26.5977 127.31 25.9777C127.31 24.957 127.525 24.0527 127.957 23.2717C128.385 22.4873 128.963 21.8399 129.696 21.3295C130.422 20.8226 131.271 20.4355 132.233 20.1752C133.198 19.9148 134.201 19.7812 135.245 19.7812C136.29 19.7812 137.276 19.9012 138.214 20.1375C139.155 20.3739 139.984 20.7369 140.699 21.2233C141.415 21.7097 141.99 22.3331 142.418 23.0935C142.849 23.854 143.065 24.748 143.065 25.7688C143.065 26.5532 142.907 27.2691 142.596 27.9233C142.284 28.5776 141.87 29.1701 141.343 29.7045C140.826 30.2389 140.23 30.7253 139.566 31.1637C138.905 31.6056 138.231 31.979 137.553 32.2872L142.01 36.6649L145.102 32.3934H150.614L145.061 39.6963V39.6929ZM133.452 34.315C132.979 34.5754 132.524 34.8426 132.082 35.1166C131.641 35.3906 131.237 35.692 130.87 36.0243C130.507 36.3565 130.213 36.7368 129.99 37.1649C129.768 37.5931 129.658 38.0795 129.658 38.6242C129.658 39.1688 129.775 39.6826 130.011 40.1553C130.247 40.628 130.562 41.0356 130.966 41.3644C131.37 41.6967 131.832 41.9604 132.353 42.1488C132.876 42.3372 133.434 42.4331 134.034 42.4331C135.102 42.4331 136.043 42.1694 136.848 41.6487C137.656 41.1281 138.412 40.556 139.118 39.9395L133.448 34.3116L133.452 34.315ZM135.328 23.6279C134.417 23.6279 133.633 23.8609 132.983 24.3233C132.329 24.7857 132.003 25.3988 132.003 26.1593C132.003 26.4915 132.082 26.8204 132.24 27.1389C132.397 27.4609 132.606 27.7795 132.866 28.1015C133.126 28.4234 133.407 28.7248 133.705 29.0126C134.003 29.2969 134.311 29.5709 134.622 29.8312C135.013 29.6394 135.43 29.4202 135.875 29.1702C136.317 28.9235 136.728 28.6358 137.108 28.3138C137.488 27.9953 137.789 27.6459 138.025 27.2622C138.262 26.8854 138.378 26.4573 138.378 25.9811C138.378 25.2926 138.077 24.7309 137.481 24.289C136.879 23.8506 136.163 23.6279 135.331 23.6279H135.328Z" fill="#FFCE00"/>
<path d="M80.9248 4.98047H88.7749V21.8983H110.09V4.98047H117.94V45.6806H110.09V28.5264H88.7749V45.6806H80.9248V4.98047Z" fill="#FFCE00"/>
<path d="M157.714 4.98047H166.074L179.669 24.2241L193.26 4.98047H201.624V45.6806H193.774V16.4897L179.672 35.6785H179.416L165.437 16.6061V45.6806H157.717V4.98047H157.714Z" fill="#FFCE00"/>
<path d="M207.835 4.98047H216.51L229.975 36.2608L243.378 4.98047H251.868L233.296 45.9717H226.404L207.835 4.98047Z" fill="#FFCE00"/>
<path d="M80.9287 4.99072H88.7823V21.912H110.094V4.99072H117.947V45.6909H110.094V28.5401H88.7823V45.6909H80.9287V4.99072Z" fill="#2D2E30"/>
<path d="M157.714 4.98047H166.074L179.669 24.2241L193.26 4.98047H201.624V45.6806H193.774V16.4897L179.672 35.6785H179.416L165.437 16.6061V45.6806H157.717V4.98047H157.714Z" fill="#2D2E30"/>
<path d="M207.835 4.98047H216.51L229.975 36.2608L243.378 4.98047H251.868L233.296 45.9717H226.404L207.835 4.98047Z" fill="#2D2E30"/>
<path d="M81.0723 54.2168H88.7992V55.3163H82.2773V58.9678H88.111V60.0707H82.2773V63.8146H88.8779V64.9142H81.0723V54.2168Z" fill="#2D2E30"/>
<path d="M97.4199 54.2168H98.5531L105.291 62.7904V54.2168H106.468V64.9142H105.506L98.601 56.1384V64.9142H97.4233V54.2168H97.4199Z" fill="#2D2E30"/>
<path d="M115.129 59.5945V59.5637C115.129 56.6316 117.282 54.0317 120.494 54.0317C122.294 54.0317 123.41 54.549 124.479 55.4533L123.701 56.3678C122.876 55.6519 121.959 55.145 120.446 55.145C118.08 55.145 116.382 57.1488 116.382 59.5328V59.5637C116.382 62.119 118.015 64.0132 120.613 64.0132C121.836 64.0132 122.969 63.5405 123.701 62.9445V60.2864H120.446V59.2006H124.862V63.4652C123.869 64.3524 122.37 65.1025 120.569 65.1025C117.21 65.1025 115.132 62.6568 115.132 59.5979L115.129 59.5945Z" fill="#2D2E30"/>
<path d="M133.801 54.2168H135.006V64.9142H133.801V54.2168Z" fill="#2D2E30"/>
<path d="M144.253 54.2168H145.383L152.12 62.7904V54.2168H153.294V64.9142H152.336L145.431 56.1384V64.9142H144.256V54.2168H144.253Z" fill="#2D2E30"/>
<path d="M162.432 54.2168H170.159V55.3163H163.637V58.9678H169.47V60.0707H163.637V63.8146H170.237V64.9142H162.432V54.2168Z" fill="#2D2E30"/>
<path d="M178.782 54.2168H186.509V55.3163H179.987V58.9678H185.824V60.0707H179.987V63.8146H186.588V64.9142H178.782V54.2168Z" fill="#2D2E30"/>
<path d="M195.127 54.2168H199.725C201.039 54.2168 202.09 54.6141 202.768 55.2855C203.285 55.8027 203.59 56.5529 203.59 57.3921V57.4264C203.59 59.1973 202.368 60.2386 200.69 60.5434L203.973 64.9176H202.491L199.389 60.7592H196.332V64.9176H195.127V54.2202V54.2168ZM199.619 59.6734C201.221 59.6734 202.368 58.8513 202.368 57.4709V57.44C202.368 56.1247 201.361 55.3335 199.636 55.3335H196.335V59.6734H199.619Z" fill="#2D2E30"/>
<path d="M212.392 54.2168H213.597V64.9142H212.392V54.2168Z" fill="#2D2E30"/>
<path d="M222.844 54.2168H223.974L230.711 62.7904V54.2168H231.889V64.9142H230.927L224.022 56.1384V64.9142H222.844V54.2168Z" fill="#2D2E30"/>
<path d="M239.026 59.5945V59.5637C239.026 56.6316 241.18 54.0317 244.388 54.0317C246.192 54.0317 247.304 54.549 248.376 55.4533L247.599 56.3678C246.774 55.6519 245.856 55.145 244.347 55.145C241.974 55.145 240.283 57.1488 240.283 59.5328V59.5637C240.283 62.119 241.916 64.0132 244.511 64.0132C245.736 64.0132 246.866 63.5405 247.599 62.9445V60.2864H244.347V59.2006H248.759V63.4652C247.767 64.3524 246.271 65.1025 244.466 65.1025C241.108 65.1025 239.03 62.6568 239.03 59.5979L239.026 59.5945Z" fill="#2D2E30"/>
<path d="M145.061 39.6929L151.042 45.6427H144.982L142.051 42.7551C140.928 43.9677 139.73 44.8617 138.453 45.4269C137.173 45.9955 135.649 46.2798 133.88 46.2798C132.654 46.2798 131.476 46.1188 130.34 45.7968C129.206 45.4783 128.21 45.0022 127.347 44.3719C126.488 43.7451 125.797 42.9744 125.276 42.0598C124.756 41.1487 124.492 40.0833 124.492 38.8708C124.492 38.0179 124.653 37.23 124.961 36.5004C125.276 35.7777 125.701 35.1132 126.235 34.5069C126.769 33.904 127.399 33.3696 128.131 32.9072C128.861 32.4448 129.645 32.0715 130.473 31.7837C130.032 31.335 129.621 30.8931 129.244 30.4649C128.867 30.0368 128.535 29.5983 128.248 29.1496C127.96 28.6975 127.734 28.211 127.563 27.6904C127.392 27.1663 127.31 26.5977 127.31 25.9777C127.31 24.957 127.525 24.0527 127.957 23.2717C128.385 22.4873 128.963 21.8399 129.696 21.3295C130.422 20.8226 131.271 20.4355 132.233 20.1752C133.198 19.9148 134.201 19.7812 135.245 19.7812C136.29 19.7812 137.276 19.9012 138.214 20.1375C139.155 20.3739 139.984 20.7369 140.699 21.2233C141.415 21.7097 141.99 22.3331 142.418 23.0935C142.849 23.854 143.065 24.748 143.065 25.7688C143.065 26.5532 142.907 27.2691 142.596 27.9233C142.284 28.5776 141.87 29.1701 141.343 29.7045C140.826 30.2389 140.23 30.7253 139.566 31.1637C138.905 31.6056 138.231 31.979 137.553 32.2872L142.01 36.6649L145.102 32.3934H150.614L145.061 39.6963V39.6929ZM133.452 34.315C132.979 34.5754 132.524 34.8426 132.082 35.1166C131.641 35.3906 131.237 35.692 130.87 36.0243C130.507 36.3565 130.213 36.7368 129.99 37.1649C129.768 37.5931 129.658 38.0795 129.658 38.6242C129.658 39.1688 129.775 39.6826 130.011 40.1553C130.247 40.628 130.562 41.0356 130.966 41.3644C131.37 41.6967 131.832 41.9604 132.353 42.1488C132.876 42.3372 133.434 42.4331 134.034 42.4331C135.102 42.4331 136.043 42.1694 136.848 41.6487C137.656 41.1281 138.412 40.556 139.118 39.9395L133.448 34.3116L133.452 34.315ZM135.328 23.6279C134.417 23.6279 133.633 23.8609 132.983 24.3233C132.329 24.7857 132.003 25.3988 132.003 26.1593C132.003 26.4915 132.082 26.8204 132.24 27.1389C132.397 27.4609 132.606 27.7795 132.866 28.1015C133.126 28.4234 133.407 28.7248 133.705 29.0126C134.003 29.2969 134.311 29.5709 134.622 29.8312C135.013 29.6394 135.43 29.4202 135.875 29.1702C136.317 28.9235 136.728 28.6358 137.108 28.3138C137.488 27.9953 137.789 27.6459 138.025 27.2622C138.262 26.8854 138.378 26.4573 138.378 25.9811C138.378 25.2926 138.077 24.7309 137.481 24.289C136.879 23.8506 136.163 23.6279 135.331 23.6279H135.328Z" fill="#FD1610"/>
<path d="M10.1302 57.916L27.4189 35.014L15.8166 35.0003L40.9897 0.777563C38.6651 0.27061 36.2515 0 33.7729 0C15.1216 0 0 15.1298 0 33.7912C0 43.2383 3.87887 51.7811 10.1268 57.916H10.1302Z" fill="#FFCE00"/>
<path d="M10.1302 57.916L27.4189 35.014L15.8166 35.0003L40.9897 0.777563C38.6651 0.27061 36.2515 0 33.7729 0C15.1216 0 0 15.1298 0 33.7912C0 43.2383 3.87887 51.7811 10.1268 57.916H10.1302Z" fill="#2F2F31"/>
<path d="M55.0808 7.57666L35.9058 34.4965L46.8576 34.3116L24.1494 66.1914C27.1998 67.0957 30.4315 67.5855 33.7729 67.5855C52.4242 67.5855 67.5459 52.4557 67.5459 33.7978C67.5459 23.2202 62.6845 13.7766 55.0775 7.58009L55.0808 7.57666Z" fill="#FFCE00"/>
<path d="M55.0808 7.57666L35.9058 34.4965L46.8576 34.3116L24.1494 66.1914C27.1998 67.0957 30.4315 67.5855 33.7729 67.5855C52.4242 67.5855 67.5459 52.4557 67.5459 33.7978C67.5459 23.2202 62.6845 13.7766 55.0775 7.58009L55.0808 7.57666Z" fill="#FD1610"/>
</svg>
