<svg width="201" height="66" viewBox="0 0 201 66" fill="none" xmlns="http://www.w3.org/2000/svg">
<path fill-rule="evenodd" clip-rule="evenodd" d="M116.426 53.2094V12.29H109.271V28.8345H87.3231V12.29H80.168V53.2094H87.3231V34.8563H109.271V53.2094H116.426Z" fill="#161616"/>
<path fill-rule="evenodd" clip-rule="evenodd" d="M159.354 25.0906C159.354 16.6128 152.812 12.2866 144.02 12.2866H124.051V53.2094H131.069V37.9494H143.541C152.812 37.9494 159.351 33.5067 159.351 25.0871M152.062 25.0906C152.062 29.475 149.337 32.164 143.883 32.164H131.069V18.0754H143.883C148.858 18.0754 152.062 20.5897 152.062 25.0906Z" fill="#161616"/>
<path fill-rule="evenodd" clip-rule="evenodd" d="M200.43 40.6418C200.43 34.9728 196.137 31.9893 192.388 31.1124C195.866 29.6498 198.454 27.0773 198.454 22.9258C198.454 16.0271 193.069 12.2866 184.753 12.2866H165.123V53.2094H184.072C194.5 53.2094 200.43 48.9414 200.43 40.6418ZM191.296 23.2785C191.296 25.9675 189.385 28.4817 184.685 28.4817H171.871V17.9007H184.685C189.454 17.9007 191.296 20.2403 191.296 23.282V23.2785ZM193.271 40.8164C193.271 44.8515 190.953 47.5986 184.617 47.5986H171.871V34.0342H184.822C190.207 34.0342 193.275 36.6067 193.275 40.8164H193.271Z" fill="#161616"/>
<path d="M66.0122 0H0V65.4039H66.0122V0ZM12.4308 53.1239H12.3178V44.9441H12.4308C26.0906 44.9441 37.1691 30.3282 37.1828 12.2834H53.6875C53.667 34.8428 35.2006 53.1239 12.4308 53.1239Z" fill="#161616"/>
</svg>
