<svg width="239" height="70" viewBox="0 0 239 70" fill="none" xmlns="http://www.w3.org/2000/svg">
<g clip-path="url(#clip0_89_953)">
<path d="M55.8233 55.0433C51.9365 58.87 44.3462 61.1508 35.5018 61.1508C26.6574 61.1508 19.0554 58.87 15.1863 55.0433C11.3055 51.2108 8.98047 43.7267 8.98047 35.0058C8.98047 26.285 11.3055 18.8008 15.1863 14.9742C19.0613 11.1417 26.6634 8.855 35.5018 8.855C44.3403 8.855 51.9365 11.1475 55.8233 14.9742C59.6923 18.8067 62.0173 26.2908 62.0173 35.0058C62.0173 43.7208 59.6923 51.2108 55.8233 55.0433ZM70.9919 35C70.9919 15.6683 55.1015 0 35.4959 0C15.8903 0 0 15.6683 0 35C0 54.3317 15.8903 70 35.4959 70C55.1015 70 70.9919 54.3317 70.9919 35Z" fill="#FC6423"/>
<path d="M42.5951 30.0592V39.9408C42.5951 41.0842 41.6604 42 40.5186 42H30.4732C29.3255 42 28.3967 41.0842 28.3967 39.9408V30.0592C28.3967 28.9158 29.3255 28 30.4732 28H40.5186C41.6604 28 42.5951 28.9158 42.5951 30.0592Z" fill="#FC6423"/>
<path d="M52.2383 18.4917C49.4696 15.7617 42.9029 14 35.496 14C28.0951 14 21.5225 15.7675 18.7538 18.4917C15.9733 21.2158 14.1985 27.7025 14.1985 35C14.1985 42.2975 15.9733 48.7842 18.7538 51.5083C21.5225 54.2325 28.0892 56 35.496 56C42.8969 56 49.4696 54.2325 52.2383 51.5083C55.0188 48.7783 56.7936 42.2975 56.7936 35C56.7936 27.7025 55.0188 21.2158 52.2383 18.4917ZM45.7721 45.0567C45.1924 45.6283 43.4353 47.3608 35.4487 47.3608C27.4621 47.3608 25.6933 45.6342 25.1253 45.0567C24.5456 44.485 22.7885 42.7525 22.7885 34.8833C22.7885 27.0142 24.5396 25.2817 25.1253 24.71C25.6933 24.1383 27.4503 22.4175 35.4487 22.4175C43.4471 22.4175 45.1924 24.1325 45.7721 24.71C46.346 25.2817 48.0971 27.0142 48.0971 34.8833C48.0971 42.7525 46.346 44.485 45.7721 45.0567Z" fill="#FC6423"/>
<path d="M111.451 22.5459C108.227 22.5459 105.63 23.5901 103.654 25.6784L102.595 23.1176H95.8564V46.6026H104.322V34.0317C104.322 31.2317 106.103 29.3826 108.747 29.3826C110.913 29.3826 112.498 30.9926 112.498 33.1334V46.6084H120.964V31.7567C120.964 29.0501 120.1 26.8684 118.319 25.1592C116.539 23.4034 114.279 22.5517 111.439 22.5517H111.451V22.5459Z" fill="#FC6423"/>
<path d="M91.2895 12.2617H82.8237V20.6092H91.2895V12.2617Z" fill="#FC6423"/>
<path d="M91.2895 23.1177H82.8237V46.6027H91.2895V23.1177Z" fill="#FC6423"/>
<path d="M235.882 26.0051C233.812 23.6893 231.167 22.5518 227.943 22.5518C225.05 22.5518 222.696 23.4501 220.862 25.2934L219.797 23.1118H213.07V56.4726H221.53V44.9401C223.411 46.4101 225.523 47.1743 227.937 47.1743C231.161 47.1743 233.806 46.0251 235.876 43.7559C237.935 41.4226 239 38.4826 239 34.8776C239 31.2726 237.935 28.2801 235.876 25.9993H235.882V26.0051ZM225.677 40.6176C223.122 40.6176 221.394 38.7218 221.394 36.1201V33.6526C221.394 30.9984 223.127 29.1026 225.677 29.1026C228.422 29.1026 230.392 31.4709 230.392 34.8893C230.392 38.3076 228.422 40.6234 225.677 40.6234V40.6176Z" fill="#FC6423"/>
<path d="M204.267 12.1567C201.522 12.1567 199.458 14.1517 199.458 16.9459C199.458 19.7401 201.528 21.6884 204.267 21.6884C207.154 21.6884 209.124 19.6467 209.124 16.9459C209.124 14.2451 207.148 12.1567 204.267 12.1567Z" fill="#FC6423"/>
<path d="M208.497 23.1177H200.031V46.6027H208.497V23.1177Z" fill="#FC6423"/>
<path d="M164.719 26.0051C162.216 23.6893 158.939 22.5518 154.958 22.5518C150.976 22.5518 147.74 23.6834 145.184 26.0051C142.629 28.3384 141.38 31.2784 141.38 34.8834C141.38 38.4884 142.635 41.4284 145.184 43.7618C147.74 46.0309 150.964 47.1801 154.958 47.1801C158.951 47.1801 162.216 46.0309 164.719 43.7618C167.275 41.4284 168.523 38.4884 168.523 34.8834C168.523 31.2784 167.269 28.2859 164.719 26.0051ZM154.958 40.7168C152.065 40.7168 150.041 38.2959 150.041 34.8834C150.041 31.4709 152.065 28.9976 154.958 28.9976C157.85 28.9976 159.915 31.4184 159.915 34.8834C159.915 38.3484 157.845 40.7168 154.958 40.7168Z" fill="#FC6423"/>
<path d="M137.914 19.2736C138.683 19.2736 139.6 19.3669 140.706 19.5594L141.765 13.3936C139.789 12.8686 137.819 12.6353 135.849 12.6353C133.205 12.6353 131.039 13.3936 129.353 14.9103C127.714 16.4269 126.898 18.4219 126.898 20.9361V23.1178H122.905V29.4294H126.898V46.6028H135.364V29.4294H140.274V23.1178H135.364V21.7878C135.364 20.2244 136.375 19.2736 137.914 19.2736Z" fill="#FC6423"/>
<path d="M193.819 26.0049C191.761 23.689 189.104 22.5515 185.88 22.5515C183.425 22.5515 181.319 23.2982 179.485 24.7682V13.2007H171.013V46.5965H177.751L178.816 44.4149C180.638 46.2582 182.999 47.1682 185.886 47.1682C189.11 47.1682 191.766 46.019 193.825 43.7499C195.896 41.4165 196.961 38.4765 196.961 34.8715C196.961 31.2665 195.896 28.274 193.825 25.9932V26.0049H193.819ZM183.632 40.6174C181.076 40.6174 179.349 38.7215 179.349 36.1199V33.6523C179.349 30.9982 181.082 29.1024 183.632 29.1024C186.365 29.1024 188.335 31.4707 188.335 34.889C188.335 38.3074 186.365 40.6232 183.632 40.6232V40.6174Z" fill="#FC6423"/>
</g>
<defs>
<clipPath id="clip0_89_953">
<rect width="239" height="70" fill="white"/>
</clipPath>
</defs>
</svg>
