<svg width="331" height="77" viewBox="0 0 331 77" fill="none" xmlns="http://www.w3.org/2000/svg">
<path d="M66.4975 66.886V9.52051L47.1679 28.8799V47.4336H28.6448L9.22559 66.886H66.4975Z" fill="#58595B"/>
<path d="M18.5733 19.5311V25.8183L10.3261 20.8917V11.1995L18.5733 19.5311ZM20.7561 10.6195L25.7309 18.876H19.4694L11.2974 10.6195H20.7561ZM16.3009 1.09913H29.8922L31.6126 9.52028H21.3797L16.3009 1.09913ZM15.0142 1.09913L20.093 9.52028H10.2114L1.87094 1.09913H15.0142ZM1.10035 15.385V1.88689L9.2329 10.0932V20.2365L1.10035 15.3886V15.385ZM1.10035 30.1113V16.6739L9.2329 21.5183V31.7368L1.10035 30.1148V30.1113ZM10.3297 31.9552V22.1771L18.5769 27.1037V33.6058L10.3297 31.9588V31.9552ZM10.3297 42.9793V33.0759L18.5769 34.7229V41.3252L10.3297 42.9757V42.9793ZM1.10035 44.8232V31.2356L9.2329 32.8575V43.2013L1.10035 44.8232ZM9.2329 54.5727L1.1075 59.4278V45.9403L9.2329 44.3183V54.5727ZM18.5733 42.4709V49.0051L10.3261 53.9175V44.1L18.5733 42.4709ZM54.34 9.52028H44.4118L46.2433 1.09913H59.4152L54.34 9.52028ZM53.677 10.6195L48.72 18.876H42.376L44.1717 10.6195H53.677ZM43.0283 10.6195L41.2362 18.876H34.6198L32.9531 10.6195H43.0319H43.0283ZM22.0249 10.6195H31.8026L33.4728 18.876H26.9997L22.0249 10.6195ZM30.9997 1.09913H45.0928L43.2828 9.52028H32.7273L31.0033 1.09913H30.9997ZM74.8811 1.09913L75.9814 0H0V76.1304L1.10035 75.0276V60.7023L9.2329 55.8581V66.8929L10.3332 65.7866V55.1993L18.5805 50.269V57.5194L19.6808 56.4166V49.6138L28.5123 44.3363L28.5553 44.3113V43.0294L19.6772 48.3177V42.2346L28.48 40.473H28.5481V39.3523L19.6736 41.096V34.9448L28.4478 36.6993L28.5481 36.7207V35.5929L19.6736 33.8206V27.7589L28.4227 32.9828L28.5481 33.0544V31.7762L19.6736 26.4772V20.6303L28.4048 29.4454L28.5445 29.585V28.8044H29.3151L20.5518 19.968H26.4048L31.7166 28.7758L31.7417 28.8188H33.0284L27.6915 19.968H33.7058L35.4836 28.7471V28.8152H36.6054L34.8169 19.9644H40.9817L39.0928 28.7078L39.0713 28.808H40.2111L42.1394 19.9572H48.0605L42.7416 28.808H44.0247L49.3436 19.9572H56.0461L57.1429 18.858H50.0032L54.9601 10.6016H65.3829L66.4797 9.50236H55.6196L60.6805 1.08129L74.8631 1.09554L74.8811 1.09913Z" fill="#DA2032"/>
<path d="M98.4898 31.2324H86.8018V59.4425H98.4898V31.2324Z" fill="#58595B"/>
<path d="M104.308 31.2324H113.383L124.953 42.1384H125.311V31.2324H135.275V59.446H125.845L114.508 48.4828H114.214V59.446H104.308V31.2324Z" fill="#58595B"/>
<path d="M151.776 45.4C151.776 48.8408 153.615 51.3257 157.529 51.741V43.7996H169.217V57.2584C165.367 59.1166 161.152 60.1084 156.877 60.1657C148.332 60.1657 139.493 56.7858 139.493 46.356C139.493 35.9263 147.798 30.7061 158.428 30.7061C161.751 30.7061 166.694 31.1822 169.228 32.1883V41.4366C167.267 40.255 163.296 39.188 159.912 39.188C155.819 39.188 151.787 40.724 151.787 45.4108" fill="#58595B"/>
<path d="M193.418 42.3779H174.253V48.0673H193.418V42.3779Z" fill="#58595B"/>
<path d="M209.794 45.4C209.794 48.8408 211.632 51.3257 215.546 51.741V43.7996H227.234V57.2584C223.385 59.1166 219.17 60.1084 214.894 60.1657C206.349 60.1657 197.511 56.7858 197.511 46.356C197.511 35.9263 205.815 30.7061 216.446 30.7061C219.769 30.7061 224.711 31.1822 227.245 32.1883V41.4366C225.285 40.255 221.313 39.188 217.948 39.188C213.855 39.188 209.819 40.724 209.819 45.4108" fill="#58595B"/>
<path d="M244.084 38.8193V45.2211C247.765 45.1638 248.833 44.3904 248.833 41.8447C248.833 39.829 247.457 38.8229 244.206 38.8229H244.084V38.8193ZM232.399 31.2324H249.188C256.249 31.2324 261.116 35.5003 261.116 41.8949C261.116 44.992 259.575 48.1212 256.489 50.2516L262.363 59.439H249.969L247.181 52.8009H244.08V59.439H232.403V31.2324H232.399Z" fill="#58595B"/>
<path d="M277.073 48.5401H281.998L281.166 45.4431L279.98 41.1179H279.682L278.26 45.2211L277.073 48.5401ZM274.521 31.2324H287.091L297.356 59.4354H285.08L283.955 55.4038H274.697L273.27 59.4354H262.356L274.521 31.2324Z" fill="#58595B"/>
<path d="M312.316 39.4739V51.325C316.527 51.0887 318.484 49.1338 318.484 45.3994C318.484 41.0743 316.524 39.5885 312.316 39.4739ZM300.61 31.2175H313.958C322.911 31.3965 330.75 33.9457 330.75 44.6297C330.75 54.0533 323.334 59.0909 314.015 59.4454H300.624L300.606 31.2139L300.61 31.2175Z" fill="#58595B"/>
</svg>
