<svg width="183" height="80" viewBox="0 0 183 80" fill="none" xmlns="http://www.w3.org/2000/svg">
<path d="M83.8182 5.69971H75.1738V14.3487H83.8182V5.69971Z" fill="#4CC2DE"/>
<path d="M113.212 0H107.512V5.70319H113.212V0Z" fill="#4CC2DE"/>
<path d="M113.147 29.0229H98.4844V43.6937H113.147V29.0229Z" fill="#4CC2DE"/>
<path d="M98.4813 14.3486H83.8184V29.0195H98.4813V14.3486Z" fill="#141D33"/>
<path d="M103.925 65.9243C100.659 65.9243 98.5463 64.835 98.5463 60.8V50.5478V43.7554H83.8184V60.0293V63.4923C83.8184 73.2306 89.9671 79.1873 100.084 79.1873C104.757 79.1873 107.256 78.098 107.831 77.8445V65.479C106.544 65.729 105.236 65.8763 103.925 65.9243Z" fill="#141D33"/>
<path d="M0 78.2901V29.5986H15.6866V78.2901H0Z" fill="#141D33"/>
<path d="M43.5435 78.2901H28.624V29.5335H43.03V35.1066C45.6559 30.4961 51.6745 28.2524 56.6694 28.2524C68.8982 28.2524 74.4066 36.9665 74.4066 47.6639V78.2866H59.487V50.2261C59.487 45.4203 56.9262 41.7689 51.5478 41.7689C46.618 41.7689 43.4785 45.4203 43.4785 50.2912V78.2901H43.5435Z" fill="#141D33"/>
<path d="M134.599 29.5337H119.68V78.2902H134.599V29.5337Z" fill="#141D33"/>
<path d="M155.215 62.208C155.407 65.5409 157.776 68.8052 162.836 68.8052C166.677 68.8052 168.536 66.7534 168.536 64.5749C168.536 62.78 167.382 61.3071 163.733 60.5398L158.163 59.2588C147.789 57.0151 143.626 51.1235 143.626 44.266C143.626 35.36 151.439 28.0571 162.326 28.0571C176.413 28.0571 181.343 36.898 181.857 42.6012L169.498 44.8448C169.114 41.577 167.064 38.8881 162.521 38.8881C159.703 38.8881 157.207 40.5528 157.207 43.1184C157.207 45.1702 158.871 46.3862 161.049 46.7699L167.516 48.0509C177.632 50.1027 182.5 56.1862 182.5 63.3623C182.5 71.6894 176.098 79.828 163.099 79.828C147.796 79.828 142.928 69.8979 142.479 64.5167L155.222 62.2114L155.215 62.208Z" fill="#141D33"/>
</svg>
