<svg width="277" height="44" viewBox="0 0 277 44" fill="none" xmlns="http://www.w3.org/2000/svg">
<g clip-path="url(#clip0_89_1063)">
<path d="M114.619 12.2906C117.94 8.52235 122.064 9.40129 125.99 9.53725C127.561 9.59067 129.137 9.89174 130.23 11.2466C130.54 11.6302 130.752 11.3631 130.98 11.164C132.121 10.1588 133.484 9.74121 134.963 9.56639C137.26 9.29446 139.552 9.27503 141.838 9.5761C145.116 10.0034 146.05 11.0669 146.059 14.4078C146.074 19.8319 146.059 25.2512 146.059 30.6753C146.059 32.2924 146.021 33.9045 146.079 35.5216C146.103 36.2451 145.88 36.4248 145.179 36.4151C142.496 36.3714 139.813 36.3665 137.134 36.4151C136.317 36.4296 136.124 36.1868 136.129 35.3905C136.162 29.0049 136.148 22.6241 136.148 16.2385C136.148 13.6745 134.345 12.5674 132 13.7085C131.187 14.1019 130.757 14.6846 130.767 15.6946C130.81 22.2308 130.767 28.7669 130.815 35.3079C130.82 36.2548 130.535 36.4296 129.669 36.4151C127.025 36.3617 124.38 36.3617 121.74 36.4151C120.957 36.4296 120.807 36.1771 120.812 35.4487C120.841 28.9903 120.826 22.527 120.831 16.0685C120.831 15.0391 120.812 14.0242 119.642 13.5726C118.399 13.0918 116.557 13.5094 115.793 14.3592C115.402 14.7914 115.46 15.2722 115.46 15.7626C115.46 22.2599 115.436 28.7621 115.484 35.2594C115.494 36.2451 115.204 36.4442 114.28 36.4199C111.713 36.352 109.146 36.352 106.578 36.4199C105.674 36.4442 105.524 36.148 105.529 35.3176C105.558 27.1256 105.563 18.9384 105.529 10.7464C105.529 9.87717 105.679 9.55182 106.636 9.58581C108.933 9.66351 111.234 9.65865 113.531 9.58581C114.445 9.55668 114.778 9.80919 114.643 10.7221C114.585 11.13 114.633 11.5525 114.633 12.2857L114.619 12.2906Z" fill="#002335"/>
<path d="M72.8312 36.3954C69.5436 36.3954 66.401 36.376 63.2583 36.41C62.6056 36.4148 62.5428 36.0263 62.3977 35.5747C61.1069 31.4326 59.9803 27.2467 58.9747 23.0269C58.791 22.2499 57.2584 21.6575 56.6395 22.1431C56.3204 22.3956 56.4848 22.7938 56.4848 23.124C56.4751 27.203 56.4509 31.2772 56.4993 35.3562C56.509 36.2303 56.2817 36.4391 55.426 36.4197C52.8587 36.3565 50.2914 36.376 47.7241 36.41C47.0231 36.4197 46.7427 36.308 46.7427 35.497C46.7717 24.0758 46.7717 12.6497 46.7427 1.22841C46.7427 0.466021 46.9989 0.35919 47.6613 0.368902C50.2286 0.402894 52.7958 0.422318 55.3631 0.364046C56.2382 0.344622 56.509 0.543717 56.4993 1.47606C56.4509 7.20612 56.4654 12.9362 56.4896 18.6662C56.4896 19.0935 56.1028 19.8851 57.094 19.7928C57.824 19.7248 58.7378 20.2444 59.0086 18.8653C59.5839 15.9663 60.4928 13.1498 61.4501 10.3528C61.5952 9.93032 61.6822 9.59526 62.2624 9.60011C65.2841 9.62439 68.3107 9.61468 71.5065 9.61468C70.1334 12.9313 68.8377 16.1557 67.4549 19.3412C67.0972 20.1716 67.0343 20.8077 67.4018 21.6866C69.413 26.4503 71.0085 31.3695 72.8216 36.4002L72.8312 36.3954Z" fill="#002335"/>
<path d="M191.753 12.261C195.253 8.4782 199.503 9.2503 203.627 9.70676C205.687 9.93499 206.547 11.0567 206.634 13.1496C206.721 15.3008 206.654 17.452 206.697 19.6081C206.707 20.186 206.499 20.3074 205.972 20.3025C203.559 20.2782 201.147 20.2637 198.734 20.3074C198.019 20.3219 197.932 20.0209 197.946 19.4236C197.98 18.1173 197.98 16.8111 197.946 15.5048C197.912 13.98 197.153 13.3536 195.442 13.3876C193.6 13.4216 192.613 14.2034 192.613 15.6408C192.613 22.2158 192.594 28.7907 192.638 35.3609C192.642 36.2447 192.41 36.4438 191.559 36.4243C188.92 36.3661 186.275 36.3855 183.63 36.4146C183.002 36.4195 182.688 36.3661 182.688 35.5745C182.721 27.1931 182.717 18.8117 182.692 10.4352C182.692 9.78446 182.862 9.59022 183.519 9.60479C185.893 9.64364 188.272 9.66306 190.641 9.59993C191.535 9.57565 191.888 9.80874 191.753 10.7217C191.69 11.1296 191.743 11.5569 191.743 12.2707L191.753 12.261Z" fill="#002335"/>
<path d="M13.4214 28.116C13.3489 26.8 13.3489 26.8194 14.9927 26.7029C17.5503 26.5232 20.1128 26.3629 22.6607 26.1056C23.4391 26.0279 23.6519 26.2367 23.6954 26.9748C23.8598 29.6213 24.0386 32.2678 24.2901 34.9046C24.3674 35.7253 24.0435 35.8612 23.3521 35.9049C20.5237 36.0846 17.7002 36.2837 14.8815 36.5508C14.079 36.6285 14.0016 36.2594 13.9629 35.6524C13.8034 33.239 13.6197 30.8256 13.4214 28.116Z" fill="#B11F29"/>
<path d="M11.8597 15.2089C11.2989 18.1322 10.7526 20.9195 10.2352 23.7117C10.1482 24.1973 9.90648 24.241 9.51486 24.1681C6.51245 23.5903 3.51004 23.0173 0.50763 22.4394C0.140186 22.3714 -0.0822149 22.2889 0.0289854 21.7741C0.609161 19.0354 1.16516 16.2917 1.65348 13.5335C1.77918 12.8246 2.07894 12.776 2.64945 12.8877C5.50198 13.4461 8.35451 13.9852 11.207 14.529C11.6567 14.6164 12.0821 14.7233 11.8549 15.2137L11.8597 15.2089Z" fill="#B11F29"/>
<path d="M13.5566 5.89033C13.6582 4.47238 13.7742 3.05929 13.8467 1.64135C13.8709 1.15089 14.0208 0.980934 14.5333 1.01493C17.5453 1.22859 20.5623 1.41312 23.5743 1.59764C24.0675 1.62678 24.2029 1.82102 24.1642 2.32604C23.9466 5.11823 23.7484 7.91041 23.5937 10.7075C23.555 11.3679 23.2939 11.4213 22.7379 11.3776C19.8806 11.1591 17.0184 10.9503 14.1562 10.7997C13.4116 10.7609 13.165 10.5715 13.2617 9.78967C13.4213 8.49798 13.4648 7.19173 13.5566 5.89033Z" fill="#B11F29"/>
<path d="M28.5833 12.883C31.3681 13.1404 34.1094 13.4171 36.8556 13.6405C37.605 13.7036 37.8903 13.9027 37.7936 14.738C37.4938 17.2922 37.2666 19.8562 37.0635 22.4201C37.0007 23.2214 36.8024 23.5321 35.8983 23.4205C33.128 23.0854 30.3431 22.828 27.5583 22.6046C26.8524 22.5464 26.659 22.3473 26.7315 21.6383C27.0168 18.9675 27.2779 16.287 27.4616 13.6065C27.5245 12.6596 28.0466 12.8101 28.5784 12.8781L28.5833 12.883Z" fill="#B11F29"/>
<path d="M37.4889 5.27361C37.5614 6.61386 37.6049 7.95896 37.7258 9.29436C37.779 9.90135 37.5179 10.0082 37.0199 10.0325C34.0803 10.183 31.1408 10.3384 28.2012 10.5278C27.592 10.5666 27.4277 10.3675 27.3986 9.7751C27.2729 7.0169 27.1182 4.25385 26.9345 1.50051C26.8958 0.92751 27.0747 0.78183 27.6065 0.747838C30.6186 0.568167 33.6355 0.369072 36.6428 0.155409C37.2713 0.111706 37.2036 0.543887 37.2278 0.90323C37.3245 2.36002 37.397 3.81682 37.4792 5.26875H37.4889V5.27361Z" fill="#B11F29"/>
<path d="M29.3279 26.2562C31.8517 26.4407 34.3706 26.6495 36.8944 26.8C37.6051 26.8437 37.8613 27.0428 37.7888 27.8198C37.5374 30.5003 37.3392 33.1856 37.1748 35.871C37.1361 36.4877 36.9427 36.6431 36.348 36.5945C33.4085 36.3517 30.4641 36.1187 27.5197 35.9438C26.7268 35.8953 26.8235 35.4825 26.867 34.9532C27.07 32.4621 27.3311 29.971 27.4085 27.475C27.4423 26.3242 27.8098 25.9697 28.8734 26.2222C29.0185 26.2562 29.178 26.2465 29.3327 26.2562H29.3279Z" fill="#B11F29"/>
<path d="M5.56476 0.757437C6.97652 0.645749 8.38828 0.558342 9.79521 0.422374C10.3899 0.364103 10.6751 0.446654 10.7187 1.16048C10.8782 3.87983 11.0958 6.59432 11.3182 9.30881C11.3617 9.85268 11.3182 10.144 10.6558 10.1829C7.6824 10.3674 4.709 10.5908 1.7356 10.8287C1.17476 10.8724 1.02972 10.6879 0.995877 10.144C0.816989 7.3907 0.609093 4.63251 0.372188 1.88402C0.319005 1.26731 0.512397 1.0925 1.10708 1.06336C2.59619 0.99538 4.08048 0.864268 5.56959 0.757437H5.56476Z" fill="#B11F29"/>
<path d="M11.352 28.6261C11.1827 30.9667 10.9942 33.3024 10.854 35.6478C10.8105 36.3811 10.6558 36.7404 9.78549 36.653C6.92329 36.3762 4.05626 36.1771 1.18922 35.9829C0.657397 35.9489 0.45917 35.8129 0.507518 35.2399C0.734754 32.4817 0.93298 29.7187 1.1167 26.9556C1.15538 26.3729 1.35361 26.1787 1.96279 26.2321C4.90235 26.4846 7.84674 26.6983 10.7863 26.9071C11.2553 26.9411 11.5067 27.0673 11.4245 27.5918C11.3713 27.9317 11.3761 28.2813 11.3568 28.6261C11.3568 28.6261 11.352 28.6261 11.3471 28.6261H11.352Z" fill="#B11F29"/>
<path d="M19.1749 23.4786C17.7583 23.4786 16.3369 23.4543 14.9203 23.4883C14.3159 23.5028 14.0355 23.3912 14.0452 22.687C14.0838 19.958 14.079 17.2289 14.0452 14.4999C14.0403 13.8929 14.2241 13.7132 14.8236 13.7181C17.7341 13.7472 20.6447 13.752 23.56 13.7181C24.2369 13.7083 24.3916 13.9463 24.3868 14.5824C24.3578 17.2726 24.353 19.9628 24.3868 22.6579C24.3965 23.3135 24.1886 23.5174 23.5407 23.498C22.0854 23.4543 20.6302 23.4834 19.1749 23.4834V23.4786Z" fill="#B11F29"/>
<path d="M175.218 9.60013C173.303 9.63412 171.384 9.60499 169.469 9.6147C168.705 9.6147 167.767 9.38161 167.231 9.74095C166.665 10.1197 167.182 11.1492 166.984 11.8679C166.622 11.9601 166.472 11.6736 166.307 11.5085C164.891 10.1003 163.126 9.58071 161.202 9.45445C159.481 9.34276 157.75 9.31363 156.033 9.46416C152.398 9.78466 151.692 10.5665 151.682 14.2327C151.672 19.5792 151.672 24.9256 151.682 30.272C151.682 30.9616 151.769 31.6511 151.837 32.3358C151.967 33.6566 152.741 34.5259 153.988 34.7055C158.137 35.3028 162.333 35.9729 165.834 32.6709C165.867 32.6369 165.974 32.6757 166.109 32.6854C166.109 34.1665 166.109 35.6573 166.109 37.1432C166.109 39.411 165.471 40.1199 163.194 40.1685C160.742 40.2219 158.286 40.1879 155.835 40.1928C153.05 40.1928 153.079 40.1928 153.074 43.019C153.074 43.7619 153.253 44.0096 154.027 43.995C156.976 43.9513 159.93 43.9173 162.879 43.995C165.427 44.063 167.922 43.7182 170.417 43.3249C171.481 43.1598 172.515 42.8684 173.472 42.3683C175.15 41.4942 176.059 40.1054 176.064 38.2018C176.078 28.9318 176.064 19.6617 176.088 10.3917C176.088 9.67297 175.813 9.59528 175.218 9.60499V9.60013ZM165.166 30.845C164.33 31.2141 163.435 31.1995 162.57 30.9859C161.724 30.777 161.279 30.1506 161.274 29.2911C161.26 24.6002 161.226 19.9045 161.294 15.2136C161.318 13.5869 163.29 12.8342 165.166 13.6549C166.017 14.0288 166.564 14.5824 166.525 15.675C166.443 17.865 166.501 20.0599 166.501 22.2499C166.501 24.4448 166.443 26.6398 166.525 28.8249C166.564 29.9175 166.017 30.4614 165.166 30.8402V30.845Z" fill="#002335"/>
<path d="M263.656 1.18956C263.656 0.500009 263.424 0.364042 262.8 0.368898C260.078 0.398034 257.356 0.42717 254.639 0.359186C253.72 0.334906 253.59 0.655401 253.6 1.4712C253.643 4.9238 253.619 8.3764 253.619 11.9795C250.568 9.80892 250.351 9.66809 248.257 9.47871C246.309 9.30389 244.355 9.28447 242.412 9.60496C240.154 9.97402 239.347 10.7316 239.298 12.9944C239.153 19.686 239.153 26.3775 239.298 33.0642C239.347 35.2737 240.149 36.0603 242.334 36.3905C244.583 36.7304 246.84 36.6965 249.098 36.5168C250.916 36.376 252.536 35.803 253.861 34.4967C254.025 34.3365 254.18 34.0354 254.547 34.1908C254.547 34.5258 254.591 34.8803 254.537 35.2154C254.392 36.1526 254.721 36.4585 255.698 36.4245C258.072 36.3468 260.45 36.376 262.824 36.4148C263.487 36.4245 263.656 36.2206 263.656 35.5699C263.637 24.1098 263.637 12.6497 263.656 1.18956ZM253.044 32.1755C251.975 32.7485 250.82 32.8214 249.727 32.3115C248.668 31.8162 248.77 30.7576 248.77 29.7961C248.77 25.1926 248.77 20.5843 248.77 15.9809C248.77 14.9417 248.842 13.9511 250.036 13.548C251.361 13.1013 253.126 13.5674 253.836 14.4852C254.112 14.8397 254.049 15.2039 254.054 15.5778C254.059 18.0738 254.054 20.5649 254.054 23.0609C254.054 25.5568 254.015 27.9751 254.078 30.4274C254.102 31.3015 253.716 31.8211 253.048 32.1755H253.044Z" fill="#002335"/>
<path d="M99.2535 35.599C99.239 31.9085 99.2438 28.2131 99.2438 24.5226H99.239C99.239 20.9437 99.268 17.3697 99.2293 13.7909C99.2003 11.0424 98.3929 10.0469 95.6661 9.60015C91.2181 8.8669 86.7217 9.13398 82.2447 9.2311C80.8329 9.26024 79.4212 9.39135 78.0433 9.79439C76.6798 10.1974 75.9159 11.0278 75.7225 12.4652C75.5727 13.5772 75.6452 14.6941 75.5775 15.8012C75.5388 16.4568 75.8289 16.5588 76.3849 16.5491C78.5316 16.5248 80.6782 16.5393 82.8249 16.5393C83.8402 16.5393 84.372 16.0214 84.4204 14.9854C84.4929 13.3732 85.1407 12.8342 87.0021 12.8294C88.9554 12.8245 89.6323 13.349 89.6661 15.0146C89.7048 16.8598 89.6081 18.71 89.7048 20.5504C89.758 21.5896 89.434 21.6673 88.4961 21.5847C85.1021 21.2933 81.6839 21.1088 78.3188 21.8663C76.4139 22.2937 75.621 23.3571 75.5968 25.3238C75.5678 27.7469 75.563 30.1701 75.5968 32.5932C75.6307 35.2543 76.3462 36.0798 78.9329 36.5557C79.2326 36.6091 79.542 36.6382 79.8466 36.6577C86.0497 37.0461 92.2527 36.8907 98.4606 36.6285C99.2777 36.5945 99.2583 36.1866 99.2583 35.599H99.2535ZM88.9651 33.1856C88.7378 33.1856 88.5106 33.2585 88.2834 33.2876C85.1601 33.6858 84.4107 33.0351 84.4107 29.9321C84.4107 28.6647 84.3817 27.3973 84.4252 26.1348C84.4735 24.7799 85.0585 24.2215 86.4123 24.1195C88.5847 23.9512 89.6709 24.9499 89.6709 27.1157C89.6709 27.6547 89.6709 28.1888 89.6709 28.7278C89.6709 29.9176 89.6419 31.1073 89.6854 32.297C89.7048 32.8554 89.5742 33.1808 88.9651 33.1953V33.1856Z" fill="#002335"/>
<path d="M233.598 35.5847C233.588 31.8942 233.593 28.2037 233.593 24.5083C233.593 20.9683 233.617 17.4331 233.584 13.8931C233.559 11.0426 232.781 10.0374 230.006 9.60041C225.287 8.85745 220.53 9.10025 215.782 9.28477C214.675 9.32848 213.577 9.4693 212.494 9.76551C211.024 10.1637 210.173 11.0523 210.072 12.5917C210.004 13.5872 210.014 14.5875 209.927 15.583C209.859 16.3259 210.077 16.5833 210.865 16.5639C213.045 16.5105 215.235 16.4813 217.416 16.5736C218.504 16.6222 218.862 16.3599 218.808 15.2139C218.721 13.3929 219.408 12.8393 221.361 12.8345C223.382 12.8345 224.02 13.3929 224.044 15.2528C224.064 17.0592 223.986 18.8705 224.073 20.672C224.117 21.6432 223.779 21.6724 222.957 21.5995C219.558 21.2985 216.144 21.1236 212.779 21.8472C210.778 22.2745 209.985 23.3088 209.956 25.3338C209.917 27.7569 209.912 30.18 209.956 32.6032C210.004 35.3079 210.758 36.1383 213.413 36.5802C213.64 36.6191 213.867 36.6385 214.099 36.6531C220.341 37.0561 226.583 36.8959 232.824 36.6336C233.646 36.5996 233.608 36.1626 233.608 35.5896L233.598 35.5847ZM223.368 33.1762C223.14 33.1907 222.913 33.249 222.686 33.2781C219.505 33.7006 218.765 33.0548 218.77 29.8693C218.77 28.6018 218.746 27.3344 218.789 26.0719C218.833 24.8239 219.393 24.2606 220.607 24.1295C223.89 23.775 224.044 23.911 224.044 27.179C224.044 27.6792 224.044 28.1794 224.044 28.6747C224.044 29.9032 224.02 31.1318 224.054 32.3604C224.069 32.8897 223.899 33.1519 223.368 33.181V33.1762Z" fill="#002335"/>
<path d="M272.465 0.00978235C270.246 0.165174 267.988 1.63168 267.94 4.72008C267.901 7.30831 269.825 9.29441 272.359 9.33811C274.873 9.37696 276.985 7.29375 277 4.75893C277.01 2.34065 274.776 -0.150465 272.47 0.00978235H272.465ZM272.431 8.50288C270.381 8.50288 268.945 6.94897 268.945 4.7395C268.945 2.56403 270.425 0.961554 272.436 0.956698C274.442 0.956698 275.922 2.55917 275.922 4.7395C275.922 6.92955 274.467 8.50288 272.431 8.50288Z" fill="#002335"/>
<path d="M273.959 4.82195C274.457 4.62771 274.549 4.04985 274.481 3.52055C274.404 2.92812 274.08 2.51536 273.49 2.39396C272.595 2.21429 271.686 2.14145 270.802 2.42795C270.71 2.45709 270.7 2.84557 270.7 3.06894C270.691 4.21981 270.686 5.37553 270.7 6.5264C270.7 6.87117 270.526 7.37134 271.169 7.34706C271.759 7.32763 271.469 6.85175 271.546 6.56524C271.667 6.12335 271.218 5.44837 271.817 5.25413C272.576 5.01133 272.634 5.87569 272.968 6.2836C273.113 6.45841 273.234 6.66236 273.33 6.86631C273.577 7.37619 273.954 7.46846 274.495 7.24022C274.249 6.83232 274.031 6.42928 273.77 6.06022C273.422 5.56977 273.06 5.17158 273.964 4.82195H273.959ZM272.223 4.50145C271.546 4.58401 271.551 4.19067 271.512 3.67594C271.454 2.86013 271.962 2.96211 272.605 2.98639C272.968 3.03495 273.645 2.97668 273.606 3.72935C273.562 4.60343 272.798 4.42861 272.218 4.4966L272.223 4.50145Z" fill="#002335"/>
</g>
<defs>
<clipPath id="clip0_89_1063">
<rect width="277" height="44" fill="white"/>
</clipPath>
</defs>
</svg>
