<?xml version="1.0" encoding="UTF-8"?>
<svg id="Layer_2" data-name="Layer 2" xmlns="http://www.w3.org/2000/svg" viewBox="0 0 1042.02 538.12">
  <defs>
    <style>
      .cls-1 {
        fill: #f3b400;
        fill-rule: evenodd;
      }

      .cls-1, .cls-2 {
        stroke-width: 0px;
      }

      .cls-2 {
        fill: #1a1a18;
      }

      .cls-3 {
        stroke: #f3b400;
      }

      .cls-3, .cls-4 {
        fill: none;
        stroke-miterlimit: 22.93;
        stroke-width: .22px;
      }

      .cls-4 {
        stroke: #1a1a18;
      }
    </style>
  </defs>
  <g id="SVG">
    <g>
      <path class="cls-2" d="M613.69,206.99h154.98v-44.6h-76.41l72.72-67.04v-40.86h-144.82v44.6h68.09l-74.56,66.75v41.15ZM478.43,113.48c.92-18.13,11.4-28.49,28.35-28.49,18.49,0,28.35,9.5,29.58,28.49h-57.93ZM532.97,161.82c-3.08,8.06-11.71,12.66-24.34,12.66-18.8,0-29.58-10.93-30.2-30.5h122.01v-3.74c0-57.55-35.13-91.5-93.05-91.5s-93.98,31.94-93.98,83.16,34.82,80.57,91.51,80.57c50.53,0,81.34-17.55,90.28-50.64h-62.24ZM211.6,206.99h65.01v-78.84c0-20.72,8.01-30.79,24.34-30.79,17.87,0,22.18,9.5,22.18,30.5v79.13h65.01v-79.41c0-26.47-.92-44.89-13.56-58.99-10.78-12.08-26.5-18.42-46.53-18.42-23.73,0-42.21,8.63-57.31,26.47v-22.44h-59.16v152.79ZM4.85,206.99h65.01v-44.02l11.09-10.65,35.74,54.67h77.34l-69.02-96.39,60.7-56.4h-73.02l-42.83,46.9V.11H4.85v206.88Z"/>
      <path class="cls-4" d="M613.69,206.99h154.98v-44.6h-76.41l72.72-67.04v-40.86h-144.82v44.6h68.09l-74.56,66.75v41.15ZM478.43,113.48c.92-18.13,11.4-28.49,28.35-28.49,18.49,0,28.35,9.5,29.58,28.49h-57.93ZM532.97,161.82c-3.08,8.06-11.71,12.66-24.34,12.66-18.8,0-29.58-10.93-30.2-30.5h122.01v-3.74c0-57.55-35.13-91.5-93.05-91.5s-93.98,31.94-93.98,83.16,34.82,80.57,91.51,80.57c50.53,0,81.34-17.55,90.28-50.64h-62.24ZM211.6,206.99h65.01v-78.84c0-20.72,8.01-30.79,24.34-30.79,17.87,0,22.18,9.5,22.18,30.5v79.13h65.01v-79.41c0-26.47-.92-44.89-13.56-58.99-10.78-12.08-26.5-18.42-46.53-18.42-23.73,0-42.21,8.63-57.31,26.47v-22.44h-59.16v152.79ZM4.85,206.99h65.01v-44.02l11.09-10.65,35.74,54.67h77.34l-69.02-96.39,60.7-56.4h-73.02l-42.83,46.9V.11H4.85v206.88Z"/>
      <path class="cls-2" d="M919.8,403.09c0-27.36,6.97-39.87,26.38-39.87s26.69,12.51,26.69,39.87-7.28,40.16-26.69,40.16-26.38-12.8-26.38-40.16ZM855.21,403.09c0,51.22,34.27,82.94,90.97,82.94s90.97-31.72,90.97-82.94-34.27-82.65-90.97-82.65-90.97,31.43-90.97,82.65ZM720.57,404.83c0-24.15,8.49-35.8,26.38-35.8s26.08,11.64,26.08,35.8-10.01,35.8-26.08,35.8-26.38-12.8-26.38-35.8ZM658.71,480.5h56.71v-18.92c13.95,16.59,31.23,24.45,52.76,24.45,40.63,0,69.14-31.72,69.14-82.07s-28.2-82.36-70.05-82.36c-17.89,0-33.36,6.99-46.09,20.66v-71.01h-62.47v209.25Z"/>
      <path class="cls-4" d="M919.8,403.09c0-27.36,6.97-39.87,26.38-39.87s26.69,12.51,26.69,39.87-7.28,40.16-26.69,40.16-26.38-12.8-26.38-40.16ZM855.21,403.09c0,51.22,34.27,82.94,90.97,82.94s90.97-31.72,90.97-82.94-34.27-82.65-90.97-82.65-90.97,31.43-90.97,82.65ZM720.57,404.83c0-24.15,8.49-35.8,26.38-35.8s26.08,11.64,26.08,35.8-10.01,35.8-26.08,35.8-26.38-12.8-26.38-35.8ZM658.71,480.5h56.71v-18.92c13.95,16.59,31.23,24.45,52.76,24.45,40.63,0,69.14-31.72,69.14-82.07s-28.2-82.36-70.05-82.36c-17.89,0-33.36,6.99-46.09,20.66v-71.01h-62.47v209.25Z"/>
      <path class="cls-1" d="M821.15,53.57h194.3c14.56,0,26.47,8.6,26.47,19.11v114.8c0,10.51-11.91,19.11-26.47,19.11h-194.3c-14.56,0-26.47-8.6-26.47-19.11v-114.8c0-10.51,11.91-19.11,26.47-19.11Z"/>
      <path class="cls-3" d="M821.15,53.57h194.3c14.56,0,26.47,8.6,26.47,19.11v114.8c0,10.51-11.91,19.11-26.47,19.11h-194.3c-14.56,0-26.47-8.6-26.47-19.11v-114.8c0-10.51,11.91-19.11,26.47-19.11Z"/>
      <path class="cls-1" d="M17.47,254.89h149.3c9.55,0,17.36,10.87,17.36,24.15v171.1c0,13.28-7.81,24.15-17.36,24.15H17.47c-9.55,0-17.36-10.87-17.36-24.15v-171.1c0-13.28,7.81-24.15,17.36-24.15Z"/>
      <path class="cls-3" d="M17.47,254.89h149.3c9.55,0,17.36,10.87,17.36,24.15v171.1c0,13.28-7.81,24.15-17.36,24.15H17.47c-9.55,0-17.36-10.87-17.36-24.15v-171.1c0-13.28,7.81-24.15,17.36-24.15Z"/>
      <path class="cls-2" d="M627.99,319.33h-55.14v89.21c0,26.12-6.81,39.69-28.22,39.69s-28.22-13.57-28.22-39.69v-89.21h-53.84v85.48c0,27.14.97,48.17,18.81,66.15,14.92,14.92,35.68,22.05,63.9,22.05s49.3-7.12,63.57-22.05c18.49-19.34,19.14-40.03,19.14-66.15v-85.48Z"/>
      <path class="cls-4" d="M627.99,319.33h-55.14v89.21c0,26.12-6.81,39.69-28.22,39.69s-28.22-13.57-28.22-39.69v-89.21h-53.84v85.48c0,27.14.97,48.17,18.81,66.15,14.92,14.92,35.68,22.05,63.9,22.05s49.3-7.12,63.57-22.05c18.49-19.34,19.14-40.03,19.14-66.15v-85.48Z"/>
      <path class="cls-2" d="M368.29,305.48h64.59v-44.24h-64.59v44.24ZM432.88,321.19h-64.59v149.88c0,17.17-3.64,21.25-20.92,21.25h-5.76v45.69h36.09c40.03,0,55.19-17.75,55.19-59.95v-156.86ZM263.06,475.73h64.59v-209.25h-64.59v209.25Z"/>
      <path class="cls-4" d="M368.29,305.48h64.59v-44.24h-64.59v44.24ZM432.88,321.19h-64.59v149.88c0,17.17-3.64,21.25-20.92,21.25h-5.76v45.69h36.09c40.03,0,55.19-17.75,55.19-59.95v-156.86ZM263.06,475.73h64.59v-209.25h-64.59v209.25Z"/>
      <path class="cls-2" d="M1034.72,269.09h6.55v-6.5h-6.55v6.5ZM1000.07,254.63c0-6.55,4.17-10.61,10.77-10.61s10.72,4.06,10.72,10.61-4.11,10.56-10.72,10.56-10.77-4.01-10.77-10.56ZM994.61,254.63c0,9.31,6.28,15.48,16.24,15.48s16.19-6.17,16.19-15.48-6.23-15.48-16.19-15.48-16.24,6.17-16.24,15.48ZM980.37,269.09h6.55v-6.5h-6.55v6.5ZM945.72,254.63c0-6.55,4.17-10.61,10.77-10.61s10.72,4.06,10.72,10.61-4.11,10.56-10.72,10.56-10.77-4.01-10.77-10.56ZM940.26,254.63c0,9.31,6.28,15.48,16.24,15.48s16.19-6.17,16.19-15.48-6.23-15.48-16.19-15.48-16.24,6.17-16.24,15.48ZM926.02,269.09h6.55v-6.5h-6.55v6.5ZM911.03,254.74c0,6.44-4.06,10.39-10.61,10.39s-10.56-3.9-10.56-10.39,4.01-10.39,10.56-10.39,10.61,3.95,10.61,10.39ZM916.33,230h-5.3v14.56c-2.98-3.41-6.5-4.98-11.15-4.98-9.2,0-15.54,6.12-15.54,15.16s6.33,15.21,15.48,15.21c4.71,0,8.34-1.68,11.21-5.09v4.22h5.3v-39.08Z"/>
    </g>
  </g>
</svg>