<svg width="249" height="66" viewBox="0 0 249 66" fill="none" xmlns="http://www.w3.org/2000/svg">
<path d="M13.0847 0V15.9073H15.9125V0H13.0847ZM17.4976 3.77467V15.8628H30.2331V47.496H41.8216V3.77467H17.4976ZM0 3.8261V47.5473H24.283V35.4592H11.5475V3.8261H0ZM25.8715 35.4079V51.3667H28.689V35.4079H25.8715Z" fill="#161616"/>
<path d="M56.9395 2.53125V49.7327H67.1826V2.53125H56.9395ZM237.547 2.53125V18.1954C235.339 16.5855 231.758 16.3252 231.758 16.3252C220.724 16.0409 216.016 25.3784 216.051 32.6847C215.965 42.262 222.281 50.082 231.717 49.3353C233.911 49.1024 235.719 48.2427 237.547 46.8006V49.7327H248.252V2.53125H237.547ZM85.625 13.9377C77.2306 13.9377 68.9833 20.8432 68.9833 31.7256C68.9936 43.9747 76.652 51.0686 86.7719 50.7637C94.4954 50.5103 99.8429 45.6223 101.787 38.7681H91.2293C90.6918 39.8608 89.2129 41.1453 86.1215 41.1453C82.1707 41.1453 80.079 38.2132 80.079 35.3016H102.376C103.646 22.5901 95.4642 13.9411 85.6285 13.9411L85.625 13.9377ZM160.552 14.6228C155.163 14.6228 150.737 18.7538 150.737 18.7538V15.2325H139.747V49.7361H150.737V32.1263C150.809 23.5252 160.552 22.9053 160.552 22.9053V14.6228ZM163.072 14.6228V22.6655C163.072 22.6655 164.017 22.4326 167.988 22.5593C173.031 22.7477 172.442 26.8684 172.442 26.8684C172.442 26.8684 169.984 25.3647 166.444 25.3339C162.579 25.238 154.811 27.6049 154.811 37.8878C154.79 46.941 162.052 49.5786 166.348 49.5786C170.645 49.5786 172.884 47.5507 172.884 47.5507V49.7361H182.887V26.2176C182.887 21.655 182.045 20.415 179.967 18.1029C177.057 14.8968 170.152 14.6228 170.152 14.6228H163.068H163.072ZM126.803 15.1811V18.7983C119.72 11.629 103.184 16.8115 103.77 32.9792C104.273 48.1193 120.278 52.6682 126.803 46.804V50.8082C126.772 55.4016 121.161 55.2441 121.161 55.2441C116.265 55.0111 115.214 51.9112 115.214 51.9112H102.869C105.454 69.151 135.694 69.8156 137.111 53.2985V15.1776H126.803V15.1811ZM185.273 15.1811V49.7361H195.831V29.3518C195.831 24.433 203.657 24.0939 203.657 29.3518V49.7361H214.058V23.9055C214.058 18.6921 207.269 11.0261 195.828 18.4489V15.1811H185.27H185.273ZM85.625 23.0012C88.5761 23.0012 91.0034 25.2106 91.3183 28.057H79.9386C80.2638 25.2071 82.6808 23.0012 85.6216 23.0012H85.625ZM120.415 25.8408C124.092 25.8408 127.108 28.8277 127.108 32.5169C127.108 36.206 124.092 39.1723 120.415 39.1723C116.738 39.1723 113.773 36.2197 113.773 32.5169C113.773 28.814 116.724 25.8408 120.415 25.8408ZM231.6 26.1251C235.267 26.1251 238.242 29.1326 238.242 32.8217C238.242 36.5108 235.267 39.4669 231.6 39.4669C227.934 39.4669 224.959 36.4902 224.959 32.8217C224.969 29.1326 227.92 26.1251 231.6 26.1251ZM168.566 32.5682C171.014 32.5682 172.979 34.596 172.979 37.0452C172.979 39.4943 171.014 41.4501 168.566 41.4501C166.119 41.4501 164.112 39.5046 164.112 37.0452C164.112 34.5858 166.119 32.5682 168.566 32.5682Z" fill="#E0001A"/>
</svg>
