<svg width="329" height="78" viewBox="0 0 329 78" fill="none" xmlns="http://www.w3.org/2000/svg">
<path d="M31.2944 35.1271H14.6972V9.02928H19.497V30.8797H43.7935V0H0V44.1563H31.2977V35.1271H31.2944Z" fill="#161616"/>
<path d="M58.0492 69.2915H53.2495V48.4036H43.7903V44.1562H64.1773V35.127H35.5361V77.1904H75.3276V48.4002H58.0492V69.2881V69.2915Z" fill="#161616"/>
<path d="M91.6779 38.3881H87.4087V30.8831H79.5414V38.3881H75.2998V19.7507H79.5414V26.6357H87.4087V13.979H68.4219V44.1564H98.5625V13.979H91.6812V38.3881H91.6779Z" fill="#161616"/>
<path d="M328.36 25.7346C326.494 23.5356 323.635 22.4565 320.773 22.4565C317.041 22.4565 313.645 24.6967 313.645 28.7215C313.645 36.2334 324.423 34.9077 324.423 38.6002C324.423 40.0526 323.18 41.0494 321.355 41.0494C319.157 41.0494 317.541 39.597 316.34 37.9357L312.899 40.5082C314.806 43.3307 317.623 44.8652 321.064 44.8652C325.583 44.8652 328.979 42.8751 328.979 38.3913C328.979 30.5061 318.202 32.0818 318.202 28.3893C318.202 27.1014 319.113 26.2724 321.102 26.2724C322.721 26.2724 324.087 27.4336 325.124 28.5537L328.356 25.7312L328.36 25.7346ZM313.892 22.4565C311.444 22.3743 309.832 23.0389 308.835 24.3645C307.51 23.2033 305.354 22.4565 303.532 22.4565C297.935 22.4565 295.035 26.1902 295.035 29.9683C295.035 32.5819 296.446 34.2432 298.226 35.6955C297.274 35.9867 294.867 37.5624 294.867 39.6381C294.867 41.9639 297.062 42.5018 298.058 43.1252V43.2074C296.192 43.2074 294.162 44.4919 294.162 47.1911C294.162 50.5959 297.976 52.3359 303.779 52.3359C310.66 52.3359 313.769 49.0168 313.769 45.9443C313.769 37.3124 299.592 42.0428 299.592 38.5557C299.592 37.3123 301.375 37.2267 303.611 37.2267C309 37.2267 311.735 34.322 311.735 30.2527C311.735 28.5914 311.239 27.3479 310.575 26.4333C311.362 25.9367 312.69 25.9367 313.892 25.9367V22.4497V22.4565ZM307.011 29.8451C307.011 31.8386 305.436 33.4143 303.488 33.4143C301.29 33.4143 299.756 31.8386 299.756 29.8451C299.756 27.8515 301.29 26.2758 303.488 26.2758C305.436 26.2758 307.011 27.8515 307.011 29.8451ZM302.536 44.0397C307.511 44.0397 309.044 45.5332 309.044 46.53C309.044 47.2767 307.925 48.938 304.611 48.938C300.3 48.938 298.89 48.1913 298.89 46.53C298.89 45.6188 299.719 44.0397 302.536 44.0397ZM281.084 44.4542V28.8894C281.954 27.8926 283.655 26.608 285.894 26.608C287.637 26.608 288.548 27.5192 288.548 30.4274V44.4542H293.686V29.6772C293.686 25.2791 291.615 22.4565 287.302 22.4565C284.772 22.4565 282.577 23.8678 280.67 25.1968V22.871H275.946V44.4542H281.084ZM273.354 14.0747H268.215V18.8908H273.354V14.0747ZM273.354 22.871H268.215V44.4542H273.354V22.871ZM254.634 22.871V27.0226H257.62V39.8882C257.62 42.9573 259.112 44.8686 262.926 44.8686C264.337 44.8686 265.579 44.7042 266.986 44.5364V40.3026C266.24 40.467 265.412 40.7172 264.624 40.7172C263.34 40.7172 262.758 40.3849 262.758 39.2237V27.0226H266.986V22.871H262.758V15.7325H257.616V22.871H254.631H254.634ZM254.573 25.7346C252.707 23.5356 249.845 22.4565 246.986 22.4565C243.255 22.4565 239.855 24.6967 239.855 28.7215C239.855 36.2334 250.632 34.9077 250.632 38.6002C250.632 40.0526 249.389 41.0494 247.565 41.0494C245.37 41.0494 243.751 39.597 242.549 37.9357L239.109 40.5082C241.016 43.3307 243.833 44.8652 247.274 44.8652C251.793 44.8652 255.192 42.8751 255.192 38.3913C255.192 30.5061 244.415 32.0818 244.415 28.3893C244.415 27.1014 245.326 26.2724 247.315 26.2724C248.931 26.2724 250.3 27.4336 251.334 28.5537L254.569 25.7312L254.573 25.7346ZM233.463 38.7681C232.385 39.6826 230.355 41.0494 228.739 41.0494C227.287 41.0494 226.253 40.1382 226.253 38.518C226.253 35.4866 230.026 34.7844 233.467 34.1199V38.7681H233.463ZM239.016 44.4542C238.684 43.4985 238.602 42.4195 238.602 41.3405V31.1706C238.602 24.6967 236.116 22.5799 230.314 22.4565C227.164 22.3743 223.6 24.1179 222.272 26.3991L225.589 28.9304C226.585 27.5603 227.91 26.2758 230.314 26.2758C232.138 26.2758 233.463 27.1904 233.463 28.8482V30.674C225.089 31.6708 221.111 34.2432 221.111 39.1415C221.111 42.0873 223.059 44.8686 226.955 44.8686C229.65 44.8686 231.597 43.9986 233.672 42.5874L234.004 44.4542H239.02H239.016ZM220.646 21.9599C219.235 16.6472 215.921 14.0747 210.2 14.0747C202.573 14.0747 198.177 19.6786 198.177 29.4717C198.177 39.2648 202.573 44.8686 210.2 44.8686C215.671 44.8686 219.567 42.214 221.351 37.0246L216.045 35.6133C214.343 39.1414 212.768 40.0526 210.2 40.0526C205.887 40.0526 203.857 36.4834 203.898 29.4682C203.939 22.4531 206.219 18.8839 210.033 18.8839C212.85 18.8839 214.634 20.6685 215.462 23.1998L220.646 21.953V21.9599ZM167.715 44.4542V31.5885H179.238V44.4542H184.959V14.4892H179.238V26.4436H167.715V14.4892H161.994V44.4542H167.715ZM139.395 14.448V19.2641H147.228V44.4576H152.949V19.2641H160.782V14.448H139.395ZM143.367 44.4542V39.6381H130.351V14.4857H124.63V44.4508H143.367V44.4542Z" fill="#161616"/>
</svg>
