<svg width="241" height="72" viewBox="0 0 241 72" fill="none" xmlns="http://www.w3.org/2000/svg">
<g clip-path="url(#clip0_89_998)">
<path d="M188.342 20.4355H178.111V54.3429H188.342V20.4355Z" fill="#0F2AA8"/>
<path d="M200.898 19.7589H200.831C194.867 19.7589 190.029 24.5669 190.029 30.4945V30.5604H200.886V19.7649H200.898V19.7529V19.7589Z" fill="#0F2AA8"/>
<path d="M29.896 24.8363C32.4687 21.9443 36.3368 19.7109 41.1508 19.7109C48.4772 19.7109 53.4237 24.6926 53.4237 32.0393V54.3368H43.1209V34.9312C43.1209 31.3627 41.0845 28.8719 37.6984 28.8719C33.9629 28.8719 31.8723 31.704 31.8723 35.7455V54.3428H21.5695V34.9432C21.5695 31.3746 19.5993 28.8838 16.147 28.8838C12.4235 28.8838 10.3208 31.7159 10.3208 35.7575V54.3548H0V20.5133H10.3028V24.3573C12.2729 21.7227 15.659 19.7109 19.997 19.7109C24.335 19.7109 27.8596 21.6689 29.896 24.8363Z" fill="#0F2AA8"/>
<path d="M76.0054 19.7109C85.9045 19.7109 94.3154 27.2612 94.3154 37.428C94.3154 47.5948 85.9045 55.1451 76.0054 55.1451C66.1063 55.1451 57.6292 47.5948 57.6292 37.428C57.6292 27.2612 66.1063 19.7109 76.0054 19.7109ZM76.0054 46.3255C80.9519 46.3255 84.6874 42.4815 84.6874 37.434C84.6874 32.3865 80.964 28.5425 76.0054 28.5425C71.0468 28.5425 67.2571 32.3865 67.2571 37.434C67.2571 42.4815 70.9805 46.3255 76.0054 46.3255Z" fill="#0F2AA8"/>
<path d="M119.518 19.7109C114.843 19.7109 110.974 21.9323 109.004 24.5668V9.95127H108.998C108.878 4.43077 104.353 0 98.7678 0H98.7136V54.3368H109.016V50.3012C110.987 52.9237 114.843 55.1571 119.53 55.1571C128.815 55.1571 136.346 47.541 136.346 37.44C136.346 27.339 128.821 19.7229 119.53 19.7229H119.524V19.7109H119.518ZM117.415 46.3195C112.402 46.3195 108.667 42.4755 108.667 37.428C108.667 32.3805 112.402 28.5365 117.415 28.5365C122.428 28.5365 126.097 32.3805 126.097 37.428C126.097 42.4755 122.362 46.3195 117.415 46.3195Z" fill="#0F2AA8"/>
<path d="M165.007 41.8766L172.255 46.8583C169.001 52.1812 163.374 55.151 156.795 55.151C147.167 55.151 138.967 47.6007 138.967 37.4339C138.967 27.2671 147.167 19.7168 156.529 19.7168C167.646 19.7168 174.225 28.4765 173.544 40.1941H148.522C149.54 44.3734 152.86 46.7984 156.789 46.7984C160.717 46.7984 163.03 44.9123 164.989 41.8826V41.8706L165.007 41.8766ZM148.878 33.7815H163.79C163.32 30.8895 161.006 27.9916 156.608 27.9916C153.149 27.9916 150.101 30.1471 148.878 33.7815Z" fill="#0F2AA8"/>
<path d="M222.081 72C212.52 72 204.452 66.2759 204.049 57.0491H214.219C214.622 61.1626 217.81 63.6534 222.22 63.6534C227.04 63.6534 230.697 60.5518 230.697 54.6242V50.3132C228.661 52.9357 224.793 55.169 220.117 55.169C210.833 55.169 203.302 47.5529 203.302 37.452C203.302 27.351 210.827 19.7349 220.117 19.7349C224.793 19.7349 228.661 21.9562 230.697 24.5907V20.5552H241V54.217C241 65.1982 232.119 72.006 222.087 72.006H222.075L222.081 72ZM222.286 46.3255C227.233 46.3255 230.968 42.4815 230.968 37.434C230.968 32.3865 227.233 28.5425 222.286 28.5425C217.34 28.5425 213.538 32.3865 213.538 37.434C213.538 42.4815 217.273 46.3255 222.286 46.3255Z" fill="#0F2AA8"/>
</g>
<defs>
<clipPath id="clip0_89_998">
<rect width="241" height="72" fill="white"/>
</clipPath>
</defs>
</svg>
