<svg width="277" height="45" viewBox="0 0 277 45" fill="none" xmlns="http://www.w3.org/2000/svg">
<g clip-path="url(#clip0_89_1108)">
<path d="M45.2723 22.4976C45.2723 34.9236 35.1398 44.9952 22.6386 44.9952C10.1374 44.9952 0 34.9284 0 22.4976C0 10.0667 10.1374 0 22.6386 0C35.1398 0 45.2723 10.0716 45.2723 22.4976Z" fill="#3C9E6F"/>
<path d="M22.6385 17.188C25.5871 17.188 27.9802 19.5666 27.9802 22.4975C27.9802 25.4284 25.5871 27.8022 22.6385 27.8022C19.6899 27.8022 17.2969 25.4284 17.2969 22.4975C17.2969 19.5666 19.6899 17.188 22.6385 17.188Z" fill="#EC1C24"/>
<path d="M216.487 38.1501L209.64 22.8756L216.151 8.03711H219.441L213.095 22.803L219.811 38.1501H216.487Z" fill="#3B3A3C"/>
<path d="M203.704 22.3621V8.03711H206.618V18.3412L206.852 18.3897L211.526 8.03711H214.894L208.607 22.3621H203.704Z" fill="#3B3A3C"/>
<path d="M211.755 38.1501L206.847 26.7366L206.613 26.7851V38.1501H203.704V23.4473H208.689L215.235 38.1501H211.755Z" fill="#3B3A3C"/>
<path d="M202.539 8.03711H199.609V38.1501H202.539V8.03711Z" fill="#3B3A3C"/>
<path d="M172.565 33.7175V8.03711H175.592V30.2489H182.044V33.7175H172.565Z" fill="#3B3A3C"/>
<path d="M168.364 38.1501V8.03711H171.39V34.7445H182.044V38.1501H168.364Z" fill="#3B3A3C"/>
<path d="M131.782 8.03711H128.896V38.1501H131.782V8.03711Z" fill="#3B3A3C"/>
<path d="M124.139 38.1502L117.779 23.2002L117.545 23.2487L117.487 38.1502H114.509V10.4448L115.518 12.557L127.697 38.1502H124.139Z" fill="#3B3A3C"/>
<path d="M114.641 8.03711H117.779L124.198 23.2971L124.432 23.2487V8.03711H127.722V35.5245L114.641 8.03711Z" fill="#3B3A3C"/>
<path d="M110 38.1501L110.064 8.03711H113.329V38.1501H110Z" fill="#3B3A3C"/>
<path d="M143.016 38.15V12.334H150.336V15.7299H145.901V38.15H143.016Z" fill="#3B3A3C"/>
<path d="M150.336 8.03711H134.379V11.3071H150.336V8.03711Z" fill="#3B3A3C"/>
<path d="M138.678 38.15V15.7299H134.375V12.334H141.836V38.15H138.678Z" fill="#3B3A3C"/>
<path d="M229.398 38.15V12.334H236.713V15.7299H232.288V38.15H229.398Z" fill="#3B3A3C"/>
<path d="M236.714 8.03711H220.757V11.3071H236.714V8.03711Z" fill="#3B3A3C"/>
<path d="M225.06 38.15V15.7299H220.757V12.334H228.219V38.15H225.06Z" fill="#3B3A3C"/>
<path d="M249.712 38.15L246.027 29.1394L245.793 29.183V38.15H242.781V24.479H246.987L252.865 38.15H249.712Z" fill="#3B3A3C"/>
<path d="M267.613 11.2003C263.797 11.2003 260.693 16.5244 260.693 23.0692C260.693 29.614 263.797 34.9381 267.613 34.9381C271.43 34.9381 274.539 29.614 274.539 23.0692C274.539 16.5244 271.43 11.2003 267.613 11.2003ZM267.613 38.678C261.911 38.678 258.227 32.5498 258.227 23.0692C258.227 13.5886 261.911 7.45557 267.613 7.45557C273.316 7.45557 277 13.5838 277 23.0692C277 32.5546 273.316 38.678 267.613 38.678Z" fill="#3B3A3C"/>
<path d="M267.613 15.8268C265.23 15.8268 263.982 19.4698 263.982 23.0644C263.982 26.6589 265.23 30.3068 267.613 30.3068C269.996 30.3068 271.244 26.6638 271.244 23.0644C271.244 19.465 269.996 15.8268 267.613 15.8268ZM267.613 33.8723C264.431 33.8723 261.74 28.9261 261.74 23.0692C261.74 17.2123 264.431 12.2661 267.613 12.2661C270.796 12.2661 273.486 17.2123 273.486 23.0692C273.486 28.9261 270.796 33.8723 267.613 33.8723Z" fill="#3B3A3C"/>
<path d="M60.1079 38.1501L63.8315 8.03711H67.3113L63.1004 38.1501H60.1079Z" fill="#3B3A3C"/>
<path d="M81.801 38.1501L80.5045 25.5885L80.2657 25.5739L77.4584 38.1501H72.0242L69.2169 25.5739L68.9781 25.5885L67.6817 38.1501H64.2896L68.0716 10.6821L74.6219 37.2054H74.8607L81.4111 10.6821L85.1931 38.1501H81.801Z" fill="#3B3A3C"/>
<path d="M68.5737 8.03711H71.7124L74.6221 22.6625H74.8609L77.7705 8.03711H80.9092L74.739 32.6226L68.5737 8.03711Z" fill="#3B3A3C"/>
<path d="M86.3774 38.1501L82.1714 8.03711H85.6512L89.3748 38.1501H86.3774Z" fill="#3B3A3C"/>
<path d="M99.0592 11.2003C95.2431 11.2003 92.1385 16.5244 92.1385 23.0692C92.1385 29.614 95.2431 34.9381 99.0592 34.9381C102.875 34.9381 105.985 29.614 105.985 23.0692C105.985 16.5244 102.88 11.2003 99.0592 11.2003ZM99.0592 38.678C93.3569 38.678 89.6724 32.5498 89.6724 23.0692C89.6724 13.5886 93.3569 7.45557 99.0592 7.45557C104.762 7.45557 108.446 13.5838 108.446 23.0692C108.446 32.5546 104.762 38.678 99.0592 38.678Z" fill="#3B3A3C"/>
<path d="M99.0589 15.8268C96.6756 15.8268 95.428 19.4698 95.428 23.0644C95.428 26.6589 96.6756 30.3068 99.0589 30.3068C101.442 30.3068 102.69 26.6638 102.69 23.0644C102.69 19.465 101.442 15.8268 99.0589 15.8268ZM99.0589 33.8723C95.8764 33.8723 93.186 28.9261 93.186 23.0692C93.186 17.2123 95.8764 12.2661 99.0589 12.2661C102.241 12.2661 104.932 17.2123 104.932 23.0692C104.932 28.9261 102.241 33.8723 99.0589 33.8723Z" fill="#3B3A3C"/>
<path d="M152.826 38.1501V8.03711H165.917V11.3023H155.78L155.785 34.7494H165.917V38.1501H152.826Z" fill="#3B3A3C"/>
<path d="M184.398 38.1501V8.03711H197.494V11.3023H187.357V34.7494H197.494V38.1501H184.398Z" fill="#3B3A3C"/>
<path d="M156.881 33.7222V23.4277H165.542V26.814H159.591V30.2487H165.917V33.7222H156.881Z" fill="#3B3A3C"/>
<path d="M188.458 33.7222V23.4277H197.119V26.814H191.168V30.2487H197.494V33.7222H188.458Z" fill="#3B3A3C"/>
<path d="M156.881 22.3619V12.3291H165.917V15.7299H159.713V19.0096H165.547V22.3619H156.881Z" fill="#3B3A3C"/>
<path d="M188.458 22.3619V12.3291H197.494V15.7299H191.29V19.0096H197.119V22.3619H188.458Z" fill="#3B3A3C"/>
<path d="M254.123 38.1501L248.211 24.3968C252.027 23.8978 254.025 21.5628 253.996 17.6388C253.991 17.0429 253.957 16.51 253.806 15.8221C253.533 14.5868 252.768 13.4096 251.759 12.6684C250.336 11.6268 248.382 11.2538 247.139 11.2538H241.704L241.695 38.1453H239.014V8.03711H246.218C253.324 8.03711 256.779 11.0988 256.779 17.4063C256.779 23.7137 251.803 25.9712 251.754 25.9954L251.647 26.0487L257.257 38.1501H254.123Z" fill="#3B3A3C"/>
<path d="M246.261 14.8384C246.042 14.8384 245.91 14.8481 245.91 14.8481L245.798 14.8578V20.9182H245.915C246.056 20.9279 246.198 20.9327 246.339 20.9327C248.956 20.9327 250.228 19.9299 250.228 17.8711C250.228 16.6357 249.712 15.7153 248.771 15.2793C247.816 14.8917 246.792 14.8384 246.261 14.8384ZM246.87 23.5294C246.763 23.5294 246.705 23.5294 246.705 23.5294H242.781V12.2612C242.781 12.2612 244.989 12.2563 245.433 12.2563C245.852 12.2563 246.251 12.2563 246.583 12.2612C247.791 12.2806 249.575 12.4114 251.067 13.3803C251.12 13.4142 251.145 13.4335 251.174 13.4529C252.465 14.354 253.04 15.7831 253.031 18.0939C253.021 20.458 251.759 22.0082 250.677 22.6138C249.161 23.4664 247.382 23.5342 246.875 23.5342" fill="#3B3A3C"/>
</g>
<defs>
<clipPath id="clip0_89_1108">
<rect width="277" height="45" fill="white"/>
</clipPath>
</defs>
</svg>
