<svg width="249" height="65" viewBox="0 0 249 65" fill="none" xmlns="http://www.w3.org/2000/svg">
<path d="M30.1509 44.2659L30.168 52.3428L47.0664 49.654L52.1298 55.0728L42.3248 57.3713C40.0071 58.053 37.8127 58.7688 35.6045 59.7177C33.5812 60.7076 31.8181 61.8105 30.1646 63.3793L0 63.4102V0L29.1238 0.0136312C32.8897 0.0136312 36.3988 0.39389 40.0345 1.00018C43.1123 1.71608 45.9914 2.6375 48.5728 4.42211C52.6604 7.25146 55.4643 11.2728 56.4845 16.1711C57.4191 20.6652 57.3404 25.2346 56.1525 29.6601C54.7077 35.0414 51.1301 39.2751 46.1147 41.6249C40.9383 44.05 35.7894 44.307 30.1509 44.2625V44.2659ZM13.427 62.0195L26.9841 1.19202C26.563 1.14064 26.2583 1.11667 25.8715 1.11324L4.0192 61.999L13.427 62.0229V62.0195ZM28.374 62.0161L28.6822 1.25708C28.3364 1.14747 27.9975 1.1406 27.638 1.24337L17.4359 61.999L28.374 62.0126V62.0161Z" fill="#0166B3"/>
<path d="M241.528 34.7227L241.525 18.2913L232.867 31.174L224.223 18.3358L224.199 34.7159L217.054 34.7193V4.17199L223.13 4.13428L232.87 18.8873L242.662 4.16171H248.697V34.709L241.528 34.7227Z" fill="#0166B3"/>
<path d="M173.257 14.6022C175.499 22.3675 172.432 30.8315 164.428 33.6951C162.487 34.298 160.6 34.709 158.539 34.7125L144.558 34.7227V4.11035H158.224C160.073 4.11035 161.737 4.41863 163.503 4.8742C168.159 6.33683 171.891 9.87862 173.253 14.6056L173.257 14.6022ZM164.565 25.3509C166.201 23.6211 166.588 21.5112 166.622 19.2641C166.687 14.8694 163.599 11.1734 159.097 11.1425L151.768 11.0912V27.7385L158.947 27.7179C161.076 27.7111 163.072 26.8752 164.561 25.3544L164.565 25.3509Z" fill="#0166B3"/>
<path d="M194.394 35.4591C186.746 35.4112 180.221 30.2732 178.971 22.6004C178.588 20.2506 178.625 17.8391 179.135 15.5201C180.734 8.19671 187.184 3.50743 194.476 3.48688C203.535 3.4629 210.334 10.4986 210.354 19.4319C210.378 28.4372 203.583 35.5173 194.394 35.4557V35.4591ZM202.258 23.2203C203.213 20.7952 203.162 18.0892 202.268 15.7463C201.008 12.4374 197.982 10.5329 194.507 10.5191C191.131 10.5054 188.173 12.29 186.801 15.4482C185.75 17.8734 185.712 20.7404 186.674 23.21C187.937 26.4607 190.895 28.3721 194.325 28.4235C197.831 28.4749 200.919 26.6114 202.258 23.2169V23.2203Z" fill="#0166B3"/>
<path d="M130.467 21.9598L119.775 22.0112L119.762 27.7487L138.553 27.7692L138.529 34.7262L112.552 34.7227V4.1377H137.441L137.444 11.0809L119.765 11.0912L119.768 15.0064H130.429L130.467 21.9598Z" fill="#0166B3"/>
<path d="M97.4126 22.919L85.622 23.0355L85.6151 34.709H78.4121V4.13428H96.519C98.1178 4.1377 99.5625 4.58641 100.983 5.1516C104.304 6.70329 106.18 9.88549 105.988 13.5883C106.002 18.4523 102.473 22.8676 97.416 22.919H97.4126ZM98.6587 13.4684C98.6074 12.1256 97.7309 11.1083 96.3376 11.1083L85.6185 11.0912L85.6357 16.0203L96.317 15.9861C97.8165 15.9826 98.7135 14.9824 98.6587 13.4684Z" fill="#0166B3"/>
<path d="M235.308 43.5501L169.518 44.6531L126.293 46.102C125.745 45.4478 125.372 44.8792 124.931 44.0092L156.578 42.9473L234.634 43.1733L241.121 43.348L235.305 43.5501H235.308Z" fill="#0166B3"/>
<path d="M57.1246 54.0451L54.0709 51.0651C53.4546 50.4622 52.8794 49.9278 52.2461 49.1811C62.7529 47.6945 73.0885 46.6052 83.8041 45.8174L86.8065 49.3045C76.827 50.4074 67.1384 51.9282 57.1246 54.0485V54.0451Z" fill="#0166B3"/>
<path d="M103.74 47.7392L90.3467 49.1368L87.5771 45.7353L122.007 44.146L123.325 46.1499L103.74 47.7392Z" fill="#0166B3"/>
<path d="M130.354 61.7558L126.468 61.7626L125.479 63.6946C125.095 63.8213 124.393 63.7905 123.921 63.6843L127.765 55.83C127.94 55.5868 128.748 55.621 129.046 55.7854L132.911 63.6158C132.572 63.7939 131.781 63.8521 131.398 63.7185L130.357 61.7523L130.354 61.7558ZM129.635 60.2863L128.406 57.8337L127.17 60.3308L129.635 60.2829V60.2863Z" fill="#3A3A3C"/>
<path d="M192.422 61.7522L188.536 61.7659L187.585 63.6122C187.352 63.9102 186.438 63.8109 185.996 63.6773L189.83 55.8366C189.998 55.59 190.803 55.6208 191.107 55.775L195.003 63.6533C194.647 63.7869 193.846 63.8452 193.459 63.7116L192.419 61.7522H192.422ZM191.72 60.2862L190.474 57.8508L189.248 60.3273L191.72 60.2896V60.2862Z" fill="#3A3A3C"/>
<path d="M151.528 63.7322C149.586 64.4994 147.498 63.9857 145.954 62.6566L146.704 61.54C148.159 62.9718 151.445 63.3485 151.668 61.6632C151.719 61.259 151.298 60.711 150.857 60.6562L148.149 60.3171C147.122 60.1869 146.355 59.2655 146.238 58.4709C146.081 57.3747 146.646 56.3848 147.693 55.9635C149.497 55.2373 151.456 55.645 153.099 56.8575C152.89 57.2514 152.633 57.6282 152.339 57.9947C151.072 57.0972 149.744 56.5526 148.279 57.1281C147.919 57.2685 147.57 57.7789 147.56 58.118C147.55 58.5017 148.025 59.0018 148.464 59.0532L151.014 59.358C152.055 59.4813 152.863 60.3308 153.003 61.2591C153.144 62.1873 152.637 63.2937 151.531 63.7322H151.528Z" fill="#3A3A3C"/>
<path d="M171.932 58.762C171.973 59.132 171.97 59.7588 171.932 60.1528L168.926 60.1733L168.916 63.7528L167.475 63.7254V55.6622L173.774 55.6484C174.01 55.9156 174.017 56.5596 173.887 57.0117L168.96 57.0356L168.93 58.7415L171.932 58.7586V58.762Z" fill="#3A3A3C"/>
<path d="M230.964 63.6946C230.519 63.7665 230.023 63.7733 229.506 63.7356L229.499 57.0596L226.305 57.0048L226.332 55.6553H234.155L234.168 57.0117L230.971 57.0425L230.964 63.6946Z" fill="#3A3A3C"/>
<path d="M214.753 62.4171L214.76 63.7838H208.32L208.313 55.8164C208.69 55.6315 209.276 55.6315 209.786 55.7308L209.796 62.4103L214.75 62.4171H214.753Z" fill="#3A3A3C"/>
<path d="M248.328 63.5816C247.951 63.8283 247.352 63.8249 246.835 63.7084V55.7136C247.27 55.628 247.739 55.6245 248.314 55.6862L248.331 63.5851L248.328 63.5816Z" fill="#3A3A3C"/>
</svg>
