<svg width="157" height="82" viewBox="0 0 157 82" fill="none" xmlns="http://www.w3.org/2000/svg">
<path d="M144.931 81.9629H0.050184L0 12.1269L12.1755 0L12.2185 69.854L156.819 69.8754L144.931 81.9629Z" fill="#FEBF04"/>
<path d="M118.031 37.1363L129.396 57.5733L116.21 57.738L105.597 39.238L105.25 57.7953H93.1816V5.91504L106.017 5.96517C109.647 5.97949 113.106 6.50939 116.364 7.9523C120.325 9.73177 123.206 12.8718 124.382 17.0859C126.382 24.2611 125.185 33.3804 118.027 37.1363H118.031ZM114.583 22.4924C114.522 19.9467 113.468 18.1028 111.02 17.6839C109.182 17.3688 107.246 17.3724 105.307 17.5192V28.8655C107.357 28.9658 109.407 28.9407 111.307 28.3034C113.812 27.4656 114.647 25.1562 114.586 22.4924H114.583Z" fill="#FE0234"/>
<path d="M55.7341 17.7193C57.7305 25.9042 55.7198 34.6941 47.4295 37.9917C43.9278 39.3845 40.3257 39.6959 36.487 39.7711V57.795H24.3652V5.93262L37.2074 5.96842C40.3472 5.97916 43.3256 6.37301 46.2217 7.45071C51.0675 9.02968 54.5263 12.7605 55.7341 17.7193ZM45.6876 21.7616C45.236 17.1501 41.2647 17.2611 36.4834 17.5188V28.8688C38.8167 28.9547 41.1823 28.9977 43.2432 27.9522C45.4547 26.8315 45.9349 24.2966 45.684 21.7652L45.6876 21.7616Z" fill="#FE0234"/>
<path d="M86.6551 36.7991L73.0746 36.8492L73.0782 47.6656L86.6372 47.7731L86.6265 57.8161L60.9062 57.8233V5.91081L86.6265 5.90723L86.6085 15.9968L73.071 16.0255L73.0746 26.7775L86.6336 26.8026L86.6551 36.7991Z" fill="#FE0234"/>
<path d="M144.895 5.85742H132.712V57.8236H144.895V5.85742Z" fill="#FE0234"/>
</svg>
