<svg width="208" height="63" viewBox="0 0 208 63" fill="none" xmlns="http://www.w3.org/2000/svg">
<g clip-path="url(#clip0_89_883)">
<path fill-rule="evenodd" clip-rule="evenodd" d="M104 0C127.335 0 148.477 2.58733 163.861 6.77558L164.95 8.56831C148.095 4.97502 126.957 2.83392 103.996 2.83392C81.0345 2.83392 59.8968 4.97502 43.0422 8.56831L44.1309 6.77558C59.5233 2.58733 80.665 0 104 0Z" fill="url(#paint0_linear_89_883)"/>
<path fill-rule="evenodd" clip-rule="evenodd" d="M2.92432 47.2608V35.475H26.0487C27.2367 35.475 28.2419 35.2049 29.0246 34.6843C29.8113 34.1637 30.4113 33.4983 30.8126 32.688C31.2139 31.8778 31.4165 31.0323 31.4165 30.132C31.4165 29.2317 31.2139 28.4058 30.8126 27.5956C30.4113 26.7853 29.8074 26.1042 29.0246 25.5797C28.2379 25.0591 27.2327 24.8047 26.0487 24.8047H2.04623L0 21.4619H26.0447C27.9638 21.4619 29.569 21.8768 30.8285 22.7027C32.088 23.5287 33.0575 24.5933 33.6972 25.889C34.3369 27.2041 34.6468 28.5702 34.6468 29.9911C34.6468 31.412 34.3369 32.7624 33.6972 34.058C33.0575 35.3693 32.088 36.434 30.8285 37.2599C29.569 38.0858 27.9598 38.5007 26.0447 38.5007H6.31748V47.2647H2.92432V47.2608ZM175.542 47.2608L173.568 44.0041H201.512C202.294 44.0041 202.954 43.7889 203.467 43.3387C203.979 42.9082 204.345 42.3484 204.583 41.6478C204.766 41.0919 204.857 40.5126 204.857 39.9568C204.857 39.3618 204.766 38.7864 204.583 38.2306C204.345 37.5456 203.979 37.0055 203.467 36.6101C202.954 36.2148 202.298 36.0151 201.512 36.0151H177.219C176.381 36.0151 175.63 35.7999 174.99 35.385C174.35 34.97 173.802 34.4299 173.365 33.7644C172.928 33.099 172.598 32.3436 172.36 31.5333C172.086 30.5978 171.959 29.6271 171.959 28.6368C171.959 27.6308 172.106 26.6757 172.4 25.7754C172.634 24.9652 172.964 24.2293 173.385 23.5795C173.806 22.9298 174.354 22.4092 174.994 22.0334C175.634 21.6537 176.365 21.458 177.223 21.458H204.384L206.411 24.7147H178.483C177.68 24.7147 177.021 24.9495 176.512 25.3997C175.999 25.8498 175.634 26.4252 175.415 27.1259C175.217 27.6465 175.105 28.2062 175.105 28.8012C175.105 29.3961 175.197 29.952 175.38 30.5117C175.598 31.1967 175.964 31.7369 176.476 32.1479C176.969 32.5628 177.624 32.7585 178.431 32.7585H202.739C203.618 32.7585 204.384 32.9738 205.024 33.4043C205.664 33.8349 206.212 34.3946 206.649 35.0796C207.07 35.7646 207.396 36.5005 207.619 37.3108C207.873 38.2658 208.004 39.2366 208.004 40.2269C207.984 41.4129 207.785 42.5285 207.384 43.5932C206.983 44.6539 206.399 45.5385 205.612 46.2196C204.825 46.9203 203.876 47.2647 202.743 47.2647H175.546L175.542 47.2608ZM160.786 47.2608V21.458H164.092V47.2608H160.786ZM137.153 47.2608L137.173 24.7342H124.097L122.106 21.458H153.995L155.986 24.7342H140.534L140.514 47.2608H137.153ZM114.474 47.2608L88.1904 25.9203V47.2608H84.8648V21.458H88.1904L114.474 42.8142V21.458H117.799V47.2608H114.474ZM52.3238 47.2608L50.3531 44.0041H65.221C66.9931 44.0041 68.4552 43.5384 69.6234 42.5989C70.7915 41.6634 71.6696 40.4578 72.2537 38.9822C72.8377 37.5065 73.1318 35.9603 73.1318 34.3398C73.1318 32.7193 72.8377 31.2084 72.2537 29.7328C71.6696 28.2571 70.7915 27.0515 69.6234 26.116C68.4552 25.1805 66.9931 24.7108 65.221 24.7108H51.6682C49.5505 24.7108 47.7427 25.4506 46.2447 26.9223C44.7468 28.398 43.9998 30.179 43.9998 32.2653V35.792H40.6941V32.2653C40.6941 30.2847 41.1868 28.4685 42.192 26.8323C43.1774 25.1961 44.5124 23.9005 46.1732 22.9102C47.834 21.9395 49.6617 21.4541 51.6722 21.4541H65.225C68.785 21.4541 71.5623 22.7849 73.5887 25.4662C75.4521 27.9322 76.3819 30.8992 76.3819 34.3359C76.3819 37.7726 75.4521 40.7397 73.5887 43.2056C71.5623 45.9065 68.785 47.253 65.225 47.253H52.3318L52.3238 47.2608Z" fill="#231F20"/>
<path fill-rule="evenodd" clip-rule="evenodd" d="M56.2574 63.0002V57.2971H52.9516L52.447 56.4673H60.5207L61.0253 57.2971H57.1116V63.0002H56.2574ZM154.707 63.0002V60.1036H148.055V63.0002H147.213V56.4673H148.055V59.3952H154.707V56.4673H155.549V63.0002H154.707ZM118.288 63.0002C117.799 63.0002 117.402 62.9141 117.092 62.7458C116.746 62.5579 116.46 62.3152 116.234 62.0177C115.749 61.3758 115.507 60.6164 115.507 59.7279C115.507 58.8393 115.745 58.0604 116.226 57.4341C116.714 56.7922 117.402 56.4712 118.272 56.4712H122.567L123.068 57.2971H118.312C117.803 57.2971 117.378 57.4654 117.032 57.806C116.687 58.1465 116.456 58.6006 116.341 59.1642C116.309 59.3521 116.289 59.5556 116.289 59.7827C116.289 60.3189 116.412 60.8043 116.667 61.2309C116.834 61.5167 117.056 61.7476 117.334 61.9159C117.608 62.0882 117.934 62.1743 118.316 62.1743H123.513V63.0041H118.288V63.0002ZM84.7337 63.0002V62.1704H91.7505L92.2551 63.0002H84.7337ZM84.7337 60.1584V59.3325H90.5466L91.0472 60.1584H84.7377H84.7337ZM84.4715 57.2932L83.9708 56.4673H91.7465L92.2511 57.2932H84.4715Z" fill="#231F20"/>
</g>
<defs>
<linearGradient id="paint0_linear_89_883" x1="43.0462" y1="4.2822" x2="164.95" y2="4.2822" gradientUnits="userSpaceOnUse">
<stop stop-color="#12BFDC"/>
<stop offset="0.12" stop-color="#17BFD7"/>
<stop offset="0.26" stop-color="#25C1C9"/>
<stop offset="0.41" stop-color="#3EC5B2"/>
<stop offset="0.57" stop-color="#60CA92"/>
<stop offset="0.74" stop-color="#8CD069"/>
<stop offset="0.92" stop-color="#C1D837"/>
<stop offset="1" stop-color="#DEDD1D"/>
</linearGradient>
<clipPath id="clip0_89_883">
<rect width="208" height="63" fill="white"/>
</clipPath>
</defs>
</svg>
