<svg width="203" height="55" viewBox="0 0 203 55" fill="none" xmlns="http://www.w3.org/2000/svg">
<g clip-path="url(#clip0_89_815)">
<path d="M1.04395 24.8569H5.85437V16.2316H10.1741C15.4031 16.2316 17.688 14.4138 17.688 7.99382C17.6832 2.09533 15.4752 0 10.2415 0H1.04395V24.8569ZM9.50549 4.32939C11.9973 4.32939 12.7333 4.99435 12.7333 8.17083C12.7333 11.6296 12.1031 12.1845 9.50549 12.1845H5.85437V4.32939H9.50549Z" fill="black"/>
<path d="M26.8326 25.139C32.557 25.139 34.4523 22.905 34.4523 16.0593C34.4523 9.21355 32.4512 6.97949 26.8326 6.97949C21.214 6.97949 19.2129 9.07482 19.2129 16.0593C19.2129 23.0437 21.1082 25.139 26.8326 25.139ZM26.8326 21.6133C24.5861 21.6133 23.9175 20.8814 23.9175 16.064C23.9175 11.6294 24.5861 10.931 26.8326 10.931C29.0791 10.931 29.7092 11.6294 29.7092 16.064C29.7092 20.8479 29.1127 21.6133 26.8326 21.6133Z" fill="black"/>
<path d="M36.5254 24.8566H41.1578V13.1601C41.1578 11.658 41.7543 11.0648 43.2648 11.0648H45.5834V7.25684H42.6346C38.2812 7.25684 36.5254 9.03643 36.5254 13.3323V24.8519V24.8566Z" fill="black"/>
<path d="M46.6611 19.5181C46.8343 22.6946 47.7483 25.1391 53.2274 25.1391C58.7064 25.1391 60.1448 23.0103 60.1448 19.9391C60.1448 16.8678 58.7738 15.2939 55.7192 14.7007L53.5449 14.2798C51.6159 13.897 51.1589 13.4426 51.1589 12.3232C51.1589 11.0315 51.6832 10.6488 53.4775 10.6488C55.2718 10.6488 55.724 11.1033 55.8298 12.9546H59.8658C59.8658 8.80224 58.1436 6.98438 53.3717 6.98438C49.1241 6.98438 46.7381 8.73048 46.7381 12.3949C46.7381 15.7484 48.6334 17.284 51.3032 17.8055L53.4775 18.2264C55.267 18.5757 55.724 18.8531 55.724 20.0778C55.724 21.3025 55.3007 21.8574 53.3717 21.8574C51.5822 21.8574 50.9136 21.3694 50.8077 19.5181H46.6659H46.6611Z" fill="black"/>
<path d="M69.1453 25.1391C73.8162 25.1391 75.7788 22.9768 75.9905 17.949H71.7092C71.5697 20.7762 71.0406 21.6134 69.1116 21.6134C66.8988 21.6134 66.4081 20.915 66.4081 16.2364C66.4081 11.5577 66.8988 10.9311 69.1116 10.9311C71.0069 10.9311 71.536 11.6295 71.7092 14.3515H75.9905C75.7788 9.39544 74.3068 6.98438 69.1453 6.98438C63.6662 6.98438 61.665 9.32368 61.665 16.0641C61.665 22.8046 63.4545 25.1439 69.1453 25.1439V25.1391Z" fill="black"/>
<path d="M78.0205 24.8569H82.653V14.3851C82.653 11.663 83.2831 10.9981 85.1447 10.9981C87.0064 10.9981 87.5692 11.7683 87.5692 14.4568V24.8617H92.2401V13.4426C92.2401 9.21849 90.7297 6.98443 86.6937 6.98443C84.7262 6.98443 83.3938 7.61112 82.6578 8.90276V0H78.0253V24.8569H78.0205Z" fill="black"/>
<path d="M101.716 25.139C106.282 25.139 108.211 22.9384 108.494 19.4462H104.353C104.179 21.2258 103.439 21.7138 101.683 21.7138C99.5085 21.7138 98.8062 21.0871 98.734 17.0017H108.634V16.0927C108.634 9.912 107.157 6.97949 101.543 6.97949C95.9295 6.97949 94.1016 9.56277 94.1016 16.1262C94.1016 22.6897 96.069 25.1342 101.721 25.1342L101.716 25.139ZM101.611 10.7874C103.366 10.7874 104.069 11.3806 104.242 13.9974H98.8014C99.0467 11.2371 99.927 10.7874 101.611 10.7874Z" fill="black"/>
<path d="M117.346 24.8568H125.913C133.639 24.8568 135.707 21.7473 135.707 12.3566C135.707 2.96589 133.461 -0.00488281 126.053 -0.00488281H117.346V24.852V24.8568ZM126.053 4.32929C129.983 4.32929 130.685 5.51569 130.685 12.2896C130.685 20.1112 129.983 21.0202 126.053 21.0202H122.156V4.32929H126.053Z" fill="#D5001C"/>
<path d="M138.381 4.19066H143.014V0H138.381V4.19066ZM138.381 24.8569H143.014V7.26189H138.381V24.8569Z" fill="#D5001C"/>
<path d="M146.083 26.2203C146.362 30.1287 147.699 32.401 153.212 32.401C158.302 32.401 160.548 30.3774 160.548 25.4548V7.26184H156.195V9.60114C155.387 7.5393 153.915 6.98438 152.087 6.98438C147.594 6.98438 145.381 9.18495 145.381 15.8871C145.381 22.5893 147.242 24.8234 151.808 24.8234C153.53 24.8234 155.035 24.3019 155.916 22.6611V25.7323C155.916 28.2438 155.108 28.8753 153.14 28.8753C151.067 28.8753 150.615 28.1769 150.509 26.2203H146.083ZM153.001 21.2977C150.754 21.2977 150.124 20.4605 150.124 15.8871C150.124 11.5912 150.754 10.9311 153.001 10.9311C155.247 10.9311 155.916 11.596 155.916 15.8871C155.916 20.5657 155.141 21.2977 153.001 21.2977Z" fill="#D5001C"/>
<path d="M163.237 4.19066H167.869V0H163.237V4.19066ZM163.237 24.8569H167.869V7.26189H163.237V24.8569Z" fill="#D5001C"/>
<path d="M169.64 11.0699H171.674V18.7528C171.674 23.2209 173.397 24.8618 177.75 24.8618H180.487V21.3361H178.626C176.903 21.3361 176.307 20.9151 176.307 18.9967V11.0699H180.555V7.26195H176.307V3.07129H171.814V7.26195H169.64V11.0699Z" fill="#D5001C"/>
<path d="M182.012 20.3554C182.012 23.5653 183.941 25.1392 187.28 25.1392C189.526 25.1392 190.791 24.2685 191.388 23.0439V24.8617H195.813V13.237C195.813 9.98874 194.899 6.98926 189.286 6.98926C184.302 6.98926 182.546 9.18983 182.44 13.0982H186.548C186.582 11.1082 187.284 10.7255 189.007 10.7255C190.729 10.7255 191.181 11.4239 191.181 13.4857V14.1842L188.968 14.6052C184.191 15.5141 182.017 16.8727 182.017 20.3649L182.012 20.3554ZM191.176 19.0302C191.176 21.0921 190.195 21.824 188.612 21.824C187.241 21.824 186.577 21.159 186.577 19.8674C186.577 18.504 187.385 17.8773 189.738 17.4946L191.176 17.2841V19.0302Z" fill="#D5001C"/>
<path d="M198.368 24.8569H203V0H198.368V24.8569Z" fill="#D5001C"/>
<path d="M5.93607 54.9999C9.55832 54.9999 11.1217 53.2873 11.3045 48.8957H9.53908C9.28893 52.254 8.61066 53.5121 5.93607 53.5121C2.766 53.5121 1.92898 52.1152 1.92898 46.5947C1.92898 41.5716 2.766 40.1317 5.93607 40.1317C8.58661 40.1317 9.31299 41.2367 9.49097 44.5711H11.2805C11.0977 40.4043 10.0586 38.4238 5.93607 38.4238C1.4287 38.4238 0 40.6531 0 46.5994C0 52.5458 1.40464 54.9999 5.93607 54.9999Z" fill="black"/>
<path d="M13.7002 54.732H15.5137V46.6233C15.5137 45.5183 16.0814 44.9586 17.1878 44.9586H18.9099V43.3799H17.1204C14.8547 43.3799 13.7002 44.595 13.7002 46.7573V54.732Z" fill="black"/>
<path d="M24.6103 54.9091C27.8044 54.9091 29.0936 53.1295 29.0936 49.0537C29.0936 44.9778 27.8717 43.1982 24.6103 43.1982C21.3488 43.1982 20.127 44.9778 20.127 49.0537C20.127 53.1295 21.3488 54.9091 24.6103 54.9091ZM24.6103 53.4261C22.6861 53.4261 21.9357 52.345 21.9357 49.0585C21.9357 45.772 22.6813 44.8487 24.6103 44.8487C26.5393 44.8487 27.2849 45.8389 27.2849 49.0585C27.2849 52.278 26.5393 53.4261 24.6103 53.4261Z" fill="black"/>
<path d="M31.0513 51.9143C31.0513 53.7848 32.2539 54.909 34.4041 54.909C35.9194 54.909 36.8526 54.2106 37.2808 53.3304V54.7272H39.027V46.9774C39.027 44.7481 38.0745 43.1934 35.3374 43.1934C32.3693 43.1934 31.3976 44.5233 31.3303 46.9535H32.9851C33.0091 45.3078 33.5719 44.7672 35.1834 44.7672C36.7949 44.7672 37.223 45.5805 37.223 47.2022V47.9246L35.525 48.1973C32.7157 48.6709 31.0609 49.5272 31.0609 51.9143H31.0513ZM37.2086 50.991C37.2086 52.5219 36.3043 53.4452 34.7842 53.4452C33.495 53.4452 32.86 52.8615 32.86 51.7086C32.86 50.5557 33.4469 49.8621 35.6452 49.5702L37.2086 49.3454V50.991Z" fill="black"/>
<path d="M40.6387 44.9539H42.0866V51.2399C42.0866 53.5601 43.2171 54.7321 45.5068 54.7321H47.253V53.2443H45.8243C44.3956 53.2443 43.9001 52.7038 43.9001 51.1729V44.9539H47.253V43.3752H43.9001V40.6724H42.154V43.3752H40.6387V44.9539Z" fill="black"/>
<path d="M49.4224 40.8111H51.2359V38.6919H49.4224V40.8111ZM49.4224 54.7322H51.2359V43.3801H49.4224V54.7322Z" fill="black"/>
<path d="M53.7227 51.9143C53.7227 53.7848 54.9253 54.909 57.0755 54.909C58.5908 54.909 59.524 54.2106 59.9522 53.3304V54.7272H61.6983V46.9774C61.6983 44.7481 60.7459 43.1934 58.0087 43.1934C55.0407 43.1934 54.069 44.5233 54.0017 46.9535H55.6564C55.6805 45.3078 56.2433 44.7672 57.8548 44.7672C59.4663 44.7672 59.8944 45.5805 59.8944 47.2022V47.9246L58.1964 48.1973C55.3871 48.6709 53.7323 49.5272 53.7323 51.9143H53.7227ZM59.88 50.991C59.88 52.5219 58.9756 53.4452 57.4555 53.4452C56.1664 53.4452 55.5314 52.8615 55.5314 51.7086C55.5314 50.5557 56.1183 49.8621 58.3166 49.5702L59.88 49.3454V50.991Z" fill="black"/>
</g>
<defs>
<clipPath id="clip0_89_815">
<rect width="203" height="55" fill="white"/>
</clipPath>
</defs>
</svg>
