<svg width="217" height="71" viewBox="0 0 217 71" fill="none" xmlns="http://www.w3.org/2000/svg">
<path d="M40.7432 0.394043C34.6048 0.394043 29.6339 5.37108 29.6339 11.5127V42.2725C29.6339 46.4103 27.5798 50.0652 24.4336 52.2779H40.7466C46.885 52.2779 51.8593 47.3009 51.8593 41.1627V11.5093C51.8525 5.37107 46.8747 0.394043 40.7397 0.394043" fill="#161616"/>
<path d="M11.1127 52.2745C17.2511 52.2745 22.2255 47.2975 22.2255 41.1558V10.3995C22.2255 6.26168 24.2796 2.60683 27.4258 0.390625H11.1127C4.97435 0.390625 0 5.36774 0 11.506V41.1558C0.00342351 47.2975 4.9812 52.2745 11.1127 52.2745Z" fill="#161616"/>
<path d="M128.967 12.1497V12.0847C128.967 8.07701 126.03 4.74073 121.895 4.74073C117.759 4.74073 114.89 8.01194 114.89 12.0196V12.0881C114.89 16.0958 117.824 19.4321 121.963 19.4321C126.095 19.4286 128.967 16.1574 128.967 12.1497ZM109.519 12.1497V12.0847C109.519 5.43948 114.756 0 121.963 0C129.169 0 134.339 5.37442 134.339 12.0162V12.0847C134.339 18.7264 129.101 24.1694 121.895 24.1694C114.688 24.1659 109.519 18.7915 109.519 12.1497Z" fill="#161616"/>
<path d="M71.8018 28.9067H66.6631V52.2745H71.8018V28.9067Z" fill="#161616"/>
<path d="M76.6221 28.9067H81.3568L92.3052 43.2932V28.9067H97.3754V52.2745H93.0036L81.6889 37.4188V52.2745H76.6221V28.9067Z" fill="#161616"/>
<path d="M106.982 33.6475H99.8779V28.9067H120.039L118.416 33.6475H112.124V52.2745H106.982V33.6475Z" fill="#161616"/>
<path d="M121.733 28.9067H139.519L137.947 33.4796H126.838V38.2204H136.396L134.821 42.7932H126.838V47.6983H139.519L137.947 52.2745H121.733V28.9067Z" fill="#161616"/>
<path d="M173.073 40.255H176.784C179.283 40.255 180.721 38.9191 180.721 36.9529V36.8844C180.721 34.6819 179.187 33.5447 176.685 33.5447H171.58V52.2711H166.441V28.9033H177.119C180.088 28.9033 182.391 29.7357 183.925 31.2703C185.23 32.5754 185.928 34.4079 185.928 36.6138V36.679C185.928 40.4503 183.891 42.8206 180.923 43.9236L186.626 52.2678H180.625L173.073 40.255Z" fill="#161616"/>
<path d="M194.904 28.9067H189.766V52.2745H194.904V28.9067Z" fill="#161616"/>
<path d="M198.026 48.8695L201.062 45.2318C203.165 46.9684 205.362 48.068 208.036 48.068C210.142 48.068 211.408 47.2321 211.408 45.8654V45.7969C211.408 44.4987 210.604 43.8308 206.701 42.8237C201.997 41.6249 198.964 40.3198 198.964 35.6853V35.6168C198.964 31.3796 202.363 28.5742 207.136 28.5742C210.542 28.5742 213.442 29.6396 215.811 31.5441L213.141 35.4147C211.069 33.9794 209.036 33.1128 207.071 33.1128C205.106 33.1128 204.068 34.0137 204.068 35.1509V35.2195C204.068 36.754 205.068 37.2541 209.108 38.292C213.842 39.5251 216.516 41.2309 216.516 45.3003V45.3688C216.516 50.0067 212.98 52.61 207.94 52.61C204.39 52.61 200.823 51.3734 198.022 48.8729" fill="#161616"/>
<path d="M94.4512 11.7491H98.1623C100.661 11.7491 102.099 10.4132 102.099 8.44363V8.37856C102.099 6.17606 100.562 5.03884 98.0596 5.03884H92.9551V23.7687H87.8164V0.397461H98.4943C101.463 0.397461 103.767 1.22988 105.3 2.76787C106.598 4.07293 107.303 5.90545 107.303 8.11138V8.17987C107.303 11.9512 105.269 14.3182 102.298 15.4246L108.001 23.7687H102L94.4512 11.7491Z" fill="#161616"/>
<path d="M76.2079 0.397472H66.6631V23.7653H71.8018V5.03885H75.7697C78.3407 5.03885 79.9429 6.27543 79.9429 8.57727V8.64233C79.9429 10.6462 78.44 12.1808 75.8758 12.1808H74.0853V16.7296H76.4304C81.326 16.483 85.1501 13.6982 85.1501 8.54299V8.47449C85.1466 3.69954 81.7779 0.394043 76.2079 0.394043" fill="#161616"/>
<path d="M152.46 38.2099V42.793H157.253V46.5986C155.948 47.5338 154.281 48.003 152.412 48.003C148.276 48.003 145.335 44.8654 145.335 40.5905V40.522C145.335 36.5521 148.307 33.2432 152.045 33.2432C154.747 33.2432 156.349 34.1097 158.153 35.6135L161.392 31.7086C158.958 29.6363 156.421 28.5059 152.217 28.5059C145.144 28.5059 139.971 33.9453 139.971 40.5905V40.659C139.971 47.568 144.969 52.6786 152.247 52.6786C156.52 52.6786 159.824 51.0105 162.224 48.9724V38.2168H152.463L152.46 38.2099Z" fill="#161616"/>
<path d="M72.0858 66.4004H68.0837L67.2552 68.2843H66.1494L69.5593 60.752H70.624L74.0441 68.2843H72.9143L72.0858 66.4004ZM71.7126 65.5407L70.0899 61.8516L68.4671 65.5407H71.7126Z" fill="#161616"/>
<path d="M78.6139 68.1099C78.0867 67.9352 77.6758 67.7057 77.3711 67.4248L77.7717 66.5855C78.0593 66.8459 78.4256 67.0548 78.8741 67.2124C79.3225 67.3734 79.7847 67.4556 80.2572 67.4556C80.8803 67.4556 81.3492 67.3528 81.6573 67.1405C81.9655 66.9281 82.1195 66.6472 82.1195 66.2978C82.1195 66.0375 82.034 65.8285 81.8662 65.671C81.6985 65.51 81.4896 65.3866 81.2431 65.2976C80.9966 65.212 80.6474 65.1127 80.1955 65.0065C79.6272 64.8695 79.1719 64.7359 78.8261 64.5989C78.4769 64.4619 78.1825 64.2563 77.936 63.972C77.6895 63.6877 77.5628 63.3075 77.5628 62.8245C77.5628 62.4203 77.6655 62.0607 77.8778 61.7352C78.09 61.4098 78.4084 61.1564 78.8398 60.9611C79.2712 60.7693 79.8018 60.6699 80.442 60.6699C80.887 60.6699 81.3253 60.7247 81.7532 60.8412C82.1846 60.9577 82.5509 61.1221 82.859 61.3379L82.5029 62.1977C82.188 61.999 81.8525 61.8449 81.493 61.7421C81.1335 61.6393 80.7809 61.5845 80.4385 61.5845C79.8257 61.5845 79.3704 61.6976 79.0691 61.9168C78.7644 62.1394 78.6139 62.4238 78.6139 62.7766C78.6139 63.0369 78.7029 63.2458 78.8741 63.4034C79.0452 63.5643 79.2575 63.6911 79.5142 63.7802C79.771 63.8692 80.1133 63.9652 80.555 64.0645C81.1233 64.2015 81.5786 64.3351 81.921 64.4721C82.2633 64.6091 82.5612 64.8147 82.8077 65.0955C83.0542 65.3764 83.1808 65.7498 83.1808 66.2259C83.1808 66.6233 83.0712 66.9829 82.8556 67.3049C82.6399 67.6337 82.3147 67.8872 81.8765 68.079C81.4417 68.2708 80.9007 68.3633 80.2605 68.3633C79.6854 68.3702 79.1411 68.2846 78.6139 68.1064" fill="#161616"/>
<path d="M84.6019 61.29C84.4684 61.1633 84.4033 61.0023 84.4033 60.8174C84.4033 60.6324 84.4718 60.4679 84.6019 60.3378C84.732 60.2076 84.9032 60.1392 85.1017 60.1392C85.3003 60.1392 85.468 60.2042 85.6015 60.3275C85.7351 60.4508 85.8001 60.6084 85.8001 60.7968C85.8001 60.9852 85.7316 61.153 85.6015 61.29C85.468 61.4236 85.3003 61.4887 85.1017 61.4887C84.9032 61.4853 84.7354 61.4202 84.6019 61.2935M84.5882 62.5814H85.6187V68.2846H84.5882V62.5814Z" fill="#161616"/>
<path d="M92.7157 65.7771H88.0905C88.1556 66.2806 88.3747 66.6848 88.7547 66.9897C89.1313 67.2945 89.5969 67.4452 90.1583 67.4452C90.8362 67.4452 91.3908 67.2157 91.8051 66.7567L92.3768 67.4247C92.1166 67.7261 91.7982 67.9555 91.4147 68.1131C91.0313 68.2707 90.6034 68.3495 90.1275 68.3495C89.525 68.3495 88.9909 68.2262 88.5253 67.9761C88.0597 67.7261 87.6969 67.3835 87.4435 66.9348C87.1868 66.4895 87.0635 65.986 87.0635 65.4277C87.0635 64.8693 87.1868 64.376 87.4367 63.9307C87.6832 63.4854 88.0255 63.1395 88.4603 62.8894C88.8951 62.6428 89.3846 62.5161 89.9323 62.5161C90.4801 62.5161 90.9628 62.6394 91.3908 62.8894C91.8187 63.136 92.1508 63.482 92.3905 63.9307C92.6301 64.376 92.75 64.8864 92.75 65.4584C92.7465 65.5441 92.7397 65.6469 92.7226 65.7736M88.6794 63.8485C88.3473 64.15 88.1522 64.5439 88.0905 65.0337H91.7468C91.692 64.5542 91.4935 64.1637 91.158 63.8554C90.8259 63.5505 90.4117 63.3999 89.9153 63.3999C89.4223 63.3999 89.008 63.5505 88.6759 63.852" fill="#161616"/>
<path d="M103.007 63.1498C103.428 63.5642 103.633 64.1808 103.633 64.9995V68.281H102.602V65.1193C102.602 64.5679 102.476 64.1534 102.219 63.8726C101.962 63.5917 101.599 63.4512 101.127 63.4512C100.603 63.4512 100.189 63.6156 99.8808 63.9376C99.5727 64.2664 99.4187 64.7323 99.4187 65.342V68.281H98.3882V65.1193C98.3882 64.5679 98.2615 64.1534 98.0047 63.8726C97.748 63.5917 97.3851 63.4512 96.9126 63.4512C96.3888 63.4512 95.9745 63.6156 95.6664 63.9376C95.3583 64.2664 95.2043 64.7323 95.2043 65.342V68.281H94.1738V62.5778H95.1632V63.4307C95.372 63.1361 95.6425 62.91 95.9815 62.7593C96.317 62.6017 96.7003 62.5264 97.1317 62.5264C97.5631 62.5264 97.9705 62.6189 98.3163 62.7936C98.6587 62.9751 98.9222 63.232 99.1105 63.5814C99.3262 63.2491 99.6275 62.9922 100.011 62.8072C100.394 62.6188 100.826 62.5264 101.305 62.5264C102.021 62.523 102.589 62.7319 103.007 63.1463" fill="#161616"/>
<path d="M110.699 65.7771H106.074C106.139 66.2806 106.358 66.6848 106.738 66.9897C107.115 67.2945 107.58 67.4452 108.142 67.4452C108.82 67.4452 109.374 67.2157 109.788 66.7567L110.36 67.4247C110.1 67.7261 109.782 67.9555 109.398 68.1131C109.015 68.2707 108.587 68.3495 108.111 68.3495C107.508 68.3495 106.974 68.2262 106.509 67.9761C106.043 67.7261 105.68 67.3835 105.427 66.9348C105.17 66.4895 105.047 65.986 105.047 65.4277C105.047 64.8693 105.17 64.376 105.42 63.9307C105.67 63.4854 106.009 63.1395 106.444 62.8894C106.878 62.6428 107.368 62.5161 107.916 62.5161C108.464 62.5161 108.946 62.6394 109.374 62.8894C109.802 63.1395 110.134 63.482 110.374 63.9307C110.614 64.376 110.733 64.8864 110.733 65.4584C110.73 65.5441 110.723 65.6469 110.706 65.7736M106.663 63.8485C106.331 64.15 106.136 64.5439 106.074 65.0337H109.73C109.675 64.5542 109.477 64.1637 109.141 63.8554C108.809 63.5505 108.395 63.3999 107.899 63.3999C107.406 63.3999 106.991 63.5505 106.659 63.852" fill="#161616"/>
<path d="M116.924 63.1567C117.352 63.578 117.564 64.1912 117.564 65.003V68.2845H116.533V65.1229C116.533 64.5714 116.4 64.157 116.133 63.8761C115.869 63.5952 115.486 63.4548 114.993 63.4548C114.435 63.4548 113.993 63.6192 113.671 63.9412C113.346 64.27 113.189 64.7359 113.189 65.3456V68.2845H112.158V62.5813H113.151V63.4411C113.36 63.1499 113.644 62.9204 113.993 62.7663C114.349 62.6087 114.753 62.5299 115.205 62.5299C115.927 62.5231 116.503 62.7354 116.927 63.1533" fill="#161616"/>
<path d="M119.768 68.161C119.336 68.0377 119.001 67.8768 118.758 67.6815L119.189 66.8662C119.443 67.0478 119.744 67.1917 120.103 67.2978C120.463 67.4075 120.822 67.4588 121.192 67.4588C122.096 67.4588 122.548 67.1985 122.548 66.6847C122.548 66.5134 122.486 66.3764 122.363 66.2771C122.24 66.1778 122.085 66.1058 121.907 66.0578C121.723 66.0099 121.462 65.9585 121.127 65.9003C120.668 65.8283 120.292 65.7427 120.004 65.6537C119.713 65.5612 119.463 65.4002 119.258 65.181C119.049 64.9584 118.946 64.6466 118.946 64.2459C118.946 63.7287 119.162 63.3141 119.593 63.0024C120.024 62.6907 120.6 62.5332 121.322 62.5332C121.702 62.5332 122.082 62.5811 122.462 62.6736C122.842 62.7661 123.154 62.8929 123.397 63.0504L122.958 63.8691C122.489 63.5676 121.942 63.4169 121.312 63.4169C120.874 63.4169 120.541 63.4889 120.312 63.6327C120.083 63.7766 119.97 63.9684 119.97 64.2047C119.97 64.3931 120.035 64.537 120.161 64.6432C120.288 64.7494 120.449 64.8316 120.641 64.8795C120.829 64.9309 121.096 64.9891 121.445 65.0508C121.904 65.1296 122.277 65.2152 122.561 65.3043C122.845 65.3933 123.085 65.5475 123.287 65.7599C123.486 65.9757 123.588 66.2771 123.588 66.6641C123.588 67.1814 123.369 67.5924 122.924 67.8973C122.486 68.2021 121.88 68.3529 121.123 68.3529C120.651 68.3529 120.206 68.2878 119.771 68.1645" fill="#161616"/>
<path d="M133.377 67.3492V68.2843H127.913V60.752H133.223V61.6872H128.988V64.0026H132.764V64.9172H128.988V67.3492H133.377Z" fill="#161616"/>
<path d="M139.737 63.1567C140.165 63.578 140.377 64.1912 140.377 65.003V68.2845H139.347V65.1229C139.347 64.5714 139.213 64.157 138.946 63.8761C138.683 63.5952 138.303 63.4548 137.806 63.4548C137.248 63.4548 136.807 63.6192 136.485 63.948C136.16 64.2768 136.002 64.7427 136.002 65.3524V68.2913H134.972V62.5881H135.965V63.4479C136.173 63.1533 136.458 62.9273 136.807 62.7697C137.163 62.6121 137.567 62.5334 138.019 62.5334C138.738 62.5265 139.313 62.7388 139.741 63.1567" fill="#161616"/>
<path d="M147.454 65.7771H142.829C142.894 66.2806 143.113 66.6848 143.493 66.9897C143.87 67.2945 144.335 67.4452 144.897 67.4452C145.574 67.4452 146.129 67.2157 146.543 66.7567L147.115 67.4247C146.855 67.7261 146.537 67.9555 146.153 68.1131C145.77 68.2707 145.342 68.3495 144.866 68.3495C144.263 68.3495 143.726 68.2262 143.264 67.9761C142.795 67.7295 142.435 67.3835 142.182 66.9348C141.925 66.4895 141.802 65.986 141.802 65.4277C141.802 64.8693 141.925 64.376 142.175 63.9307C142.425 63.4854 142.764 63.1395 143.199 62.8894C143.633 62.6428 144.123 62.5161 144.671 62.5161C145.218 62.5161 145.701 62.6394 146.129 62.8894C146.557 63.136 146.889 63.482 147.129 63.9307C147.368 64.376 147.488 64.8864 147.488 65.4584C147.481 65.5441 147.478 65.6469 147.461 65.7736M143.418 63.8485C143.086 64.15 142.89 64.5439 142.829 65.0337H146.485C146.43 64.5542 146.232 64.1637 145.896 63.8554C145.564 63.5505 145.15 63.3999 144.654 63.3999C144.161 63.3999 143.746 63.5505 143.414 63.852" fill="#161616"/>
<path d="M150.693 62.7867C151.046 62.6154 151.473 62.5264 151.973 62.5264V63.5265C151.919 63.5197 151.836 63.5128 151.737 63.5128C151.179 63.5128 150.737 63.6807 150.419 64.0129C150.101 64.3452 149.94 64.8214 149.94 65.4414V68.281H148.909V62.5777H149.902V63.5368C150.083 63.208 150.347 62.958 150.696 62.7867" fill="#161616"/>
<path d="M158.639 62.5811V67.5102C158.639 68.507 158.393 69.2469 157.896 69.723C157.4 70.1991 156.66 70.4389 155.681 70.4389C155.14 70.4389 154.63 70.367 154.144 70.2197C153.658 70.0724 153.261 69.8634 152.959 69.5928L153.456 68.7981C153.719 69.0276 154.052 69.2092 154.438 69.3428C154.829 69.4763 155.233 69.5415 155.65 69.5415C156.318 69.5415 156.811 69.3838 157.129 69.0687C157.448 68.7536 157.609 68.274 157.609 67.6266V67.1745C157.366 67.4691 157.064 67.6918 156.708 67.8391C156.352 67.9863 155.969 68.0582 155.554 68.0582C155.01 68.0582 154.514 67.9418 154.076 67.7089C153.637 67.4759 153.288 67.1506 153.035 66.7292C152.781 66.3079 152.658 65.8283 152.658 65.294C152.658 64.7596 152.781 64.2766 153.035 63.8588C153.288 63.4374 153.63 63.1155 154.076 62.8826C154.514 62.6531 155.01 62.54 155.554 62.54C155.986 62.54 156.386 62.6188 156.753 62.7764C157.119 62.9339 157.424 63.1669 157.66 63.4752V62.5914H158.639V62.5845V62.5811ZM156.677 66.9039C156.972 66.7464 157.208 66.5237 157.376 66.2394C157.543 65.9551 157.629 65.6366 157.629 65.2769C157.629 64.7254 157.444 64.2766 157.081 63.9375C156.715 63.5984 156.246 63.4272 155.671 63.4272C155.096 63.4272 154.616 63.5984 154.254 63.9375C153.887 64.2766 153.706 64.7254 153.706 65.2769C153.706 65.6366 153.791 65.9551 153.959 66.2394C154.127 66.5237 154.363 66.743 154.657 66.9039C154.952 67.0615 155.294 67.1403 155.674 67.1403C156.051 67.1437 156.383 67.0649 156.681 66.9039" fill="#161616"/>
<path d="M165.653 62.5776L162.887 68.8529C162.644 69.4318 162.36 69.8429 162.031 70.0792C161.702 70.3156 161.312 70.4354 160.853 70.4354C160.573 70.4354 160.302 70.3909 160.042 70.2984C159.778 70.2059 159.563 70.0792 159.392 69.908L159.83 69.1338C160.121 69.4147 160.467 69.5551 160.853 69.5551C161.107 69.5551 161.312 69.4866 161.48 69.3564C161.648 69.2263 161.798 68.9968 161.935 68.6714L162.12 68.2706L159.604 62.5776H160.679L162.668 67.1402L164.636 62.5776H165.653Z" fill="#161616"/>
<path d="M175.763 65.0371C176.017 65.3556 176.14 65.7598 176.14 66.2497C176.14 66.9005 175.893 67.4041 175.404 67.7569C174.911 68.1097 174.195 68.2843 173.257 68.2843H169.666V60.752H173.042C173.901 60.752 174.568 60.9232 175.034 61.2692C175.503 61.6117 175.736 62.0879 175.736 62.701C175.736 63.0984 175.643 63.4375 175.459 63.7252C175.274 64.013 175.031 64.2287 174.723 64.3794C175.161 64.4993 175.507 64.722 175.756 65.0405M170.741 61.622V64.0335H172.946C173.497 64.0335 173.921 63.9307 174.219 63.7252C174.514 63.5197 174.668 63.2217 174.668 62.8243C174.668 62.427 174.521 62.129 174.219 61.9235C173.918 61.718 173.497 61.6152 172.946 61.6152H170.741V61.622ZM174.592 67.1094C174.901 66.9108 175.055 66.5922 175.055 66.1606C175.055 65.3214 174.438 64.9001 173.216 64.9001H170.741V67.4075H173.216C173.822 67.4109 174.281 67.3115 174.592 67.106" fill="#161616"/>
<path d="M182.97 62.5776V68.2809H181.991V67.4211C181.782 67.7157 181.508 67.9418 181.169 68.1062C180.83 68.2672 180.457 68.3494 180.053 68.3494C179.293 68.3494 178.694 68.1404 178.259 67.7225C177.821 67.3012 177.605 66.6813 177.605 65.866V62.5845H178.636V65.7461C178.636 66.2976 178.769 66.7189 179.036 66.9964C179.3 67.2807 179.68 67.4211 180.177 67.4211C180.721 67.4211 181.152 67.2567 181.467 66.9244C181.782 66.5956 181.94 66.1298 181.94 65.5235V62.5776H182.974H182.97Z" fill="#161616"/>
<path d="M185.23 68.161C184.798 68.0377 184.463 67.8768 184.22 67.6815L184.651 66.8662C184.904 67.0478 185.206 67.1917 185.565 67.2978C185.925 67.404 186.284 67.4588 186.654 67.4588C187.558 67.4588 188.01 67.1985 188.01 66.6847C188.01 66.5134 187.948 66.3764 187.825 66.2771C187.701 66.1778 187.547 66.1058 187.369 66.0578C187.184 66.0099 186.924 65.9585 186.589 65.9003C186.13 65.8283 185.753 65.7427 185.466 65.6537C185.175 65.5612 184.925 65.4002 184.72 65.181C184.511 64.9584 184.408 64.6466 184.408 64.2459C184.408 63.7287 184.624 63.3141 185.052 63.0024C185.483 62.6907 186.058 62.5332 186.781 62.5332C187.161 62.5332 187.541 62.5811 187.921 62.6736C188.301 62.7661 188.612 62.8929 188.855 63.0504L188.417 63.8691C187.948 63.5676 187.4 63.4169 186.77 63.4169C186.335 63.4169 186 63.4889 185.771 63.6327C185.541 63.7766 185.428 63.965 185.428 64.2047C185.428 64.3931 185.493 64.537 185.62 64.6432C185.747 64.7494 185.908 64.8316 186.099 64.8795C186.291 64.9309 186.555 64.9891 186.904 65.0508C187.362 65.1296 187.736 65.2152 188.02 65.3043C188.304 65.3933 188.544 65.5475 188.746 65.7599C188.944 65.9757 189.047 66.2771 189.047 66.6641C189.047 67.1814 188.828 67.5924 188.386 67.8973C187.944 68.2021 187.342 68.3529 186.585 68.3529C186.113 68.3529 185.668 68.2878 185.233 68.1645" fill="#161616"/>
<path d="M190.344 61.2866C190.21 61.1599 190.146 60.9989 190.146 60.814C190.146 60.629 190.214 60.4645 190.344 60.3344C190.474 60.2042 190.645 60.1357 190.844 60.1357C191.042 60.1357 191.21 60.2008 191.344 60.3241C191.477 60.4474 191.542 60.605 191.542 60.7934C191.542 60.9818 191.474 61.1496 191.344 61.2798C191.214 61.4099 191.042 61.4785 190.844 61.4785C190.645 61.4819 190.478 61.4168 190.344 61.2866ZM190.327 62.578H191.357V68.2813H190.327V62.578Z" fill="#161616"/>
<path d="M198.102 63.1532C198.529 63.5745 198.742 64.1877 198.742 64.9995V68.281H197.711V65.1193C197.711 64.5679 197.578 64.1534 197.311 63.8726C197.047 63.5917 196.667 63.4512 196.171 63.4512C195.613 63.4512 195.171 63.6156 194.849 63.9376C194.524 64.2664 194.366 64.7323 194.366 65.342V68.281H193.336V62.5778H194.329V63.4375C194.538 63.1464 194.822 62.9169 195.171 62.7627C195.527 62.6052 195.931 62.5264 196.383 62.5264C197.102 62.523 197.677 62.7319 198.105 63.1498" fill="#161616"/>
<path d="M205.818 65.7771H201.193C201.258 66.2806 201.477 66.6848 201.857 66.9897C202.234 67.2945 202.699 67.4452 203.261 67.4452C203.939 67.4452 204.493 67.2157 204.908 66.7567L205.479 67.4247C205.219 67.7261 204.901 67.9555 204.517 68.1131C204.134 68.2707 203.706 68.3495 203.23 68.3495C202.628 68.3495 202.093 68.2262 201.628 67.9761C201.159 67.7295 200.799 67.3835 200.546 66.9348C200.293 66.4861 200.166 65.986 200.166 65.4277C200.166 64.8693 200.289 64.376 200.539 63.9307C200.786 63.4854 201.128 63.1395 201.563 62.8894C201.998 62.6428 202.487 62.5161 203.035 62.5161C203.583 62.5161 204.065 62.6394 204.493 62.8894C204.921 63.136 205.253 63.482 205.493 63.9307C205.733 64.376 205.852 64.8864 205.852 65.4584C205.846 65.5372 205.835 65.6435 205.825 65.7736M201.778 63.8485C201.446 64.15 201.251 64.5439 201.19 65.0337H204.846C204.791 64.5542 204.593 64.1637 204.257 63.8554C203.925 63.5505 203.511 63.3999 203.014 63.3999C202.521 63.3999 202.107 63.5471 201.775 63.852" fill="#161616"/>
<path d="M207.561 68.161C207.129 68.0377 206.794 67.8768 206.551 67.6815L206.982 66.8662C207.235 67.0478 207.537 67.1917 207.896 67.2978C208.256 67.4075 208.615 67.4588 208.985 67.4588C209.889 67.4588 210.341 67.1985 210.341 66.6847C210.341 66.5134 210.279 66.3764 210.156 66.2771C210.033 66.1778 209.878 66.1058 209.7 66.0578C209.516 66.0099 209.255 65.9585 208.92 65.9003C208.461 65.8283 208.084 65.7427 207.797 65.6537C207.506 65.5612 207.256 65.4002 207.051 65.181C206.842 64.9584 206.739 64.6466 206.739 64.2459C206.739 63.7287 206.955 63.3141 207.383 63.0024C207.814 62.6907 208.389 62.5332 209.112 62.5332C209.492 62.5332 209.872 62.5811 210.252 62.6736C210.632 62.7661 210.943 62.8929 211.186 63.0504L210.748 63.8691C210.279 63.5676 209.731 63.4169 209.101 63.4169C208.666 63.4169 208.331 63.4889 208.102 63.6327C207.872 63.7766 207.759 63.9684 207.759 64.2047C207.759 64.3931 207.824 64.537 207.951 64.6432C208.078 64.7494 208.239 64.8316 208.43 64.8795C208.622 64.9309 208.886 64.9891 209.235 65.0508C209.694 65.1296 210.067 65.2152 210.351 65.3043C210.635 65.3933 210.875 65.5475 211.077 65.7599C211.275 65.9757 211.378 66.2771 211.378 66.6641C211.378 67.1814 211.159 67.5924 210.717 67.8973C210.279 68.2021 209.673 68.3529 208.916 68.3529C208.441 68.3529 207.992 68.2878 207.564 68.1645" fill="#161616"/>
<path d="M212.945 68.161C212.514 68.0377 212.179 67.8768 211.936 67.6815L212.367 66.8662C212.62 67.0478 212.921 67.1917 213.281 67.2978C213.64 67.4075 214 67.4588 214.37 67.4588C215.274 67.4588 215.725 67.1985 215.725 66.6847C215.725 66.5134 215.664 66.3764 215.541 66.2771C215.417 66.1778 215.263 66.1058 215.085 66.0578C214.9 66.0099 214.64 65.9585 214.305 65.9003C213.846 65.8283 213.469 65.7427 213.182 65.6537C212.891 65.5612 212.641 65.4002 212.435 65.181C212.227 64.9584 212.124 64.6466 212.124 64.2459C212.124 63.7287 212.339 63.3141 212.767 63.0024C213.199 62.6907 213.774 62.5332 214.496 62.5332C214.876 62.5332 215.256 62.5811 215.636 62.6736C216.016 62.7661 216.328 62.8929 216.571 63.0504L216.133 63.8691C215.664 63.5676 215.116 63.4169 214.486 63.4169C214.051 63.4169 213.716 63.4889 213.486 63.6327C213.257 63.7766 213.144 63.965 213.144 64.2047C213.144 64.3931 213.209 64.537 213.336 64.6432C213.462 64.7494 213.623 64.8316 213.815 64.8795C214.007 64.9309 214.27 64.9891 214.62 65.0508C215.078 65.1296 215.452 65.2152 215.736 65.3043C216.02 65.3933 216.259 65.5475 216.461 65.7599C216.66 65.9757 216.763 66.2771 216.763 66.6641C216.763 67.1814 216.544 67.5924 216.102 67.8973C215.664 68.2021 215.058 68.3529 214.301 68.3529C213.829 68.3529 213.384 68.2878 212.949 68.1645" fill="#161616"/>
</svg>
