<svg width="277" height="30" viewBox="0 0 277 30" fill="none" xmlns="http://www.w3.org/2000/svg">
<g clip-path="url(#clip0_89_855)">
<path d="M17.7014 5.52166C17.5819 5.44869 17.3992 5.41046 17.2762 5.46259C16.4962 5.38961 15.7478 5.39656 14.9572 5.40699H14.901C14.504 5.41394 14.0964 5.41741 13.6853 5.41046L10.372 5.34444C9.59553 5.32359 8.74524 5.33054 7.90901 5.36181C7.29062 5.36529 6.6898 5.38266 6.07844 5.40004C5.44248 5.41741 3.9211 5.42089 3.01108 5.42436C2.52621 5.42436 2.27323 5.42436 2.24161 5.42436C2.13269 5.43131 2.00269 5.57727 2.00269 5.69889C2.00269 5.76492 2.04133 5.84137 2.15728 5.85179C2.24161 5.86222 2.79324 5.86569 3.7911 5.85874H4.81003C5.08058 5.85179 5.20707 5.85874 5.2668 5.85179H5.27383C6.02573 5.77534 6.77764 5.78229 7.50495 5.78577H7.56117C8.03199 5.78577 8.52037 5.79272 9.01228 5.77187C9.11417 5.79619 9.21958 5.77187 9.32498 5.75449H9.33904C9.38472 5.74059 9.4339 5.73364 9.47958 5.73017C9.59202 5.76144 9.7185 5.76144 9.85202 5.75797C9.98202 5.75797 10.1155 5.75102 10.235 5.78229H10.2561C10.3615 5.74407 10.4599 5.76144 10.5618 5.78229H10.5793C10.6285 5.79272 10.6742 5.79967 10.7164 5.79967C11.665 5.77534 12.7121 5.80662 14.0191 5.90739L14.6375 5.97342H14.6445C15.1927 5.91782 15.7619 5.95952 16.31 6.00122H16.324C16.7386 6.0325 17.1251 6.0603 17.5151 6.05335L17.5397 6.04987V6.04292L17.7435 5.88307L17.7505 5.87264C17.8208 5.76492 17.7997 5.61202 17.7014 5.52166Z" fill="#CB9700"/>
<path d="M12.2238 12.4928L12.2414 12.4824V12.4442L12.2274 11.1688V11.1584C12.2028 10.9673 12.1993 10.7553 12.1922 10.5294C12.1852 10.2757 12.1817 10.0151 12.1466 9.78576C12.1395 9.45563 12.0728 9.10118 12.0095 8.75715L11.9674 8.52432V8.50347L11.9463 8.4861C11.8936 8.43397 11.876 8.37142 11.8584 8.29497C11.8409 8.23242 11.8233 8.16987 11.7847 8.10732C11.7003 7.95094 11.5598 7.79804 11.4403 7.66599L11.4333 7.65904C11.4017 7.61734 11.3665 7.59649 11.3349 7.57911C11.3173 7.56869 11.2998 7.55826 11.2787 7.54089L11.2506 7.51656H11.233L11.2119 7.50266C11.103 7.41579 11.0011 7.38104 10.8817 7.34281C10.85 7.29416 10.7833 7.28721 10.7411 7.28721V7.25593L10.6779 7.24899L10.3933 7.20728L10.3511 7.20033L10.3265 7.23508C10.3265 7.23508 10.3125 7.25246 10.2527 7.22813C10.2246 7.21771 10.1965 7.20728 10.1614 7.20381H10.1262L10.1122 7.21771C10.1016 7.21076 10.0911 7.20381 10.0806 7.19686L9.9611 7.16211L9.95056 7.21771C9.89786 7.21771 9.85218 7.22814 9.81353 7.24899H9.44812L9.4692 7.31501C9.3919 7.29764 9.33217 7.34629 9.30055 7.37409C9.29352 7.37756 9.2865 7.38451 9.28298 7.38799C9.21974 7.39841 9.1846 7.42274 9.16001 7.44359C9.14244 7.45749 9.13541 7.46096 9.11785 7.46444H9.08974L9.06866 7.48876C9.04406 7.52004 8.95973 7.55826 8.91757 7.57564L8.81919 7.61734L8.84027 7.63819C8.84027 7.63819 8.80865 7.65556 8.7946 7.66946H8.69973V7.74244C8.69973 7.74244 8.6927 7.74244 8.68919 7.74244L8.63649 7.72159L8.59784 7.76677C8.54162 7.84669 8.46783 7.92314 8.38702 8.00654C8.29567 8.10384 8.20431 8.20115 8.13053 8.30887L8.10945 8.34015L8.1235 8.3749C8.10594 8.38532 8.06377 8.41312 8.05323 8.46525C8.0181 8.50347 8.01107 8.5556 8.00404 8.59035C8.00404 8.60077 8.00053 8.61467 7.99701 8.62162C7.95836 8.6668 7.94782 8.71198 7.94431 8.74673C7.9408 8.77453 7.93728 8.78843 7.92674 8.80233L7.87755 8.8614L7.89863 8.8753C7.88458 8.91005 7.88458 8.9448 7.88458 8.96913C7.88458 8.97955 7.88458 8.98998 7.88458 8.99693L7.85296 9.0143L7.85998 9.05948C7.87404 9.14983 7.85998 9.23323 7.84944 9.32011C7.83539 9.40351 7.82836 9.49038 7.83539 9.58769C7.80025 9.63981 7.80728 9.70236 7.81431 9.74406C7.81431 9.75796 7.81782 9.77534 7.81431 9.78576L7.76863 9.82051L7.80025 9.87611C7.82485 9.91781 7.80728 9.98384 7.7862 10.0464C7.76863 10.1055 7.74755 10.1819 7.76863 10.2445C7.7616 10.2514 7.75809 10.2549 7.75106 10.2618C7.74404 10.2723 7.7335 10.2931 7.73701 10.314C7.73701 10.3626 7.72998 10.3765 7.72998 10.38L7.69485 10.4495V10.4773L7.75106 10.5225C7.74404 10.5642 7.75106 10.6024 7.75458 10.6337C7.7616 10.6788 7.7616 10.6997 7.74755 10.7171L7.7089 10.7866L7.74755 10.8317V10.8456C7.74755 10.8769 7.74052 10.9325 7.78269 10.9742C7.78269 10.9847 7.78269 10.9916 7.7862 10.9986L7.71593 11.0159L7.7616 11.1132C7.7616 11.1132 7.7616 11.1271 7.75458 11.1376C7.74755 11.1654 7.73701 11.221 7.76512 11.2696C7.74052 11.3252 7.75458 11.3808 7.76512 11.4156C7.76512 11.426 7.77215 11.4399 7.77215 11.4503C7.70539 11.5198 7.73701 11.6102 7.75458 11.6588C7.72295 11.704 7.72998 11.7596 7.73701 11.7943L7.64917 11.8256L7.74052 11.916C7.73701 11.9368 7.73701 11.9611 7.75106 11.9855C7.7616 11.9994 7.77566 12.0098 7.7862 12.0167L7.75809 12.0237C7.75809 12.0237 7.75809 12.0306 7.7616 12.0341L7.79323 12.1175V12.1279C7.78269 12.1766 7.79323 12.2252 7.81782 12.26C7.81079 12.2704 7.80377 12.2843 7.80377 12.2982L7.76863 12.333L7.80377 12.3816C7.83188 12.4198 7.82134 12.4685 7.80025 12.5484C7.78269 12.6179 7.7616 12.7048 7.80025 12.7812L7.75106 12.8299L7.81431 12.8751C7.81431 12.8751 7.81431 12.882 7.81079 12.8855C7.79323 12.9168 7.76512 12.9724 7.80025 13.0314V13.0245C7.81079 13.0523 7.80377 13.1009 7.80025 13.1461C7.79323 13.2191 7.78269 13.306 7.82134 13.3929L7.80728 13.4797V13.4693C7.80025 13.5041 7.80728 13.5319 7.81782 13.5527L7.78971 13.5631L7.80728 13.6257C7.82836 13.6882 7.82836 13.7647 7.82836 13.8446C7.82836 13.9975 7.82836 14.1747 7.96891 14.3068L8.00053 14.3346L8.03918 14.3242C8.14458 14.2929 8.1481 14.1886 8.15161 14.133C8.15161 14.1191 8.15161 14.1087 8.15161 14.1018V14.0879V14.074C8.10945 13.935 8.12702 13.7473 8.14458 13.5875C8.1481 13.5423 8.15161 13.5041 8.15512 13.4624V13.4415L8.1481 13.4241C8.11999 13.3685 8.12702 13.3129 8.13404 13.2469C8.14107 13.1878 8.1481 13.1218 8.12702 13.0523C8.15161 12.7534 8.13756 12.399 8.12702 12.0897C8.11999 11.9577 8.11648 11.8326 8.11296 11.7179V11.7109C8.09539 11.5615 8.09891 11.4051 8.10593 11.2522C8.10945 11.1132 8.11296 10.9742 8.09891 10.8422C8.13404 10.6927 8.13053 10.5572 8.12702 10.4113C8.12702 10.3452 8.12702 10.2792 8.12702 10.2097V10.1923V10.1819C8.15864 10.1437 8.16567 10.102 8.15161 10.0638C8.16567 10.0082 8.16918 9.95951 8.16918 9.91086C8.16918 9.87264 8.16918 9.83789 8.17972 9.80661V9.78924V9.77186C8.16918 9.74059 8.17972 9.70584 8.18675 9.66761C8.19729 9.61896 8.21134 9.56336 8.19026 9.51123C8.24648 9.40003 8.25702 9.26103 8.27107 9.12898V9.0838C8.28161 9.056 8.27107 9.0282 8.24648 9.00388C8.24648 8.94133 8.2781 8.89268 8.31675 8.8336C8.35891 8.76758 8.4081 8.6946 8.41864 8.59035V8.57297C8.42216 8.5695 8.42918 8.56255 8.4327 8.55907C8.46081 8.53822 8.49946 8.50347 8.49946 8.45135C8.49946 8.44092 8.49946 8.43397 8.49594 8.42355C8.54513 8.37837 8.57675 8.32972 8.60486 8.28107C8.64703 8.21505 8.67513 8.1664 8.75595 8.14207L8.7946 8.13164L8.80514 8.09342C8.81568 8.04824 8.85433 8.02392 8.91406 7.98569C8.95973 7.95789 9.01244 7.92662 9.04757 7.87797C9.10028 7.88144 9.1319 7.86754 9.14947 7.85017C9.21271 7.83627 9.25839 7.79804 9.30055 7.76677C9.36731 7.71464 9.38839 7.70421 9.43407 7.72159L9.47974 7.74244L9.51137 7.71464C9.51137 7.71464 9.51488 7.71464 9.51839 7.71464C9.53948 7.71117 9.57461 7.70074 9.59569 7.66599C9.61677 7.66251 9.63083 7.65556 9.6484 7.65209C9.68353 7.63819 9.69056 7.63819 9.70461 7.64514C9.71867 7.65209 9.74326 7.66251 9.77137 7.65556V7.66251L9.82759 7.65556L9.89786 7.64514C10.1052 7.61734 10.2844 7.59649 10.446 7.67989L10.5022 7.71117L10.5373 7.65904C10.5373 7.65904 10.5514 7.67641 10.5584 7.68336C10.6006 7.72854 10.6744 7.80847 10.7798 7.79109C10.8044 7.81194 10.829 7.82584 10.85 7.83974C10.8606 7.84322 10.8711 7.85364 10.8817 7.85712L10.8957 7.87797C10.9273 7.91967 10.9976 7.94052 11.0538 7.94399C11.1768 8.06909 11.2998 8.24285 11.2998 8.3193V8.3888H11.3525C11.3736 8.4861 11.4017 8.60077 11.4719 8.67723C11.4509 8.72588 11.4719 8.78148 11.479 8.8058C11.479 8.81275 11.4825 8.82318 11.486 8.83013L11.4684 8.88573L11.5176 8.93438L11.5282 8.94133C11.5282 8.98998 11.5492 9.03515 11.5633 9.06643C11.5668 9.07685 11.5738 9.0838 11.5738 9.09423L11.5633 9.11856C11.4965 9.24018 11.5844 9.30968 11.6265 9.34096C11.6336 9.34791 11.6406 9.35138 11.6406 9.35486C11.609 9.37918 11.609 9.40351 11.6055 9.44868L11.6125 9.50428L11.6371 9.53904C11.6371 9.53904 11.6371 9.54251 11.6371 9.54598C11.6371 9.55641 11.6441 9.57031 11.6546 9.58769L11.6301 9.61201L11.6125 9.67456L11.6476 9.72669L11.6757 9.74059C11.6757 9.76839 11.6898 9.79619 11.6968 9.81356C11.6968 9.81356 11.6968 9.82051 11.6968 9.82399L11.6898 9.85526C11.6652 9.97341 11.6371 10.1228 11.7074 10.2445C11.7074 10.2445 11.7038 10.2479 11.7003 10.2514C11.6652 10.2966 11.6757 10.3487 11.6828 10.3869C11.6828 10.3974 11.6863 10.4182 11.6828 10.4252L11.6652 10.4981C11.6652 10.4981 11.6898 10.5086 11.7074 10.512C11.7074 10.519 11.7003 10.5259 11.7003 10.5329L11.6863 10.6163H11.7144C11.7109 10.6476 11.7074 10.6719 11.7074 10.6962C11.7074 10.7379 11.7074 10.7657 11.6898 10.79L11.6828 10.8005V10.8109C11.6582 10.8873 11.6898 10.9603 11.7109 11.0159C11.7144 11.0298 11.7179 11.0368 11.7214 11.0472C11.7109 11.0611 11.6968 11.0785 11.6968 11.1063C11.6968 11.1132 11.6968 11.1167 11.7003 11.1237L11.6863 11.1376L11.7003 11.1793C11.7074 11.2036 11.7214 11.2175 11.739 11.2244H11.7249V11.2835V11.3044L11.6792 11.3183L11.7038 11.3634C11.6898 11.3843 11.6792 11.4156 11.6933 11.4503L11.6617 11.5059C11.6617 11.5059 11.6687 11.5407 11.6933 11.5511C11.6652 11.6484 11.7355 11.7214 11.7776 11.7631C11.7952 11.7804 11.8092 11.7943 11.8163 11.8048H11.7811L11.8057 11.8951C11.8057 11.8951 11.7917 11.909 11.7882 11.9194L11.7284 11.9472L11.7495 12.0272L11.7425 12.0445C11.7284 12.0862 11.739 12.114 11.7495 12.1314L11.7565 12.1384C11.7355 12.1592 11.7109 12.1905 11.7074 12.2391L11.7003 12.3052L11.753 12.3121C11.753 12.3121 11.7425 12.3399 11.7425 12.3538C11.7355 12.3781 11.7284 12.399 11.7179 12.4164C11.7179 12.4164 11.7179 12.4233 11.7144 12.4268L11.8092 12.4824C11.7952 12.5067 11.7882 12.531 11.7811 12.5519C11.7811 12.5623 11.7741 12.5762 11.7706 12.5832H11.6828V12.677C11.6828 12.677 11.6933 12.7083 11.6968 12.7256C11.6968 12.743 11.7003 12.7604 11.7038 12.7812V12.8716C11.7038 12.8716 11.7038 12.9029 11.7109 12.9237L11.7003 12.9307L11.7074 12.9828C11.7109 13.0071 11.7074 13.0349 11.7074 13.0592C11.7074 13.0731 11.7074 13.0905 11.7074 13.1079L11.6406 13.1426L11.7214 13.2295C11.7109 13.2538 11.7003 13.2817 11.7003 13.3164H11.6441L11.7425 13.4311C11.7425 13.4311 11.7601 13.4658 11.7636 13.4867C11.7636 13.4867 11.7636 13.4902 11.7636 13.4936C11.7214 13.5319 11.7179 13.5875 11.7144 13.6187C11.7144 13.6326 11.7144 13.65 11.7074 13.657L11.7319 13.6882C11.7144 13.7021 11.7003 13.7195 11.6968 13.7299C11.6863 13.7543 11.6863 13.7751 11.6898 13.796H11.5949L11.6722 13.8724L11.5984 13.8967L11.6582 13.9454V14.133C11.6582 14.1678 11.6757 14.1956 11.7038 14.213H11.7074C11.746 14.2373 11.7882 14.2373 11.8233 14.2269V14.3068L11.9147 14.279C11.9814 14.2581 12.0341 14.2547 12.0868 14.2651L12.1641 14.279L12.1747 14.2025C12.2133 13.9176 12.2063 13.6431 12.1957 13.379C12.1887 13.1183 12.1817 12.8751 12.2168 12.6318C12.2379 12.5832 12.2168 12.5415 12.2028 12.5206L12.2238 12.4928Z" fill="#006937"/>
<path d="M6.72845 12.4928L6.74601 12.4824V12.4442L6.73196 11.1688V11.1584C6.70736 10.9673 6.70385 10.7553 6.70034 10.5294C6.69331 10.2757 6.6898 10.0151 6.65466 9.78576C6.64763 9.45563 6.58087 9.10118 6.51763 8.75715L6.47547 8.52432V8.50347L6.4579 8.4861C6.4052 8.43397 6.38763 8.37142 6.36655 8.29497C6.34898 8.23242 6.33141 8.16987 6.29276 8.10732C6.20492 7.95094 6.06789 7.79804 5.94843 7.66599L5.9414 7.65904C5.90978 7.61734 5.87465 7.59649 5.84302 7.57911C5.82546 7.56869 5.80789 7.55826 5.79032 7.54089L5.76221 7.51656H5.74464L5.72356 7.50266C5.61464 7.41579 5.51275 7.38104 5.39329 7.34281C5.35815 7.29416 5.2949 7.28721 5.24923 7.28721V7.25593L5.1895 7.24899L4.9049 7.20728L4.86274 7.20033L4.83814 7.23508C4.83814 7.23508 4.82409 7.25246 4.76435 7.22813C4.73625 7.21771 4.70814 7.20728 4.673 7.20381H4.63787L4.6203 7.21771C4.61327 7.21076 4.60273 7.20381 4.58868 7.19686L4.46921 7.16211L4.45867 7.21771C4.40597 7.21771 4.36029 7.22814 4.32164 7.24899H3.95623L3.97731 7.31501C3.90001 7.29764 3.84028 7.34629 3.80866 7.37409C3.80163 7.37756 3.79812 7.38451 3.79109 7.38799C3.72785 7.39841 3.69271 7.42274 3.66812 7.44359C3.65055 7.45749 3.64352 7.46096 3.62596 7.46444H3.59785L3.57677 7.48876C3.55217 7.52004 3.46784 7.55826 3.42568 7.57564L3.3273 7.61734L3.34838 7.63819C3.34838 7.63819 3.31676 7.65556 3.30271 7.66946H3.20784V7.74244C3.20784 7.74244 3.20081 7.74244 3.1973 7.74244L3.1446 7.72159L3.10595 7.76677C3.04973 7.84669 2.97243 7.92314 2.89513 8.00654C2.80378 8.10384 2.70891 8.20115 2.63513 8.30887L2.61404 8.34015L2.6281 8.3749C2.61053 8.38532 2.56837 8.41312 2.56134 8.46525C2.52621 8.50347 2.51566 8.5556 2.51215 8.59035C2.51215 8.60077 2.50864 8.61467 2.50512 8.62162C2.46647 8.6668 2.45593 8.71198 2.45242 8.74673C2.44539 8.77453 2.44539 8.78843 2.43485 8.80233L2.38918 8.8614L2.41026 8.8753C2.3962 8.91005 2.3962 8.9448 2.3962 8.96913C2.3962 8.97955 2.3962 8.98998 2.3962 8.99693L2.36458 9.0143L2.37161 9.05948C2.38215 9.14983 2.37161 9.23323 2.36107 9.32011C2.34701 9.40351 2.33647 9.49038 2.34701 9.58769C2.31188 9.63981 2.3189 9.70236 2.32593 9.74406C2.32593 9.75796 2.33296 9.77534 2.32944 9.78576L2.28377 9.82051L2.31539 9.87611C2.33999 9.91781 2.32242 9.98384 2.30134 10.0464C2.28377 10.1055 2.26269 10.1819 2.28377 10.2445C2.27674 10.2514 2.27323 10.2549 2.2662 10.2618C2.25917 10.2723 2.25215 10.2931 2.25215 10.314C2.25215 10.3626 2.24863 10.3765 2.24512 10.38L2.20998 10.4495L2.20296 10.4773L2.2662 10.5225C2.25917 10.5642 2.2662 10.6024 2.2662 10.6337C2.27323 10.6788 2.27674 10.6997 2.26269 10.7171L2.22404 10.7866L2.26269 10.8317C2.26269 10.8317 2.26269 10.8387 2.26269 10.8456C2.26269 10.8769 2.25917 10.9325 2.29782 10.9742C2.29782 10.9847 2.29782 10.9916 2.30134 10.9986L2.23106 11.0159L2.27674 11.1132C2.27674 11.1132 2.27323 11.1271 2.26971 11.1376C2.26269 11.1654 2.25215 11.221 2.28025 11.2696C2.25917 11.3252 2.27323 11.3808 2.28025 11.4156C2.28377 11.426 2.28728 11.4399 2.28728 11.4503C2.22052 11.5198 2.25215 11.6102 2.26971 11.6588C2.23809 11.704 2.24512 11.7596 2.25215 11.7943L2.16431 11.8256L2.25566 11.916C2.25215 11.9368 2.25215 11.9611 2.2662 11.9855C2.27674 11.9994 2.2908 12.0098 2.30485 12.0167L2.27674 12.0237C2.27674 12.0237 2.27674 12.0306 2.27674 12.0341L2.30836 12.1175V12.1279C2.30134 12.1766 2.30836 12.2252 2.33647 12.26C2.32944 12.2704 2.32242 12.2843 2.32242 12.2982L2.28728 12.333L2.32242 12.3816C2.34701 12.4198 2.33999 12.4685 2.3189 12.5484C2.30134 12.6179 2.28025 12.7048 2.3189 12.7812L2.26971 12.8299L2.33296 12.8751C2.33296 12.8751 2.33296 12.882 2.32944 12.8855C2.31188 12.9168 2.28377 12.9724 2.32242 13.0314V13.0245C2.33296 13.0523 2.32593 13.1009 2.32242 13.1461C2.31188 13.2191 2.30134 13.306 2.3435 13.3929L2.32944 13.4797V13.4693C2.32242 13.5041 2.32944 13.5319 2.3435 13.5527L2.31539 13.5631L2.33296 13.6257C2.35404 13.6882 2.35404 13.7647 2.35404 13.8446C2.35404 13.9975 2.35404 14.1747 2.49458 14.3068L2.52621 14.3346L2.56485 14.3242C2.67026 14.2929 2.67378 14.1886 2.67729 14.133C2.67729 14.1191 2.67729 14.1087 2.67729 14.1018V14.0879V14.074C2.63513 13.935 2.65269 13.7473 2.67026 13.5875C2.67026 13.5423 2.67729 13.5041 2.6808 13.4624V13.4415L2.67378 13.4241C2.64567 13.3685 2.65269 13.3129 2.65972 13.2469C2.66675 13.1878 2.67378 13.1218 2.65269 13.0523C2.67729 12.7534 2.66323 12.399 2.65269 12.0897C2.64567 11.9577 2.64215 11.8326 2.63864 11.7179V11.7109C2.62107 11.5615 2.62459 11.4051 2.63161 11.2522C2.63864 11.1132 2.63864 10.9742 2.6281 10.8422C2.65972 10.6927 2.65972 10.5572 2.65621 10.4113C2.65621 10.3452 2.65621 10.2792 2.65621 10.2097V10.1819C2.68432 10.1437 2.69134 10.102 2.67378 10.0638C2.68783 10.0082 2.69134 9.95951 2.69134 9.91086C2.69134 9.87264 2.69134 9.83789 2.70188 9.80661V9.78924V9.77186C2.69134 9.74059 2.70188 9.70584 2.70891 9.66761C2.71945 9.61896 2.72999 9.56336 2.70891 9.51123C2.76513 9.40003 2.77567 9.26103 2.78972 9.12898V9.0838C2.79675 9.056 2.78972 9.0282 2.76513 9.00388C2.76513 8.94133 2.79675 8.89268 2.8354 8.8336C2.87756 8.76758 2.92675 8.6946 2.94081 8.59035V8.57297C2.94783 8.5695 2.95135 8.56255 2.95838 8.55907C2.98297 8.53822 3.02513 8.50347 3.02162 8.45135C3.02162 8.44092 3.02162 8.43397 3.01811 8.42355C3.0673 8.37837 3.09892 8.32972 3.12703 8.28107C3.16568 8.21505 3.1973 8.1664 3.2746 8.14207L3.31325 8.13164L3.32379 8.09342C3.33433 8.04824 3.37298 8.02392 3.43622 7.98569C3.4819 7.95789 3.5346 7.92662 3.56974 7.87797C3.62244 7.88144 3.65406 7.86754 3.67163 7.85017C3.73136 7.83627 3.78055 7.79804 3.82272 7.76677C3.88947 7.71464 3.91056 7.70421 3.95623 7.72159L4.00191 7.74244L4.03002 7.71464H4.03704C4.05813 7.71117 4.09326 7.70074 4.11786 7.66599C4.13542 7.66251 4.15299 7.65556 4.17056 7.65209C4.2057 7.63819 4.21624 7.63819 4.23029 7.64514C4.24083 7.65209 4.26543 7.66251 4.29705 7.65556V7.66251L4.35327 7.65556L4.42354 7.64514C4.63084 7.61734 4.81003 7.59649 4.97166 7.67989L5.02787 7.71117L5.06301 7.65904C5.06301 7.65904 5.07706 7.67641 5.08409 7.68336C5.12625 7.72854 5.19652 7.80847 5.30193 7.79109C5.32653 7.81194 5.35112 7.82584 5.37572 7.83974C5.38626 7.84322 5.3968 7.85364 5.40734 7.85712L5.42139 7.87797C5.45302 7.91967 5.52329 7.94052 5.5795 7.94399C5.70248 8.06909 5.82546 8.24285 5.82546 8.3193V8.3888H5.87816C5.87816 8.3888 5.87816 8.3888 5.87816 8.39227C5.89924 8.4861 5.92735 8.60077 5.99762 8.67723C5.97654 8.72588 5.99762 8.78148 6.00465 8.8058C6.00465 8.81275 6.01168 8.82318 6.01168 8.83013L5.99411 8.88573L6.0433 8.93438L6.05384 8.94133C6.05384 8.98998 6.07141 9.03515 6.08897 9.06643C6.08897 9.07685 6.096 9.0838 6.09951 9.09423L6.08897 9.11856C6.02573 9.24018 6.11357 9.30968 6.15222 9.34096C6.15925 9.34791 6.16276 9.35138 6.16627 9.35486C6.13465 9.37918 6.13465 9.40351 6.12762 9.44868L6.13465 9.50428L6.15573 9.53904V9.54598C6.15925 9.55641 6.16276 9.57031 6.1733 9.58769L6.1487 9.61201L6.13465 9.67456L6.16979 9.72669L6.19789 9.74059C6.19789 9.76839 6.20844 9.79619 6.21546 9.81356C6.21546 9.81356 6.21546 9.82051 6.21898 9.82399L6.21195 9.85526C6.18735 9.97341 6.15925 10.1228 6.22952 10.2445C6.22952 10.2445 6.226 10.2479 6.22249 10.2514C6.18735 10.2966 6.19789 10.3487 6.20492 10.3869C6.20492 10.3974 6.21195 10.4182 6.20492 10.4252L6.18735 10.4981C6.18735 10.4981 6.21195 10.5086 6.22952 10.512C6.22952 10.519 6.22249 10.5259 6.22249 10.5329L6.20844 10.6163H6.24006C6.23303 10.6476 6.23303 10.6719 6.23303 10.6962C6.23303 10.7379 6.23303 10.7657 6.21546 10.79L6.20844 10.8005V10.8109C6.18384 10.8873 6.21195 10.9603 6.23654 11.0159C6.24006 11.0298 6.24357 11.0368 6.2506 11.0472C6.23654 11.0611 6.226 11.0785 6.226 11.1063C6.226 11.1132 6.226 11.1167 6.23303 11.1237L6.21546 11.1376L6.22952 11.1793C6.23654 11.2036 6.2506 11.2175 6.26817 11.2244H6.25763V11.2835V11.3044L6.21195 11.3183L6.23303 11.3634C6.22249 11.3843 6.20844 11.4156 6.22249 11.4503L6.19087 11.5059C6.19087 11.5059 6.19789 11.5407 6.22249 11.5511C6.19438 11.6484 6.26465 11.7214 6.30682 11.7631C6.32438 11.7804 6.33492 11.7943 6.34195 11.8048H6.30682L6.33492 11.8951C6.33492 11.8951 6.32087 11.909 6.31736 11.9194L6.26114 11.9472L6.27871 12.0272L6.27168 12.0445C6.25763 12.0862 6.27168 12.114 6.27871 12.1314C6.27871 12.1314 6.28573 12.1384 6.28925 12.1384C6.26817 12.1592 6.24357 12.1905 6.24006 12.2391L6.23303 12.3052L6.28925 12.3121C6.28925 12.3121 6.27871 12.3399 6.27519 12.3538C6.26817 12.3781 6.26114 12.399 6.2506 12.4164C6.2506 12.4164 6.24709 12.4233 6.24357 12.4268L6.33844 12.4824C6.32438 12.5067 6.31736 12.531 6.31384 12.5519C6.31384 12.5623 6.30682 12.5762 6.3033 12.5832H6.21546V12.677C6.21546 12.677 6.226 12.7083 6.22952 12.7256C6.22952 12.743 6.23303 12.7604 6.24006 12.7812V12.8716C6.24006 12.8716 6.24006 12.9029 6.24357 12.9237L6.23303 12.9307L6.24006 12.9828C6.24006 13.0071 6.24006 13.0349 6.24006 13.0592C6.24006 13.0731 6.24006 13.0905 6.24006 13.1079L6.1733 13.1426L6.25411 13.2295C6.24357 13.2504 6.23303 13.2817 6.23303 13.3129H6.17681L6.27519 13.4276C6.27519 13.4276 6.28925 13.4624 6.29628 13.4832C6.29628 13.4832 6.29628 13.4867 6.29628 13.4902C6.25411 13.5284 6.2506 13.584 6.24709 13.6153C6.24709 13.6292 6.24357 13.6465 6.24006 13.6535L6.26465 13.6848C6.24708 13.6987 6.23303 13.716 6.226 13.7265C6.21546 13.7508 6.21546 13.7716 6.21898 13.7925H6.12411L6.20141 13.8689L6.12762 13.8933L6.18735 13.9419V14.1296C6.18735 14.1643 6.20141 14.1921 6.23303 14.2095C6.27168 14.2338 6.31384 14.2338 6.34898 14.2234V14.3033L6.44033 14.2755C6.50709 14.2547 6.55979 14.2512 6.6125 14.2616L6.6898 14.2755L6.70034 14.1991C6.73899 13.9141 6.73196 13.6396 6.72493 13.3755C6.7179 13.1148 6.71088 12.8716 6.74601 12.6283C6.76709 12.5797 6.74601 12.538 6.73196 12.5171L6.72845 12.4928Z" fill="#002D74"/>
<path d="M17.6276 12.5865L17.6451 12.5761V12.5379L17.6311 11.2625V11.2556C17.6065 11.0644 17.603 10.8525 17.5995 10.6266C17.5924 10.3729 17.5889 10.1123 17.5538 9.88293C17.5468 9.5528 17.48 9.19835 17.4167 8.85432L17.3746 8.62149V8.60064L17.3535 8.58327C17.3008 8.53114 17.2832 8.46859 17.2657 8.39214C17.2481 8.32959 17.234 8.26356 17.1919 8.20449C17.104 8.04811 16.967 7.89521 16.8475 7.76316L16.8405 7.75621C16.8089 7.71451 16.7738 7.69366 16.7421 7.67628C16.7246 7.66586 16.707 7.65543 16.6894 7.63806L16.6613 7.61373H16.6438L16.6227 7.59983C16.5138 7.51296 16.4119 7.4782 16.2924 7.44345C16.2573 7.3948 16.194 7.38785 16.1483 7.38438V7.3531L16.0886 7.34268L15.8005 7.30098L15.7583 7.29403L15.7302 7.32878C15.7302 7.32878 15.7197 7.34615 15.6564 7.3253C15.6283 7.31488 15.5967 7.30445 15.5651 7.30098H15.5335L15.5159 7.31488C15.5089 7.30793 15.4948 7.30098 15.4843 7.29403L15.3648 7.25928L15.3578 7.3114C15.3051 7.3114 15.2594 7.32183 15.2208 7.34268H14.8553L14.8764 7.4087C14.8764 7.4087 14.8764 7.4087 14.8764 7.41218C14.7991 7.39133 14.7394 7.43998 14.7043 7.46778C14.6972 7.47473 14.6902 7.47821 14.6867 7.48168C14.627 7.49211 14.5883 7.51643 14.5637 7.53728C14.5462 7.55118 14.5391 7.55466 14.5216 7.55466H14.4899L14.4724 7.57898C14.4478 7.61026 14.3634 7.64848 14.3213 7.66586L14.2229 7.70756L14.244 7.72841C14.244 7.72841 14.2124 7.74578 14.1983 7.75968H14.107V7.83266C14.107 7.83266 14.0964 7.83266 14.0929 7.83266L14.0402 7.81181L14.0015 7.85698C13.9453 7.93691 13.8715 8.01336 13.7942 8.09329C13.7029 8.19059 13.608 8.28789 13.5342 8.39561L13.5132 8.42689L13.5272 8.45817C13.5096 8.46859 13.4675 8.49639 13.4569 8.54852C13.4218 8.58674 13.4148 8.63887 13.4078 8.67362C13.4078 8.68404 13.4042 8.69794 13.4007 8.70489C13.3621 8.75007 13.3551 8.79524 13.348 8.82999C13.341 8.85779 13.341 8.87169 13.3269 8.88559L13.2813 8.9412L13.3023 8.9551C13.2883 8.98637 13.2883 9.0246 13.2883 9.04545C13.2883 9.05587 13.2883 9.0663 13.2883 9.07672L13.2567 9.0941L13.2637 9.13927C13.2778 9.22962 13.2637 9.31302 13.2532 9.3999C13.2426 9.4833 13.2321 9.57018 13.2391 9.66748C13.204 9.7196 13.2145 9.78216 13.218 9.82386C13.218 9.83776 13.2215 9.85513 13.2215 9.86208L13.1759 9.89683L13.2075 9.95243C13.2321 9.99413 13.2145 10.0567 13.1934 10.1227C13.1759 10.1818 13.1548 10.2582 13.1759 10.3208C13.1723 10.3243 13.1653 10.3312 13.1618 10.3382C13.1548 10.3486 13.1477 10.3694 13.1477 10.3903C13.1477 10.4389 13.1407 10.4528 13.1407 10.4563L13.1056 10.5258L13.0986 10.5536L13.1583 10.5953C13.1513 10.637 13.1583 10.6752 13.1618 10.7065C13.1688 10.7517 13.1723 10.7725 13.1583 10.7899L13.1196 10.8594L13.1583 10.9046V10.915C13.1583 10.9463 13.1513 11.0019 13.1934 11.0436C13.1934 11.0505 13.1934 11.0575 13.1969 11.0644L13.1267 11.0818L13.1723 11.1791C13.1723 11.1791 13.1688 11.193 13.1653 11.2034C13.1583 11.2312 13.1442 11.2868 13.1723 11.3355C13.1513 11.3911 13.1653 11.4467 13.1723 11.4849C13.1723 11.4953 13.1759 11.5092 13.1794 11.5197C13.1126 11.5892 13.1478 11.6795 13.1653 11.7282C13.1337 11.7734 13.1407 11.829 13.1477 11.8637L13.0564 11.895L13.1477 11.9888C13.1442 12.0097 13.1442 12.034 13.1583 12.0583C13.1688 12.0757 13.1829 12.0861 13.1969 12.0896L13.1688 12.0965C13.1688 12.0965 13.1688 12.1035 13.1723 12.107L13.204 12.1904V12.2008C13.1969 12.2494 13.204 12.2981 13.2321 12.3328C13.225 12.3433 13.218 12.3572 13.218 12.3745L13.1794 12.4093L13.2145 12.4579C13.2426 12.4962 13.2321 12.5448 13.211 12.6247C13.1934 12.6942 13.1723 12.7811 13.211 12.8576L13.1618 12.9062L13.225 12.9514C13.225 12.9514 13.225 12.9583 13.218 12.9618C13.204 12.9896 13.1723 13.0452 13.211 13.1078V13.1008C13.2215 13.1286 13.2145 13.1738 13.211 13.2259C13.204 13.2989 13.1934 13.3858 13.2321 13.4692L13.2215 13.556V13.5456C13.2145 13.5804 13.2215 13.6082 13.2321 13.629L13.204 13.6429L13.2215 13.702C13.2426 13.7645 13.2426 13.841 13.2426 13.9244C13.2426 14.0773 13.2426 14.2511 13.3832 14.3831L13.4148 14.4109L13.4569 14.4005C13.5624 14.3692 13.5659 14.265 13.5694 14.2094C13.5694 14.1989 13.5694 14.185 13.5694 14.1781V14.1642V14.1503C13.5272 14.0113 13.5448 13.8236 13.5624 13.6603C13.5659 13.6186 13.5694 13.5769 13.5764 13.5352V13.5143L13.5659 13.497C13.5378 13.4414 13.5448 13.3823 13.5553 13.3197C13.5624 13.2607 13.5694 13.1946 13.5483 13.1251C13.5729 12.8263 13.5588 12.4753 13.5483 12.1626C13.5413 12.0305 13.5378 11.9054 13.5342 11.7907V11.7838C13.5167 11.6378 13.5202 11.478 13.5272 11.3251C13.5307 11.1895 13.5342 11.0471 13.5237 10.9185C13.5553 10.7691 13.5553 10.6335 13.5518 10.4876C13.5518 10.4216 13.5518 10.3555 13.5518 10.2826V10.2652L13.5483 10.2548C13.5834 10.2165 13.5905 10.1748 13.5729 10.1366C13.5869 10.081 13.5905 10.0289 13.5905 9.98371C13.5905 9.94548 13.5905 9.91073 13.601 9.87946V9.86208V9.84471C13.5905 9.81343 13.601 9.7752 13.608 9.74045C13.6186 9.69528 13.6291 9.6362 13.608 9.58408C13.6642 9.47288 13.6748 9.33387 13.6853 9.20182L13.6924 9.15665C13.6959 9.12885 13.6853 9.10105 13.6607 9.07672C13.6607 9.01417 13.6924 8.96552 13.731 8.90645C13.7732 8.84042 13.8224 8.76744 13.8364 8.66319V8.64582C13.8399 8.63887 13.847 8.63539 13.854 8.63192C13.8786 8.61107 13.9207 8.57632 13.9172 8.52419C13.9172 8.51377 13.9172 8.50682 13.9137 8.49639C13.9629 8.45122 13.9945 8.40256 14.0226 8.35739C14.0613 8.29136 14.0929 8.24271 14.1702 8.21839L14.2088 8.20796L14.2194 8.16974C14.2299 8.12456 14.2686 8.10024 14.3318 8.06201C14.3775 8.03421 14.4302 8.00294 14.4653 7.95428C14.518 7.95428 14.5497 7.94386 14.5672 7.92301C14.6305 7.90911 14.6762 7.87088 14.7183 7.83961C14.7851 7.78748 14.8062 7.77706 14.8518 7.79791L14.8975 7.81876L14.9256 7.79096C14.9256 7.79096 14.9291 7.79096 14.9326 7.79096C14.9537 7.78401 14.9889 7.77358 15.0135 7.74231C15.031 7.73883 15.0521 7.73188 15.0662 7.72841C15.1013 7.71451 15.1118 7.71451 15.1259 7.72146C15.1399 7.72841 15.1645 7.73883 15.1927 7.73188V7.73883L15.2489 7.73188L15.3191 7.72493C15.5264 7.69713 15.7056 7.67628 15.8673 7.76316L15.9235 7.79443L15.9586 7.74231C15.9586 7.74231 15.9762 7.75968 15.9797 7.76663C16.0219 7.81181 16.0956 7.89173 16.201 7.87436C16.2221 7.89521 16.2502 7.90911 16.2748 7.92301C16.2819 7.92996 16.2959 7.93691 16.3065 7.94039L16.3205 7.96124C16.3521 8.00294 16.4224 8.02379 16.4786 8.02726C16.6016 8.15236 16.7246 8.32611 16.7246 8.40257V8.47207H16.7808C16.8019 8.56937 16.8265 8.68752 16.9003 8.76049C16.8792 8.80914 16.9003 8.86474 16.9073 8.88907C16.9073 8.89602 16.9143 8.90645 16.9143 8.9134L16.8967 8.96552L16.9459 9.01417L16.9565 9.02112C16.953 9.06977 16.974 9.11495 16.9916 9.14622C16.9916 9.15317 16.9986 9.1636 17.0021 9.17402L16.9916 9.19835C16.9248 9.31997 17.0127 9.38948 17.0513 9.42075C17.0584 9.4277 17.0619 9.43118 17.0689 9.43465C17.0373 9.45898 17.0373 9.48678 17.0303 9.52848L17.0373 9.58408L17.0584 9.61883V9.62578C17.0584 9.6362 17.0654 9.6501 17.0759 9.66748L17.0513 9.6918L17.0338 9.75435L17.0689 9.80648L17.097 9.82038C17.097 9.85166 17.1076 9.87598 17.1146 9.89336C17.1146 9.89336 17.1181 9.90031 17.1216 9.90378L17.1146 9.93506C17.09 10.0497 17.0584 10.2026 17.1321 10.3243H17.1286C17.0935 10.3729 17.1005 10.4216 17.1076 10.4598C17.1076 10.4737 17.1146 10.4911 17.1111 10.498L17.0935 10.571C17.0935 10.571 17.1181 10.5814 17.1392 10.5849C17.1392 10.5918 17.1321 10.5988 17.1321 10.6057L17.1181 10.6891H17.1462C17.1392 10.7169 17.1392 10.7447 17.1392 10.7691C17.1392 10.8108 17.1392 10.8386 17.1216 10.8629L17.1146 10.8733V10.8837C17.09 10.9602 17.1181 11.0332 17.1427 11.0922C17.1462 11.1027 17.1497 11.1131 17.1532 11.1235C17.1427 11.1374 17.1286 11.1583 17.1321 11.1861C17.1321 11.193 17.1321 11.1965 17.1357 11.2034L17.1216 11.2173L17.1357 11.259C17.1427 11.2834 17.1567 11.2973 17.1743 11.3077H17.1638L17.1603 11.3668V11.3876L17.1146 11.4015L17.1392 11.4467C17.1286 11.4675 17.1146 11.4988 17.1286 11.5336L17.097 11.5892C17.097 11.5892 17.104 11.6204 17.1286 11.6343C17.1005 11.7317 17.1708 11.8012 17.213 11.8429C17.2305 11.8602 17.2411 11.8741 17.2516 11.8846H17.2165L17.2411 11.9749C17.2411 11.9749 17.2305 11.9888 17.2235 11.9958L17.1638 12.0236L17.1813 12.1035L17.1743 12.1243C17.1603 12.166 17.1743 12.1938 17.1849 12.2112C17.1849 12.2147 17.1884 12.2182 17.1919 12.2182C17.1708 12.239 17.1462 12.2703 17.1427 12.3155L17.1357 12.3815L17.1919 12.3884C17.1919 12.3884 17.1849 12.4162 17.1778 12.4301C17.1708 12.4545 17.1638 12.4753 17.1532 12.4927C17.1532 12.4927 17.1497 12.4996 17.1462 12.5031L17.2411 12.5552C17.227 12.5796 17.22 12.6039 17.2165 12.6247C17.2165 12.6352 17.2094 12.6456 17.2059 12.6525H17.1181V12.7464C17.1181 12.7464 17.1286 12.7776 17.1321 12.795C17.1321 12.8124 17.1357 12.8298 17.1392 12.8506V12.941C17.1392 12.941 17.1392 12.9722 17.1462 12.9931L17.1357 13L17.1427 13.0522C17.1462 13.0765 17.1427 13.1043 17.1427 13.1286C17.1427 13.1425 17.1427 13.1599 17.1427 13.1773L17.0759 13.2085L17.1532 13.2954C17.1532 13.2954 17.1532 13.2954 17.1532 13.2989C17.1427 13.3197 17.1321 13.3475 17.1321 13.3823H17.0759L17.1743 13.5004C17.1743 13.5004 17.1884 13.5352 17.1954 13.556C17.1954 13.5595 17.1954 13.563 17.1954 13.563C17.1567 13.6012 17.1497 13.6568 17.1462 13.6881C17.1462 13.702 17.1462 13.7194 17.1392 13.7263L17.1638 13.7576C17.1462 13.7715 17.1321 13.7889 17.1251 13.8028C17.1146 13.8271 17.1146 13.8479 17.1181 13.8688H17.0232L17.1005 13.9453L17.0267 13.9696L17.0865 14.0182V14.2094C17.0865 14.2441 17.104 14.2719 17.1321 14.2858C17.1321 14.2858 17.1357 14.2858 17.1392 14.2858C17.1778 14.3101 17.22 14.3101 17.2551 14.2997V14.3796L17.3465 14.3518C17.4132 14.331 17.4659 14.3275 17.5186 14.3379L17.5959 14.3518L17.6065 14.2754C17.6416 13.9904 17.6381 13.7159 17.6311 13.4518C17.624 13.1912 17.617 12.9479 17.6486 12.7081C17.6697 12.663 17.6486 12.6178 17.6346 12.5969L17.6276 12.5865Z" fill="#E04403"/>
<path d="M18.752 18.5463H1.04705V1.03209H18.7555V18.5463H18.752ZM0 0V19.5818H19.799V0H0Z" fill="#E04403"/>
<path d="M144.31 13.5804C144.31 15.4847 142.901 15.9225 142.068 15.9225C141.639 15.9225 141.218 15.9017 140.719 15.7001C140.129 15.4604 140.076 15.1511 140.076 13.9418V9.61186C140.076 9.52151 140.111 9.48329 140.181 9.48329C140.462 9.48329 140.645 9.48328 140.979 9.50066C141.703 9.53541 142.124 9.66399 142.514 9.93852C143.92 10.9081 144.31 12.444 144.31 13.5769M137.852 11.3841C137.852 13.066 137.852 14.5151 137.76 15.2796C137.683 15.8113 137.595 16.211 137.226 16.2839C137.058 16.3187 136.836 16.3569 136.559 16.3569C136.337 16.3569 136.267 16.4125 136.267 16.5029C136.267 16.628 136.394 16.6836 136.636 16.6836C137.374 16.6836 138.54 16.628 138.962 16.628C139.524 16.628 141.204 16.7357 141.643 16.7357C145.048 16.7357 146.58 14.7063 146.58 12.7498C146.58 10.6092 144.731 9.31301 143.217 8.7987C144.232 7.99597 145.104 7.10288 145.104 5.60167C145.104 4.63561 144.514 2.85986 141.162 2.85986C140.536 2.85986 139.812 2.91199 138.906 2.91199C138.537 2.91199 137.374 2.85986 136.394 2.85986C136.116 2.85986 135.986 2.89461 135.986 3.02667C135.986 3.15872 136.095 3.18999 136.302 3.18999C136.559 3.18999 136.872 3.20737 137.023 3.24559C137.63 3.37417 137.782 3.6626 137.817 4.28463C137.852 4.87191 137.852 5.37927 137.852 8.16277V11.3807V11.3841ZM140.072 3.96145C140.072 3.7599 140.108 3.68692 140.238 3.6487C140.424 3.61395 140.592 3.61395 140.849 3.61395C142.437 3.61395 143.161 5.22289 143.161 6.4461C143.161 7.34266 142.88 8.00292 142.402 8.38517C142.086 8.6597 141.682 8.73615 141.07 8.73615C140.645 8.73615 140.368 8.71878 140.199 8.68055C140.125 8.6597 140.072 8.62495 140.072 8.479V3.96493V3.96145Z" fill="#EA0029"/>
<path d="M172.569 3.00237C171.666 3.00237 170.971 3.0545 170.767 3.0545C170.38 3.0545 169.499 3.00237 168.546 3.00237C168.269 3.00237 168.069 3.02322 168.069 3.1657C168.069 3.2769 168.142 3.32902 168.36 3.32902C168.62 3.32902 169.059 3.32902 169.337 3.44023C169.78 3.6244 169.941 3.96496 169.962 5.07349L170.145 13.2329H170.054C169.738 12.9445 167.264 10.3243 166.01 9.09064C163.329 6.45656 160.535 3.49583 160.314 3.25605C160.005 2.9294 159.836 2.69309 159.636 2.69309C159.45 2.69309 159.401 2.94677 159.401 3.31165L159.232 14.0704C159.211 15.6515 159.035 16.3222 158.663 16.3222C157.96 16.3222 157.76 15.8774 157.124 14.3727C155.947 11.6135 153.006 4.19778 152.563 3.19697C152.38 2.77997 152.272 2.62012 152.106 2.62012C151.924 2.62012 151.811 2.81819 151.586 3.3464L146.98 14.7619C146.611 15.6654 146.263 16.2874 145.417 16.3952C145.269 16.4125 145.255 16.4264 145.086 16.4264C144.939 16.4264 144.868 16.4681 144.868 16.5759C144.868 16.7183 144.981 16.7531 145.22 16.7531C146.168 16.7531 146.941 16.701 147.142 16.701C147.714 16.701 148.501 16.7531 149.088 16.7531C149.292 16.7531 149.401 16.7183 149.401 16.5759C149.401 16.4681 149.348 16.4264 149.13 16.4264H148.853C148.284 16.4264 148.115 16.1936 148.115 15.867C148.115 15.648 148.21 15.2137 148.389 14.7619L149.383 12.1626C149.418 12.0514 149.457 12.0131 149.548 12.0131H153.645C153.737 12.0131 153.796 12.0514 153.835 12.1417L155.304 15.9921C155.392 16.211 155.269 16.3778 155.135 16.4125C154.952 16.4264 154.879 16.4681 154.879 16.5759C154.879 16.701 155.1 16.701 155.43 16.7183C156.899 16.7531 158.241 16.7531 158.902 16.7531C159.313 16.7531 161.013 16.7392 162.204 16.7392C162.464 16.7392 162.63 16.7044 162.63 16.5585C162.63 16.4508 162.521 16.4125 162.317 16.4125C162.022 16.4125 161.677 16.3986 161.365 16.2874C160.999 16.1623 160.757 15.6863 160.718 14.2684L160.518 6.63726H160.574C160.904 6.98129 162.942 9.25396 164.945 11.2174C166.856 13.0869 169.203 15.4639 170.366 16.5585C170.57 16.76 170.788 16.9581 170.988 16.9581C171.153 16.9581 171.227 16.7983 171.227 16.3986L171.428 4.93102C171.445 3.91283 171.593 3.53058 172.109 3.3881C172.334 3.32902 172.475 3.32902 172.657 3.32902C172.875 3.32902 172.988 3.2769 172.988 3.1657C172.988 3.02322 172.805 3.00237 172.573 3.00237H172.569ZM153.294 11.1062H149.914C149.84 11.1062 149.823 11.0471 149.84 10.9741L151.53 6.50521C151.555 6.43223 151.583 6.33841 151.643 6.33841C151.695 6.33841 151.716 6.42876 151.734 6.50521L153.389 10.9915C153.406 11.0471 153.389 11.1062 153.297 11.1062H153.294Z" fill="#EA0029"/>
<path fill-rule="evenodd" clip-rule="evenodd" d="M176.747 8.2496C176.747 5.48695 176.747 4.97959 176.786 4.39926C176.821 3.76333 176.968 3.45405 177.467 3.3637C177.689 3.32895 177.798 3.3081 177.98 3.3081C178.128 3.3081 178.237 3.27335 178.237 3.14477C178.237 3.0162 178.11 2.98145 177.854 2.98145C177.228 2.98145 176.073 3.03705 175.63 3.03705C175.187 3.03705 174.031 2.98145 173.058 2.98145C172.784 2.98145 172.654 3.01967 172.654 3.14477C172.654 3.26987 172.763 3.3081 172.967 3.3081C173.223 3.3081 173.536 3.32547 173.683 3.3637C174.288 3.49228 174.435 3.7807 174.474 4.39926C174.512 4.97959 174.512 5.49042 174.512 8.2496V11.4466C174.512 13.1181 174.512 14.5533 174.421 15.3178C174.347 15.846 174.256 16.2457 173.891 16.3186C173.725 16.3534 173.504 16.3916 173.23 16.3916C173.009 16.3916 172.938 16.4437 172.938 16.5376C172.938 16.6661 173.065 16.7183 173.307 16.7183C174.042 16.7183 175.198 16.6627 175.623 16.6627C176.083 16.6627 177.239 16.7183 178.269 16.7183C178.469 16.7183 178.616 16.6627 178.616 16.5376C178.616 16.4472 178.525 16.3916 178.377 16.3916C178.138 16.3916 177.734 16.3534 177.478 16.3186C177.018 16.2457 176.853 15.846 176.817 15.3387C176.761 14.5568 176.761 13.1216 176.761 11.4501V9.79599H176.853L177.053 10.067C177.439 10.5953 181.055 14.7896 181.866 15.4985C182.657 16.1901 183.152 16.5897 184.143 16.68C184.53 16.7148 184.86 16.7148 185.412 16.7148H187.01C187.362 16.7148 187.453 16.6592 187.453 16.5341C187.453 16.4264 187.344 16.3881 187.214 16.3881C186.993 16.3881 186.627 16.3325 186.076 16.1136C185.081 15.7314 184.256 14.9147 183.448 14.1502C182.731 13.4761 179.129 9.64657 178.469 8.79171C179.094 8.1384 181.866 5.41397 182.436 4.86839C183.226 4.10388 183.852 3.7251 184.421 3.50618C184.769 3.38107 185.229 3.3081 185.485 3.3081C185.668 3.3081 185.759 3.27335 185.759 3.14477C185.759 3.0162 185.629 2.98145 185.447 2.98145C184.878 2.98145 183.866 3.03705 183.296 3.03705C182.801 3.03705 181.789 2.98145 181.406 2.98145C181.202 2.98145 181.111 3.01967 181.111 3.14477C181.111 3.2525 181.185 3.29072 181.35 3.32547C181.533 3.36022 181.606 3.4888 181.606 3.68688C181.606 3.99616 181.202 4.45139 180.689 5.04909C180.155 5.66765 177.474 8.3747 176.849 9.04539H176.758V8.24613L176.747 8.2496Z" fill="#EA0029"/>
<path fill-rule="evenodd" clip-rule="evenodd" d="M195.316 11.9819C195.408 11.9819 195.464 12.0167 195.499 12.107L196.964 15.9435C197.056 16.1624 196.929 16.3222 196.799 16.3605C196.616 16.3778 196.543 16.4161 196.543 16.5238C196.543 16.6524 196.764 16.6524 197.094 16.6698C198.559 16.7045 199.895 16.7045 200.555 16.7045C201.216 16.7045 201.398 16.6698 201.398 16.5238C201.398 16.3987 201.307 16.3778 201.159 16.3778C200.942 16.3778 200.664 16.3605 200.39 16.3049C200.007 16.1971 199.473 15.9435 198.781 14.3206C197.607 11.5788 194.68 4.19089 194.241 3.19703C194.058 2.78003 193.95 2.6167 193.784 2.6167C193.602 2.6167 193.493 2.81478 193.271 3.33951L188.676 14.7098C188.31 15.6133 187.962 16.2319 187.119 16.3396C186.972 16.357 186.715 16.3744 186.55 16.3744C186.402 16.3744 186.329 16.4091 186.329 16.5203C186.329 16.6663 186.438 16.701 186.676 16.701C187.629 16.701 188.634 16.6454 188.837 16.6454C189.403 16.6454 190.194 16.701 190.777 16.701C190.981 16.701 191.09 16.6663 191.09 16.5203C191.09 16.4126 191.033 16.3744 190.815 16.3744H190.541C189.972 16.3744 189.807 16.1381 189.807 15.8114C189.807 15.596 189.898 15.1581 190.081 14.7064L191.068 12.1175C191.104 12.0097 191.142 11.9715 191.234 11.9715H195.316V11.9819ZM191.599 11.0749C191.525 11.0749 191.508 11.0228 191.525 10.9498L193.208 6.49484C193.226 6.42187 193.264 6.33151 193.317 6.33151C193.37 6.33151 193.391 6.42187 193.408 6.49484L195.056 10.9672C195.074 11.0228 195.056 11.0749 194.965 11.0749H191.595H191.599Z" fill="#EA0029"/>
<path d="M27.3533 8.2708C27.3533 5.51857 27.3533 5.01122 27.3181 4.43436C27.283 3.81928 27.1354 3.53085 26.5311 3.40227C26.3835 3.36752 26.0743 3.34667 25.8178 3.34667C25.6176 3.34667 25.5051 3.31192 25.5051 3.18335C25.5051 3.05477 25.6316 3.02002 25.9057 3.02002C26.8754 3.02002 28.0279 3.07562 28.5409 3.07562C29.2928 3.07562 30.3539 3.02002 31.1936 3.02002C33.481 3.02002 34.3066 3.78105 34.5983 4.05211C34.9988 4.43088 35.5118 5.24752 35.5118 6.20663C35.5118 8.77816 33.6074 10.5887 31.0074 10.5887C30.916 10.5887 30.7158 10.5887 30.6244 10.5713C30.5331 10.5539 30.4066 10.5365 30.4066 10.4079C30.4066 10.262 30.5331 10.2099 30.9196 10.2099C31.9455 10.2099 33.372 9.07006 33.372 7.22482C33.372 6.62711 33.3158 5.41432 32.2934 4.50734C31.6363 3.90963 30.8844 3.8019 30.4628 3.8019C30.1887 3.8019 29.9147 3.81928 29.7495 3.87488C29.6582 3.90963 29.602 4.02083 29.602 4.21891V11.4609C29.602 13.1254 29.602 14.5571 29.6933 15.3356C29.7495 15.8429 29.8585 16.2391 30.4066 16.312C30.6631 16.3503 31.0671 16.385 31.3412 16.385C31.5415 16.385 31.6328 16.4406 31.6328 16.531C31.6328 16.6561 31.4852 16.7117 31.285 16.7117C30.0763 16.7117 28.9238 16.6595 28.446 16.6595C28.0244 16.6595 26.8719 16.7117 26.1376 16.7117C25.8986 16.7117 25.7722 16.6595 25.7722 16.531C25.7722 16.4406 25.8459 16.385 26.0638 16.385C26.3378 16.385 26.5592 16.3503 26.7243 16.312C27.0898 16.2391 27.1811 15.8429 27.2549 15.3147C27.3462 14.5537 27.3462 13.1254 27.3462 11.4574V8.2708H27.3533Z" fill="#EA0029"/>
<path d="M37.2895 8.2708C37.2895 5.51857 37.2895 5.01122 37.2544 4.43436C37.2158 3.81928 37.0717 3.53085 36.4674 3.40227C36.3198 3.36752 36.0106 3.34667 35.7541 3.34667C35.5538 3.34667 35.4414 3.31192 35.4414 3.18335C35.4414 3.05477 35.5679 3.02002 35.8455 3.02002C36.8152 3.02002 37.9677 3.07562 38.3542 3.07562C38.9761 3.07562 40.3674 3.02002 40.9366 3.02002C42.0891 3.02002 43.3153 3.12775 44.3062 3.79843C44.8191 4.14246 45.55 5.06682 45.55 6.2796C45.55 7.62097 44.9808 8.85113 43.1326 10.335C44.7629 12.3644 46.0243 13.9733 47.1065 15.0958C48.1325 16.1452 48.8808 16.2738 49.1549 16.3259C49.3552 16.3607 49.5203 16.3815 49.6679 16.3815C49.8155 16.3815 49.8857 16.4371 49.8857 16.5275C49.8857 16.6734 49.7592 16.7082 49.5379 16.7082H47.7987C46.7727 16.7082 46.3159 16.6178 45.8416 16.3642C45.0546 15.9472 44.3589 15.0958 43.3329 13.7023C42.6021 12.7049 41.7588 11.4748 41.5199 11.2037C41.4285 11.096 41.3196 11.0786 41.1896 11.0786L39.598 11.0439C39.5066 11.0439 39.4504 11.0786 39.4504 11.1898V11.4435C39.4504 13.1254 39.4504 14.5571 39.5418 15.3182C39.598 15.8429 39.7069 16.2425 40.255 16.3155C40.5291 16.3537 40.9331 16.3885 41.151 16.3885C41.2985 16.3885 41.3688 16.4441 41.3688 16.5344C41.3688 16.6595 41.2388 16.7151 41.0034 16.7151C39.9423 16.7151 38.5861 16.663 38.312 16.663C37.9642 16.663 36.8117 16.7151 36.0774 16.7151C35.8384 16.7151 35.712 16.663 35.712 16.5344C35.712 16.4441 35.7857 16.3885 36.0036 16.3885C36.2776 16.3885 36.499 16.3537 36.6641 16.3155C37.0295 16.2425 37.1209 15.8464 37.1947 15.3182C37.286 14.5571 37.286 13.1289 37.286 11.4609V8.27428L37.2895 8.2708ZM39.4504 9.69904C39.4504 9.89712 39.4855 9.97009 39.6155 10.0257C39.9985 10.1508 40.5501 10.2064 41.0069 10.2064C41.7377 10.2064 41.9767 10.1334 42.3069 9.89712C42.8551 9.49749 43.3856 8.66696 43.3856 7.18311C43.3856 4.61159 41.664 3.8714 40.5853 3.8714C40.1285 3.8714 39.7982 3.88878 39.6155 3.94438C39.489 3.97913 39.4504 4.05211 39.4504 4.19806V9.70252V9.69904Z" fill="#EA0029"/>
<path d="M68.8098 8.2708C68.8098 5.51857 68.8098 5.01122 68.7712 4.43436C68.736 3.81928 68.5885 3.53085 67.9841 3.40227C67.8366 3.36752 67.5274 3.34667 67.2709 3.34667C67.0706 3.34667 66.9617 3.31192 66.9617 3.18335C66.9617 3.05477 67.0882 3.02002 67.3657 3.02002C68.3355 3.02002 69.4879 3.07562 69.8744 3.07562C70.4963 3.07562 71.8877 3.02002 72.4569 3.02002C73.6094 3.02002 74.8356 3.12775 75.8264 3.79843C76.3394 4.14246 77.0702 5.06682 77.0702 6.2796C77.0702 7.62097 76.501 8.85113 74.6529 10.335C76.2832 12.3644 77.5446 13.9733 78.6267 15.0958C79.6527 16.1452 80.4011 16.2738 80.6752 16.3259C80.8754 16.3607 81.0406 16.3815 81.1882 16.3815C81.3357 16.3815 81.406 16.4371 81.406 16.5275C81.406 16.6734 81.2795 16.7082 81.0581 16.7082H79.3189C78.293 16.7082 77.8362 16.6178 77.3619 16.3642C76.5748 15.9472 75.8791 15.0958 74.8532 13.7023C74.1223 12.7049 73.2791 11.4748 73.0402 11.2037C72.9488 11.096 72.8399 11.0786 72.7099 11.0786L71.1182 11.0439C71.0269 11.0439 70.9707 11.0786 70.9707 11.1898V11.4435C70.9707 13.1254 70.9707 14.5571 71.062 15.3182C71.1182 15.8429 71.2272 16.2425 71.7753 16.3155C72.0493 16.3537 72.4534 16.3885 72.6712 16.3885C72.8188 16.3885 72.8926 16.4441 72.8926 16.5344C72.8926 16.6595 72.7661 16.7151 72.5272 16.7151C71.4661 16.7151 70.1098 16.663 69.8358 16.663C69.4879 16.663 68.3355 16.7151 67.6011 16.7151C67.3622 16.7151 67.2357 16.663 67.2357 16.5344C67.2357 16.4441 67.3095 16.3885 67.5274 16.3885C67.8014 16.3885 68.0228 16.3537 68.1844 16.3155C68.5498 16.2425 68.6412 15.8464 68.7149 15.3182C68.8063 14.5571 68.8063 13.1289 68.8063 11.4609V8.27428L68.8098 8.2708ZM70.9671 9.69904C70.9671 9.89712 71.0023 9.97009 71.1323 10.0257C71.5153 10.1508 72.0669 10.2064 72.5237 10.2064C73.2545 10.2064 73.4934 10.1334 73.8237 9.89712C74.3718 9.49749 74.9024 8.66696 74.9024 7.18311C74.9024 4.61159 73.1807 3.8714 72.102 3.8714C71.6453 3.8714 71.315 3.88878 71.1323 3.94438C71.0058 3.97913 70.9671 4.05211 70.9671 4.19806V9.70252V9.69904Z" fill="#EA0029"/>
<path d="M50.1668 8.2708C50.1668 5.51857 50.1668 5.01122 50.1317 4.43436C50.093 3.81928 49.9103 3.51 49.5098 3.41965C49.3095 3.36405 49.0706 3.34667 48.8492 3.34667C48.6665 3.34667 48.5576 3.31192 48.5576 3.16597C48.5576 3.05824 48.7052 3.02002 48.9968 3.02002C49.6925 3.02002 50.845 3.07562 51.3755 3.07562C51.8323 3.07562 52.9145 3.02002 53.6101 3.02002C53.8491 3.02002 53.9931 3.05477 53.9931 3.16597C53.9931 3.31192 53.8842 3.34667 53.7015 3.34667C53.5188 3.34667 53.3712 3.36405 53.1534 3.40227C52.658 3.49262 52.5139 3.8019 52.4753 4.43436C52.4366 5.01469 52.4366 5.52205 52.4366 8.2708V11.4574C52.4366 13.2123 52.4366 14.644 52.5104 15.4224C52.5666 15.9124 52.6931 16.2356 53.2412 16.3086C53.4977 16.3468 53.8983 16.3815 54.1758 16.3815C54.3761 16.3815 54.4675 16.4371 54.4675 16.5275C54.4675 16.6526 54.3199 16.7082 54.1196 16.7082C52.9109 16.7082 51.7585 16.6561 51.2631 16.6561C50.8414 16.6561 49.689 16.7082 48.9582 16.7082C48.7192 16.7082 48.5928 16.6561 48.5928 16.5275C48.5928 16.4371 48.6665 16.3815 48.8844 16.3815C49.1584 16.3815 49.3798 16.3468 49.5414 16.3086C49.9068 16.2356 50.0193 15.9298 50.072 15.4051C50.1633 14.644 50.1633 13.2158 50.1633 11.4574V8.2708H50.1668Z" fill="#EA0029"/>
<path d="M55.0718 4.79191C54.6502 3.79458 54.341 3.5965 53.6805 3.4158C53.4064 3.34282 53.1113 3.34282 52.9672 3.34282C52.8021 3.34282 52.7458 3.28722 52.7458 3.1795C52.7458 3.03355 52.9461 3.01617 53.2237 3.01617C54.1934 3.01617 55.237 3.07177 55.88 3.07177C56.3367 3.07177 57.2151 3.01617 58.1322 3.01617C58.3535 3.01617 58.5538 3.05092 58.5538 3.1795C58.5538 3.30807 58.4449 3.34282 58.2797 3.34282C57.9881 3.34282 57.7105 3.3602 57.5665 3.46793C57.4365 3.55828 57.3838 3.68685 57.3838 3.8467C57.3838 4.08301 57.5489 4.59036 57.8054 5.24019L60.9536 13.4587H61.0274C61.8144 11.4675 64.1931 5.63982 64.6323 4.44441C64.7236 4.20811 64.7974 3.93706 64.7974 3.77373C64.7974 3.62778 64.7236 3.4853 64.5585 3.4297C64.3371 3.35672 64.0631 3.33935 63.8277 3.33935C63.6625 3.33935 63.515 3.32197 63.515 3.1934C63.515 3.04745 63.6801 3.0127 64.028 3.0127C64.945 3.0127 65.711 3.0683 65.9499 3.0683C66.2626 3.0683 67.1199 3.0127 67.6715 3.0127C67.9105 3.0127 68.0545 3.04745 68.0545 3.17602C68.0545 3.3046 67.9456 3.33935 67.7629 3.33935C67.5802 3.33935 67.1937 3.33935 66.8669 3.5548C66.628 3.71813 66.3539 4.02393 65.8585 5.18459C65.1453 6.88736 64.6499 7.86385 63.6625 10.0913C62.489 12.7359 61.6317 14.7062 61.2276 15.6132C60.7498 16.6626 60.6409 16.9545 60.3844 16.9545C60.1454 16.9545 60.0365 16.7009 59.6887 15.8495L55.0754 4.78844L55.0718 4.79191Z" fill="#EA0029"/>
<path d="M81.7119 8.27076C81.7119 5.51853 81.7119 5.01117 81.6768 4.43432C81.6416 3.81923 81.4941 3.53081 80.8897 3.40223C80.7422 3.36748 80.433 3.34663 80.1765 3.34663C79.9762 3.34663 79.8638 3.31188 79.8638 3.1833C79.8638 3.05473 79.9903 3.01997 80.2678 3.01997C80.7632 3.01997 81.2938 3.03735 81.7506 3.03735C82.2284 3.05473 82.6465 3.0721 82.903 3.0721C83.4898 3.0721 87.1298 3.0721 87.4777 3.05473C87.8255 3.01997 88.1172 2.98175 88.2647 2.947C88.3561 2.92962 88.465 2.87402 88.5564 2.87402C88.6477 2.87402 88.6653 2.947 88.6653 3.03735C88.6653 3.16245 88.5739 3.38138 88.5177 4.21539C88.5001 4.39609 88.4615 5.19187 88.4264 5.4108C88.4088 5.50115 88.3701 5.60888 88.2437 5.60888C88.1172 5.60888 88.0785 5.51853 88.0785 5.3552C88.0785 5.2301 88.0609 4.92082 87.9696 4.70189C87.8431 4.37524 87.6569 4.15979 86.7434 4.05206C86.4306 4.01384 84.5087 3.97909 84.1433 3.97909C84.052 3.97909 84.0168 4.03469 84.0168 4.15979V8.73989C84.0168 8.86499 84.0344 8.93796 84.1433 8.93796C84.5474 8.93796 86.652 8.93796 87.0736 8.89974C87.5128 8.86499 87.7869 8.80939 87.952 8.62869C88.0785 8.48273 88.1523 8.39238 88.2437 8.39238C88.3174 8.39238 88.3701 8.43061 88.3701 8.53833C88.3701 8.64606 88.2964 8.93796 88.2226 9.85885C88.205 10.2203 88.1488 10.9465 88.1488 11.0716C88.1488 11.2176 88.1488 11.4157 87.9837 11.4157C87.8572 11.4157 87.8185 11.3427 87.8185 11.2523C87.8009 11.0716 87.8009 10.8353 87.7447 10.599C87.6534 10.2376 87.3969 9.96657 86.7188 9.8936C86.3709 9.85885 84.5579 9.838 84.1187 9.838C84.0274 9.838 84.0098 9.91097 84.0098 10.0187V11.4504C84.0098 12.0655 83.9922 13.73 84.0098 14.2548C84.0449 15.5058 84.3401 15.7768 86.2058 15.7768C86.6801 15.7768 87.4496 15.7768 87.9274 15.5614C88.4018 15.3425 88.6231 14.9637 88.7496 14.22C88.7847 14.0219 88.8234 13.949 88.9499 13.949C89.0975 13.949 89.0975 14.0949 89.0975 14.2756C89.0975 14.6926 88.9499 15.9228 88.8585 16.2842C88.7285 16.7533 88.5669 16.7533 87.8677 16.7533C86.4939 16.7533 85.489 16.7186 84.702 16.6977C83.9149 16.663 83.3492 16.6456 82.7976 16.6456C82.5973 16.6456 82.1933 16.6456 81.7541 16.663C81.3324 16.663 80.8546 16.6977 80.4892 16.6977C80.2503 16.6977 80.1238 16.6456 80.1238 16.517C80.1238 16.4267 80.1976 16.3711 80.4154 16.3711C80.6895 16.3711 80.9108 16.3363 81.076 16.2981C81.4414 16.2251 81.5327 15.829 81.6065 15.3008C81.6979 14.5397 81.6979 13.1115 81.6979 11.4435V8.25686L81.7119 8.27076Z" fill="#EA0029"/>
<path d="M91.3459 8.2708C91.3459 5.51857 91.3459 5.01122 91.3108 4.43436C91.2757 3.81928 91.1281 3.53085 90.5238 3.40227C90.3762 3.36752 90.067 3.34667 89.8105 3.34667C89.6102 3.34667 89.4978 3.31192 89.4978 3.18335C89.4978 3.05477 89.6278 3.02002 89.9019 3.02002C90.8716 3.02002 92.0241 3.07562 92.537 3.07562C93.1062 3.07562 94.2587 3.02002 95.3549 3.02002C97.6423 3.02002 100.699 3.02002 102.695 5.08419C103.608 6.02593 104.469 7.52714 104.469 9.68167C104.469 11.9648 103.499 13.7023 102.473 14.7344C101.63 15.5858 99.7258 16.8715 96.3423 16.8715C95.6817 16.8715 94.9333 16.8159 94.2376 16.7638C93.5419 16.7082 92.9025 16.6561 92.4457 16.6561C92.2454 16.6561 91.8414 16.6561 91.4022 16.6734C90.9805 16.6734 90.5062 16.7082 90.1373 16.7082C89.8984 16.7082 89.7719 16.6561 89.7719 16.5275C89.7719 16.4371 89.8456 16.3815 90.0635 16.3815C90.3375 16.3815 90.5589 16.3468 90.724 16.3086C91.0895 16.2356 91.1808 15.8394 91.2546 15.3112C91.3459 14.5502 91.3459 13.122 91.3459 11.4539V8.26733V8.2708ZM93.6333 10.262C93.6333 12.1802 93.6509 13.5737 93.6684 13.9177C93.686 14.3695 93.7246 15.0958 93.8687 15.2939C94.1076 15.6379 94.8209 16.0201 96.2685 16.0201C98.1377 16.0201 99.3815 15.6587 100.478 14.717C101.651 13.7197 102.017 12.0725 102.017 10.2099C102.017 7.9094 101.047 6.42556 100.26 5.68537C98.5769 4.09381 96.4898 3.87488 95.0598 3.87488C94.6944 3.87488 94.0163 3.927 93.8687 3.99998C93.7036 4.07296 93.6509 4.16331 93.6509 4.36138C93.6333 4.97647 93.6333 6.55066 93.6333 7.98237V10.262Z" fill="#EA0029"/>
<path d="M107.234 14.2441C107.27 15.655 107.508 16.1276 107.874 16.2527C108.187 16.3604 108.534 16.3778 108.826 16.3778C109.026 16.3778 109.139 16.4125 109.139 16.5237C109.139 16.6697 108.974 16.7044 108.717 16.7044C107.53 16.7044 106.795 16.6523 106.447 16.6523C106.282 16.6523 105.421 16.7044 104.469 16.7044C104.23 16.7044 104.065 16.687 104.065 16.5237C104.065 16.416 104.174 16.3778 104.357 16.3778C104.596 16.3778 104.923 16.3604 105.179 16.2874C105.657 16.1415 105.727 15.6167 105.745 14.0425L105.91 3.32553C105.91 2.96413 105.966 2.71045 106.149 2.71045C106.349 2.71045 106.514 2.94675 106.827 3.26993C107.048 3.50623 109.827 6.45654 112.501 9.08019C113.745 10.3104 116.215 12.9201 116.528 13.2085H116.619L116.437 5.08042C116.419 3.97536 116.254 3.63133 115.815 3.45063C115.541 3.34291 115.101 3.34291 114.845 3.34291C114.627 3.34291 114.553 3.28731 114.553 3.17958C114.553 3.03363 114.753 3.01625 115.028 3.01625C115.98 3.01625 116.858 3.07185 117.241 3.07185C117.441 3.07185 118.137 3.01625 119.037 3.01625C119.275 3.01625 119.458 3.03363 119.458 3.17958C119.458 3.28731 119.349 3.34291 119.128 3.34291C118.945 3.34291 118.798 3.34291 118.58 3.39851C118.067 3.54446 117.919 3.92324 117.902 4.93795L117.701 16.3604C117.701 16.76 117.628 16.9234 117.462 16.9234C117.262 16.9234 117.041 16.7253 116.841 16.5237C115.688 15.436 113.345 13.0661 111.44 11.2C109.444 9.24352 107.414 6.98127 107.083 6.63724H107.031L107.231 14.2406L107.234 14.2441Z" fill="#EA0029"/>
<path d="M122.901 11.9817C122.81 11.9817 122.775 12.0164 122.736 12.1276L121.749 14.7166C121.566 15.1683 121.475 15.6027 121.475 15.8216C121.475 16.1483 121.64 16.3846 122.206 16.3846H122.48C122.698 16.3846 122.754 16.4193 122.754 16.5305C122.754 16.6765 122.645 16.7112 122.441 16.7112C121.854 16.7112 121.067 16.6591 120.498 16.6591C120.298 16.6591 119.29 16.7112 118.337 16.7112C118.098 16.7112 117.99 16.6765 117.99 16.5305C117.99 16.4228 118.063 16.3846 118.211 16.3846C118.376 16.3846 118.632 16.3672 118.777 16.3498C119.62 16.2421 119.968 15.6235 120.333 14.72L124.929 3.35318C125.147 2.82845 125.259 2.63037 125.442 2.63037C125.607 2.63037 125.716 2.7937 125.899 3.2107C126.338 4.20804 129.265 11.5925 130.438 14.3447C131.134 15.9745 131.664 16.2282 132.051 16.3185C132.325 16.3741 132.599 16.3915 132.82 16.3915C132.968 16.3915 133.059 16.4089 133.059 16.5375C133.059 16.6834 132.894 16.7182 132.216 16.7182C131.538 16.7182 130.22 16.7182 128.755 16.6834C128.425 16.666 128.207 16.666 128.207 16.5375C128.207 16.4297 128.281 16.3915 128.463 16.3741C128.59 16.3394 128.72 16.1761 128.629 15.9571L127.163 12.1172C127.128 12.0269 127.072 11.9921 126.981 11.9921H122.898L122.901 11.9817ZM126.633 11.0747C126.724 11.0747 126.742 11.0191 126.724 10.967L125.076 6.49461C125.059 6.42164 125.041 6.33129 124.985 6.33129C124.929 6.33129 124.894 6.42164 124.876 6.49461L123.193 10.9461C123.176 11.0191 123.193 11.0712 123.267 11.0712H126.633V11.0747Z" fill="#EA0029"/>
<path fill-rule="evenodd" clip-rule="evenodd" d="M224.834 11.9785C224.925 11.9785 224.981 12.0132 225.017 12.1036L226.482 15.94C226.573 16.1589 226.447 16.3188 226.317 16.357C226.134 16.3744 226.06 16.4126 226.06 16.5203C226.06 16.6454 226.278 16.6454 226.608 16.6663C228.073 16.701 229.409 16.701 230.066 16.701C230.723 16.701 230.909 16.6663 230.909 16.5203C230.909 16.3952 230.817 16.3744 230.67 16.3744C230.449 16.3744 230.174 16.357 229.9 16.3014C229.517 16.1937 228.987 15.94 228.291 14.3172C227.121 11.5753 224.191 4.19089 223.752 3.19703C223.569 2.78003 223.46 2.6167 223.295 2.6167C223.112 2.6167 223.003 2.81478 222.782 3.33951L218.19 14.7064C217.824 15.6099 217.575 16.2284 216.732 16.3361C216.584 16.3535 216.327 16.3709 216.166 16.3709C216.018 16.3709 215.948 16.4056 215.948 16.5169C215.948 16.6628 216.057 16.6976 216.296 16.6976C217.248 16.6976 218.155 16.642 218.355 16.642C218.924 16.642 219.711 16.6976 220.294 16.6976C220.495 16.6976 220.607 16.6628 220.607 16.5169C220.607 16.4091 220.551 16.3709 220.333 16.3709H220.059C219.493 16.3709 219.328 16.1346 219.328 15.8114C219.328 15.596 219.419 15.1581 219.602 14.7064L220.589 12.1175C220.625 12.0097 220.663 11.9715 220.755 11.9715H224.837L224.834 11.9785ZM221.116 11.0715C221.043 11.0715 221.025 11.0159 221.043 10.9464L222.726 6.49484C222.743 6.42187 222.782 6.33151 222.835 6.33151C222.887 6.33151 222.908 6.42187 222.926 6.49484L224.574 10.9672C224.591 11.0228 224.574 11.0749 224.482 11.0749H221.116V11.0715Z" fill="#EA0029"/>
<path fill-rule="evenodd" clip-rule="evenodd" d="M268.364 11.4538C268.364 13.1184 268.364 14.5501 268.272 15.3076C268.199 15.8324 268.107 16.232 267.742 16.305C267.577 16.3397 267.359 16.378 267.081 16.378C266.86 16.378 266.79 16.4335 266.79 16.5239C266.79 16.649 266.916 16.7046 267.155 16.7046C267.52 16.7046 267.998 16.6699 268.416 16.6699C268.856 16.6525 269.26 16.6525 269.46 16.6525C269.734 16.6525 270.282 16.6699 270.834 16.7081C271.364 16.7255 271.895 16.7637 272.116 16.7637C275.482 16.7637 277.004 14.7551 277.004 12.8195C277.004 10.7032 275.173 9.41745 273.673 8.91009C274.681 8.11431 275.538 7.22818 275.538 5.74086C275.538 4.78175 274.952 3.02686 271.642 3.02686C271.02 3.02686 270.307 3.08246 269.411 3.08246C269.045 3.08246 267.893 3.02686 266.923 3.02686C266.649 3.02686 266.519 3.06161 266.519 3.19018C266.519 3.31876 266.628 3.35351 266.832 3.35351C267.088 3.35351 267.397 3.37088 267.545 3.40911C268.149 3.53421 268.297 3.82611 268.332 4.4412C268.367 5.02153 268.367 5.52888 268.367 8.27764V11.4642L268.364 11.4538ZM270.56 4.10412C270.56 3.90604 270.595 3.83306 270.725 3.79484C270.908 3.76009 271.073 3.76009 271.329 3.76009C272.903 3.76009 273.616 5.35166 273.616 6.56444C273.616 7.45058 273.342 8.10389 272.865 8.48266C272.552 8.75372 272.151 8.82669 271.547 8.82669C271.125 8.82669 270.851 8.80932 270.686 8.77109C270.612 8.75372 270.56 8.71549 270.56 8.57302V4.10412ZM274.751 13.6257C274.751 15.5092 273.36 15.9436 272.538 15.9436C272.116 15.9436 271.695 15.9262 271.203 15.7281C270.616 15.4918 270.563 15.186 270.563 13.9906V9.7024C270.563 9.61205 270.598 9.5773 270.672 9.5773C270.946 9.5773 271.129 9.5773 271.459 9.59468C272.172 9.62943 272.594 9.758 272.977 10.0291C274.368 10.9882 274.751 12.5102 274.751 13.6292V13.6257Z" fill="#EA0029"/>
<path fill-rule="evenodd" clip-rule="evenodd" d="M258.237 11.4538C258.237 13.1183 258.238 14.55 258.146 15.3076C258.072 15.8323 257.981 16.232 257.616 16.3049C257.45 16.3397 257.233 16.3779 256.955 16.3779C256.737 16.3779 256.663 16.4335 256.663 16.5239C256.663 16.649 256.79 16.7046 257.029 16.7046C257.394 16.7046 257.872 16.6698 258.29 16.6698C258.729 16.6524 259.133 16.6524 259.334 16.6524C259.882 16.6524 260.451 16.6698 261.238 16.708C262.025 16.7254 263.03 16.7636 264.404 16.7636C265.1 16.7636 265.265 16.7636 265.391 16.2945C265.483 15.9331 265.63 14.7029 265.63 14.2859C265.63 14.1052 265.63 13.9593 265.483 13.9593C265.356 13.9593 265.317 14.0323 265.282 14.2303C265.156 14.9705 264.934 15.3528 264.46 15.5682C263.986 15.7837 263.216 15.7837 262.738 15.7837C260.873 15.7837 260.578 15.5126 260.542 14.2651C260.525 13.7404 260.542 12.0758 260.542 11.4607V10.0325C260.542 9.92476 260.56 9.85179 260.651 9.85179C261.091 9.85179 262.904 9.86916 263.251 9.90739C263.93 9.98036 264.186 10.2514 264.277 10.6128C264.334 10.8491 264.334 11.0819 264.351 11.2626C264.351 11.353 264.386 11.426 264.516 11.426C264.681 11.426 264.681 11.2279 264.681 11.0819C264.681 10.9568 264.738 10.2306 264.755 9.86916C264.829 8.9448 264.903 8.65637 264.903 8.54865C264.903 8.44092 264.847 8.40269 264.776 8.40269C264.685 8.40269 264.611 8.49304 264.485 8.639C264.32 8.8197 264.045 8.8753 263.606 8.91005C263.185 8.9448 261.08 8.9448 260.679 8.9448C260.571 8.9448 260.553 8.87182 260.553 8.74672V4.16662C260.553 4.03805 260.588 3.98592 260.679 3.98592C261.045 3.98592 262.967 4.02067 263.279 4.0589C264.193 4.16662 264.376 4.38555 264.506 4.70873C264.597 4.92418 264.615 5.23346 264.615 5.36204C264.615 5.52536 264.653 5.61571 264.78 5.61571C264.906 5.61571 264.945 5.50799 264.962 5.41764C264.998 5.20218 265.036 4.40293 265.054 4.22222C265.11 3.38821 265.201 3.17276 265.201 3.04419C265.201 2.95384 265.184 2.88086 265.092 2.88086C265.001 2.88086 264.892 2.93646 264.801 2.95384C264.653 2.98859 264.362 3.02681 264.014 3.06156C263.666 3.07894 260.026 3.07894 259.439 3.07894C259.183 3.07894 258.761 3.06156 258.287 3.04419C257.83 3.04419 257.299 3.02681 256.804 3.02681C256.53 3.02681 256.4 3.06156 256.4 3.19014C256.4 3.31871 256.509 3.35346 256.709 3.35346C256.966 3.35346 257.275 3.37084 257.422 3.40907C258.027 3.53417 258.174 3.82607 258.209 4.44115C258.245 5.02148 258.245 5.52884 258.245 8.27759V11.4642L258.237 11.4538Z" fill="#EA0029"/>
<path fill-rule="evenodd" clip-rule="evenodd" d="M241.745 13.497C241.745 12.5935 241.745 11.8672 241.762 11.3251C241.78 10.6926 241.963 10.3833 242.458 10.293C242.679 10.2582 242.806 10.2374 242.953 10.2374C243.08 10.2374 243.192 10.2026 243.192 10.0914C243.192 9.94548 243.062 9.91073 242.827 9.91073C242.223 9.91073 241.253 9.96633 240.687 9.96633C240.122 9.96633 238.987 9.91073 238.034 9.91073C237.778 9.91073 237.651 9.94548 237.651 10.0914C237.651 10.1992 237.76 10.2374 237.926 10.2374C238.182 10.2374 238.491 10.2548 238.639 10.293C239.243 10.4181 239.408 10.71 239.426 11.3251C239.443 11.8672 239.443 12.5552 239.443 13.4622V15.165C239.443 15.4743 239.37 15.7071 239.096 15.8357C238.656 16.0337 238.017 16.0337 237.539 16.0337C233.678 16.0337 231.169 13.1182 231.169 9.22963C231.169 7.00213 231.829 5.64686 232.852 4.79548C234.134 3.74602 235.47 3.67304 236.474 3.67304C238.544 3.67304 240.006 4.50705 240.554 5.08391C241.028 5.59126 241.123 6.17159 241.176 6.58512C241.193 6.73107 241.232 6.82142 241.358 6.82142C241.506 6.82142 241.559 6.73107 241.559 6.44265C241.559 4.1804 241.685 3.67304 241.685 3.47496C241.685 3.34986 241.65 3.27689 241.429 3.25604C241.007 3.23866 240.367 3.13094 239.985 3.05796C239.619 2.98498 238.006 2.76953 236.745 2.76953C235.206 2.76953 233.579 2.89463 231.822 3.94757C230.157 4.94143 228.639 6.97085 228.639 9.86556C228.639 14.8627 232.61 16.9616 237.093 16.9616C238.519 16.9616 240.315 16.7635 241.502 16.1484C241.724 16.0233 241.741 15.9851 241.741 15.4986V13.5074L241.745 13.497Z" fill="#EA0029"/>
<path fill-rule="evenodd" clip-rule="evenodd" d="M245.016 11.4536C245.016 13.1181 245.016 14.5498 244.924 15.3074C244.851 15.8321 244.759 16.2317 244.394 16.3047C244.229 16.3395 244.011 16.3777 243.733 16.3777C243.516 16.3777 243.442 16.4333 243.442 16.5236C243.442 16.6487 243.568 16.7043 243.807 16.7043C244.538 16.7043 245.69 16.6487 246.038 16.6487C246.312 16.6487 247.669 16.7043 248.73 16.7043C248.969 16.7043 249.095 16.6487 249.095 16.5236C249.095 16.4333 249.021 16.3777 248.877 16.3777C248.659 16.3777 248.255 16.3429 247.981 16.3047C247.433 16.2317 247.321 15.8356 247.268 15.3074C247.177 14.5463 247.177 13.1181 247.177 11.4327V11.179C247.177 11.0713 247.233 11.0331 247.324 11.0331L248.916 11.0678C249.042 11.0678 249.155 11.0852 249.246 11.1964C249.485 11.4675 250.325 12.6976 251.059 13.695C252.085 15.0885 252.781 15.9398 253.568 16.3568C254.042 16.6105 254.502 16.7009 255.525 16.7009H257.264C257.486 16.7009 257.612 16.6661 257.612 16.5202C257.612 16.4298 257.538 16.3742 257.391 16.3742C257.243 16.3742 257.081 16.3568 256.878 16.3186C256.604 16.263 255.852 16.1379 254.829 15.0885C253.751 13.966 252.486 12.3536 250.859 10.3276C252.707 8.84381 253.276 7.61364 253.276 6.27228C253.276 5.05949 252.545 4.13513 252.032 3.7911C251.045 3.12042 249.819 3.0127 248.666 3.0127C248.097 3.0127 246.709 3.0683 246.087 3.0683C245.704 3.0683 244.549 3.0127 243.582 3.0127C243.308 3.0127 243.178 3.04745 243.178 3.17602C243.178 3.3046 243.287 3.33935 243.491 3.33935C243.747 3.33935 244.057 3.35672 244.204 3.39495C244.809 3.52005 244.956 3.81195 244.991 4.42704C245.026 5.00737 245.026 5.51472 245.026 8.26348V11.4501L245.016 11.4536ZM247.177 4.19421C247.177 4.04826 247.212 3.97876 247.342 3.94053C247.525 3.88493 247.855 3.86755 248.312 3.86755C249.39 3.86755 251.112 4.61121 251.112 7.17927C251.112 8.66311 250.581 9.49712 250.033 9.89327C249.703 10.1296 249.468 10.2025 248.733 10.2025C248.276 10.2025 247.728 10.1469 247.342 10.0218C247.212 9.96625 247.177 9.89674 247.177 9.69519V4.19421Z" fill="#EA0029"/>
<path fill-rule="evenodd" clip-rule="evenodd" d="M207.733 15.6515C210.312 11.7594 213.095 7.61369 215.621 3.5618C215.695 3.43669 215.769 3.32549 215.769 3.21777C215.769 3.12742 215.642 3.07182 215.456 3.07182H209.873C209.121 3.07182 208.243 3.08919 206.507 3.01621C206.05 2.99884 205.941 2.89111 205.776 2.89111C205.667 2.89111 205.594 2.98146 205.559 3.23514C205.467 3.77725 205.193 5.42442 205.193 5.84142C205.193 6.05687 205.211 6.1507 205.341 6.1507C205.45 6.1507 205.523 6.07772 205.559 5.82405C205.615 5.40704 205.941 4.73983 206.546 4.41318C207.133 4.08653 208.246 4.0344 209.181 4.0344H212.768C210.316 7.85347 207.607 11.9436 205.028 15.926C204.807 16.2526 204.754 16.343 204.754 16.4681C204.754 16.5932 204.863 16.6488 205.067 16.6488C208.763 16.6488 211.837 16.7391 214.894 16.7391C215.224 16.7391 215.351 16.5932 215.442 16.27C215.569 15.8183 215.808 14.6402 215.808 14.0634C215.808 13.629 215.772 13.5039 215.625 13.5039C215.516 13.5039 215.477 13.6116 215.442 13.7923C215.386 14.046 215.277 14.3726 215.112 14.6611C214.82 15.2032 214.107 15.6584 212.238 15.6584H207.737L207.733 15.6515Z" fill="#EA0029"/>
<path d="M123.161 25.5556C123.179 26.3166 122.775 27.3939 121.805 27.3939C120.786 27.3939 120.361 26.3931 120.361 25.5834C120.361 24.6799 120.832 23.7555 121.816 23.7555C122.799 23.7555 123.182 24.6799 123.165 25.5556M119.458 30.0002H120.365V27.3348H120.382C120.663 27.7831 121.152 28.1167 122.019 28.1167C123.502 28.1167 124.128 26.8205 124.128 25.4896C124.128 24.1587 123.435 23.0327 122.009 23.0327C121.141 23.0327 120.582 23.4706 120.343 23.832H120.326V23.1474H119.458V30.0037V30.0002ZM118.032 23.1474H117.125V25.3958C117.125 26.5773 116.661 27.3939 115.632 27.3939C114.841 27.3453 114.592 26.7927 114.592 25.6599V23.1474H113.685V26.0317C113.685 27.3348 114.254 28.1167 115.523 28.1167C116.208 28.1167 116.862 27.7831 117.132 27.2306H117.15V28.002H118.025V23.1474H118.032ZM108.559 25.573C108.559 24.6486 109.128 23.7555 110.098 23.7555C111.068 23.7555 111.63 24.6521 111.63 25.573C111.63 26.4383 111.159 27.3904 110.098 27.3904C109.037 27.3904 108.559 26.4383 108.559 25.573ZM107.596 25.573C107.596 26.963 108.615 28.1167 110.098 28.1167C111.581 28.1167 112.593 26.963 112.593 25.573C112.593 24.0961 111.591 23.0293 110.098 23.0293C108.605 23.0293 107.596 24.0961 107.596 25.573ZM104.293 28.002H105.2V25.7919C105.2 24.5722 105.731 23.8111 106.539 23.8111C106.693 23.8111 106.876 23.8285 107.041 23.898V23.0988C106.848 23.0605 106.714 23.0327 106.444 23.0327C105.924 23.0327 105.404 23.3941 105.165 23.898H105.147V23.1474H104.3V28.002H104.293ZM102.726 21.5767C102.168 21.3856 101.736 21.2431 100.752 21.2431C98.6998 21.2431 97.1995 22.6053 97.1995 24.6521C97.1995 26.6989 98.6155 28.1167 100.741 28.1167C101.792 28.1167 102.428 27.9464 102.793 27.8213V24.3637H100.414V25.1456H101.83V27.1646C101.588 27.2132 101.416 27.2792 100.752 27.2792C99.3569 27.2792 98.2185 26.2402 98.2185 24.6799C98.2185 23.1196 99.248 22.0806 100.797 22.0806C101.665 22.0806 102.175 22.2335 102.646 22.5358L102.723 21.5732L102.726 21.5767ZM89.7683 25.573C89.7683 24.6486 90.3375 23.7555 91.3073 23.7555C92.277 23.7555 92.8392 24.6521 92.8392 25.573C92.8392 26.4383 92.3684 27.3904 91.3073 27.3904C90.2462 27.3904 89.7683 26.4383 89.7683 25.573ZM88.8056 25.573C88.8056 26.963 89.8245 28.1167 91.3073 28.1167C92.79 28.1167 93.8019 26.963 93.8019 25.573C93.8019 24.0961 92.8005 23.0293 91.3073 23.0293C89.814 23.0293 88.8056 24.0961 88.8056 25.573ZM86.6869 28.002H87.5934V20.8608H86.6869V28.002ZM81.4376 25.573C81.4376 24.6486 82.0068 23.7555 82.9766 23.7555C83.9463 23.7555 84.5085 24.6521 84.5085 25.573C84.5085 26.4383 84.0377 27.3904 82.9766 27.3904C81.9155 27.3904 81.4376 26.4383 81.4376 25.573ZM80.4749 25.573C80.4749 26.963 81.4938 28.1167 82.9766 28.1167C84.4593 28.1167 85.4712 26.963 85.4712 25.573C85.4712 24.0961 84.4698 23.0293 82.9766 23.0293C81.4833 23.0293 80.4749 24.0961 80.4749 25.573ZM78.4827 26.1186C78.4827 26.8414 78.0119 27.3939 77.1159 27.3939C76.7013 27.3939 76.2024 27.1194 76.2024 26.6051C76.2024 25.7467 77.4146 25.6738 77.9065 25.6738C78.0997 25.6738 78.293 25.6911 78.4827 25.6911V26.1186ZM75.8475 24.2525C76.2129 23.9467 76.761 23.7555 77.274 23.7555C78.1805 23.7555 78.4862 24.183 78.4862 25.0205C78.1313 25.0031 77.8784 25.0031 77.5235 25.0031C76.5889 25.0031 75.2432 25.3853 75.2432 26.6016C75.2432 27.658 75.9846 28.1167 77.0421 28.1167C77.8713 28.1167 78.3527 27.6684 78.5635 27.3731H78.5811V28.002H79.4279C79.4103 27.8596 79.3892 27.6024 79.3892 27.0499V25.0413C79.3892 23.7173 78.82 23.0327 77.4146 23.0327C76.7892 23.0327 76.2481 23.2239 75.7983 23.488L75.8475 24.249V24.2525ZM73.5075 25.5556C73.5251 26.3166 73.121 27.3939 72.1512 27.3939C71.1323 27.3939 70.7072 26.3931 70.7072 25.5834C70.7072 24.6799 71.178 23.7555 72.1618 23.7555C73.1456 23.7555 73.5286 24.6799 73.511 25.5556M69.8007 30.0002H70.7072V27.3348H70.7247C71.0058 27.7831 71.4942 28.1167 72.3621 28.1167C73.8448 28.1167 74.4702 26.8205 74.4702 25.4896C74.4702 24.1587 73.778 23.0327 72.3515 23.0327C71.4837 23.0327 70.925 23.4706 70.6861 23.832H70.6685V23.1474H69.8007V30.0037V30.0002ZM64.0349 28.002H64.9414V25.7537C64.9414 24.5722 65.4052 23.7555 66.4346 23.7555C67.2252 23.8042 67.4747 24.3567 67.4747 25.4896V28.002H68.3812V25.1178C68.3812 23.8146 67.812 23.0327 66.5436 23.0327C65.8584 23.0327 65.2049 23.3663 64.9343 23.9189H64.9168V23.1474H64.0419V28.002H64.0349ZM61.7124 26.1186C61.7124 26.8414 61.2416 27.3939 60.3456 27.3939C59.931 27.3939 59.4321 27.1194 59.4321 26.6051C59.4321 25.7467 60.6443 25.6738 61.1362 25.6738C61.3294 25.6738 61.5227 25.6911 61.7124 25.6911V26.1186ZM59.0772 24.2525C59.4426 23.9467 59.9907 23.7555 60.5037 23.7555C61.4102 23.7555 61.7159 24.183 61.7159 25.0205C61.361 25.0031 61.1081 25.0031 60.7532 25.0031C59.8186 25.0031 58.4729 25.3853 58.4729 26.6016C58.4729 27.658 59.2142 28.1167 60.2718 28.1167C61.101 28.1167 61.5824 27.6684 61.7932 27.3731H61.8108V28.002H62.6575C62.64 27.8596 62.6189 27.6024 62.6189 27.0499V25.0413C62.6189 23.7173 62.0497 23.0327 60.6443 23.0327C60.0189 23.0327 59.4778 23.2239 59.028 23.488L59.0772 24.249V24.2525ZM57.3731 21.4794C56.9093 21.3161 56.3823 21.2396 55.9396 21.2396C54.7274 21.2396 53.7822 21.8686 53.7822 23.0501C53.7822 25.1178 56.6704 24.7077 56.6704 26.1915C56.6704 26.9734 55.9009 27.2758 55.3528 27.2758C54.8609 27.2758 54.2847 27.0846 53.9579 26.9526L53.8631 27.8387C54.3058 27.9812 54.7696 28.1167 55.2404 28.1167C56.5896 28.1167 57.6964 27.5538 57.6964 26.1359C57.6964 23.9467 54.8082 24.2421 54.8082 22.9667C54.8082 22.2717 55.4442 22.0806 55.9817 22.0806C56.4807 22.0806 56.7512 22.1675 57.2431 22.3551L57.3766 21.4794H57.3731ZM49.2181 26.1186C49.2181 26.8414 48.7473 27.3939 47.8513 27.3939C47.4367 27.3939 46.9378 27.1194 46.9378 26.6051C46.9378 25.7467 48.15 25.6738 48.6419 25.6738C48.8351 25.6738 49.0284 25.6911 49.2181 25.6911V26.1186ZM46.5794 24.2525C46.9448 23.9467 47.4929 23.7555 48.0024 23.7555C48.9089 23.7555 49.2146 24.183 49.2146 25.0205C48.8597 25.0031 48.6067 25.0031 48.2519 25.0031C47.3173 25.0031 45.9716 25.3853 45.9716 26.6016C45.9716 27.658 46.7129 28.1167 47.7705 28.1167C48.5997 28.1167 49.0811 27.6684 49.2919 27.3731H49.3095V28.002H50.1562C50.1387 27.8596 50.1176 27.6024 50.1176 27.0499V25.0413C50.1176 23.7173 49.5484 23.0327 48.143 23.0327C47.5175 23.0327 46.9764 23.2239 46.5267 23.488L46.5759 24.249L46.5794 24.2525ZM42.2577 27.8491C42.6723 28.0681 43.1431 28.1167 43.6069 28.1167C44.4818 28.1167 45.3216 27.6406 45.3216 26.6016C45.3216 25.0483 43.1923 25.3367 43.1923 24.3463C43.1923 23.9467 43.5964 23.7555 44.0602 23.7555C44.271 23.7555 44.8121 23.8806 45.0124 24.0023L45.0897 23.2204C44.7348 23.1161 44.3869 23.0293 43.9618 23.0293C42.9885 23.0293 42.2296 23.5158 42.2296 24.5235C42.2296 25.8857 44.3588 25.8093 44.3588 26.6954C44.3588 27.2202 43.8494 27.3904 43.4348 27.3904C43.1748 27.3904 42.6653 27.2758 42.3069 27.0464L42.2577 27.8457V27.8491ZM38.0695 25.1073C38.1363 24.4784 38.5017 23.7555 39.3871 23.7555C40.1671 23.7555 40.6098 24.3637 40.6098 25.1073H38.0695ZM41.1966 26.9074C40.9753 27.0881 40.2831 27.3939 39.6858 27.3939C38.8285 27.3939 38.0695 26.7371 38.0695 25.7745H41.5726C41.5726 24.2143 41.042 23.0327 39.4047 23.0327C38.0203 23.0327 37.1033 24.0509 37.1033 25.4896C37.1033 27.0707 37.9009 28.1167 39.6436 28.1167C40.4517 28.1167 40.8488 27.9256 41.1931 27.804V26.9074H41.1966ZM36.4146 23.1474H35.1146V21.74L34.2081 22.025V23.1474H33.1013V23.8702H34.2081V26.7059C34.2081 27.6754 34.7843 28.1167 35.7189 28.1167C36.0071 28.1167 36.2881 28.0403 36.4884 27.9847V27.2236C36.3549 27.3105 36.1511 27.3939 35.8735 27.3939C35.4589 27.3939 35.1146 27.0881 35.1146 26.5286V23.8737H36.4146V23.1509V23.1474ZM28.0383 28.002H28.9448V25.7537C28.9448 24.5722 29.4086 23.7555 30.438 23.7555C31.2286 23.8042 31.478 24.3567 31.478 25.4896V28.002H32.3846V25.1178C32.3846 23.8146 31.8154 23.0327 30.547 23.0327C29.8653 23.0327 29.2083 23.3663 28.9377 23.9189H28.9202V23.1474H28.0453V28.002H28.0383ZM25.5647 28.002H26.5274V21.3543H25.5647V28.002Z" fill="#5B5A5D"/>
</g>
<defs>
<clipPath id="clip0_89_855">
<rect width="277" height="30" fill="white"/>
</clipPath>
</defs>
</svg>
