<svg width="263" height="80" viewBox="0 0 263 80" fill="none" xmlns="http://www.w3.org/2000/svg">
<path d="M116.514 59.0609L89.202 59.1453C86.8216 59.1523 84.6663 56.9443 83.6748 55.0667C82.6411 53.1048 82.838 51.0549 83.056 48.8856H89.7786C89.9685 50.1232 89.6555 51.1745 90.19 52.268L115.579 52.2328V42.9681L89.3215 42.7255C85.2781 42.6868 82.838 38.5907 82.9013 34.9832L83.056 25.9154C83.1087 22.9374 85.9918 19.78 89.3074 19.773L115.678 19.7202C120.776 19.7097 123.631 25.2615 122.418 29.9096L115.804 29.9624L115.502 26.6011L90.0669 26.5694L89.9579 35.8904L115.632 36.0416C119.246 36.0627 122.569 39.3396 122.544 42.8415L122.47 52.9325C122.449 55.675 119.668 59.0468 116.511 59.0574L116.514 59.0609ZM127.906 51.7054L127.92 39.8037L153.615 39.765V34.2203L127.966 34.1816V27.2937L154.234 27.2902C157.367 27.9969 160.422 30.1944 160.447 33.6577L160.633 59.2191L134.495 59.2297C130.796 58.5335 128.219 55.5906 127.906 51.7089V51.7054ZM153.622 52.2715V46.013H134.836L134.931 52.2258L153.619 52.268L153.622 52.2715ZM256.371 27.3816L230.254 27.2445V59.2015L237.184 59.2332L237.268 34.2449H256.002L256.04 59.198L263.002 59.2121V33.5171C262.207 30.764 259.718 27.3992 256.371 27.3816ZM220.008 59.2508L199.963 59.0925C196.384 59.0644 193.958 55.5132 193.35 52.2082L193.452 34.6457C193.473 30.968 196.57 27.3851 200.312 27.3676L219.741 27.2761C222.67 27.9793 225.845 30.0116 225.855 33.4186L225.905 52.82C225.912 56.1145 222.951 58.3929 220.005 59.2508H220.008ZM219.115 34.2132H200.308V52.2715H219.115V34.2132ZM190.449 34.164L190.544 27.2234L171.73 27.3957C168.425 27.4273 165.211 30.8836 165.201 34.1605L165.099 59.2051L172.057 59.1066L172.092 34.2449L190.449 34.1605V34.164Z" fill="black"/>
<path d="M35.9024 79.0069L34.0917 78.9893C33.6803 78.4408 33.0298 78.599 32.7696 79.0069H32.4216C32.4532 78.4936 32.2458 78.2685 31.7078 77.9591L7.68288 64.1377C7.26799 63.8986 6.92694 63.5364 6.99726 63.2446C7.04297 63.0583 7.39105 62.6504 7.73562 62.6539L24.6019 62.8227L31.3914 66.5672C32.6149 67.2423 34.6366 68.6768 36.2048 67.7838L58.985 54.8238L60.2332 52.5805L60.2719 44.2898L0.119938 44.2476L0.380123 22.0932C0.380123 21.833 0.165646 21.6924 0.0566499 21.717C0.0531338 20.3739 1.0552 19.1644 2.05023 18.1306L32.731 0.536517C34.4538 -0.451482 36.6337 0.0583396 38.2511 0.990083L63.0003 15.2581C63.3836 15.4796 62.5749 16.2004 62.0369 16.2004L45.357 16.1582L37.1893 11.4502C35.3223 10.3743 33.5326 11.0635 31.8098 12.062L11.3255 23.925C10.7031 24.2872 9.88391 25.6057 9.88039 26.2421L9.80304 34.568L70.0534 34.5575L70.0077 57.0916C70.0042 58.8953 68.8123 60.1857 67.3953 61.1491L37.2033 78.5322C36.7568 78.7889 36.0958 78.6799 35.9165 79.0104L35.9024 79.0069Z" fill="#EF2929"/>
<path d="M69.9515 21.9595L70.0219 30.0464L14.0329 30.0569C13.611 27.993 14.7466 26.7554 16.3851 25.8271L32.9807 16.4218C34.3625 15.6377 35.9763 15.7608 37.3089 16.5097L44.6784 20.6692L68.5979 20.6903C68.9987 20.6903 69.9445 21.4708 69.948 21.963L69.9515 21.9595Z" fill="#EF2929"/>
<path d="M0.239651 56.9619L0.369744 49.8561C0.369744 49.617 0.169331 49.4728 0.000562562 49.3463C-0.0135015 48.9103 0.236135 48.7239 0.749473 48.7943H56.0177C56.5099 50.5804 55.6239 51.9165 54.1331 52.7673L37.7836 62.1129C36.219 63.006 34.2536 63.347 32.6397 62.4047L25.3967 58.1679L2.10314 58.1961C1.38587 58.1961 0.264264 57.848 0.236135 56.9619H0.239651Z" fill="#EF2929"/>
</svg>
