<svg width="273" height="81" viewBox="0 0 273 81" fill="none" xmlns="http://www.w3.org/2000/svg">
<path d="M30.9828 11.886C24.7725 9.14914 21.1127 7.9948 17.4358 7.9948C13.5467 7.9948 11.0134 9.37521 11.0134 11.4339C11.0134 17.8324 33.0369 16.0033 33.0369 30.8591C33.0369 39.0902 26.1522 43.8857 16.5184 43.8857C8.94221 43.8857 5.27903 41.8271 0.914051 39.7684V30.633C7.11061 34.7503 10.7841 36.117 15.5907 36.117C19.7297 36.117 22.0235 34.7366 22.0235 32.2258C22.0235 25.149 0 27.8824 0 12.3484C0 5.01815 6.42246 0 16.2924 0C21.1093 0 25.4606 0.914571 30.9691 3.42536V11.8826H30.9828V11.886ZM61.7122 42.0531C58.5831 43.3514 55.2384 44.0501 51.8525 44.1118C41.5306 44.1118 35.0943 38.1756 35.0943 29.2526C35.0943 20.3295 41.9927 14.1673 51.6128 14.1673C54.5981 14.1673 58.2613 14.8592 61.4828 15.9999V22.8506C59.2438 21.5695 56.7241 20.8604 54.1462 20.7919C48.6275 20.7919 45.1904 23.9912 45.1904 29.0231C45.1904 34.0549 48.6413 37.4803 53.9066 37.4803C56.2004 37.4803 58.0455 37.0281 62.1708 35.4216V42.0463M146.828 13.9412C137.885 13.9412 131.463 20.3398 131.463 29.0265C131.463 37.7132 138.111 43.8857 148.207 43.8857C150.501 43.8857 156.009 43.8857 161.052 39.9945V34.5242C156.701 37.4871 153.942 38.6278 150.265 38.6278C144.544 38.6278 141.107 35.6648 140.645 30.633H161.514C162.206 19.8911 155.318 13.9412 146.838 13.9412H146.824H146.828ZM141.323 25.8272C141.788 21.7099 144.082 19.4286 147.519 19.4286C150.956 19.4286 153.49 21.7134 153.716 25.8272H141.323ZM174.585 14.4071H165.403V43.4199H174.585V14.4071ZM199.81 0.691929V15.7772C197.454 14.6057 194.863 13.9823 192.234 13.9446C183.969 13.9446 178.235 20.1206 178.235 29.0299C178.235 37.9393 183.966 44.1152 191.782 44.1152C194.753 44.1152 197.276 43.2109 199.81 41.1523V43.437H208.978V0.691929H199.796H199.81ZM199.81 35.6648C197.964 37.2576 196.359 37.9496 194.291 37.9496C189.94 37.9496 187.191 34.5105 187.191 29.2663C187.191 23.5425 189.936 20.1034 194.527 20.1034C196.133 20.1034 198.416 20.8056 199.57 21.7099V35.6648H199.81ZM228.27 13.9412C219.327 13.9412 212.905 20.3398 212.905 29.0265C212.905 37.7132 219.553 43.8857 229.649 43.8857C231.943 43.8857 237.451 43.8857 242.72 39.9945V34.5242C238.369 37.4871 235.609 38.6278 231.933 38.6278C226.202 38.6278 222.765 35.6648 222.299 30.633H243.182C243.648 19.8911 236.76 13.9412 228.27 13.9412ZM222.535 25.8272C222.987 21.7099 225.294 19.4286 228.732 19.4286C232.169 19.4286 234.689 21.7134 235.154 25.8272H222.535ZM256.928 22.8643C259.687 16.9144 262.898 13.9549 266.336 13.9549C268.181 13.9549 269.786 14.6331 272.306 16.6918L269.786 24.6866C267.493 23.0938 265.887 22.6279 264.268 22.6279C260.831 22.6279 258.773 25.8272 256.705 31.0851V43.6733H247.537V14.4071H256.705V22.8643M175.037 2.28473C175.951 4.56944 174.346 7.76871 171.586 9.37521C168.827 10.968 165.855 10.5056 165.164 8.22086C164.25 5.93615 165.855 2.73687 168.615 1.14408C171.124 -0.462414 174.109 0.00343034 175.037 2.27444V2.28814V2.28473ZM94.5128 25.149C94.5128 17.37 89.244 14.181 83.965 14.181C80.2915 14.181 77.3166 15.7738 74.7832 18.9765H74.5572V0.917994H65.3754V43.6733H74.5572V25.3751C76.6147 22.4019 78.4463 21.0317 80.7401 21.0317C83.4994 21.0317 85.5706 23.0904 85.5706 27.4303V37.7201C88.4361 36.2197 91.5379 35.2127 94.7388 34.7468V25.1456M117.464 13.9412C113.791 13.9412 110.816 15.3216 108.056 18.747V14.6297H98.8745V34.281C102.086 34.5208 105.985 36.1136 108.056 38.3983V24.9092C110.35 21.2578 112.195 20.1137 114.479 20.1137C116.998 20.1137 119.07 21.7065 119.07 25.8238V43.4301H128.251V25.1456C128.012 16.4623 121.819 13.9378 117.464 13.9378V13.9412ZM133.082 51.6681H122.295V59.1971H132.63V62.41H122.295V70.1788H133.308V73.3781H118.857V48.4688H133.082V51.6681ZM144.746 48.4654H141.549V73.3746H144.76V48.4654H144.746ZM156.448 65.6093H167.913C167.913 59.4334 165.154 56.7 160.802 56.7C156.211 56.7 153.24 60.1151 153.24 64.9208C153.24 69.7266 155.999 73.6041 161.268 73.6041C163.613 73.6349 165.917 72.9978 167.916 71.7716V68.5723C166.273 69.8499 164.263 70.5727 162.185 70.6309C158.748 70.6309 156.917 69.0381 156.455 65.6127L156.448 65.6093ZM161.025 59.4334C163.319 59.4334 164.698 61.0262 164.924 63.5507H156.67C156.896 61.0399 158.502 59.4334 161.021 59.4334H161.025ZM189.272 61.266C187.982 60.1939 186.345 59.6252 184.668 59.6595C181.696 59.6595 179.625 61.9442 179.625 65.3696C179.625 68.7949 181.919 70.8673 185.13 70.8673C186.643 70.7816 188.122 70.3946 189.481 69.7266V72.9259C187.937 73.4877 186.308 73.7925 184.664 73.8302C180.282 74.0049 176.588 70.5966 176.414 66.2122C176.407 66.0135 176.407 65.8114 176.414 65.6093C176.414 60.1116 179.625 56.7 184.442 56.7C186.273 56.7 187.653 57.1521 189.259 57.8303V61.2694H189.272V61.266ZM204.161 56.9123H209.44V59.8856H204.171V68.3428C204.171 70.1753 205.551 70.8536 206.455 70.8536C207.749 70.7611 209.005 70.374 210.128 69.7232V72.6861C208.988 73.378 207.143 73.8268 206.229 73.8268C202.792 73.8268 200.96 71.542 200.96 68.5688V59.8856H198.201V59.6595L204.397 53.7096V56.9089M221.621 56.9123V60.8036C223.227 57.8303 224.832 56.6863 226.438 56.6863C227.818 56.6863 228.958 57.3782 230.337 58.5188L228.506 61.266C227.578 60.3514 226.212 59.6595 225.52 59.6595C223.227 59.6595 221.621 61.9442 221.621 64.6776V73.3746H218.41V56.9089H221.621V56.9123ZM263.826 61.266C262.539 60.1973 260.909 59.6252 259.235 59.6595C256.25 59.6595 254.182 61.9442 254.182 65.3696C254.182 68.7949 256.476 70.8673 259.701 70.8673C261.214 70.7782 262.693 70.3911 264.052 69.7266V72.9259C262.508 73.4877 260.878 73.7925 259.235 73.8302C254.853 74.0117 251.156 70.6069 250.971 66.2259C250.964 66.0204 250.961 65.8148 250.971 65.6127C250.971 60.115 254.182 56.7034 258.999 56.7034C260.844 56.7034 262.21 57.1556 263.816 57.8338V61.2728H263.829L263.826 61.266ZM242.254 56.926H239.043V73.3781H242.254V56.926ZM242.48 50.9762C242.706 51.6544 242.254 52.8088 241.34 53.487C240.413 54.1789 239.269 53.9528 239.047 53.0348C238.807 52.1203 239.273 51.2023 240.187 50.524C241.101 50.0582 242.018 50.2843 242.48 50.9762ZM99.0901 59.2073L100.018 55.5422H108.96C110.1 50.2843 109.186 45.4888 105.975 42.5156C99.5522 36.117 86.2451 38.3983 76.3751 47.7872C74.7831 49.1436 73.6295 50.7501 72.2498 52.3429H77.7684L76.6148 56.008H70.1922C69.5006 57.1384 69.0385 58.2928 68.5866 59.4334H76.1491L75.009 63.0849H67.4328C66.0532 68.5826 66.9809 73.6007 70.1922 76.8C76.3888 82.9759 89.6959 80.9173 99.7919 71.316C101.493 69.7883 102.962 68.0174 104.143 66.0581H97.2585L98.4123 62.4066H106.44C107.132 61.266 107.58 60.1219 108.046 58.9813H99.0901V59.2073ZM97.0325 52.3429C96.5669 52.3429 96.1186 52.3429 95.8789 52.8088C95.8789 52.8088 95.6529 53.0348 95.6529 53.2609L92.8935 64.2426C92.2157 68.1338 87.3988 72.0113 81.2023 72.0113H72.486L74.0916 66.3013H79.5967C80.0486 66.3013 80.5107 66.0615 80.9763 65.6093C81.2022 65.3833 81.2023 65.1435 81.2023 64.9174L83.4959 55.3161C84.1875 51.4249 88.3129 47.085 94.5095 47.085H103.226L102.072 52.3566H97.0292V52.3429H97.0325Z" fill="#009B4C"/>
</svg>
