<svg width="342" height="87" viewBox="0 0 342 87" fill="none" xmlns="http://www.w3.org/2000/svg">
<path d="M0 72.9326V75.2379L16.1179 79.6395L40.6748 86.3429L65.235 79.6395L81.3529 75.2379V72.9326L40.6748 74.3884L0 72.9326Z" fill="#E30278"/>
<path d="M40.6748 49.5923L9.16132 63.9685L0 68.1543V70.4664L9.16132 68.4523L40.6748 61.5468L72.1848 68.4523L81.3529 70.4664V68.1543L72.1848 63.9685L40.6748 49.5923Z" fill="#E30278"/>
<path d="M40.6748 24.7964L9.16132 54.6792L0 63.3659V65.678L9.16132 59.1527L40.6748 36.744L72.1848 59.1527L81.3529 65.678V63.3659L72.1848 54.6792L40.6748 24.7964Z" fill="#E30278"/>
<path d="M72.1848 45.3894L51.0891 15.0031L45.389 6.78904L40.6748 0L35.9572 6.78904L30.2604 15.0031L9.16132 45.3894L0 58.5839V60.8858L9.16132 49.8629L38.1516 15.0031L40.6748 11.9477L43.2081 15.0031L72.1848 49.8629L81.3529 60.8858V58.5839L72.1848 45.3894Z" fill="#E30278"/>
<path d="M72.1848 45.3894L51.0891 15.0031L45.389 6.78904L40.6748 0L35.9572 6.78904L30.2604 15.0031L9.16132 45.3894L0 58.5839V60.8858L9.16132 49.8629L38.1516 15.0031L40.6748 11.9477L43.2081 15.0031L72.1848 49.8629L81.3529 60.8858V58.5839L72.1848 45.3894Z" fill="#E30278"/>
<path d="M50.0244 8.23438L53.6808 13.5026H76.0877V51.0787L81.353 60.0189V53.3498V8.23438H50.0244Z" fill="#E30278"/>
<path d="M0 53.3498V60.0189L5.24142 51.0787V13.5026H27.6688L31.3183 8.23438H0V53.3498Z" fill="#E30278"/>
<path d="M112.976 44.4475C109.634 44.4475 106.92 43.4747 104.838 41.5257C102.76 39.5767 101.726 36.9186 101.726 33.5823C101.726 29.1636 103.458 25.978 106.926 23.9947C108.6 23.0528 110.617 22.5835 112.969 22.5835H150.583V31.0064H115.088C112.736 31.0064 111.555 31.9073 111.555 33.7056C111.555 35.5039 112.736 36.4048 115.088 36.4048L141.257 36.4699C144.599 36.4699 147.307 37.453 149.385 39.426C151.463 41.3921 152.504 44.0399 152.504 47.3933C152.504 51.8943 150.771 55.0901 147.296 56.9706C145.67 57.8612 143.657 58.3168 141.254 58.3168H101.716V49.8939L139.131 49.9521C141.483 49.9521 142.664 49.0341 142.664 47.1844C142.664 45.3347 141.483 44.4852 139.131 44.4852L112.962 44.4202L112.969 44.4441L112.976 44.4475Z" fill="#425460"/>
<path d="M293.433 44.4475C290.091 44.4475 287.377 43.4747 285.305 41.5257C283.227 39.5767 282.187 36.9186 282.187 33.5823C282.187 29.1636 283.919 25.978 287.394 23.9947C289.068 23.0528 291.084 22.5835 293.443 22.5835H331.05V31.0064H295.566C293.207 31.0064 292.033 31.9073 292.033 33.7056C292.033 35.5039 293.214 36.4048 295.566 36.4048L321.735 36.4699C325.076 36.4699 327.784 37.453 329.862 39.426C331.934 41.3921 332.981 44.0399 332.981 47.3933C332.981 51.8943 331.239 55.0901 327.774 56.9706C326.148 57.8612 324.135 58.3168 321.732 58.3168H282.193V49.8939L319.609 49.9521C321.961 49.9521 323.149 49.0341 323.149 47.1844C323.149 45.3347 321.968 44.4852 319.609 44.4852L293.44 44.4202L293.433 44.4441V44.4475Z" fill="#425460"/>
<path d="M172.477 58.3272C165.147 58.3272 160.114 55.628 157.375 50.2262C155.996 47.527 155.321 44.2729 155.321 40.4502C155.321 32.6986 157.971 27.4201 163.284 24.6285C165.893 23.2583 168.961 22.5801 172.47 22.5801H197.27V10.5742H207.999V58.3237H172.473H172.48L172.477 58.3272ZM173.887 31.5169C171.395 31.5169 169.522 32.4177 168.235 34.2161C167.122 35.7609 166.568 37.8401 166.568 40.457C166.568 43.074 167.129 45.1567 168.235 46.6912C169.522 48.4895 171.405 49.3904 173.887 49.3904H197.266V31.5134H173.887V31.5169Z" fill="#425460"/>
<path d="M275.219 26.0602C273.031 23.7412 269.796 22.5938 265.513 22.5938H225.876C221.586 22.5938 218.351 23.7412 216.163 26.0602C214.191 28.1668 213.209 30.6433 213.209 33.5172V58.3374H223.945V35.2436C223.945 32.7671 225.191 31.5271 227.666 31.5271H240.176V58.3374H251.234V31.5271H263.713C266.198 31.5271 267.444 32.7739 267.444 35.2436V58.3374H278.174V33.5172C278.174 30.6433 277.184 28.1668 275.219 26.0602Z" fill="#425460"/>
<path d="M336.973 27.1492H337.517C338.113 27.1492 338.424 27.3719 338.524 27.9748C338.63 28.5708 338.739 29.0229 338.852 29.1805H339.643C339.544 29.0229 339.455 28.742 339.338 28.0159C339.239 27.3137 338.958 26.9094 338.537 26.8683V26.8341C339.041 26.6697 339.469 26.2895 339.469 25.6866C339.469 25.2242 339.321 24.909 339.03 24.6864C338.733 24.4877 338.27 24.3302 337.555 24.3302C336.987 24.3302 336.607 24.3781 336.227 24.4295V29.1771H336.969V27.1458L336.973 27.1492ZM336.973 24.9604C337.13 24.9433 337.277 24.9262 337.534 24.9262C338.366 24.9262 338.681 25.3304 338.681 25.7346C338.681 26.3306 338.154 26.5601 337.534 26.5601H336.973V24.957V24.9604ZM337.788 30.9651C340.098 30.9651 341.964 29.1085 341.964 26.7142C341.964 24.3199 340.109 22.4771 337.815 22.4771H337.798C335.47 22.4771 333.58 24.3678 333.58 26.7142C333.58 29.0606 335.47 30.9651 337.798 30.9651H337.791H337.788ZM337.788 23.145H337.805C339.677 23.145 341.18 24.7378 341.18 26.7108C341.18 28.6838 339.677 30.328 337.805 30.3108C335.908 30.3108 334.388 28.718 334.388 26.7039C334.388 24.6898 335.908 23.145 337.781 23.145H337.788Z" fill="#425460"/>
</svg>
