<svg width="156" height="78" viewBox="0 0 156 78" fill="none" xmlns="http://www.w3.org/2000/svg">
<path d="M0.0821609 37.0487H28.5932C32.763 36.2163 32.3008 30.955 28.5932 30.2254H13.9577C6.16575 30.2254 0 23.5699 0 15.6436C0 7.71731 5.69673 0.883769 13.9577 0.883769H30.0173C36.6384 0.883769 41.3663 5.84364 41.3663 12.1326H13.9577C10.2705 12.6601 10.0377 18.312 13.9577 18.9525H28.5521C36.5631 19.1683 42.9479 25.5463 42.9479 33.6199C42.9479 41.0597 36.6384 48.5373 28.5932 48.5373H13.54C7.13457 48.5373 0.0787341 45.0777 0.0787341 37.0452L0.0821609 37.0487ZM47.176 0.883769V48.5407H58.4257V0.883769H47.176ZM109.587 36.4904L99.5283 31.0269C97.3167 35.3258 92.8593 38.2065 87.8542 38.2065C80.7025 38.2065 74.7216 32.3217 74.7216 24.8304C74.7216 17.3392 80.7059 11.4544 87.8542 11.4544C92.7566 11.4544 97.1113 14.2221 99.364 18.377L109.436 12.9376C105.266 5.2271 97.1627 0 87.8542 0C74.2799 0 63.2733 11.1153 63.2733 24.827C63.2733 38.5387 74.2765 49.6574 87.8542 49.6574C97.2551 49.6574 105.451 44.3242 109.587 36.4904ZM113.825 0.883769V48.5407H125.201V30.0747H129.2L141.172 48.5407H155.164L139.282 25.012L155.397 0.883769H141.408L129.583 19.9972H125.201V0.883769H113.825ZM0.397139 64.914C0.397139 62.458 2.96135 61.3105 5.14555 61.3105C7.52831 61.3105 9.58925 62.4032 10.0925 65.0236H8.12056C7.70974 63.4822 6.29242 63.0163 5.05653 63.0163C4.1048 63.0163 2.47519 63.4651 2.47519 64.8283C2.47519 65.9039 3.3345 66.4588 4.44714 66.6917L5.98772 67.0137C8.06579 67.4453 10.3424 68.2331 10.3424 70.8501C10.3424 73.467 7.87065 74.7756 5.34067 74.7756C2.32798 74.7756 0.304693 73.1074 0 70.3808H2.00617C2.38276 72.1552 3.5844 73.0698 5.41255 73.0698C7.09692 73.0698 8.28146 72.2614 8.28146 71.0077C8.28146 69.6615 6.9908 69.1237 5.59401 68.8394L3.99864 68.5175C2.15337 68.1407 0.397139 67.0994 0.397139 64.914ZM20.791 71.7098C20.3425 73.3061 18.908 74.7756 16.4534 74.7756C13.3346 74.7756 11.6502 72.4977 11.6502 69.7026C11.6502 66.7089 13.6564 64.7187 16.3986 64.7187C19.3737 64.7187 21.1128 67.1576 20.9142 70.2952H13.5674C13.7454 72.0695 14.8752 73.1828 16.3815 73.1828C17.7235 73.1828 18.5143 72.6278 18.9081 71.7133H20.791V71.7098ZM18.9834 68.8223C18.9286 67.3871 17.9255 66.2395 16.3849 66.2395C14.9334 66.2395 13.8584 66.9931 13.6085 68.8223H18.9834ZM27.46 64.7153C29.788 64.7153 30.6849 66.2224 30.6849 68.4626V74.5426H28.8225V68.9661C28.8225 67.5686 28.5898 66.2773 26.8335 66.2773C25.221 66.2773 24.4302 67.4419 24.4302 69.3601V74.5426H22.5678V64.8968H24.4302V66.2944C24.9848 65.3422 25.9536 64.7153 27.46 64.7153ZM36.1318 66.2019C35.2177 66.2019 34.2317 66.5787 34.2317 67.3665C34.2317 68.0824 34.6973 68.3873 35.5737 68.5688L36.9534 68.8394C38.7815 69.1991 40.3769 69.8259 40.3769 71.7098C40.3769 73.5938 38.5487 74.7756 36.3269 74.7756C33.8893 74.7756 32.4035 73.3574 32.1673 71.5489H34.0674C34.3173 72.6415 35.0362 73.289 36.3782 73.289C37.5799 73.289 38.5111 72.7854 38.5111 71.9257C38.5111 71.0659 37.6689 70.6686 36.6658 70.4733L35.2142 70.1856C33.7627 69.8978 32.4001 69.2539 32.4001 67.4419C32.4001 65.7394 34.1906 64.6981 36.3063 64.6981C38.2406 64.6981 39.8017 65.719 40.1612 67.5858H38.3159C38.0455 66.5993 37.2239 66.2053 36.1283 66.2053L36.1318 66.2019ZM46.0976 74.7756C43.821 74.7756 41.4211 73.2341 41.4211 69.754C41.4211 66.2738 43.8244 64.7153 46.0976 64.7153C48.3708 64.7153 50.7947 66.2567 50.7947 69.754C50.7947 73.2513 48.3914 74.7756 46.0976 74.7756ZM48.8227 69.754C48.8227 67.3494 47.5149 66.2944 46.0976 66.2944C44.6803 66.2944 43.3896 67.3151 43.3896 69.754C43.3896 72.1928 44.6974 73.1965 46.0976 73.1965C47.4978 73.1965 48.8227 72.1038 48.8227 69.754ZM56.529 66.7602C55.0946 66.7602 54.3414 67.459 54.3414 69.4868V74.5426H52.479V64.8968H54.3072V66.5992C54.8104 65.5065 55.7758 64.8762 56.9775 64.8591C57.1384 64.8591 57.337 64.8591 57.4979 64.8763V66.8116C57.1589 66.7774 56.8337 66.7568 56.529 66.7568V66.7602ZM63.1604 74.5426V61.5434H65.2042V74.5426H63.1604ZM72.5134 64.7153C74.8414 64.7153 75.7384 66.2224 75.7384 68.4626V74.5426H73.876V68.9661C73.876 67.5686 73.6432 66.2773 71.8869 66.2773C70.2744 66.2773 69.4836 67.4419 69.4836 69.3601V74.5426H67.6212V64.8968H69.4836V66.2944C70.0382 65.3422 71.007 64.7153 72.5134 64.7153ZM80.0417 62.4203V64.8934H81.9418V66.3115H80.0417V71.816C80.0417 72.8025 80.2026 73.0526 81.1338 73.0526H81.9212V74.5392H80.5586C78.6038 74.5392 78.1759 74.0562 78.1759 72.0661V66.3081H76.7072V64.89H78.1759V62.4169H80.0383L80.0417 62.4203ZM91.8699 71.7098C91.4215 73.3061 89.987 74.7756 87.5323 74.7756C84.4135 74.7756 82.7292 72.4977 82.7292 69.7026C82.7292 66.7089 84.7354 64.7187 87.4776 64.7187C90.4526 64.7187 92.1917 67.1576 91.9932 70.2952H84.6463C84.8244 72.0695 85.9541 73.1828 87.4605 73.1828C88.8025 73.1828 89.5933 72.6278 89.987 71.7133H91.8699V71.7098ZM90.0589 68.8223C90.0041 67.3871 89.001 66.2395 87.4605 66.2395C86.0089 66.2395 84.9339 66.9931 84.684 68.8223H90.0589ZM93.5543 74.5426V61.5434H95.4167V74.5426H93.5543ZM97.6591 74.5426V61.5434H99.5215V74.5426H97.6591ZM103.626 63.602H101.764V61.54H103.626V63.602ZM103.626 74.5426H101.764V64.8968H103.626V74.5426ZM114.147 64.8934V73.4123C114.147 75.1867 113.77 76.1389 113.106 76.8C112.37 77.5707 111.206 77.9645 109.737 77.9645C107.587 77.9645 106.009 77.0329 105.704 75.0051H107.622C107.817 75.8854 108.375 76.4026 109.771 76.4026C110.686 76.4026 111.312 76.1526 111.706 75.7039C112.082 75.2928 112.277 74.7893 112.277 73.8028V72.782C111.685 73.7685 110.716 74.3782 109.302 74.3782C107.064 74.3782 105.198 72.6039 105.198 69.5348C105.198 66.4657 107.06 64.7119 109.302 64.7119C110.72 64.7119 111.685 65.3216 112.277 66.3081V64.89H114.143L114.147 64.8934ZM107.194 69.5382C107.194 71.638 108.197 72.8574 109.737 72.8574C111.172 72.8574 112.353 71.8538 112.353 69.5382C112.353 67.2227 111.172 66.2567 109.737 66.2567C108.197 66.2567 107.194 67.4762 107.194 69.5382ZM124.845 71.7098C124.397 73.3061 122.962 74.7756 120.508 74.7756C117.389 74.7756 115.704 72.4977 115.704 69.7026C115.704 66.7089 117.711 64.7187 120.453 64.7187C123.428 64.7187 125.167 67.1576 124.968 70.2952H117.622C117.8 72.0695 118.929 73.1828 120.436 73.1828C121.778 73.1828 122.569 72.6278 122.962 71.7133H124.845V71.7098ZM123.034 68.8223C122.979 67.3871 121.976 66.2395 120.436 66.2395C118.984 66.2395 117.909 66.9931 117.659 68.8223H123.034ZM131.422 64.7153C133.75 64.7153 134.647 66.2224 134.647 68.4626V74.5426H132.784V68.9661C132.784 67.5686 132.552 66.2773 130.795 66.2773C129.183 66.2773 128.392 67.4419 128.392 69.3601V74.5426H126.53V64.8968H128.392V66.2944C128.947 65.3422 129.915 64.7153 131.422 64.7153ZM143.017 68.1578C142.822 67.0651 141.836 66.3115 140.614 66.3115C139.268 66.3115 138.033 67.37 138.033 69.7198C138.033 72.0696 139.289 73.1793 140.614 73.1793C141.795 73.1793 142.836 72.4806 143.086 71.3331H144.969C144.592 73.3609 142.709 74.7756 140.576 74.7756C137.8 74.7756 136.044 72.6415 136.044 69.7368C136.044 66.8321 137.855 64.7153 140.703 64.7153C142.908 64.7153 144.592 66.2738 144.88 68.1578H143.017ZM155.027 71.7098C154.578 73.3061 153.144 74.7756 150.689 74.7756C147.571 74.7756 145.886 72.4977 145.886 69.7026C145.886 66.7089 147.892 64.7187 150.635 64.7187C153.61 64.7187 155.349 67.1576 155.15 70.2952H147.803C147.981 72.0695 149.111 73.1828 150.617 73.1828C151.959 73.1828 152.75 72.6278 153.144 71.7133H155.027V71.7098ZM153.216 68.8223C153.161 67.3871 152.158 66.2395 150.617 66.2395C149.166 66.2395 148.091 66.9931 147.841 68.8223H153.216Z" fill="#005AFF"/>
</svg>
