<svg width="268" height="43" viewBox="0 0 268 43" fill="none" xmlns="http://www.w3.org/2000/svg">
<path fill-rule="evenodd" clip-rule="evenodd" d="M28.7096 1.45578V9.27247C24.9951 7.97083 20.9279 7.21383 17.6824 7.21383C13.6804 7.21383 11.4516 8.43324 11.4516 10.6255C11.4516 12.0264 12.4274 12.9513 15.2244 14.2118L22.7458 17.5893C28.7643 20.2953 31.7976 24.2413 31.7976 29.369C31.7976 37.285 24.9506 42.2758 14.098 42.2758C10.1404 42.2758 5.55978 41.7106 0.712091 40.6111V32.534C5.52213 33.8425 9.92476 34.5413 13.3517 34.5413C17.8399 34.5413 20.2432 33.2911 20.2432 30.9584C20.2432 29.5575 19.3052 28.5264 17.1552 27.5673L8.92167 23.8987C2.81755 21.1756 0 17.507 0 12.2765C0 4.78183 6.60053 0 16.9532 0C20.5787 0 25.0396 0.551479 28.713 1.45235L28.7096 1.45578ZM37.6552 0.822136H49.8224V41.4571H37.6552V0.822136ZM89.3776 0.822136V8.26543H71.0105V17.4317H87.0565V24.1659H71.0105V33.6679H89.6139V41.4571H59.1857V0.822136H89.3742H89.3776ZM146.855 0.822136V41.4571H135.085V14.7119L123.555 41.7757H116.112L104.66 14.7119V41.4571H96.5328V0.822136H111.391L121.894 25.5395L132.343 0.822136H146.858H146.855ZM186.444 0.822136V8.26543H168.05V17.4317H184.089V24.1659H168.05V33.6679H186.653V41.4571H156.198V0.822136H186.444ZM229.297 0.822136V41.4571H216.315L201.696 15.3935V41.4571H193.565V0.822136H206.89L221.197 26.5397V0.822136H229.297ZM264.607 1.45578V9.27247C260.92 7.98111 256.825 7.21383 253.641 7.21383C249.574 7.21383 247.349 8.4161 247.349 10.6152C247.349 12.0504 248.256 12.9067 251.152 14.2118L258.643 17.5893C264.706 20.3227 267.698 24.2345 267.698 29.4239C267.698 37.2954 260.844 42.2792 250.016 42.2792C246.051 42.2792 241.453 41.7106 236.609 40.6145V32.5375C241.412 33.8425 245.808 34.5448 249.211 34.5448C253.669 34.5448 256.137 33.2945 256.137 31.0372C256.137 29.5438 255.271 28.5812 253.018 27.5741L244.819 23.9056C238.677 21.1619 235.894 17.5344 235.894 12.2834C235.894 4.79211 242.494 0.0102861 252.826 0.0102861C256.462 0.00686075 260.94 0.554911 264.607 1.45921V1.45578Z" fill="#00A0B0"/>
</svg>
