<?xml version="1.0" encoding="UTF-8"?>
<svg id="Layer_2" data-name="Layer 2" xmlns="http://www.w3.org/2000/svg" viewBox="0 0 487.46 147.76">
  <defs>
    <style>
      .cls-1, .cls-2 {
        fill: #b0a08d;
      }

      .cls-1, .cls-2, .cls-3, .cls-4, .cls-5 {
        stroke-width: 0px;
      }

      .cls-2, .cls-3, .cls-4, .cls-5 {
        fill-rule: evenodd;
      }

      .cls-3 {
        fill: #b3b5b8;
      }

      .cls-4 {
        fill: #f05b40;
      }

      .cls-5 {
        fill: #806150;
      }
    </style>
  </defs>
  <g id="SVG">
    <g>
      <polygon class="cls-4" points="68.24 14.23 68.24 25.94 68.24 127.62 55.11 127.62 55.11 25.94 0 25.94 0 0 68.24 0 68.24 14.23"/>
      <polygon class="cls-3" points="53.64 39.85 53.64 50.42 53.64 127.68 41.97 127.68 41.97 50.42 .16 50.42 .16 27.2 53.64 27.2 53.64 39.85"/>
      <polygon class="cls-2" points="83.98 25.94 83.98 127.62 70.86 127.62 70.86 25.94 70.86 14.23 70.86 0 139.1 0 139.1 25.94 83.98 25.94"/>
      <polygon class="cls-5" points="106.38 44.32 155.54 44.32 155.54 57.45 138.61 57.45 138.61 100.47 123.24 100.47 123.24 57.45 106.38 57.45 106.38 44.32"/>
      <path class="cls-5" d="M170.15,65.48l30.16.03v13.09h-30.35c.26,3.17,1.1,5.19,2.25,6.39,1.34,1.41,3.85,2.36,8.07,2.36h20.04v13.12h-20.57c-4.17,0-7.61-.35-10.21-1.13-2.61-.78-5.03-2.08-7.28-3.89-2.97-2.37-5.17-5.44-6.62-9.16-1.45-3.71-2.14-8.06-2.14-13,0-9.46,2.04-16.87,6.51-21.79,4.51-4.96,11.35-7.25,20.06-7.25h20.25v13.12h-20.04c-3.66,0-6.06.91-7.58,2.41-1.23,1.21-2.13,3.04-2.54,5.69"/>
      <polygon class="cls-5" points="237.01 65.4 237.01 44.25 252.02 44.25 252.02 100.47 237.01 100.47 237.01 78.67 220.92 78.67 220.92 100.47 205.92 100.47 205.92 44.25 220.92 44.25 220.92 65.4 237.01 65.4"/>
      <polygon class="cls-5" points="290.27 79.91 302.12 44.25 321.64 44.25 321.64 100.47 306.8 100.47 307.44 71.29 297.84 100.47 283.29 100.47 273.31 70.79 274.11 100.47 258.83 100.47 258.83 44.25 278.42 44.25 290.27 79.91"/>
      <path class="cls-5" d="M341.1,71.9c0,6.28,1.12,10.46,2.98,12.93,1.77,2.34,4.63,3.69,9.04,3.69s7.2-1.33,9.02-3.67c1.9-2.45,3.03-6.49,3.03-12.48s-1.13-10.06-3.03-12.49c-1.82-2.34-4.69-3.66-9.03-3.66s-7.12,1.31-8.97,3.64c-1.92,2.42-3.05,6.32-3.05,12.05M353.12,43.23c9.14,0,16.32,2.29,21.08,7.26,4.75,4.95,6.93,12.38,6.93,21.87,0,9.49-2.18,16.93-6.92,21.9-4.76,4.99-11.94,7.3-21.08,7.3s-16.45-2.31-21.18-7.34c-4.71-5.01-6.86-12.62-6.86-22.39,0-9.25,2.21-16.53,7.01-21.43,4.81-4.91,11.96-7.17,21.03-7.17Z"/>
      <polygon class="cls-5" points="419.71 75.95 419.26 44.25 434.51 44.25 434.51 100.47 418.6 100.47 399.46 66.79 399.88 100.47 384.56 100.47 384.56 44.25 401.64 44.25 419.71 75.95"/>
      <polygon class="cls-5" points="435.6 44.32 484.75 44.32 484.75 57.45 467.82 57.45 467.82 100.47 452.45 100.47 452.45 57.45 435.6 57.45 435.6 44.32"/>
      <path class="cls-1" d="M472.27,133.13h-5.17l2.52-6.64,2.65,6.64ZM487.46,147.76l-13.56-31.74h-8.14l-13.36,31.74h9.2l2.52-7.01h11.12l2.69,7.01h9.53ZM449.2,134.71v-18.69h-8.8l-.08,19.6-.33,2.12c-.24,1-.8,1.71-1.67,2.12-.84.41-1.97.61-3.38.61h-8.47v7.29h11.77l1.47-.12c3.58-.57,6.12-2.08,7.62-4.53,1.25-2.06,1.87-4.87,1.87-8.4ZM421.57,147.76v-31.74h-8.63l.16,17.64-9.98-17.64h-9.69v31.74h8.76l-.16-18.7,10.59,18.7h8.96ZM377.9,131.95c0,1.21-.08,2.38-.24,3.5-.19,1.15-.5,2.15-.94,3.01-.54.81-1.22,1.3-2.04,1.47l-1.18.2-1.55.08h-5.9v-16.66h5.9l1.63.08,1.47.24c.76.22,1.36.75,1.79,1.59.3.62.5,1.22.61,1.79l.24,1.59s.05.16.08.33c.03.1.05.25.08.45v.94l.04,1.39ZM387.1,129.71c0-1.66-.3-3.29-.9-4.89-.6-1.6-1.45-3.07-2.57-4.4-2.47-2.93-6.34-4.4-11.61-4.4h-14.58v31.74h14.74c2.58,0,4.6-.27,6.07-.81,1.47-.43,3.2-1.49,5.21-3.18,1.03-.87,1.83-2,2.4-3.38.49-1.22.81-2.54.98-3.95.16-1.44.24-3.68.24-6.72ZM338.7,133.13h-5.17l2.52-6.64,2.65,6.64ZM353.89,147.76l-13.56-31.74h-8.14l-13.36,31.74h9.2l2.52-7.01h11.12l2.69,7.01h9.53ZM307.49,126.17c0,.84-.19,1.45-.57,1.83-.54.46-1.78.69-3.71.69h-6.31v-4.97h6.31l2.36.16c.62.08,1.07.24,1.34.49.38.38.57.98.57,1.79ZM318.44,147.76l-7.57-12.79c.73-.27,1.43-.69,2.08-1.26.49-.41,1-.99,1.55-1.75,1.09-1.58,1.63-3.48,1.63-5.7s-.47-4.14-1.42-5.83c-1.17-2.04-2.77-3.3-4.81-3.79-.52-.14-.84-.22-.98-.24h-.53l-1.43-.23-2.32-.14h-16.33v31.74h8.59v-11.45h5.33l6.47,11.45h9.73ZM281.08,147.76v-19.8h-16.9v7.62h8.18v4.4c-.98,0-2.14-.03-3.5-.08-.81-.03-1.76-.1-2.85-.2-1.68-.24-2.71-.52-3.09-.81-.73-.65-1.24-1.53-1.51-2.65-.3-1.2-.45-2.92-.45-5.17s.42-3.97,1.26-5.38c.84-1.41,2.32-2.12,4.44-2.12h14.42v-7.54c-10.89,0-17.01.08-18.37.24-1.44.16-2.57.5-3.38,1.02-2.85,1.44-4.94,3.59-6.27,6.44-.98,2.28-1.47,4.88-1.47,7.78s.31,5.3.94,7.25c.41,1.2.91,2.31,1.51,3.34.52.92,1.14,1.67,1.87,2.24l1.55,1.22c.71.54,1.34.9,1.91,1.06l2.32.73c.49.14.79.2.9.2.14.05.34.1.61.12.38.05.75.08,1.1.08h16.78Z"/>
    </g>
  </g>
</svg>