<svg width="201" height="59" viewBox="0 0 201 59" fill="none" xmlns="http://www.w3.org/2000/svg">
<g clip-path="url(#clip0_89_1166)">
<path d="M11.8228 38.9396H0V27.1409H11.8228V38.9396ZM0 0V20.0604H3.5444V19.4698C3.5444 10.0271 8.86406 4.12775 18.9177 4.12775H19.5095V46.6046C19.5095 52.504 17.1425 54.8662 11.2311 54.8662H9.45581V58.9939H40.1963V54.8662H38.4211C32.5097 54.8662 30.1427 52.504 30.1427 46.6046V4.12775H30.7344C40.782 4.12775 46.1077 10.0271 46.1077 19.4698V20.0604H49.6521V0H0ZM37.8354 38.9396H49.6582V27.1409H37.8354V38.9396Z" fill="#EB008B"/>
<path d="M100.951 37.6671C100.091 37.1191 99.0785 36.8452 97.9133 36.8452C96.7481 36.8452 95.7598 37.1191 94.8996 37.6671C94.0395 38.215 93.3806 38.9943 92.9231 39.9988C92.4655 41.0033 92.2337 42.1905 92.2337 43.5482C92.2337 44.9058 92.4655 46.0687 92.9231 47.0854C93.3806 48.1021 94.0395 48.8814 94.8996 49.4171C95.7598 49.9529 96.7603 50.2269 97.9133 50.2269C99.0663 50.2269 100.097 49.959 100.951 49.4171C101.812 48.8814 102.464 48.1021 102.916 47.0854C103.367 46.0687 103.593 44.8937 103.593 43.5482C103.593 42.2027 103.367 41.0033 102.916 39.9988C102.464 38.9943 101.812 38.215 100.951 37.6671ZM100.116 46.6714C99.6214 47.3959 98.8833 47.7551 97.9133 47.7551C96.9433 47.7551 96.2296 47.3959 95.7354 46.6714C95.2413 45.9469 94.9911 44.9058 94.9911 43.5421C94.9911 42.1784 95.2413 41.1373 95.7354 40.4006C96.2296 39.6701 96.9555 39.2987 97.9133 39.2987C98.8711 39.2987 99.6214 39.664 100.116 40.4006C100.61 41.1312 100.86 42.1784 100.86 43.5421C100.86 44.9058 100.61 45.9469 100.116 46.6714ZM92.8438 18.4103C92.6669 19.5914 92.2764 20.6325 91.6786 21.5214C91.0746 22.4163 90.306 23.0921 89.3665 23.5609C88.427 24.0297 87.3899 24.261 86.2613 24.261C84.7362 24.261 83.4246 23.8896 82.3204 23.1469C81.2162 22.4041 80.3743 21.3448 79.8008 19.9689C79.2274 18.593 78.9407 16.9492 78.9407 15.0436C78.9407 13.138 79.2274 11.4942 79.8008 10.1183C80.3743 8.74238 81.2162 7.68305 82.3204 6.9403C83.4246 6.19755 84.7423 5.82617 86.2613 5.82617C87.396 5.82617 88.427 6.05752 89.3665 6.52631C90.306 6.99509 91.0746 7.67696 91.6786 8.56583C92.2825 9.46078 92.6669 10.4958 92.8438 11.6769H89.8728C89.6593 10.6541 89.2323 9.87477 88.5856 9.34511C87.9389 8.81544 87.1642 8.54756 86.2613 8.54756C85.3584 8.54756 84.5288 8.79718 83.8699 9.30249C83.2171 9.8078 82.7169 10.5384 82.3814 11.5003C82.0458 12.4622 81.875 13.6433 81.875 15.0375C81.875 16.4317 82.0458 17.6128 82.3814 18.5747C82.7169 19.5366 83.211 20.2733 83.8699 20.7725C84.5227 21.2778 85.3218 21.5274 86.2613 21.5274C87.2008 21.5274 87.9389 21.2596 88.5856 20.7299C89.2323 20.2002 89.6593 19.421 89.8728 18.3981H92.8438V18.4103ZM173.554 23.8957H170.869V11.2811H173.554V23.8957ZM179.502 23.8957H176.817V11.2811H179.337V12.9249H179.471C179.807 12.2735 180.283 11.7682 180.893 11.4151C181.503 11.062 182.198 10.8854 182.979 10.8854C184.309 10.8854 185.291 11.2811 185.926 12.0787C186.56 12.8762 186.883 14.0208 186.883 15.5246V23.8957H184.199V15.8411C184.199 15.0436 184.034 14.4348 183.705 14.0025C183.376 13.5703 182.845 13.3511 182.101 13.3511C181.289 13.3511 180.649 13.6494 180.191 14.24C179.733 14.8305 179.502 15.6402 179.502 16.663V23.8957ZM88.4331 37.2409H91.3247L86.0417 51.6271C85.7062 52.5647 85.2181 53.2831 84.5837 53.7884C83.9492 54.2937 83.1683 54.5433 82.2472 54.5433C81.5395 54.5433 80.9294 54.4398 80.417 54.2268V52.0533C80.8257 52.1568 81.2772 52.2116 81.7713 52.2116C82.2106 52.2116 82.5766 52.1081 82.8572 51.895C83.1378 51.6819 83.388 51.3045 83.6015 50.7565L84.0834 49.4841L79.4043 37.2409H82.296L85.3218 45.9043H85.4804L88.427 37.2409H88.4331ZM173.554 9.08332H170.869V6.19755H173.554V9.08332ZM105.551 14.0391C105.1 13.0345 104.447 12.2552 103.587 11.7073C102.727 11.1594 101.714 10.8854 100.549 10.8854C99.3835 10.8854 98.3952 11.1594 97.5351 11.7073C96.6749 12.2552 96.016 13.0345 95.5585 14.0391C95.101 15.0436 94.8691 16.2308 94.8691 17.5884C94.8691 18.9461 95.101 20.1089 95.5585 21.1256C96.016 22.1423 96.6749 22.9216 97.5351 23.4574C98.3952 23.9931 99.3957 24.2671 100.549 24.2671C101.702 24.2671 102.733 23.9992 103.587 23.4574C104.447 22.9216 105.1 22.1423 105.551 21.1256C106.003 20.1089 106.228 18.9339 106.228 17.5884C106.228 16.243 106.003 15.0436 105.551 14.0391ZM102.745 20.7116C102.251 21.4361 101.513 21.7953 100.543 21.7953C99.5726 21.7953 98.8589 21.4361 98.3647 20.7116C97.8706 19.9871 97.6205 18.9461 97.6205 17.5823C97.6205 16.2186 97.8706 15.1775 98.3647 14.4409C98.8589 13.7103 99.5848 13.3389 100.543 13.3389C101.5 13.3389 102.251 13.7042 102.745 14.4409C103.239 15.1714 103.489 16.2186 103.489 17.5823C103.489 18.9461 103.239 19.9871 102.745 20.7116ZM137.182 23.4939C138.012 24.0236 138.976 24.2915 140.074 24.2915C141.416 24.2915 142.563 23.9444 143.496 23.2565C144.436 22.5685 145.046 21.6309 145.327 20.4498H142.563C142.35 20.943 142.038 21.3204 141.636 21.5761C141.227 21.8318 140.708 21.9597 140.068 21.9597C139.147 21.9597 138.433 21.6127 137.933 20.9125C137.493 20.3098 137.249 19.3905 137.188 18.1729H145.43C145.449 18.0694 145.455 17.9354 145.455 17.7772V17.2718C145.455 15.9812 145.235 14.8549 144.802 13.8929C144.369 12.931 143.747 12.1883 142.941 11.6647C142.136 11.1411 141.19 10.8854 140.117 10.8854C138.982 10.8854 138 11.1533 137.158 11.6829C136.316 12.2126 135.682 12.9797 135.248 13.9903C134.815 14.9949 134.596 16.2003 134.596 17.5945C134.596 18.9887 134.815 20.1698 135.261 21.1865C135.7 22.2032 136.34 22.9764 137.17 23.5061L137.182 23.4939ZM140.129 13.2172C141.032 13.2172 141.733 13.5337 142.227 14.173C142.594 14.6418 142.813 15.3054 142.905 16.1577H137.274C137.39 15.3419 137.609 14.7027 137.939 14.2521C138.445 13.5642 139.171 13.2172 140.129 13.2172ZM117.905 12.0787C118.539 12.8762 118.862 14.0208 118.862 15.5246V23.8957H116.178V15.8411C116.178 15.0436 116.014 14.4348 115.684 14.0025C115.355 13.5703 114.824 13.3511 114.08 13.3511C113.268 13.3511 112.628 13.6494 112.17 14.24C111.713 14.8305 111.481 15.6402 111.481 16.663V23.8957H108.797V11.2811H111.316V12.9249H111.45C111.786 12.2735 112.262 11.7682 112.872 11.4151C113.482 11.062 114.177 10.8854 114.958 10.8854C116.288 10.8854 117.27 11.2811 117.905 12.0787ZM170.101 37.0278C170.473 37.0278 170.784 37.0704 171.028 37.1617V39.6274C170.796 39.5909 170.485 39.5726 170.101 39.5726C169.393 39.5726 168.807 39.6944 168.35 39.9318C167.892 40.1693 167.551 40.5224 167.325 40.9912C167.105 41.46 166.996 42.0566 166.996 42.7811V49.8555H164.311V37.2409H166.831V38.909H166.965C167.282 38.3063 167.715 37.8436 168.252 37.5209C168.789 37.1922 169.405 37.0278 170.095 37.0278H170.101ZM176.659 47.7064C176.994 47.7064 177.324 47.6638 177.641 47.5724V49.7459C177.147 49.9407 176.622 50.0381 176.073 50.0381C175.134 50.0381 174.408 49.7885 173.895 49.2832C173.383 48.7779 173.127 48.0595 173.127 47.1219V32.1512H175.835V46.7262C175.835 47.0428 175.908 47.2863 176.061 47.4568C176.214 47.6272 176.409 47.7064 176.659 47.7064ZM165.617 24.0784C164.537 24.0784 163.677 23.7557 163.042 23.1104C162.408 22.465 162.085 21.5518 162.085 20.3707V13.5581H159.803V11.2811H162.085V8.97373L164.238 6.85506H164.793V11.2811H168.191V13.5581H164.793V20.0785C164.793 20.6264 164.928 21.0343 165.19 21.3083C165.458 21.5822 165.843 21.7162 166.355 21.7162C166.813 21.7162 167.331 21.6431 167.892 21.5031V23.6522C167.258 23.9322 166.495 24.0784 165.611 24.0784H165.617ZM198.194 11.2811V12.8945H198.035C197.718 12.2613 197.248 11.7621 196.626 11.409C196.004 11.0559 195.278 10.8793 194.448 10.8793C193.405 10.8793 192.502 11.1411 191.739 11.6586C190.977 12.1822 190.397 12.9127 190.001 13.8564C189.604 14.8001 189.403 15.9203 189.403 17.211C189.403 18.5016 189.604 19.5975 190.001 20.5473C190.397 21.5031 190.977 22.2337 191.739 22.7451C192.502 23.2565 193.405 23.5122 194.448 23.5122C195.211 23.5122 195.888 23.36 196.479 23.0616C197.071 22.7633 197.535 22.3433 197.87 21.8136H198.005V23.5913C198.005 24.4558 197.773 25.1377 197.303 25.6308C196.833 26.124 196.132 26.3736 195.192 26.3736C194.485 26.3736 193.911 26.2518 193.478 26.0144C193.045 25.777 192.746 25.436 192.587 24.9916H189.854C189.995 25.6795 190.294 26.3005 190.745 26.8485C191.196 27.3964 191.8 27.8286 192.563 28.1452C193.325 28.4618 194.198 28.6201 195.192 28.6201C196.357 28.6201 197.358 28.407 198.194 27.9869C199.023 27.5608 199.652 26.9641 200.079 26.197C200.506 25.4299 200.713 24.5472 200.713 23.5609V11.269H198.194V11.2811ZM197.315 19.9993C196.821 20.669 196.083 21.0039 195.113 21.0039C194.143 21.0039 193.405 20.669 192.911 19.9993C192.416 19.3296 192.166 18.3981 192.166 17.2171C192.166 16.036 192.416 15.0862 192.911 14.4226C193.405 13.759 194.143 13.4302 195.113 13.4302C196.083 13.4302 196.821 13.759 197.315 14.4226C197.809 15.0862 198.059 16.0177 198.059 17.2171C198.059 18.4164 197.809 19.3296 197.315 19.9993ZM187.621 38.7751H187.463C187.109 38.1724 186.633 37.7036 186.029 37.3566C185.425 37.0095 184.736 36.8391 183.961 36.8391C182.918 36.8391 182.021 37.113 181.277 37.661C180.533 38.2089 179.971 38.9821 179.593 39.9805C179.215 40.979 179.02 42.1662 179.02 43.5421C179.02 44.918 179.209 46.0869 179.593 47.0915C179.971 48.096 180.539 48.8692 181.277 49.411C182.021 49.9468 182.912 50.2208 183.961 50.2208C184.809 50.2208 185.547 50.0259 186.163 49.6363C186.786 49.2467 187.268 48.7109 187.621 48.023H187.78V49.8494H190.3V32.1512H187.615V38.7751H187.621ZM186.896 46.6592C186.407 47.3898 185.675 47.7612 184.705 47.7612C183.735 47.7612 183.003 47.402 182.515 46.6775C182.027 45.953 181.783 44.9119 181.783 43.5482C181.783 42.1844 182.027 41.1434 182.515 40.4067C183.003 39.6761 183.729 39.3048 184.705 39.3048C185.681 39.3048 186.407 39.6701 186.896 40.4067C187.384 41.1373 187.628 42.1844 187.628 43.5482C187.628 44.9119 187.384 45.9286 186.896 46.6592ZM159.095 37.6671C158.235 37.1191 157.223 36.8452 156.057 36.8452C154.892 36.8452 153.904 37.1191 153.044 37.6671C152.184 38.215 151.525 38.9943 151.067 39.9988C150.61 41.0033 150.378 42.1905 150.378 43.5482C150.378 44.9058 150.61 46.0687 151.067 47.0854C151.525 48.1021 152.184 48.8814 153.044 49.4171C153.904 49.9529 154.904 50.2269 156.057 50.2269C157.21 50.2269 158.241 49.959 159.095 49.4171C159.956 48.8814 160.608 48.1021 161.06 47.0854C161.511 46.0687 161.737 44.8937 161.737 43.5482C161.737 42.2027 161.511 41.0033 161.06 39.9988C160.608 38.9943 159.956 38.215 159.095 37.6671ZM158.26 46.6714C157.766 47.3959 157.027 47.7551 156.057 47.7551C155.087 47.7551 154.374 47.3959 153.879 46.6714C153.385 45.9469 153.135 44.9058 153.135 43.5421C153.135 42.1784 153.385 41.1373 153.879 40.4006C154.374 39.6701 155.1 39.2987 156.057 39.2987C157.015 39.2987 157.766 39.664 158.26 40.4006C158.754 41.1312 159.004 42.1784 159.004 43.5421C159.004 44.9058 158.754 45.9469 158.26 46.6714ZM113.415 37.2409H116.123V49.8555H113.573V48.2117H113.439C113.104 48.8631 112.628 49.3623 112.018 49.7094C111.408 50.0564 110.712 50.2269 109.931 50.2269C108.601 50.2269 107.619 49.8311 106.985 49.0336C106.35 48.236 106.027 47.0915 106.027 45.5877V37.2409H108.711V45.2711C108.711 46.0687 108.882 46.6775 109.218 47.1097C109.553 47.542 110.084 47.7612 110.81 47.7612C111.621 47.7612 112.262 47.4628 112.719 46.8601C113.177 46.2574 113.409 45.4538 113.409 44.4492V37.2409H113.415ZM125.201 37.0278C125.573 37.0278 125.884 37.0704 126.128 37.1617V39.6274C125.896 39.5909 125.585 39.5726 125.201 39.5726C124.493 39.5726 123.908 39.6944 123.45 39.9318C122.993 40.1693 122.651 40.5224 122.425 40.9912C122.206 41.46 122.096 42.0566 122.096 42.7811V49.8555H119.412V37.2409H121.931V38.909H122.065C122.382 38.3063 122.816 37.8436 123.352 37.5209C123.889 37.1922 124.505 37.0278 125.195 37.0278H125.201ZM129.429 23.8957V15.8411C129.429 15.0436 129.264 14.4348 128.934 14.0025C128.605 13.5703 128.074 13.3511 127.33 13.3511C126.519 13.3511 125.878 13.6494 125.421 14.24C124.963 14.8305 124.731 15.6402 124.731 16.663V23.8957H122.047V11.2811H124.566V12.9249H124.701C125.036 12.2735 125.512 11.7682 126.122 11.4151C126.732 11.062 127.428 10.8854 128.208 10.8854C129.538 10.8854 130.521 11.2811 131.155 12.0787C131.79 12.8762 132.113 14.0208 132.113 15.5246V23.8957H129.429ZM146.522 37.2409H149.206L145.65 49.8555H142.917L140.635 41.5878H140.477L138.195 49.8555H135.407L131.875 37.2409H134.559L136.737 45.6425H136.896L139.098 37.2409H142.02L144.222 45.6425H144.381L146.534 37.2409H146.522ZM150.311 23.4574C149.487 22.9216 148.853 22.1423 148.401 21.1256C147.95 20.1089 147.724 18.9339 147.724 17.5884C147.724 16.243 147.95 15.0253 148.401 14.0269C148.853 13.0284 149.487 12.2552 150.311 11.7073C151.134 11.1594 152.123 10.8854 153.269 10.8854C154.721 10.8854 155.905 11.2933 156.814 12.1152C157.723 12.9371 158.278 14.0391 158.473 15.415H155.74C155.6 14.7453 155.319 14.2339 154.904 13.8808C154.49 13.5276 153.947 13.3511 153.269 13.3511C152.367 13.3511 151.677 13.7164 151.201 14.453C150.726 15.1836 150.481 16.2308 150.481 17.5945C150.481 18.9583 150.719 19.9993 151.201 20.7238C151.677 21.4483 152.367 21.8075 153.269 21.8075C153.94 21.8075 154.483 21.6309 154.904 21.2778C155.319 20.9247 155.588 20.4133 155.716 19.7436H158.479C158.284 21.1195 157.729 22.2215 156.82 23.0434C155.911 23.8653 154.727 24.2732 153.276 24.2732C152.123 24.2732 151.14 24.0053 150.317 23.4635L150.311 23.4574ZM193.435 49.8555V46.3853H196.888V49.8555H193.435Z" fill="#EB008B"/>
</g>
<defs>
<clipPath id="clip0_89_1166">
<rect width="201" height="59" fill="white"/>
</clipPath>
</defs>
</svg>
