<svg width="255" height="74" viewBox="0 0 255 74" fill="none" xmlns="http://www.w3.org/2000/svg">
<path d="M110.139 45.9045V53.8244H105.383C101.992 53.8244 99.3506 52.9973 97.4545 51.3396C95.5585 49.6818 94.6123 46.9787 94.6123 43.23V31.1066H90.8955V23.3515H94.6123V21.2211L103.96 14.1533V23.3551H110.082V31.1102H103.96V43.3445C103.96 44.2575 104.179 44.9091 104.616 45.3101C105.053 45.7111 105.781 45.9117 106.802 45.9117H110.139V45.9045Z" fill="#23354E"/>
<path d="M126.382 24.469C128.02 23.5058 129.845 23.0225 131.848 23.0225V32.908H129.278C126.945 32.908 125.196 33.4093 124.031 34.4082C122.863 35.4107 122.282 37.1651 122.282 39.6786V53.8248H112.935V23.3519H122.282V28.4325C123.375 26.7569 124.741 25.4393 126.382 24.4725V24.469Z" fill="#23354E"/>
<path d="M162.533 40.8236H141.375C141.522 42.7176 142.131 44.1641 143.207 45.1667C144.282 46.1692 145.605 46.6668 147.171 46.6668C149.504 46.6668 151.124 45.6822 152.038 43.7166H161.988C161.479 45.718 160.558 47.5226 159.228 49.123C157.895 50.7271 156.228 51.9802 154.225 52.8896C152.221 53.8026 149.977 54.2537 147.501 54.2537C144.511 54.2537 141.848 53.6165 139.519 52.3418C137.185 51.0672 135.364 49.2483 134.053 46.8817C132.741 44.515 132.085 41.7473 132.085 38.5822C132.085 35.4171 132.73 32.6459 134.024 30.2793C135.318 27.9126 137.132 26.0937 139.465 24.8191C141.798 23.5445 144.476 22.9072 147.501 22.9072C150.526 22.9072 153.078 23.5266 155.371 24.7619C157.669 26.0007 159.465 27.7658 160.755 30.0609C162.049 32.3559 162.694 35.0305 162.694 38.0882C162.694 38.9618 162.64 39.8712 162.529 40.82L162.533 40.8236ZM153.131 35.6355C153.131 34.0351 152.583 32.7605 151.493 31.8117C150.4 30.8665 149.031 30.3938 147.393 30.3938C145.755 30.3938 144.504 30.8486 143.429 31.758C142.354 32.671 141.687 33.9599 141.433 35.6355H153.131Z" fill="#23354E"/>
<path d="M178.096 24.2216C179.734 23.3479 181.612 22.9112 183.727 22.9112C186.243 22.9112 188.519 23.5484 190.562 24.8231C192.601 26.0977 194.214 27.9201 195.4 30.2832C196.583 32.6498 197.178 35.3996 197.178 38.5289C197.178 41.6582 196.587 44.4187 195.4 46.8033C194.214 49.1878 192.601 51.0281 190.562 52.3207C188.519 53.6132 186.243 54.2577 183.727 54.2577C181.576 54.2577 179.698 53.8316 178.096 52.9759C176.49 52.1202 175.236 50.9816 174.325 49.5638V53.8244H164.978V15.1523H174.325V27.6659C175.2 26.248 176.458 25.0988 178.096 24.2252V24.2216ZM185.723 33.0437C184.429 31.7153 182.834 31.0495 180.938 31.0495C179.042 31.0495 177.501 31.7225 176.207 33.0688C174.913 34.415 174.268 36.2553 174.268 38.5862C174.268 40.917 174.913 42.7538 176.207 44.1036C177.501 45.4499 179.078 46.123 180.938 46.123C182.798 46.123 184.382 45.4391 185.694 44.075C187.006 42.7108 187.662 40.8633 187.662 38.5325C187.662 36.2016 187.013 34.372 185.723 33.0437Z" fill="#23354E"/>
<path d="M208.805 15.1484V53.8205H199.457V15.1484H208.805Z" fill="#23354E"/>
<path d="M221.547 15.1484V53.8205H212.199V15.1484H221.547Z" fill="#23354E"/>
<path d="M254.278 40.8236H233.12C233.267 42.7176 233.877 44.1641 234.952 45.1667C236.027 46.1692 237.35 46.6668 238.916 46.6668C241.249 46.6668 242.869 45.6822 243.783 43.7166H253.733C253.224 45.718 252.303 47.5226 250.973 49.123C249.64 50.7271 247.973 51.9802 245.97 52.8896C243.966 53.8026 241.722 54.2537 239.246 54.2537C236.256 54.2537 233.593 53.6165 231.264 52.3418C228.93 51.0672 227.11 49.2483 225.798 46.8817C224.486 44.515 223.83 41.7473 223.83 38.5822C223.83 35.4171 224.475 32.6459 225.769 30.2793C227.063 27.9126 228.877 26.0937 231.21 24.8191C233.543 23.5445 236.221 22.9072 239.246 22.9072C242.271 22.9072 244.823 23.5266 247.117 24.7619C249.414 26.0007 251.21 27.7658 252.5 30.0609C253.794 32.3559 254.439 35.0305 254.439 38.0882C254.439 38.9618 254.385 39.8712 254.274 40.82L254.278 40.8236ZM244.876 35.6355C244.876 34.0351 244.328 32.7605 243.238 31.8117C242.145 30.8665 240.776 30.3938 239.138 30.3938C237.5 30.3938 236.249 30.8486 235.174 31.758C234.099 32.671 233.432 33.9599 233.178 35.6355H244.876Z" fill="#23354E"/>
<path d="M73.3256 0H0V36.9499C0 57.0074 16.3798 73.2481 36.6377 73.2481C56.8956 73.2481 73.3256 56.9895 73.3256 36.932V0Z" fill="#0047BB"/>
<path d="M29.4688 27.3719V56.2659H45.336V27.3719H55.7553V14.1172H45.336L29.4688 27.3719Z" fill="white"/>
<path d="M29.4688 27.3719V14.1172L13.6016 27.3719H29.4688Z" fill="white"/>
</svg>
