<svg width="238" height="67" viewBox="0 0 238 67" fill="none" xmlns="http://www.w3.org/2000/svg">
<path d="M112.531 15.8628H107.7L96.8444 30.3144L85.9885 15.8628H81.0654L94.4068 33.4623L81.4455 50.596H86.3719L96.8444 36.6205L107.317 50.596H112.151L99.1896 33.4623L112.531 15.8628Z" fill="black"/>
<path d="M138.177 15.8628L127.3 33.6199L116.519 15.8628H111.761L125.171 37.6001V50.596H129.426V37.696L142.88 15.8628H138.177Z" fill="black"/>
<path d="M150.837 46.715V15.8628H146.578V50.596H170.351V46.715H150.837Z" fill="black"/>
<path d="M201.388 26.8548C200.615 24.7688 199.509 22.8677 198.098 21.2167C196.681 19.5554 194.952 18.1955 192.96 17.1747C190.95 16.1471 188.711 15.623 186.298 15.623C183.884 15.623 181.802 16.1129 179.81 17.072C177.828 18.0379 176.082 19.3464 174.627 20.9666C173.168 22.5834 172.008 24.4742 171.183 26.5808C170.354 28.6805 169.937 30.9172 169.937 33.2259C169.937 35.5346 170.33 37.6139 171.107 39.7205C171.884 41.8237 173.001 43.7247 174.428 45.362C175.856 47.0062 177.591 48.3386 179.598 49.3354C181.6 50.3253 183.839 50.8323 186.25 50.8323C188.66 50.8323 190.741 50.3459 192.734 49.3834C194.713 48.4243 196.448 47.1192 197.889 45.5127C199.331 43.9131 200.478 42.0325 201.31 39.9191C202.135 37.8125 202.556 35.5758 202.556 33.2739C202.556 31.0954 202.159 28.934 201.382 26.8548H201.388ZM186.253 46.9069C184.462 46.9069 182.823 46.5335 181.371 45.7902C179.913 45.0435 178.629 44.0261 177.564 42.7587C176.493 41.4879 175.657 40.015 175.075 38.3811C174.493 36.7404 174.195 35.0071 174.195 33.2259C174.195 31.5407 174.486 29.8623 175.051 28.2387C175.623 26.6082 176.434 25.1353 177.475 23.8576C178.502 22.5834 179.783 21.5421 181.279 20.7645C182.758 19.9938 184.432 19.5999 186.25 19.5999C188.067 19.5999 189.629 19.9733 191.08 20.7166C192.539 21.4599 193.822 22.4703 194.887 23.724C195.959 24.9742 196.801 26.4369 197.4 28.0777C197.996 29.7116 198.3 31.4447 198.3 33.2259C198.3 34.9078 198.013 36.5862 197.448 38.2201C196.88 39.8369 196.068 41.3132 195.024 42.5977C193.99 43.8754 192.706 44.927 191.217 45.7183C189.738 46.5027 188.067 46.9034 186.25 46.9034L186.253 46.9069Z" fill="black"/>
<path d="M232.847 15.9108V43.1287L211.169 15.8628H207.913V50.596H212.175V23.8439L233.518 50.596H237.105V15.9108H232.847Z" fill="black"/>
<path d="M0 0V66.4622H66.423V0H0ZM5.47077 58.5736L24.3857 33.5754L4.91273 7.88518H11.616L27.7031 29.3005L43.7867 7.88518H50.3461L28.0762 37.357L12.174 58.5736H5.47077ZM60.9556 58.5736H54.3962L38.8671 37.8571L23.345 58.5736H16.6417L35.7655 33.298L38.5008 29.787L54.9542 7.88518H61.5171L42.0441 33.5754L60.9556 58.5736Z" fill="#FFDA00"/>
<path d="M42.044 33.5754L60.9555 58.5737H54.3961L38.867 37.8571L23.3449 58.5737H16.6416L35.7654 33.2981L38.5008 29.7871L54.9541 7.88525H61.517L42.044 33.5754Z" fill="white"/>
<path d="M50.3465 7.88525L28.0765 37.3571L12.1744 58.5737H5.47112L24.3861 33.5754L4.91309 7.88525H11.6163L27.7034 29.3006L43.7871 7.88525H50.3465Z" fill="white"/>
</svg>
