<svg width="329" height="46" viewBox="0 0 329 46" fill="none" xmlns="http://www.w3.org/2000/svg">
<path d="M83.6912 22.4361V7.61461L91.3016 0H0L79.0694 45.6738L76.2828 35.271L83.6912 22.4361Z" fill="#EE1417"/>
<path d="M203.949 26.9234H222.905V35.1716H187.023V27.2487L206.565 8.15923H187.28V0H222.806V7.87833L203.949 26.9234Z" fill="#010101"/>
<path d="M328.671 35.1716H316.654V0H328.671V35.1716Z" fill="#010101"/>
<path d="M252.706 21.8572L247.403 6.92611L242.094 21.8572H252.71H252.706ZM239.512 29.1293L237.362 35.1716H225.109L238.612 0H256.185L269.687 35.1716H257.434L255.288 29.1293H239.516H239.512Z" fill="#010101"/>
<path d="M168.002 21.8572L162.699 6.92611L157.389 21.8572H168.006H168.002ZM154.808 29.1293L152.661 35.1716H140.405L153.908 0H171.481L184.983 35.1716H172.73L170.58 29.1293H154.808Z" fill="#010101"/>
<path d="M117.204 35.1682V23.2548L100.426 0H114.387L123.288 14.2119L132.175 0H146.13L129.354 23.2548V35.1682H117.204Z" fill="#010101"/>
<path d="M284.696 35.1716H272.703V0H284.696V35.1716Z" fill="#010101"/>
<path d="M284.706 16.9076L298.027 0H312.139L297.986 16.9076L313.039 35.1716H298.561L284.706 16.9076Z" fill="#010101"/>
</svg>
