<svg width="22" height="23" viewBox="0 0 22 23" fill="none" xmlns="http://www.w3.org/2000/svg">
<path d="M8.88805 12.1998C8.82205 12.1998 7.37005 12.1998 6.71005 12.1998C6.35805 12.1998 6.24805 12.0678 6.24805 11.7378C6.24805 10.8578 6.24805 9.95583 6.24805 9.07583C6.24805 8.72383 6.38005 8.61383 6.71005 8.61383H8.88805C8.88805 8.54783 8.88805 7.27183 8.88805 6.67783C8.88805 5.79783 9.04205 4.96183 9.48205 4.19183C9.94405 3.39983 10.604 2.87183 11.44 2.56383C11.99 2.36583 12.54 2.27783 13.134 2.27783H15.29C15.598 2.27783 15.73 2.40983 15.73 2.71783V5.22583C15.73 5.53383 15.598 5.66583 15.29 5.66583C14.696 5.66583 14.102 5.66583 13.508 5.68783C12.914 5.68783 12.606 5.97383 12.606 6.58983C12.584 7.24983 12.606 7.88783 12.606 8.56983H15.158C15.51 8.56983 15.642 8.70183 15.642 9.05383V11.7158C15.642 12.0678 15.532 12.1778 15.158 12.1778C14.366 12.1778 12.672 12.1778 12.606 12.1778V19.3498C12.606 19.7238 12.496 19.8558 12.1 19.8558C11.176 19.8558 10.274 19.8558 9.35005 19.8558C9.02005 19.8558 8.88805 19.7238 8.88805 19.3938C8.88805 17.0838 8.88805 12.2658 8.88805 12.1998Z" fill="white"/>
</svg>
