<svg width="22" height="23" viewBox="0 0 22 23" fill="none" xmlns="http://www.w3.org/2000/svg">
<path d="M19.7999 19.8558V13.4098C19.7999 10.2418 19.1179 7.82178 15.4219 7.82178C13.6399 7.82178 12.4519 8.78978 11.9679 9.71378H11.9239V8.10778H8.4259V19.8558H12.0779V14.0258C12.0779 12.4858 12.3639 11.0118 14.2559 11.0118C16.1259 11.0118 16.1479 12.7498 16.1479 14.1138V19.8338H19.7999V19.8558Z" fill="white"/>
<path d="M2.48596 8.10791H6.13796V19.8559H2.48596V8.10791Z" fill="white"/>
<path d="M4.31195 2.25586C3.14595 2.25586 2.19995 3.20186 2.19995 4.36786C2.19995 5.53386 3.14595 6.50186 4.31195 6.50186C5.47795 6.50186 6.42395 5.53386 6.42395 4.36786C6.42395 3.20186 5.47795 2.25586 4.31195 2.25586Z" fill="white"/>
</svg>
